<svg viewBox="0 0 329.9999694824219 199.99998474121094" xmlns="http://www.w3.org/2000/svg"><g><g><g><g><g><line x1="51.5625" y1="176.921875" x2="46.5625" y2="176.921875" style="visibility: inherit;" fill="rgb(0, 0, 0)" stroke="rgb(204, 204, 204)" stroke-width="1.176471px"></line><line x1="51.5625" y1="157.26388888888889" x2="46.5625" y2="157.26388888888889" style="visibility: inherit;" fill="rgb(0, 0, 0)" stroke="rgb(204, 204, 204)" stroke-width="1.176471px"></line><line x1="51.5625" y1="137.60590277777777" x2="46.5625" y2="137.60590277777777" style="visibility: inherit;" fill="rgb(0, 0, 0)" stroke="rgb(204, 204, 204)" stroke-width="1.176471px"></line><line x1="51.5625" y1="117.94791666666669" x2="46.5625" y2="117.94791666666669" style="visibility: inherit;" fill="rgb(0, 0, 0)" stroke="rgb(204, 204, 204)" stroke-width="1.176471px"></line><line x1="51.5625" y1="98.28993055555556" x2="46.5625" y2="98.28993055555556" style="visibility: inherit;" fill="rgb(0, 0, 0)" stroke="rgb(204, 204, 204)" stroke-width="1.176471px"></line><line x1="51.5625" y1="78.63194444444444" x2="46.5625" y2="78.63194444444444" style="visibility: inherit;" fill="rgb(0, 0, 0)" stroke="rgb(204, 204, 204)" stroke-width="1.176471px"></line><line x1="51.5625" y1="58.97395833333334" x2="46.5625" y2="58.97395833333334" style="visibility: inherit;" fill="rgb(0, 0, 0)" stroke="rgb(204, 204, 204)" stroke-width="1.176471px"></line><line x1="51.5625" y1="39.31597222222222" x2="46.5625" y2="39.31597222222222" style="visibility: inherit;" fill="rgb(0, 0, 0)" stroke="rgb(204, 204, 204)" stroke-width="1.176471px"></line><line x1="51.5625" y1="19.65798611111112" x2="46.5625" y2="19.65798611111112" style="visibility: inherit;" fill="rgb(0, 0, 0)" stroke="rgb(204, 204, 204)" stroke-width="1.176471px"></line><line x1="51.5625" y1="0" x2="46.5625" y2="0" style="visibility: inherit;" fill="rgb(0, 0, 0)" stroke="rgb(204, 204, 204)" stroke-width="1.176471px"></line></g><g transform="translate(41.5625, 0)"><text style="text-anchor: end; visibility: hidden; font-family: Roboto, sans-serif; font-size: 14.117646px; font-weight: 200;" x="0" y="176.921875" dx="0em" dy="0.3em" fill="rgb(33, 33, 33)" stroke="none" stroke-width="1.176471px">-100</text><text style="text-anchor: end; visibility: inherit; font-family: Roboto, sans-serif; font-size: 14.117646px; font-weight: 200;" x="0" y="157.26388888888889" dx="0em" dy="0.3em" fill="rgb(33, 33, 33)" stroke="none" stroke-width="1.176471px">0</text><text style="text-anchor: end; visibility: hidden; font-family: Roboto, sans-serif; font-size: 14.117646px; font-weight: 200;" x="0" y="137.60590277777777" dx="0em" dy="0.3em" fill="rgb(33, 33, 33)" stroke="none" stroke-width="1.176471px">100</text><text style="text-anchor: end; visibility: inherit; font-family: Roboto, sans-serif; font-size: 14.117646px; font-weight: 200;" x="0" y="117.94791666666669" dx="0em" dy="0.3em" fill="rgb(33, 33, 33)" stroke="none" stroke-width="1.176471px">200</text><text style="text-anchor: end; visibility: hidden; font-family: Roboto, sans-serif; font-size: 14.117646px; font-weight: 200;" x="0" y="98.28993055555556" dx="0em" dy="0.3em" fill="rgb(33, 33, 33)" stroke="none" stroke-width="1.176471px">300</text><text style="text-anchor: end; visibility: inherit; font-family: Roboto, sans-serif; font-size: 14.117646px; font-weight: 200;" x="0" y="78.63194444444444" dx="0em" dy="0.3em" fill="rgb(33, 33, 33)" stroke="none" stroke-width="1.176471px">400</text><text style="text-anchor: end; visibility: hidden; font-family: Roboto, sans-serif; font-size: 14.117646px; font-weight: 200;" x="0" y="58.97395833333334" dx="0em" dy="0.3em" fill="rgb(33, 33, 33)" stroke="none" stroke-width="1.176471px">500</text><text style="text-anchor: end; visibility: inherit; font-family: Roboto, sans-serif; font-size: 14.117646px; font-weight: 200;" x="0" y="39.31597222222222" dx="0em" dy="0.3em" fill="rgb(33, 33, 33)" stroke="none" stroke-width="1.176471px">600</text><text style="text-anchor: end; visibility: hidden; font-family: Roboto, sans-serif; font-size: 14.117646px; font-weight: 200;" x="0" y="19.65798611111112" dx="0em" dy="0.3em" fill="rgb(33, 33, 33)" stroke="none" stroke-width="1.176471px">700</text><text style="text-anchor: end; visibility: hidden; font-family: Roboto, sans-serif; font-size: 14.117646px; font-weight: 200;" x="0" y="0" dx="0em" dy="0.3em" fill="rgb(33, 33, 33)" stroke="none" stroke-width="1.176471px">800</text></g><line x1="51.5625" y1="0" x2="51.5625" y2="176.921875" fill="rgb(0, 0, 0)" stroke="rgb(204, 204, 204)" stroke-width="1.176471px"></line></g></g><g transform="translate(51, 0)" clip-path="url(#clip_0)"><clipPath id="clip_0"><rect width="278" height="176"></rect></clipPath><g><g><g><line x1="0" y1="0" x2="0" y2="176.921875" fill="rgb(0, 0, 0)" stroke="rgb(66, 66, 66)" stroke-width="1.176471px" opacity="0.25"></line><line x1="25.3125" y1="0" x2="25.3125" y2="176.921875" fill="rgb(0, 0, 0)" stroke="rgb(66, 66, 66)" stroke-width="1.176471px" opacity="0.25"></line><line x1="50.625" y1="0" x2="50.625" y2="176.921875" fill="rgb(0, 0, 0)" stroke="rgb(66, 66, 66)" stroke-width="1.176471px" opacity="0.25"></line><line x1="75.9375" y1="0" x2="75.9375" y2="176.921875" fill="rgb(0, 0, 0)" stroke="rgb(66, 66, 66)" stroke-width="1.176471px" opacity="0.25"></line><line x1="101.25" y1="0" x2="101.25" y2="176.921875" fill="rgb(0, 0, 0)" stroke="rgb(66, 66, 66)" stroke-width="1.176471px" opacity="0.25"></line><line x1="126.5625" y1="0" x2="126.5625" y2="176.921875" fill="rgb(0, 0, 0)" stroke="rgb(66, 66, 66)" stroke-width="1.176471px" opacity="0.25"></line><line x1="151.875" y1="0" x2="151.875" y2="176.921875" fill="rgb(0, 0, 0)" stroke="rgb(66, 66, 66)" stroke-width="1.176471px" opacity="0.25"></line><line x1="177.1875" y1="0" x2="177.1875" y2="176.921875" fill="rgb(0, 0, 0)" stroke="rgb(66, 66, 66)" stroke-width="1.176471px" opacity="0.25"></line><line x1="202.5" y1="0" x2="202.5" y2="176.921875" fill="rgb(0, 0, 0)" stroke="rgb(66, 66, 66)" stroke-width="1.176471px" opacity="0.25"></line><line x1="227.8125" y1="0" x2="227.8125" y2="176.921875" fill="rgb(0, 0, 0)" stroke="rgb(66, 66, 66)" stroke-width="1.176471px" opacity="0.25"></line><line x1="253.125" y1="0" x2="253.125" y2="176.921875" fill="rgb(0, 0, 0)" stroke="rgb(66, 66, 66)" stroke-width="1.176471px" opacity="0.25"></line><line x1="278.4375" y1="0" x2="278.4375" y2="176.921875" fill="rgb(0, 0, 0)" stroke="rgb(66, 66, 66)" stroke-width="1.176471px" opacity="0.25"></line></g><g><line x1="0" y1="176.921875" x2="278.4375" y2="176.921875" fill="rgb(0, 0, 0)" stroke="rgb(66, 66, 66)" stroke-width="1.176471px" opacity="0.25"></line><line x1="0" y1="157.26388888888889" x2="278.4375" y2="157.26388888888889" fill="rgb(0, 0, 0)" stroke="rgb(66, 66, 66)" stroke-width="1.176471px" opacity="0.25"></line><line x1="0" y1="137.60590277777777" x2="278.4375" y2="137.60590277777777" fill="rgb(0, 0, 0)" stroke="rgb(66, 66, 66)" stroke-width="1.176471px" opacity="0.25"></line><line x1="0" y1="117.94791666666669" x2="278.4375" y2="117.94791666666669" fill="rgb(0, 0, 0)" stroke="rgb(66, 66, 66)" stroke-width="1.176471px" opacity="0.25"></line><line x1="0" y1="98.28993055555556" x2="278.4375" y2="98.28993055555556" fill="rgb(0, 0, 0)" stroke="rgb(66, 66, 66)" stroke-width="1.176471px" opacity="0.25"></line><line x1="0" y1="78.63194444444444" x2="278.4375" y2="78.63194444444444" fill="rgb(0, 0, 0)" stroke="rgb(66, 66, 66)" stroke-width="1.176471px" opacity="0.25"></line><line x1="0" y1="58.97395833333334" x2="278.4375" y2="58.97395833333334" fill="rgb(0, 0, 0)" stroke="rgb(66, 66, 66)" stroke-width="1.176471px" opacity="0.25"></line><line x1="0" y1="39.31597222222222" x2="278.4375" y2="39.31597222222222" fill="rgb(0, 0, 0)" stroke="rgb(66, 66, 66)" stroke-width="1.176471px" opacity="0.25"></line><line x1="0" y1="19.65798611111112" x2="278.4375" y2="19.65798611111112" fill="rgb(0, 0, 0)" stroke="rgb(66, 66, 66)" stroke-width="1.176471px" opacity="0.25"></line><line x1="0" y1="0" x2="278.4375" y2="0" fill="rgb(0, 0, 0)" stroke="rgb(66, 66, 66)" stroke-width="1.176471px" opacity="0.25"></line></g></g></g><g><g><line x1="0" y1="157.26388888888889" x2="278.4375" y2="157.26388888888889" fill="rgb(0, 0, 0)" stroke="rgb(153, 153, 153)" stroke-width="1.764706px"></line></g></g><g><g><line x1="0" y1="0" x2="0" y2="176.921875" fill="rgb(0, 0, 0)" stroke="rgb(153, 153, 153)" stroke-width="1.764706px"></line></g></g><g><g><g><g><g><path style="fill: none;" stroke="rgb(255, 112, 67)" stroke-width="2.352941px" d="M10.368,24.482723487218227L15.552,-65.72724115305475L20.736,-57.7349517691865L25.919999999999998,6.608301263887942L31.104,28.73185669311923L36.288000000000004,72.30199577965507L41.472,91.27551531060998L46.656,105.39854078094963L51.839999999999996,115.09959127523375L57.024,123.50670558657717L62.208,123.61219821802185L67.392,118.26839944990147L72.57600000000001,116.12314000529125L77.76,121.17139832343324L82.944,127.19904979926663L88.128,131.94288449109484L93.312,123.8694885451281L98.496,124.39770078621963L103.67999999999999,129.63400343227795L108.864,127.14419576920112L114.048,126.55341598145762L119.232,125.54012083753682L124.416,126.16226552179374L129.6,130.22822710933931L134.784,126.02258584622665L139.968,135.11953370591414L145.15200000000002,141.00585794007733L150.33599999999998,138.89030912936948L155.52,141.39038650212746L160.70399999999998,141.80467571384153L165.888,143.18362072825545L171.07199999999997,139.58761103994462L176.256,145.44732215104793L181.44000000000003,149.17916204916827L186.624,150.47560718772047L191.80800000000002,151.26091559149538L196.992,151.76439700579922L202.17600000000002,147.55442565220088L207.35999999999999,150.32381122076097L212.544,152.29714849006817L217.728,152.24797801814185L222.912,153.2968788204574L228.096,154.3382006546938L233.28,154.813909095335L238.464,154.6703102210857L243.648,155.2075138294951L248.832,155.19625775615532L254.016,155.39224764098594" fill="none"></path></g></g></g></g><g opacity="0.2"><g><g><g><path style="fill: none;" stroke="rgb(255, 112, 67)" stroke-width="2.352941px" d="M10.368,24.482723487218227L15.552,-119.85321993721855L20.736,-50.062353960673L25.919999999999998,82.27596683078342L31.104,57.61637066152361L36.288000000000004,132.5751833864053L41.472,118.40795181618796L46.656,125.99004749774934L51.839999999999996,129.40675642225477L57.024,135.99029054019186L62.208,123.76948035478593L67.392,110.28178201463486L72.57600000000001,112.91225548267363L77.76,128.7338957370652L82.944,136.23344173497622L88.128,139.05529080907505L93.312,111.76281101677152L98.496,125.18988503482606L103.67999999999999,137.48765970336066L108.864,123.40971185286841L114.048,125.66727869960997L119.232,124.020211464564L124.416,127.09547026501761L129.6,136.32712132546638L134.784,119.71415384345585L139.968,148.76491670111815L145.15200000000002,149.8353292298317L150.33599999999998,135.7169891611735L155.52,145.14050025833976L160.70399999999998,142.4261093024413L165.888,145.25203779260318L171.07199999999997,134.19359722296397L176.256,154.23688811817104L181.44000000000003,154.77692162904475L186.624,152.42027483983173L191.80800000000002,152.4388781769077L196.992,152.51961911946535L202.17600000000002,141.23946866088446L207.35999999999999,154.4778895581762L212.544,155.25715438743433L217.728,152.174222310351L222.912,154.87023002266884L228.096,155.90018340529667L233.28,155.52747175609073L238.464,154.45491190974911L243.648,156.0133192420254L248.832,155.17937364614673L254.016,155.6862324682209" fill="none"></path></g></g></g></g></g></g><g transform="translate(51, 176)" clip-path="url(#clip_1)"><clipPath id="clip_1"><rect width="278" height="23"></rect></clipPath><g><g><line x1="0" y1="0" x2="0" y2="5" style="visibility: inherit;" fill="rgb(0, 0, 0)" stroke="rgb(204, 204, 204)" stroke-width="1.176471px"></line><line x1="25.3125" y1="0" x2="25.3125" y2="5" style="visibility: inherit;" fill="rgb(0, 0, 0)" stroke="rgb(204, 204, 204)" stroke-width="1.176471px"></line><line x1="50.625" y1="0" x2="50.625" y2="5" style="visibility: inherit;" fill="rgb(0, 0, 0)" stroke="rgb(204, 204, 204)" stroke-width="1.176471px"></line><line x1="75.9375" y1="0" x2="75.9375" y2="5" style="visibility: inherit;" fill="rgb(0, 0, 0)" stroke="rgb(204, 204, 204)" stroke-width="1.176471px"></line><line x1="101.25" y1="0" x2="101.25" y2="5" style="visibility: inherit;" fill="rgb(0, 0, 0)" stroke="rgb(204, 204, 204)" stroke-width="1.176471px"></line><line x1="126.5625" y1="0" x2="126.5625" y2="5" style="visibility: inherit;" fill="rgb(0, 0, 0)" stroke="rgb(204, 204, 204)" stroke-width="1.176471px"></line><line x1="151.875" y1="0" x2="151.875" y2="5" style="visibility: inherit;" fill="rgb(0, 0, 0)" stroke="rgb(204, 204, 204)" stroke-width="1.176471px"></line><line x1="177.1875" y1="0" x2="177.1875" y2="5" style="visibility: inherit;" fill="rgb(0, 0, 0)" stroke="rgb(204, 204, 204)" stroke-width="1.176471px"></line><line x1="202.5" y1="0" x2="202.5" y2="5" style="visibility: inherit;" fill="rgb(0, 0, 0)" stroke="rgb(204, 204, 204)" stroke-width="1.176471px"></line><line x1="227.8125" y1="0" x2="227.8125" y2="5" style="visibility: inherit;" fill="rgb(0, 0, 0)" stroke="rgb(204, 204, 204)" stroke-width="1.176471px"></line><line x1="253.125" y1="0" x2="253.125" y2="5" style="visibility: inherit;" fill="rgb(0, 0, 0)" stroke="rgb(204, 204, 204)" stroke-width="1.176471px"></line><line x1="278.4375" y1="0" x2="278.4375" y2="5" style="visibility: inherit;" fill="rgb(0, 0, 0)" stroke="rgb(204, 204, 204)" stroke-width="1.176471px"></line></g><g transform="translate(0, 8)"><text style="text-anchor: middle; visibility: hidden; font-family: Roboto, sans-serif; font-size: 14.117646px; font-weight: 200;" x="0" y="0" dx="0em" dy="0.95em" fill="rgb(33, 33, 33)" stroke="none" stroke-width="1.176471px">0</text><text style="text-anchor: middle; visibility: inherit; font-family: Roboto, sans-serif; font-size: 14.117646px; font-weight: 200;" x="25.3125" y="0" dx="0em" dy="0.95em" fill="rgb(33, 33, 33)" stroke="none" stroke-width="1.176471px">10k</text><text style="text-anchor: middle; visibility: hidden; font-family: Roboto, sans-serif; font-size: 14.117646px; font-weight: 200;" x="50.625" y="0" dx="0em" dy="0.95em" fill="rgb(33, 33, 33)" stroke="none" stroke-width="1.176471px">20k</text><text style="text-anchor: middle; visibility: inherit; font-family: Roboto, sans-serif; font-size: 14.117646px; font-weight: 200;" x="75.9375" y="0" dx="0em" dy="0.95em" fill="rgb(33, 33, 33)" stroke="none" stroke-width="1.176471px">30k</text><text style="text-anchor: middle; visibility: hidden; font-family: Roboto, sans-serif; font-size: 14.117646px; font-weight: 200;" x="101.25" y="0" dx="0em" dy="0.95em" fill="rgb(33, 33, 33)" stroke="none" stroke-width="1.176471px">40k</text><text style="text-anchor: middle; visibility: inherit; font-family: Roboto, sans-serif; font-size: 14.117646px; font-weight: 200;" x="126.5625" y="0" dx="0em" dy="0.95em" fill="rgb(33, 33, 33)" stroke="none" stroke-width="1.176471px">50k</text><text style="text-anchor: middle; visibility: hidden; font-family: Roboto, sans-serif; font-size: 14.117646px; font-weight: 200;" x="151.875" y="0" dx="0em" dy="0.95em" fill="rgb(33, 33, 33)" stroke="none" stroke-width="1.176471px">60k</text><text style="text-anchor: middle; visibility: inherit; font-family: Roboto, sans-serif; font-size: 14.117646px; font-weight: 200;" x="177.1875" y="0" dx="0em" dy="0.95em" fill="rgb(33, 33, 33)" stroke="none" stroke-width="1.176471px">70k</text><text style="text-anchor: middle; visibility: hidden; font-family: Roboto, sans-serif; font-size: 14.117646px; font-weight: 200;" x="202.5" y="0" dx="0em" dy="0.95em" fill="rgb(33, 33, 33)" stroke="none" stroke-width="1.176471px">80k</text><text style="text-anchor: middle; visibility: inherit; font-family: Roboto, sans-serif; font-size: 14.117646px; font-weight: 200;" x="227.8125" y="0" dx="0em" dy="0.95em" fill="rgb(33, 33, 33)" stroke="none" stroke-width="1.176471px">90k</text><text style="text-anchor: middle; visibility: hidden; font-family: Roboto, sans-serif; font-size: 14.117646px; font-weight: 200;" x="253.125" y="0" dx="0em" dy="0.95em" fill="rgb(33, 33, 33)" stroke="none" stroke-width="1.176471px">100k</text><text style="text-anchor: middle; visibility: hidden; font-family: Roboto, sans-serif; font-size: 14.117646px; font-weight: 200;" x="278.4375" y="0" dx="0em" dy="0.95em" fill="rgb(33, 33, 33)" stroke="none" stroke-width="1.176471px">110k</text></g><line x1="0" y1="0" x2="278.4375" y2="0" fill="rgb(0, 0, 0)" stroke="rgb(204, 204, 204)" stroke-width="1.176471px"></line></g></g></g></g></svg>