<svg viewBox="0 0 329.9999694824219 199.99998474121094" xmlns="http://www.w3.org/2000/svg"><g><g><g><g><g><line x1="72.34375" y1="176.921875" x2="67.34375" y2="176.921875" style="visibility: inherit;" fill="rgb(0, 0, 0)" stroke="rgb(204, 204, 204)" stroke-width="1.176471px"></line><line x1="72.34375" y1="151.64732142857144" x2="67.34375" y2="151.64732142857144" style="visibility: inherit;" fill="rgb(0, 0, 0)" stroke="rgb(204, 204, 204)" stroke-width="1.176471px"></line><line x1="72.34375" y1="126.37276785714286" x2="67.34375" y2="126.37276785714286" style="visibility: inherit;" fill="rgb(0, 0, 0)" stroke="rgb(204, 204, 204)" stroke-width="1.176471px"></line><line x1="72.34375" y1="101.09821428571428" x2="67.34375" y2="101.09821428571428" style="visibility: inherit;" fill="rgb(0, 0, 0)" stroke="rgb(204, 204, 204)" stroke-width="1.176471px"></line><line x1="72.34375" y1="75.82366071428572" x2="67.34375" y2="75.82366071428572" style="visibility: inherit;" fill="rgb(0, 0, 0)" stroke="rgb(204, 204, 204)" stroke-width="1.176471px"></line><line x1="72.34375" y1="50.54910714285714" x2="67.34375" y2="50.54910714285714" style="visibility: inherit;" fill="rgb(0, 0, 0)" stroke="rgb(204, 204, 204)" stroke-width="1.176471px"></line><line x1="72.34375" y1="25.27455357142856" x2="67.34375" y2="25.27455357142856" style="visibility: inherit;" fill="rgb(0, 0, 0)" stroke="rgb(204, 204, 204)" stroke-width="1.176471px"></line><line x1="72.34375" y1="0" x2="67.34375" y2="0" style="visibility: inherit;" fill="rgb(0, 0, 0)" stroke="rgb(204, 204, 204)" stroke-width="1.176471px"></line></g><g transform="translate(62.34375, 0)"><text style="text-anchor: end; visibility: hidden; font-family: Roboto, sans-serif; font-size: 14.117646px; font-weight: 200;" x="0" y="176.921875" dx="0em" dy="0.3em" fill="rgb(33, 33, 33)" stroke="none" stroke-width="1.176471px">-0.03</text><text style="text-anchor: end; visibility: inherit; font-family: Roboto, sans-serif; font-size: 14.117646px; font-weight: 200;" x="0" y="151.64732142857144" dx="0em" dy="0.3em" fill="rgb(33, 33, 33)" stroke="none" stroke-width="1.176471px">-0.025</text><text style="text-anchor: end; visibility: inherit; font-family: Roboto, sans-serif; font-size: 14.117646px; font-weight: 200;" x="0" y="126.37276785714286" dx="0em" dy="0.3em" fill="rgb(33, 33, 33)" stroke="none" stroke-width="1.176471px">-0.02</text><text style="text-anchor: end; visibility: inherit; font-family: Roboto, sans-serif; font-size: 14.117646px; font-weight: 200;" x="0" y="101.09821428571428" dx="0em" dy="0.3em" fill="rgb(33, 33, 33)" stroke="none" stroke-width="1.176471px">-0.015</text><text style="text-anchor: end; visibility: inherit; font-family: Roboto, sans-serif; font-size: 14.117646px; font-weight: 200;" x="0" y="75.82366071428572" dx="0em" dy="0.3em" fill="rgb(33, 33, 33)" stroke="none" stroke-width="1.176471px">-0.01</text><text style="text-anchor: end; visibility: inherit; font-family: Roboto, sans-serif; font-size: 14.117646px; font-weight: 200;" x="0" y="50.54910714285714" dx="0em" dy="0.3em" fill="rgb(33, 33, 33)" stroke="none" stroke-width="1.176471px">-5e-3</text><text style="text-anchor: end; visibility: inherit; font-family: Roboto, sans-serif; font-size: 14.117646px; font-weight: 200;" x="0" y="25.27455357142856" dx="0em" dy="0.3em" fill="rgb(33, 33, 33)" stroke="none" stroke-width="1.176471px">0</text><text style="text-anchor: end; visibility: hidden; font-family: Roboto, sans-serif; font-size: 14.117646px; font-weight: 200;" x="0" y="0" dx="0em" dy="0.3em" fill="rgb(33, 33, 33)" stroke="none" stroke-width="1.176471px">5e-3</text></g><line x1="72.34375" y1="0" x2="72.34375" y2="176.921875" fill="rgb(0, 0, 0)" stroke="rgb(204, 204, 204)" stroke-width="1.176471px"></line></g></g><g transform="translate(72, 0)" clip-path="url(#clip_0)"><clipPath id="clip_0"><rect width="257" height="176"></rect></clipPath><g><g><g><line x1="0" y1="0" x2="0" y2="176.921875" fill="rgb(0, 0, 0)" stroke="rgb(66, 66, 66)" stroke-width="1.176471px" opacity="0.25"></line><line x1="23.423295454545457" y1="0" x2="23.423295454545457" y2="176.921875" fill="rgb(0, 0, 0)" stroke="rgb(66, 66, 66)" stroke-width="1.176471px" opacity="0.25"></line><line x1="46.846590909090914" y1="0" x2="46.846590909090914" y2="176.921875" fill="rgb(0, 0, 0)" stroke="rgb(66, 66, 66)" stroke-width="1.176471px" opacity="0.25"></line><line x1="70.26988636363636" y1="0" x2="70.26988636363636" y2="176.921875" fill="rgb(0, 0, 0)" stroke="rgb(66, 66, 66)" stroke-width="1.176471px" opacity="0.25"></line><line x1="93.69318181818183" y1="0" x2="93.69318181818183" y2="176.921875" fill="rgb(0, 0, 0)" stroke="rgb(66, 66, 66)" stroke-width="1.176471px" opacity="0.25"></line><line x1="117.11647727272727" y1="0" x2="117.11647727272727" y2="176.921875" fill="rgb(0, 0, 0)" stroke="rgb(66, 66, 66)" stroke-width="1.176471px" opacity="0.25"></line><line x1="140.53977272727272" y1="0" x2="140.53977272727272" y2="176.921875" fill="rgb(0, 0, 0)" stroke="rgb(66, 66, 66)" stroke-width="1.176471px" opacity="0.25"></line><line x1="163.9630681818182" y1="0" x2="163.9630681818182" y2="176.921875" fill="rgb(0, 0, 0)" stroke="rgb(66, 66, 66)" stroke-width="1.176471px" opacity="0.25"></line><line x1="187.38636363636365" y1="0" x2="187.38636363636365" y2="176.921875" fill="rgb(0, 0, 0)" stroke="rgb(66, 66, 66)" stroke-width="1.176471px" opacity="0.25"></line><line x1="210.8096590909091" y1="0" x2="210.8096590909091" y2="176.921875" fill="rgb(0, 0, 0)" stroke="rgb(66, 66, 66)" stroke-width="1.176471px" opacity="0.25"></line><line x1="234.23295454545453" y1="0" x2="234.23295454545453" y2="176.921875" fill="rgb(0, 0, 0)" stroke="rgb(66, 66, 66)" stroke-width="1.176471px" opacity="0.25"></line><line x1="257.65625" y1="0" x2="257.65625" y2="176.921875" fill="rgb(0, 0, 0)" stroke="rgb(66, 66, 66)" stroke-width="1.176471px" opacity="0.25"></line></g><g><line x1="0" y1="176.921875" x2="257.65625" y2="176.921875" fill="rgb(0, 0, 0)" stroke="rgb(66, 66, 66)" stroke-width="1.176471px" opacity="0.25"></line><line x1="0" y1="151.64732142857144" x2="257.65625" y2="151.64732142857144" fill="rgb(0, 0, 0)" stroke="rgb(66, 66, 66)" stroke-width="1.176471px" opacity="0.25"></line><line x1="0" y1="126.37276785714286" x2="257.65625" y2="126.37276785714286" fill="rgb(0, 0, 0)" stroke="rgb(66, 66, 66)" stroke-width="1.176471px" opacity="0.25"></line><line x1="0" y1="101.09821428571428" x2="257.65625" y2="101.09821428571428" fill="rgb(0, 0, 0)" stroke="rgb(66, 66, 66)" stroke-width="1.176471px" opacity="0.25"></line><line x1="0" y1="75.82366071428572" x2="257.65625" y2="75.82366071428572" fill="rgb(0, 0, 0)" stroke="rgb(66, 66, 66)" stroke-width="1.176471px" opacity="0.25"></line><line x1="0" y1="50.54910714285714" x2="257.65625" y2="50.54910714285714" fill="rgb(0, 0, 0)" stroke="rgb(66, 66, 66)" stroke-width="1.176471px" opacity="0.25"></line><line x1="0" y1="25.27455357142856" x2="257.65625" y2="25.27455357142856" fill="rgb(0, 0, 0)" stroke="rgb(66, 66, 66)" stroke-width="1.176471px" opacity="0.25"></line><line x1="0" y1="0" x2="257.65625" y2="0" fill="rgb(0, 0, 0)" stroke="rgb(66, 66, 66)" stroke-width="1.176471px" opacity="0.25"></line></g></g></g><g><g><line x1="0" y1="25.27455357142856" x2="257.65625" y2="25.27455357142856" fill="rgb(0, 0, 0)" stroke="rgb(153, 153, 153)" stroke-width="1.764706px"></line></g></g><g><g><line x1="0" y1="0" x2="0" y2="176.921875" fill="rgb(0, 0, 0)" stroke="rgb(153, 153, 153)" stroke-width="1.764706px"></line></g></g><g><g><g><g><g><path style="fill: none;" stroke="rgb(255, 112, 67)" stroke-width="2.352941px" d="M9.594181818181818,14.506228902510232L14.391272727272728,123.41763405368795L19.188363636363636,71.82800733321957L23.985454545454544,51.491816561841276L28.782545454545456,71.70007413175891L33.57963636363637,59.05664857616111L38.37672727272727,65.56577380097899L43.17381818181818,656.0786484318226L52.768,251.96881367171457L57.56509090909091,161.02334969262574L62.36218181818182,108.16248868060713L67.15927272727274,136.1882373011904L71.95636363636363,91.83790368475474L76.75345454545455,65.2752778124993L81.55054545454546,49.38041683934875L86.34763636363635,39.908809707585455L91.14472727272727,34.25338835272252L95.94181818181818,30.68622283795156L100.7389090909091,28.55160670214399L105.536,27.289688263192712L110.33309090909091,26.491337060084383L115.13018181818182,26.026313315528743L119.92727272727272,25.735731591893533L124.72436363636363,25.56041928847751L129.52145454545453,25.44571125059799L134.31854545454547,25.38062262927659L139.11563636363636,25.363744909928567L143.91272727272727,25.350484803760512L148.70981818181818,25.32348682182314L153.5069090909091,25.32391958658047L158.30399999999997,25.3318924276439L163.1010909090909,25.322695989500453L167.89818181818183,25.308018723445116L172.6952727272727,25.296560957849497L177.49236363636365,25.29185563097454L182.28945454545453,25.285175844040815L187.08654545454547,25.281891082687693L191.88363636363636,25.281607484369367L196.68072727272727,25.284811842347263L201.4778181818182,25.28119060782887L206.2749090909091,25.2792589040458L211.072,25.277617807924447L215.86909090909091,25.27687418717796L220.66618181818183,25.278597347064352L225.4632727272727,25.277943984513975L230.26036363636365,25.276828856205768L235.05745454545453,25.275918742294873" fill="none"></path></g></g></g></g><g opacity="0.2"><g><g><g><path style="fill: none;" stroke="rgb(255, 112, 67)" stroke-width="2.352941px" d="M9.594181818181818,14.506228902510232L14.391272727272728,188.76447714439462L19.188363636363636,22.301965681569904L23.985454545454544,27.576456214700418L28.782545454545456,98.08397521504332L33.57963636363637,41.56623939956936L38.37672727272727,74.87392701847213L43.17381818181818,1517.0520885671885L47.97090909090909,31.501139962247436L52.768,26.659310711281627L57.56509090909091,25.43002238869665L62.36218181818182,29.15886363387108L67.15927272727274,178.13535130023956L71.95636363636363,25.39929018063203L76.75345454545455,25.462562373706255L81.55054545454546,25.549335667065208L86.34763636363635,25.7054070766483L91.14472727272727,25.77169223129747L95.94181818181818,25.336017987557803L100.7389090909091,25.34987761080263L105.536,25.396879811372063L110.33309090909091,25.29383652550832L115.13018181818182,25.328786879777887L119.92727272727272,25.29986244865825L124.72436363636363,25.297452079398287L129.52145454545453,25.27364968295607L134.31854545454547,25.282989863838456L139.11563636363636,25.338428356817786L143.91272727272727,25.330594656722873L148.70981818181818,25.282989863838456L153.5069090909091,25.32456873357294L158.30399999999997,25.34385168765272L163.1010909090909,25.308901333383147L167.89818181818183,25.286002825413423L172.6952727272727,25.27937430994851L177.49236363636365,25.28479764078344L182.28945454545453,25.27515616374356L187.08654545454547,25.276963940688525L191.88363636363636,25.281182086893473L196.68072727272727,25.28961837930337L201.4778181818182,25.275758756058543L206.2749090909091,25.276361348373545L211.072,25.27515616374356L215.86909090909091,25.275758756058543L220.66618181818183,25.281182086893473L225.4632727272727,25.276963940688525L230.26036363636365,25.27515616374356L235.05745454545453,25.27455357142856" fill="none"></path></g></g></g></g></g></g><g transform="translate(72, 176)" clip-path="url(#clip_1)"><clipPath id="clip_1"><rect width="257" height="23"></rect></clipPath><g><g><line x1="0" y1="0" x2="0" y2="5" style="visibility: inherit;" fill="rgb(0, 0, 0)" stroke="rgb(204, 204, 204)" stroke-width="1.176471px"></line><line x1="23.423295454545457" y1="0" x2="23.423295454545457" y2="5" style="visibility: inherit;" fill="rgb(0, 0, 0)" stroke="rgb(204, 204, 204)" stroke-width="1.176471px"></line><line x1="46.846590909090914" y1="0" x2="46.846590909090914" y2="5" style="visibility: inherit;" fill="rgb(0, 0, 0)" stroke="rgb(204, 204, 204)" stroke-width="1.176471px"></line><line x1="70.26988636363636" y1="0" x2="70.26988636363636" y2="5" style="visibility: inherit;" fill="rgb(0, 0, 0)" stroke="rgb(204, 204, 204)" stroke-width="1.176471px"></line><line x1="93.69318181818183" y1="0" x2="93.69318181818183" y2="5" style="visibility: inherit;" fill="rgb(0, 0, 0)" stroke="rgb(204, 204, 204)" stroke-width="1.176471px"></line><line x1="117.11647727272727" y1="0" x2="117.11647727272727" y2="5" style="visibility: inherit;" fill="rgb(0, 0, 0)" stroke="rgb(204, 204, 204)" stroke-width="1.176471px"></line><line x1="140.53977272727272" y1="0" x2="140.53977272727272" y2="5" style="visibility: inherit;" fill="rgb(0, 0, 0)" stroke="rgb(204, 204, 204)" stroke-width="1.176471px"></line><line x1="163.9630681818182" y1="0" x2="163.9630681818182" y2="5" style="visibility: inherit;" fill="rgb(0, 0, 0)" stroke="rgb(204, 204, 204)" stroke-width="1.176471px"></line><line x1="187.38636363636365" y1="0" x2="187.38636363636365" y2="5" style="visibility: inherit;" fill="rgb(0, 0, 0)" stroke="rgb(204, 204, 204)" stroke-width="1.176471px"></line><line x1="210.8096590909091" y1="0" x2="210.8096590909091" y2="5" style="visibility: inherit;" fill="rgb(0, 0, 0)" stroke="rgb(204, 204, 204)" stroke-width="1.176471px"></line><line x1="234.23295454545453" y1="0" x2="234.23295454545453" y2="5" style="visibility: inherit;" fill="rgb(0, 0, 0)" stroke="rgb(204, 204, 204)" stroke-width="1.176471px"></line><line x1="257.65625" y1="0" x2="257.65625" y2="5" style="visibility: inherit;" fill="rgb(0, 0, 0)" stroke="rgb(204, 204, 204)" stroke-width="1.176471px"></line></g><g transform="translate(0, 8)"><text style="text-anchor: middle; visibility: hidden; font-family: Roboto, sans-serif; font-size: 14.117646px; font-weight: 200;" x="0" y="0" dx="0em" dy="0.95em" fill="rgb(33, 33, 33)" stroke="none" stroke-width="1.176471px">0</text><text style="text-anchor: middle; visibility: inherit; font-family: Roboto, sans-serif; font-size: 14.117646px; font-weight: 200;" x="23.423295454545457" y="0" dx="0em" dy="0.95em" fill="rgb(33, 33, 33)" stroke="none" stroke-width="1.176471px">10k</text><text style="text-anchor: middle; visibility: hidden; font-family: Roboto, sans-serif; font-size: 14.117646px; font-weight: 200;" x="46.846590909090914" y="0" dx="0em" dy="0.95em" fill="rgb(33, 33, 33)" stroke="none" stroke-width="1.176471px">20k</text><text style="text-anchor: middle; visibility: inherit; font-family: Roboto, sans-serif; font-size: 14.117646px; font-weight: 200;" x="70.26988636363636" y="0" dx="0em" dy="0.95em" fill="rgb(33, 33, 33)" stroke="none" stroke-width="1.176471px">30k</text><text style="text-anchor: middle; visibility: hidden; font-family: Roboto, sans-serif; font-size: 14.117646px; font-weight: 200;" x="93.69318181818183" y="0" dx="0em" dy="0.95em" fill="rgb(33, 33, 33)" stroke="none" stroke-width="1.176471px">40k</text><text style="text-anchor: middle; visibility: inherit; font-family: Roboto, sans-serif; font-size: 14.117646px; font-weight: 200;" x="117.11647727272727" y="0" dx="0em" dy="0.95em" fill="rgb(33, 33, 33)" stroke="none" stroke-width="1.176471px">50k</text><text style="text-anchor: middle; visibility: hidden; font-family: Roboto, sans-serif; font-size: 14.117646px; font-weight: 200;" x="140.53977272727272" y="0" dx="0em" dy="0.95em" fill="rgb(33, 33, 33)" stroke="none" stroke-width="1.176471px">60k</text><text style="text-anchor: middle; visibility: inherit; font-family: Roboto, sans-serif; font-size: 14.117646px; font-weight: 200;" x="163.9630681818182" y="0" dx="0em" dy="0.95em" fill="rgb(33, 33, 33)" stroke="none" stroke-width="1.176471px">70k</text><text style="text-anchor: middle; visibility: hidden; font-family: Roboto, sans-serif; font-size: 14.117646px; font-weight: 200;" x="187.38636363636365" y="0" dx="0em" dy="0.95em" fill="rgb(33, 33, 33)" stroke="none" stroke-width="1.176471px">80k</text><text style="text-anchor: middle; visibility: inherit; font-family: Roboto, sans-serif; font-size: 14.117646px; font-weight: 200;" x="210.8096590909091" y="0" dx="0em" dy="0.95em" fill="rgb(33, 33, 33)" stroke="none" stroke-width="1.176471px">90k</text><text style="text-anchor: middle; visibility: hidden; font-family: Roboto, sans-serif; font-size: 14.117646px; font-weight: 200;" x="234.23295454545453" y="0" dx="0em" dy="0.95em" fill="rgb(33, 33, 33)" stroke="none" stroke-width="1.176471px">100k</text><text style="text-anchor: middle; visibility: hidden; font-family: Roboto, sans-serif; font-size: 14.117646px; font-weight: 200;" x="257.65625" y="0" dx="0em" dy="0.95em" fill="rgb(33, 33, 33)" stroke="none" stroke-width="1.176471px">110k</text></g><line x1="0" y1="0" x2="257.65625" y2="0" fill="rgb(0, 0, 0)" stroke="rgb(204, 204, 204)" stroke-width="1.176471px"></line></g></g></g></g></svg>