<svg viewBox="0 0 330 200" xmlns="http://www.w3.org/2000/svg"><g><g><g><g><g><line x1="70" y1="176.984375" x2="65" y2="176.984375" style="visibility: inherit;" fill="rgb(0, 0, 0)" stroke="rgb(204, 204, 204)" stroke-width="1.333333px"></line><line x1="70" y1="162.23567778385888" x2="65" y2="162.23567778385888" style="visibility: inherit;" fill="rgb(0, 0, 0)" stroke="rgb(204, 204, 204)" stroke-width="1.333333px"></line><line x1="70" y1="147.48698056771772" x2="65" y2="147.48698056771772" style="visibility: inherit;" fill="rgb(0, 0, 0)" stroke="rgb(204, 204, 204)" stroke-width="1.333333px"></line><line x1="70" y1="132.7382833515766" x2="65" y2="132.7382833515766" style="visibility: inherit;" fill="rgb(0, 0, 0)" stroke="rgb(204, 204, 204)" stroke-width="1.333333px"></line><line x1="70" y1="117.98958613543543" x2="65" y2="117.98958613543543" style="visibility: inherit;" fill="rgb(0, 0, 0)" stroke="rgb(204, 204, 204)" stroke-width="1.333333px"></line><line x1="70" y1="103.2408889192943" x2="65" y2="103.2408889192943" style="visibility: inherit;" fill="rgb(0, 0, 0)" stroke="rgb(204, 204, 204)" stroke-width="1.333333px"></line><line x1="70" y1="88.49219170315317" x2="65" y2="88.49219170315317" style="visibility: inherit;" fill="rgb(0, 0, 0)" stroke="rgb(204, 204, 204)" stroke-width="1.333333px"></line><line x1="70" y1="73.74349448701204" x2="65" y2="73.74349448701204" style="visibility: inherit;" fill="rgb(0, 0, 0)" stroke="rgb(204, 204, 204)" stroke-width="1.333333px"></line><line x1="70" y1="58.99479727087089" x2="65" y2="58.99479727087089" style="visibility: inherit;" fill="rgb(0, 0, 0)" stroke="rgb(204, 204, 204)" stroke-width="1.333333px"></line><line x1="70" y1="44.24610005472976" x2="65" y2="44.24610005472976" style="visibility: inherit;" fill="rgb(0, 0, 0)" stroke="rgb(204, 204, 204)" stroke-width="1.333333px"></line><line x1="70" y1="29.497402838588602" x2="65" y2="29.497402838588602" style="visibility: inherit;" fill="rgb(0, 0, 0)" stroke="rgb(204, 204, 204)" stroke-width="1.333333px"></line><line x1="70" y1="14.748705622447472" x2="65" y2="14.748705622447472" style="visibility: inherit;" fill="rgb(0, 0, 0)" stroke="rgb(204, 204, 204)" stroke-width="1.333333px"></line><line x1="70" y1="0.000008406306340393022" x2="65" y2="0.000008406306340393022" style="visibility: inherit;" fill="rgb(0, 0, 0)" stroke="rgb(204, 204, 204)" stroke-width="1.333333px"></line></g><g transform="translate(60, 0)"><text style="text-anchor: end; visibility: hidden; font-family: Roboto, sans-serif; font-size: 16px; font-weight: 200;" x="0" y="176.984375" dx="0em" dy="0.3em" fill="rgb(33, 33, 33)" stroke="none" stroke-width="1.333333px">0</text><text style="text-anchor: end; visibility: inherit; font-family: Roboto, sans-serif; font-size: 16px; font-weight: 200;" x="0" y="162.23567778385888" dx="0em" dy="0.3em" fill="rgb(33, 33, 33)" stroke="none" stroke-width="1.333333px">5e-5</text><text style="text-anchor: end; visibility: hidden; font-family: Roboto, sans-serif; font-size: 16px; font-weight: 200;" x="0" y="147.48698056771772" dx="0em" dy="0.3em" fill="rgb(33, 33, 33)" stroke="none" stroke-width="1.333333px">1e-4</text><text style="text-anchor: end; visibility: inherit; font-family: Roboto, sans-serif; font-size: 16px; font-weight: 200;" x="0" y="132.7382833515766" dx="0em" dy="0.3em" fill="rgb(33, 33, 33)" stroke="none" stroke-width="1.333333px">1.5e-4</text><text style="text-anchor: end; visibility: hidden; font-family: Roboto, sans-serif; font-size: 16px; font-weight: 200;" x="0" y="117.98958613543543" dx="0em" dy="0.3em" fill="rgb(33, 33, 33)" stroke="none" stroke-width="1.333333px">2e-4</text><text style="text-anchor: end; visibility: inherit; font-family: Roboto, sans-serif; font-size: 16px; font-weight: 200;" x="0" y="103.2408889192943" dx="0em" dy="0.3em" fill="rgb(33, 33, 33)" stroke="none" stroke-width="1.333333px">2.5e-4</text><text style="text-anchor: end; visibility: hidden; font-family: Roboto, sans-serif; font-size: 16px; font-weight: 200;" x="0" y="88.49219170315317" dx="0em" dy="0.3em" fill="rgb(33, 33, 33)" stroke="none" stroke-width="1.333333px">3e-4</text><text style="text-anchor: end; visibility: inherit; font-family: Roboto, sans-serif; font-size: 16px; font-weight: 200;" x="0" y="73.74349448701204" dx="0em" dy="0.3em" fill="rgb(33, 33, 33)" stroke="none" stroke-width="1.333333px">3.5e-4</text><text style="text-anchor: end; visibility: hidden; font-family: Roboto, sans-serif; font-size: 16px; font-weight: 200;" x="0" y="58.99479727087089" dx="0em" dy="0.3em" fill="rgb(33, 33, 33)" stroke="none" stroke-width="1.333333px">4e-4</text><text style="text-anchor: end; visibility: inherit; font-family: Roboto, sans-serif; font-size: 16px; font-weight: 200;" x="0" y="44.24610005472976" dx="0em" dy="0.3em" fill="rgb(33, 33, 33)" stroke="none" stroke-width="1.333333px">4.5e-4</text><text style="text-anchor: end; visibility: hidden; font-family: Roboto, sans-serif; font-size: 16px; font-weight: 200;" x="0" y="29.497402838588602" dx="0em" dy="0.3em" fill="rgb(33, 33, 33)" stroke="none" stroke-width="1.333333px">5e-4</text><text style="text-anchor: end; visibility: inherit; font-family: Roboto, sans-serif; font-size: 16px; font-weight: 200;" x="0" y="14.748705622447472" dx="0em" dy="0.3em" fill="rgb(33, 33, 33)" stroke="none" stroke-width="1.333333px">5.5e-4</text><text style="text-anchor: end; visibility: hidden; font-family: Roboto, sans-serif; font-size: 16px; font-weight: 200;" x="0" y="0.000008406306340393022" dx="0em" dy="0.3em" fill="rgb(33, 33, 33)" stroke="none" stroke-width="1.333333px">6e-4</text></g><line x1="70" y1="0" x2="70" y2="176.984375" fill="rgb(0, 0, 0)" stroke="rgb(204, 204, 204)" stroke-width="1.333333px"></line></g></g><g transform="translate(70, 0)" clip-path="url(#clip_0)"><clipPath id="clip_0"><rect width="260" height="176"></rect></clipPath><g><g><g><line x1="0" y1="0" x2="0" y2="176.984375" fill="rgb(0, 0, 0)" stroke="rgb(66, 66, 66)" stroke-width="1.333333px" opacity="0.25"></line><line x1="23.636363636363637" y1="0" x2="23.636363636363637" y2="176.984375" fill="rgb(0, 0, 0)" stroke="rgb(66, 66, 66)" stroke-width="1.333333px" opacity="0.25"></line><line x1="47.27272727272727" y1="0" x2="47.27272727272727" y2="176.984375" fill="rgb(0, 0, 0)" stroke="rgb(66, 66, 66)" stroke-width="1.333333px" opacity="0.25"></line><line x1="70.9090909090909" y1="0" x2="70.9090909090909" y2="176.984375" fill="rgb(0, 0, 0)" stroke="rgb(66, 66, 66)" stroke-width="1.333333px" opacity="0.25"></line><line x1="94.54545454545455" y1="0" x2="94.54545454545455" y2="176.984375" fill="rgb(0, 0, 0)" stroke="rgb(66, 66, 66)" stroke-width="1.333333px" opacity="0.25"></line><line x1="118.18181818181817" y1="0" x2="118.18181818181817" y2="176.984375" fill="rgb(0, 0, 0)" stroke="rgb(66, 66, 66)" stroke-width="1.333333px" opacity="0.25"></line><line x1="141.8181818181818" y1="0" x2="141.8181818181818" y2="176.984375" fill="rgb(0, 0, 0)" stroke="rgb(66, 66, 66)" stroke-width="1.333333px" opacity="0.25"></line><line x1="165.45454545454544" y1="0" x2="165.45454545454544" y2="176.984375" fill="rgb(0, 0, 0)" stroke="rgb(66, 66, 66)" stroke-width="1.333333px" opacity="0.25"></line><line x1="189.0909090909091" y1="0" x2="189.0909090909091" y2="176.984375" fill="rgb(0, 0, 0)" stroke="rgb(66, 66, 66)" stroke-width="1.333333px" opacity="0.25"></line><line x1="212.72727272727275" y1="0" x2="212.72727272727275" y2="176.984375" fill="rgb(0, 0, 0)" stroke="rgb(66, 66, 66)" stroke-width="1.333333px" opacity="0.25"></line><line x1="236.36363636363635" y1="0" x2="236.36363636363635" y2="176.984375" fill="rgb(0, 0, 0)" stroke="rgb(66, 66, 66)" stroke-width="1.333333px" opacity="0.25"></line><line x1="260" y1="0" x2="260" y2="176.984375" fill="rgb(0, 0, 0)" stroke="rgb(66, 66, 66)" stroke-width="1.333333px" opacity="0.25"></line></g><g><line x1="0" y1="176.984375" x2="260" y2="176.984375" fill="rgb(0, 0, 0)" stroke="rgb(66, 66, 66)" stroke-width="1.333333px" opacity="0.25"></line><line x1="0" y1="162.23567778385888" x2="260" y2="162.23567778385888" fill="rgb(0, 0, 0)" stroke="rgb(66, 66, 66)" stroke-width="1.333333px" opacity="0.25"></line><line x1="0" y1="147.48698056771772" x2="260" y2="147.48698056771772" fill="rgb(0, 0, 0)" stroke="rgb(66, 66, 66)" stroke-width="1.333333px" opacity="0.25"></line><line x1="0" y1="132.7382833515766" x2="260" y2="132.7382833515766" fill="rgb(0, 0, 0)" stroke="rgb(66, 66, 66)" stroke-width="1.333333px" opacity="0.25"></line><line x1="0" y1="117.98958613543543" x2="260" y2="117.98958613543543" fill="rgb(0, 0, 0)" stroke="rgb(66, 66, 66)" stroke-width="1.333333px" opacity="0.25"></line><line x1="0" y1="103.2408889192943" x2="260" y2="103.2408889192943" fill="rgb(0, 0, 0)" stroke="rgb(66, 66, 66)" stroke-width="1.333333px" opacity="0.25"></line><line x1="0" y1="88.49219170315317" x2="260" y2="88.49219170315317" fill="rgb(0, 0, 0)" stroke="rgb(66, 66, 66)" stroke-width="1.333333px" opacity="0.25"></line><line x1="0" y1="73.74349448701204" x2="260" y2="73.74349448701204" fill="rgb(0, 0, 0)" stroke="rgb(66, 66, 66)" stroke-width="1.333333px" opacity="0.25"></line><line x1="0" y1="58.99479727087089" x2="260" y2="58.99479727087089" fill="rgb(0, 0, 0)" stroke="rgb(66, 66, 66)" stroke-width="1.333333px" opacity="0.25"></line><line x1="0" y1="44.24610005472976" x2="260" y2="44.24610005472976" fill="rgb(0, 0, 0)" stroke="rgb(66, 66, 66)" stroke-width="1.333333px" opacity="0.25"></line><line x1="0" y1="29.497402838588602" x2="260" y2="29.497402838588602" fill="rgb(0, 0, 0)" stroke="rgb(66, 66, 66)" stroke-width="1.333333px" opacity="0.25"></line><line x1="0" y1="14.748705622447472" x2="260" y2="14.748705622447472" fill="rgb(0, 0, 0)" stroke="rgb(66, 66, 66)" stroke-width="1.333333px" opacity="0.25"></line><line x1="0" y1="0.000008406306340393022" x2="260" y2="0.000008406306340393022" fill="rgb(0, 0, 0)" stroke="rgb(66, 66, 66)" stroke-width="1.333333px" opacity="0.25"></line></g></g></g><g><g><line x1="0" y1="176.984375" x2="260" y2="176.984375" fill="rgb(0, 0, 0)" stroke="rgb(153, 153, 153)" stroke-width="2px"></line></g></g><g><g><line x1="0" y1="0" x2="0" y2="176.984375" fill="rgb(0, 0, 0)" stroke="rgb(153, 153, 153)" stroke-width="2px"></line></g></g><g><g><g><g><g><path style="fill: none;" stroke="rgb(255, 112, 67)" stroke-width="2.666667px" d="M9.681454545454546,88.4921875L14.522181818181819,88.4921875L19.362909090909092,88.4921875L24.203636363636363,88.4921875L29.044363636363638,88.4921875L33.88509090909091,88.4921875L38.725818181818184,88.4921875L43.566545454545455,88.4921875L48.407272727272726,88.4921875L53.248000000000005,88.4921875L58.088727272727276,88.4921875L62.92945454545455,88.4921875L67.77018181818183,88.4921875L72.61090909090909,88.4921875L77.45163636363637,88.4921875L82.29236363636363,88.4921875L87.13309090909091,88.4921875L91.97381818181817,88.4921875L96.81454545454545,88.4921875L101.65527272727273,88.4921875L106.49600000000001,88.4921875L111.33672727272727,88.4921875L116.17745454545455,88.4921875L121.01818181818182,88.4921875L125.8589090909091,88.4921875L130.69963636363636,88.4921875L135.54036363636365,88.4921875L140.38109090909091,88.4921875L145.22181818181818,88.4921875L150.06254545454544,88.4921875L154.90327272727274,88.4921875L159.744,88.4921875L164.58472727272726,88.4921875L169.42545454545456,88.4921875L174.26618181818182,88.4921875L179.10690909090908,88.4921875L183.94763636363635,88.4921875L188.78836363636364,88.4921875L193.6290909090909,88.4921875L198.46981818181817,88.4921875L203.31054545454546,88.4921875L208.15127272727273,88.4921875L212.99200000000002,88.4921875L217.83272727272725,88.4921875L222.67345454545455,88.4921875L227.5141818181818,88.4921875L232.3549090909091,88.4921875L237.19563636363634,88.4921875" fill="none"></path></g></g></g></g><g opacity="0.2"><g><g><g><path style="fill: none;" stroke="rgb(255, 112, 67)" stroke-width="2.666667px" d="M9.681454545454546,88.4921875L14.522181818181819,88.4921875L19.362909090909092,88.4921875L24.203636363636363,88.4921875L29.044363636363638,88.4921875L33.88509090909091,88.4921875L38.725818181818184,88.4921875L43.566545454545455,88.4921875L48.407272727272726,88.4921875L53.248000000000005,88.4921875L58.088727272727276,88.4921875L62.92945454545455,88.4921875L67.77018181818183,88.4921875L72.61090909090909,88.4921875L77.45163636363637,88.4921875L82.29236363636363,88.4921875L87.13309090909091,88.4921875L91.97381818181817,88.4921875L96.81454545454545,88.4921875L101.65527272727273,88.4921875L106.49600000000001,88.4921875L111.33672727272727,88.4921875L116.17745454545455,88.4921875L121.01818181818182,88.4921875L125.8589090909091,88.4921875L130.69963636363636,88.4921875L135.54036363636365,88.4921875L140.38109090909091,88.4921875L145.22181818181818,88.4921875L150.06254545454544,88.4921875L154.90327272727274,88.4921875L159.744,88.4921875L164.58472727272726,88.4921875L169.42545454545456,88.4921875L174.26618181818182,88.4921875L179.10690909090908,88.4921875L183.94763636363635,88.4921875L188.78836363636364,88.4921875L193.6290909090909,88.4921875L198.46981818181817,88.4921875L203.31054545454546,88.4921875L208.15127272727273,88.4921875L212.99200000000002,88.4921875L217.83272727272725,88.4921875L222.67345454545455,88.4921875L227.5141818181818,88.4921875L232.3549090909091,88.4921875L237.19563636363634,88.4921875" fill="none"></path></g></g></g></g></g></g><g transform="translate(70, 176)" clip-path="url(#clip_1)"><clipPath id="clip_1"><rect width="260" height="23"></rect></clipPath><g><g><line x1="0" y1="0" x2="0" y2="5" style="visibility: inherit;" fill="rgb(0, 0, 0)" stroke="rgb(204, 204, 204)" stroke-width="1.333333px"></line><line x1="23.636363636363637" y1="0" x2="23.636363636363637" y2="5" style="visibility: inherit;" fill="rgb(0, 0, 0)" stroke="rgb(204, 204, 204)" stroke-width="1.333333px"></line><line x1="47.27272727272727" y1="0" x2="47.27272727272727" y2="5" style="visibility: inherit;" fill="rgb(0, 0, 0)" stroke="rgb(204, 204, 204)" stroke-width="1.333333px"></line><line x1="70.9090909090909" y1="0" x2="70.9090909090909" y2="5" style="visibility: inherit;" fill="rgb(0, 0, 0)" stroke="rgb(204, 204, 204)" stroke-width="1.333333px"></line><line x1="94.54545454545455" y1="0" x2="94.54545454545455" y2="5" style="visibility: inherit;" fill="rgb(0, 0, 0)" stroke="rgb(204, 204, 204)" stroke-width="1.333333px"></line><line x1="118.18181818181817" y1="0" x2="118.18181818181817" y2="5" style="visibility: inherit;" fill="rgb(0, 0, 0)" stroke="rgb(204, 204, 204)" stroke-width="1.333333px"></line><line x1="141.8181818181818" y1="0" x2="141.8181818181818" y2="5" style="visibility: inherit;" fill="rgb(0, 0, 0)" stroke="rgb(204, 204, 204)" stroke-width="1.333333px"></line><line x1="165.45454545454544" y1="0" x2="165.45454545454544" y2="5" style="visibility: inherit;" fill="rgb(0, 0, 0)" stroke="rgb(204, 204, 204)" stroke-width="1.333333px"></line><line x1="189.0909090909091" y1="0" x2="189.0909090909091" y2="5" style="visibility: inherit;" fill="rgb(0, 0, 0)" stroke="rgb(204, 204, 204)" stroke-width="1.333333px"></line><line x1="212.72727272727275" y1="0" x2="212.72727272727275" y2="5" style="visibility: inherit;" fill="rgb(0, 0, 0)" stroke="rgb(204, 204, 204)" stroke-width="1.333333px"></line><line x1="236.36363636363635" y1="0" x2="236.36363636363635" y2="5" style="visibility: inherit;" fill="rgb(0, 0, 0)" stroke="rgb(204, 204, 204)" stroke-width="1.333333px"></line><line x1="260" y1="0" x2="260" y2="5" style="visibility: inherit;" fill="rgb(0, 0, 0)" stroke="rgb(204, 204, 204)" stroke-width="1.333333px"></line></g><g transform="translate(0, 8)"><text style="text-anchor: middle; visibility: hidden; font-family: Roboto, sans-serif; font-size: 16px; font-weight: 200;" x="0" y="0" dx="0em" dy="0.95em" fill="rgb(33, 33, 33)" stroke="none" stroke-width="1.333333px">0</text><text style="text-anchor: middle; visibility: inherit; font-family: Roboto, sans-serif; font-size: 16px; font-weight: 200;" x="23.636363636363637" y="0" dx="0em" dy="0.95em" fill="rgb(33, 33, 33)" stroke="none" stroke-width="1.333333px">10k</text><text style="text-anchor: middle; visibility: hidden; font-family: Roboto, sans-serif; font-size: 16px; font-weight: 200;" x="47.27272727272727" y="0" dx="0em" dy="0.95em" fill="rgb(33, 33, 33)" stroke="none" stroke-width="1.333333px">20k</text><text style="text-anchor: middle; visibility: inherit; font-family: Roboto, sans-serif; font-size: 16px; font-weight: 200;" x="70.9090909090909" y="0" dx="0em" dy="0.95em" fill="rgb(33, 33, 33)" stroke="none" stroke-width="1.333333px">30k</text><text style="text-anchor: middle; visibility: hidden; font-family: Roboto, sans-serif; font-size: 16px; font-weight: 200;" x="94.54545454545455" y="0" dx="0em" dy="0.95em" fill="rgb(33, 33, 33)" stroke="none" stroke-width="1.333333px">40k</text><text style="text-anchor: middle; visibility: inherit; font-family: Roboto, sans-serif; font-size: 16px; font-weight: 200;" x="118.18181818181817" y="0" dx="0em" dy="0.95em" fill="rgb(33, 33, 33)" stroke="none" stroke-width="1.333333px">50k</text><text style="text-anchor: middle; visibility: hidden; font-family: Roboto, sans-serif; font-size: 16px; font-weight: 200;" x="141.8181818181818" y="0" dx="0em" dy="0.95em" fill="rgb(33, 33, 33)" stroke="none" stroke-width="1.333333px">60k</text><text style="text-anchor: middle; visibility: inherit; font-family: Roboto, sans-serif; font-size: 16px; font-weight: 200;" x="165.45454545454544" y="0" dx="0em" dy="0.95em" fill="rgb(33, 33, 33)" stroke="none" stroke-width="1.333333px">70k</text><text style="text-anchor: middle; visibility: hidden; font-family: Roboto, sans-serif; font-size: 16px; font-weight: 200;" x="189.0909090909091" y="0" dx="0em" dy="0.95em" fill="rgb(33, 33, 33)" stroke="none" stroke-width="1.333333px">80k</text><text style="text-anchor: middle; visibility: inherit; font-family: Roboto, sans-serif; font-size: 16px; font-weight: 200;" x="212.72727272727275" y="0" dx="0em" dy="0.95em" fill="rgb(33, 33, 33)" stroke="none" stroke-width="1.333333px">90k</text><text style="text-anchor: middle; visibility: hidden; font-family: Roboto, sans-serif; font-size: 16px; font-weight: 200;" x="236.36363636363635" y="0" dx="0em" dy="0.95em" fill="rgb(33, 33, 33)" stroke="none" stroke-width="1.333333px">100k</text><text style="text-anchor: middle; visibility: hidden; font-family: Roboto, sans-serif; font-size: 16px; font-weight: 200;" x="260" y="0" dx="0em" dy="0.95em" fill="rgb(33, 33, 33)" stroke="none" stroke-width="1.333333px">110k</text></g><line x1="0" y1="0" x2="260" y2="0" fill="rgb(0, 0, 0)" stroke="rgb(204, 204, 204)" stroke-width="1.333333px"></line></g></g></g></g></svg>