<svg viewBox="0 0 329.9999694824219 199.99998474121094" xmlns="http://www.w3.org/2000/svg"><g><g><g><g><g><line x1="40" y1="176.984375" x2="35" y2="176.984375" style="visibility: inherit;" fill="rgb(0, 0, 0)" stroke="rgb(204, 204, 204)" stroke-width="1.176471px"></line><line x1="40" y1="159.28593750000002" x2="35" y2="159.28593750000002" style="visibility: inherit;" fill="rgb(0, 0, 0)" stroke="rgb(204, 204, 204)" stroke-width="1.176471px"></line><line x1="40" y1="141.5875" x2="35" y2="141.5875" style="visibility: inherit;" fill="rgb(0, 0, 0)" stroke="rgb(204, 204, 204)" stroke-width="1.176471px"></line><line x1="40" y1="123.8890625" x2="35" y2="123.8890625" style="visibility: inherit;" fill="rgb(0, 0, 0)" stroke="rgb(204, 204, 204)" stroke-width="1.176471px"></line><line x1="40" y1="106.190625" x2="35" y2="106.190625" style="visibility: inherit;" fill="rgb(0, 0, 0)" stroke="rgb(204, 204, 204)" stroke-width="1.176471px"></line><line x1="40" y1="88.4921875" x2="35" y2="88.4921875" style="visibility: inherit;" fill="rgb(0, 0, 0)" stroke="rgb(204, 204, 204)" stroke-width="1.176471px"></line><line x1="40" y1="70.79375" x2="35" y2="70.79375" style="visibility: inherit;" fill="rgb(0, 0, 0)" stroke="rgb(204, 204, 204)" stroke-width="1.176471px"></line><line x1="40" y1="53.095312500000006" x2="35" y2="53.095312500000006" style="visibility: inherit;" fill="rgb(0, 0, 0)" stroke="rgb(204, 204, 204)" stroke-width="1.176471px"></line><line x1="40" y1="35.396874999999994" x2="35" y2="35.396874999999994" style="visibility: inherit;" fill="rgb(0, 0, 0)" stroke="rgb(204, 204, 204)" stroke-width="1.176471px"></line><line x1="40" y1="17.698437499999997" x2="35" y2="17.698437499999997" style="visibility: inherit;" fill="rgb(0, 0, 0)" stroke="rgb(204, 204, 204)" stroke-width="1.176471px"></line><line x1="40" y1="0" x2="35" y2="0" style="visibility: inherit;" fill="rgb(0, 0, 0)" stroke="rgb(204, 204, 204)" stroke-width="1.176471px"></line></g><g transform="translate(30, 0)"><text style="text-anchor: end; visibility: hidden; font-family: Roboto, sans-serif; font-size: 14.117646px; font-weight: 200;" x="0" y="176.984375" dx="0em" dy="0.3em" fill="rgb(33, 33, 33)" stroke="none" stroke-width="1.176471px">550</text><text style="text-anchor: end; visibility: inherit; font-family: Roboto, sans-serif; font-size: 14.117646px; font-weight: 200;" x="0" y="159.28593750000002" dx="0em" dy="0.3em" fill="rgb(33, 33, 33)" stroke="none" stroke-width="1.176471px">560</text><text style="text-anchor: end; visibility: hidden; font-family: Roboto, sans-serif; font-size: 14.117646px; font-weight: 200;" x="0" y="141.5875" dx="0em" dy="0.3em" fill="rgb(33, 33, 33)" stroke="none" stroke-width="1.176471px">570</text><text style="text-anchor: end; visibility: inherit; font-family: Roboto, sans-serif; font-size: 14.117646px; font-weight: 200;" x="0" y="123.8890625" dx="0em" dy="0.3em" fill="rgb(33, 33, 33)" stroke="none" stroke-width="1.176471px">580</text><text style="text-anchor: end; visibility: hidden; font-family: Roboto, sans-serif; font-size: 14.117646px; font-weight: 200;" x="0" y="106.190625" dx="0em" dy="0.3em" fill="rgb(33, 33, 33)" stroke="none" stroke-width="1.176471px">590</text><text style="text-anchor: end; visibility: inherit; font-family: Roboto, sans-serif; font-size: 14.117646px; font-weight: 200;" x="0" y="88.4921875" dx="0em" dy="0.3em" fill="rgb(33, 33, 33)" stroke="none" stroke-width="1.176471px">600</text><text style="text-anchor: end; visibility: hidden; font-family: Roboto, sans-serif; font-size: 14.117646px; font-weight: 200;" x="0" y="70.79375" dx="0em" dy="0.3em" fill="rgb(33, 33, 33)" stroke="none" stroke-width="1.176471px">610</text><text style="text-anchor: end; visibility: inherit; font-family: Roboto, sans-serif; font-size: 14.117646px; font-weight: 200;" x="0" y="53.095312500000006" dx="0em" dy="0.3em" fill="rgb(33, 33, 33)" stroke="none" stroke-width="1.176471px">620</text><text style="text-anchor: end; visibility: hidden; font-family: Roboto, sans-serif; font-size: 14.117646px; font-weight: 200;" x="0" y="35.396874999999994" dx="0em" dy="0.3em" fill="rgb(33, 33, 33)" stroke="none" stroke-width="1.176471px">630</text><text style="text-anchor: end; visibility: inherit; font-family: Roboto, sans-serif; font-size: 14.117646px; font-weight: 200;" x="0" y="17.698437499999997" dx="0em" dy="0.3em" fill="rgb(33, 33, 33)" stroke="none" stroke-width="1.176471px">640</text><text style="text-anchor: end; visibility: hidden; font-family: Roboto, sans-serif; font-size: 14.117646px; font-weight: 200;" x="0" y="0" dx="0em" dy="0.3em" fill="rgb(33, 33, 33)" stroke="none" stroke-width="1.176471px">650</text></g><line x1="40" y1="0" x2="40" y2="176.984375" fill="rgb(0, 0, 0)" stroke="rgb(204, 204, 204)" stroke-width="1.176471px"></line></g></g><g transform="translate(40, 0)" clip-path="url(#clip_0)"><clipPath id="clip_0"><rect width="290" height="176"></rect></clipPath><g><g><g><line x1="0" y1="0" x2="0" y2="176.984375" fill="rgb(0, 0, 0)" stroke="rgb(66, 66, 66)" stroke-width="1.176471px" opacity="0.25"></line><line x1="24.166666666666664" y1="0" x2="24.166666666666664" y2="176.984375" fill="rgb(0, 0, 0)" stroke="rgb(66, 66, 66)" stroke-width="1.176471px" opacity="0.25"></line><line x1="48.33333333333333" y1="0" x2="48.33333333333333" y2="176.984375" fill="rgb(0, 0, 0)" stroke="rgb(66, 66, 66)" stroke-width="1.176471px" opacity="0.25"></line><line x1="72.5" y1="0" x2="72.5" y2="176.984375" fill="rgb(0, 0, 0)" stroke="rgb(66, 66, 66)" stroke-width="1.176471px" opacity="0.25"></line><line x1="96.66666666666666" y1="0" x2="96.66666666666666" y2="176.984375" fill="rgb(0, 0, 0)" stroke="rgb(66, 66, 66)" stroke-width="1.176471px" opacity="0.25"></line><line x1="120.83333333333334" y1="0" x2="120.83333333333334" y2="176.984375" fill="rgb(0, 0, 0)" stroke="rgb(66, 66, 66)" stroke-width="1.176471px" opacity="0.25"></line><line x1="145" y1="0" x2="145" y2="176.984375" fill="rgb(0, 0, 0)" stroke="rgb(66, 66, 66)" stroke-width="1.176471px" opacity="0.25"></line><line x1="169.16666666666669" y1="0" x2="169.16666666666669" y2="176.984375" fill="rgb(0, 0, 0)" stroke="rgb(66, 66, 66)" stroke-width="1.176471px" opacity="0.25"></line><line x1="193.33333333333331" y1="0" x2="193.33333333333331" y2="176.984375" fill="rgb(0, 0, 0)" stroke="rgb(66, 66, 66)" stroke-width="1.176471px" opacity="0.25"></line><line x1="217.5" y1="0" x2="217.5" y2="176.984375" fill="rgb(0, 0, 0)" stroke="rgb(66, 66, 66)" stroke-width="1.176471px" opacity="0.25"></line><line x1="241.66666666666669" y1="0" x2="241.66666666666669" y2="176.984375" fill="rgb(0, 0, 0)" stroke="rgb(66, 66, 66)" stroke-width="1.176471px" opacity="0.25"></line><line x1="265.8333333333333" y1="0" x2="265.8333333333333" y2="176.984375" fill="rgb(0, 0, 0)" stroke="rgb(66, 66, 66)" stroke-width="1.176471px" opacity="0.25"></line><line x1="290" y1="0" x2="290" y2="176.984375" fill="rgb(0, 0, 0)" stroke="rgb(66, 66, 66)" stroke-width="1.176471px" opacity="0.25"></line></g><g><line x1="0" y1="176.984375" x2="290" y2="176.984375" fill="rgb(0, 0, 0)" stroke="rgb(66, 66, 66)" stroke-width="1.176471px" opacity="0.25"></line><line x1="0" y1="159.28593750000002" x2="290" y2="159.28593750000002" fill="rgb(0, 0, 0)" stroke="rgb(66, 66, 66)" stroke-width="1.176471px" opacity="0.25"></line><line x1="0" y1="141.5875" x2="290" y2="141.5875" fill="rgb(0, 0, 0)" stroke="rgb(66, 66, 66)" stroke-width="1.176471px" opacity="0.25"></line><line x1="0" y1="123.8890625" x2="290" y2="123.8890625" fill="rgb(0, 0, 0)" stroke="rgb(66, 66, 66)" stroke-width="1.176471px" opacity="0.25"></line><line x1="0" y1="106.190625" x2="290" y2="106.190625" fill="rgb(0, 0, 0)" stroke="rgb(66, 66, 66)" stroke-width="1.176471px" opacity="0.25"></line><line x1="0" y1="88.4921875" x2="290" y2="88.4921875" fill="rgb(0, 0, 0)" stroke="rgb(66, 66, 66)" stroke-width="1.176471px" opacity="0.25"></line><line x1="0" y1="70.79375" x2="290" y2="70.79375" fill="rgb(0, 0, 0)" stroke="rgb(66, 66, 66)" stroke-width="1.176471px" opacity="0.25"></line><line x1="0" y1="53.095312500000006" x2="290" y2="53.095312500000006" fill="rgb(0, 0, 0)" stroke="rgb(66, 66, 66)" stroke-width="1.176471px" opacity="0.25"></line><line x1="0" y1="35.396874999999994" x2="290" y2="35.396874999999994" fill="rgb(0, 0, 0)" stroke="rgb(66, 66, 66)" stroke-width="1.176471px" opacity="0.25"></line><line x1="0" y1="17.698437499999997" x2="290" y2="17.698437499999997" fill="rgb(0, 0, 0)" stroke="rgb(66, 66, 66)" stroke-width="1.176471px" opacity="0.25"></line><line x1="0" y1="0" x2="290" y2="0" fill="rgb(0, 0, 0)" stroke="rgb(66, 66, 66)" stroke-width="1.176471px" opacity="0.25"></line></g></g></g><g><g><line x1="0" y1="1150.3984375" x2="290" y2="1150.3984375" fill="rgb(0, 0, 0)" stroke="rgb(153, 153, 153)" stroke-width="1.764706px"></line></g></g><g><g><line x1="24.166666666666664" y1="0" x2="24.166666666666664" y2="176.984375" fill="rgb(0, 0, 0)" stroke="rgb(153, 153, 153)" stroke-width="1.764706px"></line></g></g><g><g><g><g><g><path style="fill: none;" stroke="rgb(255, 112, 67)" stroke-width="2.352941px" d="M31.416666666666668,-0.15113058874893168L32.625,7.194322317219294L33.833333333333336,9.30765170892756L35.041666666666664,8.407267224236707L36.25,9.29736743011238L37.458333333333336,11.24900092693773L38.666666666666664,13.124921526988693L39.875,16.37444702201193L41.083333333333336,21.15541477862539L42.29166666666667,26.146408057272904L43.5,33.3883253588288L44.708333333333336,48.35302823959084L45.916666666666664,57.330228667840984L47.125,62.715965385817384L48.33333333333333,73.73479459734455L49.541666666666664,78.92992822379682L50.75,83.46282909709171L51.958333333333336,86.89047452740692L53.166666666666664,90.36292617024432L54.375,92.44638662548465L55.583333333333336,92.98852040007206L56.791666666666664,94.72967652209974L58,97.19024492428079L59.208333333333336,97.9586472376912L60.41666666666667,97.71175078803243L61.625,96.14773776536208L62.833333333333336,96.62520519721721L64.04166666666667,96.20374809820498L65.25,94.53499881111131L66.45833333333333,94.24168678162448L67.66666666666667,94.77363707446155L68.875,94.38486974227112L70.08333333333333,93.44367184186785L71.29166666666666,92.87895310386268L72.5,95.3718718656499L73.70833333333333,97.57556062115746L74.91666666666667,100.31364887401203L76.125,101.9565018248815L77.33333333333333,102.94221359509969L78.54166666666666,104.24157815719488L79.75,109.97675939467472L80.95833333333333,114.12580563696012L82.16666666666667,115.1993583822003L83.375,115.8434900293289L84.58333333333334,114.81409401758907L85.79166666666667,114.19645641055057L87,113.11793634632713L88.20833333333333,113.88669930779764L89.41666666666667,113.64001958467843L90.625,114.19994925080721L91.83333333333333,113.8279695504841L93.04166666666667,114.31271923029065L94.25,113.89563153817431L95.45833333333333,113.64537892290456L96.66666666666666,113.4952273537427L97.875,112.69719891224561L99.08333333333333,112.21838184734725L100.29166666666667,111.93109160840855L101.5,112.46665496504492L102.70833333333334,112.78799297902711L103.91666666666667,112.9807957874162L105.125,113.09647747244983L106.33333333333333,113.16588648346986L107.54166666666667,112.49959439008212L108.75,112.8077566340491L109.95833333333333,112.28471648042942L111.16666666666667,111.97089238825748L112.375,111.78259793295442L113.58333333333333,110.9616837597728L114.79166666666666,110.4691352558636L116,110.17360615351821L117.20833333333333,109.9962886921109L118.41666666666667,109.18196071526664L119.625,109.40130142915991L120.83333333333334,108.82496835749602L122.04166666666667,109.18710601449754L123.25,109.40438860869855L124.45833333333333,110.24269566521916L125.66666666666667,110.74567989913142L126.875,111.04747043947877L128.08333333333334,111.22854476368727L129.29166666666669,111.33718935821236L130.5,111.40237611492742L131.70833333333334,110.73355066895648L132.91666666666666,111.04019290137403L134.125,111.22417824082449L135.33333333333334,110.62663194449469L136.54166666666666,109.5601666666968L137.75,108.21235000001818L138.95833333333334,107.40366000001083L140.16666666666666,106.21050850000641L141.375,105.49461760000392L142.58333333333331,105.06508306000232L143.79166666666666,104.80736233600143L145,105.36066740160089L146.20833333333334,105.69265044096055L147.41666666666666,105.89184026457633L148.625,106.01135415874592L149.83333333333334,106.79099999524752L151.04166666666669,107.25878749714862L152.25,108.24739749828913L153.45833333333334,109.54850099897348L154.66666666666666,111.03710059938405L155.875,111.93026035963042L157.08333333333331,112.4661562157783L158.29166666666666,113.495631229467L159.5,114.11331623768022L160.70833333333334,114.4839272426083L161.91666666666666,114.7062938455649L163.125,114.8397138073391L164.33333333333334,115.62770328440347L165.54166666666666,116.10049697064215L166.75,116.38417318238527L167.95833333333334,116.55437890943115L169.16666666666669,115.94856484565868L170.375,115.58507640739509L171.58333333333334,115.3669833444371L172.79166666666666,115.23612750666213L174,115.15761400399737L175.20833333333331,115.11050590239843L176.41666666666666,114.37430354143909L177.625,113.93258212486342L178.83333333333334,112.95961177491807L180.04166666666666,111.66789206495089L181.25,110.89286023897046L182.45833333333334,109.71990364338222L183.66666666666666,109.01612968602932L184.875,108.5938653116174L186.08333333333334,107.6325691869705L187.29166666666669,107.05579151218234L188.5,106.0017874073094L189.70833333333334,105.36938494438573L190.91666666666666,104.28200596663147L192.125,103.62957857997877L193.33333333333331,103.23812214798733L194.54166666666666,102.29531078879236L195.75,101.72962397327538L196.95833333333334,101.39021188396515L198.16666666666666,101.89450213037905L199.375,105.02882627822734L200.58333333333334,108.3252957669364L201.79166666666666,113.84286496016175L203,117.15340647609698L204.20833333333334,120.55560638565831L205.41666666666669,122.59692633139498L206.625,125.94553079883707L207.83333333333334,129.3705684793022L209.04166666666666,132.84146608758132L210.25,135.6319421525488L211.45833333333331,140.1379777915294L212.66666666666666,142.8415991749177L213.875,147.29552200495058L215.08333333333334,150.6758132029703L216.29166666666666,154.82780042178217L217.5,157.31899275306935L218.70833333333334,159.52164565184162L219.91666666666666,161.5511748911049L221.125,163.47682993466293L222.33333333333334,164.63222296079778L223.54166666666669,164.61752127647873L224.75,164.60870026588722L225.95833333333334,164.6034076595323L227.16666666666666,164.6002320957194L228.375,164.59832675743172L229.58333333333331,163.88924605445908L230.79166666666666,163.4637976326754L232,162.5005910796051L233.20833333333334,161.92266714776304L234.41666666666666,161.57591278865783L235.625,161.36786017319463L236.83333333333334,161.2430286039166L238.04166666666666,161.87606716235004L239.25,161.54795279740998L240.45833333333334,161.35108417844603L241.66666666666669,161.23296300706747L242.875,160.45415280424064L244.08333333333334,159.98686668254442L245.29166666666666,159.70649500952678L246.5,159.53827200571624L247.70833333333331,159.43733820342982L248.91666666666666,159.3767779220579L250.125,159.34044175323478L251.33333333333334,158.6107025519409L252.54166666666666,158.17285903116456L253.75,157.91015291869883L254.95833333333334,157.04459175121926L256.1666666666667,156.52525505073157L257.375,155.50571553043892L258.58333333333337,154.89399181826343L259.7916666666667,154.5269575909581L261,154.3067370545749L262.2083333333333,154.17460473274485L263.4166666666667,153.38738783964692L264.625,152.91505770378814L265.8333333333333,152.63165962227296" fill="none"></path></g></g></g></g><g opacity="0.2"><g><g><g><path style="fill: none;" stroke="rgb(255, 112, 67)" stroke-width="2.352941px" d="M25.375,-38.936562499999994L26.583333333333332,21.238125L27.791666666666668,-14.158750000000012L30.208333333333336,-5.3095312500000045L31.416666666666668,10.619062500000009L32.625,17.698437499999997L33.833333333333336,12.388906249999991L35.041666666666664,7.079375000000006L36.25,10.619062500000009L37.458333333333336,14.158749999999992L38.666666666666664,15.928593749999994L39.875,21.238125L41.083333333333336,28.317500000000006L42.29166666666667,33.62703124999999L43.5,44.24609375L44.708333333333336,70.79375L45.916666666666664,70.79375L47.125,70.79375L48.33333333333333,90.26203125L49.541666666666664,86.72234375L50.75,90.26203125L51.958333333333336,92.031875L53.166666666666664,95.57156250000001L54.375,95.57156250000001L55.583333333333336,93.80171875L56.791666666666664,97.34140625L58,100.88109375L59.208333333333336,99.11125000000001L60.41666666666667,97.34140625L61.625,93.80171875L62.833333333333336,97.34140625L64.04166666666667,95.57156250000001L65.25,92.031875L66.45833333333333,93.80171875L67.66666666666667,95.57156250000001L68.875,93.80171875L70.08333333333333,92.031875L71.29166666666666,92.031875L72.5,99.11125000000001L73.70833333333333,100.88109375L74.91666666666667,104.42078125000002L76.125,104.42078125000002L77.33333333333333,104.42078125000002L78.54166666666666,106.190625L79.75,118.57953124999999L80.95833333333333,120.349375L82.16666666666667,116.80968749999998L83.375,116.80968749999998L84.58333333333334,113.27L85.79166666666667,113.27L87,111.50015625L88.20833333333333,115.03984375L89.41666666666667,113.27L90.625,115.03984375L91.83333333333333,113.27L93.04166666666667,115.03984375L94.25,113.27L95.45833333333333,113.27L96.66666666666666,113.27L97.875,111.50015625L99.08333333333333,111.50015625L100.29166666666667,111.50015625L101.5,113.27L102.70833333333334,113.27L103.91666666666667,113.27L105.125,113.27L106.33333333333333,113.27L107.54166666666667,111.50015625L108.75,113.27L109.95833333333333,111.50015625L111.16666666666667,111.50015625L112.375,111.50015625L113.58333333333333,109.7303125L114.79166666666666,109.7303125L116,109.7303125L117.20833333333333,109.7303125L118.41666666666667,107.96046875L119.625,109.7303125L120.83333333333334,107.96046875L122.04166666666667,109.7303125L123.25,109.7303125L124.45833333333333,111.50015625L125.66666666666667,111.50015625L126.875,111.50015625L128.08333333333334,111.50015625L129.29166666666669,111.50015625L130.5,111.50015625L131.70833333333334,109.7303125L132.91666666666666,111.50015625L134.125,111.50015625L135.33333333333334,109.7303125L136.54166666666666,107.96046875L137.75,106.190625L138.95833333333334,106.190625L140.16666666666666,104.42078125000002L141.375,104.42078125000002L142.58333333333331,104.42078125000002L143.79166666666666,104.42078125000002L145,106.190625L146.20833333333334,106.190625L147.41666666666666,106.190625L148.625,106.190625L149.83333333333334,107.96046875L151.04166666666669,107.96046875L152.25,109.7303125L153.45833333333334,111.50015625L154.66666666666666,113.27L155.875,113.27L157.08333333333331,113.27L158.29166666666666,115.03984375L159.5,115.03984375L160.70833333333334,115.03984375L161.91666666666666,115.03984375L163.125,115.03984375L164.33333333333334,116.80968749999998L165.54166666666666,116.80968749999998L166.75,116.80968749999998L167.95833333333334,116.80968749999998L169.16666666666669,115.03984375L170.375,115.03984375L171.58333333333334,115.03984375L172.79166666666666,115.03984375L174,115.03984375L175.20833333333331,115.03984375L176.41666666666666,113.27L177.625,113.27L178.83333333333334,111.50015625L180.04166666666666,109.7303125L181.25,109.7303125L182.45833333333334,107.96046875L183.66666666666666,107.96046875L184.875,107.96046875L186.08333333333334,106.190625L187.29166666666669,106.190625L188.5,104.42078125000002L189.70833333333334,104.42078125000002L190.91666666666666,102.65093750000001L192.125,102.65093750000001L193.33333333333331,102.65093750000001L194.54166666666666,100.88109375L195.75,100.88109375L196.95833333333334,100.88109375L198.16666666666666,102.65093750000001L199.375,109.7303125L200.58333333333334,113.27L201.79166666666666,122.11921874999999L203,122.11921874999999L204.20833333333334,125.65890624999999L205.41666666666669,125.65890624999999L206.625,130.9684375L207.83333333333334,134.508125L209.04166666666666,138.0478125L210.25,139.81765625L211.45833333333331,146.89703125L212.66666666666666,146.89703125L213.875,153.97640625L215.08333333333334,155.74625L216.29166666666666,161.05578125L217.5,161.05578125L218.70833333333334,162.825625L219.91666666666666,164.59546874999998L221.125,166.3653125L222.33333333333334,166.3653125L223.54166666666669,164.59546874999998L224.75,164.59546874999998L225.95833333333334,164.59546874999998L227.16666666666666,164.59546874999998L228.375,164.59546874999998L229.58333333333331,162.825625L230.79166666666666,162.825625L232,161.05578125L233.20833333333334,161.05578125L234.41666666666666,161.05578125L235.625,161.05578125L236.83333333333334,161.05578125L238.04166666666666,162.825625L239.25,161.05578125L240.45833333333334,161.05578125L241.66666666666669,161.05578125L242.875,159.28593750000002L244.08333333333334,159.28593750000002L245.29166666666666,159.28593750000002L246.5,159.28593750000002L247.70833333333331,159.28593750000002L248.91666666666666,159.28593750000002L250.125,159.28593750000002L251.33333333333334,157.51609375L252.54166666666666,157.51609375L253.75,157.51609375L254.95833333333334,155.74625L256.1666666666667,155.74625L257.375,153.97640625L258.58333333333337,153.97640625L259.7916666666667,153.97640625L261,153.97640625L262.2083333333333,153.97640625L263.4166666666667,152.2065625L264.625,152.2065625L265.8333333333333,152.2065625" fill="none"></path></g></g></g></g></g></g><g transform="translate(40, 176)" clip-path="url(#clip_1)"><clipPath id="clip_1"><rect width="290" height="23"></rect></clipPath><g><g><line x1="0" y1="0" x2="0" y2="5" style="visibility: inherit;" fill="rgb(0, 0, 0)" stroke="rgb(204, 204, 204)" stroke-width="1.176471px"></line><line x1="24.166666666666664" y1="0" x2="24.166666666666664" y2="5" style="visibility: inherit;" fill="rgb(0, 0, 0)" stroke="rgb(204, 204, 204)" stroke-width="1.176471px"></line><line x1="48.33333333333333" y1="0" x2="48.33333333333333" y2="5" style="visibility: inherit;" fill="rgb(0, 0, 0)" stroke="rgb(204, 204, 204)" stroke-width="1.176471px"></line><line x1="72.5" y1="0" x2="72.5" y2="5" style="visibility: inherit;" fill="rgb(0, 0, 0)" stroke="rgb(204, 204, 204)" stroke-width="1.176471px"></line><line x1="96.66666666666666" y1="0" x2="96.66666666666666" y2="5" style="visibility: inherit;" fill="rgb(0, 0, 0)" stroke="rgb(204, 204, 204)" stroke-width="1.176471px"></line><line x1="120.83333333333334" y1="0" x2="120.83333333333334" y2="5" style="visibility: inherit;" fill="rgb(0, 0, 0)" stroke="rgb(204, 204, 204)" stroke-width="1.176471px"></line><line x1="145" y1="0" x2="145" y2="5" style="visibility: inherit;" fill="rgb(0, 0, 0)" stroke="rgb(204, 204, 204)" stroke-width="1.176471px"></line><line x1="169.16666666666669" y1="0" x2="169.16666666666669" y2="5" style="visibility: inherit;" fill="rgb(0, 0, 0)" stroke="rgb(204, 204, 204)" stroke-width="1.176471px"></line><line x1="193.33333333333331" y1="0" x2="193.33333333333331" y2="5" style="visibility: inherit;" fill="rgb(0, 0, 0)" stroke="rgb(204, 204, 204)" stroke-width="1.176471px"></line><line x1="217.5" y1="0" x2="217.5" y2="5" style="visibility: inherit;" fill="rgb(0, 0, 0)" stroke="rgb(204, 204, 204)" stroke-width="1.176471px"></line><line x1="241.66666666666669" y1="0" x2="241.66666666666669" y2="5" style="visibility: inherit;" fill="rgb(0, 0, 0)" stroke="rgb(204, 204, 204)" stroke-width="1.176471px"></line><line x1="265.8333333333333" y1="0" x2="265.8333333333333" y2="5" style="visibility: inherit;" fill="rgb(0, 0, 0)" stroke="rgb(204, 204, 204)" stroke-width="1.176471px"></line><line x1="290" y1="0" x2="290" y2="5" style="visibility: inherit;" fill="rgb(0, 0, 0)" stroke="rgb(204, 204, 204)" stroke-width="1.176471px"></line></g><g transform="translate(0, 8)"><text style="text-anchor: middle; visibility: hidden; font-family: Roboto, sans-serif; font-size: 14.117646px; font-weight: 200;" x="0" y="0" dx="0em" dy="0.95em" fill="rgb(33, 33, 33)" stroke="none" stroke-width="1.176471px">-10k</text><text style="text-anchor: middle; visibility: inherit; font-family: Roboto, sans-serif; font-size: 14.117646px; font-weight: 200;" x="24.166666666666664" y="0" dx="0em" dy="0.95em" fill="rgb(33, 33, 33)" stroke="none" stroke-width="1.176471px">0</text><text style="text-anchor: middle; visibility: hidden; font-family: Roboto, sans-serif; font-size: 14.117646px; font-weight: 200;" x="48.33333333333333" y="0" dx="0em" dy="0.95em" fill="rgb(33, 33, 33)" stroke="none" stroke-width="1.176471px">10k</text><text style="text-anchor: middle; visibility: inherit; font-family: Roboto, sans-serif; font-size: 14.117646px; font-weight: 200;" x="72.5" y="0" dx="0em" dy="0.95em" fill="rgb(33, 33, 33)" stroke="none" stroke-width="1.176471px">20k</text><text style="text-anchor: middle; visibility: hidden; font-family: Roboto, sans-serif; font-size: 14.117646px; font-weight: 200;" x="96.66666666666666" y="0" dx="0em" dy="0.95em" fill="rgb(33, 33, 33)" stroke="none" stroke-width="1.176471px">30k</text><text style="text-anchor: middle; visibility: inherit; font-family: Roboto, sans-serif; font-size: 14.117646px; font-weight: 200;" x="120.83333333333334" y="0" dx="0em" dy="0.95em" fill="rgb(33, 33, 33)" stroke="none" stroke-width="1.176471px">40k</text><text style="text-anchor: middle; visibility: hidden; font-family: Roboto, sans-serif; font-size: 14.117646px; font-weight: 200;" x="145" y="0" dx="0em" dy="0.95em" fill="rgb(33, 33, 33)" stroke="none" stroke-width="1.176471px">50k</text><text style="text-anchor: middle; visibility: inherit; font-family: Roboto, sans-serif; font-size: 14.117646px; font-weight: 200;" x="169.16666666666669" y="0" dx="0em" dy="0.95em" fill="rgb(33, 33, 33)" stroke="none" stroke-width="1.176471px">60k</text><text style="text-anchor: middle; visibility: hidden; font-family: Roboto, sans-serif; font-size: 14.117646px; font-weight: 200;" x="193.33333333333331" y="0" dx="0em" dy="0.95em" fill="rgb(33, 33, 33)" stroke="none" stroke-width="1.176471px">70k</text><text style="text-anchor: middle; visibility: inherit; font-family: Roboto, sans-serif; font-size: 14.117646px; font-weight: 200;" x="217.5" y="0" dx="0em" dy="0.95em" fill="rgb(33, 33, 33)" stroke="none" stroke-width="1.176471px">80k</text><text style="text-anchor: middle; visibility: hidden; font-family: Roboto, sans-serif; font-size: 14.117646px; font-weight: 200;" x="241.66666666666669" y="0" dx="0em" dy="0.95em" fill="rgb(33, 33, 33)" stroke="none" stroke-width="1.176471px">90k</text><text style="text-anchor: middle; visibility: inherit; font-family: Roboto, sans-serif; font-size: 14.117646px; font-weight: 200;" x="265.8333333333333" y="0" dx="0em" dy="0.95em" fill="rgb(33, 33, 33)" stroke="none" stroke-width="1.176471px">100k</text><text style="text-anchor: middle; visibility: hidden; font-family: Roboto, sans-serif; font-size: 14.117646px; font-weight: 200;" x="290" y="0" dx="0em" dy="0.95em" fill="rgb(33, 33, 33)" stroke="none" stroke-width="1.176471px">110k</text></g><line x1="0" y1="0" x2="290" y2="0" fill="rgb(0, 0, 0)" stroke="rgb(204, 204, 204)" stroke-width="1.176471px"></line></g></g></g></g></svg>