<svg viewBox="0 0 329.9999694824219 199.99998474121094" xmlns="http://www.w3.org/2000/svg"><g><g><g><g><g><line x1="72.34375" y1="176.921875" x2="67.34375" y2="176.921875" style="visibility: inherit;" fill="rgb(0, 0, 0)" stroke="rgb(204, 204, 204)" stroke-width="1.176471px"></line><line x1="72.34375" y1="154.806640625" x2="67.34375" y2="154.806640625" style="visibility: inherit;" fill="rgb(0, 0, 0)" stroke="rgb(204, 204, 204)" stroke-width="1.176471px"></line><line x1="72.34375" y1="132.69140625" x2="67.34375" y2="132.69140625" style="visibility: inherit;" fill="rgb(0, 0, 0)" stroke="rgb(204, 204, 204)" stroke-width="1.176471px"></line><line x1="72.34375" y1="110.576171875" x2="67.34375" y2="110.576171875" style="visibility: inherit;" fill="rgb(0, 0, 0)" stroke="rgb(204, 204, 204)" stroke-width="1.176471px"></line><line x1="72.34375" y1="88.4609375" x2="67.34375" y2="88.4609375" style="visibility: inherit;" fill="rgb(0, 0, 0)" stroke="rgb(204, 204, 204)" stroke-width="1.176471px"></line><line x1="72.34375" y1="66.345703125" x2="67.34375" y2="66.345703125" style="visibility: inherit;" fill="rgb(0, 0, 0)" stroke="rgb(204, 204, 204)" stroke-width="1.176471px"></line><line x1="72.34375" y1="44.23046875" x2="67.34375" y2="44.23046875" style="visibility: inherit;" fill="rgb(0, 0, 0)" stroke="rgb(204, 204, 204)" stroke-width="1.176471px"></line><line x1="72.34375" y1="22.115234375" x2="67.34375" y2="22.115234375" style="visibility: inherit;" fill="rgb(0, 0, 0)" stroke="rgb(204, 204, 204)" stroke-width="1.176471px"></line><line x1="72.34375" y1="0" x2="67.34375" y2="0" style="visibility: inherit;" fill="rgb(0, 0, 0)" stroke="rgb(204, 204, 204)" stroke-width="1.176471px"></line></g><g transform="translate(62.34375, 0)"><text style="text-anchor: end; visibility: hidden; font-family: Roboto, sans-serif; font-size: 14.117646px; font-weight: 200;" x="0" y="176.921875" dx="0em" dy="0.3em" fill="rgb(33, 33, 33)" stroke="none" stroke-width="1.176471px">-200</text><text style="text-anchor: end; visibility: inherit; font-family: Roboto, sans-serif; font-size: 14.117646px; font-weight: 200;" x="0" y="154.806640625" dx="0em" dy="0.3em" fill="rgb(33, 33, 33)" stroke="none" stroke-width="1.176471px">0</text><text style="text-anchor: end; visibility: hidden; font-family: Roboto, sans-serif; font-size: 14.117646px; font-weight: 200;" x="0" y="132.69140625" dx="0em" dy="0.3em" fill="rgb(33, 33, 33)" stroke="none" stroke-width="1.176471px">200</text><text style="text-anchor: end; visibility: inherit; font-family: Roboto, sans-serif; font-size: 14.117646px; font-weight: 200;" x="0" y="110.576171875" dx="0em" dy="0.3em" fill="rgb(33, 33, 33)" stroke="none" stroke-width="1.176471px">400</text><text style="text-anchor: end; visibility: hidden; font-family: Roboto, sans-serif; font-size: 14.117646px; font-weight: 200;" x="0" y="88.4609375" dx="0em" dy="0.3em" fill="rgb(33, 33, 33)" stroke="none" stroke-width="1.176471px">600</text><text style="text-anchor: end; visibility: inherit; font-family: Roboto, sans-serif; font-size: 14.117646px; font-weight: 200;" x="0" y="66.345703125" dx="0em" dy="0.3em" fill="rgb(33, 33, 33)" stroke="none" stroke-width="1.176471px">800</text><text style="text-anchor: end; visibility: hidden; font-family: Roboto, sans-serif; font-size: 14.117646px; font-weight: 200;" x="0" y="44.23046875" dx="0em" dy="0.3em" fill="rgb(33, 33, 33)" stroke="none" stroke-width="1.176471px">1e+3</text><text style="text-anchor: end; visibility: inherit; font-family: Roboto, sans-serif; font-size: 14.117646px; font-weight: 200;" x="0" y="22.115234375" dx="0em" dy="0.3em" fill="rgb(33, 33, 33)" stroke="none" stroke-width="1.176471px">1.2e+3</text><text style="text-anchor: end; visibility: hidden; font-family: Roboto, sans-serif; font-size: 14.117646px; font-weight: 200;" x="0" y="0" dx="0em" dy="0.3em" fill="rgb(33, 33, 33)" stroke="none" stroke-width="1.176471px">1.4e+3</text></g><line x1="72.34375" y1="0" x2="72.34375" y2="176.921875" fill="rgb(0, 0, 0)" stroke="rgb(204, 204, 204)" stroke-width="1.176471px"></line></g></g><g transform="translate(72, 0)" clip-path="url(#clip_0)"><clipPath id="clip_0"><rect width="257" height="176"></rect></clipPath><g><g><g><line x1="0" y1="0" x2="0" y2="176.921875" fill="rgb(0, 0, 0)" stroke="rgb(66, 66, 66)" stroke-width="1.176471px" opacity="0.25"></line><line x1="21.471354166666664" y1="0" x2="21.471354166666664" y2="176.921875" fill="rgb(0, 0, 0)" stroke="rgb(66, 66, 66)" stroke-width="1.176471px" opacity="0.25"></line><line x1="42.94270833333333" y1="0" x2="42.94270833333333" y2="176.921875" fill="rgb(0, 0, 0)" stroke="rgb(66, 66, 66)" stroke-width="1.176471px" opacity="0.25"></line><line x1="64.4140625" y1="0" x2="64.4140625" y2="176.921875" fill="rgb(0, 0, 0)" stroke="rgb(66, 66, 66)" stroke-width="1.176471px" opacity="0.25"></line><line x1="85.88541666666666" y1="0" x2="85.88541666666666" y2="176.921875" fill="rgb(0, 0, 0)" stroke="rgb(66, 66, 66)" stroke-width="1.176471px" opacity="0.25"></line><line x1="107.35677083333334" y1="0" x2="107.35677083333334" y2="176.921875" fill="rgb(0, 0, 0)" stroke="rgb(66, 66, 66)" stroke-width="1.176471px" opacity="0.25"></line><line x1="128.828125" y1="0" x2="128.828125" y2="176.921875" fill="rgb(0, 0, 0)" stroke="rgb(66, 66, 66)" stroke-width="1.176471px" opacity="0.25"></line><line x1="150.29947916666669" y1="0" x2="150.29947916666669" y2="176.921875" fill="rgb(0, 0, 0)" stroke="rgb(66, 66, 66)" stroke-width="1.176471px" opacity="0.25"></line><line x1="171.77083333333331" y1="0" x2="171.77083333333331" y2="176.921875" fill="rgb(0, 0, 0)" stroke="rgb(66, 66, 66)" stroke-width="1.176471px" opacity="0.25"></line><line x1="193.2421875" y1="0" x2="193.2421875" y2="176.921875" fill="rgb(0, 0, 0)" stroke="rgb(66, 66, 66)" stroke-width="1.176471px" opacity="0.25"></line><line x1="214.71354166666669" y1="0" x2="214.71354166666669" y2="176.921875" fill="rgb(0, 0, 0)" stroke="rgb(66, 66, 66)" stroke-width="1.176471px" opacity="0.25"></line><line x1="236.18489583333331" y1="0" x2="236.18489583333331" y2="176.921875" fill="rgb(0, 0, 0)" stroke="rgb(66, 66, 66)" stroke-width="1.176471px" opacity="0.25"></line><line x1="257.65625" y1="0" x2="257.65625" y2="176.921875" fill="rgb(0, 0, 0)" stroke="rgb(66, 66, 66)" stroke-width="1.176471px" opacity="0.25"></line></g><g><line x1="0" y1="176.921875" x2="257.65625" y2="176.921875" fill="rgb(0, 0, 0)" stroke="rgb(66, 66, 66)" stroke-width="1.176471px" opacity="0.25"></line><line x1="0" y1="154.806640625" x2="257.65625" y2="154.806640625" fill="rgb(0, 0, 0)" stroke="rgb(66, 66, 66)" stroke-width="1.176471px" opacity="0.25"></line><line x1="0" y1="132.69140625" x2="257.65625" y2="132.69140625" fill="rgb(0, 0, 0)" stroke="rgb(66, 66, 66)" stroke-width="1.176471px" opacity="0.25"></line><line x1="0" y1="110.576171875" x2="257.65625" y2="110.576171875" fill="rgb(0, 0, 0)" stroke="rgb(66, 66, 66)" stroke-width="1.176471px" opacity="0.25"></line><line x1="0" y1="88.4609375" x2="257.65625" y2="88.4609375" fill="rgb(0, 0, 0)" stroke="rgb(66, 66, 66)" stroke-width="1.176471px" opacity="0.25"></line><line x1="0" y1="66.345703125" x2="257.65625" y2="66.345703125" fill="rgb(0, 0, 0)" stroke="rgb(66, 66, 66)" stroke-width="1.176471px" opacity="0.25"></line><line x1="0" y1="44.23046875" x2="257.65625" y2="44.23046875" fill="rgb(0, 0, 0)" stroke="rgb(66, 66, 66)" stroke-width="1.176471px" opacity="0.25"></line><line x1="0" y1="22.115234375" x2="257.65625" y2="22.115234375" fill="rgb(0, 0, 0)" stroke="rgb(66, 66, 66)" stroke-width="1.176471px" opacity="0.25"></line><line x1="0" y1="0" x2="257.65625" y2="0" fill="rgb(0, 0, 0)" stroke="rgb(66, 66, 66)" stroke-width="1.176471px" opacity="0.25"></line></g></g></g><g><g><line x1="0" y1="154.806640625" x2="257.65625" y2="154.806640625" fill="rgb(0, 0, 0)" stroke="rgb(153, 153, 153)" stroke-width="1.764706px"></line></g></g><g><g><line x1="21.471354166666664" y1="0" x2="21.471354166666664" y2="176.921875" fill="rgb(0, 0, 0)" stroke="rgb(153, 153, 153)" stroke-width="1.764706px"></line></g></g><g><g><g><g><g><path style="fill: none;" stroke="rgb(255, 112, 67)" stroke-width="2.352941px" d="M22.544921875,131.32454634293913L23.618489583333332,135.93984788566829L24.692057291666668,145.52464844835717L25.765625,145.49124767318673L26.839192708333336,149.52690991064142L27.912760416666668,151.73067882863535L28.986328125,152.5859146003806L30.059895833333332,133.4872611804914L31.133463541666668,131.62812098000725L32.20703125,139.98361751167667L33.280598958333336,142.2845391642747L34.354166666666664,142.86303334209688L35.427734375,144.66169548357325L36.501302083333336,147.70318738566252L37.57486979166667,147.70292460472712L38.6484375,150.09136228298263L39.722005208333336,151.97777729993456L40.795572916666664,149.72403647244428L41.869140625,151.3617973370736L42.94270833333333,152.64599017441904L44.016276041666664,152.85862208443154L45.08984375,145.35292711507205L46.163411458333336,147.8350212996396L47.236979166666664,148.68138712591573L48.310546875,149.13590931345598L49.384114583333336,-62.90599826847126L50.457682291666664,24.16187934938027L51.53125,76.28453403474258L52.604817708333336,106.13733445730459L53.67838541666667,124.66201125374627L54.751953125,131.38443469442248L55.825520833333336,139.62212631857645L56.899088541666664,144.21496643678287L57.97265625,148.36596221215288L59.04622395833333,150.22638315273787L60.119791666666664,147.84334356966426L61.193359375,140.82354370036282L62.266927083333336,145.7781888983557L63.340494791666664,149.03609917330164L64.4140625,151.33237571290414L65.48763020833333,133.16558017532066L66.56119791666667,141.08119344411264L67.634765625,146.48232562765435L68.70833333333333,148.5521739468358L69.78190104166666,151.04846901908942L70.85546875,152.5514564623526L71.92903645833333,147.78115068454127L73.00260416666667,148.98560334800553L74.076171875,151.13730023629302L75.14973958333334,149.9322843130839L76.22330729166667,151.59018943634723L77.296875,152.45450019552194L78.37044270833333,153.3053039021608L79.44401041666667,147.43086538369738L80.517578125,149.95432127172825L81.59114583333333,150.16729689353758L82.66471354166667,147.81142833250144L83.73828125,150.51733995316235L84.81184895833333,151.8385787669961L85.88541666666666,151.42301829902198L86.958984375,150.66959954250075L88.03255208333333,151.8437028733684L89.10611979166667,152.9334365740016L90.1796875,153.58062826833228L91.25325520833334,153.46485071727918L92.32682291666667,152.9182065237569L93.400390625,149.69625096321147L94.47395833333333,144.66172443664098L95.54752604166667,142.42941041705623L96.62109375,147.16209134328807L97.69466145833333,60.79157783119942L98.76822916666667,97.71925248684923L99.841796875,119.60853108341956L100.91536458333333,133.19790795665884L101.98893229166666,139.67550071839634L103.0625,143.61438517872477L104.13606770833333,138.98124698915473L105.20963541666667,142.9483322927707L106.283203125,137.15889528395851L107.35677083333334,143.12870980541183L108.43033854166667,147.31294920580996L109.50390625,148.1001255983854L110.57747395833333,148.20683356644182L111.65104166666667,147.61988061721007L112.724609375,148.95573334500122L113.79817708333333,-86.13681785509033L114.87174479166667,10.23064858690053L115.9453125,67.42861861508801L117.01888020833333,102.28461454764937L118.09244791666666,123.11155741152726L119.166015625,133.43648602567652L120.23958333333333,141.69827274347864L121.31315104166667,146.8963319064475L122.38671875,150.053741941322L123.46028645833334,140.28894655613252L124.53385416666667,143.20079965021102L125.607421875,-336.31601471670933L127.75455729166667,-22.379680961842734L128.828125,48.49398942860063L129.90169270833334,90.68866742308012L130.97526041666666,112.77965675890488L132.048828125,123.03574671053913L133.12239583333334,135.74100131240772L134.19596354166669,134.14422029392296L135.26953125,142.36980154943726L136.34309895833334,147.25051885562806L137.41666666666666,150.09172974445212L138.490234375,151.97710059151314L139.56380208333331,151.4396439608947L140.63736979166666,152.35377269114647L141.7109375,150.23292956564183L142.78450520833334,151.9300541083361L143.85807291666666,153.04544813344216L144.931640625,153.7499250782401L146.00520833333334,153.53036129100968L147.07877604166666,153.44404988022953L148.15234375,153.52778540665543L149.22591145833334,154.02686226955365L150.29947916666669,152.75888449815696L151.373046875,149.74779748593443L152.44661458333334,151.76874741668917L153.52018229166666,152.89862330094184L154.59375,153.62154890365483L155.66731770833331,153.94883307993163L156.74088541666666,154.2605197649171L157.814453125,154.43102828679056L158.88802083333334,154.54023682590267L159.96158854166666,154.6261754517488L161.03515625,154.49319439070194L162.10872395833334,153.72961468504678L163.18229166666666,122.36856352047211L164.255859375,134.1078366082152L165.32942708333334,142.31048872738225L166.40299479166669,147.2964114080139L167.4765625,147.69860203684976L168.55013020833334,148.77733839991157L169.62369791666666,150.8399159468075L170.697265625,151.7336738575055L171.77083333333331,152.27189763457275L172.84440104166666,152.96488238016374L173.91796875,153.51154549494524L174.99153645833334,152.89290568487428L176.06510416666666,153.52023257363226L177.138671875,153.2820573116296L178.21223958333334,153.45357618924325L179.28580729166666,153.73697931339834L180.359375,153.76057371087296L181.43294270833334,153.22194444045377L182.50651041666669,153.63453206769162L183.580078125,153.25950699637255L184.65364583333334,153.07772812090766L185.72721354166666,152.8636022964415L186.80078125,153.59974927923574L187.87434895833331,153.97626186109014L188.94791666666666,154.12707667438235L190.021484375,154.38017679240775L191.09505208333334,154.49766867734346L192.16861979166666,153.85708206096203L193.2421875,153.97533117501348L194.31575520833334,154.06270275134017L195.38932291666666,153.9050315189327L196.462890625,-145.78738895988673L197.53645833333334,-27.292635836668083L198.61002604166669,44.058852531765524L199.68359375,87.45176410074062L200.75716145833334,114.34885459373767L201.83072916666666,124.9963634604238L202.904296875,136.27969818278535L203.97786458333331,139.66517315056552L205.05143229166666,131.49584946958203L206.125,140.5573435339956L207.19856770833334,145.91513011692115L208.27213541666666,149.10693612882136L209.345703125,150.59290004550598L210.41927083333334,152.25634604719795L211.49283854166666,153.00426302301892L212.56640625,153.6988030930683L213.63997395833334,153.83047592674643L214.71354166666669,154.08040571293859L215.787109375,154.1668332937587L216.86067708333334,-55.265343741701344L217.93424479166666,28.730891824318054L219.0078125,77.31240182203238L220.08138020833331,107.52697681899927L221.15494791666666,114.79301580152548L222.228515625,129.5339679152616L223.30208333333334,139.6400584530885L224.37565104166666,144.3829254305917L225.44921875,147.92035482145073L226.52278645833334,150.44174230458313L227.59635416666666,151.94867232138722L228.669921875,-78.96737646976231L229.74348958333334,14.397740669867654L230.81705729166669,70.56031046178914L231.890625,95.4291691766201L232.96419270833334,118.77303485434614L234.03776041666666,132.29091748005962L235.111328125,141.28841392461322L236.18489583333331,144.59796211790362" fill="none"></path></g></g></g></g><g opacity="0.2"><g><g><g><path style="fill: none;" stroke="rgb(255, 112, 67)" stroke-width="2.352941px" d="M22.544921875,131.32454634293913L23.618489583333332,138.70902881130576L24.692057291666668,154.72605698853846L25.765625,145.45196836158632L26.839192708333336,154.7958705278623L27.912760416666668,154.77928459903137L28.986328125,153.80891543774865L30.059895833333332,105.64124114722014L31.133463541666668,128.88625030368567L32.20703125,152.3905560782179L33.280598958333336,145.71505245313048L34.354166666666664,143.7276264690608L35.427734375,147.3538157518208L36.501302083333336,152.25946663953363L37.57486979166667,147.70253074221313L38.6484375,153.6723342890665L39.722005208333336,154.8066015577484L40.795572916666664,146.34399745576084L41.869140625,153.81818913763388L42.94270833333333,154.5721620501252L44.016276041666664,153.177558288211L45.08984375,134.09463163912295L46.163411458333336,151.55811357187108L47.236979166666664,149.95092583931984L48.310546875,149.81768936421722L49.384114583333336,-380.9679553794861L50.457682291666664,154.76347299332207L51.53125,154.46843604223338L52.604817708333336,150.91650759249927L53.67838541666667,152.44901621010155L54.751953125,141.46806762620807L55.825520833333336,151.9786621157825L56.899088541666664,151.1042260657996L57.97265625,154.5924555778806L59.04622395833333,153.01701448366046L60.119791666666664,144.26878425650298L61.193359375,130.29384400501846L62.266927083333336,153.21015664935112L63.340494791666664,153.92296456757467L64.4140625,154.77679051463406L65.48763020833333,105.91538690537216L66.56119791666667,152.95461333777754L67.634765625,154.58402389906811L68.70833333333333,151.6569464247115L69.78190104166666,154.79291162682117L70.85546875,154.8059376270131L71.92903645833333,140.62569201827048L73.00260416666667,150.79228234313427L74.076171875,154.3648455686518L75.14973958333334,148.12476042829454L76.22330729166667,154.07704712122214L77.296875,153.75096633427776L78.37044270833333,154.58150946211535L79.44401041666667,138.6192076060176L80.517578125,153.73950510377065L81.59114583333333,150.48676032625139L82.66471354166667,144.27762549094857L83.73828125,154.5762073841528L84.81184895833333,153.82043698774652L85.88541666666666,150.7996775970608L86.958984375,149.53947140771896L88.03255208333333,153.6048578696698L89.10611979166667,154.56803712495136L90.1796875,154.5514158098283L91.25325520833334,153.2911843906995L92.32682291666667,152.0982402334735L93.400390625,144.86331762239337L94.47395833333333,137.10993464678526L95.54752604166667,139.0809393876791L96.62109375,154.2611127326358L97.69466145833333,-68.76419243693353L98.76822916666667,153.11076447032391L99.841796875,152.44244897827505L100.91536458333333,153.58197326651774L101.98893229166666,149.39188986100257L103.0625,149.52271186921746L104.13606770833333,132.03153970479966L105.20963541666667,148.89896024819464L106.283203125,128.47473977074029L107.35677083333334,152.08343158759178L108.43033854166667,153.5893083064072L109.50390625,149.2808901872486L110.57747395833333,148.36689551852643L111.65104166666667,146.73945119336247L112.724609375,150.95951243668793L113.79817708333333,-438.77564465522767L114.87174479166667,154.78184824988682L115.9453125,153.22557365736924L117.01888020833333,154.56860844649142L118.09244791666666,154.35197170734406L119.166015625,148.92387894690037L120.23958333333333,154.09095282018185L121.31315104166667,154.6934206509008L122.38671875,154.78985699363372L123.46028645833334,125.64175347834826L124.53385416666667,147.5685792913288L125.607421875,-1055.59123626709L126.68098958333333,154.68932161459932L127.75455729166667,153.9216178716719L128.828125,154.80449501426568L129.90169270833334,153.98068441479933L130.97526041666666,145.91614076264202L132.048828125,138.41988163799047L133.12239583333334,154.79888321521065L134.19596354166669,131.74904876619578L135.26953125,154.70817343270872L136.34309895833334,154.57159481491428L137.41666666666666,154.35354607768824L138.490234375,154.80515686210464L139.56380208333331,150.6334590149671L140.63736979166666,153.7249657865241L141.7109375,147.0516648773849L142.78450520833334,154.47574092237744L143.85807291666666,154.7185391711013L144.931640625,154.806640495437L146.00520833333334,153.20101561016403L147.07877604166666,153.3145827640593L148.15234375,153.6533886962943L149.22591145833334,154.77547756390092L150.29947916666669,150.85691784106194L151.373046875,145.2311669676006L152.44661458333334,154.8001723128213L153.52018229166666,154.59343712732078L154.59375,154.70593730772438L155.66731770833331,154.4397593443468L156.74088541666666,154.72804979239532L157.814453125,154.68679106960073L158.88802083333334,154.70404963457082L159.96158854166666,154.75508339051797L161.03515625,154.29372279913164L162.10872395833334,152.58424512656407L163.18229166666666,75.32698677361012L164.255859375,151.7167462398298L165.32942708333334,154.6144669061329L166.40299479166669,154.7752954289614L167.4765625,148.3018879801035L168.55013020833334,150.3954429445043L169.62369791666666,153.9337822671514L170.697265625,153.0743107235525L171.77083333333331,153.07923330017366L172.84440104166666,154.00435949855017L173.91796875,154.33154016711748L174.99153645833334,151.96494596976785L176.06510416666666,154.46122290676925L177.138671875,152.92479441862554L178.21223958333334,153.71085450566375L179.28580729166666,154.162083999631L180.359375,153.79596530708483L181.43294270833334,152.41400053482502L182.50651041666669,154.2534135085484L183.580078125,152.69696938939393L184.65364583333334,152.80505980771036L185.72721354166666,152.54241355974227L186.80078125,154.7039697534271L187.87434895833331,154.54103073387174L188.94791666666666,154.35329889432063L190.021484375,154.75982696944587L191.09505208333334,154.67390650474698L192.16861979166666,152.89620213638992L193.2421875,154.15270484609064L194.31575520833334,154.19376011583023L195.38932291666666,153.6685246703215L196.462890625,-595.3260196781158L197.53645833333334,150.4494938481599L198.61002604166669,151.08608508441597L199.68359375,152.54113145420328L200.75716145833334,154.69449033323326L201.83072916666666,140.967626760453L202.904296875,153.2047002663277L203.97786458333331,144.7433856022358L205.05143229166666,119.24186394810677L206.125,154.149584630616L207.19856770833334,153.9518099913094L208.27213541666666,153.89464514667168L209.345703125,152.82184592053295L210.41927083333334,154.7515150497359L211.49283854166666,154.12613848675042L212.56640625,154.7406131981424L213.63997395833334,154.02798517726362L214.71354166666669,154.45530039222677L215.787109375,154.29647466498892L216.86067708333334,-369.4136092948914L217.93424479166666,154.72524517334708L219.0078125,150.18466681860386L220.08138020833331,152.84883931444958L221.15494791666666,125.69207427531481L222.228515625,151.6453960858658L223.30208333333334,154.79919425982888L224.37565104166666,151.4972258968465L225.44921875,153.2264989077393L226.52278645833334,154.22382352928165L227.59635416666666,154.20906734659337L228.669921875,-425.34144965648653L229.74348958333334,154.44541637931252L230.81705729166669,154.8041651496714L231.890625,132.73245724886655L232.96419270833334,153.78883337093518L234.03776041666666,152.56774141862988L235.111328125,154.7846585914436L236.18489583333331,149.56228440783917" fill="none"></path></g></g></g></g></g></g><g transform="translate(72, 176)" clip-path="url(#clip_1)"><clipPath id="clip_1"><rect width="257" height="23"></rect></clipPath><g><g><line x1="0" y1="0" x2="0" y2="5" style="visibility: inherit;" fill="rgb(0, 0, 0)" stroke="rgb(204, 204, 204)" stroke-width="1.176471px"></line><line x1="21.471354166666664" y1="0" x2="21.471354166666664" y2="5" style="visibility: inherit;" fill="rgb(0, 0, 0)" stroke="rgb(204, 204, 204)" stroke-width="1.176471px"></line><line x1="42.94270833333333" y1="0" x2="42.94270833333333" y2="5" style="visibility: inherit;" fill="rgb(0, 0, 0)" stroke="rgb(204, 204, 204)" stroke-width="1.176471px"></line><line x1="64.4140625" y1="0" x2="64.4140625" y2="5" style="visibility: inherit;" fill="rgb(0, 0, 0)" stroke="rgb(204, 204, 204)" stroke-width="1.176471px"></line><line x1="85.88541666666666" y1="0" x2="85.88541666666666" y2="5" style="visibility: inherit;" fill="rgb(0, 0, 0)" stroke="rgb(204, 204, 204)" stroke-width="1.176471px"></line><line x1="107.35677083333334" y1="0" x2="107.35677083333334" y2="5" style="visibility: inherit;" fill="rgb(0, 0, 0)" stroke="rgb(204, 204, 204)" stroke-width="1.176471px"></line><line x1="128.828125" y1="0" x2="128.828125" y2="5" style="visibility: inherit;" fill="rgb(0, 0, 0)" stroke="rgb(204, 204, 204)" stroke-width="1.176471px"></line><line x1="150.29947916666669" y1="0" x2="150.29947916666669" y2="5" style="visibility: inherit;" fill="rgb(0, 0, 0)" stroke="rgb(204, 204, 204)" stroke-width="1.176471px"></line><line x1="171.77083333333331" y1="0" x2="171.77083333333331" y2="5" style="visibility: inherit;" fill="rgb(0, 0, 0)" stroke="rgb(204, 204, 204)" stroke-width="1.176471px"></line><line x1="193.2421875" y1="0" x2="193.2421875" y2="5" style="visibility: inherit;" fill="rgb(0, 0, 0)" stroke="rgb(204, 204, 204)" stroke-width="1.176471px"></line><line x1="214.71354166666669" y1="0" x2="214.71354166666669" y2="5" style="visibility: inherit;" fill="rgb(0, 0, 0)" stroke="rgb(204, 204, 204)" stroke-width="1.176471px"></line><line x1="236.18489583333331" y1="0" x2="236.18489583333331" y2="5" style="visibility: inherit;" fill="rgb(0, 0, 0)" stroke="rgb(204, 204, 204)" stroke-width="1.176471px"></line><line x1="257.65625" y1="0" x2="257.65625" y2="5" style="visibility: inherit;" fill="rgb(0, 0, 0)" stroke="rgb(204, 204, 204)" stroke-width="1.176471px"></line></g><g transform="translate(0, 8)"><text style="text-anchor: middle; visibility: hidden; font-family: Roboto, sans-serif; font-size: 14.117646px; font-weight: 200;" x="0" y="0" dx="0em" dy="0.95em" fill="rgb(33, 33, 33)" stroke="none" stroke-width="1.176471px">-10k</text><text style="text-anchor: middle; visibility: inherit; font-family: Roboto, sans-serif; font-size: 14.117646px; font-weight: 200;" x="21.471354166666664" y="0" dx="0em" dy="0.95em" fill="rgb(33, 33, 33)" stroke="none" stroke-width="1.176471px">0</text><text style="text-anchor: middle; visibility: hidden; font-family: Roboto, sans-serif; font-size: 14.117646px; font-weight: 200;" x="42.94270833333333" y="0" dx="0em" dy="0.95em" fill="rgb(33, 33, 33)" stroke="none" stroke-width="1.176471px">10k</text><text style="text-anchor: middle; visibility: inherit; font-family: Roboto, sans-serif; font-size: 14.117646px; font-weight: 200;" x="64.4140625" y="0" dx="0em" dy="0.95em" fill="rgb(33, 33, 33)" stroke="none" stroke-width="1.176471px">20k</text><text style="text-anchor: middle; visibility: hidden; font-family: Roboto, sans-serif; font-size: 14.117646px; font-weight: 200;" x="85.88541666666666" y="0" dx="0em" dy="0.95em" fill="rgb(33, 33, 33)" stroke="none" stroke-width="1.176471px">30k</text><text style="text-anchor: middle; visibility: inherit; font-family: Roboto, sans-serif; font-size: 14.117646px; font-weight: 200;" x="107.35677083333334" y="0" dx="0em" dy="0.95em" fill="rgb(33, 33, 33)" stroke="none" stroke-width="1.176471px">40k</text><text style="text-anchor: middle; visibility: hidden; font-family: Roboto, sans-serif; font-size: 14.117646px; font-weight: 200;" x="128.828125" y="0" dx="0em" dy="0.95em" fill="rgb(33, 33, 33)" stroke="none" stroke-width="1.176471px">50k</text><text style="text-anchor: middle; visibility: inherit; font-family: Roboto, sans-serif; font-size: 14.117646px; font-weight: 200;" x="150.29947916666669" y="0" dx="0em" dy="0.95em" fill="rgb(33, 33, 33)" stroke="none" stroke-width="1.176471px">60k</text><text style="text-anchor: middle; visibility: hidden; font-family: Roboto, sans-serif; font-size: 14.117646px; font-weight: 200;" x="171.77083333333331" y="0" dx="0em" dy="0.95em" fill="rgb(33, 33, 33)" stroke="none" stroke-width="1.176471px">70k</text><text style="text-anchor: middle; visibility: inherit; font-family: Roboto, sans-serif; font-size: 14.117646px; font-weight: 200;" x="193.2421875" y="0" dx="0em" dy="0.95em" fill="rgb(33, 33, 33)" stroke="none" stroke-width="1.176471px">80k</text><text style="text-anchor: middle; visibility: hidden; font-family: Roboto, sans-serif; font-size: 14.117646px; font-weight: 200;" x="214.71354166666669" y="0" dx="0em" dy="0.95em" fill="rgb(33, 33, 33)" stroke="none" stroke-width="1.176471px">90k</text><text style="text-anchor: middle; visibility: inherit; font-family: Roboto, sans-serif; font-size: 14.117646px; font-weight: 200;" x="236.18489583333331" y="0" dx="0em" dy="0.95em" fill="rgb(33, 33, 33)" stroke="none" stroke-width="1.176471px">100k</text><text style="text-anchor: middle; visibility: hidden; font-family: Roboto, sans-serif; font-size: 14.117646px; font-weight: 200;" x="257.65625" y="0" dx="0em" dy="0.95em" fill="rgb(33, 33, 33)" stroke="none" stroke-width="1.176471px">110k</text></g><line x1="0" y1="0" x2="257.65625" y2="0" fill="rgb(0, 0, 0)" stroke="rgb(204, 204, 204)" stroke-width="1.176471px"></line></g></g></g></g></svg>