<svg viewBox="0 0 329.9999694824219 199.99998474121094" xmlns="http://www.w3.org/2000/svg"><g><g><g><g><g><line x1="72.34375" y1="176.921875" x2="67.34375" y2="176.921875" style="visibility: inherit;" fill="rgb(0, 0, 0)" stroke="rgb(204, 204, 204)" stroke-width="1.176471px"></line><line x1="72.34375" y1="164.28459776368655" x2="67.34375" y2="164.28459776368655" style="visibility: inherit;" fill="rgb(0, 0, 0)" stroke="rgb(204, 204, 204)" stroke-width="1.176471px"></line><line x1="72.34375" y1="151.64732052737307" x2="67.34375" y2="151.64732052737307" style="visibility: inherit;" fill="rgb(0, 0, 0)" stroke="rgb(204, 204, 204)" stroke-width="1.176471px"></line><line x1="72.34375" y1="139.01004329105962" x2="67.34375" y2="139.01004329105962" style="visibility: inherit;" fill="rgb(0, 0, 0)" stroke="rgb(204, 204, 204)" stroke-width="1.176471px"></line><line x1="72.34375" y1="126.37276605474614" x2="67.34375" y2="126.37276605474614" style="visibility: inherit;" fill="rgb(0, 0, 0)" stroke="rgb(204, 204, 204)" stroke-width="1.176471px"></line><line x1="72.34375" y1="113.73548881843267" x2="67.34375" y2="113.73548881843267" style="visibility: inherit;" fill="rgb(0, 0, 0)" stroke="rgb(204, 204, 204)" stroke-width="1.176471px"></line><line x1="72.34375" y1="101.0982115821192" x2="67.34375" y2="101.0982115821192" style="visibility: inherit;" fill="rgb(0, 0, 0)" stroke="rgb(204, 204, 204)" stroke-width="1.176471px"></line><line x1="72.34375" y1="88.46093434580574" x2="67.34375" y2="88.46093434580574" style="visibility: inherit;" fill="rgb(0, 0, 0)" stroke="rgb(204, 204, 204)" stroke-width="1.176471px"></line><line x1="72.34375" y1="75.82365710949226" x2="67.34375" y2="75.82365710949226" style="visibility: inherit;" fill="rgb(0, 0, 0)" stroke="rgb(204, 204, 204)" stroke-width="1.176471px"></line><line x1="72.34375" y1="63.186379873178815" x2="67.34375" y2="63.186379873178815" style="visibility: inherit;" fill="rgb(0, 0, 0)" stroke="rgb(204, 204, 204)" stroke-width="1.176471px"></line><line x1="72.34375" y1="50.54910263686533" x2="67.34375" y2="50.54910263686533" style="visibility: inherit;" fill="rgb(0, 0, 0)" stroke="rgb(204, 204, 204)" stroke-width="1.176471px"></line><line x1="72.34375" y1="37.91182540055186" x2="67.34375" y2="37.91182540055186" style="visibility: inherit;" fill="rgb(0, 0, 0)" stroke="rgb(204, 204, 204)" stroke-width="1.176471px"></line><line x1="72.34375" y1="25.274548164238418" x2="67.34375" y2="25.274548164238418" style="visibility: inherit;" fill="rgb(0, 0, 0)" stroke="rgb(204, 204, 204)" stroke-width="1.176471px"></line><line x1="72.34375" y1="12.637270927924954" x2="67.34375" y2="12.637270927924954" style="visibility: inherit;" fill="rgb(0, 0, 0)" stroke="rgb(204, 204, 204)" stroke-width="1.176471px"></line></g><g transform="translate(62.34375, 0)"><text style="text-anchor: end; visibility: hidden; font-family: Roboto, sans-serif; font-size: 14.117646px; font-weight: 200;" x="0" y="176.921875" dx="0em" dy="0.3em" fill="rgb(33, 33, 33)" stroke="none" stroke-width="1.176471px">0</text><text style="text-anchor: end; visibility: inherit; font-family: Roboto, sans-serif; font-size: 14.117646px; font-weight: 200;" x="0" y="164.28459776368655" dx="0em" dy="0.3em" fill="rgb(33, 33, 33)" stroke="none" stroke-width="1.176471px">1e-4</text><text style="text-anchor: end; visibility: hidden; font-family: Roboto, sans-serif; font-size: 14.117646px; font-weight: 200;" x="0" y="151.64732052737307" dx="0em" dy="0.3em" fill="rgb(33, 33, 33)" stroke="none" stroke-width="1.176471px">2e-4</text><text style="text-anchor: end; visibility: inherit; font-family: Roboto, sans-serif; font-size: 14.117646px; font-weight: 200;" x="0" y="139.01004329105962" dx="0em" dy="0.3em" fill="rgb(33, 33, 33)" stroke="none" stroke-width="1.176471px">3e-4</text><text style="text-anchor: end; visibility: hidden; font-family: Roboto, sans-serif; font-size: 14.117646px; font-weight: 200;" x="0" y="126.37276605474614" dx="0em" dy="0.3em" fill="rgb(33, 33, 33)" stroke="none" stroke-width="1.176471px">4e-4</text><text style="text-anchor: end; visibility: inherit; font-family: Roboto, sans-serif; font-size: 14.117646px; font-weight: 200;" x="0" y="113.73548881843267" dx="0em" dy="0.3em" fill="rgb(33, 33, 33)" stroke="none" stroke-width="1.176471px">5e-4</text><text style="text-anchor: end; visibility: hidden; font-family: Roboto, sans-serif; font-size: 14.117646px; font-weight: 200;" x="0" y="101.0982115821192" dx="0em" dy="0.3em" fill="rgb(33, 33, 33)" stroke="none" stroke-width="1.176471px">6e-4</text><text style="text-anchor: end; visibility: inherit; font-family: Roboto, sans-serif; font-size: 14.117646px; font-weight: 200;" x="0" y="88.46093434580574" dx="0em" dy="0.3em" fill="rgb(33, 33, 33)" stroke="none" stroke-width="1.176471px">7e-4</text><text style="text-anchor: end; visibility: hidden; font-family: Roboto, sans-serif; font-size: 14.117646px; font-weight: 200;" x="0" y="75.82365710949226" dx="0em" dy="0.3em" fill="rgb(33, 33, 33)" stroke="none" stroke-width="1.176471px">8e-4</text><text style="text-anchor: end; visibility: inherit; font-family: Roboto, sans-serif; font-size: 14.117646px; font-weight: 200;" x="0" y="63.186379873178815" dx="0em" dy="0.3em" fill="rgb(33, 33, 33)" stroke="none" stroke-width="1.176471px">9e-4</text><text style="text-anchor: end; visibility: hidden; font-family: Roboto, sans-serif; font-size: 14.117646px; font-weight: 200;" x="0" y="50.54910263686533" dx="0em" dy="0.3em" fill="rgb(33, 33, 33)" stroke="none" stroke-width="1.176471px">1e-3</text><text style="text-anchor: end; visibility: inherit; font-family: Roboto, sans-serif; font-size: 14.117646px; font-weight: 200;" x="0" y="37.91182540055186" dx="0em" dy="0.3em" fill="rgb(33, 33, 33)" stroke="none" stroke-width="1.176471px">1.1e-3</text><text style="text-anchor: end; visibility: hidden; font-family: Roboto, sans-serif; font-size: 14.117646px; font-weight: 200;" x="0" y="25.274548164238418" dx="0em" dy="0.3em" fill="rgb(33, 33, 33)" stroke="none" stroke-width="1.176471px">1.2e-3</text><text style="text-anchor: end; visibility: inherit; font-family: Roboto, sans-serif; font-size: 14.117646px; font-weight: 200;" x="0" y="12.637270927924954" dx="0em" dy="0.3em" fill="rgb(33, 33, 33)" stroke="none" stroke-width="1.176471px">1.3e-3</text></g><line x1="72.34375" y1="0" x2="72.34375" y2="176.921875" fill="rgb(0, 0, 0)" stroke="rgb(204, 204, 204)" stroke-width="1.176471px"></line></g></g><g transform="translate(72, 0)" clip-path="url(#clip_0)"><clipPath id="clip_0"><rect width="257" height="176"></rect></clipPath><g><g><g><line x1="0" y1="0" x2="0" y2="176.921875" fill="rgb(0, 0, 0)" stroke="rgb(66, 66, 66)" stroke-width="1.176471px" opacity="0.25"></line><line x1="21.471354166666664" y1="0" x2="21.471354166666664" y2="176.921875" fill="rgb(0, 0, 0)" stroke="rgb(66, 66, 66)" stroke-width="1.176471px" opacity="0.25"></line><line x1="42.94270833333333" y1="0" x2="42.94270833333333" y2="176.921875" fill="rgb(0, 0, 0)" stroke="rgb(66, 66, 66)" stroke-width="1.176471px" opacity="0.25"></line><line x1="64.4140625" y1="0" x2="64.4140625" y2="176.921875" fill="rgb(0, 0, 0)" stroke="rgb(66, 66, 66)" stroke-width="1.176471px" opacity="0.25"></line><line x1="85.88541666666666" y1="0" x2="85.88541666666666" y2="176.921875" fill="rgb(0, 0, 0)" stroke="rgb(66, 66, 66)" stroke-width="1.176471px" opacity="0.25"></line><line x1="107.35677083333334" y1="0" x2="107.35677083333334" y2="176.921875" fill="rgb(0, 0, 0)" stroke="rgb(66, 66, 66)" stroke-width="1.176471px" opacity="0.25"></line><line x1="128.828125" y1="0" x2="128.828125" y2="176.921875" fill="rgb(0, 0, 0)" stroke="rgb(66, 66, 66)" stroke-width="1.176471px" opacity="0.25"></line><line x1="150.29947916666669" y1="0" x2="150.29947916666669" y2="176.921875" fill="rgb(0, 0, 0)" stroke="rgb(66, 66, 66)" stroke-width="1.176471px" opacity="0.25"></line><line x1="171.77083333333331" y1="0" x2="171.77083333333331" y2="176.921875" fill="rgb(0, 0, 0)" stroke="rgb(66, 66, 66)" stroke-width="1.176471px" opacity="0.25"></line><line x1="193.2421875" y1="0" x2="193.2421875" y2="176.921875" fill="rgb(0, 0, 0)" stroke="rgb(66, 66, 66)" stroke-width="1.176471px" opacity="0.25"></line><line x1="214.71354166666669" y1="0" x2="214.71354166666669" y2="176.921875" fill="rgb(0, 0, 0)" stroke="rgb(66, 66, 66)" stroke-width="1.176471px" opacity="0.25"></line><line x1="236.18489583333331" y1="0" x2="236.18489583333331" y2="176.921875" fill="rgb(0, 0, 0)" stroke="rgb(66, 66, 66)" stroke-width="1.176471px" opacity="0.25"></line><line x1="257.65625" y1="0" x2="257.65625" y2="176.921875" fill="rgb(0, 0, 0)" stroke="rgb(66, 66, 66)" stroke-width="1.176471px" opacity="0.25"></line></g><g><line x1="0" y1="176.921875" x2="257.65625" y2="176.921875" fill="rgb(0, 0, 0)" stroke="rgb(66, 66, 66)" stroke-width="1.176471px" opacity="0.25"></line><line x1="0" y1="164.28459776368655" x2="257.65625" y2="164.28459776368655" fill="rgb(0, 0, 0)" stroke="rgb(66, 66, 66)" stroke-width="1.176471px" opacity="0.25"></line><line x1="0" y1="151.64732052737307" x2="257.65625" y2="151.64732052737307" fill="rgb(0, 0, 0)" stroke="rgb(66, 66, 66)" stroke-width="1.176471px" opacity="0.25"></line><line x1="0" y1="139.01004329105962" x2="257.65625" y2="139.01004329105962" fill="rgb(0, 0, 0)" stroke="rgb(66, 66, 66)" stroke-width="1.176471px" opacity="0.25"></line><line x1="0" y1="126.37276605474614" x2="257.65625" y2="126.37276605474614" fill="rgb(0, 0, 0)" stroke="rgb(66, 66, 66)" stroke-width="1.176471px" opacity="0.25"></line><line x1="0" y1="113.73548881843267" x2="257.65625" y2="113.73548881843267" fill="rgb(0, 0, 0)" stroke="rgb(66, 66, 66)" stroke-width="1.176471px" opacity="0.25"></line><line x1="0" y1="101.0982115821192" x2="257.65625" y2="101.0982115821192" fill="rgb(0, 0, 0)" stroke="rgb(66, 66, 66)" stroke-width="1.176471px" opacity="0.25"></line><line x1="0" y1="88.46093434580574" x2="257.65625" y2="88.46093434580574" fill="rgb(0, 0, 0)" stroke="rgb(66, 66, 66)" stroke-width="1.176471px" opacity="0.25"></line><line x1="0" y1="75.82365710949226" x2="257.65625" y2="75.82365710949226" fill="rgb(0, 0, 0)" stroke="rgb(66, 66, 66)" stroke-width="1.176471px" opacity="0.25"></line><line x1="0" y1="63.186379873178815" x2="257.65625" y2="63.186379873178815" fill="rgb(0, 0, 0)" stroke="rgb(66, 66, 66)" stroke-width="1.176471px" opacity="0.25"></line><line x1="0" y1="50.54910263686533" x2="257.65625" y2="50.54910263686533" fill="rgb(0, 0, 0)" stroke="rgb(66, 66, 66)" stroke-width="1.176471px" opacity="0.25"></line><line x1="0" y1="37.91182540055186" x2="257.65625" y2="37.91182540055186" fill="rgb(0, 0, 0)" stroke="rgb(66, 66, 66)" stroke-width="1.176471px" opacity="0.25"></line><line x1="0" y1="25.274548164238418" x2="257.65625" y2="25.274548164238418" fill="rgb(0, 0, 0)" stroke="rgb(66, 66, 66)" stroke-width="1.176471px" opacity="0.25"></line><line x1="0" y1="12.637270927924954" x2="257.65625" y2="12.637270927924954" fill="rgb(0, 0, 0)" stroke="rgb(66, 66, 66)" stroke-width="1.176471px" opacity="0.25"></line></g></g></g><g><g><line x1="0" y1="176.921875" x2="257.65625" y2="176.921875" fill="rgb(0, 0, 0)" stroke="rgb(153, 153, 153)" stroke-width="1.764706px"></line></g></g><g><g><line x1="21.471354166666664" y1="0" x2="21.471354166666664" y2="176.921875" fill="rgb(0, 0, 0)" stroke="rgb(153, 153, 153)" stroke-width="1.764706px"></line></g></g><g><g><g><g><g><path style="fill: none;" stroke="rgb(255, 112, 67)" stroke-width="2.352941px" d="M22.544921875,88.4609375L23.618489583333332,88.4609375L24.692057291666668,88.4609375L25.765625,88.4609375L26.839192708333336,88.4609375L27.912760416666668,88.4609375L28.986328125,88.4609375L30.059895833333332,88.4609375L31.133463541666668,88.4609375L32.20703125,88.4609375L33.280598958333336,88.4609375L34.354166666666664,88.4609375L35.427734375,88.4609375L36.501302083333336,88.4609375L37.57486979166667,88.4609375L38.6484375,88.4609375L39.722005208333336,88.4609375L40.795572916666664,88.4609375L41.869140625,88.4609375L42.94270833333333,88.4609375L44.016276041666664,88.4609375L45.08984375,88.4609375L46.163411458333336,88.4609375L47.236979166666664,88.4609375L48.310546875,88.4609375L49.384114583333336,88.4609375L50.457682291666664,88.4609375L51.53125,88.4609375L52.604817708333336,88.4609375L53.67838541666667,88.4609375L54.751953125,88.4609375L55.825520833333336,88.4609375L56.899088541666664,88.4609375L57.97265625,88.4609375L59.04622395833333,88.4609375L60.119791666666664,88.4609375L61.193359375,88.4609375L62.266927083333336,88.4609375L63.340494791666664,88.4609375L64.4140625,88.4609375L65.48763020833333,88.4609375L66.56119791666667,88.4609375L67.634765625,88.4609375L68.70833333333333,88.4609375L69.78190104166666,88.4609375L70.85546875,88.4609375L71.92903645833333,88.4609375L73.00260416666667,88.4609375L74.076171875,88.4609375L75.14973958333334,88.4609375L76.22330729166667,88.4609375L77.296875,88.4609375L78.37044270833333,88.4609375L79.44401041666667,88.4609375L80.517578125,88.4609375L81.59114583333333,88.4609375L82.66471354166667,88.4609375L83.73828125,88.4609375L84.81184895833333,88.4609375L85.88541666666666,88.4609375L86.958984375,88.4609375L88.03255208333333,88.4609375L89.10611979166667,88.4609375L90.1796875,88.4609375L91.25325520833334,88.4609375L92.32682291666667,88.4609375L93.400390625,88.4609375L94.47395833333333,88.4609375L95.54752604166667,88.4609375L96.62109375,88.4609375L97.69466145833333,88.4609375L98.76822916666667,88.4609375L99.841796875,88.4609375L100.91536458333333,88.4609375L101.98893229166666,88.4609375L103.0625,88.4609375L104.13606770833333,88.4609375L105.20963541666667,88.4609375L106.283203125,88.4609375L107.35677083333334,88.4609375L108.43033854166667,88.4609375L109.50390625,88.4609375L110.57747395833333,88.4609375L111.65104166666667,88.4609375L112.724609375,88.4609375L113.79817708333333,88.4609375L114.87174479166667,88.4609375L115.9453125,88.4609375L117.01888020833333,88.4609375L118.09244791666666,88.4609375L119.166015625,88.4609375L120.23958333333333,88.4609375L121.31315104166667,88.4609375L122.38671875,88.4609375L123.46028645833334,88.4609375L124.53385416666667,88.4609375L125.607421875,88.4609375L126.68098958333333,88.4609375L127.75455729166667,88.4609375L128.828125,88.4609375L129.90169270833334,88.4609375L130.97526041666666,88.4609375L132.048828125,88.4609375L133.12239583333334,88.4609375L134.19596354166669,88.4609375L135.26953125,88.4609375L136.34309895833334,88.4609375L137.41666666666666,88.4609375L138.490234375,88.4609375L139.56380208333331,88.4609375L140.63736979166666,88.4609375L141.7109375,88.4609375L142.78450520833334,88.4609375L143.85807291666666,88.4609375L144.931640625,88.4609375L146.00520833333334,88.4609375L147.07877604166666,88.4609375L148.15234375,88.4609375L149.22591145833334,88.4609375L150.29947916666669,88.4609375L151.373046875,88.4609375L152.44661458333334,88.4609375L153.52018229166666,88.4609375L154.59375,88.4609375L155.66731770833331,88.4609375L156.74088541666666,88.4609375L157.814453125,88.4609375L158.88802083333334,88.4609375L159.96158854166666,88.4609375L161.03515625,88.4609375L162.10872395833334,88.4609375L163.18229166666666,88.4609375L164.255859375,88.4609375L165.32942708333334,88.4609375L166.40299479166669,88.4609375L167.4765625,88.4609375L168.55013020833334,88.4609375L169.62369791666666,88.4609375L170.697265625,88.4609375L171.77083333333331,88.4609375L172.84440104166666,88.4609375L173.91796875,88.4609375L174.99153645833334,88.4609375L176.06510416666666,88.4609375L177.138671875,88.4609375L178.21223958333334,88.4609375L179.28580729166666,88.4609375L180.359375,88.4609375L181.43294270833334,88.4609375L182.50651041666669,88.4609375L183.580078125,88.4609375L184.65364583333334,88.4609375L185.72721354166666,88.4609375L186.80078125,88.4609375L187.87434895833331,88.4609375L188.94791666666666,88.4609375L190.021484375,88.4609375L191.09505208333334,88.4609375L192.16861979166666,88.4609375L193.2421875,88.4609375L194.31575520833334,88.4609375L195.38932291666666,88.4609375L196.462890625,88.4609375L197.53645833333334,88.4609375L198.61002604166669,88.4609375L199.68359375,88.4609375L200.75716145833334,88.4609375L201.83072916666666,88.4609375L202.904296875,88.4609375L203.97786458333331,88.4609375L205.05143229166666,88.4609375L206.125,88.4609375L207.19856770833334,88.4609375L208.27213541666666,88.4609375L209.345703125,88.4609375L210.41927083333334,88.4609375L211.49283854166666,88.4609375L212.56640625,88.4609375L213.63997395833334,88.4609375L214.71354166666669,88.4609375L215.787109375,88.4609375L216.86067708333334,88.4609375L217.93424479166666,88.4609375L219.0078125,88.4609375L220.08138020833331,88.4609375L221.15494791666666,88.4609375L222.228515625,88.4609375L223.30208333333334,88.4609375L224.37565104166666,88.4609375L225.44921875,88.4609375L226.52278645833334,88.4609375L227.59635416666666,88.4609375L228.669921875,88.4609375L229.74348958333334,88.4609375L230.81705729166669,88.4609375L231.890625,88.4609375L232.96419270833334,88.4609375L234.03776041666666,88.4609375L235.111328125,88.4609375L236.18489583333331,88.4609375" fill="none"></path></g></g></g></g><g opacity="0.2"><g><g><g><path style="fill: none;" stroke="rgb(255, 112, 67)" stroke-width="2.352941px" d="M22.544921875,88.4609375L23.618489583333332,88.4609375L24.692057291666668,88.4609375L25.765625,88.4609375L26.839192708333336,88.4609375L27.912760416666668,88.4609375L28.986328125,88.4609375L30.059895833333332,88.4609375L31.133463541666668,88.4609375L32.20703125,88.4609375L33.280598958333336,88.4609375L34.354166666666664,88.4609375L35.427734375,88.4609375L36.501302083333336,88.4609375L37.57486979166667,88.4609375L38.6484375,88.4609375L39.722005208333336,88.4609375L40.795572916666664,88.4609375L41.869140625,88.4609375L42.94270833333333,88.4609375L44.016276041666664,88.4609375L45.08984375,88.4609375L46.163411458333336,88.4609375L47.236979166666664,88.4609375L48.310546875,88.4609375L49.384114583333336,88.4609375L50.457682291666664,88.4609375L51.53125,88.4609375L52.604817708333336,88.4609375L53.67838541666667,88.4609375L54.751953125,88.4609375L55.825520833333336,88.4609375L56.899088541666664,88.4609375L57.97265625,88.4609375L59.04622395833333,88.4609375L60.119791666666664,88.4609375L61.193359375,88.4609375L62.266927083333336,88.4609375L63.340494791666664,88.4609375L64.4140625,88.4609375L65.48763020833333,88.4609375L66.56119791666667,88.4609375L67.634765625,88.4609375L68.70833333333333,88.4609375L69.78190104166666,88.4609375L70.85546875,88.4609375L71.92903645833333,88.4609375L73.00260416666667,88.4609375L74.076171875,88.4609375L75.14973958333334,88.4609375L76.22330729166667,88.4609375L77.296875,88.4609375L78.37044270833333,88.4609375L79.44401041666667,88.4609375L80.517578125,88.4609375L81.59114583333333,88.4609375L82.66471354166667,88.4609375L83.73828125,88.4609375L84.81184895833333,88.4609375L85.88541666666666,88.4609375L86.958984375,88.4609375L88.03255208333333,88.4609375L89.10611979166667,88.4609375L90.1796875,88.4609375L91.25325520833334,88.4609375L92.32682291666667,88.4609375L93.400390625,88.4609375L94.47395833333333,88.4609375L95.54752604166667,88.4609375L96.62109375,88.4609375L97.69466145833333,88.4609375L98.76822916666667,88.4609375L99.841796875,88.4609375L100.91536458333333,88.4609375L101.98893229166666,88.4609375L103.0625,88.4609375L104.13606770833333,88.4609375L105.20963541666667,88.4609375L106.283203125,88.4609375L107.35677083333334,88.4609375L108.43033854166667,88.4609375L109.50390625,88.4609375L110.57747395833333,88.4609375L111.65104166666667,88.4609375L112.724609375,88.4609375L113.79817708333333,88.4609375L114.87174479166667,88.4609375L115.9453125,88.4609375L117.01888020833333,88.4609375L118.09244791666666,88.4609375L119.166015625,88.4609375L120.23958333333333,88.4609375L121.31315104166667,88.4609375L122.38671875,88.4609375L123.46028645833334,88.4609375L124.53385416666667,88.4609375L125.607421875,88.4609375L126.68098958333333,88.4609375L127.75455729166667,88.4609375L128.828125,88.4609375L129.90169270833334,88.4609375L130.97526041666666,88.4609375L132.048828125,88.4609375L133.12239583333334,88.4609375L134.19596354166669,88.4609375L135.26953125,88.4609375L136.34309895833334,88.4609375L137.41666666666666,88.4609375L138.490234375,88.4609375L139.56380208333331,88.4609375L140.63736979166666,88.4609375L141.7109375,88.4609375L142.78450520833334,88.4609375L143.85807291666666,88.4609375L144.931640625,88.4609375L146.00520833333334,88.4609375L147.07877604166666,88.4609375L148.15234375,88.4609375L149.22591145833334,88.4609375L150.29947916666669,88.4609375L151.373046875,88.4609375L152.44661458333334,88.4609375L153.52018229166666,88.4609375L154.59375,88.4609375L155.66731770833331,88.4609375L156.74088541666666,88.4609375L157.814453125,88.4609375L158.88802083333334,88.4609375L159.96158854166666,88.4609375L161.03515625,88.4609375L162.10872395833334,88.4609375L163.18229166666666,88.4609375L164.255859375,88.4609375L165.32942708333334,88.4609375L166.40299479166669,88.4609375L167.4765625,88.4609375L168.55013020833334,88.4609375L169.62369791666666,88.4609375L170.697265625,88.4609375L171.77083333333331,88.4609375L172.84440104166666,88.4609375L173.91796875,88.4609375L174.99153645833334,88.4609375L176.06510416666666,88.4609375L177.138671875,88.4609375L178.21223958333334,88.4609375L179.28580729166666,88.4609375L180.359375,88.4609375L181.43294270833334,88.4609375L182.50651041666669,88.4609375L183.580078125,88.4609375L184.65364583333334,88.4609375L185.72721354166666,88.4609375L186.80078125,88.4609375L187.87434895833331,88.4609375L188.94791666666666,88.4609375L190.021484375,88.4609375L191.09505208333334,88.4609375L192.16861979166666,88.4609375L193.2421875,88.4609375L194.31575520833334,88.4609375L195.38932291666666,88.4609375L196.462890625,88.4609375L197.53645833333334,88.4609375L198.61002604166669,88.4609375L199.68359375,88.4609375L200.75716145833334,88.4609375L201.83072916666666,88.4609375L202.904296875,88.4609375L203.97786458333331,88.4609375L205.05143229166666,88.4609375L206.125,88.4609375L207.19856770833334,88.4609375L208.27213541666666,88.4609375L209.345703125,88.4609375L210.41927083333334,88.4609375L211.49283854166666,88.4609375L212.56640625,88.4609375L213.63997395833334,88.4609375L214.71354166666669,88.4609375L215.787109375,88.4609375L216.86067708333334,88.4609375L217.93424479166666,88.4609375L219.0078125,88.4609375L220.08138020833331,88.4609375L221.15494791666666,88.4609375L222.228515625,88.4609375L223.30208333333334,88.4609375L224.37565104166666,88.4609375L225.44921875,88.4609375L226.52278645833334,88.4609375L227.59635416666666,88.4609375L228.669921875,88.4609375L229.74348958333334,88.4609375L230.81705729166669,88.4609375L231.890625,88.4609375L232.96419270833334,88.4609375L234.03776041666666,88.4609375L235.111328125,88.4609375L236.18489583333331,88.4609375" fill="none"></path></g></g></g></g></g></g><g transform="translate(72, 176)" clip-path="url(#clip_1)"><clipPath id="clip_1"><rect width="257" height="23"></rect></clipPath><g><g><line x1="0" y1="0" x2="0" y2="5" style="visibility: inherit;" fill="rgb(0, 0, 0)" stroke="rgb(204, 204, 204)" stroke-width="1.176471px"></line><line x1="21.471354166666664" y1="0" x2="21.471354166666664" y2="5" style="visibility: inherit;" fill="rgb(0, 0, 0)" stroke="rgb(204, 204, 204)" stroke-width="1.176471px"></line><line x1="42.94270833333333" y1="0" x2="42.94270833333333" y2="5" style="visibility: inherit;" fill="rgb(0, 0, 0)" stroke="rgb(204, 204, 204)" stroke-width="1.176471px"></line><line x1="64.4140625" y1="0" x2="64.4140625" y2="5" style="visibility: inherit;" fill="rgb(0, 0, 0)" stroke="rgb(204, 204, 204)" stroke-width="1.176471px"></line><line x1="85.88541666666666" y1="0" x2="85.88541666666666" y2="5" style="visibility: inherit;" fill="rgb(0, 0, 0)" stroke="rgb(204, 204, 204)" stroke-width="1.176471px"></line><line x1="107.35677083333334" y1="0" x2="107.35677083333334" y2="5" style="visibility: inherit;" fill="rgb(0, 0, 0)" stroke="rgb(204, 204, 204)" stroke-width="1.176471px"></line><line x1="128.828125" y1="0" x2="128.828125" y2="5" style="visibility: inherit;" fill="rgb(0, 0, 0)" stroke="rgb(204, 204, 204)" stroke-width="1.176471px"></line><line x1="150.29947916666669" y1="0" x2="150.29947916666669" y2="5" style="visibility: inherit;" fill="rgb(0, 0, 0)" stroke="rgb(204, 204, 204)" stroke-width="1.176471px"></line><line x1="171.77083333333331" y1="0" x2="171.77083333333331" y2="5" style="visibility: inherit;" fill="rgb(0, 0, 0)" stroke="rgb(204, 204, 204)" stroke-width="1.176471px"></line><line x1="193.2421875" y1="0" x2="193.2421875" y2="5" style="visibility: inherit;" fill="rgb(0, 0, 0)" stroke="rgb(204, 204, 204)" stroke-width="1.176471px"></line><line x1="214.71354166666669" y1="0" x2="214.71354166666669" y2="5" style="visibility: inherit;" fill="rgb(0, 0, 0)" stroke="rgb(204, 204, 204)" stroke-width="1.176471px"></line><line x1="236.18489583333331" y1="0" x2="236.18489583333331" y2="5" style="visibility: inherit;" fill="rgb(0, 0, 0)" stroke="rgb(204, 204, 204)" stroke-width="1.176471px"></line><line x1="257.65625" y1="0" x2="257.65625" y2="5" style="visibility: inherit;" fill="rgb(0, 0, 0)" stroke="rgb(204, 204, 204)" stroke-width="1.176471px"></line></g><g transform="translate(0, 8)"><text style="text-anchor: middle; visibility: hidden; font-family: Roboto, sans-serif; font-size: 14.117646px; font-weight: 200;" x="0" y="0" dx="0em" dy="0.95em" fill="rgb(33, 33, 33)" stroke="none" stroke-width="1.176471px">-10k</text><text style="text-anchor: middle; visibility: inherit; font-family: Roboto, sans-serif; font-size: 14.117646px; font-weight: 200;" x="21.471354166666664" y="0" dx="0em" dy="0.95em" fill="rgb(33, 33, 33)" stroke="none" stroke-width="1.176471px">0</text><text style="text-anchor: middle; visibility: hidden; font-family: Roboto, sans-serif; font-size: 14.117646px; font-weight: 200;" x="42.94270833333333" y="0" dx="0em" dy="0.95em" fill="rgb(33, 33, 33)" stroke="none" stroke-width="1.176471px">10k</text><text style="text-anchor: middle; visibility: inherit; font-family: Roboto, sans-serif; font-size: 14.117646px; font-weight: 200;" x="64.4140625" y="0" dx="0em" dy="0.95em" fill="rgb(33, 33, 33)" stroke="none" stroke-width="1.176471px">20k</text><text style="text-anchor: middle; visibility: hidden; font-family: Roboto, sans-serif; font-size: 14.117646px; font-weight: 200;" x="85.88541666666666" y="0" dx="0em" dy="0.95em" fill="rgb(33, 33, 33)" stroke="none" stroke-width="1.176471px">30k</text><text style="text-anchor: middle; visibility: inherit; font-family: Roboto, sans-serif; font-size: 14.117646px; font-weight: 200;" x="107.35677083333334" y="0" dx="0em" dy="0.95em" fill="rgb(33, 33, 33)" stroke="none" stroke-width="1.176471px">40k</text><text style="text-anchor: middle; visibility: hidden; font-family: Roboto, sans-serif; font-size: 14.117646px; font-weight: 200;" x="128.828125" y="0" dx="0em" dy="0.95em" fill="rgb(33, 33, 33)" stroke="none" stroke-width="1.176471px">50k</text><text style="text-anchor: middle; visibility: inherit; font-family: Roboto, sans-serif; font-size: 14.117646px; font-weight: 200;" x="150.29947916666669" y="0" dx="0em" dy="0.95em" fill="rgb(33, 33, 33)" stroke="none" stroke-width="1.176471px">60k</text><text style="text-anchor: middle; visibility: hidden; font-family: Roboto, sans-serif; font-size: 14.117646px; font-weight: 200;" x="171.77083333333331" y="0" dx="0em" dy="0.95em" fill="rgb(33, 33, 33)" stroke="none" stroke-width="1.176471px">70k</text><text style="text-anchor: middle; visibility: inherit; font-family: Roboto, sans-serif; font-size: 14.117646px; font-weight: 200;" x="193.2421875" y="0" dx="0em" dy="0.95em" fill="rgb(33, 33, 33)" stroke="none" stroke-width="1.176471px">80k</text><text style="text-anchor: middle; visibility: hidden; font-family: Roboto, sans-serif; font-size: 14.117646px; font-weight: 200;" x="214.71354166666669" y="0" dx="0em" dy="0.95em" fill="rgb(33, 33, 33)" stroke="none" stroke-width="1.176471px">90k</text><text style="text-anchor: middle; visibility: inherit; font-family: Roboto, sans-serif; font-size: 14.117646px; font-weight: 200;" x="236.18489583333331" y="0" dx="0em" dy="0.95em" fill="rgb(33, 33, 33)" stroke="none" stroke-width="1.176471px">100k</text><text style="text-anchor: middle; visibility: hidden; font-family: Roboto, sans-serif; font-size: 14.117646px; font-weight: 200;" x="257.65625" y="0" dx="0em" dy="0.95em" fill="rgb(33, 33, 33)" stroke="none" stroke-width="1.176471px">110k</text></g><line x1="0" y1="0" x2="257.65625" y2="0" fill="rgb(0, 0, 0)" stroke="rgb(204, 204, 204)" stroke-width="1.176471px"></line></g></g></g></g></svg>