<svg viewBox="0 0 329.9999694824219 199.99998474121094" xmlns="http://www.w3.org/2000/svg"><g><g><g><g><g><line x1="30.78125" y1="176.921875" x2="25.78125" y2="176.921875" style="visibility: inherit;" fill="rgb(0, 0, 0)" stroke="rgb(204, 204, 204)" stroke-width="1.176471px"></line><line x1="30.78125" y1="160.8380681818182" x2="25.78125" y2="160.8380681818182" style="visibility: inherit;" fill="rgb(0, 0, 0)" stroke="rgb(204, 204, 204)" stroke-width="1.176471px"></line><line x1="30.78125" y1="144.75426136363635" x2="25.78125" y2="144.75426136363635" style="visibility: inherit;" fill="rgb(0, 0, 0)" stroke="rgb(204, 204, 204)" stroke-width="1.176471px"></line><line x1="30.78125" y1="128.67045454545456" x2="25.78125" y2="128.67045454545456" style="visibility: inherit;" fill="rgb(0, 0, 0)" stroke="rgb(204, 204, 204)" stroke-width="1.176471px"></line><line x1="30.78125" y1="112.58664772727272" x2="25.78125" y2="112.58664772727272" style="visibility: inherit;" fill="rgb(0, 0, 0)" stroke="rgb(204, 204, 204)" stroke-width="1.176471px"></line><line x1="30.78125" y1="96.5028409090909" x2="25.78125" y2="96.5028409090909" style="visibility: inherit;" fill="rgb(0, 0, 0)" stroke="rgb(204, 204, 204)" stroke-width="1.176471px"></line><line x1="30.78125" y1="80.4190340909091" x2="25.78125" y2="80.4190340909091" style="visibility: inherit;" fill="rgb(0, 0, 0)" stroke="rgb(204, 204, 204)" stroke-width="1.176471px"></line><line x1="30.78125" y1="64.33522727272728" x2="25.78125" y2="64.33522727272728" style="visibility: inherit;" fill="rgb(0, 0, 0)" stroke="rgb(204, 204, 204)" stroke-width="1.176471px"></line><line x1="30.78125" y1="48.25142045454545" x2="25.78125" y2="48.25142045454545" style="visibility: inherit;" fill="rgb(0, 0, 0)" stroke="rgb(204, 204, 204)" stroke-width="1.176471px"></line><line x1="30.78125" y1="32.167613636363626" x2="25.78125" y2="32.167613636363626" style="visibility: inherit;" fill="rgb(0, 0, 0)" stroke="rgb(204, 204, 204)" stroke-width="1.176471px"></line><line x1="30.78125" y1="16.083806818181824" x2="25.78125" y2="16.083806818181824" style="visibility: inherit;" fill="rgb(0, 0, 0)" stroke="rgb(204, 204, 204)" stroke-width="1.176471px"></line><line x1="30.78125" y1="0" x2="25.78125" y2="0" style="visibility: inherit;" fill="rgb(0, 0, 0)" stroke="rgb(204, 204, 204)" stroke-width="1.176471px"></line></g><g transform="translate(20.78125, 0)"><text style="text-anchor: end; visibility: hidden; font-family: Roboto, sans-serif; font-size: 14.117646px; font-weight: 200;" x="0" y="176.921875" dx="0em" dy="0.3em" fill="rgb(33, 33, 33)" stroke="none" stroke-width="1.176471px">-7</text><text style="text-anchor: end; visibility: inherit; font-family: Roboto, sans-serif; font-size: 14.117646px; font-weight: 200;" x="0" y="160.8380681818182" dx="0em" dy="0.3em" fill="rgb(33, 33, 33)" stroke="none" stroke-width="1.176471px">-6</text><text style="text-anchor: end; visibility: hidden; font-family: Roboto, sans-serif; font-size: 14.117646px; font-weight: 200;" x="0" y="144.75426136363635" dx="0em" dy="0.3em" fill="rgb(33, 33, 33)" stroke="none" stroke-width="1.176471px">-5</text><text style="text-anchor: end; visibility: inherit; font-family: Roboto, sans-serif; font-size: 14.117646px; font-weight: 200;" x="0" y="128.67045454545456" dx="0em" dy="0.3em" fill="rgb(33, 33, 33)" stroke="none" stroke-width="1.176471px">-4</text><text style="text-anchor: end; visibility: hidden; font-family: Roboto, sans-serif; font-size: 14.117646px; font-weight: 200;" x="0" y="112.58664772727272" dx="0em" dy="0.3em" fill="rgb(33, 33, 33)" stroke="none" stroke-width="1.176471px">-3</text><text style="text-anchor: end; visibility: inherit; font-family: Roboto, sans-serif; font-size: 14.117646px; font-weight: 200;" x="0" y="96.5028409090909" dx="0em" dy="0.3em" fill="rgb(33, 33, 33)" stroke="none" stroke-width="1.176471px">-2</text><text style="text-anchor: end; visibility: hidden; font-family: Roboto, sans-serif; font-size: 14.117646px; font-weight: 200;" x="0" y="80.4190340909091" dx="0em" dy="0.3em" fill="rgb(33, 33, 33)" stroke="none" stroke-width="1.176471px">-1</text><text style="text-anchor: end; visibility: inherit; font-family: Roboto, sans-serif; font-size: 14.117646px; font-weight: 200;" x="0" y="64.33522727272728" dx="0em" dy="0.3em" fill="rgb(33, 33, 33)" stroke="none" stroke-width="1.176471px">0</text><text style="text-anchor: end; visibility: hidden; font-family: Roboto, sans-serif; font-size: 14.117646px; font-weight: 200;" x="0" y="48.25142045454545" dx="0em" dy="0.3em" fill="rgb(33, 33, 33)" stroke="none" stroke-width="1.176471px">1</text><text style="text-anchor: end; visibility: inherit; font-family: Roboto, sans-serif; font-size: 14.117646px; font-weight: 200;" x="0" y="32.167613636363626" dx="0em" dy="0.3em" fill="rgb(33, 33, 33)" stroke="none" stroke-width="1.176471px">2</text><text style="text-anchor: end; visibility: hidden; font-family: Roboto, sans-serif; font-size: 14.117646px; font-weight: 200;" x="0" y="16.083806818181824" dx="0em" dy="0.3em" fill="rgb(33, 33, 33)" stroke="none" stroke-width="1.176471px">3</text><text style="text-anchor: end; visibility: hidden; font-family: Roboto, sans-serif; font-size: 14.117646px; font-weight: 200;" x="0" y="0" dx="0em" dy="0.3em" fill="rgb(33, 33, 33)" stroke="none" stroke-width="1.176471px">4</text></g><line x1="30.78125" y1="0" x2="30.78125" y2="176.921875" fill="rgb(0, 0, 0)" stroke="rgb(204, 204, 204)" stroke-width="1.176471px"></line></g></g><g transform="translate(30, 0)" clip-path="url(#clip_0)"><clipPath id="clip_0"><rect width="299" height="176"></rect></clipPath><g><g><g><line x1="0" y1="0" x2="0" y2="176.921875" fill="rgb(0, 0, 0)" stroke="rgb(66, 66, 66)" stroke-width="1.176471px" opacity="0.25"></line><line x1="24.934895833333332" y1="0" x2="24.934895833333332" y2="176.921875" fill="rgb(0, 0, 0)" stroke="rgb(66, 66, 66)" stroke-width="1.176471px" opacity="0.25"></line><line x1="49.869791666666664" y1="0" x2="49.869791666666664" y2="176.921875" fill="rgb(0, 0, 0)" stroke="rgb(66, 66, 66)" stroke-width="1.176471px" opacity="0.25"></line><line x1="74.8046875" y1="0" x2="74.8046875" y2="176.921875" fill="rgb(0, 0, 0)" stroke="rgb(66, 66, 66)" stroke-width="1.176471px" opacity="0.25"></line><line x1="99.73958333333333" y1="0" x2="99.73958333333333" y2="176.921875" fill="rgb(0, 0, 0)" stroke="rgb(66, 66, 66)" stroke-width="1.176471px" opacity="0.25"></line><line x1="124.67447916666667" y1="0" x2="124.67447916666667" y2="176.921875" fill="rgb(0, 0, 0)" stroke="rgb(66, 66, 66)" stroke-width="1.176471px" opacity="0.25"></line><line x1="149.609375" y1="0" x2="149.609375" y2="176.921875" fill="rgb(0, 0, 0)" stroke="rgb(66, 66, 66)" stroke-width="1.176471px" opacity="0.25"></line><line x1="174.54427083333334" y1="0" x2="174.54427083333334" y2="176.921875" fill="rgb(0, 0, 0)" stroke="rgb(66, 66, 66)" stroke-width="1.176471px" opacity="0.25"></line><line x1="199.47916666666666" y1="0" x2="199.47916666666666" y2="176.921875" fill="rgb(0, 0, 0)" stroke="rgb(66, 66, 66)" stroke-width="1.176471px" opacity="0.25"></line><line x1="224.4140625" y1="0" x2="224.4140625" y2="176.921875" fill="rgb(0, 0, 0)" stroke="rgb(66, 66, 66)" stroke-width="1.176471px" opacity="0.25"></line><line x1="249.34895833333334" y1="0" x2="249.34895833333334" y2="176.921875" fill="rgb(0, 0, 0)" stroke="rgb(66, 66, 66)" stroke-width="1.176471px" opacity="0.25"></line><line x1="274.28385416666663" y1="0" x2="274.28385416666663" y2="176.921875" fill="rgb(0, 0, 0)" stroke="rgb(66, 66, 66)" stroke-width="1.176471px" opacity="0.25"></line><line x1="299.21875" y1="0" x2="299.21875" y2="176.921875" fill="rgb(0, 0, 0)" stroke="rgb(66, 66, 66)" stroke-width="1.176471px" opacity="0.25"></line></g><g><line x1="0" y1="176.921875" x2="299.21875" y2="176.921875" fill="rgb(0, 0, 0)" stroke="rgb(66, 66, 66)" stroke-width="1.176471px" opacity="0.25"></line><line x1="0" y1="160.8380681818182" x2="299.21875" y2="160.8380681818182" fill="rgb(0, 0, 0)" stroke="rgb(66, 66, 66)" stroke-width="1.176471px" opacity="0.25"></line><line x1="0" y1="144.75426136363635" x2="299.21875" y2="144.75426136363635" fill="rgb(0, 0, 0)" stroke="rgb(66, 66, 66)" stroke-width="1.176471px" opacity="0.25"></line><line x1="0" y1="128.67045454545456" x2="299.21875" y2="128.67045454545456" fill="rgb(0, 0, 0)" stroke="rgb(66, 66, 66)" stroke-width="1.176471px" opacity="0.25"></line><line x1="0" y1="112.58664772727272" x2="299.21875" y2="112.58664772727272" fill="rgb(0, 0, 0)" stroke="rgb(66, 66, 66)" stroke-width="1.176471px" opacity="0.25"></line><line x1="0" y1="96.5028409090909" x2="299.21875" y2="96.5028409090909" fill="rgb(0, 0, 0)" stroke="rgb(66, 66, 66)" stroke-width="1.176471px" opacity="0.25"></line><line x1="0" y1="80.4190340909091" x2="299.21875" y2="80.4190340909091" fill="rgb(0, 0, 0)" stroke="rgb(66, 66, 66)" stroke-width="1.176471px" opacity="0.25"></line><line x1="0" y1="64.33522727272728" x2="299.21875" y2="64.33522727272728" fill="rgb(0, 0, 0)" stroke="rgb(66, 66, 66)" stroke-width="1.176471px" opacity="0.25"></line><line x1="0" y1="48.25142045454545" x2="299.21875" y2="48.25142045454545" fill="rgb(0, 0, 0)" stroke="rgb(66, 66, 66)" stroke-width="1.176471px" opacity="0.25"></line><line x1="0" y1="32.167613636363626" x2="299.21875" y2="32.167613636363626" fill="rgb(0, 0, 0)" stroke="rgb(66, 66, 66)" stroke-width="1.176471px" opacity="0.25"></line><line x1="0" y1="16.083806818181824" x2="299.21875" y2="16.083806818181824" fill="rgb(0, 0, 0)" stroke="rgb(66, 66, 66)" stroke-width="1.176471px" opacity="0.25"></line><line x1="0" y1="0" x2="299.21875" y2="0" fill="rgb(0, 0, 0)" stroke="rgb(66, 66, 66)" stroke-width="1.176471px" opacity="0.25"></line></g></g></g><g><g><line x1="0" y1="64.33522727272728" x2="299.21875" y2="64.33522727272728" fill="rgb(0, 0, 0)" stroke="rgb(153, 153, 153)" stroke-width="1.764706px"></line></g></g><g><g><line x1="24.934895833333332" y1="0" x2="24.934895833333332" y2="176.921875" fill="rgb(0, 0, 0)" stroke="rgb(153, 153, 153)" stroke-width="1.764706px"></line></g></g><g><g><g><g><g><path style="fill: none;" stroke="rgb(255, 112, 67)" stroke-width="2.352941px" d="M27.428385416666664,232.6945243174718L28.675130208333336,150.22447425240549L29.921875,187.16228938224333L31.168619791666668,134.5819776488289L32.415364583333336,105.15038619769976L33.662109375,118.7214222369681L34.908854166666664,163.53944747865643L36.155598958333336,127.50782360641068L37.40234375,85.53780138172193L38.64908854166667,67.87044076609858L39.895833333333336,107.26523084704044L41.142578125,121.27561546261704L42.389322916666664,83.76099981946386L43.636067708333336,112.7473120721508L44.8828125,68.1224494414251L46.12955729166667,66.62285025116215L47.37630208333333,94.26108303569383L48.623046875,69.86711739340468L49.869791666666664,72.96412593313421L51.116536458333336,53.97385213577077L52.36328125,-31.54346734176927L53.610026041666664,51.617834985859716L54.85677083333333,61.04463564375354L56.103515625,35.335274516205516L57.35026041666667,236.96854054776142L58.597005208333336,163.75489697576342L59.84375,133.94918154459162L61.090494791666664,78.91392143367719L62.337239583333336,86.91403684562461L63.583984375,118.75508698821855L64.83072916666667,107.21648725014303L66.07747395833333,39.46567198550142L67.32421875,46.56641165706948L68.57096354166666,41.58269994861311L69.81770833333333,17.067815662961014L71.064453125,-12.308250350200483L72.31119791666667,8.397754671738259L73.55794270833333,18.812124214737L74.8046875,34.718571691452574L76.05143229166666,-16.16983425818296L77.29817708333334,8.911872908567142L78.544921875,35.672217765207364L79.79166666666667,68.03160079025501L81.03841145833333,67.76459366342077L82.28515625,66.47650349167267L83.53190104166667,65.68289197508349L84.77864583333333,65.54715924257017L86.025390625,63.441599437862045L87.27213541666667,80.88285867948777L88.51888020833333,72.07027844135466L89.765625,58.45647513475819L91.01236979166666,61.704656184692105L92.25911458333334,21.510887756672297L93.505859375,28.41050619243626L94.75260416666666,62.99444761627021L95.99934895833334,101.55535961920579L97.24609375,91.22144778764522L98.49283854166667,90.97088602573167L99.73958333333333,103.47131089381008L100.986328125,90.79849172986486L102.23307291666667,78.94608147805778L103.47981770833333,77.6483737531165L104.7265625,71.1438861814931L105.97330729166667,56.97092430933354L107.22005208333333,80.97878055590635L108.466796875,96.24973127462687L109.71354166666666,109.42679887977538L110.96028645833334,129.9164168659342L112.20703125,111.37151095329855L113.45377604166666,88.09017851943345L114.70052083333334,90.89706999283774L115.947265625,90.17369486266331L117.19401041666667,94.27254644963605L118.44075520833333,97.82754925517499L119.6875,84.43697740475444L120.93424479166667,118.57632517204566L122.18098958333333,73.68752576275018L123.427734375,19.410650198566277L124.67447916666667,22.2525951046283L125.92122395833333,40.883059507311124L127.16796875,72.23517648511084L128.41471354166666,49.32729344636879L129.66145833333334,97.45212031482433L130.908203125,84.75498567908457L132.15494791666666,458.90682256210073L134.6484375,215.33331982907097L135.89518229166666,156.42653713487067L137.14192708333331,109.7804618685691L138.388671875,91.60359032740884L139.63541666666666,73.27372661582318L140.88216145833334,68.14450494605191L142.12890625,65.787911513593L143.37565104166669,165.50413898774752L144.62239583333334,116.59876182533745L145.869140625,101.30990515967358L147.11588541666666,88.65095748817873L148.36263020833334,85.71270107666226L149.609375,77.48751910681885L150.85611979166666,63.932357187140525L152.10286458333331,83.00167229965349L153.349609375,8.694024344544657L154.59635416666669,32.0880896964735L155.84309895833334,47.50287049362121L157.08984375,55.158837927994185L158.33658854166666,46.900967037124396L159.58333333333334,47.97552233872755L160.830078125,54.13879496460325L162.07682291666666,69.57941175470667L163.32356770833331,52.28382467582501L164.5703125,29.44638758431861L165.81705729166669,38.20038855900325L167.06380208333334,48.27342326121269L168.310546875,54.69846688656226L169.55729166666666,50.23325038250488L170.80403645833331,77.46031537787927L172.05078125,55.12171549323199L173.29752604166669,56.71921644448717L174.54427083333334,48.52039731767193L175.791015625,65.10301025434818L177.03776041666666,65.50028505679677L178.28450520833334,59.798033173422276L179.53125,58.14379041650445L180.77799479166666,67.93988342080284L182.02473958333331,66.26726566765933L183.271484375,60.52335848820156L184.51822916666669,67.89292277072312L185.76497395833334,69.62576857111677L187.01171875,74.92716522090547L188.25846354166666,60.841030157114716L189.50520833333331,62.24154214500034L190.751953125,62.047522035434206L191.99869791666669,54.421016054079644L193.24544270833334,55.406130248236124L194.4921875,6.609358146147383L195.73893229166666,29.640805466587473L196.98567708333334,48.29033866201702L198.232421875,80.21607456907549L199.47916666666666,69.53153920849839L200.72591145833331,65.97245249800888L201.97265625,72.34289718320862L203.21940104166669,78.32013206138386L204.46614583333334,62.20703383358821L205.712890625,93.88948728268664L206.95963541666666,97.6057527747363L208.20638020833331,68.65386940174596L209.453125,71.39926921286572L210.69986979166669,83.02846794388091L211.94661458333334,91.62861906299555L213.193359375,93.21845774868953L214.44010416666666,103.04137151496961L215.68684895833334,100.75312176001661L216.93359375,87.74886660774344L218.18033854166666,72.27232554317753L219.42708333333331,70.05428086104305L220.673828125,67.74061582411171L221.92057291666669,62.050574140005885L223.16731770833334,60.37138293216389L224.4140625,86.20989006585825L225.66080729166666,71.54971724191655L226.90755208333331,80.63463134749794L228.154296875,207.58486906345578L229.40104166666669,133.43217765483791L230.64778645833334,121.28206530518364L231.89453125,98.50333009220108L233.14127604166666,86.60172021941104L234.38802083333334,92.27131378751633L235.634765625,76.31940602294044L236.88151041666666,91.74842474411608L238.12825520833331,80.79239256341558L239.375,70.54149936620611L240.62174479166669,52.160387938714244L241.86848958333334,57.023773297199824L243.115234375,80.88382131889851L244.36197916666666,77.7425474190654L245.60872395833331,54.950259182010754L246.85546875,55.21449698590834L248.10221354166669,79.27851549707738L249.34895833333334,68.33691954156987L250.595703125,63.01889315299205L251.84244791666666,81.58214941516364L253.08919270833334,76.77559641455699L254.3359375,75.83602716018854L255.58268229166666,120.17488489443123L256.8294270833333,105.00604338515058L258.076171875,117.6369728485296L259.3229166666667,95.97675162029223L260.5696614583333,76.16238415786707L261.81640625,65.38955231615896L263.0631510416667,60.64209879383388L264.3098958333333,61.511670717599024L265.556640625,65.67323449672067L266.8033854166667,68.4572041920661L268.05013020833337,67.103133669932L269.296875,63.33965259253072L270.5436197916667,63.78495791695111L271.7903645833333,84.51251449452613L273.037109375,76.80781196516523L274.28385416666663,54.628844489877594" fill="none"></path></g></g></g></g><g opacity="0.2"><g><g><g><path style="fill: none;" stroke="rgb(255, 112, 67)" stroke-width="2.352941px" d="M26.181640625,391.49581267075104L27.428385416666664,137.41375130550426L28.675130208333336,71.05322618994185L29.921875,230.60115997493267L31.168619791666668,65.93312264968301L32.415364583333336,64.43589984786574L33.662109375,138.12822090969843L34.908854166666664,228.88455853408033L36.155598958333336,74.36817717746916L37.40234375,23.217209732329298L38.64908854166667,41.52964150312948L39.895833333333336,166.1430312605067L41.142578125,142.24544604935429L42.389322916666664,27.562571392140605L43.636067708333336,156.19270812923259L44.8828125,1.216628405858161L46.12955729166667,64.37408604588761L47.37630208333333,135.7114148681814L48.623046875,33.27988510511138L49.869791666666664,77.6093556638807L51.116536458333336,25.489482911472965L52.36328125,-159.8166325742548L53.610026041666664,176.35814660245723L54.85677083333333,75.18472496115348L56.103515625,-3.2285844439809828L57.35026041666667,539.4175797213207L58.597005208333336,53.93461895141411L59.84375,89.24065415662798L61.090494791666664,-3.6389180374416368L62.337239583333336,98.91420554200359L63.583984375,166.5166516432708L64.83072916666667,89.90858993882485L66.07747395833333,-62.16054282337427L67.32421875,57.217520655810155L68.57096354166666,34.107132600112394L69.81770833333333,-19.704510133374832L71.064453125,-56.3723489154469L72.31119791666667,39.45676201243293L73.55794270833333,34.43367847122929L74.8046875,58.57824285336856L76.05143229166666,-92.50244308059864L77.29817708333334,46.53443362851713L78.544921875,75.8127350308509L79.79166666666667,116.5706753138114L81.03841145833333,67.36408297323877L82.28515625,64.54436823425138L83.53190104166667,64.49247470027396L84.77864583333333,65.34356014380782L86.025390625,60.28325973087076L87.27213541666667,107.04474754157391L88.51888020833333,58.851408084261834L89.765625,38.03577017496254L91.01236979166666,66.57692775957878L92.25911458333334,-38.779764885252185L93.505859375,38.75993384607136L94.75260416666666,114.87035975198854L95.99934895833334,159.3967276235873L97.24609375,75.7205800403079L98.49283854166667,90.5950433828614L99.73958333333333,122.22194819592616L100.986328125,71.78926298394799L102.23307291666667,61.16746610034765L103.47981770833333,75.70181216570464L104.7265625,61.3871548240581L105.97330729166667,35.71148150109432L107.22005208333333,116.99056492576547L108.466796875,119.1561573527076L109.71354166666666,129.19240028749815L110.96028645833334,160.65084384517235L112.20703125,83.55415208434518L113.45377604166666,53.1681798686358L114.70052083333334,95.10740720294416L115.947265625,89.08863216740164L117.19401041666667,100.4208238300952L118.44075520833333,103.16005346348338L119.6875,64.35111962912363L120.93424479166667,169.7853468229825L122.18098958333333,6.354326648806978L123.427734375,-62.00466314770961L124.67447916666667,26.515512463721368L125.92122395833333,68.82875611133534L127.16796875,119.26335195181045L128.41471354166666,14.96546888825569L129.66145833333334,169.63936061750758L130.908203125,65.70928372547496L132.15494791666666,1020.1345778866247L133.40169270833334,61.18835311408409L134.6484375,88.60414739833637L135.89518229166666,68.0663630935702L137.14192708333331,39.81134896911681L138.388671875,64.33828301566837L139.63541666666666,45.778931048444726L140.88216145833334,60.450672441395L142.12890625,62.25302136490461L143.37565104166669,315.0784801989794L144.62239583333334,43.24069608172233L145.869140625,78.37662016117777L147.11588541666666,69.66253598093647L148.36263020833334,81.30531645938754L149.609375,65.14974615205377L150.85611979166666,43.59961430762303L152.10286458333331,111.60564496842298L153.349609375,-102.76744758811864L154.59635416666669,67.17918772436678L155.84309895833334,70.62504168934274L157.08984375,66.6427890795537L158.33658854166666,34.51416070081971L159.58333333333334,49.58735529113221L160.830078125,63.38370390341681L162.07682291666666,92.74033693986185L163.32356770833331,26.34044405750253L164.5703125,-4.809768052941033L165.81705729166669,51.33139002103019L167.06380208333334,63.38297531452686L168.310546875,64.33603232458663L169.55729166666666,43.53542562641881L170.80403645833331,118.30091287094083L172.05078125,21.61381566626105L173.29752604166669,59.115467871369965L174.54427083333334,36.22216862744906L175.791015625,89.97692965936254L177.03776041666666,66.09619726046962L178.28450520833334,51.24465534836054L179.53125,55.66242628112775L180.77799479166666,82.63402292725038L182.02473958333331,63.7583390379441L183.271484375,51.90749771901492L184.51822916666669,78.94726919450542L185.76497395833334,72.22503727170724L187.01171875,82.87926019558851L188.25846354166666,39.7118275614286L189.50520833333331,64.34231012682878L190.751953125,61.75649187108502L191.99869791666669,42.9812570820478L193.24544270833334,56.883801539470866L194.4921875,-66.58580000698566L195.73893229166666,64.18797644724756L196.98567708333334,76.26463845516132L198.232421875,128.10467842966318L199.47916666666666,53.50473616763272L200.72591145833331,60.63382243227468L201.97265625,81.89856421100822L203.21940104166669,87.28598437864673L204.46614583333334,38.03738649189472L205.712890625,141.4131674563343L206.95963541666666,103.1801510128108L208.20638020833331,25.22604434226048L209.453125,75.51736892954531L210.69986979166669,100.47226604040374L211.94661458333334,104.52884574166754L213.193359375,95.60321577723053L214.44010416666666,117.77574216438965L215.68684895833334,97.32074712758713L216.93359375,68.24248387933369L218.18033854166666,49.05751394632864L219.42708333333331,66.72721383784135L220.673828125,64.27011826871471L221.92057291666669,53.51551161384718L223.16731770833334,57.85259612040086L224.4140625,124.96765076639977L225.66080729166666,49.55945800600404L226.90755208333331,94.26200250587003L228.154296875,398.0102256373926L229.40104166666669,22.203140541911125L230.64778645833334,103.0568967807022L231.89453125,64.33522727272728L233.14127604166666,68.74930541022596L234.38802083333334,100.77570413967423L235.634765625,52.391544376076624L236.88151041666666,114.89195282587953L238.12825520833331,64.3583442923649L239.375,55.16515957039189L240.62174479166669,24.588720797476437L241.86848958333334,64.3188513349282L243.115234375,116.6738933514465L244.36197916666666,73.03063656931575L245.60872395833331,20.76182682642882L246.85546875,55.61085369175469L248.10221354166669,115.37454326383093L249.34895833333334,51.92452560830861L250.595703125,55.04185357012532L251.84244791666666,109.427033808421L253.08919270833334,69.56576691364701L254.3359375,74.42667327863587L255.58268229166666,186.68317149579525L256.8294270833333,82.25278112122957L258.076171875,136.58336704359812L259.3229166666667,63.48641977793623L260.5696614583333,46.44083296422932L261.81640625,49.23030455359681L263.0631510416667,53.52091851034625L264.3098958333333,62.816028603246764L265.556640625,71.91558016540314L266.8033854166667,72.63315873508427L268.05013020833337,65.07202788673087L269.296875,57.69443097642877L270.5436197916667,64.45291590358167L271.7903645833333,115.60384936088867L273.037109375,65.25075817112388L274.28385416666663,21.360393276946116" fill="none"></path></g></g></g></g></g></g><g transform="translate(30, 176)" clip-path="url(#clip_1)"><clipPath id="clip_1"><rect width="299" height="23"></rect></clipPath><g><g><line x1="0" y1="0" x2="0" y2="5" style="visibility: inherit;" fill="rgb(0, 0, 0)" stroke="rgb(204, 204, 204)" stroke-width="1.176471px"></line><line x1="24.934895833333332" y1="0" x2="24.934895833333332" y2="5" style="visibility: inherit;" fill="rgb(0, 0, 0)" stroke="rgb(204, 204, 204)" stroke-width="1.176471px"></line><line x1="49.869791666666664" y1="0" x2="49.869791666666664" y2="5" style="visibility: inherit;" fill="rgb(0, 0, 0)" stroke="rgb(204, 204, 204)" stroke-width="1.176471px"></line><line x1="74.8046875" y1="0" x2="74.8046875" y2="5" style="visibility: inherit;" fill="rgb(0, 0, 0)" stroke="rgb(204, 204, 204)" stroke-width="1.176471px"></line><line x1="99.73958333333333" y1="0" x2="99.73958333333333" y2="5" style="visibility: inherit;" fill="rgb(0, 0, 0)" stroke="rgb(204, 204, 204)" stroke-width="1.176471px"></line><line x1="124.67447916666667" y1="0" x2="124.67447916666667" y2="5" style="visibility: inherit;" fill="rgb(0, 0, 0)" stroke="rgb(204, 204, 204)" stroke-width="1.176471px"></line><line x1="149.609375" y1="0" x2="149.609375" y2="5" style="visibility: inherit;" fill="rgb(0, 0, 0)" stroke="rgb(204, 204, 204)" stroke-width="1.176471px"></line><line x1="174.54427083333334" y1="0" x2="174.54427083333334" y2="5" style="visibility: inherit;" fill="rgb(0, 0, 0)" stroke="rgb(204, 204, 204)" stroke-width="1.176471px"></line><line x1="199.47916666666666" y1="0" x2="199.47916666666666" y2="5" style="visibility: inherit;" fill="rgb(0, 0, 0)" stroke="rgb(204, 204, 204)" stroke-width="1.176471px"></line><line x1="224.4140625" y1="0" x2="224.4140625" y2="5" style="visibility: inherit;" fill="rgb(0, 0, 0)" stroke="rgb(204, 204, 204)" stroke-width="1.176471px"></line><line x1="249.34895833333334" y1="0" x2="249.34895833333334" y2="5" style="visibility: inherit;" fill="rgb(0, 0, 0)" stroke="rgb(204, 204, 204)" stroke-width="1.176471px"></line><line x1="274.28385416666663" y1="0" x2="274.28385416666663" y2="5" style="visibility: inherit;" fill="rgb(0, 0, 0)" stroke="rgb(204, 204, 204)" stroke-width="1.176471px"></line><line x1="299.21875" y1="0" x2="299.21875" y2="5" style="visibility: inherit;" fill="rgb(0, 0, 0)" stroke="rgb(204, 204, 204)" stroke-width="1.176471px"></line></g><g transform="translate(0, 8)"><text style="text-anchor: middle; visibility: hidden; font-family: Roboto, sans-serif; font-size: 14.117646px; font-weight: 200;" x="0" y="0" dx="0em" dy="0.95em" fill="rgb(33, 33, 33)" stroke="none" stroke-width="1.176471px">-10k</text><text style="text-anchor: middle; visibility: inherit; font-family: Roboto, sans-serif; font-size: 14.117646px; font-weight: 200;" x="24.934895833333332" y="0" dx="0em" dy="0.95em" fill="rgb(33, 33, 33)" stroke="none" stroke-width="1.176471px">0</text><text style="text-anchor: middle; visibility: hidden; font-family: Roboto, sans-serif; font-size: 14.117646px; font-weight: 200;" x="49.869791666666664" y="0" dx="0em" dy="0.95em" fill="rgb(33, 33, 33)" stroke="none" stroke-width="1.176471px">10k</text><text style="text-anchor: middle; visibility: inherit; font-family: Roboto, sans-serif; font-size: 14.117646px; font-weight: 200;" x="74.8046875" y="0" dx="0em" dy="0.95em" fill="rgb(33, 33, 33)" stroke="none" stroke-width="1.176471px">20k</text><text style="text-anchor: middle; visibility: hidden; font-family: Roboto, sans-serif; font-size: 14.117646px; font-weight: 200;" x="99.73958333333333" y="0" dx="0em" dy="0.95em" fill="rgb(33, 33, 33)" stroke="none" stroke-width="1.176471px">30k</text><text style="text-anchor: middle; visibility: inherit; font-family: Roboto, sans-serif; font-size: 14.117646px; font-weight: 200;" x="124.67447916666667" y="0" dx="0em" dy="0.95em" fill="rgb(33, 33, 33)" stroke="none" stroke-width="1.176471px">40k</text><text style="text-anchor: middle; visibility: hidden; font-family: Roboto, sans-serif; font-size: 14.117646px; font-weight: 200;" x="149.609375" y="0" dx="0em" dy="0.95em" fill="rgb(33, 33, 33)" stroke="none" stroke-width="1.176471px">50k</text><text style="text-anchor: middle; visibility: inherit; font-family: Roboto, sans-serif; font-size: 14.117646px; font-weight: 200;" x="174.54427083333334" y="0" dx="0em" dy="0.95em" fill="rgb(33, 33, 33)" stroke="none" stroke-width="1.176471px">60k</text><text style="text-anchor: middle; visibility: hidden; font-family: Roboto, sans-serif; font-size: 14.117646px; font-weight: 200;" x="199.47916666666666" y="0" dx="0em" dy="0.95em" fill="rgb(33, 33, 33)" stroke="none" stroke-width="1.176471px">70k</text><text style="text-anchor: middle; visibility: inherit; font-family: Roboto, sans-serif; font-size: 14.117646px; font-weight: 200;" x="224.4140625" y="0" dx="0em" dy="0.95em" fill="rgb(33, 33, 33)" stroke="none" stroke-width="1.176471px">80k</text><text style="text-anchor: middle; visibility: hidden; font-family: Roboto, sans-serif; font-size: 14.117646px; font-weight: 200;" x="249.34895833333334" y="0" dx="0em" dy="0.95em" fill="rgb(33, 33, 33)" stroke="none" stroke-width="1.176471px">90k</text><text style="text-anchor: middle; visibility: inherit; font-family: Roboto, sans-serif; font-size: 14.117646px; font-weight: 200;" x="274.28385416666663" y="0" dx="0em" dy="0.95em" fill="rgb(33, 33, 33)" stroke="none" stroke-width="1.176471px">100k</text><text style="text-anchor: middle; visibility: hidden; font-family: Roboto, sans-serif; font-size: 14.117646px; font-weight: 200;" x="299.21875" y="0" dx="0em" dy="0.95em" fill="rgb(33, 33, 33)" stroke="none" stroke-width="1.176471px">110k</text></g><line x1="0" y1="0" x2="299.21875" y2="0" fill="rgb(0, 0, 0)" stroke="rgb(204, 204, 204)" stroke-width="1.176471px"></line></g></g></g></g></svg>