<svg viewBox="0 0 329.9999694824219 199.99998474121094" xmlns="http://www.w3.org/2000/svg"><g><g><g><g><g><line x1="51.5625" y1="176.921875" x2="46.5625" y2="176.921875" style="visibility: inherit;" fill="rgb(0, 0, 0)" stroke="rgb(204, 204, 204)" stroke-width="1.176471px"></line><line x1="51.5625" y1="154.806640625" x2="46.5625" y2="154.806640625" style="visibility: inherit;" fill="rgb(0, 0, 0)" stroke="rgb(204, 204, 204)" stroke-width="1.176471px"></line><line x1="51.5625" y1="132.69140625" x2="46.5625" y2="132.69140625" style="visibility: inherit;" fill="rgb(0, 0, 0)" stroke="rgb(204, 204, 204)" stroke-width="1.176471px"></line><line x1="51.5625" y1="110.576171875" x2="46.5625" y2="110.576171875" style="visibility: inherit;" fill="rgb(0, 0, 0)" stroke="rgb(204, 204, 204)" stroke-width="1.176471px"></line><line x1="51.5625" y1="88.4609375" x2="46.5625" y2="88.4609375" style="visibility: inherit;" fill="rgb(0, 0, 0)" stroke="rgb(204, 204, 204)" stroke-width="1.176471px"></line><line x1="51.5625" y1="66.345703125" x2="46.5625" y2="66.345703125" style="visibility: inherit;" fill="rgb(0, 0, 0)" stroke="rgb(204, 204, 204)" stroke-width="1.176471px"></line><line x1="51.5625" y1="44.23046875000002" x2="46.5625" y2="44.23046875000002" style="visibility: inherit;" fill="rgb(0, 0, 0)" stroke="rgb(204, 204, 204)" stroke-width="1.176471px"></line><line x1="51.5625" y1="22.11523437500002" x2="46.5625" y2="22.11523437500002" style="visibility: inherit;" fill="rgb(0, 0, 0)" stroke="rgb(204, 204, 204)" stroke-width="1.176471px"></line><line x1="51.5625" y1="0" x2="46.5625" y2="0" style="visibility: inherit;" fill="rgb(0, 0, 0)" stroke="rgb(204, 204, 204)" stroke-width="1.176471px"></line></g><g transform="translate(41.5625, 0)"><text style="text-anchor: end; visibility: hidden; font-family: Roboto, sans-serif; font-size: 14.117646px; font-weight: 200;" x="0" y="176.921875" dx="0em" dy="0.3em" fill="rgb(33, 33, 33)" stroke="none" stroke-width="1.176471px">-1</text><text style="text-anchor: end; visibility: inherit; font-family: Roboto, sans-serif; font-size: 14.117646px; font-weight: 200;" x="0" y="154.806640625" dx="0em" dy="0.3em" fill="rgb(33, 33, 33)" stroke="none" stroke-width="1.176471px">-0.9</text><text style="text-anchor: end; visibility: hidden; font-family: Roboto, sans-serif; font-size: 14.117646px; font-weight: 200;" x="0" y="132.69140625" dx="0em" dy="0.3em" fill="rgb(33, 33, 33)" stroke="none" stroke-width="1.176471px">-0.8</text><text style="text-anchor: end; visibility: inherit; font-family: Roboto, sans-serif; font-size: 14.117646px; font-weight: 200;" x="0" y="110.576171875" dx="0em" dy="0.3em" fill="rgb(33, 33, 33)" stroke="none" stroke-width="1.176471px">-0.7</text><text style="text-anchor: end; visibility: hidden; font-family: Roboto, sans-serif; font-size: 14.117646px; font-weight: 200;" x="0" y="88.4609375" dx="0em" dy="0.3em" fill="rgb(33, 33, 33)" stroke="none" stroke-width="1.176471px">-0.6</text><text style="text-anchor: end; visibility: inherit; font-family: Roboto, sans-serif; font-size: 14.117646px; font-weight: 200;" x="0" y="66.345703125" dx="0em" dy="0.3em" fill="rgb(33, 33, 33)" stroke="none" stroke-width="1.176471px">-0.5</text><text style="text-anchor: end; visibility: hidden; font-family: Roboto, sans-serif; font-size: 14.117646px; font-weight: 200;" x="0" y="44.23046875000002" dx="0em" dy="0.3em" fill="rgb(33, 33, 33)" stroke="none" stroke-width="1.176471px">-0.4</text><text style="text-anchor: end; visibility: inherit; font-family: Roboto, sans-serif; font-size: 14.117646px; font-weight: 200;" x="0" y="22.11523437500002" dx="0em" dy="0.3em" fill="rgb(33, 33, 33)" stroke="none" stroke-width="1.176471px">-0.3</text><text style="text-anchor: end; visibility: hidden; font-family: Roboto, sans-serif; font-size: 14.117646px; font-weight: 200;" x="0" y="0" dx="0em" dy="0.3em" fill="rgb(33, 33, 33)" stroke="none" stroke-width="1.176471px">-0.2</text></g><line x1="51.5625" y1="0" x2="51.5625" y2="176.921875" fill="rgb(0, 0, 0)" stroke="rgb(204, 204, 204)" stroke-width="1.176471px"></line></g></g><g transform="translate(51, 0)" clip-path="url(#clip_0)"><clipPath id="clip_0"><rect width="278" height="176"></rect></clipPath><g><g><g><line x1="0" y1="0" x2="0" y2="176.921875" fill="rgb(0, 0, 0)" stroke="rgb(66, 66, 66)" stroke-width="1.176471px" opacity="0.25"></line><line x1="23.203125" y1="0" x2="23.203125" y2="176.921875" fill="rgb(0, 0, 0)" stroke="rgb(66, 66, 66)" stroke-width="1.176471px" opacity="0.25"></line><line x1="46.40625" y1="0" x2="46.40625" y2="176.921875" fill="rgb(0, 0, 0)" stroke="rgb(66, 66, 66)" stroke-width="1.176471px" opacity="0.25"></line><line x1="69.609375" y1="0" x2="69.609375" y2="176.921875" fill="rgb(0, 0, 0)" stroke="rgb(66, 66, 66)" stroke-width="1.176471px" opacity="0.25"></line><line x1="92.8125" y1="0" x2="92.8125" y2="176.921875" fill="rgb(0, 0, 0)" stroke="rgb(66, 66, 66)" stroke-width="1.176471px" opacity="0.25"></line><line x1="116.015625" y1="0" x2="116.015625" y2="176.921875" fill="rgb(0, 0, 0)" stroke="rgb(66, 66, 66)" stroke-width="1.176471px" opacity="0.25"></line><line x1="139.21875" y1="0" x2="139.21875" y2="176.921875" fill="rgb(0, 0, 0)" stroke="rgb(66, 66, 66)" stroke-width="1.176471px" opacity="0.25"></line><line x1="162.421875" y1="0" x2="162.421875" y2="176.921875" fill="rgb(0, 0, 0)" stroke="rgb(66, 66, 66)" stroke-width="1.176471px" opacity="0.25"></line><line x1="185.625" y1="0" x2="185.625" y2="176.921875" fill="rgb(0, 0, 0)" stroke="rgb(66, 66, 66)" stroke-width="1.176471px" opacity="0.25"></line><line x1="208.828125" y1="0" x2="208.828125" y2="176.921875" fill="rgb(0, 0, 0)" stroke="rgb(66, 66, 66)" stroke-width="1.176471px" opacity="0.25"></line><line x1="232.03125" y1="0" x2="232.03125" y2="176.921875" fill="rgb(0, 0, 0)" stroke="rgb(66, 66, 66)" stroke-width="1.176471px" opacity="0.25"></line><line x1="255.234375" y1="0" x2="255.234375" y2="176.921875" fill="rgb(0, 0, 0)" stroke="rgb(66, 66, 66)" stroke-width="1.176471px" opacity="0.25"></line><line x1="278.4375" y1="0" x2="278.4375" y2="176.921875" fill="rgb(0, 0, 0)" stroke="rgb(66, 66, 66)" stroke-width="1.176471px" opacity="0.25"></line></g><g><line x1="0" y1="176.921875" x2="278.4375" y2="176.921875" fill="rgb(0, 0, 0)" stroke="rgb(66, 66, 66)" stroke-width="1.176471px" opacity="0.25"></line><line x1="0" y1="154.806640625" x2="278.4375" y2="154.806640625" fill="rgb(0, 0, 0)" stroke="rgb(66, 66, 66)" stroke-width="1.176471px" opacity="0.25"></line><line x1="0" y1="132.69140625" x2="278.4375" y2="132.69140625" fill="rgb(0, 0, 0)" stroke="rgb(66, 66, 66)" stroke-width="1.176471px" opacity="0.25"></line><line x1="0" y1="110.576171875" x2="278.4375" y2="110.576171875" fill="rgb(0, 0, 0)" stroke="rgb(66, 66, 66)" stroke-width="1.176471px" opacity="0.25"></line><line x1="0" y1="88.4609375" x2="278.4375" y2="88.4609375" fill="rgb(0, 0, 0)" stroke="rgb(66, 66, 66)" stroke-width="1.176471px" opacity="0.25"></line><line x1="0" y1="66.345703125" x2="278.4375" y2="66.345703125" fill="rgb(0, 0, 0)" stroke="rgb(66, 66, 66)" stroke-width="1.176471px" opacity="0.25"></line><line x1="0" y1="44.23046875000002" x2="278.4375" y2="44.23046875000002" fill="rgb(0, 0, 0)" stroke="rgb(66, 66, 66)" stroke-width="1.176471px" opacity="0.25"></line><line x1="0" y1="22.11523437500002" x2="278.4375" y2="22.11523437500002" fill="rgb(0, 0, 0)" stroke="rgb(66, 66, 66)" stroke-width="1.176471px" opacity="0.25"></line><line x1="0" y1="0" x2="278.4375" y2="0" fill="rgb(0, 0, 0)" stroke="rgb(66, 66, 66)" stroke-width="1.176471px" opacity="0.25"></line></g></g></g><g><g><line x1="0" y1="-44.23046875" x2="278.4375" y2="-44.23046875" fill="rgb(0, 0, 0)" stroke="rgb(153, 153, 153)" stroke-width="1.764706px"></line></g></g><g><g><line x1="23.203125" y1="0" x2="23.203125" y2="176.921875" fill="rgb(0, 0, 0)" stroke="rgb(153, 153, 153)" stroke-width="1.764706px"></line></g></g><g><g><g><g><g><path style="fill: none;" stroke="rgb(255, 112, 67)" stroke-width="2.352941px" d="M24.36328125,152.26010094326924L25.523437499999996,171.71004724138768L26.683593750000004,192.6872230734229L31.32421875,197.87752747160218L32.484375,142.76171430658488L33.64453125,86.14032746219947L34.8046875,106.41411311880184L35.96484375000001,90.04140656536704L37.125,109.7486896072805L38.28515625,121.59691768745772L39.4453125,108.0900641399123L40.60546875,119.41699274034917L41.765625,166.880236409338L42.92578125,125.85380749387005L44.0859375,117.47039740555891L45.24609375,130.80584142723686L46.40625,122.00190703880614L47.56640625,117.91077212548045L48.7265625,103.89035621434817L49.88671875,87.51469729950824L51.04687499999999,68.39670396043603L52.20703125,76.36567752953404L53.36718750000001,88.34271069369903L54.52734375,89.076475935053L55.6875,153.33159973496043L56.84765625,136.82701677343886L58.0078125,119.73158657068787L59.16796875,75.12504431789057L60.328125,83.3093368350306L61.48828125,69.74934217275143L62.6484375,80.9628397972266L63.80859375,85.26424388555185L64.96875,70.45266222642105L66.12890625,68.20951773164444L67.2890625,69.83670968067774L68.44921875,65.53080379517098L69.609375,51.42973858638501L70.76953125,70.44338844262752L71.92968750000001,77.31145576697335L73.08984375,87.53482009299539L74.25,93.90609886542336L75.41015625,99.99508626774886L76.5703125,75.56439345345456L77.73046875,28.340671649415704L78.890625,6.337800309464127L80.05078125,19.395531119357727L81.2109375,52.056707089219465L82.37109375,66.72065977204934L83.53125,83.58266111978043L84.69140624999999,58.5952417663944L85.8515625,74.56441038604783L87.01171875,99.8493158852279L88.171875,77.19290737406808L89.33203125000001,88.61159627178657L90.4921875,95.35377580370086L91.65234375,78.59813914238497L92.8125,84.22974926480133L93.97265625,60.9599123304612L95.1328125,42.93901198488046L96.29296875,68.47570606772071L97.453125,60.97573247310272L98.61328125,70.14747197874192L99.7734375,67.46992993151392L100.93359375,44.78524770863773L102.09374999999999,44.48457068109766L103.25390625,71.1286268983849L104.4140625,81.2807106146518L105.57421875,87.08952959257684L106.73437500000001,89.57234162494657L107.89453125,69.75563454953283L109.0546875,64.014863386979L110.21484375,55.020142822244594L111.375,15.573185061982521L112.53515625,25.935555719831587L113.6953125,56.866891094706354L114.85546875,72.90615668263622L116.015625,84.39287121411986L117.17578125,63.49412874852094L118.3359375,77.05346601329428L119.49609374999999,54.8739607730247L120.65625,110.32792244713677L121.81640625,56.00323763529214L122.9765625,76.99229791504743L124.13671875000001,65.59935641479926L125.296875,63.42605351375565L126.45703125,44.87498147887081L127.6171875,51.21021588682511L128.77734375,13.064013238612793L129.9375,41.28960864651292L131.09765625,54.33241839186453L132.2578125,64.7678712960771L133.41796875,48.90881788840352L134.578125,57.43963557268209L135.73828125,20.968415342235648L136.8984375,51.183892959521145L138.05859375,100.17320043748822L139.21875,102.96311080818968L140.37890625,100.5402827100268L141.5390625,92.5572540682963L142.69921875,67.2140027767367L143.85937500000003,69.77267456296887L145.01953125,40.00847484584467L146.1796875,52.409758763444835L147.33984375,94.59854719577051L148.5,93.80065161729422L149.66015625,99.04980354678369L150.8203125,99.99256097199314L151.98046874999997,82.26603986546348L153.140625,93.02520802034036L154.30078125,78.62902814298292L155.4609375,81.34516990301785L156.62109375,50.29646240370701L157.78125,52.96183193494779L158.94140625,127.37116865508945L160.1015625,105.22702331117951L161.26171875000003,102.61668524028904L162.421875,66.78725058664112L163.58203125,40.757879782334975L164.7421875,75.33236653461516L165.90234375,98.52579791161097L167.0625,66.17705516340317L168.22265625,126.9180340897857L169.38281249999997,94.40669254021383L170.54296875,138.19588684734128L171.703125,168.0810540298532L172.86328125,152.92303297902853L174.0234375,172.26572825453113L175.18359375,118.22786345698418L176.34375,53.30163316203852L177.50390625,25.93131355554953L178.66406250000003,72.97464305182082L179.82421875,90.52071637327468L180.984375,99.77615692536904L182.14453125,43.08028030911415L183.3046875,54.49673525497665L184.46484375,112.86345000009447L185.625,77.34779091581753L186.78515624999997,59.991560361946306L187.9453125,83.08867628386749L189.10546875,139.63153782046516L190.265625,156.79639807023364L191.42578125,185.82965168500095L192.5859375,195.99277894042675L193.74609375,170.6634782654173L194.90625,156.8637546039523L196.06640625000003,130.6878920462557L197.2265625,113.49453416418008L198.38671875,109.74086348450389L199.546875,150.531315673433L200.70703125,121.50057999499798L201.8671875,130.7831358823294L203.02734375,145.27840914683355L204.18749999999997,116.44800758201963L205.34765625,121.50019957783648L206.5078125,111.18400837559447L207.66796875,86.47900979444876L208.828125,94.41787101593162L209.98828125,110.45540674394546L211.1484375,97.74545927619891L212.30859375,75.02278243681985L213.46875000000003,74.01370829144462L214.62890625,76.70880502910894L215.7890625,28.3331435284325L216.94921875,39.14555863507441L218.109375,51.46214830260188L219.26953125,59.75314031395739L220.4296875,62.04144601892861L221.58984374999997,19.58377403953065L222.75,27.003667950402644L223.91015625,41.100706682823066L225.0703125,7.299741938111429L226.23046875,33.98702286622879L227.390625,49.48940700155548L228.55078125,52.61333336584934L229.7109375,33.10937417862497L230.87109375000003,59.0036930152524L232.03125,49.62539248844599L233.19140625,52.04561223094907L234.3515625,42.1524387724079L235.51171875,49.39457443689011L236.671875,38.09325675586434L237.83203125,74.91386166297387L238.99218749999997,50.16759960482003L240.15234375,74.86631021176345L241.3125,91.09852591898036L242.47265625,76.94098410133677L243.6328125,95.92998833469544L244.79296875,73.05957115946967L245.953125,40.60784480292915L247.11328125,28.140894445375206L248.27343750000003,70.813149937113L249.43359375,39.1131425820726L250.59375,15.444687006196958L251.75390625,-6.385259986606384L252.9140625,51.594393003136155L254.07421875,54.91926688865401L255.234375,50.318977266093434" fill="none"></path></g></g></g></g><g opacity="0.2"><g><g><g><path style="fill: none;" stroke="rgb(255, 112, 67)" stroke-width="2.352941px" d="M24.36328125,152.2601009432692L25.523437499999996,183.38001502025872L31.32421875,193.9289395934902L32.484375,62.40232960018329L33.64453125,2.6347800049115904L34.8046875,136.51832203078084L35.96484375000001,65.63084597862326L37.125,139.2023680061102L38.28515625,139.33057328732684L39.4453125,87.85624515078962L40.60546875,136.39407126163132L41.765625,238.04162715608254L42.92578125,64.33152513043024L44.0859375,104.89741082000546L45.24609375,150.80697593907826L46.40625,108.79681017063558L47.56640625,111.77429412305355L48.7265625,82.86019369540736L49.88671875,62.95153223606758L51.04687499999999,39.719940422684886L52.20703125,88.31908124312758L53.36718750000001,106.30820936337113L54.52734375,90.1771219195798L55.6875,249.71418678807095L56.84765625,112.07015753421001L58.0078125,94.0884507149458L59.16796875,8.215245730709285L60.328125,95.58577398234047L61.48828125,49.40935179812368L62.6484375,97.78308543073945L63.80859375,91.71634983317927L64.96875,48.23529011965729L66.12890625,64.84480102418456L67.2890625,72.2774975891225L68.44921875,59.071944990893826L69.609375,30.27814082033001L70.76953125,98.96386318886653L71.92968750000001,87.61355674522929L73.08984375,102.86986657464877L74.25,103.46301702130586L75.41015625,109.12856736965477L76.5703125,38.918354235822335L77.73046875,-42.49491105222478L78.890625,-26.666506699228194L80.05078125,38.9821273337584L81.2109375,101.04847104335204L82.37109375,88.71658879611641L83.53125,108.87566314125434L84.69140624999999,21.11411273642443L85.8515625,98.51816331548616L87.01171875,137.7766741339583L88.171875,43.20829460734967L89.33203125000001,105.73962961835787L90.4921875,105.46704510156997L91.65234375,53.46468415041454L92.8125,92.67716444842517L93.97265625,26.055156928952783L95.1328125,15.907661466510035L96.29296875,106.78074719198048L97.453125,49.72577208117582L98.61328125,83.90508123720065L99.7734375,63.4536168606719L100.93359375,10.758224374323618L102.09374999999999,44.033555139787495L103.25390625,111.09471122431569L104.4140625,96.50883618905209L105.57421875,95.8027580594644L106.73437500000001,93.29655967350118L107.89453125,40.03057393641211L109.0546875,55.403706643148325L110.21484375,41.52806197514292L111.375,-43.59725157841058L112.53515625,41.47911170660518L113.6953125,103.26389415701851L114.85546875,96.96505506453104L116.015625,101.62294301134534L117.17578125,32.146015050122514L118.3359375,97.39247191045433L119.49609374999999,21.60470291262027L120.65625,193.5088649583049L121.81640625,-25.483789582474856L122.9765625,108.47588833468035L124.13671875000001,48.509944164427L125.296875,60.16609916219022L126.45703125,17.04837342654355L127.6171875,60.71306749875657L128.77734375,-44.15529073370567L129.9375,83.6280017583631L131.09765625,73.89663300989196L132.2578125,80.42105065239593L133.41796875,25.12023777689319L134.578125,70.2358620990999L135.73828125,-33.738415003434056L136.8984375,96.50710938544944L138.05859375,173.65716165443882L139.21875,107.14797636424191L140.37890625,96.90604056278244L141.5390625,80.58271110570058L142.69921875,29.19912583939731L143.85937500000003,73.61068224231713L145.01953125,-4.637824729841668L146.1796875,71.01168463984504L147.33984375,157.8817298442591L148.5,92.60380824957974L149.66015625,106.92353144101799L150.8203125,101.40669710980728L151.98046874999997,55.676258205669L153.140625,109.16396025265567L154.30078125,57.03475832694676L155.4609375,85.41938254307024L156.62109375,3.7234011547407135L157.78125,56.95988623180892L158.94140625,238.98517373530194L160.1015625,72.01080529531464L161.26171875000003,98.70117813395336L162.421875,13.043098606169224L163.58203125,1.7138235758757219L164.7421875,127.19409666303545L165.90234375,133.31594497710466L167.0625,17.653941041091457L168.22265625,218.0295024793595L169.38281249999997,45.63968021585606L170.54296875,203.87967830803245L171.703125,212.90880480362102L172.86328125,130.1860014027916L174.0234375,201.27977116778493L175.18359375,37.17106626066379L176.34375,-44.08771228037995L177.50390625,-15.124165854183957L178.66406250000003,143.53963729622774L179.82421875,116.83982635545544L180.984375,113.65931775351055L182.14453125,-41.963534615268145L183.3046875,71.62141767377034L184.46484375,200.4135221177712L185.625,24.074302289402112L186.78515624999997,33.95721453113947L187.9453125,117.73435016674921L189.10546875,224.44583012536168L192.5859375,211.23746982356533L193.74609375,132.6695272529032L194.90625,136.16416911175475L196.06640625000003,91.42409820971079L197.2265625,87.7044973410666L198.38671875,104.11035746498965L199.546875,211.71699395682663L200.70703125,77.95447647734545L201.8671875,144.70696971332654L203.02734375,167.02131904358976L204.18749999999997,73.20240523479879L205.34765625,129.0784875715617L206.5078125,95.7097215722315L207.66796875,49.42151192273013L208.828125,106.32616284815595L209.98828125,134.5117103359662L211.1484375,78.68053807457909L212.30859375,40.93876717775129L213.46875000000003,72.50009707338177L214.62890625,80.75145013560541L215.7890625,-44.23034872258218L216.94921875,55.36418129503727L218.109375,69.93703280389309L219.26953125,72.18962833099067L220.4296875,65.4739045763854L221.58984374999997,-44.102733929566284L222.75,38.13350881671067L223.91015625,62.24626478145365L225.0703125,-43.401705178956036L226.23046875,74.0179442584049L227.390625,72.74298320454545L228.55078125,57.29922291229013L229.7109375,3.8534353977884166L230.87109375000003,97.84517127019353L232.03125,35.55794169823639L233.19140625,55.67594184470363L234.3515625,27.312678584596142L235.51171875,60.2577779336134L236.671875,21.141280234325677L237.83203125,130.14476902363822L238.99218749999997,13.048206517589279L240.15234375,111.91437612217851L241.3125,115.44684947980568L242.47265625,55.704671374871396L243.6328125,124.41349468473345L244.79296875,38.753945396631025L245.953125,-8.069744731881656L247.11328125,9.440468909044284L248.27343750000003,134.82153317471966L249.43359375,-8.436868450487964L251.75390625,-39.13018047581136L252.9140625,138.5638724877499L254.07421875,59.90657771693077L255.234375,43.41854283225257" fill="none"></path></g></g></g></g></g></g><g transform="translate(51, 176)" clip-path="url(#clip_1)"><clipPath id="clip_1"><rect width="278" height="23"></rect></clipPath><g><g><line x1="0" y1="0" x2="0" y2="5" style="visibility: inherit;" fill="rgb(0, 0, 0)" stroke="rgb(204, 204, 204)" stroke-width="1.176471px"></line><line x1="23.203125" y1="0" x2="23.203125" y2="5" style="visibility: inherit;" fill="rgb(0, 0, 0)" stroke="rgb(204, 204, 204)" stroke-width="1.176471px"></line><line x1="46.40625" y1="0" x2="46.40625" y2="5" style="visibility: inherit;" fill="rgb(0, 0, 0)" stroke="rgb(204, 204, 204)" stroke-width="1.176471px"></line><line x1="69.609375" y1="0" x2="69.609375" y2="5" style="visibility: inherit;" fill="rgb(0, 0, 0)" stroke="rgb(204, 204, 204)" stroke-width="1.176471px"></line><line x1="92.8125" y1="0" x2="92.8125" y2="5" style="visibility: inherit;" fill="rgb(0, 0, 0)" stroke="rgb(204, 204, 204)" stroke-width="1.176471px"></line><line x1="116.015625" y1="0" x2="116.015625" y2="5" style="visibility: inherit;" fill="rgb(0, 0, 0)" stroke="rgb(204, 204, 204)" stroke-width="1.176471px"></line><line x1="139.21875" y1="0" x2="139.21875" y2="5" style="visibility: inherit;" fill="rgb(0, 0, 0)" stroke="rgb(204, 204, 204)" stroke-width="1.176471px"></line><line x1="162.421875" y1="0" x2="162.421875" y2="5" style="visibility: inherit;" fill="rgb(0, 0, 0)" stroke="rgb(204, 204, 204)" stroke-width="1.176471px"></line><line x1="185.625" y1="0" x2="185.625" y2="5" style="visibility: inherit;" fill="rgb(0, 0, 0)" stroke="rgb(204, 204, 204)" stroke-width="1.176471px"></line><line x1="208.828125" y1="0" x2="208.828125" y2="5" style="visibility: inherit;" fill="rgb(0, 0, 0)" stroke="rgb(204, 204, 204)" stroke-width="1.176471px"></line><line x1="232.03125" y1="0" x2="232.03125" y2="5" style="visibility: inherit;" fill="rgb(0, 0, 0)" stroke="rgb(204, 204, 204)" stroke-width="1.176471px"></line><line x1="255.234375" y1="0" x2="255.234375" y2="5" style="visibility: inherit;" fill="rgb(0, 0, 0)" stroke="rgb(204, 204, 204)" stroke-width="1.176471px"></line><line x1="278.4375" y1="0" x2="278.4375" y2="5" style="visibility: inherit;" fill="rgb(0, 0, 0)" stroke="rgb(204, 204, 204)" stroke-width="1.176471px"></line></g><g transform="translate(0, 8)"><text style="text-anchor: middle; visibility: hidden; font-family: Roboto, sans-serif; font-size: 14.117646px; font-weight: 200;" x="0" y="0" dx="0em" dy="0.95em" fill="rgb(33, 33, 33)" stroke="none" stroke-width="1.176471px">-10k</text><text style="text-anchor: middle; visibility: inherit; font-family: Roboto, sans-serif; font-size: 14.117646px; font-weight: 200;" x="23.203125" y="0" dx="0em" dy="0.95em" fill="rgb(33, 33, 33)" stroke="none" stroke-width="1.176471px">0</text><text style="text-anchor: middle; visibility: hidden; font-family: Roboto, sans-serif; font-size: 14.117646px; font-weight: 200;" x="46.40625" y="0" dx="0em" dy="0.95em" fill="rgb(33, 33, 33)" stroke="none" stroke-width="1.176471px">10k</text><text style="text-anchor: middle; visibility: inherit; font-family: Roboto, sans-serif; font-size: 14.117646px; font-weight: 200;" x="69.609375" y="0" dx="0em" dy="0.95em" fill="rgb(33, 33, 33)" stroke="none" stroke-width="1.176471px">20k</text><text style="text-anchor: middle; visibility: hidden; font-family: Roboto, sans-serif; font-size: 14.117646px; font-weight: 200;" x="92.8125" y="0" dx="0em" dy="0.95em" fill="rgb(33, 33, 33)" stroke="none" stroke-width="1.176471px">30k</text><text style="text-anchor: middle; visibility: inherit; font-family: Roboto, sans-serif; font-size: 14.117646px; font-weight: 200;" x="116.015625" y="0" dx="0em" dy="0.95em" fill="rgb(33, 33, 33)" stroke="none" stroke-width="1.176471px">40k</text><text style="text-anchor: middle; visibility: hidden; font-family: Roboto, sans-serif; font-size: 14.117646px; font-weight: 200;" x="139.21875" y="0" dx="0em" dy="0.95em" fill="rgb(33, 33, 33)" stroke="none" stroke-width="1.176471px">50k</text><text style="text-anchor: middle; visibility: inherit; font-family: Roboto, sans-serif; font-size: 14.117646px; font-weight: 200;" x="162.421875" y="0" dx="0em" dy="0.95em" fill="rgb(33, 33, 33)" stroke="none" stroke-width="1.176471px">60k</text><text style="text-anchor: middle; visibility: hidden; font-family: Roboto, sans-serif; font-size: 14.117646px; font-weight: 200;" x="185.625" y="0" dx="0em" dy="0.95em" fill="rgb(33, 33, 33)" stroke="none" stroke-width="1.176471px">70k</text><text style="text-anchor: middle; visibility: inherit; font-family: Roboto, sans-serif; font-size: 14.117646px; font-weight: 200;" x="208.828125" y="0" dx="0em" dy="0.95em" fill="rgb(33, 33, 33)" stroke="none" stroke-width="1.176471px">80k</text><text style="text-anchor: middle; visibility: hidden; font-family: Roboto, sans-serif; font-size: 14.117646px; font-weight: 200;" x="232.03125" y="0" dx="0em" dy="0.95em" fill="rgb(33, 33, 33)" stroke="none" stroke-width="1.176471px">90k</text><text style="text-anchor: middle; visibility: inherit; font-family: Roboto, sans-serif; font-size: 14.117646px; font-weight: 200;" x="255.234375" y="0" dx="0em" dy="0.95em" fill="rgb(33, 33, 33)" stroke="none" stroke-width="1.176471px">100k</text><text style="text-anchor: middle; visibility: hidden; font-family: Roboto, sans-serif; font-size: 14.117646px; font-weight: 200;" x="278.4375" y="0" dx="0em" dy="0.95em" fill="rgb(33, 33, 33)" stroke="none" stroke-width="1.176471px">110k</text></g><line x1="0" y1="0" x2="278.4375" y2="0" fill="rgb(0, 0, 0)" stroke="rgb(204, 204, 204)" stroke-width="1.176471px"></line></g></g></g></g></svg>