<svg viewBox="0 0 329.9999694824219 199.99998474121094" xmlns="http://www.w3.org/2000/svg"><g><g><g><g><g><line x1="51.5625" y1="176.921875" x2="46.5625" y2="176.921875" style="visibility: inherit;" fill="rgb(0, 0, 0)" stroke="rgb(204, 204, 204)" stroke-width="1.176471px"></line><line x1="51.5625" y1="165.1270833333333" x2="46.5625" y2="165.1270833333333" style="visibility: inherit;" fill="rgb(0, 0, 0)" stroke="rgb(204, 204, 204)" stroke-width="1.176471px"></line><line x1="51.5625" y1="153.33229166666666" x2="46.5625" y2="153.33229166666666" style="visibility: inherit;" fill="rgb(0, 0, 0)" stroke="rgb(204, 204, 204)" stroke-width="1.176471px"></line><line x1="51.5625" y1="141.5375" x2="46.5625" y2="141.5375" style="visibility: inherit;" fill="rgb(0, 0, 0)" stroke="rgb(204, 204, 204)" stroke-width="1.176471px"></line><line x1="51.5625" y1="129.7427083333333" x2="46.5625" y2="129.7427083333333" style="visibility: inherit;" fill="rgb(0, 0, 0)" stroke="rgb(204, 204, 204)" stroke-width="1.176471px"></line><line x1="51.5625" y1="117.94791666666664" x2="46.5625" y2="117.94791666666664" style="visibility: inherit;" fill="rgb(0, 0, 0)" stroke="rgb(204, 204, 204)" stroke-width="1.176471px"></line><line x1="51.5625" y1="106.15312499999997" x2="46.5625" y2="106.15312499999997" style="visibility: inherit;" fill="rgb(0, 0, 0)" stroke="rgb(204, 204, 204)" stroke-width="1.176471px"></line><line x1="51.5625" y1="94.3583333333333" x2="46.5625" y2="94.3583333333333" style="visibility: inherit;" fill="rgb(0, 0, 0)" stroke="rgb(204, 204, 204)" stroke-width="1.176471px"></line><line x1="51.5625" y1="82.56354166666667" x2="46.5625" y2="82.56354166666667" style="visibility: inherit;" fill="rgb(0, 0, 0)" stroke="rgb(204, 204, 204)" stroke-width="1.176471px"></line><line x1="51.5625" y1="70.76874999999998" x2="46.5625" y2="70.76874999999998" style="visibility: inherit;" fill="rgb(0, 0, 0)" stroke="rgb(204, 204, 204)" stroke-width="1.176471px"></line><line x1="51.5625" y1="58.97395833333334" x2="46.5625" y2="58.97395833333334" style="visibility: inherit;" fill="rgb(0, 0, 0)" stroke="rgb(204, 204, 204)" stroke-width="1.176471px"></line><line x1="51.5625" y1="47.17916666666665" x2="46.5625" y2="47.17916666666665" style="visibility: inherit;" fill="rgb(0, 0, 0)" stroke="rgb(204, 204, 204)" stroke-width="1.176471px"></line><line x1="51.5625" y1="35.38437499999997" x2="46.5625" y2="35.38437499999997" style="visibility: inherit;" fill="rgb(0, 0, 0)" stroke="rgb(204, 204, 204)" stroke-width="1.176471px"></line><line x1="51.5625" y1="23.589583333333326" x2="46.5625" y2="23.589583333333326" style="visibility: inherit;" fill="rgb(0, 0, 0)" stroke="rgb(204, 204, 204)" stroke-width="1.176471px"></line><line x1="51.5625" y1="11.794791666666644" x2="46.5625" y2="11.794791666666644" style="visibility: inherit;" fill="rgb(0, 0, 0)" stroke="rgb(204, 204, 204)" stroke-width="1.176471px"></line><line x1="51.5625" y1="0" x2="46.5625" y2="0" style="visibility: inherit;" fill="rgb(0, 0, 0)" stroke="rgb(204, 204, 204)" stroke-width="1.176471px"></line></g><g transform="translate(41.5625, 0)"><text style="text-anchor: end; visibility: hidden; font-family: Roboto, sans-serif; font-size: 14.117646px; font-weight: 200;" x="0" y="176.921875" dx="0em" dy="0.3em" fill="rgb(33, 33, 33)" stroke="none" stroke-width="1.176471px">-2.2</text><text style="text-anchor: end; visibility: inherit; font-family: Roboto, sans-serif; font-size: 14.117646px; font-weight: 200;" x="0" y="165.1270833333333" dx="0em" dy="0.3em" fill="rgb(33, 33, 33)" stroke="none" stroke-width="1.176471px">-2</text><text style="text-anchor: end; visibility: hidden; font-family: Roboto, sans-serif; font-size: 14.117646px; font-weight: 200;" x="0" y="153.33229166666666" dx="0em" dy="0.3em" fill="rgb(33, 33, 33)" stroke="none" stroke-width="1.176471px">-1.8</text><text style="text-anchor: end; visibility: inherit; font-family: Roboto, sans-serif; font-size: 14.117646px; font-weight: 200;" x="0" y="141.5375" dx="0em" dy="0.3em" fill="rgb(33, 33, 33)" stroke="none" stroke-width="1.176471px">-1.6</text><text style="text-anchor: end; visibility: hidden; font-family: Roboto, sans-serif; font-size: 14.117646px; font-weight: 200;" x="0" y="129.7427083333333" dx="0em" dy="0.3em" fill="rgb(33, 33, 33)" stroke="none" stroke-width="1.176471px">-1.4</text><text style="text-anchor: end; visibility: inherit; font-family: Roboto, sans-serif; font-size: 14.117646px; font-weight: 200;" x="0" y="117.94791666666664" dx="0em" dy="0.3em" fill="rgb(33, 33, 33)" stroke="none" stroke-width="1.176471px">-1.2</text><text style="text-anchor: end; visibility: hidden; font-family: Roboto, sans-serif; font-size: 14.117646px; font-weight: 200;" x="0" y="106.15312499999997" dx="0em" dy="0.3em" fill="rgb(33, 33, 33)" stroke="none" stroke-width="1.176471px">-1</text><text style="text-anchor: end; visibility: inherit; font-family: Roboto, sans-serif; font-size: 14.117646px; font-weight: 200;" x="0" y="94.3583333333333" dx="0em" dy="0.3em" fill="rgb(33, 33, 33)" stroke="none" stroke-width="1.176471px">-0.8</text><text style="text-anchor: end; visibility: hidden; font-family: Roboto, sans-serif; font-size: 14.117646px; font-weight: 200;" x="0" y="82.56354166666667" dx="0em" dy="0.3em" fill="rgb(33, 33, 33)" stroke="none" stroke-width="1.176471px">-0.6</text><text style="text-anchor: end; visibility: inherit; font-family: Roboto, sans-serif; font-size: 14.117646px; font-weight: 200;" x="0" y="70.76874999999998" dx="0em" dy="0.3em" fill="rgb(33, 33, 33)" stroke="none" stroke-width="1.176471px">-0.4</text><text style="text-anchor: end; visibility: hidden; font-family: Roboto, sans-serif; font-size: 14.117646px; font-weight: 200;" x="0" y="58.97395833333334" dx="0em" dy="0.3em" fill="rgb(33, 33, 33)" stroke="none" stroke-width="1.176471px">-0.2</text><text style="text-anchor: end; visibility: inherit; font-family: Roboto, sans-serif; font-size: 14.117646px; font-weight: 200;" x="0" y="47.17916666666665" dx="0em" dy="0.3em" fill="rgb(33, 33, 33)" stroke="none" stroke-width="1.176471px">0</text><text style="text-anchor: end; visibility: hidden; font-family: Roboto, sans-serif; font-size: 14.117646px; font-weight: 200;" x="0" y="35.38437499999997" dx="0em" dy="0.3em" fill="rgb(33, 33, 33)" stroke="none" stroke-width="1.176471px">0.2</text><text style="text-anchor: end; visibility: inherit; font-family: Roboto, sans-serif; font-size: 14.117646px; font-weight: 200;" x="0" y="23.589583333333326" dx="0em" dy="0.3em" fill="rgb(33, 33, 33)" stroke="none" stroke-width="1.176471px">0.4</text><text style="text-anchor: end; visibility: hidden; font-family: Roboto, sans-serif; font-size: 14.117646px; font-weight: 200;" x="0" y="11.794791666666644" dx="0em" dy="0.3em" fill="rgb(33, 33, 33)" stroke="none" stroke-width="1.176471px">0.6</text><text style="text-anchor: end; visibility: hidden; font-family: Roboto, sans-serif; font-size: 14.117646px; font-weight: 200;" x="0" y="0" dx="0em" dy="0.3em" fill="rgb(33, 33, 33)" stroke="none" stroke-width="1.176471px">0.8</text></g><line x1="51.5625" y1="0" x2="51.5625" y2="176.921875" fill="rgb(0, 0, 0)" stroke="rgb(204, 204, 204)" stroke-width="1.176471px"></line></g></g><g transform="translate(51, 0)" clip-path="url(#clip_0)"><clipPath id="clip_0"><rect width="278" height="176"></rect></clipPath><g><g><g><line x1="0" y1="0" x2="0" y2="176.921875" fill="rgb(0, 0, 0)" stroke="rgb(66, 66, 66)" stroke-width="1.176471px" opacity="0.25"></line><line x1="23.203125" y1="0" x2="23.203125" y2="176.921875" fill="rgb(0, 0, 0)" stroke="rgb(66, 66, 66)" stroke-width="1.176471px" opacity="0.25"></line><line x1="46.40625" y1="0" x2="46.40625" y2="176.921875" fill="rgb(0, 0, 0)" stroke="rgb(66, 66, 66)" stroke-width="1.176471px" opacity="0.25"></line><line x1="69.609375" y1="0" x2="69.609375" y2="176.921875" fill="rgb(0, 0, 0)" stroke="rgb(66, 66, 66)" stroke-width="1.176471px" opacity="0.25"></line><line x1="92.8125" y1="0" x2="92.8125" y2="176.921875" fill="rgb(0, 0, 0)" stroke="rgb(66, 66, 66)" stroke-width="1.176471px" opacity="0.25"></line><line x1="116.015625" y1="0" x2="116.015625" y2="176.921875" fill="rgb(0, 0, 0)" stroke="rgb(66, 66, 66)" stroke-width="1.176471px" opacity="0.25"></line><line x1="139.21875" y1="0" x2="139.21875" y2="176.921875" fill="rgb(0, 0, 0)" stroke="rgb(66, 66, 66)" stroke-width="1.176471px" opacity="0.25"></line><line x1="162.421875" y1="0" x2="162.421875" y2="176.921875" fill="rgb(0, 0, 0)" stroke="rgb(66, 66, 66)" stroke-width="1.176471px" opacity="0.25"></line><line x1="185.625" y1="0" x2="185.625" y2="176.921875" fill="rgb(0, 0, 0)" stroke="rgb(66, 66, 66)" stroke-width="1.176471px" opacity="0.25"></line><line x1="208.828125" y1="0" x2="208.828125" y2="176.921875" fill="rgb(0, 0, 0)" stroke="rgb(66, 66, 66)" stroke-width="1.176471px" opacity="0.25"></line><line x1="232.03125" y1="0" x2="232.03125" y2="176.921875" fill="rgb(0, 0, 0)" stroke="rgb(66, 66, 66)" stroke-width="1.176471px" opacity="0.25"></line><line x1="255.234375" y1="0" x2="255.234375" y2="176.921875" fill="rgb(0, 0, 0)" stroke="rgb(66, 66, 66)" stroke-width="1.176471px" opacity="0.25"></line><line x1="278.4375" y1="0" x2="278.4375" y2="176.921875" fill="rgb(0, 0, 0)" stroke="rgb(66, 66, 66)" stroke-width="1.176471px" opacity="0.25"></line></g><g><line x1="0" y1="176.921875" x2="278.4375" y2="176.921875" fill="rgb(0, 0, 0)" stroke="rgb(66, 66, 66)" stroke-width="1.176471px" opacity="0.25"></line><line x1="0" y1="165.1270833333333" x2="278.4375" y2="165.1270833333333" fill="rgb(0, 0, 0)" stroke="rgb(66, 66, 66)" stroke-width="1.176471px" opacity="0.25"></line><line x1="0" y1="153.33229166666666" x2="278.4375" y2="153.33229166666666" fill="rgb(0, 0, 0)" stroke="rgb(66, 66, 66)" stroke-width="1.176471px" opacity="0.25"></line><line x1="0" y1="141.5375" x2="278.4375" y2="141.5375" fill="rgb(0, 0, 0)" stroke="rgb(66, 66, 66)" stroke-width="1.176471px" opacity="0.25"></line><line x1="0" y1="129.7427083333333" x2="278.4375" y2="129.7427083333333" fill="rgb(0, 0, 0)" stroke="rgb(66, 66, 66)" stroke-width="1.176471px" opacity="0.25"></line><line x1="0" y1="117.94791666666664" x2="278.4375" y2="117.94791666666664" fill="rgb(0, 0, 0)" stroke="rgb(66, 66, 66)" stroke-width="1.176471px" opacity="0.25"></line><line x1="0" y1="106.15312499999997" x2="278.4375" y2="106.15312499999997" fill="rgb(0, 0, 0)" stroke="rgb(66, 66, 66)" stroke-width="1.176471px" opacity="0.25"></line><line x1="0" y1="94.3583333333333" x2="278.4375" y2="94.3583333333333" fill="rgb(0, 0, 0)" stroke="rgb(66, 66, 66)" stroke-width="1.176471px" opacity="0.25"></line><line x1="0" y1="82.56354166666667" x2="278.4375" y2="82.56354166666667" fill="rgb(0, 0, 0)" stroke="rgb(66, 66, 66)" stroke-width="1.176471px" opacity="0.25"></line><line x1="0" y1="70.76874999999998" x2="278.4375" y2="70.76874999999998" fill="rgb(0, 0, 0)" stroke="rgb(66, 66, 66)" stroke-width="1.176471px" opacity="0.25"></line><line x1="0" y1="58.97395833333334" x2="278.4375" y2="58.97395833333334" fill="rgb(0, 0, 0)" stroke="rgb(66, 66, 66)" stroke-width="1.176471px" opacity="0.25"></line><line x1="0" y1="47.17916666666665" x2="278.4375" y2="47.17916666666665" fill="rgb(0, 0, 0)" stroke="rgb(66, 66, 66)" stroke-width="1.176471px" opacity="0.25"></line><line x1="0" y1="35.38437499999997" x2="278.4375" y2="35.38437499999997" fill="rgb(0, 0, 0)" stroke="rgb(66, 66, 66)" stroke-width="1.176471px" opacity="0.25"></line><line x1="0" y1="23.589583333333326" x2="278.4375" y2="23.589583333333326" fill="rgb(0, 0, 0)" stroke="rgb(66, 66, 66)" stroke-width="1.176471px" opacity="0.25"></line><line x1="0" y1="11.794791666666644" x2="278.4375" y2="11.794791666666644" fill="rgb(0, 0, 0)" stroke="rgb(66, 66, 66)" stroke-width="1.176471px" opacity="0.25"></line><line x1="0" y1="0" x2="278.4375" y2="0" fill="rgb(0, 0, 0)" stroke="rgb(66, 66, 66)" stroke-width="1.176471px" opacity="0.25"></line></g></g></g><g><g><line x1="0" y1="47.17916666666665" x2="278.4375" y2="47.17916666666665" fill="rgb(0, 0, 0)" stroke="rgb(153, 153, 153)" stroke-width="1.764706px"></line></g></g><g><g><line x1="23.203125" y1="0" x2="23.203125" y2="176.921875" fill="rgb(0, 0, 0)" stroke="rgb(153, 153, 153)" stroke-width="1.764706px"></line></g></g><g><g><g><g><g><path style="fill: none;" stroke="rgb(255, 112, 67)" stroke-width="2.352941px" d="M24.36328125,47.74457401422161L25.523437499999996,47.716817733412604L26.683593750000004,46.72141996858907L27.84375,46.99949606016083L29.00390625,47.99498725677656L30.1640625,47.575734981743466L31.32421875,47.425659360837656L32.484375,47.14189587542155L33.64453125,47.111257212792445L34.8046875,47.140829801772796L35.96484375000001,47.15522833291675L37.125,47.16853898527506L38.28515625,47.1353232826886L39.4453125,47.180311028785674L40.60546875,47.17873473404365L41.765625,52.99225316376532L42.92578125,51.246088190874694L44.0859375,50.025223095483724L45.24609375,48.97192320876006L46.40625,47.26439367496506L47.56640625,47.901570139630074L48.7265625,30.781264373512855L49.88671875,41.71064605240982L51.04687499999999,43.87951738618885L52.20703125,76.36802667590436L53.36718750000001,154.91407340268012L54.52734375,95.23856470497107L55.6875,76.05930921472887L56.84765625,66.26874081909662L58.0078125,39.15077966010171L59.16796875,169.712080122256L60.328125,121.29576170214493L61.48828125,177.90346724835027L62.6484375,125.96531114118498L63.80859375,71.51909179483444L64.96875,62.44872824856778L66.12890625,56.346305617281345L67.2890625,38.8098056168902L68.44921875,43.07362173021368L69.609375,82.9148937334957L70.76953125,68.99379072664287L71.92968750000001,42.72231167385196L73.08984375,44.53196544428792L74.25,31.09779049986396L75.41015625,30.9914058708813L76.5703125,25.465345719107027L77.73046875,34.16780011312827L78.890625,100.29250148637543L80.05078125,94.45010805894081L81.2109375,69.03615350632181L82.37109375,47.40098296438081L83.53125,31.119948936510937L84.69140624999999,32.39574431576583L85.8515625,47.00538126503917L87.01171875,69.70186404989889L88.171875,62.98631773262007L89.33203125000001,57.77450576823106L90.4921875,33.69425818518161L91.65234375,40.276723640384986L92.8125,43.357363218698666L93.97265625,44.33461541144081L95.1328125,25.780930069260638L96.29296875,17.831963988248127L97.453125,24.532896515540486L98.61328125,13.465731973089055L99.7734375,29.448057181221635L100.93359375,36.54186765477006L102.09374999999999,40.826272101501296L103.25390625,41.50475139936288L104.4140625,43.74325260661331L105.57421875,49.0305112552183L106.73437500000001,39.897480834044245L107.89453125,75.67341729492975L109.0546875,44.26082280240576L110.21484375,52.88433274211756L111.375,75.84851813097163L112.53515625,65.70808473897593L113.6953125,58.470729760414066L114.85546875,53.970507487457404L116.015625,53.150587485661966L117.17578125,31.8805647049432L118.3359375,46.83634407350927L119.49609374999999,364.0470464775732L120.65625,248.16231280693034L121.81640625,155.54882186397583L122.9765625,127.6404884857615L124.13671875000001,74.27938102181832L125.296875,48.22802171858796L126.45703125,25.0766704557497L127.6171875,55.79512641354354L128.77734375,50.04285071039568L129.9375,33.066760154705456L131.09765625,52.49455485352349L132.2578125,28.743388313378713L133.41796875,73.38771536478946L134.578125,51.992535163563794L135.73828125,70.37034589952367L136.8984375,46.07980038634125L138.05859375,71.15285145617236L139.21875,79.2412374037606L140.37890625,239.44888334660348L141.5390625,230.9242725118316L142.69921875,159.439973172008L143.85937500000003,117.73787594604038L145.01953125,110.78913004488273L146.1796875,70.34858039845342L147.33984375,38.57724814877002L148.5,43.647018626720225L149.66015625,63.59749432606928L150.8203125,71.91987066568988L151.98046874999997,61.47440752092734L153.140625,46.98417981082937L154.30078125,30.023369464018373L155.4609375,17.505636356093536L156.62109375,28.782875589048682L157.78125,20.88666592882027L158.94140625,46.62781919154096L160.1015625,27.340320606505287L161.26171875000003,12.567270683358338L162.421875,23.611651022922135L163.58203125,110.38211366197932L164.7421875,61.94861019032079L165.90234375,33.67327030592786L167.0625,49.31292064846729L168.22265625,32.5198108438075L169.38281249999997,25.670912576770007L170.54296875,11.146238085138908L171.703125,3.834533640945823L172.86328125,0.018091175280904717L174.0234375,18.47248522159334L175.18359375,18.34730171832068L176.34375,10.404073657925652L177.50390625,8.735237558137815L178.66406250000003,2.134265260369439L179.82421875,-2.372108273896053L180.984375,64.27785592763077L182.14453125,61.37720359859934L183.3046875,39.253959224162905L184.46484375,28.194890869282716L185.625,49.65410894788683L186.78515624999997,25.415594259027937L187.9453125,23.898303712928858L189.10546875,143.06330183557145L190.265625,113.63356069129588L191.42578125,67.23666759005317L192.5859375,60.70014756751733L193.74609375,71.21407042572505L194.90625,67.0620458380159L196.06640625000003,50.433625498435475L197.2265625,47.71825962162308L198.38671875,36.31363952487981L199.546875,40.68185504429701L200.70703125,40.91811304697791L201.8671875,34.85557938206333L203.02734375,32.88076805418116L204.18749999999997,30.38459598906069L205.34765625,17.592367599033693L206.5078125,34.28660818569266L207.66796875,33.188774568805506L208.828125,26.130939916602415L209.98828125,23.14739331347148L211.1484375,19.631985905770843L212.30859375,27.366460533790427L213.46875000000003,33.90458417563297L214.62890625,61.00683963007921L215.7890625,40.04526857688345L216.94921875,25.171638135588054L218.109375,87.23019642778787L219.26953125,50.44492497761181L220.4296875,122.61005603483794L221.58984374999997,826.3967597167381L225.0703125,200.60619739074596L226.23046875,127.86229978918982L227.390625,72.91049139394829L228.55078125,47.36077763857127L229.7109375,30.818176109472986L230.87109375000003,19.655243093523428L232.03125,14.326332187555046L233.19140625,11.746783773443179L234.3515625,10.294966933384176L235.51171875,6.440459351269213L236.671875,26.76874595022865L237.83203125,18.216996991256856L238.99218749999997,120.47515817977191L240.15234375,80.35427192999241L241.3125,44.55343774603794L242.47265625,45.436104402251L243.6328125,33.38629394768094L244.79296875,16.494613029972204L245.953125,7.34146377752156L247.11328125,8.647025442157757L248.27343750000003,15.200343543957416L249.43359375,42.95913503254696L250.59375,39.09189693993475L251.75390625,22.733019373438612L252.9140625,15.862698466229572L254.07421875,21.80790906964626L255.234375,44.52183940208288" fill="none"></path></g></g></g></g><g opacity="0.2"><g><g><g><path style="fill: none;" stroke="rgb(255, 112, 67)" stroke-width="2.352941px" d="M24.36328125,47.74457401422161L25.523437499999996,47.70016396492719L26.683593750000004,45.76583811435848L27.84375,47.326513543849174L29.00390625,49.29470056307811L30.1640625,46.995758154553656L31.32421875,47.2110488217324L32.484375,46.728165989555414L33.64453125,47.06607113666832L34.8046875,47.18474164990086L35.96484375000001,47.17669553601492L37.125,47.18843252783019L38.28515625,47.0856081838409L39.4453125,47.2477045122534L40.60546875,47.176372144805875L41.765625,61.708430664738L42.92578125,48.62757965003449L44.0859375,48.1942354299128L45.24609375,47.39213383831083L46.40625,44.703255449235435L47.56640625,48.85729989235598L48.7265625,5.1013690752908545L49.88671875,58.10450278917947L51.04687499999999,47.13279869450876L52.20703125,125.10055969605843L53.36718750000001,272.73280852983396L54.52734375,5.725454351678486L55.6875,47.29045542404055L56.84765625,51.58289724414546L58.0078125,-1.52614709070573L59.16796875,365.55398751993977L60.328125,48.67129370520511L61.48828125,262.8150188098351L62.6484375,48.05808070066073L63.80859375,-10.150234884768748L64.96875,48.84318316305676L66.12890625,47.19267176476616L67.2890625,12.505055779094487L68.44921875,49.469345876450326L69.609375,142.67680160527425L70.76953125,48.112136244277146L71.92968750000001,3.315093126272145L73.08984375,47.24644609863558L74.25,10.946528089046474L75.41015625,30.831828927434977L76.5703125,17.17625549230724L77.73046875,47.22148170334596L78.890625,199.4795535425345L80.05078125,85.68651791798571L81.2109375,30.915221677906807L82.37109375,14.94822715173164L83.53125,6.698397894824534L84.69140624999999,34.309437384642656L85.8515625,68.9198366889109L87.01171875,103.7465882271528L88.171875,52.91299825670817L89.33203125000001,49.9567878216505L90.4921875,-2.4261131893843646L91.65234375,50.15042182318866L92.8125,47.97832258616883L93.97265625,45.80049370055396L95.1328125,-2.049597944008805L96.29296875,5.90851486672956L97.453125,34.58429530647892L98.61328125,-3.135014840587997L99.7734375,53.421544993420426L100.93359375,47.18258336509266L102.09374999999999,47.25287877159813L103.25390625,42.52247034615525L104.4140625,47.10100441748896L105.57421875,56.961399228125806L106.73437500000001,26.197935202283148L107.89453125,129.33732198625802L109.0546875,-2.8580689363802447L110.21484375,65.81959765168527L111.375,110.29479621425268L112.53515625,50.497434650982406L113.6953125,47.61469729257125L114.85546875,47.220174078022424L116.015625,51.92070748296875L117.17578125,-0.024469466134929386L118.3359375,69.27001312635839L119.49609374999999,839.8631000836691L120.65625,74.33521230096618L121.81640625,16.628585449544076L122.9765625,85.77798841844002L124.13671875000001,-5.762280174096436L125.296875,9.15098276374239L126.45703125,-9.650356438507647L127.6171875,101.8728103502343L128.77734375,41.41443715567389L129.9375,7.602624321170147L131.09765625,81.63624690175057L132.2578125,-6.883361496838428L133.41796875,140.35420594190555L134.578125,19.899764861725266L135.73828125,97.93706200346348L136.8984375,9.643982116567582L138.05859375,108.76242806091902L139.21875,91.37381632514295L140.37890625,479.76035226086776L141.5390625,218.13735625967382L142.69921875,52.2135241622726L143.85937500000003,55.18473010708887L145.01953125,100.3660111931463L146.1796875,9.687755928809434L147.33984375,-9.079750225755072L148.5,51.25167434364557L149.66015625,93.52320787509282L150.8203125,84.40343517512083L151.98046874999997,45.8062128037835L153.140625,25.248838245682414L154.30078125,4.582153943801909L155.4609375,-1.2709633057937262L156.62109375,45.69873443848142L157.78125,9.042351438477631L158.94140625,85.23954908562202L160.1015625,-1.5909272710482254L161.26171875000003,-9.592304201362044L162.421875,40.17822153226781L163.58203125,240.53780762056508L165.90234375,-8.739739520661557L167.0625,72.77239616227645L168.22265625,7.330146136817816L169.38281249999997,15.39756517621377L170.54296875,-10.640773652307713L172.86328125,-5.706572523216404L174.0234375,46.15407629106193L175.18359375,18.159526463411744L176.34375,-1.5107684326668684L177.50390625,6.23198340845603L178.66406250000003,-7.767193186283135L179.82421875,-9.13166857529434L180.984375,164.252802229921L182.14453125,57.02622510505218L183.3046875,6.069092662508279L184.46484375,11.606288336962457L185.625,81.84293606579304L186.78515624999997,-10.942177774260438L187.9453125,21.62236789378026L189.10546875,321.81079901953535L190.265625,69.48894897488255L191.42578125,-2.3586720618108883L192.5859375,50.895367533713575L193.74609375,86.9849547130366L194.90625,60.834008956452195L196.06640625000003,25.490994989064816L197.2265625,43.645210806404535L198.38671875,19.206709379764884L199.546875,47.23417832342285L200.70703125,41.27250005099922L201.8671875,25.76177888469148L203.02734375,29.918551062357906L204.18749999999997,26.640337891379982L205.34765625,-1.5959749860068266L206.5078125,59.327969065681096L207.66796875,31.542024143474787L208.828125,15.544187938297778L209.98828125,18.672073408775027L211.1484375,14.358874794219913L212.30859375,38.96817247581977L213.46875000000003,43.711769638396795L214.62890625,101.66022281174858L215.7890625,8.602911997089773L216.94921875,2.861192473645001L218.109375,180.31803386608757L222.75,-3.6071167940894737L223.91015625,1.7012163277715406L225.0703125,55.53907547903556L226.23046875,18.746453386855606L227.390625,-9.517221198913962L228.55078125,9.036207005505743L229.7109375,6.004273815825577L230.87109375000003,2.910843569599088L232.03125,6.332965828602496L233.19140625,7.877461152275386L234.3515625,8.117241673295679L235.51171875,0.6586979780966932L236.671875,57.261175848667804L237.83203125,5.389373552799221L238.99218749999997,273.86239996254443L240.15234375,20.17294255532324L241.3125,-9.14781352989378L242.47265625,46.76010438657054L243.6328125,15.311578265825897L244.79296875,-8.842908346590907L245.953125,-6.38826010115447L247.11328125,10.60536793911207L248.27343750000003,25.030320696656887L249.43359375,84.59732226543129L250.59375,33.291039801016446L251.75390625,-1.805296976305568L252.9140625,5.557217105415943L254.07421875,30.725724974771325L255.234375,78.5927349007378" fill="none"></path></g></g></g></g></g><g><g><span fill="rgb(0, 0, 0)" stroke="none" stroke-width="1.176471px">Alt + Scroll to Zoom</span></g></g></g><g transform="translate(51, 176)" clip-path="url(#clip_1)"><clipPath id="clip_1"><rect width="278" height="23"></rect></clipPath><g><g><line x1="0" y1="0" x2="0" y2="5" style="visibility: inherit;" fill="rgb(0, 0, 0)" stroke="rgb(204, 204, 204)" stroke-width="1.176471px"></line><line x1="23.203125" y1="0" x2="23.203125" y2="5" style="visibility: inherit;" fill="rgb(0, 0, 0)" stroke="rgb(204, 204, 204)" stroke-width="1.176471px"></line><line x1="46.40625" y1="0" x2="46.40625" y2="5" style="visibility: inherit;" fill="rgb(0, 0, 0)" stroke="rgb(204, 204, 204)" stroke-width="1.176471px"></line><line x1="69.609375" y1="0" x2="69.609375" y2="5" style="visibility: inherit;" fill="rgb(0, 0, 0)" stroke="rgb(204, 204, 204)" stroke-width="1.176471px"></line><line x1="92.8125" y1="0" x2="92.8125" y2="5" style="visibility: inherit;" fill="rgb(0, 0, 0)" stroke="rgb(204, 204, 204)" stroke-width="1.176471px"></line><line x1="116.015625" y1="0" x2="116.015625" y2="5" style="visibility: inherit;" fill="rgb(0, 0, 0)" stroke="rgb(204, 204, 204)" stroke-width="1.176471px"></line><line x1="139.21875" y1="0" x2="139.21875" y2="5" style="visibility: inherit;" fill="rgb(0, 0, 0)" stroke="rgb(204, 204, 204)" stroke-width="1.176471px"></line><line x1="162.421875" y1="0" x2="162.421875" y2="5" style="visibility: inherit;" fill="rgb(0, 0, 0)" stroke="rgb(204, 204, 204)" stroke-width="1.176471px"></line><line x1="185.625" y1="0" x2="185.625" y2="5" style="visibility: inherit;" fill="rgb(0, 0, 0)" stroke="rgb(204, 204, 204)" stroke-width="1.176471px"></line><line x1="208.828125" y1="0" x2="208.828125" y2="5" style="visibility: inherit;" fill="rgb(0, 0, 0)" stroke="rgb(204, 204, 204)" stroke-width="1.176471px"></line><line x1="232.03125" y1="0" x2="232.03125" y2="5" style="visibility: inherit;" fill="rgb(0, 0, 0)" stroke="rgb(204, 204, 204)" stroke-width="1.176471px"></line><line x1="255.234375" y1="0" x2="255.234375" y2="5" style="visibility: inherit;" fill="rgb(0, 0, 0)" stroke="rgb(204, 204, 204)" stroke-width="1.176471px"></line><line x1="278.4375" y1="0" x2="278.4375" y2="5" style="visibility: inherit;" fill="rgb(0, 0, 0)" stroke="rgb(204, 204, 204)" stroke-width="1.176471px"></line></g><g transform="translate(0, 8)"><text style="text-anchor: middle; visibility: hidden; font-family: Roboto, sans-serif; font-size: 14.117646px; font-weight: 200;" x="0" y="0" dx="0em" dy="0.95em" fill="rgb(33, 33, 33)" stroke="none" stroke-width="1.176471px">-10k</text><text style="text-anchor: middle; visibility: inherit; font-family: Roboto, sans-serif; font-size: 14.117646px; font-weight: 200;" x="23.203125" y="0" dx="0em" dy="0.95em" fill="rgb(33, 33, 33)" stroke="none" stroke-width="1.176471px">0</text><text style="text-anchor: middle; visibility: hidden; font-family: Roboto, sans-serif; font-size: 14.117646px; font-weight: 200;" x="46.40625" y="0" dx="0em" dy="0.95em" fill="rgb(33, 33, 33)" stroke="none" stroke-width="1.176471px">10k</text><text style="text-anchor: middle; visibility: inherit; font-family: Roboto, sans-serif; font-size: 14.117646px; font-weight: 200;" x="69.609375" y="0" dx="0em" dy="0.95em" fill="rgb(33, 33, 33)" stroke="none" stroke-width="1.176471px">20k</text><text style="text-anchor: middle; visibility: hidden; font-family: Roboto, sans-serif; font-size: 14.117646px; font-weight: 200;" x="92.8125" y="0" dx="0em" dy="0.95em" fill="rgb(33, 33, 33)" stroke="none" stroke-width="1.176471px">30k</text><text style="text-anchor: middle; visibility: inherit; font-family: Roboto, sans-serif; font-size: 14.117646px; font-weight: 200;" x="116.015625" y="0" dx="0em" dy="0.95em" fill="rgb(33, 33, 33)" stroke="none" stroke-width="1.176471px">40k</text><text style="text-anchor: middle; visibility: hidden; font-family: Roboto, sans-serif; font-size: 14.117646px; font-weight: 200;" x="139.21875" y="0" dx="0em" dy="0.95em" fill="rgb(33, 33, 33)" stroke="none" stroke-width="1.176471px">50k</text><text style="text-anchor: middle; visibility: inherit; font-family: Roboto, sans-serif; font-size: 14.117646px; font-weight: 200;" x="162.421875" y="0" dx="0em" dy="0.95em" fill="rgb(33, 33, 33)" stroke="none" stroke-width="1.176471px">60k</text><text style="text-anchor: middle; visibility: hidden; font-family: Roboto, sans-serif; font-size: 14.117646px; font-weight: 200;" x="185.625" y="0" dx="0em" dy="0.95em" fill="rgb(33, 33, 33)" stroke="none" stroke-width="1.176471px">70k</text><text style="text-anchor: middle; visibility: inherit; font-family: Roboto, sans-serif; font-size: 14.117646px; font-weight: 200;" x="208.828125" y="0" dx="0em" dy="0.95em" fill="rgb(33, 33, 33)" stroke="none" stroke-width="1.176471px">80k</text><text style="text-anchor: middle; visibility: hidden; font-family: Roboto, sans-serif; font-size: 14.117646px; font-weight: 200;" x="232.03125" y="0" dx="0em" dy="0.95em" fill="rgb(33, 33, 33)" stroke="none" stroke-width="1.176471px">90k</text><text style="text-anchor: middle; visibility: inherit; font-family: Roboto, sans-serif; font-size: 14.117646px; font-weight: 200;" x="255.234375" y="0" dx="0em" dy="0.95em" fill="rgb(33, 33, 33)" stroke="none" stroke-width="1.176471px">100k</text><text style="text-anchor: middle; visibility: hidden; font-family: Roboto, sans-serif; font-size: 14.117646px; font-weight: 200;" x="278.4375" y="0" dx="0em" dy="0.95em" fill="rgb(33, 33, 33)" stroke="none" stroke-width="1.176471px">110k</text></g><line x1="0" y1="0" x2="278.4375" y2="0" fill="rgb(0, 0, 0)" stroke="rgb(204, 204, 204)" stroke-width="1.176471px"></line></g></g></g></g></svg>