<svg viewBox="0 0 330 200" xmlns="http://www.w3.org/2000/svg"><g><g><g><g><g><line x1="40" y1="176.984375" x2="35" y2="176.984375" style="visibility: inherit;" fill="rgb(0, 0, 0)" stroke="rgb(204, 204, 204)" stroke-width="1.333333px"></line><line x1="40" y1="165.18541666666667" x2="35" y2="165.18541666666667" style="visibility: inherit;" fill="rgb(0, 0, 0)" stroke="rgb(204, 204, 204)" stroke-width="1.333333px"></line><line x1="40" y1="153.38645833333334" x2="35" y2="153.38645833333334" style="visibility: inherit;" fill="rgb(0, 0, 0)" stroke="rgb(204, 204, 204)" stroke-width="1.333333px"></line><line x1="40" y1="141.5875" x2="35" y2="141.5875" style="visibility: inherit;" fill="rgb(0, 0, 0)" stroke="rgb(204, 204, 204)" stroke-width="1.333333px"></line><line x1="40" y1="129.78854166666667" x2="35" y2="129.78854166666667" style="visibility: inherit;" fill="rgb(0, 0, 0)" stroke="rgb(204, 204, 204)" stroke-width="1.333333px"></line><line x1="40" y1="117.98958333333334" x2="35" y2="117.98958333333334" style="visibility: inherit;" fill="rgb(0, 0, 0)" stroke="rgb(204, 204, 204)" stroke-width="1.333333px"></line><line x1="40" y1="106.190625" x2="35" y2="106.190625" style="visibility: inherit;" fill="rgb(0, 0, 0)" stroke="rgb(204, 204, 204)" stroke-width="1.333333px"></line><line x1="40" y1="94.39166666666667" x2="35" y2="94.39166666666667" style="visibility: inherit;" fill="rgb(0, 0, 0)" stroke="rgb(204, 204, 204)" stroke-width="1.333333px"></line><line x1="40" y1="82.59270833333333" x2="35" y2="82.59270833333333" style="visibility: inherit;" fill="rgb(0, 0, 0)" stroke="rgb(204, 204, 204)" stroke-width="1.333333px"></line><line x1="40" y1="70.79375" x2="35" y2="70.79375" style="visibility: inherit;" fill="rgb(0, 0, 0)" stroke="rgb(204, 204, 204)" stroke-width="1.333333px"></line><line x1="40" y1="58.99479166666667" x2="35" y2="58.99479166666667" style="visibility: inherit;" fill="rgb(0, 0, 0)" stroke="rgb(204, 204, 204)" stroke-width="1.333333px"></line><line x1="40" y1="47.19583333333334" x2="35" y2="47.19583333333334" style="visibility: inherit;" fill="rgb(0, 0, 0)" stroke="rgb(204, 204, 204)" stroke-width="1.333333px"></line><line x1="40" y1="35.396874999999994" x2="35" y2="35.396874999999994" style="visibility: inherit;" fill="rgb(0, 0, 0)" stroke="rgb(204, 204, 204)" stroke-width="1.333333px"></line><line x1="40" y1="23.597916666666663" x2="35" y2="23.597916666666663" style="visibility: inherit;" fill="rgb(0, 0, 0)" stroke="rgb(204, 204, 204)" stroke-width="1.333333px"></line><line x1="40" y1="11.798958333333331" x2="35" y2="11.798958333333331" style="visibility: inherit;" fill="rgb(0, 0, 0)" stroke="rgb(204, 204, 204)" stroke-width="1.333333px"></line><line x1="40" y1="0" x2="35" y2="0" style="visibility: inherit;" fill="rgb(0, 0, 0)" stroke="rgb(204, 204, 204)" stroke-width="1.333333px"></line></g><g transform="translate(30, 0)"><text style="text-anchor: end; visibility: hidden; font-family: Roboto, sans-serif; font-size: 16px; font-weight: 200;" x="0" y="176.984375" dx="0em" dy="0.3em" fill="rgb(33, 33, 33)" stroke="none" stroke-width="1.333333px">380</text><text style="text-anchor: end; visibility: inherit; font-family: Roboto, sans-serif; font-size: 16px; font-weight: 200;" x="0" y="165.18541666666667" dx="0em" dy="0.3em" fill="rgb(33, 33, 33)" stroke="none" stroke-width="1.333333px">400</text><text style="text-anchor: end; visibility: hidden; font-family: Roboto, sans-serif; font-size: 16px; font-weight: 200;" x="0" y="153.38645833333334" dx="0em" dy="0.3em" fill="rgb(33, 33, 33)" stroke="none" stroke-width="1.333333px">420</text><text style="text-anchor: end; visibility: inherit; font-family: Roboto, sans-serif; font-size: 16px; font-weight: 200;" x="0" y="141.5875" dx="0em" dy="0.3em" fill="rgb(33, 33, 33)" stroke="none" stroke-width="1.333333px">440</text><text style="text-anchor: end; visibility: hidden; font-family: Roboto, sans-serif; font-size: 16px; font-weight: 200;" x="0" y="129.78854166666667" dx="0em" dy="0.3em" fill="rgb(33, 33, 33)" stroke="none" stroke-width="1.333333px">460</text><text style="text-anchor: end; visibility: inherit; font-family: Roboto, sans-serif; font-size: 16px; font-weight: 200;" x="0" y="117.98958333333334" dx="0em" dy="0.3em" fill="rgb(33, 33, 33)" stroke="none" stroke-width="1.333333px">480</text><text style="text-anchor: end; visibility: hidden; font-family: Roboto, sans-serif; font-size: 16px; font-weight: 200;" x="0" y="106.190625" dx="0em" dy="0.3em" fill="rgb(33, 33, 33)" stroke="none" stroke-width="1.333333px">500</text><text style="text-anchor: end; visibility: inherit; font-family: Roboto, sans-serif; font-size: 16px; font-weight: 200;" x="0" y="94.39166666666667" dx="0em" dy="0.3em" fill="rgb(33, 33, 33)" stroke="none" stroke-width="1.333333px">520</text><text style="text-anchor: end; visibility: hidden; font-family: Roboto, sans-serif; font-size: 16px; font-weight: 200;" x="0" y="82.59270833333333" dx="0em" dy="0.3em" fill="rgb(33, 33, 33)" stroke="none" stroke-width="1.333333px">540</text><text style="text-anchor: end; visibility: inherit; font-family: Roboto, sans-serif; font-size: 16px; font-weight: 200;" x="0" y="70.79375" dx="0em" dy="0.3em" fill="rgb(33, 33, 33)" stroke="none" stroke-width="1.333333px">560</text><text style="text-anchor: end; visibility: hidden; font-family: Roboto, sans-serif; font-size: 16px; font-weight: 200;" x="0" y="58.99479166666667" dx="0em" dy="0.3em" fill="rgb(33, 33, 33)" stroke="none" stroke-width="1.333333px">580</text><text style="text-anchor: end; visibility: inherit; font-family: Roboto, sans-serif; font-size: 16px; font-weight: 200;" x="0" y="47.19583333333334" dx="0em" dy="0.3em" fill="rgb(33, 33, 33)" stroke="none" stroke-width="1.333333px">600</text><text style="text-anchor: end; visibility: hidden; font-family: Roboto, sans-serif; font-size: 16px; font-weight: 200;" x="0" y="35.396874999999994" dx="0em" dy="0.3em" fill="rgb(33, 33, 33)" stroke="none" stroke-width="1.333333px">620</text><text style="text-anchor: end; visibility: inherit; font-family: Roboto, sans-serif; font-size: 16px; font-weight: 200;" x="0" y="23.597916666666663" dx="0em" dy="0.3em" fill="rgb(33, 33, 33)" stroke="none" stroke-width="1.333333px">640</text><text style="text-anchor: end; visibility: hidden; font-family: Roboto, sans-serif; font-size: 16px; font-weight: 200;" x="0" y="11.798958333333331" dx="0em" dy="0.3em" fill="rgb(33, 33, 33)" stroke="none" stroke-width="1.333333px">660</text><text style="text-anchor: end; visibility: hidden; font-family: Roboto, sans-serif; font-size: 16px; font-weight: 200;" x="0" y="0" dx="0em" dy="0.3em" fill="rgb(33, 33, 33)" stroke="none" stroke-width="1.333333px">680</text></g><line x1="40" y1="0" x2="40" y2="176.984375" fill="rgb(0, 0, 0)" stroke="rgb(204, 204, 204)" stroke-width="1.333333px"></line></g></g><g transform="translate(40, 0)" clip-path="url(#clip_0)"><clipPath id="clip_0"><rect width="290" height="176"></rect></clipPath><g><g><g><line x1="0" y1="0" x2="0" y2="176.984375" fill="rgb(0, 0, 0)" stroke="rgb(66, 66, 66)" stroke-width="1.333333px" opacity="0.25"></line><line x1="24.166666666666664" y1="0" x2="24.166666666666664" y2="176.984375" fill="rgb(0, 0, 0)" stroke="rgb(66, 66, 66)" stroke-width="1.333333px" opacity="0.25"></line><line x1="48.33333333333333" y1="0" x2="48.33333333333333" y2="176.984375" fill="rgb(0, 0, 0)" stroke="rgb(66, 66, 66)" stroke-width="1.333333px" opacity="0.25"></line><line x1="72.5" y1="0" x2="72.5" y2="176.984375" fill="rgb(0, 0, 0)" stroke="rgb(66, 66, 66)" stroke-width="1.333333px" opacity="0.25"></line><line x1="96.66666666666666" y1="0" x2="96.66666666666666" y2="176.984375" fill="rgb(0, 0, 0)" stroke="rgb(66, 66, 66)" stroke-width="1.333333px" opacity="0.25"></line><line x1="120.83333333333334" y1="0" x2="120.83333333333334" y2="176.984375" fill="rgb(0, 0, 0)" stroke="rgb(66, 66, 66)" stroke-width="1.333333px" opacity="0.25"></line><line x1="145" y1="0" x2="145" y2="176.984375" fill="rgb(0, 0, 0)" stroke="rgb(66, 66, 66)" stroke-width="1.333333px" opacity="0.25"></line><line x1="169.16666666666669" y1="0" x2="169.16666666666669" y2="176.984375" fill="rgb(0, 0, 0)" stroke="rgb(66, 66, 66)" stroke-width="1.333333px" opacity="0.25"></line><line x1="193.33333333333331" y1="0" x2="193.33333333333331" y2="176.984375" fill="rgb(0, 0, 0)" stroke="rgb(66, 66, 66)" stroke-width="1.333333px" opacity="0.25"></line><line x1="217.5" y1="0" x2="217.5" y2="176.984375" fill="rgb(0, 0, 0)" stroke="rgb(66, 66, 66)" stroke-width="1.333333px" opacity="0.25"></line><line x1="241.66666666666669" y1="0" x2="241.66666666666669" y2="176.984375" fill="rgb(0, 0, 0)" stroke="rgb(66, 66, 66)" stroke-width="1.333333px" opacity="0.25"></line><line x1="265.8333333333333" y1="0" x2="265.8333333333333" y2="176.984375" fill="rgb(0, 0, 0)" stroke="rgb(66, 66, 66)" stroke-width="1.333333px" opacity="0.25"></line><line x1="290" y1="0" x2="290" y2="176.984375" fill="rgb(0, 0, 0)" stroke="rgb(66, 66, 66)" stroke-width="1.333333px" opacity="0.25"></line></g><g><line x1="0" y1="176.984375" x2="290" y2="176.984375" fill="rgb(0, 0, 0)" stroke="rgb(66, 66, 66)" stroke-width="1.333333px" opacity="0.25"></line><line x1="0" y1="165.18541666666667" x2="290" y2="165.18541666666667" fill="rgb(0, 0, 0)" stroke="rgb(66, 66, 66)" stroke-width="1.333333px" opacity="0.25"></line><line x1="0" y1="153.38645833333334" x2="290" y2="153.38645833333334" fill="rgb(0, 0, 0)" stroke="rgb(66, 66, 66)" stroke-width="1.333333px" opacity="0.25"></line><line x1="0" y1="141.5875" x2="290" y2="141.5875" fill="rgb(0, 0, 0)" stroke="rgb(66, 66, 66)" stroke-width="1.333333px" opacity="0.25"></line><line x1="0" y1="129.78854166666667" x2="290" y2="129.78854166666667" fill="rgb(0, 0, 0)" stroke="rgb(66, 66, 66)" stroke-width="1.333333px" opacity="0.25"></line><line x1="0" y1="117.98958333333334" x2="290" y2="117.98958333333334" fill="rgb(0, 0, 0)" stroke="rgb(66, 66, 66)" stroke-width="1.333333px" opacity="0.25"></line><line x1="0" y1="106.190625" x2="290" y2="106.190625" fill="rgb(0, 0, 0)" stroke="rgb(66, 66, 66)" stroke-width="1.333333px" opacity="0.25"></line><line x1="0" y1="94.39166666666667" x2="290" y2="94.39166666666667" fill="rgb(0, 0, 0)" stroke="rgb(66, 66, 66)" stroke-width="1.333333px" opacity="0.25"></line><line x1="0" y1="82.59270833333333" x2="290" y2="82.59270833333333" fill="rgb(0, 0, 0)" stroke="rgb(66, 66, 66)" stroke-width="1.333333px" opacity="0.25"></line><line x1="0" y1="70.79375" x2="290" y2="70.79375" fill="rgb(0, 0, 0)" stroke="rgb(66, 66, 66)" stroke-width="1.333333px" opacity="0.25"></line><line x1="0" y1="58.99479166666667" x2="290" y2="58.99479166666667" fill="rgb(0, 0, 0)" stroke="rgb(66, 66, 66)" stroke-width="1.333333px" opacity="0.25"></line><line x1="0" y1="47.19583333333334" x2="290" y2="47.19583333333334" fill="rgb(0, 0, 0)" stroke="rgb(66, 66, 66)" stroke-width="1.333333px" opacity="0.25"></line><line x1="0" y1="35.396874999999994" x2="290" y2="35.396874999999994" fill="rgb(0, 0, 0)" stroke="rgb(66, 66, 66)" stroke-width="1.333333px" opacity="0.25"></line><line x1="0" y1="23.597916666666663" x2="290" y2="23.597916666666663" fill="rgb(0, 0, 0)" stroke="rgb(66, 66, 66)" stroke-width="1.333333px" opacity="0.25"></line><line x1="0" y1="11.798958333333331" x2="290" y2="11.798958333333331" fill="rgb(0, 0, 0)" stroke="rgb(66, 66, 66)" stroke-width="1.333333px" opacity="0.25"></line><line x1="0" y1="0" x2="290" y2="0" fill="rgb(0, 0, 0)" stroke="rgb(66, 66, 66)" stroke-width="1.333333px" opacity="0.25"></line></g></g></g><g><g><line x1="0" y1="401.1645833333333" x2="290" y2="401.1645833333333" fill="rgb(0, 0, 0)" stroke="rgb(153, 153, 153)" stroke-width="2px"></line></g></g><g><g><line x1="24.166666666666664" y1="0" x2="24.166666666666664" y2="176.984375" fill="rgb(0, 0, 0)" stroke="rgb(153, 153, 153)" stroke-width="2px"></line></g></g><g><g><g><g><g><path style="fill: none;" stroke="rgb(255, 112, 67)" stroke-width="2.666667px" d="M34.065333333333335,-13.00054342830875L36.54,4.408438006014326L39.01466666666667,13.697516552262336L41.489333333333335,18.98560506597485L43.964000000000006,22.782130081184413L46.43866666666666,25.018818716827283L48.913333333333334,26.1089033885915L51.388,26.521881973971247L53.86266666666667,26.768708137883074L56.33733333333333,31.64221502094828L58.812000000000005,42.35566201575229L61.28666666666667,57.98587129916224L63.76133333333333,67.12324636676388L66.236,71.89596401505423L68.71066666666667,75.46708692545393L71.18533333333333,81.85741238931197L73.66,84.74740726304532L76.13466666666667,85.77338353128457L78.60933333333334,86.15297261498694L81.084,88.97651420068678L83.55866666666667,90.19866431142535L86.03333333333335,90.93195067160941L88.50800000000001,92.78779856870302L90.98266666666666,96.02511995458899L93.45733333333332,99.38338653504549L95.93199999999999,101.39834516345199L98.40666666666667,103.78721595952155L100.88133333333333,104.98455890120037L103.356,106.88286049179962L105.83066666666667,107.549882993598L108.30533333333334,107.95009647429212L110.78,109.37012040898648L113.25466666666667,110.69409309238124L115.72933333333334,113.14033087056761L118.20400000000001,115.55199019796218L120.67866666666667,117.706923290245L123.15333333333334,120.41575814443469L125.62799999999999,122.51301738834294L128.10266666666666,124.95126876751242L130.5773333333333,127.5941154279372L133.052,130.595698423949L135.52666666666667,133.10458572129687L138.00133333333332,135.31785559958288L140.476,137.82571335984355L142.95066666666668,139.80238634928386L145.42533333333333,141.4603484762593L147.9,143.39904241910457L150.37466666666666,144.56225878480174L152.84933333333333,145.96812610421844L155.32399999999998,146.81164649586586L157.79866666666666,147.5537378975203L160.2733333333333,148.47095107184612L162.74800000000002,149.72921647644145L165.22266666666667,151.19211321919855L167.69733333333335,152.7777887648527L170.172,153.9651732589117L172.64666666666668,154.44162478868043L175.12133333333333,154.7274957065416L177.596,155.13499742392494L180.07066666666668,156.08743595435493L182.54533333333333,157.1308574059463L185.02,157.75691027690112L187.49466666666666,158.36852116614065L189.96933333333334,158.97146686635108L192.444,159.3332342864773L194.91866666666667,159.55029473855305L197.39333333333332,159.6805310097985L199.86800000000002,159.52269360587908L202.34266666666667,159.42799116352748L204.81733333333335,159.37116969811646L207.292,159.10109765220326L209.76666666666668,158.70307525798862L212.24133333333333,158.46426182145984L214.71599999999998,158.0849945928759L217.19066666666666,157.85743425572554L219.6653333333333,157.72089805343535L222.14000000000001,157.6389763320612L224.61466666666666,157.8258024659034L227.08933333333334,157.93789814620868L229.564,157.7691763877252L232.03866666666667,157.6679433326351L234.51333333333332,157.60720349958106L236.988,157.5707595997486L239.46266666666665,157.54889325984917L241.93733333333336,157.29979428924284L244.412,157.3863140735457L246.88666666666668,157.20224677746077L249.36133333333333,157.09180639980977L251.83599999999998,156.78956300655253L254.31066666666666,156.60821697059822L256.7853333333333,156.26343018235892L259.26,155.82057894274868L261.73466666666667,155.79084736564923L264.20933333333335,155.77300841938956L266.68399999999997,155.52632588496704" fill="none"></path></g></g></g></g><g opacity="0.2"><g><g><g><path style="fill: none;" stroke="rgb(255, 112, 67)" stroke-width="2.666667px" d="M31.590666666666664,-2.9497395833333226L34.065333333333335,23.00796875L36.54,27.137604166666666L39.01466666666667,26.547656250000003L41.489333333333335,26.547656250000003L43.964000000000006,28.317500000000006L46.43866666666666,28.317500000000006L48.913333333333334,27.727552083333325L51.388,27.137604166666666L53.86266666666667,27.137604166666666L56.33733333333333,38.936562499999994L58.812000000000005,58.40484374999999L61.28666666666667,81.41281249999999L63.76133333333333,80.82286458333333L66.236,79.05302083333333L68.71066666666667,80.82286458333333L71.18533333333333,91.44192708333333L73.66,89.08213541666667L76.13466666666667,87.31229166666665L78.60933333333334,86.72234375L81.084,93.21177083333332L83.55866666666667,92.031875L86.03333333333335,92.031875L88.50800000000001,95.57156250000001L90.98266666666666,100.88109375L93.45733333333332,104.42078125000002L95.93199999999999,104.42078125000002L98.40666666666667,107.37052083333333L100.88133333333333,106.78057291666666L103.356,109.7303125L105.83066666666667,108.55041666666666L108.30533333333334,108.55041666666666L110.78,111.50015625L113.25466666666667,112.68005208333334L115.72933333333334,116.80968749999998L118.20400000000001,119.16947916666666L120.67866666666667,120.93932291666667L123.15333333333334,124.47901041666667L125.62799999999999,125.65890624999999L128.10266666666666,128.60864583333333L130.5773333333333,131.55838541666668L133.052,135.09807291666667L135.52666666666667,136.86791666666667L138.00133333333332,138.63776041666665L140.476,141.5875L142.95066666666668,142.76739583333332L145.42533333333333,143.94729166666667L147.9,146.30708333333334L150.37466666666666,146.30708333333334L152.84933333333333,148.07692708333335L155.32399999999998,148.07692708333335L157.79866666666666,148.666875L160.2733333333333,149.84677083333332L162.74800000000002,151.61661458333333L165.22266666666667,153.38645833333334L167.69733333333335,155.15630208333334L170.172,155.74625L172.64666666666668,155.15630208333334L175.12133333333333,155.15630208333334L177.596,155.74625L180.07066666666668,157.51609375L182.54533333333333,158.69598958333333L185.02,158.69598958333333L187.49466666666666,159.28593750000002L189.96933333333334,159.87588541666668L192.444,159.87588541666668L194.91866666666667,159.87588541666668L197.39333333333332,159.87588541666668L199.86800000000002,159.28593750000002L202.34266666666667,159.28593750000002L204.81733333333335,159.28593750000002L207.292,158.69598958333333L209.76666666666668,158.10604166666667L212.24133333333333,158.10604166666667L214.71599999999998,157.51609375L217.19066666666666,157.51609375L219.6653333333333,157.51609375L222.14000000000001,157.51609375L224.61466666666666,158.10604166666667L227.08933333333334,158.10604166666667L229.564,157.51609375L232.03866666666667,157.51609375L234.51333333333332,157.51609375L236.988,157.51609375L239.46266666666665,157.51609375L241.93733333333336,156.92614583333335L244.412,157.51609375L246.88666666666668,156.92614583333335L249.36133333333333,156.92614583333335L251.83599999999998,156.33619791666666L254.31066666666666,156.33619791666666L256.7853333333333,155.74625L259.26,155.15630208333334L261.73466666666667,155.74625L264.20933333333335,155.74625L266.68399999999997,155.15630208333334" fill="none"></path></g></g></g></g></g></g><g transform="translate(40, 176)" clip-path="url(#clip_1)"><clipPath id="clip_1"><rect width="290" height="23"></rect></clipPath><g><g><line x1="0" y1="0" x2="0" y2="5" style="visibility: inherit;" fill="rgb(0, 0, 0)" stroke="rgb(204, 204, 204)" stroke-width="1.333333px"></line><line x1="24.166666666666664" y1="0" x2="24.166666666666664" y2="5" style="visibility: inherit;" fill="rgb(0, 0, 0)" stroke="rgb(204, 204, 204)" stroke-width="1.333333px"></line><line x1="48.33333333333333" y1="0" x2="48.33333333333333" y2="5" style="visibility: inherit;" fill="rgb(0, 0, 0)" stroke="rgb(204, 204, 204)" stroke-width="1.333333px"></line><line x1="72.5" y1="0" x2="72.5" y2="5" style="visibility: inherit;" fill="rgb(0, 0, 0)" stroke="rgb(204, 204, 204)" stroke-width="1.333333px"></line><line x1="96.66666666666666" y1="0" x2="96.66666666666666" y2="5" style="visibility: inherit;" fill="rgb(0, 0, 0)" stroke="rgb(204, 204, 204)" stroke-width="1.333333px"></line><line x1="120.83333333333334" y1="0" x2="120.83333333333334" y2="5" style="visibility: inherit;" fill="rgb(0, 0, 0)" stroke="rgb(204, 204, 204)" stroke-width="1.333333px"></line><line x1="145" y1="0" x2="145" y2="5" style="visibility: inherit;" fill="rgb(0, 0, 0)" stroke="rgb(204, 204, 204)" stroke-width="1.333333px"></line><line x1="169.16666666666669" y1="0" x2="169.16666666666669" y2="5" style="visibility: inherit;" fill="rgb(0, 0, 0)" stroke="rgb(204, 204, 204)" stroke-width="1.333333px"></line><line x1="193.33333333333331" y1="0" x2="193.33333333333331" y2="5" style="visibility: inherit;" fill="rgb(0, 0, 0)" stroke="rgb(204, 204, 204)" stroke-width="1.333333px"></line><line x1="217.5" y1="0" x2="217.5" y2="5" style="visibility: inherit;" fill="rgb(0, 0, 0)" stroke="rgb(204, 204, 204)" stroke-width="1.333333px"></line><line x1="241.66666666666669" y1="0" x2="241.66666666666669" y2="5" style="visibility: inherit;" fill="rgb(0, 0, 0)" stroke="rgb(204, 204, 204)" stroke-width="1.333333px"></line><line x1="265.8333333333333" y1="0" x2="265.8333333333333" y2="5" style="visibility: inherit;" fill="rgb(0, 0, 0)" stroke="rgb(204, 204, 204)" stroke-width="1.333333px"></line><line x1="290" y1="0" x2="290" y2="5" style="visibility: inherit;" fill="rgb(0, 0, 0)" stroke="rgb(204, 204, 204)" stroke-width="1.333333px"></line></g><g transform="translate(0, 8)"><text style="text-anchor: middle; visibility: hidden; font-family: Roboto, sans-serif; font-size: 16px; font-weight: 200;" x="0" y="0" dx="0em" dy="0.95em" fill="rgb(33, 33, 33)" stroke="none" stroke-width="1.333333px">-10k</text><text style="text-anchor: middle; visibility: inherit; font-family: Roboto, sans-serif; font-size: 16px; font-weight: 200;" x="24.166666666666664" y="0" dx="0em" dy="0.95em" fill="rgb(33, 33, 33)" stroke="none" stroke-width="1.333333px">0</text><text style="text-anchor: middle; visibility: hidden; font-family: Roboto, sans-serif; font-size: 16px; font-weight: 200;" x="48.33333333333333" y="0" dx="0em" dy="0.95em" fill="rgb(33, 33, 33)" stroke="none" stroke-width="1.333333px">10k</text><text style="text-anchor: middle; visibility: inherit; font-family: Roboto, sans-serif; font-size: 16px; font-weight: 200;" x="72.5" y="0" dx="0em" dy="0.95em" fill="rgb(33, 33, 33)" stroke="none" stroke-width="1.333333px">20k</text><text style="text-anchor: middle; visibility: hidden; font-family: Roboto, sans-serif; font-size: 16px; font-weight: 200;" x="96.66666666666666" y="0" dx="0em" dy="0.95em" fill="rgb(33, 33, 33)" stroke="none" stroke-width="1.333333px">30k</text><text style="text-anchor: middle; visibility: inherit; font-family: Roboto, sans-serif; font-size: 16px; font-weight: 200;" x="120.83333333333334" y="0" dx="0em" dy="0.95em" fill="rgb(33, 33, 33)" stroke="none" stroke-width="1.333333px">40k</text><text style="text-anchor: middle; visibility: hidden; font-family: Roboto, sans-serif; font-size: 16px; font-weight: 200;" x="145" y="0" dx="0em" dy="0.95em" fill="rgb(33, 33, 33)" stroke="none" stroke-width="1.333333px">50k</text><text style="text-anchor: middle; visibility: inherit; font-family: Roboto, sans-serif; font-size: 16px; font-weight: 200;" x="169.16666666666669" y="0" dx="0em" dy="0.95em" fill="rgb(33, 33, 33)" stroke="none" stroke-width="1.333333px">60k</text><text style="text-anchor: middle; visibility: hidden; font-family: Roboto, sans-serif; font-size: 16px; font-weight: 200;" x="193.33333333333331" y="0" dx="0em" dy="0.95em" fill="rgb(33, 33, 33)" stroke="none" stroke-width="1.333333px">70k</text><text style="text-anchor: middle; visibility: inherit; font-family: Roboto, sans-serif; font-size: 16px; font-weight: 200;" x="217.5" y="0" dx="0em" dy="0.95em" fill="rgb(33, 33, 33)" stroke="none" stroke-width="1.333333px">80k</text><text style="text-anchor: middle; visibility: hidden; font-family: Roboto, sans-serif; font-size: 16px; font-weight: 200;" x="241.66666666666669" y="0" dx="0em" dy="0.95em" fill="rgb(33, 33, 33)" stroke="none" stroke-width="1.333333px">90k</text><text style="text-anchor: middle; visibility: inherit; font-family: Roboto, sans-serif; font-size: 16px; font-weight: 200;" x="265.8333333333333" y="0" dx="0em" dy="0.95em" fill="rgb(33, 33, 33)" stroke="none" stroke-width="1.333333px">100k</text><text style="text-anchor: middle; visibility: hidden; font-family: Roboto, sans-serif; font-size: 16px; font-weight: 200;" x="290" y="0" dx="0em" dy="0.95em" fill="rgb(33, 33, 33)" stroke="none" stroke-width="1.333333px">110k</text></g><line x1="0" y1="0" x2="290" y2="0" fill="rgb(0, 0, 0)" stroke="rgb(204, 204, 204)" stroke-width="1.333333px"></line></g></g></g></g></svg>