<svg viewBox="0 0 330 200" xmlns="http://www.w3.org/2000/svg"><g><g><g><g><g><line x1="50" y1="176.984375" x2="45" y2="176.984375" style="visibility: inherit;" fill="rgb(0, 0, 0)" stroke="rgb(204, 204, 204)" stroke-width="1.333333px"></line><line x1="50" y1="160.89488636363635" x2="45" y2="160.89488636363635" style="visibility: inherit;" fill="rgb(0, 0, 0)" stroke="rgb(204, 204, 204)" stroke-width="1.333333px"></line><line x1="50" y1="144.80539772727272" x2="45" y2="144.80539772727272" style="visibility: inherit;" fill="rgb(0, 0, 0)" stroke="rgb(204, 204, 204)" stroke-width="1.333333px"></line><line x1="50" y1="128.7159090909091" x2="45" y2="128.7159090909091" style="visibility: inherit;" fill="rgb(0, 0, 0)" stroke="rgb(204, 204, 204)" stroke-width="1.333333px"></line><line x1="50" y1="112.62642045454545" x2="45" y2="112.62642045454545" style="visibility: inherit;" fill="rgb(0, 0, 0)" stroke="rgb(204, 204, 204)" stroke-width="1.333333px"></line><line x1="50" y1="96.53693181818181" x2="45" y2="96.53693181818181" style="visibility: inherit;" fill="rgb(0, 0, 0)" stroke="rgb(204, 204, 204)" stroke-width="1.333333px"></line><line x1="50" y1="80.44744318181819" x2="45" y2="80.44744318181819" style="visibility: inherit;" fill="rgb(0, 0, 0)" stroke="rgb(204, 204, 204)" stroke-width="1.333333px"></line><line x1="50" y1="64.35795454545456" x2="45" y2="64.35795454545456" style="visibility: inherit;" fill="rgb(0, 0, 0)" stroke="rgb(204, 204, 204)" stroke-width="1.333333px"></line><line x1="50" y1="48.26846590909093" x2="45" y2="48.26846590909093" style="visibility: inherit;" fill="rgb(0, 0, 0)" stroke="rgb(204, 204, 204)" stroke-width="1.333333px"></line><line x1="50" y1="32.17897727272728" x2="45" y2="32.17897727272728" style="visibility: inherit;" fill="rgb(0, 0, 0)" stroke="rgb(204, 204, 204)" stroke-width="1.333333px"></line><line x1="50" y1="16.08948863636364" x2="45" y2="16.08948863636364" style="visibility: inherit;" fill="rgb(0, 0, 0)" stroke="rgb(204, 204, 204)" stroke-width="1.333333px"></line><line x1="50" y1="0" x2="45" y2="0" style="visibility: inherit;" fill="rgb(0, 0, 0)" stroke="rgb(204, 204, 204)" stroke-width="1.333333px"></line></g><g transform="translate(40, 0)"><text style="text-anchor: end; visibility: hidden; font-family: Roboto, sans-serif; font-size: 16px; font-weight: 200;" x="0" y="176.984375" dx="0em" dy="0.3em" fill="rgb(33, 33, 33)" stroke="none" stroke-width="1.333333px">-0.1</text><text style="text-anchor: end; visibility: inherit; font-family: Roboto, sans-serif; font-size: 16px; font-weight: 200;" x="0" y="160.89488636363635" dx="0em" dy="0.3em" fill="rgb(33, 33, 33)" stroke="none" stroke-width="1.333333px">0</text><text style="text-anchor: end; visibility: hidden; font-family: Roboto, sans-serif; font-size: 16px; font-weight: 200;" x="0" y="144.80539772727272" dx="0em" dy="0.3em" fill="rgb(33, 33, 33)" stroke="none" stroke-width="1.333333px">0.1</text><text style="text-anchor: end; visibility: inherit; font-family: Roboto, sans-serif; font-size: 16px; font-weight: 200;" x="0" y="128.7159090909091" dx="0em" dy="0.3em" fill="rgb(33, 33, 33)" stroke="none" stroke-width="1.333333px">0.2</text><text style="text-anchor: end; visibility: hidden; font-family: Roboto, sans-serif; font-size: 16px; font-weight: 200;" x="0" y="112.62642045454545" dx="0em" dy="0.3em" fill="rgb(33, 33, 33)" stroke="none" stroke-width="1.333333px">0.3</text><text style="text-anchor: end; visibility: inherit; font-family: Roboto, sans-serif; font-size: 16px; font-weight: 200;" x="0" y="96.53693181818181" dx="0em" dy="0.3em" fill="rgb(33, 33, 33)" stroke="none" stroke-width="1.333333px">0.4</text><text style="text-anchor: end; visibility: hidden; font-family: Roboto, sans-serif; font-size: 16px; font-weight: 200;" x="0" y="80.44744318181819" dx="0em" dy="0.3em" fill="rgb(33, 33, 33)" stroke="none" stroke-width="1.333333px">0.5</text><text style="text-anchor: end; visibility: inherit; font-family: Roboto, sans-serif; font-size: 16px; font-weight: 200;" x="0" y="64.35795454545456" dx="0em" dy="0.3em" fill="rgb(33, 33, 33)" stroke="none" stroke-width="1.333333px">0.6</text><text style="text-anchor: end; visibility: hidden; font-family: Roboto, sans-serif; font-size: 16px; font-weight: 200;" x="0" y="48.26846590909093" dx="0em" dy="0.3em" fill="rgb(33, 33, 33)" stroke="none" stroke-width="1.333333px">0.7</text><text style="text-anchor: end; visibility: inherit; font-family: Roboto, sans-serif; font-size: 16px; font-weight: 200;" x="0" y="32.17897727272728" dx="0em" dy="0.3em" fill="rgb(33, 33, 33)" stroke="none" stroke-width="1.333333px">0.8</text><text style="text-anchor: end; visibility: hidden; font-family: Roboto, sans-serif; font-size: 16px; font-weight: 200;" x="0" y="16.08948863636364" dx="0em" dy="0.3em" fill="rgb(33, 33, 33)" stroke="none" stroke-width="1.333333px">0.9</text><text style="text-anchor: end; visibility: hidden; font-family: Roboto, sans-serif; font-size: 16px; font-weight: 200;" x="0" y="0" dx="0em" dy="0.3em" fill="rgb(33, 33, 33)" stroke="none" stroke-width="1.333333px">1</text></g><line x1="50" y1="0" x2="50" y2="176.984375" fill="rgb(0, 0, 0)" stroke="rgb(204, 204, 204)" stroke-width="1.333333px"></line></g></g><g transform="translate(50, 0)" clip-path="url(#clip_0)"><clipPath id="clip_0"><rect width="280" height="176"></rect></clipPath><g><g><g><line x1="0" y1="0" x2="0" y2="176.984375" fill="rgb(0, 0, 0)" stroke="rgb(66, 66, 66)" stroke-width="1.333333px" opacity="0.25"></line><line x1="23.333333333333332" y1="0" x2="23.333333333333332" y2="176.984375" fill="rgb(0, 0, 0)" stroke="rgb(66, 66, 66)" stroke-width="1.333333px" opacity="0.25"></line><line x1="46.666666666666664" y1="0" x2="46.666666666666664" y2="176.984375" fill="rgb(0, 0, 0)" stroke="rgb(66, 66, 66)" stroke-width="1.333333px" opacity="0.25"></line><line x1="70" y1="0" x2="70" y2="176.984375" fill="rgb(0, 0, 0)" stroke="rgb(66, 66, 66)" stroke-width="1.333333px" opacity="0.25"></line><line x1="93.33333333333333" y1="0" x2="93.33333333333333" y2="176.984375" fill="rgb(0, 0, 0)" stroke="rgb(66, 66, 66)" stroke-width="1.333333px" opacity="0.25"></line><line x1="116.66666666666667" y1="0" x2="116.66666666666667" y2="176.984375" fill="rgb(0, 0, 0)" stroke="rgb(66, 66, 66)" stroke-width="1.333333px" opacity="0.25"></line><line x1="140" y1="0" x2="140" y2="176.984375" fill="rgb(0, 0, 0)" stroke="rgb(66, 66, 66)" stroke-width="1.333333px" opacity="0.25"></line><line x1="163.33333333333334" y1="0" x2="163.33333333333334" y2="176.984375" fill="rgb(0, 0, 0)" stroke="rgb(66, 66, 66)" stroke-width="1.333333px" opacity="0.25"></line><line x1="186.66666666666666" y1="0" x2="186.66666666666666" y2="176.984375" fill="rgb(0, 0, 0)" stroke="rgb(66, 66, 66)" stroke-width="1.333333px" opacity="0.25"></line><line x1="210" y1="0" x2="210" y2="176.984375" fill="rgb(0, 0, 0)" stroke="rgb(66, 66, 66)" stroke-width="1.333333px" opacity="0.25"></line><line x1="233.33333333333334" y1="0" x2="233.33333333333334" y2="176.984375" fill="rgb(0, 0, 0)" stroke="rgb(66, 66, 66)" stroke-width="1.333333px" opacity="0.25"></line><line x1="256.66666666666663" y1="0" x2="256.66666666666663" y2="176.984375" fill="rgb(0, 0, 0)" stroke="rgb(66, 66, 66)" stroke-width="1.333333px" opacity="0.25"></line><line x1="280" y1="0" x2="280" y2="176.984375" fill="rgb(0, 0, 0)" stroke="rgb(66, 66, 66)" stroke-width="1.333333px" opacity="0.25"></line></g><g><line x1="0" y1="176.984375" x2="280" y2="176.984375" fill="rgb(0, 0, 0)" stroke="rgb(66, 66, 66)" stroke-width="1.333333px" opacity="0.25"></line><line x1="0" y1="160.89488636363635" x2="280" y2="160.89488636363635" fill="rgb(0, 0, 0)" stroke="rgb(66, 66, 66)" stroke-width="1.333333px" opacity="0.25"></line><line x1="0" y1="144.80539772727272" x2="280" y2="144.80539772727272" fill="rgb(0, 0, 0)" stroke="rgb(66, 66, 66)" stroke-width="1.333333px" opacity="0.25"></line><line x1="0" y1="128.7159090909091" x2="280" y2="128.7159090909091" fill="rgb(0, 0, 0)" stroke="rgb(66, 66, 66)" stroke-width="1.333333px" opacity="0.25"></line><line x1="0" y1="112.62642045454545" x2="280" y2="112.62642045454545" fill="rgb(0, 0, 0)" stroke="rgb(66, 66, 66)" stroke-width="1.333333px" opacity="0.25"></line><line x1="0" y1="96.53693181818181" x2="280" y2="96.53693181818181" fill="rgb(0, 0, 0)" stroke="rgb(66, 66, 66)" stroke-width="1.333333px" opacity="0.25"></line><line x1="0" y1="80.44744318181819" x2="280" y2="80.44744318181819" fill="rgb(0, 0, 0)" stroke="rgb(66, 66, 66)" stroke-width="1.333333px" opacity="0.25"></line><line x1="0" y1="64.35795454545456" x2="280" y2="64.35795454545456" fill="rgb(0, 0, 0)" stroke="rgb(66, 66, 66)" stroke-width="1.333333px" opacity="0.25"></line><line x1="0" y1="48.26846590909093" x2="280" y2="48.26846590909093" fill="rgb(0, 0, 0)" stroke="rgb(66, 66, 66)" stroke-width="1.333333px" opacity="0.25"></line><line x1="0" y1="32.17897727272728" x2="280" y2="32.17897727272728" fill="rgb(0, 0, 0)" stroke="rgb(66, 66, 66)" stroke-width="1.333333px" opacity="0.25"></line><line x1="0" y1="16.08948863636364" x2="280" y2="16.08948863636364" fill="rgb(0, 0, 0)" stroke="rgb(66, 66, 66)" stroke-width="1.333333px" opacity="0.25"></line><line x1="0" y1="0" x2="280" y2="0" fill="rgb(0, 0, 0)" stroke="rgb(66, 66, 66)" stroke-width="1.333333px" opacity="0.25"></line></g></g></g><g><g><line x1="0" y1="160.89488636363635" x2="280" y2="160.89488636363635" fill="rgb(0, 0, 0)" stroke="rgb(153, 153, 153)" stroke-width="2px"></line></g></g><g><g><line x1="23.333333333333332" y1="0" x2="23.333333333333332" y2="176.984375" fill="rgb(0, 0, 0)" stroke="rgb(153, 153, 153)" stroke-width="2px"></line></g></g><g><g><g><g><g><path style="fill: none;" stroke="rgb(255, 112, 67)" stroke-width="2.666667px" d="M28.112000000000002,159.96323861435735L30.50133333333333,159.76753499856304L32.89066666666667,163.12939653890155L35.28,161.9946192429285L37.669333333333334,161.6304241523127L40.05866666666667,161.5048916969775L42.448,161.37589633201054L44.83733333333333,161.82010885683914L47.22666666666667,161.47037077500084L49.616,170.23737438100696L52.00533333333333,166.64856452916766L54.394666666666666,164.34183417902787L56.784,162.93670376801077L59.17333333333334,158.86127616929082L61.562666666666665,153.6816518362899L63.952,154.18006867753346L66.34133333333334,134.53291863155872L68.73066666666666,146.13518944679694L71.12,132.87379974125204L73.50933333333333,151.20305748855142L75.89866666666667,142.97118941171178L78.28800000000001,165.93207705159878L80.67733333333334,138.72138397093L83.06666666666668,126.93503388321143L85.456,138.20418347675482L87.84533333333333,116.24764122692167L90.23466666666666,109.27324354762096L92.624,118.30597627535008L95.01333333333334,102.67218950466216L97.40266666666666,83.92140336737933L99.792,96.19341137488203L102.18133333333333,87.29443850854521L104.57066666666667,73.37571328053873L106.96000000000001,101.1390464606595L109.34933333333333,69.08112887760448L111.73866666666667,57.1451105525387L114.128,73.25826570090248L116.51733333333334,58.716850679443624L118.90666666666668,81.6325304335785L121.29599999999999,79.94184395412785L123.68533333333333,66.35588491059563L126.07466666666666,79.49440783898281L128.464,69.99907982375568L130.85333333333332,57.668933109246936L133.24266666666665,82.8324091111859L135.632,57.75478874256127L138.02133333333333,42.32748640918927L140.41066666666666,80.5884986707414L142.8,99.86895886415908L145.1893333333333,65.52731561207723L147.57866666666666,63.175617114637355L149.968,41.286545672625245L152.35733333333334,34.57590331655973L154.74666666666667,26.410595552611806L157.136,18.23141469725307L159.52533333333332,14.715783912810009L161.91466666666668,14.946339551432375L164.304,14.26920136332817L166.69333333333336,13.587767474067897L169.08266666666665,45.0186947016211L171.472,32.19101604276702L173.86133333333333,24.8862289320971L176.25066666666666,23.629527938620594L178.64000000000001,20.53363603657318L181.0293333333333,19.01090218519035L183.41866666666667,64.79591949912292L185.808,46.72625171417875L188.19733333333335,47.755830099649714L190.58666666666667,76.61849923276861L192.976,101.75473390054083L195.36533333333333,87.46146494399154L197.75466666666668,70.29058772420726L200.144,87.2139988631304L202.53333333333336,68.71879405633025L204.92266666666666,50.118252489599065L207.31199999999998,42.186578444592364L209.70133333333334,48.23491423517328L212.09066666666666,35.64673320601664L214.48000000000002,55.07161675537343L216.86933333333332,39.56289124629274L219.25866666666667,27.873580599606118L221.648,21.020355735926795L224.03733333333335,53.142418726563385L226.42666666666665,43.63507460434759L228.816,35.26352807726361L231.20533333333333,32.31509229347374L233.59466666666668,47.43393219200477L235.984,87.969050259991L238.37333333333333,103.27000784698609L240.76266666666666,118.31645229042027L243.152,100.21182725003361L245.54133333333334,82.8953409626435L247.93066666666667,62.18040189602354L250.32,68.47101873927072L252.70933333333332,64.75242335254514L255.09866666666667,72.69602147703833L257.488,55.62369040609499" fill="none"></path></g></g></g></g><g opacity="0.2"><g><g><g><path style="fill: none;" stroke="rgb(255, 112, 67)" stroke-width="2.666667px" d="M28.112000000000002,159.96323861435735L30.50133333333333,159.65011282908645L32.89066666666667,166.35678361762652L35.28,160.66012114286423L37.669333333333334,161.15493104200473L40.05866666666667,161.33123511956495L42.448,161.19143089618197L44.83733333333333,162.46777498247948L47.22666666666667,160.95457503741437L49.616,183.25535299425775L52.00533333333333,161.29789999262852L54.394666666666666,160.89429177851838L56.784,160.83359614607284L59.17333333333334,152.75611895813861L61.562666666666665,145.91830379075626L63.952,154.9273424172266L66.34133333333334,105.07050757804379L68.73066666666666,163.5356498543512L71.12,112.98373542218047L73.50933333333333,178.69526874274015L75.89866666666667,130.6238387516615L78.28800000000001,200.37265297364104L80.67733333333334,97.90588157759473L83.06666666666668,109.25564837218687L85.456,155.10782777077773L87.84533333333333,83.31292148679496L90.23466666666666,98.81166487424213L92.624,131.85506149957126L95.01333333333334,79.22152374955742L97.40266666666666,55.79523452472958L99.792,114.60141931660473L102.18133333333333,73.94598097963768L104.57066666666667,52.49762710014528L106.96000000000001,142.78404424221003L109.34933333333333,20.994253880767676L111.73866666666667,39.24108337272299L114.128,97.42799817415124L116.51733333333334,36.904728282243035L118.90666666666668,116.00604993714529L121.29599999999999,77.40581424060194L123.68533333333333,45.976946372538826L126.07466666666666,99.20219221575695L128.464,55.756087807769134L130.85333333333332,39.173713042824126L133.24266666666665,120.57762310755524L135.632,20.138358193534366L138.02133333333333,19.18653291057459L140.41066666666666,137.98001706092197L142.8,128.78964915363628L145.1893333333333,14.014850734648375L147.57866666666666,59.64806936850603L149.968,8.452938509766357L152.35733333333334,24.509939782490793L154.74666666666667,14.162633906711237L157.136,5.962643414227798L159.52533333333332,9.442337736148732L161.91466666666668,15.292173009365797L164.304,13.25349408117208L166.69333333333336,12.565616640177636L169.08266666666665,92.16508554294705L171.472,12.94949805448678L173.86133333333333,13.929048266092478L176.25066666666666,21.744476448405898L178.64000000000001,15.889798183502123L181.0293333333333,16.72680140811614L183.41866666666667,133.47344547002155L185.808,19.621750036762542L188.19733333333335,49.30019767785615L190.58666666666667,119.91250293244693L192.976,139.45908590219915L195.36533333333333,66.02156150916761L197.75466666666668,44.53427189453084L200.144,112.59911557151514L202.53333333333336,40.97598684613002L204.92266666666666,22.21744013950231L207.31199999999998,30.289067377082336L209.70133333333334,57.30741792104462L212.09066666666666,16.76446166228167L214.48000000000002,84.20894207940862L216.86933333333332,16.29980298267171L219.25866666666667,10.339614629576145L221.648,10.740518440407781L224.03733333333335,101.32551321251827L226.42666666666665,29.37405842102388L228.816,22.706208286637622L231.20533333333333,27.892438617788944L233.59466666666668,70.11219203980133L235.984,148.77172736197033L238.37333333333333,126.22144422747873L240.76266666666666,140.88611895557156L243.152,73.05488968945363L245.54133333333334,56.920611531558365L247.93066666666667,31.10799329609357L250.32,77.90694400414148L252.70933333333332,59.174530272456735L255.09866666666667,84.6114186637781L257.488,30.01519379967994" fill="none"></path></g></g></g></g></g></g><g transform="translate(50, 176)" clip-path="url(#clip_1)"><clipPath id="clip_1"><rect width="280" height="23"></rect></clipPath><g><g><line x1="0" y1="0" x2="0" y2="5" style="visibility: inherit;" fill="rgb(0, 0, 0)" stroke="rgb(204, 204, 204)" stroke-width="1.333333px"></line><line x1="23.333333333333332" y1="0" x2="23.333333333333332" y2="5" style="visibility: inherit;" fill="rgb(0, 0, 0)" stroke="rgb(204, 204, 204)" stroke-width="1.333333px"></line><line x1="46.666666666666664" y1="0" x2="46.666666666666664" y2="5" style="visibility: inherit;" fill="rgb(0, 0, 0)" stroke="rgb(204, 204, 204)" stroke-width="1.333333px"></line><line x1="70" y1="0" x2="70" y2="5" style="visibility: inherit;" fill="rgb(0, 0, 0)" stroke="rgb(204, 204, 204)" stroke-width="1.333333px"></line><line x1="93.33333333333333" y1="0" x2="93.33333333333333" y2="5" style="visibility: inherit;" fill="rgb(0, 0, 0)" stroke="rgb(204, 204, 204)" stroke-width="1.333333px"></line><line x1="116.66666666666667" y1="0" x2="116.66666666666667" y2="5" style="visibility: inherit;" fill="rgb(0, 0, 0)" stroke="rgb(204, 204, 204)" stroke-width="1.333333px"></line><line x1="140" y1="0" x2="140" y2="5" style="visibility: inherit;" fill="rgb(0, 0, 0)" stroke="rgb(204, 204, 204)" stroke-width="1.333333px"></line><line x1="163.33333333333334" y1="0" x2="163.33333333333334" y2="5" style="visibility: inherit;" fill="rgb(0, 0, 0)" stroke="rgb(204, 204, 204)" stroke-width="1.333333px"></line><line x1="186.66666666666666" y1="0" x2="186.66666666666666" y2="5" style="visibility: inherit;" fill="rgb(0, 0, 0)" stroke="rgb(204, 204, 204)" stroke-width="1.333333px"></line><line x1="210" y1="0" x2="210" y2="5" style="visibility: inherit;" fill="rgb(0, 0, 0)" stroke="rgb(204, 204, 204)" stroke-width="1.333333px"></line><line x1="233.33333333333334" y1="0" x2="233.33333333333334" y2="5" style="visibility: inherit;" fill="rgb(0, 0, 0)" stroke="rgb(204, 204, 204)" stroke-width="1.333333px"></line><line x1="256.66666666666663" y1="0" x2="256.66666666666663" y2="5" style="visibility: inherit;" fill="rgb(0, 0, 0)" stroke="rgb(204, 204, 204)" stroke-width="1.333333px"></line><line x1="280" y1="0" x2="280" y2="5" style="visibility: inherit;" fill="rgb(0, 0, 0)" stroke="rgb(204, 204, 204)" stroke-width="1.333333px"></line></g><g transform="translate(0, 8)"><text style="text-anchor: middle; visibility: hidden; font-family: Roboto, sans-serif; font-size: 16px; font-weight: 200;" x="0" y="0" dx="0em" dy="0.95em" fill="rgb(33, 33, 33)" stroke="none" stroke-width="1.333333px">-10k</text><text style="text-anchor: middle; visibility: inherit; font-family: Roboto, sans-serif; font-size: 16px; font-weight: 200;" x="23.333333333333332" y="0" dx="0em" dy="0.95em" fill="rgb(33, 33, 33)" stroke="none" stroke-width="1.333333px">0</text><text style="text-anchor: middle; visibility: hidden; font-family: Roboto, sans-serif; font-size: 16px; font-weight: 200;" x="46.666666666666664" y="0" dx="0em" dy="0.95em" fill="rgb(33, 33, 33)" stroke="none" stroke-width="1.333333px">10k</text><text style="text-anchor: middle; visibility: inherit; font-family: Roboto, sans-serif; font-size: 16px; font-weight: 200;" x="70" y="0" dx="0em" dy="0.95em" fill="rgb(33, 33, 33)" stroke="none" stroke-width="1.333333px">20k</text><text style="text-anchor: middle; visibility: hidden; font-family: Roboto, sans-serif; font-size: 16px; font-weight: 200;" x="93.33333333333333" y="0" dx="0em" dy="0.95em" fill="rgb(33, 33, 33)" stroke="none" stroke-width="1.333333px">30k</text><text style="text-anchor: middle; visibility: inherit; font-family: Roboto, sans-serif; font-size: 16px; font-weight: 200;" x="116.66666666666667" y="0" dx="0em" dy="0.95em" fill="rgb(33, 33, 33)" stroke="none" stroke-width="1.333333px">40k</text><text style="text-anchor: middle; visibility: hidden; font-family: Roboto, sans-serif; font-size: 16px; font-weight: 200;" x="140" y="0" dx="0em" dy="0.95em" fill="rgb(33, 33, 33)" stroke="none" stroke-width="1.333333px">50k</text><text style="text-anchor: middle; visibility: inherit; font-family: Roboto, sans-serif; font-size: 16px; font-weight: 200;" x="163.33333333333334" y="0" dx="0em" dy="0.95em" fill="rgb(33, 33, 33)" stroke="none" stroke-width="1.333333px">60k</text><text style="text-anchor: middle; visibility: hidden; font-family: Roboto, sans-serif; font-size: 16px; font-weight: 200;" x="186.66666666666666" y="0" dx="0em" dy="0.95em" fill="rgb(33, 33, 33)" stroke="none" stroke-width="1.333333px">70k</text><text style="text-anchor: middle; visibility: inherit; font-family: Roboto, sans-serif; font-size: 16px; font-weight: 200;" x="210" y="0" dx="0em" dy="0.95em" fill="rgb(33, 33, 33)" stroke="none" stroke-width="1.333333px">80k</text><text style="text-anchor: middle; visibility: hidden; font-family: Roboto, sans-serif; font-size: 16px; font-weight: 200;" x="233.33333333333334" y="0" dx="0em" dy="0.95em" fill="rgb(33, 33, 33)" stroke="none" stroke-width="1.333333px">90k</text><text style="text-anchor: middle; visibility: inherit; font-family: Roboto, sans-serif; font-size: 16px; font-weight: 200;" x="256.66666666666663" y="0" dx="0em" dy="0.95em" fill="rgb(33, 33, 33)" stroke="none" stroke-width="1.333333px">100k</text><text style="text-anchor: middle; visibility: hidden; font-family: Roboto, sans-serif; font-size: 16px; font-weight: 200;" x="280" y="0" dx="0em" dy="0.95em" fill="rgb(33, 33, 33)" stroke="none" stroke-width="1.333333px">110k</text></g><line x1="0" y1="0" x2="280" y2="0" fill="rgb(0, 0, 0)" stroke="rgb(204, 204, 204)" stroke-width="1.333333px"></line></g></g></g></g></svg>