<svg viewBox="0 0 330 200" xmlns="http://www.w3.org/2000/svg"><g><g><g><g><g><line x1="70" y1="176.984375" x2="65" y2="176.984375" style="visibility: inherit;" fill="rgb(0, 0, 0)" stroke="rgb(204, 204, 204)" stroke-width="1.333333px"></line><line x1="70" y1="159.2859375" x2="65" y2="159.2859375" style="visibility: inherit;" fill="rgb(0, 0, 0)" stroke="rgb(204, 204, 204)" stroke-width="1.333333px"></line><line x1="70" y1="141.5875" x2="65" y2="141.5875" style="visibility: inherit;" fill="rgb(0, 0, 0)" stroke="rgb(204, 204, 204)" stroke-width="1.333333px"></line><line x1="70" y1="123.8890625" x2="65" y2="123.8890625" style="visibility: inherit;" fill="rgb(0, 0, 0)" stroke="rgb(204, 204, 204)" stroke-width="1.333333px"></line><line x1="70" y1="106.190625" x2="65" y2="106.190625" style="visibility: inherit;" fill="rgb(0, 0, 0)" stroke="rgb(204, 204, 204)" stroke-width="1.333333px"></line><line x1="70" y1="88.4921875" x2="65" y2="88.4921875" style="visibility: inherit;" fill="rgb(0, 0, 0)" stroke="rgb(204, 204, 204)" stroke-width="1.333333px"></line><line x1="70" y1="70.79375" x2="65" y2="70.79375" style="visibility: inherit;" fill="rgb(0, 0, 0)" stroke="rgb(204, 204, 204)" stroke-width="1.333333px"></line><line x1="70" y1="53.095312500000006" x2="65" y2="53.095312500000006" style="visibility: inherit;" fill="rgb(0, 0, 0)" stroke="rgb(204, 204, 204)" stroke-width="1.333333px"></line><line x1="70" y1="35.396874999999994" x2="65" y2="35.396874999999994" style="visibility: inherit;" fill="rgb(0, 0, 0)" stroke="rgb(204, 204, 204)" stroke-width="1.333333px"></line><line x1="70" y1="17.698437499999976" x2="65" y2="17.698437499999976" style="visibility: inherit;" fill="rgb(0, 0, 0)" stroke="rgb(204, 204, 204)" stroke-width="1.333333px"></line><line x1="70" y1="0" x2="65" y2="0" style="visibility: inherit;" fill="rgb(0, 0, 0)" stroke="rgb(204, 204, 204)" stroke-width="1.333333px"></line></g><g transform="translate(60, 0)"><text style="text-anchor: end; visibility: hidden; font-family: Roboto, sans-serif; font-size: 16px; font-weight: 200;" x="0" y="176.984375" dx="0em" dy="0.3em" fill="rgb(33, 33, 33)" stroke="none" stroke-width="1.333333px">-0.012</text><text style="text-anchor: end; visibility: inherit; font-family: Roboto, sans-serif; font-size: 16px; font-weight: 200;" x="0" y="159.2859375" dx="0em" dy="0.3em" fill="rgb(33, 33, 33)" stroke="none" stroke-width="1.333333px">-0.011</text><text style="text-anchor: end; visibility: hidden; font-family: Roboto, sans-serif; font-size: 16px; font-weight: 200;" x="0" y="141.5875" dx="0em" dy="0.3em" fill="rgb(33, 33, 33)" stroke="none" stroke-width="1.333333px">-0.01</text><text style="text-anchor: end; visibility: inherit; font-family: Roboto, sans-serif; font-size: 16px; font-weight: 200;" x="0" y="123.8890625" dx="0em" dy="0.3em" fill="rgb(33, 33, 33)" stroke="none" stroke-width="1.333333px">-9e-3</text><text style="text-anchor: end; visibility: hidden; font-family: Roboto, sans-serif; font-size: 16px; font-weight: 200;" x="0" y="106.190625" dx="0em" dy="0.3em" fill="rgb(33, 33, 33)" stroke="none" stroke-width="1.333333px">-8e-3</text><text style="text-anchor: end; visibility: inherit; font-family: Roboto, sans-serif; font-size: 16px; font-weight: 200;" x="0" y="88.4921875" dx="0em" dy="0.3em" fill="rgb(33, 33, 33)" stroke="none" stroke-width="1.333333px">-7e-3</text><text style="text-anchor: end; visibility: hidden; font-family: Roboto, sans-serif; font-size: 16px; font-weight: 200;" x="0" y="70.79375" dx="0em" dy="0.3em" fill="rgb(33, 33, 33)" stroke="none" stroke-width="1.333333px">-6e-3</text><text style="text-anchor: end; visibility: inherit; font-family: Roboto, sans-serif; font-size: 16px; font-weight: 200;" x="0" y="53.095312500000006" dx="0em" dy="0.3em" fill="rgb(33, 33, 33)" stroke="none" stroke-width="1.333333px">-5e-3</text><text style="text-anchor: end; visibility: hidden; font-family: Roboto, sans-serif; font-size: 16px; font-weight: 200;" x="0" y="35.396874999999994" dx="0em" dy="0.3em" fill="rgb(33, 33, 33)" stroke="none" stroke-width="1.333333px">-4e-3</text><text style="text-anchor: end; visibility: inherit; font-family: Roboto, sans-serif; font-size: 16px; font-weight: 200;" x="0" y="17.698437499999976" dx="0em" dy="0.3em" fill="rgb(33, 33, 33)" stroke="none" stroke-width="1.333333px">-3e-3</text><text style="text-anchor: end; visibility: hidden; font-family: Roboto, sans-serif; font-size: 16px; font-weight: 200;" x="0" y="0" dx="0em" dy="0.3em" fill="rgb(33, 33, 33)" stroke="none" stroke-width="1.333333px">-2e-3</text></g><line x1="70" y1="0" x2="70" y2="176.984375" fill="rgb(0, 0, 0)" stroke="rgb(204, 204, 204)" stroke-width="1.333333px"></line></g></g><g transform="translate(70, 0)" clip-path="url(#clip_0)"><clipPath id="clip_0"><rect width="260" height="176"></rect></clipPath><g><g><g><line x1="0" y1="0" x2="0" y2="176.984375" fill="rgb(0, 0, 0)" stroke="rgb(66, 66, 66)" stroke-width="1.333333px" opacity="0.25"></line><line x1="21.666666666666664" y1="0" x2="21.666666666666664" y2="176.984375" fill="rgb(0, 0, 0)" stroke="rgb(66, 66, 66)" stroke-width="1.333333px" opacity="0.25"></line><line x1="43.33333333333333" y1="0" x2="43.33333333333333" y2="176.984375" fill="rgb(0, 0, 0)" stroke="rgb(66, 66, 66)" stroke-width="1.333333px" opacity="0.25"></line><line x1="65" y1="0" x2="65" y2="176.984375" fill="rgb(0, 0, 0)" stroke="rgb(66, 66, 66)" stroke-width="1.333333px" opacity="0.25"></line><line x1="86.66666666666666" y1="0" x2="86.66666666666666" y2="176.984375" fill="rgb(0, 0, 0)" stroke="rgb(66, 66, 66)" stroke-width="1.333333px" opacity="0.25"></line><line x1="108.33333333333334" y1="0" x2="108.33333333333334" y2="176.984375" fill="rgb(0, 0, 0)" stroke="rgb(66, 66, 66)" stroke-width="1.333333px" opacity="0.25"></line><line x1="130" y1="0" x2="130" y2="176.984375" fill="rgb(0, 0, 0)" stroke="rgb(66, 66, 66)" stroke-width="1.333333px" opacity="0.25"></line><line x1="151.66666666666669" y1="0" x2="151.66666666666669" y2="176.984375" fill="rgb(0, 0, 0)" stroke="rgb(66, 66, 66)" stroke-width="1.333333px" opacity="0.25"></line><line x1="173.33333333333331" y1="0" x2="173.33333333333331" y2="176.984375" fill="rgb(0, 0, 0)" stroke="rgb(66, 66, 66)" stroke-width="1.333333px" opacity="0.25"></line><line x1="195" y1="0" x2="195" y2="176.984375" fill="rgb(0, 0, 0)" stroke="rgb(66, 66, 66)" stroke-width="1.333333px" opacity="0.25"></line><line x1="216.66666666666669" y1="0" x2="216.66666666666669" y2="176.984375" fill="rgb(0, 0, 0)" stroke="rgb(66, 66, 66)" stroke-width="1.333333px" opacity="0.25"></line><line x1="238.33333333333331" y1="0" x2="238.33333333333331" y2="176.984375" fill="rgb(0, 0, 0)" stroke="rgb(66, 66, 66)" stroke-width="1.333333px" opacity="0.25"></line><line x1="260" y1="0" x2="260" y2="176.984375" fill="rgb(0, 0, 0)" stroke="rgb(66, 66, 66)" stroke-width="1.333333px" opacity="0.25"></line></g><g><line x1="0" y1="176.984375" x2="260" y2="176.984375" fill="rgb(0, 0, 0)" stroke="rgb(66, 66, 66)" stroke-width="1.333333px" opacity="0.25"></line><line x1="0" y1="159.2859375" x2="260" y2="159.2859375" fill="rgb(0, 0, 0)" stroke="rgb(66, 66, 66)" stroke-width="1.333333px" opacity="0.25"></line><line x1="0" y1="141.5875" x2="260" y2="141.5875" fill="rgb(0, 0, 0)" stroke="rgb(66, 66, 66)" stroke-width="1.333333px" opacity="0.25"></line><line x1="0" y1="123.8890625" x2="260" y2="123.8890625" fill="rgb(0, 0, 0)" stroke="rgb(66, 66, 66)" stroke-width="1.333333px" opacity="0.25"></line><line x1="0" y1="106.190625" x2="260" y2="106.190625" fill="rgb(0, 0, 0)" stroke="rgb(66, 66, 66)" stroke-width="1.333333px" opacity="0.25"></line><line x1="0" y1="88.4921875" x2="260" y2="88.4921875" fill="rgb(0, 0, 0)" stroke="rgb(66, 66, 66)" stroke-width="1.333333px" opacity="0.25"></line><line x1="0" y1="70.79375" x2="260" y2="70.79375" fill="rgb(0, 0, 0)" stroke="rgb(66, 66, 66)" stroke-width="1.333333px" opacity="0.25"></line><line x1="0" y1="53.095312500000006" x2="260" y2="53.095312500000006" fill="rgb(0, 0, 0)" stroke="rgb(66, 66, 66)" stroke-width="1.333333px" opacity="0.25"></line><line x1="0" y1="35.396874999999994" x2="260" y2="35.396874999999994" fill="rgb(0, 0, 0)" stroke="rgb(66, 66, 66)" stroke-width="1.333333px" opacity="0.25"></line><line x1="0" y1="17.698437499999976" x2="260" y2="17.698437499999976" fill="rgb(0, 0, 0)" stroke="rgb(66, 66, 66)" stroke-width="1.333333px" opacity="0.25"></line><line x1="0" y1="0" x2="260" y2="0" fill="rgb(0, 0, 0)" stroke="rgb(66, 66, 66)" stroke-width="1.333333px" opacity="0.25"></line></g></g></g><g><g><line x1="0" y1="-35.396874999999994" x2="260" y2="-35.396874999999994" fill="rgb(0, 0, 0)" stroke="rgb(153, 153, 153)" stroke-width="2px"></line></g></g><g><g><line x1="21.666666666666664" y1="0" x2="21.666666666666664" y2="176.984375" fill="rgb(0, 0, 0)" stroke="rgb(153, 153, 153)" stroke-width="2px"></line></g></g><g><g><g><g><g><path style="fill: none;" stroke="rgb(255, 112, 67)" stroke-width="2.666667px" d="M26.104,60.243415657320284L28.322666666666663,170.770304075328L30.541333333333334,122.85810588256145L32.76,176.13126757640302L34.97866666666667,149.26611846060453L37.19733333333333,121.82655410912267L39.416000000000004,126.31738590879104L41.63466666666666,124.32255570245249L43.85333333333333,141.59646319746435L46.071999999999996,163.59169887194625L48.29066666666667,143.36995949377226L50.50933333333334,117.06599785879894L52.728,86.58907451188446L54.94666666666667,79.46558019377677L57.16533333333333,104.79565793092263L59.384,92.9209564969933L61.602666666666664,74.44679615625807L63.821333333333335,75.74019570642382L66.04,93.30098861180419L68.25866666666667,87.61110108861887L70.47733333333333,75.9608326791005L72.696,83.32180612704745L74.91466666666668,80.70038404303882L77.13333333333334,52.460796305015236L79.352,63.39898301571222L81.57066666666665,92.13624028908872L83.78933333333333,58.30878501607262L86.008,110.46388522214589L88.22666666666666,142.75270004780515L90.44533333333334,137.17061805251433L92.664,185.3949517817024L94.88266666666667,157.3212677133515L97.10133333333333,154.79540626429636L99.32000000000001,151.64434520078714L101.53866666666667,162.02771443718345L103.75733333333334,139.18437538093312L105.976,111.17555537079713L108.19466666666668,109.23586757065547L110.41333333333334,89.415644923643L112.63199999999999,75.82600441491579L114.85066666666665,89.40533833312494L117.06933333333333,115.14384429217552L119.288,112.12078418381913L121.50666666666666,126.53746935162074L123.72533333333334,93.5677107594276L125.944,104.53131261623791L128.16266666666667,100.18278481470828L130.38133333333332,77.58135431013234L132.6,53.33861028294232L134.81866666666664,70.67084434493623L137.03733333333335,123.99753735032755L139.256,110.53942301749694L141.47466666666668,81.01568147507592L143.69333333333333,60.983207913949684L145.912,29.630092711237296L148.13066666666666,42.4996412617872L150.34933333333333,38.835853717766305L152.56799999999998,47.67828764645219L154.7866666666667,63.56291360489356L157.00533333333334,85.89738111783737L159.22400000000002,90.36536185435398L161.44266666666667,57.139898403379185L163.66133333333332,46.07440301888279L165.88,40.20209886283379L168.09866666666665,63.116104357612386L170.31733333333335,48.4228418624275L172.536,44.64398456734219L174.75466666666668,40.87878500767472L176.97333333333333,95.1952502079464L179.192,67.34394874467053L181.41066666666666,66.76805499484207L183.62933333333334,68.06749781244102L185.84799999999998,55.81114761973765L188.0666666666667,49.02442365975838L190.28533333333334,48.60372960034443L192.504,47.9065667930464L194.72266666666667,64.36085086004445L196.94133333333332,44.24497034481833L199.16,52.36744025811803L201.37866666666665,52.22389989080152L203.59733333333335,49.7960917906259L205.816,34.72433167355402L208.03466666666668,84.14111276582881L210.25333333333333,64.5859956880402L212.472,71.87312406426011L214.69066666666666,69.95654082843537L216.90933333333334,27.31935558824922L219.128,33.85513111916491L221.3466666666667,16.468903295852495L223.56533333333334,8.101396207177032L225.784,26.613652073386667L228.00266666666667,14.208490662413771L230.22133333333332,25.870857937578833L232.44,34.93230351935555L234.65866666666665,24.267974899035583L236.87733333333335,0.30457264024254077L239.096,12.649157037136343" fill="none"></path></g></g></g></g><g opacity="0.2"><g><g><g><path style="fill: none;" stroke="rgb(255, 112, 67)" stroke-width="2.666667px" d="M26.104,60.243415657320284L28.322666666666663,237.08643712613267L30.541333333333334,76.86239561750553L32.76,238.78050572836074L34.97866666666667,114.19097977501806L37.19733333333333,83.86775836785672L39.416000000000004,132.73934723562562L41.63466666666666,121.41407411124092L43.85333333333333,167.072121468815L46.071999999999996,196.25206043580548L48.29066666666667,113.2207601143513L50.50933333333334,77.75320040397345L52.728,40.973201934108516L54.94666666666667,68.79429438355727L57.16533333333333,142.76099998111604L59.384,75.11727930556516L61.602666666666664,46.743373290670576L63.821333333333335,77.6799666376668L66.04,119.63950275982498L68.25866666666667,79.07678988209808L70.47733333333333,58.48606899323059L72.696,94.36302408300108L74.91466666666668,76.76830267243203L77.13333333333334,10.10174922281877L79.352,79.80618533780797L81.57066666666665,135.2420036478783L83.78933333333333,7.567688661735163L86.008,188.6964554608916L88.22666666666666,191.1858925437322L90.44533333333334,128.79749814470998L92.664,257.7314363837708L94.88266666666667,115.21074719654862L97.10133333333333,151.00661439225078L99.32000000000001,146.91775383122732L101.53866666666667,177.60276784553426L103.75733333333334,104.91936738559744L105.976,69.1623257889354L108.19466666666668,106.32633588844911L110.41333333333334,59.68531106351874L112.63199999999999,55.44154369723984L114.85066666666665,109.7743391832104L117.06933333333333,153.75160319978605L119.288,107.58619402346667L121.50666666666666,148.16249709707918L123.72533333333334,44.113072879705584L125.944,120.976715399744L128.16266666666667,93.65999311282067L130.38133333333332,43.67920855453704L132.6,16.97449424297375L134.81866666666664,96.66919543757686L137.03733333333335,203.987576857768L139.256,90.35225151834894L141.47466666666668,36.7300691615732L143.69333333333333,30.93449757231284L145.912,-17.39958009278197L148.13066666666666,61.80396408759988L150.34933333333333,33.34017240173708L152.56799999999998,60.94193853947799L154.7866666666667,87.38985254255239L157.00533333333334,119.39908238725039L159.22400000000002,97.06733295912855L161.44266666666667,7.3017032269184785L163.66133333333332,29.476159942138484L165.88,31.393642628760436L168.09866666666665,97.48711259978009L170.31733333333335,26.382948119650255L172.536,38.97569862471428L174.75466666666668,35.23098566817353L176.97333333333333,176.6699480083538L179.192,25.56699654975674L181.41066666666666,65.90421437009935L183.62933333333334,70.01666203883941L185.84799999999998,37.42662233068259L188.0666666666667,38.84433771978948L190.28533333333334,47.97268851122354L192.504,46.86082258209936L194.72266666666667,89.0422769605415L196.94133333333332,14.071149571979193L199.16,64.55114512806757L201.37866666666665,52.00858933982673L203.59733333333335,46.154379640362464L205.816,12.116691497946166L208.03466666666668,158.266284404241L210.25333333333333,35.25332007135731L212.472,82.80381662858998L214.69066666666666,67.08166597469825L216.90933333333334,-36.63642227202999L219.128,43.65879441553844L221.3466666666667,-9.610438439116107L223.56533333333334,-4.4498644258361235L225.784,54.382035872701096L228.00266666666667,-4.399251454045581L230.22133333333332,43.36440885032644L232.44,48.52447189202067L234.65866666666665,8.271481968555607L236.87733333333335,-35.640530747947L239.096,31.166033632477056" fill="none"></path></g></g></g></g></g></g><g transform="translate(70, 176)" clip-path="url(#clip_1)"><clipPath id="clip_1"><rect width="260" height="23"></rect></clipPath><g><g><line x1="0" y1="0" x2="0" y2="5" style="visibility: inherit;" fill="rgb(0, 0, 0)" stroke="rgb(204, 204, 204)" stroke-width="1.333333px"></line><line x1="21.666666666666664" y1="0" x2="21.666666666666664" y2="5" style="visibility: inherit;" fill="rgb(0, 0, 0)" stroke="rgb(204, 204, 204)" stroke-width="1.333333px"></line><line x1="43.33333333333333" y1="0" x2="43.33333333333333" y2="5" style="visibility: inherit;" fill="rgb(0, 0, 0)" stroke="rgb(204, 204, 204)" stroke-width="1.333333px"></line><line x1="65" y1="0" x2="65" y2="5" style="visibility: inherit;" fill="rgb(0, 0, 0)" stroke="rgb(204, 204, 204)" stroke-width="1.333333px"></line><line x1="86.66666666666666" y1="0" x2="86.66666666666666" y2="5" style="visibility: inherit;" fill="rgb(0, 0, 0)" stroke="rgb(204, 204, 204)" stroke-width="1.333333px"></line><line x1="108.33333333333334" y1="0" x2="108.33333333333334" y2="5" style="visibility: inherit;" fill="rgb(0, 0, 0)" stroke="rgb(204, 204, 204)" stroke-width="1.333333px"></line><line x1="130" y1="0" x2="130" y2="5" style="visibility: inherit;" fill="rgb(0, 0, 0)" stroke="rgb(204, 204, 204)" stroke-width="1.333333px"></line><line x1="151.66666666666669" y1="0" x2="151.66666666666669" y2="5" style="visibility: inherit;" fill="rgb(0, 0, 0)" stroke="rgb(204, 204, 204)" stroke-width="1.333333px"></line><line x1="173.33333333333331" y1="0" x2="173.33333333333331" y2="5" style="visibility: inherit;" fill="rgb(0, 0, 0)" stroke="rgb(204, 204, 204)" stroke-width="1.333333px"></line><line x1="195" y1="0" x2="195" y2="5" style="visibility: inherit;" fill="rgb(0, 0, 0)" stroke="rgb(204, 204, 204)" stroke-width="1.333333px"></line><line x1="216.66666666666669" y1="0" x2="216.66666666666669" y2="5" style="visibility: inherit;" fill="rgb(0, 0, 0)" stroke="rgb(204, 204, 204)" stroke-width="1.333333px"></line><line x1="238.33333333333331" y1="0" x2="238.33333333333331" y2="5" style="visibility: inherit;" fill="rgb(0, 0, 0)" stroke="rgb(204, 204, 204)" stroke-width="1.333333px"></line><line x1="260" y1="0" x2="260" y2="5" style="visibility: inherit;" fill="rgb(0, 0, 0)" stroke="rgb(204, 204, 204)" stroke-width="1.333333px"></line></g><g transform="translate(0, 8)"><text style="text-anchor: middle; visibility: hidden; font-family: Roboto, sans-serif; font-size: 16px; font-weight: 200;" x="0" y="0" dx="0em" dy="0.95em" fill="rgb(33, 33, 33)" stroke="none" stroke-width="1.333333px">-10k</text><text style="text-anchor: middle; visibility: inherit; font-family: Roboto, sans-serif; font-size: 16px; font-weight: 200;" x="21.666666666666664" y="0" dx="0em" dy="0.95em" fill="rgb(33, 33, 33)" stroke="none" stroke-width="1.333333px">0</text><text style="text-anchor: middle; visibility: hidden; font-family: Roboto, sans-serif; font-size: 16px; font-weight: 200;" x="43.33333333333333" y="0" dx="0em" dy="0.95em" fill="rgb(33, 33, 33)" stroke="none" stroke-width="1.333333px">10k</text><text style="text-anchor: middle; visibility: inherit; font-family: Roboto, sans-serif; font-size: 16px; font-weight: 200;" x="65" y="0" dx="0em" dy="0.95em" fill="rgb(33, 33, 33)" stroke="none" stroke-width="1.333333px">20k</text><text style="text-anchor: middle; visibility: hidden; font-family: Roboto, sans-serif; font-size: 16px; font-weight: 200;" x="86.66666666666666" y="0" dx="0em" dy="0.95em" fill="rgb(33, 33, 33)" stroke="none" stroke-width="1.333333px">30k</text><text style="text-anchor: middle; visibility: inherit; font-family: Roboto, sans-serif; font-size: 16px; font-weight: 200;" x="108.33333333333334" y="0" dx="0em" dy="0.95em" fill="rgb(33, 33, 33)" stroke="none" stroke-width="1.333333px">40k</text><text style="text-anchor: middle; visibility: hidden; font-family: Roboto, sans-serif; font-size: 16px; font-weight: 200;" x="130" y="0" dx="0em" dy="0.95em" fill="rgb(33, 33, 33)" stroke="none" stroke-width="1.333333px">50k</text><text style="text-anchor: middle; visibility: inherit; font-family: Roboto, sans-serif; font-size: 16px; font-weight: 200;" x="151.66666666666669" y="0" dx="0em" dy="0.95em" fill="rgb(33, 33, 33)" stroke="none" stroke-width="1.333333px">60k</text><text style="text-anchor: middle; visibility: hidden; font-family: Roboto, sans-serif; font-size: 16px; font-weight: 200;" x="173.33333333333331" y="0" dx="0em" dy="0.95em" fill="rgb(33, 33, 33)" stroke="none" stroke-width="1.333333px">70k</text><text style="text-anchor: middle; visibility: inherit; font-family: Roboto, sans-serif; font-size: 16px; font-weight: 200;" x="195" y="0" dx="0em" dy="0.95em" fill="rgb(33, 33, 33)" stroke="none" stroke-width="1.333333px">80k</text><text style="text-anchor: middle; visibility: hidden; font-family: Roboto, sans-serif; font-size: 16px; font-weight: 200;" x="216.66666666666669" y="0" dx="0em" dy="0.95em" fill="rgb(33, 33, 33)" stroke="none" stroke-width="1.333333px">90k</text><text style="text-anchor: middle; visibility: inherit; font-family: Roboto, sans-serif; font-size: 16px; font-weight: 200;" x="238.33333333333331" y="0" dx="0em" dy="0.95em" fill="rgb(33, 33, 33)" stroke="none" stroke-width="1.333333px">100k</text><text style="text-anchor: middle; visibility: hidden; font-family: Roboto, sans-serif; font-size: 16px; font-weight: 200;" x="260" y="0" dx="0em" dy="0.95em" fill="rgb(33, 33, 33)" stroke="none" stroke-width="1.333333px">110k</text></g><line x1="0" y1="0" x2="260" y2="0" fill="rgb(0, 0, 0)" stroke="rgb(204, 204, 204)" stroke-width="1.333333px"></line></g></g></g></g></svg>