<svg viewBox="0 0 330 200" xmlns="http://www.w3.org/2000/svg"><g><g><g><g><g><line x1="40" y1="176.984375" x2="35" y2="176.984375" style="visibility: inherit;" fill="rgb(0, 0, 0)" stroke="rgb(204, 204, 204)" stroke-width="1.333333px"></line><line x1="40" y1="154.861328125" x2="35" y2="154.861328125" style="visibility: inherit;" fill="rgb(0, 0, 0)" stroke="rgb(204, 204, 204)" stroke-width="1.333333px"></line><line x1="40" y1="132.73828125" x2="35" y2="132.73828125" style="visibility: inherit;" fill="rgb(0, 0, 0)" stroke="rgb(204, 204, 204)" stroke-width="1.333333px"></line><line x1="40" y1="110.615234375" x2="35" y2="110.615234375" style="visibility: inherit;" fill="rgb(0, 0, 0)" stroke="rgb(204, 204, 204)" stroke-width="1.333333px"></line><line x1="40" y1="88.4921875" x2="35" y2="88.4921875" style="visibility: inherit;" fill="rgb(0, 0, 0)" stroke="rgb(204, 204, 204)" stroke-width="1.333333px"></line><line x1="40" y1="66.369140625" x2="35" y2="66.369140625" style="visibility: inherit;" fill="rgb(0, 0, 0)" stroke="rgb(204, 204, 204)" stroke-width="1.333333px"></line><line x1="40" y1="44.24609375" x2="35" y2="44.24609375" style="visibility: inherit;" fill="rgb(0, 0, 0)" stroke="rgb(204, 204, 204)" stroke-width="1.333333px"></line><line x1="40" y1="22.123046875" x2="35" y2="22.123046875" style="visibility: inherit;" fill="rgb(0, 0, 0)" stroke="rgb(204, 204, 204)" stroke-width="1.333333px"></line><line x1="40" y1="0" x2="35" y2="0" style="visibility: inherit;" fill="rgb(0, 0, 0)" stroke="rgb(204, 204, 204)" stroke-width="1.333333px"></line></g><g transform="translate(30, 0)"><text style="text-anchor: end; visibility: hidden; font-family: Roboto, sans-serif; font-size: 16px; font-weight: 200;" x="0" y="176.984375" dx="0em" dy="0.3em" fill="rgb(33, 33, 33)" stroke="none" stroke-width="1.333333px">-50</text><text style="text-anchor: end; visibility: inherit; font-family: Roboto, sans-serif; font-size: 16px; font-weight: 200;" x="0" y="154.861328125" dx="0em" dy="0.3em" fill="rgb(33, 33, 33)" stroke="none" stroke-width="1.333333px">0</text><text style="text-anchor: end; visibility: hidden; font-family: Roboto, sans-serif; font-size: 16px; font-weight: 200;" x="0" y="132.73828125" dx="0em" dy="0.3em" fill="rgb(33, 33, 33)" stroke="none" stroke-width="1.333333px">50</text><text style="text-anchor: end; visibility: inherit; font-family: Roboto, sans-serif; font-size: 16px; font-weight: 200;" x="0" y="110.615234375" dx="0em" dy="0.3em" fill="rgb(33, 33, 33)" stroke="none" stroke-width="1.333333px">100</text><text style="text-anchor: end; visibility: hidden; font-family: Roboto, sans-serif; font-size: 16px; font-weight: 200;" x="0" y="88.4921875" dx="0em" dy="0.3em" fill="rgb(33, 33, 33)" stroke="none" stroke-width="1.333333px">150</text><text style="text-anchor: end; visibility: inherit; font-family: Roboto, sans-serif; font-size: 16px; font-weight: 200;" x="0" y="66.369140625" dx="0em" dy="0.3em" fill="rgb(33, 33, 33)" stroke="none" stroke-width="1.333333px">200</text><text style="text-anchor: end; visibility: hidden; font-family: Roboto, sans-serif; font-size: 16px; font-weight: 200;" x="0" y="44.24609375" dx="0em" dy="0.3em" fill="rgb(33, 33, 33)" stroke="none" stroke-width="1.333333px">250</text><text style="text-anchor: end; visibility: inherit; font-family: Roboto, sans-serif; font-size: 16px; font-weight: 200;" x="0" y="22.123046875" dx="0em" dy="0.3em" fill="rgb(33, 33, 33)" stroke="none" stroke-width="1.333333px">300</text><text style="text-anchor: end; visibility: hidden; font-family: Roboto, sans-serif; font-size: 16px; font-weight: 200;" x="0" y="0" dx="0em" dy="0.3em" fill="rgb(33, 33, 33)" stroke="none" stroke-width="1.333333px">350</text></g><line x1="40" y1="0" x2="40" y2="176.984375" fill="rgb(0, 0, 0)" stroke="rgb(204, 204, 204)" stroke-width="1.333333px"></line></g></g><g transform="translate(40, 0)" clip-path="url(#clip_0)"><clipPath id="clip_0"><rect width="290" height="176"></rect></clipPath><g><g><g><line x1="0" y1="0" x2="0" y2="176.984375" fill="rgb(0, 0, 0)" stroke="rgb(66, 66, 66)" stroke-width="1.333333px" opacity="0.25"></line><line x1="24.166666666666664" y1="0" x2="24.166666666666664" y2="176.984375" fill="rgb(0, 0, 0)" stroke="rgb(66, 66, 66)" stroke-width="1.333333px" opacity="0.25"></line><line x1="48.33333333333333" y1="0" x2="48.33333333333333" y2="176.984375" fill="rgb(0, 0, 0)" stroke="rgb(66, 66, 66)" stroke-width="1.333333px" opacity="0.25"></line><line x1="72.5" y1="0" x2="72.5" y2="176.984375" fill="rgb(0, 0, 0)" stroke="rgb(66, 66, 66)" stroke-width="1.333333px" opacity="0.25"></line><line x1="96.66666666666666" y1="0" x2="96.66666666666666" y2="176.984375" fill="rgb(0, 0, 0)" stroke="rgb(66, 66, 66)" stroke-width="1.333333px" opacity="0.25"></line><line x1="120.83333333333334" y1="0" x2="120.83333333333334" y2="176.984375" fill="rgb(0, 0, 0)" stroke="rgb(66, 66, 66)" stroke-width="1.333333px" opacity="0.25"></line><line x1="145" y1="0" x2="145" y2="176.984375" fill="rgb(0, 0, 0)" stroke="rgb(66, 66, 66)" stroke-width="1.333333px" opacity="0.25"></line><line x1="169.16666666666669" y1="0" x2="169.16666666666669" y2="176.984375" fill="rgb(0, 0, 0)" stroke="rgb(66, 66, 66)" stroke-width="1.333333px" opacity="0.25"></line><line x1="193.33333333333331" y1="0" x2="193.33333333333331" y2="176.984375" fill="rgb(0, 0, 0)" stroke="rgb(66, 66, 66)" stroke-width="1.333333px" opacity="0.25"></line><line x1="217.5" y1="0" x2="217.5" y2="176.984375" fill="rgb(0, 0, 0)" stroke="rgb(66, 66, 66)" stroke-width="1.333333px" opacity="0.25"></line><line x1="241.66666666666669" y1="0" x2="241.66666666666669" y2="176.984375" fill="rgb(0, 0, 0)" stroke="rgb(66, 66, 66)" stroke-width="1.333333px" opacity="0.25"></line><line x1="265.8333333333333" y1="0" x2="265.8333333333333" y2="176.984375" fill="rgb(0, 0, 0)" stroke="rgb(66, 66, 66)" stroke-width="1.333333px" opacity="0.25"></line><line x1="290" y1="0" x2="290" y2="176.984375" fill="rgb(0, 0, 0)" stroke="rgb(66, 66, 66)" stroke-width="1.333333px" opacity="0.25"></line></g><g><line x1="0" y1="176.984375" x2="290" y2="176.984375" fill="rgb(0, 0, 0)" stroke="rgb(66, 66, 66)" stroke-width="1.333333px" opacity="0.25"></line><line x1="0" y1="154.861328125" x2="290" y2="154.861328125" fill="rgb(0, 0, 0)" stroke="rgb(66, 66, 66)" stroke-width="1.333333px" opacity="0.25"></line><line x1="0" y1="132.73828125" x2="290" y2="132.73828125" fill="rgb(0, 0, 0)" stroke="rgb(66, 66, 66)" stroke-width="1.333333px" opacity="0.25"></line><line x1="0" y1="110.615234375" x2="290" y2="110.615234375" fill="rgb(0, 0, 0)" stroke="rgb(66, 66, 66)" stroke-width="1.333333px" opacity="0.25"></line><line x1="0" y1="88.4921875" x2="290" y2="88.4921875" fill="rgb(0, 0, 0)" stroke="rgb(66, 66, 66)" stroke-width="1.333333px" opacity="0.25"></line><line x1="0" y1="66.369140625" x2="290" y2="66.369140625" fill="rgb(0, 0, 0)" stroke="rgb(66, 66, 66)" stroke-width="1.333333px" opacity="0.25"></line><line x1="0" y1="44.24609375" x2="290" y2="44.24609375" fill="rgb(0, 0, 0)" stroke="rgb(66, 66, 66)" stroke-width="1.333333px" opacity="0.25"></line><line x1="0" y1="22.123046875" x2="290" y2="22.123046875" fill="rgb(0, 0, 0)" stroke="rgb(66, 66, 66)" stroke-width="1.333333px" opacity="0.25"></line><line x1="0" y1="0" x2="290" y2="0" fill="rgb(0, 0, 0)" stroke="rgb(66, 66, 66)" stroke-width="1.333333px" opacity="0.25"></line></g></g></g><g><g><line x1="0" y1="154.861328125" x2="290" y2="154.861328125" fill="rgb(0, 0, 0)" stroke="rgb(153, 153, 153)" stroke-width="2px"></line></g></g><g><g><line x1="24.166666666666664" y1="0" x2="24.166666666666664" y2="176.984375" fill="rgb(0, 0, 0)" stroke="rgb(153, 153, 153)" stroke-width="2px"></line></g></g><g><g><g><g><g><path style="fill: none;" stroke="rgb(255, 112, 67)" stroke-width="2.666667px" d="M31.590666666666664,-50.89376957297327L34.065333333333335,3.2020300659354746L36.54,4.926542115023007L39.01466666666667,27.944500744306374L41.489333333333335,37.54256591873949L43.964000000000006,56.17486145436867L46.43866666666666,68.24933104056271L48.913333333333334,36.56653869269723L51.388,26.70814434527261L53.86266666666667,48.24261234278021L56.33733333333333,60.56554208129253L58.812000000000005,71.29695300974323L61.28666666666667,89.60213992373589L63.76133333333333,102.07904806816832L66.236,49.49488660318497L68.71066666666667,61.9573901100527L71.18533333333333,85.0007254136142L73.66,100.58408842334221L76.13466666666667,102.51725497021421L78.60933333333334,100.82959204771123L81.084,107.57073621667028L83.55866666666667,124.2457106509448L86.03333333333335,102.22822274766976L88.50800000000001,104.79129993416039L90.98266666666666,114.34936468271503L93.45733333333332,122.64309525472537L95.93199999999999,127.74958470519526L98.40666666666667,131.15507597126089L100.88133333333333,136.70108136033497L103.356,134.8654301244905L105.83066666666667,133.90088876944748L108.30533333333334,135.20423194273494L110.78,130.18532940351346L113.25466666666667,137.0790291018525L115.72933333333334,141.70868991456268L118.20400000000001,126.41348362732572L120.67866666666667,136.04872239927118L123.15333333333334,137.3465962207007L125.62799999999999,141.87953905328197L128.10266666666666,145.20908388784298L130.5773333333333,135.916926871303L133.052,137.83270677998146L135.52666666666667,142.4208461573293L138.00133333333332,134.3009743072039L140.476,141.27046182995966L142.95066666666668,146.16354890700669L145.42533333333333,141.8405138782275L147.9,140.9022087718487L150.37466666666666,145.66359193348652L152.84933333333333,143.46419627709372L155.32399999999998,146.33795092306787L157.79866666666666,145.6973593389217L160.2733333333333,148.71630130097057L162.74800000000002,150.64674744233483L165.22266666666667,151.77595605307485L167.69733333333335,152.68322248374642L170.172,152.7622565457089L172.64666666666668,153.2865220278141L175.12133333333333,143.65147696820674L177.596,147.83951720615653L180.07066666666668,150.55903530768845L182.54533333333333,151.53946044039603L185.02,152.31309633835406L187.49466666666666,152.685728183347L189.96933333333334,146.03039733800767L192.444,148.82792285684334L194.91866666666667,149.75283542630726L197.39333333333332,147.890905754433L199.86800000000002,119.96002236429804L202.34266666666667,132.03124824667844L204.81733333333335,135.52877281281278L207.292,105.11241808350637L209.76666666666668,118.76438721284718L212.24133333333333,128.17645800933514L214.71599999999998,134.37423913860482L217.19066666666666,138.0559802596519L219.6653333333333,141.7096160765141L222.14000000000001,137.02459445718824L224.61466666666666,141.20142582237065L227.08933333333334,144.57828271641935L229.564,146.62312764969232L232.03866666666667,147.52362312297083L234.51333333333332,148.44947667929566L236.988,144.79509917678257L239.46266666666665,147.19585416906668L241.93733333333336,150.0706959664831L244.412,137.72134278512058L246.88666666666668,125.82683403811487L249.36133333333333,131.13916451991577L251.83599999999998,126.50869879174817L254.31066666666666,133.73314050682538L256.7853333333333,139.951778295804L259.26,130.00457166741427L261.73466666666667,138.892910431587L264.20933333333335,138.36561550638874L266.68399999999997,129.76368219674706" fill="none"></path></g></g></g></g><g opacity="0.2"><g><g><g><path style="fill: none;" stroke="rgb(255, 112, 67)" stroke-width="2.666667px" d="M31.590666666666664,-56.92220532655715L34.065333333333335,55.13399771928787L36.54,6.954568284749981L39.01466666666667,57.99674753069878L41.489333333333335,50.82014535844326L43.964000000000006,82.819342187047L46.43866666666666,85.8540236121416L48.913333333333334,-10.159425954818742L51.388,12.06957767605782L53.86266666666667,80.34899829924106L56.33733333333333,78.98287584960461L58.812000000000005,87.35902948379517L61.28666666666667,117.02405852794647L63.76133333333333,120.77974414765835L66.236,-29.344269169569007L68.71066666666667,80.64587165653705L71.18533333333333,119.55987766861914L73.66,123.95675896942616L76.13466666666667,105.41682809144258L78.60933333333334,98.2981902194023L81.084,117.68223064988851L83.55866666666667,149.25784308407455L86.03333333333335,69.20225171089173L88.50800000000001,108.6358974966407L90.98266666666666,128.68642104476692L93.45733333333332,135.0836698913574L95.93199999999999,135.40931104123592L98.40666666666667,136.2633097334206L100.88133333333333,145.02008637875318L103.356,132.1119538794458L105.83066666666667,132.45407692879436L108.30533333333334,137.15924654707314L110.78,122.656975954175L113.25466666666667,147.41957835309208L115.72933333333334,148.65318101424725L118.20400000000001,103.47067443311215L120.67866666666667,150.50158046774567L123.15333333333334,139.293406945616L125.62799999999999,148.67895328700544L128.10266666666666,150.2034011330083L130.5773333333333,121.97869135767222L133.052,140.70637664161623L135.52666666666667,149.3030552213639L138.00133333333332,122.1211665341258L140.476,151.72469311300665L142.95066666666668,153.50317952211947L145.42533333333333,135.3559613353014L147.9,139.49475111231206L150.37466666666666,152.80566667584702L152.84933333333333,140.16510279253126L155.32399999999998,150.64858289200814L157.79866666666666,144.73647196270525L160.2733333333333,153.244714244036L162.74800000000002,153.54241665437817L165.22266666666667,153.46976896918378L167.69733333333335,154.04412212975322L170.172,152.8808076386526L172.64666666666668,154.0729202509718L175.12133333333333,129.1989093787968L177.596,154.12157756308093L180.07066666666668,154.6383124599862L182.54533333333333,153.0100981394574L185.02,153.4735501852911L187.49466666666666,153.2446759508364L189.96933333333334,136.04740106999873L192.444,153.02421113509683L194.91866666666667,151.1402042805031L197.39333333333332,145.0980112466216L199.86800000000002,78.06369727909565L202.34266666666667,150.13808707024901L204.81733333333335,140.77505966201423L207.292,59.487885989546776L209.76666666666668,139.24234090685843L212.24133333333333,142.29456420406697L214.71599999999998,143.6709108325094L217.19066666666666,143.57859194122256L219.6653333333333,147.1900698018074L222.14000000000001,129.99706202819945L224.61466666666666,147.46667287014427L227.08933333333334,149.6435680574924L229.564,149.6903950496018L232.03866666666667,148.8743663328886L234.51333333333332,149.83825701378285L236.988,139.31353292301299L239.46266666666665,150.79698665749282L241.93733333333336,154.3829586626077L244.412,119.1973130130768L246.88666666666668,107.98507091760635L249.36133333333333,139.10766024261713L251.83599999999998,119.56300019949673L254.31066666666666,144.5698030794412L256.7853333333333,149.2797349792719L259.26,115.08376172482967L261.73466666666667,152.22541857784614L264.20933333333335,137.5746731185913L266.68399999999997,116.86078223228455" fill="none"></path></g></g></g></g></g></g><g transform="translate(40, 176)" clip-path="url(#clip_1)"><clipPath id="clip_1"><rect width="290" height="23"></rect></clipPath><g><g><line x1="0" y1="0" x2="0" y2="5" style="visibility: inherit;" fill="rgb(0, 0, 0)" stroke="rgb(204, 204, 204)" stroke-width="1.333333px"></line><line x1="24.166666666666664" y1="0" x2="24.166666666666664" y2="5" style="visibility: inherit;" fill="rgb(0, 0, 0)" stroke="rgb(204, 204, 204)" stroke-width="1.333333px"></line><line x1="48.33333333333333" y1="0" x2="48.33333333333333" y2="5" style="visibility: inherit;" fill="rgb(0, 0, 0)" stroke="rgb(204, 204, 204)" stroke-width="1.333333px"></line><line x1="72.5" y1="0" x2="72.5" y2="5" style="visibility: inherit;" fill="rgb(0, 0, 0)" stroke="rgb(204, 204, 204)" stroke-width="1.333333px"></line><line x1="96.66666666666666" y1="0" x2="96.66666666666666" y2="5" style="visibility: inherit;" fill="rgb(0, 0, 0)" stroke="rgb(204, 204, 204)" stroke-width="1.333333px"></line><line x1="120.83333333333334" y1="0" x2="120.83333333333334" y2="5" style="visibility: inherit;" fill="rgb(0, 0, 0)" stroke="rgb(204, 204, 204)" stroke-width="1.333333px"></line><line x1="145" y1="0" x2="145" y2="5" style="visibility: inherit;" fill="rgb(0, 0, 0)" stroke="rgb(204, 204, 204)" stroke-width="1.333333px"></line><line x1="169.16666666666669" y1="0" x2="169.16666666666669" y2="5" style="visibility: inherit;" fill="rgb(0, 0, 0)" stroke="rgb(204, 204, 204)" stroke-width="1.333333px"></line><line x1="193.33333333333331" y1="0" x2="193.33333333333331" y2="5" style="visibility: inherit;" fill="rgb(0, 0, 0)" stroke="rgb(204, 204, 204)" stroke-width="1.333333px"></line><line x1="217.5" y1="0" x2="217.5" y2="5" style="visibility: inherit;" fill="rgb(0, 0, 0)" stroke="rgb(204, 204, 204)" stroke-width="1.333333px"></line><line x1="241.66666666666669" y1="0" x2="241.66666666666669" y2="5" style="visibility: inherit;" fill="rgb(0, 0, 0)" stroke="rgb(204, 204, 204)" stroke-width="1.333333px"></line><line x1="265.8333333333333" y1="0" x2="265.8333333333333" y2="5" style="visibility: inherit;" fill="rgb(0, 0, 0)" stroke="rgb(204, 204, 204)" stroke-width="1.333333px"></line><line x1="290" y1="0" x2="290" y2="5" style="visibility: inherit;" fill="rgb(0, 0, 0)" stroke="rgb(204, 204, 204)" stroke-width="1.333333px"></line></g><g transform="translate(0, 8)"><text style="text-anchor: middle; visibility: hidden; font-family: Roboto, sans-serif; font-size: 16px; font-weight: 200;" x="0" y="0" dx="0em" dy="0.95em" fill="rgb(33, 33, 33)" stroke="none" stroke-width="1.333333px">-10k</text><text style="text-anchor: middle; visibility: inherit; font-family: Roboto, sans-serif; font-size: 16px; font-weight: 200;" x="24.166666666666664" y="0" dx="0em" dy="0.95em" fill="rgb(33, 33, 33)" stroke="none" stroke-width="1.333333px">0</text><text style="text-anchor: middle; visibility: hidden; font-family: Roboto, sans-serif; font-size: 16px; font-weight: 200;" x="48.33333333333333" y="0" dx="0em" dy="0.95em" fill="rgb(33, 33, 33)" stroke="none" stroke-width="1.333333px">10k</text><text style="text-anchor: middle; visibility: inherit; font-family: Roboto, sans-serif; font-size: 16px; font-weight: 200;" x="72.5" y="0" dx="0em" dy="0.95em" fill="rgb(33, 33, 33)" stroke="none" stroke-width="1.333333px">20k</text><text style="text-anchor: middle; visibility: hidden; font-family: Roboto, sans-serif; font-size: 16px; font-weight: 200;" x="96.66666666666666" y="0" dx="0em" dy="0.95em" fill="rgb(33, 33, 33)" stroke="none" stroke-width="1.333333px">30k</text><text style="text-anchor: middle; visibility: inherit; font-family: Roboto, sans-serif; font-size: 16px; font-weight: 200;" x="120.83333333333334" y="0" dx="0em" dy="0.95em" fill="rgb(33, 33, 33)" stroke="none" stroke-width="1.333333px">40k</text><text style="text-anchor: middle; visibility: hidden; font-family: Roboto, sans-serif; font-size: 16px; font-weight: 200;" x="145" y="0" dx="0em" dy="0.95em" fill="rgb(33, 33, 33)" stroke="none" stroke-width="1.333333px">50k</text><text style="text-anchor: middle; visibility: inherit; font-family: Roboto, sans-serif; font-size: 16px; font-weight: 200;" x="169.16666666666669" y="0" dx="0em" dy="0.95em" fill="rgb(33, 33, 33)" stroke="none" stroke-width="1.333333px">60k</text><text style="text-anchor: middle; visibility: hidden; font-family: Roboto, sans-serif; font-size: 16px; font-weight: 200;" x="193.33333333333331" y="0" dx="0em" dy="0.95em" fill="rgb(33, 33, 33)" stroke="none" stroke-width="1.333333px">70k</text><text style="text-anchor: middle; visibility: inherit; font-family: Roboto, sans-serif; font-size: 16px; font-weight: 200;" x="217.5" y="0" dx="0em" dy="0.95em" fill="rgb(33, 33, 33)" stroke="none" stroke-width="1.333333px">80k</text><text style="text-anchor: middle; visibility: hidden; font-family: Roboto, sans-serif; font-size: 16px; font-weight: 200;" x="241.66666666666669" y="0" dx="0em" dy="0.95em" fill="rgb(33, 33, 33)" stroke="none" stroke-width="1.333333px">90k</text><text style="text-anchor: middle; visibility: inherit; font-family: Roboto, sans-serif; font-size: 16px; font-weight: 200;" x="265.8333333333333" y="0" dx="0em" dy="0.95em" fill="rgb(33, 33, 33)" stroke="none" stroke-width="1.333333px">100k</text><text style="text-anchor: middle; visibility: hidden; font-family: Roboto, sans-serif; font-size: 16px; font-weight: 200;" x="290" y="0" dx="0em" dy="0.95em" fill="rgb(33, 33, 33)" stroke="none" stroke-width="1.333333px">110k</text></g><line x1="0" y1="0" x2="290" y2="0" fill="rgb(0, 0, 0)" stroke="rgb(204, 204, 204)" stroke-width="1.333333px"></line></g></g></g></g></svg>