<svg viewBox="0 0 330 200" xmlns="http://www.w3.org/2000/svg"><g><g><g><g><g><line x1="50" y1="176.984375" x2="45" y2="176.984375" style="visibility: inherit;" fill="rgb(0, 0, 0)" stroke="rgb(204, 204, 204)" stroke-width="1.333333px"></line><line x1="50" y1="160.89488636363635" x2="45" y2="160.89488636363635" style="visibility: inherit;" fill="rgb(0, 0, 0)" stroke="rgb(204, 204, 204)" stroke-width="1.333333px"></line><line x1="50" y1="144.80539772727272" x2="45" y2="144.80539772727272" style="visibility: inherit;" fill="rgb(0, 0, 0)" stroke="rgb(204, 204, 204)" stroke-width="1.333333px"></line><line x1="50" y1="128.7159090909091" x2="45" y2="128.7159090909091" style="visibility: inherit;" fill="rgb(0, 0, 0)" stroke="rgb(204, 204, 204)" stroke-width="1.333333px"></line><line x1="50" y1="112.62642045454547" x2="45" y2="112.62642045454547" style="visibility: inherit;" fill="rgb(0, 0, 0)" stroke="rgb(204, 204, 204)" stroke-width="1.333333px"></line><line x1="50" y1="96.53693181818181" x2="45" y2="96.53693181818181" style="visibility: inherit;" fill="rgb(0, 0, 0)" stroke="rgb(204, 204, 204)" stroke-width="1.333333px"></line><line x1="50" y1="80.44744318181819" x2="45" y2="80.44744318181819" style="visibility: inherit;" fill="rgb(0, 0, 0)" stroke="rgb(204, 204, 204)" stroke-width="1.333333px"></line><line x1="50" y1="64.35795454545456" x2="45" y2="64.35795454545456" style="visibility: inherit;" fill="rgb(0, 0, 0)" stroke="rgb(204, 204, 204)" stroke-width="1.333333px"></line><line x1="50" y1="48.26846590909091" x2="45" y2="48.26846590909091" style="visibility: inherit;" fill="rgb(0, 0, 0)" stroke="rgb(204, 204, 204)" stroke-width="1.333333px"></line><line x1="50" y1="32.17897727272728" x2="45" y2="32.17897727272728" style="visibility: inherit;" fill="rgb(0, 0, 0)" stroke="rgb(204, 204, 204)" stroke-width="1.333333px"></line><line x1="50" y1="16.08948863636364" x2="45" y2="16.08948863636364" style="visibility: inherit;" fill="rgb(0, 0, 0)" stroke="rgb(204, 204, 204)" stroke-width="1.333333px"></line><line x1="50" y1="0" x2="45" y2="0" style="visibility: inherit;" fill="rgb(0, 0, 0)" stroke="rgb(204, 204, 204)" stroke-width="1.333333px"></line></g><g transform="translate(40, 0)"><text style="text-anchor: end; visibility: hidden; font-family: Roboto, sans-serif; font-size: 16px; font-weight: 200;" x="0" y="176.984375" dx="0em" dy="0.3em" fill="rgb(33, 33, 33)" stroke="none" stroke-width="1.333333px">0.02</text><text style="text-anchor: end; visibility: inherit; font-family: Roboto, sans-serif; font-size: 16px; font-weight: 200;" x="0" y="160.89488636363635" dx="0em" dy="0.3em" fill="rgb(33, 33, 33)" stroke="none" stroke-width="1.333333px">0.03</text><text style="text-anchor: end; visibility: hidden; font-family: Roboto, sans-serif; font-size: 16px; font-weight: 200;" x="0" y="144.80539772727272" dx="0em" dy="0.3em" fill="rgb(33, 33, 33)" stroke="none" stroke-width="1.333333px">0.04</text><text style="text-anchor: end; visibility: inherit; font-family: Roboto, sans-serif; font-size: 16px; font-weight: 200;" x="0" y="128.7159090909091" dx="0em" dy="0.3em" fill="rgb(33, 33, 33)" stroke="none" stroke-width="1.333333px">0.05</text><text style="text-anchor: end; visibility: hidden; font-family: Roboto, sans-serif; font-size: 16px; font-weight: 200;" x="0" y="112.62642045454547" dx="0em" dy="0.3em" fill="rgb(33, 33, 33)" stroke="none" stroke-width="1.333333px">0.06</text><text style="text-anchor: end; visibility: inherit; font-family: Roboto, sans-serif; font-size: 16px; font-weight: 200;" x="0" y="96.53693181818181" dx="0em" dy="0.3em" fill="rgb(33, 33, 33)" stroke="none" stroke-width="1.333333px">0.07</text><text style="text-anchor: end; visibility: hidden; font-family: Roboto, sans-serif; font-size: 16px; font-weight: 200;" x="0" y="80.44744318181819" dx="0em" dy="0.3em" fill="rgb(33, 33, 33)" stroke="none" stroke-width="1.333333px">0.08</text><text style="text-anchor: end; visibility: inherit; font-family: Roboto, sans-serif; font-size: 16px; font-weight: 200;" x="0" y="64.35795454545456" dx="0em" dy="0.3em" fill="rgb(33, 33, 33)" stroke="none" stroke-width="1.333333px">0.09</text><text style="text-anchor: end; visibility: hidden; font-family: Roboto, sans-serif; font-size: 16px; font-weight: 200;" x="0" y="48.26846590909091" dx="0em" dy="0.3em" fill="rgb(33, 33, 33)" stroke="none" stroke-width="1.333333px">0.1</text><text style="text-anchor: end; visibility: inherit; font-family: Roboto, sans-serif; font-size: 16px; font-weight: 200;" x="0" y="32.17897727272728" dx="0em" dy="0.3em" fill="rgb(33, 33, 33)" stroke="none" stroke-width="1.333333px">0.11</text><text style="text-anchor: end; visibility: hidden; font-family: Roboto, sans-serif; font-size: 16px; font-weight: 200;" x="0" y="16.08948863636364" dx="0em" dy="0.3em" fill="rgb(33, 33, 33)" stroke="none" stroke-width="1.333333px">0.12</text><text style="text-anchor: end; visibility: hidden; font-family: Roboto, sans-serif; font-size: 16px; font-weight: 200;" x="0" y="0" dx="0em" dy="0.3em" fill="rgb(33, 33, 33)" stroke="none" stroke-width="1.333333px">0.13</text></g><line x1="50" y1="0" x2="50" y2="176.984375" fill="rgb(0, 0, 0)" stroke="rgb(204, 204, 204)" stroke-width="1.333333px"></line></g></g><g transform="translate(50, 0)" clip-path="url(#clip_0)"><clipPath id="clip_0"><rect width="280" height="176"></rect></clipPath><g><g><g><line x1="0" y1="0" x2="0" y2="176.984375" fill="rgb(0, 0, 0)" stroke="rgb(66, 66, 66)" stroke-width="1.333333px" opacity="0.25"></line><line x1="23.333333333333332" y1="0" x2="23.333333333333332" y2="176.984375" fill="rgb(0, 0, 0)" stroke="rgb(66, 66, 66)" stroke-width="1.333333px" opacity="0.25"></line><line x1="46.666666666666664" y1="0" x2="46.666666666666664" y2="176.984375" fill="rgb(0, 0, 0)" stroke="rgb(66, 66, 66)" stroke-width="1.333333px" opacity="0.25"></line><line x1="70" y1="0" x2="70" y2="176.984375" fill="rgb(0, 0, 0)" stroke="rgb(66, 66, 66)" stroke-width="1.333333px" opacity="0.25"></line><line x1="93.33333333333333" y1="0" x2="93.33333333333333" y2="176.984375" fill="rgb(0, 0, 0)" stroke="rgb(66, 66, 66)" stroke-width="1.333333px" opacity="0.25"></line><line x1="116.66666666666667" y1="0" x2="116.66666666666667" y2="176.984375" fill="rgb(0, 0, 0)" stroke="rgb(66, 66, 66)" stroke-width="1.333333px" opacity="0.25"></line><line x1="140" y1="0" x2="140" y2="176.984375" fill="rgb(0, 0, 0)" stroke="rgb(66, 66, 66)" stroke-width="1.333333px" opacity="0.25"></line><line x1="163.33333333333334" y1="0" x2="163.33333333333334" y2="176.984375" fill="rgb(0, 0, 0)" stroke="rgb(66, 66, 66)" stroke-width="1.333333px" opacity="0.25"></line><line x1="186.66666666666666" y1="0" x2="186.66666666666666" y2="176.984375" fill="rgb(0, 0, 0)" stroke="rgb(66, 66, 66)" stroke-width="1.333333px" opacity="0.25"></line><line x1="210" y1="0" x2="210" y2="176.984375" fill="rgb(0, 0, 0)" stroke="rgb(66, 66, 66)" stroke-width="1.333333px" opacity="0.25"></line><line x1="233.33333333333334" y1="0" x2="233.33333333333334" y2="176.984375" fill="rgb(0, 0, 0)" stroke="rgb(66, 66, 66)" stroke-width="1.333333px" opacity="0.25"></line><line x1="256.66666666666663" y1="0" x2="256.66666666666663" y2="176.984375" fill="rgb(0, 0, 0)" stroke="rgb(66, 66, 66)" stroke-width="1.333333px" opacity="0.25"></line><line x1="280" y1="0" x2="280" y2="176.984375" fill="rgb(0, 0, 0)" stroke="rgb(66, 66, 66)" stroke-width="1.333333px" opacity="0.25"></line></g><g><line x1="0" y1="176.984375" x2="280" y2="176.984375" fill="rgb(0, 0, 0)" stroke="rgb(66, 66, 66)" stroke-width="1.333333px" opacity="0.25"></line><line x1="0" y1="160.89488636363635" x2="280" y2="160.89488636363635" fill="rgb(0, 0, 0)" stroke="rgb(66, 66, 66)" stroke-width="1.333333px" opacity="0.25"></line><line x1="0" y1="144.80539772727272" x2="280" y2="144.80539772727272" fill="rgb(0, 0, 0)" stroke="rgb(66, 66, 66)" stroke-width="1.333333px" opacity="0.25"></line><line x1="0" y1="128.7159090909091" x2="280" y2="128.7159090909091" fill="rgb(0, 0, 0)" stroke="rgb(66, 66, 66)" stroke-width="1.333333px" opacity="0.25"></line><line x1="0" y1="112.62642045454547" x2="280" y2="112.62642045454547" fill="rgb(0, 0, 0)" stroke="rgb(66, 66, 66)" stroke-width="1.333333px" opacity="0.25"></line><line x1="0" y1="96.53693181818181" x2="280" y2="96.53693181818181" fill="rgb(0, 0, 0)" stroke="rgb(66, 66, 66)" stroke-width="1.333333px" opacity="0.25"></line><line x1="0" y1="80.44744318181819" x2="280" y2="80.44744318181819" fill="rgb(0, 0, 0)" stroke="rgb(66, 66, 66)" stroke-width="1.333333px" opacity="0.25"></line><line x1="0" y1="64.35795454545456" x2="280" y2="64.35795454545456" fill="rgb(0, 0, 0)" stroke="rgb(66, 66, 66)" stroke-width="1.333333px" opacity="0.25"></line><line x1="0" y1="48.26846590909091" x2="280" y2="48.26846590909091" fill="rgb(0, 0, 0)" stroke="rgb(66, 66, 66)" stroke-width="1.333333px" opacity="0.25"></line><line x1="0" y1="32.17897727272728" x2="280" y2="32.17897727272728" fill="rgb(0, 0, 0)" stroke="rgb(66, 66, 66)" stroke-width="1.333333px" opacity="0.25"></line><line x1="0" y1="16.08948863636364" x2="280" y2="16.08948863636364" fill="rgb(0, 0, 0)" stroke="rgb(66, 66, 66)" stroke-width="1.333333px" opacity="0.25"></line><line x1="0" y1="0" x2="280" y2="0" fill="rgb(0, 0, 0)" stroke="rgb(66, 66, 66)" stroke-width="1.333333px" opacity="0.25"></line></g></g></g><g><g><line x1="0" y1="209.16335227272728" x2="280" y2="209.16335227272728" fill="rgb(0, 0, 0)" stroke="rgb(153, 153, 153)" stroke-width="2px"></line></g></g><g><g><line x1="23.333333333333332" y1="0" x2="23.333333333333332" y2="176.984375" fill="rgb(0, 0, 0)" stroke="rgb(153, 153, 153)" stroke-width="2px"></line></g></g><g><g><g><g><g><path style="fill: none;" stroke="rgb(255, 112, 67)" stroke-width="2.666667px" d="M28.112000000000002,192.03684641347817L30.50133333333333,121.52749331732706L32.89066666666667,99.62233520249586L35.28,97.54010129557183L37.669333333333334,106.018866333083L40.05866666666667,104.07097947861102L42.448,47.80743269593588L44.83733333333333,44.86275611995904L47.22666666666667,18.04961659496362L49.616,22.053772116681156L52.00533333333333,28.919284659871458L54.394666666666666,78.0580853490752L56.784,75.56641707024461L59.17333333333334,110.30324248784676L61.562666666666665,106.29064928755419L63.952,107.97067810464209L66.34133333333334,132.73954906786355L68.73066666666666,147.59818814610114L71.12,149.6613847307362L73.50933333333333,125.88418363915747L75.89866666666667,151.65446861575947L78.28800000000001,158.06582154936834L80.67733333333334,157.45022470691612L83.06666666666668,173.2961344331733L85.456,171.80492647352312L87.84533333333333,140.9309102941213L90.23466666666666,134.2222665210243L92.624,128.50014487535597L95.01333333333334,84.528887387021L97.40266666666666,39.165572359177546L99.792,-4.51899653165588L102.18133333333333,47.26658123815789L104.57066666666667,16.242554968208122L106.96000000000001,29.618565812671918L109.34933333333333,34.753092994039505L111.73866666666667,63.0993327132423L114.128,87.90042342312113L116.51733333333334,99.51289987991689L118.90666666666668,86.43137588977407L121.29599999999999,78.45675950717651L123.68533333333333,39.796077965959505L126.07466666666666,22.130432700502364L128.464,56.091383298431104L130.85333333333332,71.75423627616138L133.24266666666665,83.72877926674012L135.632,57.91748344069024L138.02133333333333,37.65413996599964L140.41066666666666,18.645535134098054L142.8,85.42522724258004L145.1893333333333,102.9300477180023L147.57866666666666,82.0710061160928L149.968,96.9579929274108L152.35733333333334,118.14585018642538L154.74666666666667,111.12380257476237L157.136,100.1856676772602L159.52533333333332,87.08643581627109L161.91466666666668,57.10384694765102L164.304,53.82109279216971L166.69333333333336,54.05117507338422L169.08266666666665,49.5383556741556L171.472,65.49698771242511L173.86133333333333,49.74379032809403L176.25066666666666,67.00293701645887L178.64000000000001,89.67693880768542L181.0293333333333,66.32579854779813L183.41866666666667,76.00939847349423L185.808,94.89226746645322L188.19733333333335,83.2190466389151L190.58666666666667,110.46812945717139L192.976,128.26311866329428L195.36533333333333,126.24449958033324L197.75466666666668,114.663152305421L200.144,129.96308850693285L202.53333333333336,137.76035931864837L204.92266666666666,142.50157041165517L207.31199999999998,156.72206976840064L209.70133333333334,133.82958449202957L212.09066666666666,142.02859246525776L214.48000000000002,147.19939646814615L216.86933333333332,137.73196587272008L219.25866666666667,126.08079884181386L221.648,119.71859427312809L224.03733333333335,113.95293597636524L226.42666666666665,80.76569484200976L228.816,46.523652221659866L231.20533333333333,86.43970624776864L233.59466666666668,113.78321613167512L235.984,103.3525549360596L238.37333333333333,134.86674821366572L240.76266666666666,125.68150815207468L243.152,135.4428103246849L245.54133333333334,156.1320880058905L247.93066666666667,125.49370259934396L250.32,107.11067135541605L252.70933333333332,129.20257383607762L255.09866666666667,152.57649492755954L257.488,135.55316331859797" fill="none"></path></g></g></g></g><g opacity="0.2"><g><g><g><path style="fill: none;" stroke="rgb(255, 112, 67)" stroke-width="2.666667px" d="M28.112000000000002,192.03684641347817L30.50133333333333,79.22188145963645L32.89066666666667,78.59338341225786L35.28,95.09139422102916L37.669333333333334,117.08874196605757L40.05866666666667,101.37635071960871L42.448,-32.65033942003819L44.83733333333333,40.56938940328969L47.22666666666667,-21.494556020183328L49.616,27.999476406130615L52.00533333333333,39.15528378119184L54.394666666666666,151.49887519949962L56.784,71.83705038124357L59.17333333333334,162.34042755706997L61.562666666666665,100.27647613979538L63.952,110.48953644378872L66.34133333333334,169.8823741566051L68.73066666666666,169.8823741566051L71.12,152.7558653004552L73.50933333333333,90.22055533215065L75.89866666666667,190.30848277698863L78.28800000000001,167.68263998148245L80.67733333333334,156.52684159712356L83.06666666666668,197.06481131265173L85.456,169.56812513291584L87.84533333333333,94.62001768859443L90.23466666666666,124.15931802695957L92.624,119.91697119165805L95.01333333333334,18.572041658261284L97.40266666666666,-28.879375110973037L99.792,-70.04583538162777L102.18133333333333,124.944937589282L104.57066666666667,-30.293480733070886L106.96000000000001,49.68258112127131L109.34933333333333,42.454883545425474L111.73866666666667,105.61869156110862L114.128,125.10205910422586L116.51733333333334,116.93161445731212L118.90666666666668,66.80908997742121L121.29599999999999,66.49483495993032L123.68533333333333,-18.19494426834652L126.07466666666666,-4.368035176430222L128.464,107.03280917080966L130.85333333333332,95.24851573597302L133.24266666666665,101.69059374949641L135.632,19.200539705639887L138.02133333333333,7.259124755859375L140.41066666666666,-9.867372112687313L142.8,185.59476540305397L145.1893333333333,129.18727843078193L147.57866666666666,50.782443713481456L149.968,119.28847314427946L152.35733333333334,149.92763607485475L154.74666666666667,100.59073115728626L157.136,83.77846533102407L159.52533333333332,67.43758802479981L161.91466666666668,12.129963644737884L164.304,48.89696155894888L166.69333333333336,54.39629849520597L169.08266666666665,42.76912657531319L171.472,89.4349357698282L173.86133333333333,26.113994251598015L176.25066666666666,92.89165704900569L178.64000000000001,123.68794149452482L181.0293333333333,31.29908815796742L183.41866666666667,90.53479836203836L185.808,123.21657095589168L188.19733333333335,65.70921539760788L190.58666666666667,151.34175368455575L192.976,154.9556024724787L195.36533333333333,123.21657095589168L197.75466666666668,97.29113139305264L200.144,152.91299280920066L202.53333333333336,149.4562655362216L204.92266666666666,149.61338705116546L207.31199999999998,178.05281880351885L209.70133333333334,99.49085657747293L212.09066666666666,154.32710442510012L214.48000000000002,154.9556024724787L216.86933333333332,123.53081997958097L219.25866666666667,108.60404829545455L221.648,110.17528742009944L224.03733333333335,105.30444853122093L226.42666666666665,30.984833140476525L228.816,-4.839411708864951L231.20533333333333,146.3137872869318L233.59466666666668,154.79848095753485L235.984,87.70656314263628L238.37333333333333,182.1380381300749L240.76266666666666,111.90364805968818L243.152,150.08476358360016L245.54133333333334,187.16600452769887L247.93066666666667,79.53612448952416L250.32,79.53612448952416L252.70933333333332,162.34042755706997L255.09866666666667,187.63737656478241L257.488,110.01816590515558" fill="none"></path></g></g></g></g></g></g><g transform="translate(50, 176)" clip-path="url(#clip_1)"><clipPath id="clip_1"><rect width="280" height="23"></rect></clipPath><g><g><line x1="0" y1="0" x2="0" y2="5" style="visibility: inherit;" fill="rgb(0, 0, 0)" stroke="rgb(204, 204, 204)" stroke-width="1.333333px"></line><line x1="23.333333333333332" y1="0" x2="23.333333333333332" y2="5" style="visibility: inherit;" fill="rgb(0, 0, 0)" stroke="rgb(204, 204, 204)" stroke-width="1.333333px"></line><line x1="46.666666666666664" y1="0" x2="46.666666666666664" y2="5" style="visibility: inherit;" fill="rgb(0, 0, 0)" stroke="rgb(204, 204, 204)" stroke-width="1.333333px"></line><line x1="70" y1="0" x2="70" y2="5" style="visibility: inherit;" fill="rgb(0, 0, 0)" stroke="rgb(204, 204, 204)" stroke-width="1.333333px"></line><line x1="93.33333333333333" y1="0" x2="93.33333333333333" y2="5" style="visibility: inherit;" fill="rgb(0, 0, 0)" stroke="rgb(204, 204, 204)" stroke-width="1.333333px"></line><line x1="116.66666666666667" y1="0" x2="116.66666666666667" y2="5" style="visibility: inherit;" fill="rgb(0, 0, 0)" stroke="rgb(204, 204, 204)" stroke-width="1.333333px"></line><line x1="140" y1="0" x2="140" y2="5" style="visibility: inherit;" fill="rgb(0, 0, 0)" stroke="rgb(204, 204, 204)" stroke-width="1.333333px"></line><line x1="163.33333333333334" y1="0" x2="163.33333333333334" y2="5" style="visibility: inherit;" fill="rgb(0, 0, 0)" stroke="rgb(204, 204, 204)" stroke-width="1.333333px"></line><line x1="186.66666666666666" y1="0" x2="186.66666666666666" y2="5" style="visibility: inherit;" fill="rgb(0, 0, 0)" stroke="rgb(204, 204, 204)" stroke-width="1.333333px"></line><line x1="210" y1="0" x2="210" y2="5" style="visibility: inherit;" fill="rgb(0, 0, 0)" stroke="rgb(204, 204, 204)" stroke-width="1.333333px"></line><line x1="233.33333333333334" y1="0" x2="233.33333333333334" y2="5" style="visibility: inherit;" fill="rgb(0, 0, 0)" stroke="rgb(204, 204, 204)" stroke-width="1.333333px"></line><line x1="256.66666666666663" y1="0" x2="256.66666666666663" y2="5" style="visibility: inherit;" fill="rgb(0, 0, 0)" stroke="rgb(204, 204, 204)" stroke-width="1.333333px"></line><line x1="280" y1="0" x2="280" y2="5" style="visibility: inherit;" fill="rgb(0, 0, 0)" stroke="rgb(204, 204, 204)" stroke-width="1.333333px"></line></g><g transform="translate(0, 8)"><text style="text-anchor: middle; visibility: hidden; font-family: Roboto, sans-serif; font-size: 16px; font-weight: 200;" x="0" y="0" dx="0em" dy="0.95em" fill="rgb(33, 33, 33)" stroke="none" stroke-width="1.333333px">-10k</text><text style="text-anchor: middle; visibility: inherit; font-family: Roboto, sans-serif; font-size: 16px; font-weight: 200;" x="23.333333333333332" y="0" dx="0em" dy="0.95em" fill="rgb(33, 33, 33)" stroke="none" stroke-width="1.333333px">0</text><text style="text-anchor: middle; visibility: hidden; font-family: Roboto, sans-serif; font-size: 16px; font-weight: 200;" x="46.666666666666664" y="0" dx="0em" dy="0.95em" fill="rgb(33, 33, 33)" stroke="none" stroke-width="1.333333px">10k</text><text style="text-anchor: middle; visibility: inherit; font-family: Roboto, sans-serif; font-size: 16px; font-weight: 200;" x="70" y="0" dx="0em" dy="0.95em" fill="rgb(33, 33, 33)" stroke="none" stroke-width="1.333333px">20k</text><text style="text-anchor: middle; visibility: hidden; font-family: Roboto, sans-serif; font-size: 16px; font-weight: 200;" x="93.33333333333333" y="0" dx="0em" dy="0.95em" fill="rgb(33, 33, 33)" stroke="none" stroke-width="1.333333px">30k</text><text style="text-anchor: middle; visibility: inherit; font-family: Roboto, sans-serif; font-size: 16px; font-weight: 200;" x="116.66666666666667" y="0" dx="0em" dy="0.95em" fill="rgb(33, 33, 33)" stroke="none" stroke-width="1.333333px">40k</text><text style="text-anchor: middle; visibility: hidden; font-family: Roboto, sans-serif; font-size: 16px; font-weight: 200;" x="140" y="0" dx="0em" dy="0.95em" fill="rgb(33, 33, 33)" stroke="none" stroke-width="1.333333px">50k</text><text style="text-anchor: middle; visibility: inherit; font-family: Roboto, sans-serif; font-size: 16px; font-weight: 200;" x="163.33333333333334" y="0" dx="0em" dy="0.95em" fill="rgb(33, 33, 33)" stroke="none" stroke-width="1.333333px">60k</text><text style="text-anchor: middle; visibility: hidden; font-family: Roboto, sans-serif; font-size: 16px; font-weight: 200;" x="186.66666666666666" y="0" dx="0em" dy="0.95em" fill="rgb(33, 33, 33)" stroke="none" stroke-width="1.333333px">70k</text><text style="text-anchor: middle; visibility: inherit; font-family: Roboto, sans-serif; font-size: 16px; font-weight: 200;" x="210" y="0" dx="0em" dy="0.95em" fill="rgb(33, 33, 33)" stroke="none" stroke-width="1.333333px">80k</text><text style="text-anchor: middle; visibility: hidden; font-family: Roboto, sans-serif; font-size: 16px; font-weight: 200;" x="233.33333333333334" y="0" dx="0em" dy="0.95em" fill="rgb(33, 33, 33)" stroke="none" stroke-width="1.333333px">90k</text><text style="text-anchor: middle; visibility: inherit; font-family: Roboto, sans-serif; font-size: 16px; font-weight: 200;" x="256.66666666666663" y="0" dx="0em" dy="0.95em" fill="rgb(33, 33, 33)" stroke="none" stroke-width="1.333333px">100k</text><text style="text-anchor: middle; visibility: hidden; font-family: Roboto, sans-serif; font-size: 16px; font-weight: 200;" x="280" y="0" dx="0em" dy="0.95em" fill="rgb(33, 33, 33)" stroke="none" stroke-width="1.333333px">110k</text></g><line x1="0" y1="0" x2="280" y2="0" fill="rgb(0, 0, 0)" stroke="rgb(204, 204, 204)" stroke-width="1.333333px"></line></g></g></g></g></svg>