<svg viewBox="0 0 330 200" xmlns="http://www.w3.org/2000/svg"><g><g><g><g><g><line x1="40" y1="176.984375" x2="35" y2="176.984375" style="visibility: inherit;" fill="rgb(0, 0, 0)" stroke="rgb(204, 204, 204)" stroke-width="1.333333px"></line><line x1="40" y1="154.861328125" x2="35" y2="154.861328125" style="visibility: inherit;" fill="rgb(0, 0, 0)" stroke="rgb(204, 204, 204)" stroke-width="1.333333px"></line><line x1="40" y1="132.73828125" x2="35" y2="132.73828125" style="visibility: inherit;" fill="rgb(0, 0, 0)" stroke="rgb(204, 204, 204)" stroke-width="1.333333px"></line><line x1="40" y1="110.615234375" x2="35" y2="110.615234375" style="visibility: inherit;" fill="rgb(0, 0, 0)" stroke="rgb(204, 204, 204)" stroke-width="1.333333px"></line><line x1="40" y1="88.4921875" x2="35" y2="88.4921875" style="visibility: inherit;" fill="rgb(0, 0, 0)" stroke="rgb(204, 204, 204)" stroke-width="1.333333px"></line><line x1="40" y1="66.369140625" x2="35" y2="66.369140625" style="visibility: inherit;" fill="rgb(0, 0, 0)" stroke="rgb(204, 204, 204)" stroke-width="1.333333px"></line><line x1="40" y1="44.24609375" x2="35" y2="44.24609375" style="visibility: inherit;" fill="rgb(0, 0, 0)" stroke="rgb(204, 204, 204)" stroke-width="1.333333px"></line><line x1="40" y1="22.123046875" x2="35" y2="22.123046875" style="visibility: inherit;" fill="rgb(0, 0, 0)" stroke="rgb(204, 204, 204)" stroke-width="1.333333px"></line><line x1="40" y1="0" x2="35" y2="0" style="visibility: inherit;" fill="rgb(0, 0, 0)" stroke="rgb(204, 204, 204)" stroke-width="1.333333px"></line></g><g transform="translate(30, 0)"><text style="text-anchor: end; visibility: hidden; font-family: Roboto, sans-serif; font-size: 16px; font-weight: 200;" x="0" y="176.984375" dx="0em" dy="0.3em" fill="rgb(33, 33, 33)" stroke="none" stroke-width="1.333333px">-50</text><text style="text-anchor: end; visibility: inherit; font-family: Roboto, sans-serif; font-size: 16px; font-weight: 200;" x="0" y="154.861328125" dx="0em" dy="0.3em" fill="rgb(33, 33, 33)" stroke="none" stroke-width="1.333333px">0</text><text style="text-anchor: end; visibility: hidden; font-family: Roboto, sans-serif; font-size: 16px; font-weight: 200;" x="0" y="132.73828125" dx="0em" dy="0.3em" fill="rgb(33, 33, 33)" stroke="none" stroke-width="1.333333px">50</text><text style="text-anchor: end; visibility: inherit; font-family: Roboto, sans-serif; font-size: 16px; font-weight: 200;" x="0" y="110.615234375" dx="0em" dy="0.3em" fill="rgb(33, 33, 33)" stroke="none" stroke-width="1.333333px">100</text><text style="text-anchor: end; visibility: hidden; font-family: Roboto, sans-serif; font-size: 16px; font-weight: 200;" x="0" y="88.4921875" dx="0em" dy="0.3em" fill="rgb(33, 33, 33)" stroke="none" stroke-width="1.333333px">150</text><text style="text-anchor: end; visibility: inherit; font-family: Roboto, sans-serif; font-size: 16px; font-weight: 200;" x="0" y="66.369140625" dx="0em" dy="0.3em" fill="rgb(33, 33, 33)" stroke="none" stroke-width="1.333333px">200</text><text style="text-anchor: end; visibility: hidden; font-family: Roboto, sans-serif; font-size: 16px; font-weight: 200;" x="0" y="44.24609375" dx="0em" dy="0.3em" fill="rgb(33, 33, 33)" stroke="none" stroke-width="1.333333px">250</text><text style="text-anchor: end; visibility: inherit; font-family: Roboto, sans-serif; font-size: 16px; font-weight: 200;" x="0" y="22.123046875" dx="0em" dy="0.3em" fill="rgb(33, 33, 33)" stroke="none" stroke-width="1.333333px">300</text><text style="text-anchor: end; visibility: hidden; font-family: Roboto, sans-serif; font-size: 16px; font-weight: 200;" x="0" y="0" dx="0em" dy="0.3em" fill="rgb(33, 33, 33)" stroke="none" stroke-width="1.333333px">350</text></g><line x1="40" y1="0" x2="40" y2="176.984375" fill="rgb(0, 0, 0)" stroke="rgb(204, 204, 204)" stroke-width="1.333333px"></line></g></g><g transform="translate(40, 0)" clip-path="url(#clip_0)"><clipPath id="clip_0"><rect width="290" height="176"></rect></clipPath><g><g><g><line x1="0" y1="0" x2="0" y2="176.984375" fill="rgb(0, 0, 0)" stroke="rgb(66, 66, 66)" stroke-width="1.333333px" opacity="0.25"></line><line x1="26.363636363636363" y1="0" x2="26.363636363636363" y2="176.984375" fill="rgb(0, 0, 0)" stroke="rgb(66, 66, 66)" stroke-width="1.333333px" opacity="0.25"></line><line x1="52.72727272727273" y1="0" x2="52.72727272727273" y2="176.984375" fill="rgb(0, 0, 0)" stroke="rgb(66, 66, 66)" stroke-width="1.333333px" opacity="0.25"></line><line x1="79.09090909090908" y1="0" x2="79.09090909090908" y2="176.984375" fill="rgb(0, 0, 0)" stroke="rgb(66, 66, 66)" stroke-width="1.333333px" opacity="0.25"></line><line x1="105.45454545454545" y1="0" x2="105.45454545454545" y2="176.984375" fill="rgb(0, 0, 0)" stroke="rgb(66, 66, 66)" stroke-width="1.333333px" opacity="0.25"></line><line x1="131.8181818181818" y1="0" x2="131.8181818181818" y2="176.984375" fill="rgb(0, 0, 0)" stroke="rgb(66, 66, 66)" stroke-width="1.333333px" opacity="0.25"></line><line x1="158.18181818181816" y1="0" x2="158.18181818181816" y2="176.984375" fill="rgb(0, 0, 0)" stroke="rgb(66, 66, 66)" stroke-width="1.333333px" opacity="0.25"></line><line x1="184.54545454545453" y1="0" x2="184.54545454545453" y2="176.984375" fill="rgb(0, 0, 0)" stroke="rgb(66, 66, 66)" stroke-width="1.333333px" opacity="0.25"></line><line x1="210.9090909090909" y1="0" x2="210.9090909090909" y2="176.984375" fill="rgb(0, 0, 0)" stroke="rgb(66, 66, 66)" stroke-width="1.333333px" opacity="0.25"></line><line x1="237.27272727272728" y1="0" x2="237.27272727272728" y2="176.984375" fill="rgb(0, 0, 0)" stroke="rgb(66, 66, 66)" stroke-width="1.333333px" opacity="0.25"></line><line x1="263.6363636363636" y1="0" x2="263.6363636363636" y2="176.984375" fill="rgb(0, 0, 0)" stroke="rgb(66, 66, 66)" stroke-width="1.333333px" opacity="0.25"></line><line x1="290" y1="0" x2="290" y2="176.984375" fill="rgb(0, 0, 0)" stroke="rgb(66, 66, 66)" stroke-width="1.333333px" opacity="0.25"></line></g><g><line x1="0" y1="176.984375" x2="290" y2="176.984375" fill="rgb(0, 0, 0)" stroke="rgb(66, 66, 66)" stroke-width="1.333333px" opacity="0.25"></line><line x1="0" y1="154.861328125" x2="290" y2="154.861328125" fill="rgb(0, 0, 0)" stroke="rgb(66, 66, 66)" stroke-width="1.333333px" opacity="0.25"></line><line x1="0" y1="132.73828125" x2="290" y2="132.73828125" fill="rgb(0, 0, 0)" stroke="rgb(66, 66, 66)" stroke-width="1.333333px" opacity="0.25"></line><line x1="0" y1="110.615234375" x2="290" y2="110.615234375" fill="rgb(0, 0, 0)" stroke="rgb(66, 66, 66)" stroke-width="1.333333px" opacity="0.25"></line><line x1="0" y1="88.4921875" x2="290" y2="88.4921875" fill="rgb(0, 0, 0)" stroke="rgb(66, 66, 66)" stroke-width="1.333333px" opacity="0.25"></line><line x1="0" y1="66.369140625" x2="290" y2="66.369140625" fill="rgb(0, 0, 0)" stroke="rgb(66, 66, 66)" stroke-width="1.333333px" opacity="0.25"></line><line x1="0" y1="44.24609375" x2="290" y2="44.24609375" fill="rgb(0, 0, 0)" stroke="rgb(66, 66, 66)" stroke-width="1.333333px" opacity="0.25"></line><line x1="0" y1="22.123046875" x2="290" y2="22.123046875" fill="rgb(0, 0, 0)" stroke="rgb(66, 66, 66)" stroke-width="1.333333px" opacity="0.25"></line><line x1="0" y1="0" x2="290" y2="0" fill="rgb(0, 0, 0)" stroke="rgb(66, 66, 66)" stroke-width="1.333333px" opacity="0.25"></line></g></g></g><g><g><line x1="0" y1="154.861328125" x2="290" y2="154.861328125" fill="rgb(0, 0, 0)" stroke="rgb(153, 153, 153)" stroke-width="2px"></line></g></g><g><g><line x1="0" y1="0" x2="0" y2="176.984375" fill="rgb(0, 0, 0)" stroke="rgb(153, 153, 153)" stroke-width="2px"></line></g></g><g><g><g><g><g><path style="fill: none;" stroke="rgb(255, 112, 67)" stroke-width="2.666667px" d="M16.19781818181818,-40.93699587211011L21.59709090909091,27.272802646306097L26.996363636363636,22.92194019468391L32.39563636363636,47.70310674777552L37.794909090909094,45.32238176498965L43.19418181818182,5.731046960215317L48.59345454545454,51.460248517719684L53.99272727272727,23.287053386218517L59.392,30.994890339547677L64.79127272727273,58.578290352721474L70.19054545454546,43.63929809304037L75.58981818181819,61.609795605949046L80.98909090909092,87.1119101480335L86.38836363636364,96.62494549909997L91.78763636363637,100.38608340376292L97.18690909090908,113.82133944690017L102.58618181818181,125.5375900287746L107.98545454545454,126.79910928326038L113.38472727272728,133.42027810318822L118.784,138.97517924606805L124.18327272727274,140.69770861803397L129.58254545454545,129.6591520918104L134.98181818181817,138.45480237023736L140.38109090909091,125.4356476291786L145.78036363636363,131.55935574107443L151.17963636363638,139.44211471354524L156.5789090909091,139.858259140909L161.97818181818184,139.22094399517346L167.37745454545453,143.84192140494494L172.77672727272727,145.85014968228865L178.176,139.93055033786035L183.57527272727273,144.63624542561848L188.97454545454548,142.32078813634857L194.37381818181817,144.6884778705612L199.7730909090909,146.9578777848386L205.17236363636363,149.12699146506452L210.57163636363637,138.444089988602L215.9709090909091,140.9265362857948L221.3701818181818,138.343606373563L226.76945454545455,138.88701421786894L232.16872727272727,144.3257361249471L237.568,146.99088721400528L242.96727272727273,148.1740170893992L248.36654545454547,148.62167364822062L253.76581818181816,150.83116184502828L259.1650909090909,152.11156000525446L264.5643636363636,152.7048947226691" fill="none"></path></g></g></g></g><g opacity="0.2"><g><g><g><path style="fill: none;" stroke="rgb(255, 112, 67)" stroke-width="2.666667px" d="M16.19781818181818,-32.078093900680535L21.59709090909091,92.75420922398567L26.996363636363636,17.805325951576233L32.39563636363636,80.0573977994919L37.794909090909094,42.02898205280303L43.19418181818182,-50.885195271968854L48.59345454545454,118.13386338889599L53.99272727272727,-18.262937071323407L59.392,42.44012991309166L64.79127272727273,99.7032109645009L70.19054545454546,21.31210703969001L75.58981818181819,88.50686508297919L80.98909090909092,125.3151206639409L86.38836363636364,110.88331630975009L91.78763636363637,106.02513761490583L97.18690909090908,133.9685381615162L102.58618181818181,143.10899114683272L107.98545454545454,128.69119598522784L113.38472727272728,143.35142613202333L118.784,147.3072263164073L124.18327272727274,143.28144599542023L129.58254545454545,113.1015352395177L134.98181818181817,151.64817359501495L140.38109090909091,105.90700805217028L145.78036363636363,140.7448917941004L151.17963636363638,151.2662330024317L156.5789090909091,140.482475143075L161.97818181818184,138.26497186362744L167.37745454545453,150.77338496565818L172.77672727272727,148.86249143235383L178.176,131.0511524990201L183.57527272727273,151.69478749549015L188.97454545454548,138.84760236829518L194.37381818181817,148.24001237012445L199.7730909090909,150.36197759773583L205.17236363636363,152.38066195184365L210.57163636363637,122.41973787307738L215.9709090909091,144.65020571775733L221.3701818181818,134.4692115138471L226.76945454545455,139.70212598323823L232.16872727272727,152.48381897902115L237.568,150.98861384566874L242.96727272727273,149.94871190197765L248.36654545454547,149.29315848633647L253.76581818181816,154.14539413989522L259.1650909090909,154.03215724547394L264.5643636363636,153.59489679875784" fill="none"></path></g></g></g></g></g></g><g transform="translate(40, 176)" clip-path="url(#clip_1)"><clipPath id="clip_1"><rect width="290" height="23"></rect></clipPath><g><g><line x1="0" y1="0" x2="0" y2="5" style="visibility: inherit;" fill="rgb(0, 0, 0)" stroke="rgb(204, 204, 204)" stroke-width="1.333333px"></line><line x1="26.363636363636363" y1="0" x2="26.363636363636363" y2="5" style="visibility: inherit;" fill="rgb(0, 0, 0)" stroke="rgb(204, 204, 204)" stroke-width="1.333333px"></line><line x1="52.72727272727273" y1="0" x2="52.72727272727273" y2="5" style="visibility: inherit;" fill="rgb(0, 0, 0)" stroke="rgb(204, 204, 204)" stroke-width="1.333333px"></line><line x1="79.09090909090908" y1="0" x2="79.09090909090908" y2="5" style="visibility: inherit;" fill="rgb(0, 0, 0)" stroke="rgb(204, 204, 204)" stroke-width="1.333333px"></line><line x1="105.45454545454545" y1="0" x2="105.45454545454545" y2="5" style="visibility: inherit;" fill="rgb(0, 0, 0)" stroke="rgb(204, 204, 204)" stroke-width="1.333333px"></line><line x1="131.8181818181818" y1="0" x2="131.8181818181818" y2="5" style="visibility: inherit;" fill="rgb(0, 0, 0)" stroke="rgb(204, 204, 204)" stroke-width="1.333333px"></line><line x1="158.18181818181816" y1="0" x2="158.18181818181816" y2="5" style="visibility: inherit;" fill="rgb(0, 0, 0)" stroke="rgb(204, 204, 204)" stroke-width="1.333333px"></line><line x1="184.54545454545453" y1="0" x2="184.54545454545453" y2="5" style="visibility: inherit;" fill="rgb(0, 0, 0)" stroke="rgb(204, 204, 204)" stroke-width="1.333333px"></line><line x1="210.9090909090909" y1="0" x2="210.9090909090909" y2="5" style="visibility: inherit;" fill="rgb(0, 0, 0)" stroke="rgb(204, 204, 204)" stroke-width="1.333333px"></line><line x1="237.27272727272728" y1="0" x2="237.27272727272728" y2="5" style="visibility: inherit;" fill="rgb(0, 0, 0)" stroke="rgb(204, 204, 204)" stroke-width="1.333333px"></line><line x1="263.6363636363636" y1="0" x2="263.6363636363636" y2="5" style="visibility: inherit;" fill="rgb(0, 0, 0)" stroke="rgb(204, 204, 204)" stroke-width="1.333333px"></line><line x1="290" y1="0" x2="290" y2="5" style="visibility: inherit;" fill="rgb(0, 0, 0)" stroke="rgb(204, 204, 204)" stroke-width="1.333333px"></line></g><g transform="translate(0, 8)"><text style="text-anchor: middle; visibility: hidden; font-family: Roboto, sans-serif; font-size: 16px; font-weight: 200;" x="0" y="0" dx="0em" dy="0.95em" fill="rgb(33, 33, 33)" stroke="none" stroke-width="1.333333px">0</text><text style="text-anchor: middle; visibility: inherit; font-family: Roboto, sans-serif; font-size: 16px; font-weight: 200;" x="26.363636363636363" y="0" dx="0em" dy="0.95em" fill="rgb(33, 33, 33)" stroke="none" stroke-width="1.333333px">10k</text><text style="text-anchor: middle; visibility: hidden; font-family: Roboto, sans-serif; font-size: 16px; font-weight: 200;" x="52.72727272727273" y="0" dx="0em" dy="0.95em" fill="rgb(33, 33, 33)" stroke="none" stroke-width="1.333333px">20k</text><text style="text-anchor: middle; visibility: inherit; font-family: Roboto, sans-serif; font-size: 16px; font-weight: 200;" x="79.09090909090908" y="0" dx="0em" dy="0.95em" fill="rgb(33, 33, 33)" stroke="none" stroke-width="1.333333px">30k</text><text style="text-anchor: middle; visibility: hidden; font-family: Roboto, sans-serif; font-size: 16px; font-weight: 200;" x="105.45454545454545" y="0" dx="0em" dy="0.95em" fill="rgb(33, 33, 33)" stroke="none" stroke-width="1.333333px">40k</text><text style="text-anchor: middle; visibility: inherit; font-family: Roboto, sans-serif; font-size: 16px; font-weight: 200;" x="131.8181818181818" y="0" dx="0em" dy="0.95em" fill="rgb(33, 33, 33)" stroke="none" stroke-width="1.333333px">50k</text><text style="text-anchor: middle; visibility: hidden; font-family: Roboto, sans-serif; font-size: 16px; font-weight: 200;" x="158.18181818181816" y="0" dx="0em" dy="0.95em" fill="rgb(33, 33, 33)" stroke="none" stroke-width="1.333333px">60k</text><text style="text-anchor: middle; visibility: inherit; font-family: Roboto, sans-serif; font-size: 16px; font-weight: 200;" x="184.54545454545453" y="0" dx="0em" dy="0.95em" fill="rgb(33, 33, 33)" stroke="none" stroke-width="1.333333px">70k</text><text style="text-anchor: middle; visibility: hidden; font-family: Roboto, sans-serif; font-size: 16px; font-weight: 200;" x="210.9090909090909" y="0" dx="0em" dy="0.95em" fill="rgb(33, 33, 33)" stroke="none" stroke-width="1.333333px">80k</text><text style="text-anchor: middle; visibility: inherit; font-family: Roboto, sans-serif; font-size: 16px; font-weight: 200;" x="237.27272727272728" y="0" dx="0em" dy="0.95em" fill="rgb(33, 33, 33)" stroke="none" stroke-width="1.333333px">90k</text><text style="text-anchor: middle; visibility: hidden; font-family: Roboto, sans-serif; font-size: 16px; font-weight: 200;" x="263.6363636363636" y="0" dx="0em" dy="0.95em" fill="rgb(33, 33, 33)" stroke="none" stroke-width="1.333333px">100k</text><text style="text-anchor: middle; visibility: hidden; font-family: Roboto, sans-serif; font-size: 16px; font-weight: 200;" x="290" y="0" dx="0em" dy="0.95em" fill="rgb(33, 33, 33)" stroke="none" stroke-width="1.333333px">110k</text></g><line x1="0" y1="0" x2="290" y2="0" fill="rgb(0, 0, 0)" stroke="rgb(204, 204, 204)" stroke-width="1.333333px"></line></g></g></g></g></svg>