<svg viewBox="0 0 330 200" xmlns="http://www.w3.org/2000/svg"><g><g><g><g><g><line x1="50" y1="176.984375" x2="45" y2="176.984375" style="visibility: inherit;" fill="rgb(0, 0, 0)" stroke="rgb(204, 204, 204)" stroke-width="1.333333px"></line><line x1="50" y1="162.23567708333331" x2="45" y2="162.23567708333331" style="visibility: inherit;" fill="rgb(0, 0, 0)" stroke="rgb(204, 204, 204)" stroke-width="1.333333px"></line><line x1="50" y1="147.48697916666669" x2="45" y2="147.48697916666669" style="visibility: inherit;" fill="rgb(0, 0, 0)" stroke="rgb(204, 204, 204)" stroke-width="1.333333px"></line><line x1="50" y1="132.73828125" x2="45" y2="132.73828125" style="visibility: inherit;" fill="rgb(0, 0, 0)" stroke="rgb(204, 204, 204)" stroke-width="1.333333px"></line><line x1="50" y1="117.98958333333334" x2="45" y2="117.98958333333334" style="visibility: inherit;" fill="rgb(0, 0, 0)" stroke="rgb(204, 204, 204)" stroke-width="1.333333px"></line><line x1="50" y1="103.24088541666666" x2="45" y2="103.24088541666666" style="visibility: inherit;" fill="rgb(0, 0, 0)" stroke="rgb(204, 204, 204)" stroke-width="1.333333px"></line><line x1="50" y1="88.4921875" x2="45" y2="88.4921875" style="visibility: inherit;" fill="rgb(0, 0, 0)" stroke="rgb(204, 204, 204)" stroke-width="1.333333px"></line><line x1="50" y1="73.74348958333333" x2="45" y2="73.74348958333333" style="visibility: inherit;" fill="rgb(0, 0, 0)" stroke="rgb(204, 204, 204)" stroke-width="1.333333px"></line><line x1="50" y1="58.99479166666667" x2="45" y2="58.99479166666667" style="visibility: inherit;" fill="rgb(0, 0, 0)" stroke="rgb(204, 204, 204)" stroke-width="1.333333px"></line><line x1="50" y1="44.24609375" x2="45" y2="44.24609375" style="visibility: inherit;" fill="rgb(0, 0, 0)" stroke="rgb(204, 204, 204)" stroke-width="1.333333px"></line><line x1="50" y1="29.497395833333325" x2="45" y2="29.497395833333325" style="visibility: inherit;" fill="rgb(0, 0, 0)" stroke="rgb(204, 204, 204)" stroke-width="1.333333px"></line><line x1="50" y1="14.748697916666673" x2="45" y2="14.748697916666673" style="visibility: inherit;" fill="rgb(0, 0, 0)" stroke="rgb(204, 204, 204)" stroke-width="1.333333px"></line><line x1="50" y1="0" x2="45" y2="0" style="visibility: inherit;" fill="rgb(0, 0, 0)" stroke="rgb(204, 204, 204)" stroke-width="1.333333px"></line></g><g transform="translate(40, 0)"><text style="text-anchor: end; visibility: hidden; font-family: Roboto, sans-serif; font-size: 16px; font-weight: 200;" x="0" y="176.984375" dx="0em" dy="0.3em" fill="rgb(33, 33, 33)" stroke="none" stroke-width="1.333333px">68.5</text><text style="text-anchor: end; visibility: inherit; font-family: Roboto, sans-serif; font-size: 16px; font-weight: 200;" x="0" y="162.23567708333331" dx="0em" dy="0.3em" fill="rgb(33, 33, 33)" stroke="none" stroke-width="1.333333px">69</text><text style="text-anchor: end; visibility: hidden; font-family: Roboto, sans-serif; font-size: 16px; font-weight: 200;" x="0" y="147.48697916666669" dx="0em" dy="0.3em" fill="rgb(33, 33, 33)" stroke="none" stroke-width="1.333333px">69.5</text><text style="text-anchor: end; visibility: inherit; font-family: Roboto, sans-serif; font-size: 16px; font-weight: 200;" x="0" y="132.73828125" dx="0em" dy="0.3em" fill="rgb(33, 33, 33)" stroke="none" stroke-width="1.333333px">70</text><text style="text-anchor: end; visibility: hidden; font-family: Roboto, sans-serif; font-size: 16px; font-weight: 200;" x="0" y="117.98958333333334" dx="0em" dy="0.3em" fill="rgb(33, 33, 33)" stroke="none" stroke-width="1.333333px">70.5</text><text style="text-anchor: end; visibility: inherit; font-family: Roboto, sans-serif; font-size: 16px; font-weight: 200;" x="0" y="103.24088541666666" dx="0em" dy="0.3em" fill="rgb(33, 33, 33)" stroke="none" stroke-width="1.333333px">71</text><text style="text-anchor: end; visibility: hidden; font-family: Roboto, sans-serif; font-size: 16px; font-weight: 200;" x="0" y="88.4921875" dx="0em" dy="0.3em" fill="rgb(33, 33, 33)" stroke="none" stroke-width="1.333333px">71.5</text><text style="text-anchor: end; visibility: inherit; font-family: Roboto, sans-serif; font-size: 16px; font-weight: 200;" x="0" y="73.74348958333333" dx="0em" dy="0.3em" fill="rgb(33, 33, 33)" stroke="none" stroke-width="1.333333px">72</text><text style="text-anchor: end; visibility: hidden; font-family: Roboto, sans-serif; font-size: 16px; font-weight: 200;" x="0" y="58.99479166666667" dx="0em" dy="0.3em" fill="rgb(33, 33, 33)" stroke="none" stroke-width="1.333333px">72.5</text><text style="text-anchor: end; visibility: inherit; font-family: Roboto, sans-serif; font-size: 16px; font-weight: 200;" x="0" y="44.24609375" dx="0em" dy="0.3em" fill="rgb(33, 33, 33)" stroke="none" stroke-width="1.333333px">73</text><text style="text-anchor: end; visibility: hidden; font-family: Roboto, sans-serif; font-size: 16px; font-weight: 200;" x="0" y="29.497395833333325" dx="0em" dy="0.3em" fill="rgb(33, 33, 33)" stroke="none" stroke-width="1.333333px">73.5</text><text style="text-anchor: end; visibility: inherit; font-family: Roboto, sans-serif; font-size: 16px; font-weight: 200;" x="0" y="14.748697916666673" dx="0em" dy="0.3em" fill="rgb(33, 33, 33)" stroke="none" stroke-width="1.333333px">74</text><text style="text-anchor: end; visibility: hidden; font-family: Roboto, sans-serif; font-size: 16px; font-weight: 200;" x="0" y="0" dx="0em" dy="0.3em" fill="rgb(33, 33, 33)" stroke="none" stroke-width="1.333333px">74.5</text></g><line x1="50" y1="0" x2="50" y2="176.984375" fill="rgb(0, 0, 0)" stroke="rgb(204, 204, 204)" stroke-width="1.333333px"></line></g></g><g transform="translate(50, 0)" clip-path="url(#clip_0)"><clipPath id="clip_0"><rect width="280" height="176"></rect></clipPath><g><g><g><line x1="0" y1="0" x2="0" y2="176.984375" fill="rgb(0, 0, 0)" stroke="rgb(66, 66, 66)" stroke-width="1.333333px" opacity="0.25"></line><line x1="23.333333333333332" y1="0" x2="23.333333333333332" y2="176.984375" fill="rgb(0, 0, 0)" stroke="rgb(66, 66, 66)" stroke-width="1.333333px" opacity="0.25"></line><line x1="46.666666666666664" y1="0" x2="46.666666666666664" y2="176.984375" fill="rgb(0, 0, 0)" stroke="rgb(66, 66, 66)" stroke-width="1.333333px" opacity="0.25"></line><line x1="70" y1="0" x2="70" y2="176.984375" fill="rgb(0, 0, 0)" stroke="rgb(66, 66, 66)" stroke-width="1.333333px" opacity="0.25"></line><line x1="93.33333333333333" y1="0" x2="93.33333333333333" y2="176.984375" fill="rgb(0, 0, 0)" stroke="rgb(66, 66, 66)" stroke-width="1.333333px" opacity="0.25"></line><line x1="116.66666666666667" y1="0" x2="116.66666666666667" y2="176.984375" fill="rgb(0, 0, 0)" stroke="rgb(66, 66, 66)" stroke-width="1.333333px" opacity="0.25"></line><line x1="140" y1="0" x2="140" y2="176.984375" fill="rgb(0, 0, 0)" stroke="rgb(66, 66, 66)" stroke-width="1.333333px" opacity="0.25"></line><line x1="163.33333333333334" y1="0" x2="163.33333333333334" y2="176.984375" fill="rgb(0, 0, 0)" stroke="rgb(66, 66, 66)" stroke-width="1.333333px" opacity="0.25"></line><line x1="186.66666666666666" y1="0" x2="186.66666666666666" y2="176.984375" fill="rgb(0, 0, 0)" stroke="rgb(66, 66, 66)" stroke-width="1.333333px" opacity="0.25"></line><line x1="210" y1="0" x2="210" y2="176.984375" fill="rgb(0, 0, 0)" stroke="rgb(66, 66, 66)" stroke-width="1.333333px" opacity="0.25"></line><line x1="233.33333333333334" y1="0" x2="233.33333333333334" y2="176.984375" fill="rgb(0, 0, 0)" stroke="rgb(66, 66, 66)" stroke-width="1.333333px" opacity="0.25"></line><line x1="256.66666666666663" y1="0" x2="256.66666666666663" y2="176.984375" fill="rgb(0, 0, 0)" stroke="rgb(66, 66, 66)" stroke-width="1.333333px" opacity="0.25"></line><line x1="280" y1="0" x2="280" y2="176.984375" fill="rgb(0, 0, 0)" stroke="rgb(66, 66, 66)" stroke-width="1.333333px" opacity="0.25"></line></g><g><line x1="0" y1="176.984375" x2="280" y2="176.984375" fill="rgb(0, 0, 0)" stroke="rgb(66, 66, 66)" stroke-width="1.333333px" opacity="0.25"></line><line x1="0" y1="162.23567708333331" x2="280" y2="162.23567708333331" fill="rgb(0, 0, 0)" stroke="rgb(66, 66, 66)" stroke-width="1.333333px" opacity="0.25"></line><line x1="0" y1="147.48697916666669" x2="280" y2="147.48697916666669" fill="rgb(0, 0, 0)" stroke="rgb(66, 66, 66)" stroke-width="1.333333px" opacity="0.25"></line><line x1="0" y1="132.73828125" x2="280" y2="132.73828125" fill="rgb(0, 0, 0)" stroke="rgb(66, 66, 66)" stroke-width="1.333333px" opacity="0.25"></line><line x1="0" y1="117.98958333333334" x2="280" y2="117.98958333333334" fill="rgb(0, 0, 0)" stroke="rgb(66, 66, 66)" stroke-width="1.333333px" opacity="0.25"></line><line x1="0" y1="103.24088541666666" x2="280" y2="103.24088541666666" fill="rgb(0, 0, 0)" stroke="rgb(66, 66, 66)" stroke-width="1.333333px" opacity="0.25"></line><line x1="0" y1="88.4921875" x2="280" y2="88.4921875" fill="rgb(0, 0, 0)" stroke="rgb(66, 66, 66)" stroke-width="1.333333px" opacity="0.25"></line><line x1="0" y1="73.74348958333333" x2="280" y2="73.74348958333333" fill="rgb(0, 0, 0)" stroke="rgb(66, 66, 66)" stroke-width="1.333333px" opacity="0.25"></line><line x1="0" y1="58.99479166666667" x2="280" y2="58.99479166666667" fill="rgb(0, 0, 0)" stroke="rgb(66, 66, 66)" stroke-width="1.333333px" opacity="0.25"></line><line x1="0" y1="44.24609375" x2="280" y2="44.24609375" fill="rgb(0, 0, 0)" stroke="rgb(66, 66, 66)" stroke-width="1.333333px" opacity="0.25"></line><line x1="0" y1="29.497395833333325" x2="280" y2="29.497395833333325" fill="rgb(0, 0, 0)" stroke="rgb(66, 66, 66)" stroke-width="1.333333px" opacity="0.25"></line><line x1="0" y1="14.748697916666673" x2="280" y2="14.748697916666673" fill="rgb(0, 0, 0)" stroke="rgb(66, 66, 66)" stroke-width="1.333333px" opacity="0.25"></line><line x1="0" y1="0" x2="280" y2="0" fill="rgb(0, 0, 0)" stroke="rgb(66, 66, 66)" stroke-width="1.333333px" opacity="0.25"></line></g></g></g><g><g><line x1="0" y1="2197.555989583333" x2="280" y2="2197.555989583333" fill="rgb(0, 0, 0)" stroke="rgb(153, 153, 153)" stroke-width="2px"></line></g></g><g><g><line x1="23.333333333333332" y1="0" x2="23.333333333333332" y2="176.984375" fill="rgb(0, 0, 0)" stroke="rgb(153, 153, 153)" stroke-width="2px"></line></g></g><g><g><g><g><g><path style="fill: none;" stroke="rgb(255, 112, 67)" stroke-width="2.666667px" d="M24.873333333333335,-29.249921506297518L24.948,95.29321599003276L25.125333333333334,276.1126664034614L34.71066666666667,180.051808231073L35.028,172.92535577197555L35.04666666666667,168.64948429651824L35.074666666666666,166.0839614112437L35.168,164.54464768007955L35.205333333333336,163.62105944138125L35.70933333333333,163.0669064981619L35.896,162.73441473223065L36.18533333333333,162.53491967267146L36.568,162.41522263693622L36.94133333333334,162.3434044154949L36.95066666666667,162.30031348263077L37.28666666666666,162.27445892291172L37.43600000000001,162.2589461870806L37.464,162.24963854558155L37.79066666666667,150.44509562734908L37.818666666666665,143.36236987640936L37.949333333333335,139.1127344258458L38.23866666666667,136.5629531555078L38.528,135.03308439330493L38.602666666666664,134.11516313598304L38.92933333333333,133.56441038158957L39.06933333333333,133.23395872895384L39.228,133.0356877373722L39.24666666666666,132.9167251424235L39.312,132.84534758545445L39.928000000000004,121.00356271793932L40.58133333333333,113.89849179743011L40.702666666666666,109.63544924512463L41.06666666666667,107.07762371374136L41.16,105.54292839491166L41.44933333333333,104.62211120361364L41.636,104.06962088883496L41.64533333333333,103.73812669996774L41.81333333333334,103.5392301866474L42.66266666666667,91.62093394532192L42.74666666666667,84.46995620052667L42.839999999999996,80.17936955364932L42.94266666666667,77.60501756552276L43.96,76.06040637264691L44.98666666666667,75.1336396569214L45.36,74.57757962748626L45.68666666666666,74.24394360982508L46.07866666666666,74.04376199922831L46.12533333333334,73.92365303287015L46.24666666666666,73.85158765305535L46.32133333333333,73.80834842516637L46.349333333333334,73.78240488843315L46.535999999999994,73.7668387663934L46.704,73.75749909316929L46.83466666666667,61.95293695590157L46.955999999999996,54.870199673541194L47.394666666666666,50.62055730412488L47.404,48.07077188247477L47.6,46.54090062948486L47.861333333333334,57.42193621102408L47.936,63.950557559947704L48.010666666666665,67.86773036930178L48.39333333333334,70.21803405491424L48.477333333333334,71.62821626628187L48.617333333333335,72.47432559310263L48.70133333333333,72.98199118919483L48.86,73.28659054685022L48.916,73.46935016144346L49.037333333333336,73.57900593019941L49.04666666666667,73.64479939145298L49.056,73.68427546820512L49.17733333333334,73.70796111425624L49.336,73.722172501887L49.588,73.73069933446553L49.79333333333334,73.73581543401258L49.88666666666667,73.7388850937407L50.04533333333333,73.74072688957774L50.98800000000001,73.74183196708016L51.090666666666664,73.74249501358142L52.117333333333335,61.943934508148516L52.12666666666667,54.86479820488911L52.31333333333333,50.61731642293363L52.32266666666666,48.068827353759836L52.462666666666664,46.53973391225556L52.696000000000005,45.622277847353345L53.2,45.07180420841192L53.367999999999995,44.74152002504741L53.592,44.543349515028446L53.816,44.424447209017224L53.844,44.35310582541018L54.665333333333336,44.31030099524601L55.11333333333333,44.28461809714752L55.64533333333333,44.269208358288516L55.85066666666666,44.25996251497302L55.925333333333334,44.25441500898373L56.00933333333334,44.25108650539024L56.251999999999995,44.24908940323398L56.62533333333333,44.24789114194022L56.653333333333336,44.24717218516429L56.94266666666667,44.24674081109849L57.092,44.24648198665935L57.446666666666665,44.24632669199552L57.474666666666664,44.2462335151974L57.512,44.24617760911835L57.577333333333335,44.24614406547076L57.605333333333334,44.24612393928237L57.78266666666667,44.24611186356952L57.988,44.246104618141615L58.44533333333333,44.24610027088522L58.641333333333336,44.246097662531135L59.257333333333335,44.24609609751859L59.275999999999996,44.246095158510904L59.76133333333333,44.246094595106456L59.88266666666667,44.24609425706413L59.93866666666666,44.246094054238135L60.050666666666665,44.24609393254254L60.07866666666666,44.24609385952544L60.44266666666667,44.246093815715355L60.788,44.24609378942921L60.89066666666667,32.44713544032436L60.99333333333333,25.367760430861452L61.04933333333333,21.120135425183452L61.114666666666665,18.571560421776816L61.46,17.04241541973293L61.69333333333333,16.12492841850643L61.80533333333334,15.574436217770437L61.83333333333333,15.244140897328935L62.038666666666664,15.04596370506394L62.36533333333333,26.72601572303802L62.467999999999996,33.734046933822654L62.794666666666664,37.9388656602935L63.074666666666666,40.46175689617585L63.644,41.97549163770567L63.73733333333333,42.88373248262307L64.91333333333333,31.629718656240517L65.66933333333334,24.87731036041098L65.70666666666666,20.825865382913257L65.94,18.394998396414625L66.388,16.936478204515353L66.73333333333333,16.061366089375795L67.116,15.53629882029215L67.13466666666666,15.221258458841778L67.19066666666666,15.032234241971816L67.27466666666666,14.918819711849837L67.48933333333333,14.850770993776399L67.928,14.809941762932587L68.44133333333333,14.785444224426229L68.46933333333332,14.770745701322477L68.47866666666667,14.761926587459984L68.55333333333333,14.756635119142576L68.908,26.5524185714858L69.16933333333333,33.629888642891316L69.34666666666666,37.8763706857347L69.53333333333333,40.42425991144057L69.82266666666666,41.952993446864255L70.74666666666666,42.87023356811864L70.83066666666667,43.42057764087134L70.84933333333333,43.75078408452247L71.24133333333333,43.94890795071314L71.27866666666667,44.06778227042789L71.41866666666667,44.139106862256575L71.44666666666666,44.181901617353596L71.45599999999999,44.20757847041232L71.75466666666667,44.22298458224756L71.87599999999999,44.2322282493487L72.10933333333334,44.237774449609134L72.23066666666666,44.241102169765576L72.37066666666666,44.243098801859L72.45466666666665,44.2442967811154L72.48266666666667,44.24501556866915L72.76266666666668,44.24544684120124L72.98666666666666,44.245705604720904L73.01466666666666,44.24586086283239L73.388,44.24595401769927L73.46266666666668,44.24600991061972L73.77066666666667,44.24604344637199L74.16266666666665,44.2460635678232L74.24666666666667,44.246075640693576L74.29333333333332,44.246082884415806L74.76,44.2460872306494L76.23466666666667,32.44713150505632L76.82266666666666,25.36775806970053L77.084,21.120134008487156L77.29866666666668,18.571559571758787L77.77466666666666,17.04241490972195L78.092,16.12492811249975L78.21333333333332,15.574436034166522L78.85733333333334,15.244140787166332L78.932,15.045963638966287L79.16533333333334,14.92705735004645L79.31466666666667,14.855713576694358L79.42666666666668,14.812907312683453L79.83733333333333,14.787223554276816L80.37866666666667,26.570771632566185L80.584,33.640900479539546L80.63066666666666,37.88297778772356L80.668,40.428224172633975L81.44266666666667,41.955372003580216L81.61066666666666,31.07270236881487L81.94666666666667,24.54310058795567L82.14266666666667,20.62533951944015L82.44133333333333,18.27468287833077L82.46,16.86428889366504L82.684,16.018052502865768L82.69333333333333,15.510310668386209L82.74,15.205665567698311L82.78666666666668,15.022878507285409L83.75733333333332,14.913206271037915L84.27066666666667,14.847402929289489L84.43866666666666,14.807920924240118L84.48533333333334,14.784231721210741L84.60666666666665,14.770018199392933L84.65333333333334,14.761490086302347L84.80266666666667,14.75637321844783L84.84933333333333,14.753303097735529L84.93333333333334,14.75146102530799L85.08266666666667,14.750355781851374L85.62400000000001,14.749692635777748L86.06266666666667,14.74929474813348L86.15599999999999,14.74905601554658L86.34266666666667,26.547871109327954L86.828,33.62716016559668L87.20133333333334,37.87473359935801L87.276,40.423277659614804L87.36,41.95240409576913L87.50933333333333,42.86987995746139L87.89200000000001,43.42036547447709L87.92,43.750656784685916L88.02266666666667,43.94883157081121L88.592,44.06773644248689L88.63866666666667,44.1390793654923L88.65733333333333,44.181885119295224L89.18,44.20756857157697L89.768,44.22297864294634L89.79599999999999,44.23222468576746L89.852,44.23777231146039L90.20666666666666,44.24110088687633L90.33733333333333,44.24309803212545L90.608,44.24429631927528L91.03733333333334,44.24501529156517L91.23333333333332,44.24544667493894L91.55066666666667,44.24570550496327L91.83066666666667,44.24586080297806L91.97066666666667,44.24595398178699L92.10133333333334,44.246009889072035L92.63333333333333,44.24604343344313L92.736,44.24606356006579L92.74533333333333,44.246075636039386L93.00666666666666,44.246082881623636L93.044,44.24608722897393L93.06266666666666,44.2460898373842L93.17466666666667,44.24609140243068L93.39866666666667,44.246092341458066L93.51066666666668,44.246092904874686L93.58533333333334,44.246093242924964L93.64133333333334,44.24609344575514L93.744,44.24609356745325L93.81866666666667,44.246093640471614L93.83733333333333,44.246093684282975L94.21066666666667,44.246093710569944L94.29466666666667,44.24609372634213L94.31333333333333,44.24609373580519L94.63066666666667,44.24609374148303L94.68666666666667,44.246093744889734L94.836,44.24609374693409L95.46133333333333,44.24609374816062L95.48933333333333,44.246093748896286L95.732,44.24609374933768L96.08666666666667,44.246093749602615L96.096,44.24609374976148L96.33866666666667,44.24609374985664L96.49733333333333,44.24609374991364L96.60933333333334,44.24609374994803L96.656,44.24609374996897L97.02933333333334,44.24609374998155L97.08533333333334,44.24609374998909L97.34666666666666,44.2460937499933L97.87866666666667,44.246093749995815L98.43866666666668,44.246093749997485L98.73733333333334,44.24609374999833L99.14800000000001,44.246093749999154L99.35333333333334,44.246093749999154L99.53066666666666,44.246093749999154L99.53999999999999,44.246093749999154L99.80133333333333,44.246093749999154L100.02533333333334,44.246093749999154L100.14666666666668,44.246093749999154L100.59466666666667,44.246093749999154L100.72533333333334,44.246093749999154L100.772,44.246093749999154L101.29466666666667,44.246093749999154L101.39733333333332,44.246093749999154L101.52799999999999,44.246093749999154L101.71466666666667,44.246093749999154L101.84533333333334,44.246093749999154L102.592,44.246093749999154L102.872,44.246093749999154L103.12400000000001,44.246093749999154L103.17999999999999,44.246093749999154L103.26400000000001,44.246093749999154L103.77733333333333,44.246093749999154L103.86133333333333,44.246093749999154L104.16,44.246093749999154L104.19733333333333,44.246093749999154L104.48666666666666,44.246093749999154L104.54266666666668,44.246093749999154L104.71066666666667,44.246093749999154L104.76666666666667,44.246093749999154L105.02799999999999,44.246093749999154L105.04666666666667,44.246093749999154L105.25200000000001,44.246093749999154L105.27066666666667,44.246093749999154L105.69066666666667,44.246093749999154L105.784,44.246093749999154L106.08266666666667,44.246093749999154L106.12933333333334,44.246093749999154L106.19466666666666,44.246093749999154L106.568,44.246093749999154L106.60533333333333,44.246093749999154L107.20266666666667,44.246093749999154L107.39866666666667,44.246093749999154L107.65066666666667,44.246093749999154L107.88399999999999,44.246093749999154L108.43466666666666,44.246093749999154L108.47200000000001,44.246093749999154L108.76133333333334,44.246093749999154L109.32133333333334,44.246093749999154L109.69466666666666,44.246093749999154L110.05866666666667,44.246093749999154L110.17066666666668,44.246093749999154L110.18933333333334,44.246093749999154L110.25466666666667,44.246093749999154L110.39466666666667,44.246093749999154L110.56266666666666,44.246093749999154L110.69333333333333,44.246093749999154L110.81466666666667,44.246093749999154L110.86133333333333,44.246093749999154L110.95466666666667,44.246093749999154L111.59866666666667,44.246093749999154L112.364,44.246093749999154L112.44800000000001,44.246093749999154L112.532,44.246093749999154L112.62533333333333,44.246093749999154L112.87733333333334,44.246093749999154L113.60533333333333,44.246093749999154L113.61466666666666,44.246093749999154L113.80133333333333,44.246093749999154L113.91333333333333,44.246093749999154L113.988,44.246093749999154L114.37066666666666,44.246093749999154L114.38,44.246093749999154L114.548,44.246093749999154L114.93066666666667,44.246093749999154L115.03333333333333,44.246093749999154L115.15466666666667,44.246093749999154L115.276,44.246093749999154L115.43466666666667,44.246093749999154L115.68666666666667,44.246093749999154L115.78,44.246093749999154L115.90133333333333,44.246093749999154L116.19066666666666,44.246093749999154L116.19999999999999,44.246093749999154L116.20933333333333,44.246093749999154L116.30266666666667,44.246093749999154L116.424,44.246093749999154L116.47999999999999,44.246093749999154L116.61066666666666,44.246093749999154L117.264,44.246093749999154L117.516,44.246093749999154L117.80533333333334,44.246093749999154L117.964,44.246093749999154L118.45866666666666,44.246093749999154L118.61733333333332,44.246093749999154L118.68266666666666,44.246093749999154L119.18666666666667,44.246093749999154L119.28933333333333,44.246093749999154L119.868,44.246093749999154L119.896,44.246093749999154L119.90533333333335,44.246093749999154L120.36266666666667,44.246093749999154L120.82933333333332,44.246093749999154L120.88533333333334,44.246093749999154L120.89466666666667,44.246093749999154L120.95066666666666,44.246093749999154L121.352,44.246093749999154L121.51066666666667,44.246093749999154L121.912,44.246093749999154L122.024,44.246093749999154L122.23866666666666,44.246093749999154L122.40666666666667,44.246093749999154L122.584,44.246093749999154L122.67733333333332,44.246093749999154L122.696,44.246093749999154L123.27466666666666,44.246093749999154L123.368,44.246093749999154L123.43333333333334,44.246093749999154L123.62933333333334,44.246093749999154L123.872,44.246093749999154L124.53466666666667,44.246093749999154L125.048,44.246093749999154L125.78533333333333,44.246093749999154L126.21466666666666,44.246093749999154L126.22399999999999,44.246093749999154L126.27066666666667,44.246093749999154L126.34533333333333,44.246093749999154L126.51333333333332,44.246093749999154L126.88666666666667,44.246093749999154L127.11066666666667,44.246093749999154L127.16666666666667,44.246093749999154L127.176,44.246093749999154L127.49333333333333,44.246093749999154L127.596,44.246093749999154L127.95066666666668,44.246093749999154L127.988,44.246093749999154L128.04399999999998,44.246093749999154L128.11866666666668,44.246093749999154L129.08933333333334,44.246093749999154L129.09866666666667,44.246093749999154L129.68666666666667,44.246093749999154L129.78,44.246093749999154L129.82666666666665,44.246093749999154L130.144,44.246093749999154L130.19066666666666,44.246093749999154L130.31199999999998,44.246093749999154L130.33066666666667,44.246093749999154L130.91866666666667,44.246093749999154L131.32933333333335,44.246093749999154L131.404,44.246093749999154L131.712,44.246093749999154L132.50533333333334,44.246093749999154L132.87866666666667,44.246093749999154L133.06533333333334,44.246093749999154L133.14933333333332,44.246093749999154L133.34533333333334,44.246093749999154L133.63466666666667,44.246093749999154L133.65333333333334,44.246093749999154L133.69066666666666,44.246093749999154L133.88666666666668,44.246093749999154L133.91466666666668,44.246093749999154L133.952,44.246093749999154L134.10133333333334,44.246093749999154L134.18533333333335,44.246093749999154L134.24133333333333,44.246093749999154L134.92266666666666,44.246093749999154L135.08133333333333,44.246093749999154L135.59466666666668,44.246093749999154L136.052,44.246093749999154L136.60266666666666,44.246093749999154L136.976,44.246093749999154L137.01333333333335,44.246093749999154L137.30266666666668,44.246093749999154L137.536,44.246093749999154L137.872,44.246093749999154L138.16133333333335,44.246093749999154L138.18,44.246093749999154L138.292,44.246093749999154L138.64666666666665,44.246093749999154L138.75866666666667,44.246093749999154L139.02,44.246093749999154L139.05733333333333,44.246093749999154L139.076,44.246093749999154L139.272,44.246093749999154L139.28133333333332,44.246093749999154L139.42133333333334,44.246093749999154L139.53333333333333,44.246093749999154L139.7853333333333,44.246093749999154L139.804,44.246093749999154L139.82266666666666,44.246093749999154L140.51333333333335,44.246093749999154L140.952,44.246093749999154L141.39066666666668,44.246093749999154L141.95066666666668,44.246093749999154L142.64133333333334,44.246093749999154L142.72533333333334,44.246093749999154L143.35066666666668,44.246093749999154L143.75199999999998,44.246093749999154L143.78933333333333,44.246093749999154L143.948,44.246093749999154L144.15333333333334,44.246093749999154L144.41466666666668,44.246093749999154L144.452,44.246093749999154L144.648,44.246093749999154L144.76933333333335,44.246093749999154L144.89999999999998,44.246093749999154L145.012,44.246093749999154L145.02133333333333,44.246093749999154L145.124,44.246093749999154L145.53466666666668,44.246093749999154L146.43066666666667,44.246093749999154L146.79466666666667,44.246093749999154L147.00933333333333,44.246093749999154L147.112,44.246093749999154L147.51333333333335,44.246093749999154L147.93333333333334,44.246093749999154L148.2973333333333,44.246093749999154L148.5773333333333,44.246093749999154L148.9226666666667,44.246093749999154L149.548,44.246093749999154L149.64133333333334,44.246093749999154L149.80933333333334,44.246093749999154L149.884,44.246093749999154L150.164,44.246093749999154L150.49066666666667,44.246093749999154L150.668,44.246093749999154L150.68666666666667,44.246093749999154L150.71466666666666,44.246093749999154L150.83599999999998,44.246093749999154L151.35866666666666,44.246093749999154L151.54533333333333,44.246093749999154L152.16133333333332,44.246093749999154L152.432,44.246093749999154L152.60000000000002,44.246093749999154L152.98266666666666,44.246093749999154L153.22533333333334,44.246093749999154L153.7386666666667,44.246093749999154L153.82266666666666,44.246093749999154L154.06533333333334,44.246093749999154L154.43866666666665,44.246093749999154L154.96133333333333,44.246093749999154L155.064,44.246093749999154L155.19466666666668,44.246093749999154L155.316,44.246093749999154L155.484,44.246093749999154L155.66133333333332,44.246093749999154L155.764,44.246093749999154L155.82,44.246093749999154L155.932,44.246093749999154L156.09066666666666,44.246093749999154L156.41733333333332,44.246093749999154L156.48266666666666,44.246093749999154L157.26666666666665,44.246093749999154L157.31333333333333,44.246093749999154L157.37866666666667,44.246093749999154L157.4346666666667,44.246093749999154L157.73333333333335,44.246093749999154L157.74266666666668,44.246093749999154L157.78933333333333,44.246093749999154L157.92,44.246093749999154L157.99466666666666,44.246093749999154L158.00400000000002,44.246093749999154L158.62,44.246093749999154L158.63866666666667,44.246093749999154L159.00266666666667,44.246093749999154L159.39466666666667,44.246093749999154L159.82399999999998,44.246093749999154L160.02933333333334,44.246093749999154L160.96266666666665,44.246093749999154L161.10266666666666,44.246093749999154L161.2613333333333,44.246093749999154L161.336,44.246093749999154L161.65333333333334,44.246093749999154L161.952,44.246093749999154L162.07333333333332,44.246093749999154L162.11066666666665,44.246093749999154L162.39999999999998,44.246093749999154L162.60533333333333,44.246093749999154L162.64266666666666,44.246093749999154L162.78266666666667,44.246093749999154L163.51999999999998,44.246093749999154L163.94933333333333,44.246093749999154L163.95866666666666,44.246093749999154L163.996,44.246093749999154L164.25733333333335,44.246093749999154L164.36933333333332,44.246093749999154L164.46266666666668,44.246093749999154L164.5,44.246093749999154L164.63066666666666,44.246093749999154L164.77066666666667,44.246093749999154L164.98533333333336,44.246093749999154L165.06933333333333,44.246093749999154L165.2,44.246093749999154L166.31066666666666,44.246093749999154L166.46,44.246093749999154L166.59066666666666,44.246093749999154L166.72133333333335,44.246093749999154L166.80533333333332,44.246093749999154L167.076,44.246093749999154L167.25333333333336,44.246093749999154L167.40266666666668,44.246093749999154L167.45866666666666,44.246093749999154L167.59866666666667,44.246093749999154L167.65466666666666,44.246093749999154L167.916,44.246093749999154L167.93466666666666,44.246093749999154L169.036,44.246093749999154L169.2506666666667,44.246093749999154L169.29733333333334,44.246093749999154L169.57733333333334,44.246093749999154L169.988,44.246093749999154L170.08133333333333,44.246093749999154L170.33333333333331,44.246093749999154L170.436,44.246093749999154L170.744,44.246093749999154L170.81866666666667,44.246093749999154L170.996,44.246093749999154L171.09866666666667,44.246093749999154L171.49066666666667,44.246093749999154L171.93866666666665,44.246093749999154L171.948,44.246093749999154L172.7973333333333,44.246093749999154L172.97466666666668,44.246093749999154L173.06799999999998,44.246093749999154L173.38533333333334,44.246093749999154L173.656,44.246093749999154L173.768,44.246093749999154L173.84266666666667,44.246093749999154L174.40266666666668,44.246093749999154L174.412,44.246093749999154L174.87866666666667,44.246093749999154L174.90666666666667,44.246093749999154L174.92533333333336,44.246093749999154L174.98133333333334,44.246093749999154L175.59733333333332,44.246093749999154L175.90533333333332,44.246093749999154L176.33466666666666,44.246093749999154L176.512,44.246093749999154L176.54,44.246093749999154L176.66133333333335,44.246093749999154L177.22133333333335,44.246093749999154L177.84666666666666,44.246093749999154L178.304,44.246093749999154L178.32266666666666,44.246093749999154L178.416,44.246093749999154L178.74266666666665,44.246093749999154L178.82666666666668,44.246093749999154L179.49866666666668,44.246093749999154L179.536,44.246093749999154L180.07733333333334,44.246093749999154L180.45999999999998,44.246093749999154L180.73999999999998,44.246093749999154L180.75866666666664,44.246093749999154L180.88933333333333,44.246093749999154L180.91733333333335,44.246093749999154L181.14133333333334,44.246093749999154L181.51466666666667,44.246093749999154L181.552,44.246093749999154L182.028,44.246093749999154L182.15866666666665,44.246093749999154L182.51333333333335,44.246093749999154L182.54133333333334,44.246093749999154L182.71866666666665,44.246093749999154L183.12933333333334,44.246093749999154L183.18533333333335,44.246093749999154L183.19466666666668,44.246093749999154L183.34400000000002,44.246093749999154L183.456,44.246093749999154L184.14666666666665,44.246093749999154L184.1653333333333,44.246093749999154L184.34266666666667,44.246093749999154L184.46400000000003,44.246093749999154L184.55733333333333,44.246093749999154L184.632,44.246093749999154L185.68666666666667,44.246093749999154L185.95733333333334,44.246093749999154L186.032,44.246093749999154L186.816,44.246093749999154L186.88133333333332,44.246093749999154L187.26399999999998,44.246093749999154L187.768,44.246093749999154L187.90800000000002,44.246093749999154L187.91733333333335,44.246093749999154L188.05733333333333,44.246093749999154L188.272,44.246093749999154L188.43066666666667,44.246093749999154L188.51466666666667,44.246093749999154L188.832,44.246093749999154L189.112,44.246093749999154L189.17733333333334,44.246093749999154L189.60666666666668,44.246093749999154L190.064,44.246093749999154L190.15733333333336,44.246093749999154L190.22266666666667,44.246093749999154L190.232,44.246093749999154L190.26933333333332,44.246093749999154L190.63333333333333,44.246093749999154L190.73600000000002,44.246093749999154L190.89466666666667,44.246093749999154L191.0066666666667,44.246093749999154L191.38933333333333,44.246093749999154L191.41733333333332,44.246093749999154L191.66933333333333,44.246093749999154L191.73466666666667,44.246093749999154L191.94,44.246093749999154L192.08933333333334,44.246093749999154L192.16400000000002,44.246093749999154L192.36,44.246093749999154L192.472,44.246093749999154L192.54666666666665,44.246093749999154L192.584,44.246093749999154L192.62133333333333,44.246093749999154L193.27466666666666,44.246093749999154L193.91866666666667,44.246093749999154L194.44133333333335,44.246093749999154L194.56266666666664,44.246093749999154L195.11333333333332,44.246093749999154L195.12266666666665,44.246093749999154L195.23466666666667,44.246093749999154L195.34666666666666,44.246093749999154L195.48666666666668,44.246093749999154L195.58,44.246093749999154L195.71066666666667,44.246093749999154L195.832,44.246093749999154L195.916,44.246093749999154L196.21466666666666,44.246093749999154L196.81199999999998,44.246093749999154L197.09199999999998,44.246093749999154L197.13866666666667,44.246093749999154L197.148,44.246093749999154L197.26,44.246093749999154L197.36266666666666,44.246093749999154L198.41733333333335,44.246093749999154L198.42666666666668,44.246093749999154L198.48266666666666,44.246093749999154L198.51066666666665,44.246093749999154L198.62266666666667,44.246093749999154L198.76266666666666,44.246093749999154L199.48133333333334,44.246093749999154L199.72400000000002,44.246093749999154L199.78,44.246093749999154L199.78933333333333,44.246093749999154L200.34933333333333,44.246093749999154L200.592,44.246093749999154L201.012,44.246093749999154L201.04,44.246093749999154L201.24533333333332,44.246093749999154L201.6,44.246093749999154L201.69333333333336,44.246093749999154L201.73066666666668,44.246093749999154L201.74,44.246093749999154L202.62666666666667,44.246093749999154L202.64533333333333,44.246093749999154L202.692,44.246093749999154L203.27066666666667,44.246093749999154L203.65333333333334,44.246093749999154L204.12,44.246093749999154L204.19466666666665,44.246093749999154L204.33466666666666,44.246093749999154L204.428,44.246093749999154L204.46533333333332,44.246093749999154L204.596,44.246093749999154L205.016,44.246093749999154L205.10000000000002,44.246093749999154L205.32399999999998,44.246093749999154L205.352,44.246093749999154L205.772,44.246093749999154L206.43466666666666,44.246093749999154L206.584,44.246093749999154L206.78,44.246093749999154L206.84533333333334,44.246093749999154L207.21866666666665,44.246093749999154L207.7973333333333,44.246093749999154L207.816,44.246093749999154L208.52533333333335,44.246093749999154L208.712,44.246093749999154L209.02933333333334,44.246093749999154L209.17866666666666,44.246093749999154L209.28133333333332,44.246093749999154L209.692,44.246093749999154L209.832,44.246093749999154L209.84133333333332,44.246093749999154L209.87866666666667,44.246093749999154L210,44.246093749999154L210.14,44.246093749999154L210.70933333333335,44.246093749999154L211.05466666666666,44.246093749999154L211.26,44.246093749999154L212.91199999999998,44.246093749999154L213.108,44.246093749999154L213.388,44.246093749999154L213.68666666666667,44.246093749999154L213.77066666666664,44.246093749999154L213.948,44.246093749999154L214.116,44.246093749999154L214.52666666666667,44.246093749999154L214.61066666666665,44.246093749999154L214.79733333333334,44.246093749999154L215.00266666666667,44.246093749999154L215.21733333333333,44.246093749999154L215.376,44.246093749999154L215.404,44.246093749999154L215.432,44.246093749999154L215.77733333333333,44.246093749999154L216.03866666666664,44.246093749999154L216.20666666666668,44.246093749999154L216.22533333333334,44.246093749999154L217,44.246093749999154L217.10266666666666,44.246093749999154L217.35466666666667,44.246093749999154L217.59733333333332,44.246093749999154L217.83066666666667,44.246093749999154L217.85866666666666,44.246093749999154L218.84799999999998,44.246093749999154L218.8853333333333,44.246093749999154L219.02533333333332,44.246093749999154L219.044,44.246093749999154L219.09066666666666,44.246093749999154L219.14666666666665,44.246093749999154L219.268,44.246093749999154L219.34266666666667,44.246093749999154L219.67866666666666,44.246093749999154L219.828,44.246093749999154L220.5,44.246093749999154L220.54666666666665,44.246093749999154L220.752,44.246093749999154L220.77066666666667,44.246093749999154L220.8826666666667,44.246093749999154L220.95733333333334,44.246093749999154L221.01333333333332,44.246093749999154L221.256,44.246093749999154L221.29333333333332,44.246093749999154L221.51733333333334,44.246093749999154L221.62,44.246093749999154L221.83466666666666,44.246093749999154L221.94666666666666,44.246093749999154L222.24533333333332,44.246093749999154L222.86133333333333,44.246093749999154L222.98266666666666,44.246093749999154L223.25333333333333,44.246093749999154L223.356,44.246093749999154L223.68266666666665,44.246093749999154L223.78533333333334,44.246093749999154L224.77466666666666,44.246093749999154L224.79333333333332,44.246093749999154L224.87733333333335,44.246093749999154L224.91466666666668,44.246093749999154L224.924,44.246093749999154L224.98933333333332,44.246093749999154L225.13866666666667,44.246093749999154L225.18533333333335,44.246093749999154L225.61466666666666,44.246093749999154L225.652,44.246093749999154L225.67066666666668,44.246093749999154L226.03466666666668,44.246093749999154L226.06266666666667,44.246093749999154L226.19333333333333,44.246093749999154L226.92133333333334,44.246093749999154L226.98666666666665,44.246093749999154L227.22933333333333,44.246093749999154L229.26399999999998,44.246093749999154L229.488,44.246093749999154L229.73066666666668,44.246093749999154L229.74,44.246093749999154L229.94533333333334,44.246093749999154L230.03866666666667,44.246093749999154L230.18800000000002,44.246093749999154L230.40266666666665,44.246093749999154L230.81333333333333,44.246093749999154L231.224,44.246093749999154L231.31733333333335,44.246093749999154L231.336,44.246093749999154L231.40133333333333,44.246093749999154L231.5413333333333,44.246093749999154L232.204,44.246093749999154L232.22266666666667,44.246093749999154L232.568,44.246093749999154L233.01600000000002,44.246093749999154L233.212,44.246093749999154L233.47333333333333,44.246093749999154L233.54799999999997,44.246093749999154L233.64133333333334,44.246093749999154L233.968,44.246093749999154L234.31333333333333,44.246093749999154L234.696,44.246093749999154L234.82666666666665,44.246093749999154L235.22799999999998,44.246093749999154L235.50799999999998,44.246093749999154L235.732,44.246093749999154L235.956,44.246093749999154L235.96533333333332,44.246093749999154L236.96400000000003,44.246093749999154L237.27200000000002,44.246093749999154L237.524,44.246093749999154L237.85066666666668,44.246093749999154L237.90666666666667,44.246093749999154L237.944,44.246093749999154L238.504,44.246093749999154L238.55066666666667,44.246093749999154L238.67200000000003,44.246093749999154L238.88666666666666,44.246093749999154L238.99866666666668,44.246093749999154L239.708,44.246093749999154L240.08133333333333,44.246093749999154L240.45466666666667,44.246093749999154L240.48266666666666,44.246093749999154L240.79066666666665,44.246093749999154L240.996,44.246093749999154L241.08933333333334,44.246093749999154L241.388,44.246093749999154L241.53733333333335,44.246093749999154L241.7986666666667,44.246093749999154L241.80800000000002,44.246093749999154L242.67600000000002,44.246093749999154L243.03066666666666,44.246093749999154L243.5066666666667,44.246093749999154L243.52533333333335,44.246093749999154L243.86133333333333,44.246093749999154L244.02933333333334,44.246093749999154L244.05733333333333,44.246093749999154L244.71066666666667,44.246093749999154L245.14933333333335,44.246093749999154L245.43866666666668,44.246093749999154L245.63466666666665,44.246093749999154L246.12,44.246093749999154L246.65200000000002,44.246093749999154L246.89466666666667,44.246093749999154L247.58533333333332,44.246093749999154L247.68800000000002,44.246093749999154L247.716,44.246093749999154L247.996,44.246093749999154L248.052,44.246093749999154L248.47199999999998,44.246093749999154L249.39600000000002,44.246093749999154L249.96533333333335,44.246093749999154L250.1893333333333,44.246093749999154L250.24533333333335,44.246093749999154L250.44133333333332,44.246093749999154L250.66533333333334,44.246093749999154L250.87066666666666,44.246093749999154L250.992,44.246093749999154L251.40266666666668,44.246093749999154L251.72,44.246093749999154L251.75733333333335,44.246093749999154L251.91600000000003,44.246093749999154L251.9346666666667,44.246093749999154L252.99866666666665,44.246093749999154L253.18533333333335,44.246093749999154L253.27866666666665,44.246093749999154L253.512,44.246093749999154L253.91333333333336,44.246093749999154L254.044,44.246093749999154L254.1746666666667,44.246093749999154L254.41733333333332,44.246093749999154L254.50133333333335,44.246093749999154L254.94,44.246093749999154L254.97733333333332,44.246093749999154L255.07066666666668,44.246093749999154L255.17333333333335,44.246093749999154L255.21066666666667,44.246093749999154L255.23866666666666,44.246093749999154L255.31333333333336,44.246093749999154L255.50933333333333,44.246093749999154L255.57466666666664,44.246093749999154L255.77066666666667,44.246093749999154L256.0973333333333,44.246093749999154L256.284,44.246093749999154L256.30266666666665,44.246093749999154L256.46133333333336,44.246093749999154L256.592,44.246093749999154L256.66666666666663,44.246093749999154" fill="none"></path></g></g></g></g><g opacity="0.2"><g><g><g><path style="fill: none;" stroke="rgb(255, 112, 67)" stroke-width="2.666667px" d="M34.39333333333333,191.73307291666666L34.71066666666667,162.23567708333331L35.028,162.23567708333331L35.04666666666667,162.23567708333331L35.074666666666666,162.23567708333331L35.168,162.23567708333331L35.205333333333336,162.23567708333331L35.70933333333333,162.23567708333331L35.896,162.23567708333331L36.18533333333333,162.23567708333331L36.568,162.23567708333331L36.94133333333334,162.23567708333331L36.95066666666667,162.23567708333331L37.28666666666666,162.23567708333331L37.43600000000001,162.23567708333331L37.464,162.23567708333331L37.79066666666667,132.73828125L37.818666666666665,132.73828125L37.949333333333335,132.73828125L38.23866666666667,132.73828125L38.528,132.73828125L38.602666666666664,132.73828125L38.92933333333333,132.73828125L39.06933333333333,132.73828125L39.228,132.73828125L39.24666666666666,132.73828125L39.312,132.73828125L39.928000000000004,103.24088541666666L40.58133333333333,103.24088541666666L40.702666666666666,103.24088541666666L41.06666666666667,103.24088541666666L41.16,103.24088541666666L41.44933333333333,103.24088541666666L41.636,103.24088541666666L41.64533333333333,103.24088541666666L41.81333333333334,103.24088541666666L42.66266666666667,73.74348958333333L42.74666666666667,73.74348958333333L42.839999999999996,73.74348958333333L42.94266666666667,73.74348958333333L43.96,73.74348958333333L44.98666666666667,73.74348958333333L45.36,73.74348958333333L45.68666666666666,73.74348958333333L46.07866666666666,73.74348958333333L46.12533333333334,73.74348958333333L46.24666666666666,73.74348958333333L46.32133333333333,73.74348958333333L46.349333333333334,73.74348958333333L46.535999999999994,73.74348958333333L46.704,73.74348958333333L46.83466666666667,44.24609375L46.955999999999996,44.24609375L47.394666666666666,44.24609375L47.404,44.24609375L47.6,44.24609375L47.861333333333334,73.74348958333333L47.936,73.74348958333333L48.010666666666665,73.74348958333333L48.39333333333334,73.74348958333333L48.477333333333334,73.74348958333333L48.617333333333335,73.74348958333333L48.70133333333333,73.74348958333333L48.86,73.74348958333333L48.916,73.74348958333333L49.037333333333336,73.74348958333333L49.04666666666667,73.74348958333333L49.056,73.74348958333333L49.17733333333334,73.74348958333333L49.336,73.74348958333333L49.588,73.74348958333333L49.79333333333334,73.74348958333333L49.88666666666667,73.74348958333333L50.04533333333333,73.74348958333333L50.98800000000001,73.74348958333333L51.090666666666664,73.74348958333333L52.117333333333335,44.24609375L52.12666666666667,44.24609375L52.31333333333333,44.24609375L52.32266666666666,44.24609375L52.462666666666664,44.24609375L52.696000000000005,44.24609375L53.2,44.24609375L53.367999999999995,44.24609375L53.592,44.24609375L53.816,44.24609375L53.844,44.24609375L54.665333333333336,44.24609375L55.11333333333333,44.24609375L55.64533333333333,44.24609375L55.85066666666666,44.24609375L55.925333333333334,44.24609375L56.00933333333334,44.24609375L56.251999999999995,44.24609375L56.62533333333333,44.24609375L56.653333333333336,44.24609375L56.94266666666667,44.24609375L57.092,44.24609375L57.446666666666665,44.24609375L57.474666666666664,44.24609375L57.512,44.24609375L57.577333333333335,44.24609375L57.605333333333334,44.24609375L57.78266666666667,44.24609375L57.988,44.24609375L58.44533333333333,44.24609375L58.641333333333336,44.24609375L59.257333333333335,44.24609375L59.275999999999996,44.24609375L59.76133333333333,44.24609375L59.88266666666667,44.24609375L59.93866666666666,44.24609375L60.050666666666665,44.24609375L60.07866666666666,44.24609375L60.44266666666667,44.24609375L60.788,44.24609375L60.89066666666667,14.748697916666673L60.99333333333333,14.748697916666673L61.04933333333333,14.748697916666673L61.114666666666665,14.748697916666673L61.46,14.748697916666673L61.69333333333333,14.748697916666673L61.80533333333334,14.748697916666673L61.83333333333333,14.748697916666673L62.038666666666664,14.748697916666673L62.36533333333333,44.24609375L62.467999999999996,44.24609375L62.794666666666664,44.24609375L63.074666666666666,44.24609375L63.644,44.24609375L63.73733333333333,44.24609375L64.91333333333333,14.748697916666673L65.66933333333334,14.748697916666673L65.70666666666666,14.748697916666673L65.94,14.748697916666673L66.388,14.748697916666673L66.73333333333333,14.748697916666673L67.116,14.748697916666673L67.13466666666666,14.748697916666673L67.19066666666666,14.748697916666673L67.27466666666666,14.748697916666673L67.48933333333333,14.748697916666673L67.928,14.748697916666673L68.44133333333333,14.748697916666673L68.46933333333332,14.748697916666673L68.47866666666667,14.748697916666673L68.55333333333333,14.748697916666673L68.908,44.24609375L69.16933333333333,44.24609375L69.34666666666666,44.24609375L69.53333333333333,44.24609375L69.82266666666666,44.24609375L70.74666666666666,44.24609375L70.83066666666667,44.24609375L70.84933333333333,44.24609375L71.24133333333333,44.24609375L71.27866666666667,44.24609375L71.41866666666667,44.24609375L71.44666666666666,44.24609375L71.45599999999999,44.24609375L71.75466666666667,44.24609375L71.87599999999999,44.24609375L72.10933333333334,44.24609375L72.23066666666666,44.24609375L72.37066666666666,44.24609375L72.45466666666665,44.24609375L72.48266666666667,44.24609375L72.76266666666668,44.24609375L72.98666666666666,44.24609375L73.01466666666666,44.24609375L73.388,44.24609375L73.46266666666668,44.24609375L73.77066666666667,44.24609375L74.16266666666665,44.24609375L74.24666666666667,44.24609375L74.29333333333332,44.24609375L74.76,44.24609375L76.23466666666667,14.748697916666673L76.82266666666666,14.748697916666673L77.084,14.748697916666673L77.29866666666668,14.748697916666673L77.77466666666666,14.748697916666673L78.092,14.748697916666673L78.21333333333332,14.748697916666673L78.85733333333334,14.748697916666673L78.932,14.748697916666673L79.16533333333334,14.748697916666673L79.31466666666667,14.748697916666673L79.42666666666668,14.748697916666673L79.83733333333333,14.748697916666673L80.37866666666667,44.24609375L80.584,44.24609375L80.63066666666666,44.24609375L80.668,44.24609375L81.44266666666667,44.24609375L81.61066666666666,14.748697916666673L81.94666666666667,14.748697916666673L82.14266666666667,14.748697916666673L82.44133333333333,14.748697916666673L82.46,14.748697916666673L82.684,14.748697916666673L82.69333333333333,14.748697916666673L82.74,14.748697916666673L82.78666666666668,14.748697916666673L83.75733333333332,14.748697916666673L84.27066666666667,14.748697916666673L84.43866666666666,14.748697916666673L84.48533333333334,14.748697916666673L84.60666666666665,14.748697916666673L84.65333333333334,14.748697916666673L84.80266666666667,14.748697916666673L84.84933333333333,14.748697916666673L84.93333333333334,14.748697916666673L85.08266666666667,14.748697916666673L85.62400000000001,14.748697916666673L86.06266666666667,14.748697916666673L86.15599999999999,14.748697916666673L86.34266666666667,44.24609375L86.828,44.24609375L87.20133333333334,44.24609375L87.276,44.24609375L87.36,44.24609375L87.50933333333333,44.24609375L87.89200000000001,44.24609375L87.92,44.24609375L88.02266666666667,44.24609375L88.592,44.24609375L88.63866666666667,44.24609375L88.65733333333333,44.24609375L89.18,44.24609375L89.768,44.24609375L89.79599999999999,44.24609375L89.852,44.24609375L90.20666666666666,44.24609375L90.33733333333333,44.24609375L90.608,44.24609375L91.03733333333334,44.24609375L91.23333333333332,44.24609375L91.55066666666667,44.24609375L91.83066666666667,44.24609375L91.97066666666667,44.24609375L92.10133333333334,44.24609375L92.63333333333333,44.24609375L92.736,44.24609375L92.74533333333333,44.24609375L93.00666666666666,44.24609375L93.044,44.24609375L93.06266666666666,44.24609375L93.17466666666667,44.24609375L93.39866666666667,44.24609375L93.51066666666668,44.24609375L93.58533333333334,44.24609375L93.64133333333334,44.24609375L93.744,44.24609375L93.81866666666667,44.24609375L93.83733333333333,44.24609375L94.21066666666667,44.24609375L94.29466666666667,44.24609375L94.31333333333333,44.24609375L94.63066666666667,44.24609375L94.68666666666667,44.24609375L94.836,44.24609375L95.46133333333333,44.24609375L95.48933333333333,44.24609375L95.732,44.24609375L96.08666666666667,44.24609375L96.096,44.24609375L96.33866666666667,44.24609375L96.49733333333333,44.24609375L96.60933333333334,44.24609375L96.656,44.24609375L97.02933333333334,44.24609375L97.08533333333334,44.24609375L97.34666666666666,44.24609375L97.87866666666667,44.24609375L98.43866666666668,44.24609375L98.73733333333334,44.24609375L99.14800000000001,44.24609375L99.35333333333334,44.24609375L99.53066666666666,44.24609375L99.53999999999999,44.24609375L99.80133333333333,44.24609375L100.02533333333334,44.24609375L100.14666666666668,44.24609375L100.59466666666667,44.24609375L100.72533333333334,44.24609375L100.772,44.24609375L101.29466666666667,44.24609375L101.39733333333332,44.24609375L101.52799999999999,44.24609375L101.71466666666667,44.24609375L101.84533333333334,44.24609375L102.592,44.24609375L102.872,44.24609375L103.12400000000001,44.24609375L103.17999999999999,44.24609375L103.26400000000001,44.24609375L103.77733333333333,44.24609375L103.86133333333333,44.24609375L104.16,44.24609375L104.19733333333333,44.24609375L104.48666666666666,44.24609375L104.54266666666668,44.24609375L104.71066666666667,44.24609375L104.76666666666667,44.24609375L105.02799999999999,44.24609375L105.04666666666667,44.24609375L105.25200000000001,44.24609375L105.27066666666667,44.24609375L105.69066666666667,44.24609375L105.784,44.24609375L106.08266666666667,44.24609375L106.12933333333334,44.24609375L106.19466666666666,44.24609375L106.568,44.24609375L106.60533333333333,44.24609375L107.20266666666667,44.24609375L107.39866666666667,44.24609375L107.65066666666667,44.24609375L107.88399999999999,44.24609375L108.43466666666666,44.24609375L108.47200000000001,44.24609375L108.76133333333334,44.24609375L109.32133333333334,44.24609375L109.69466666666666,44.24609375L110.05866666666667,44.24609375L110.17066666666668,44.24609375L110.18933333333334,44.24609375L110.25466666666667,44.24609375L110.39466666666667,44.24609375L110.56266666666666,44.24609375L110.69333333333333,44.24609375L110.81466666666667,44.24609375L110.86133333333333,44.24609375L110.95466666666667,44.24609375L111.59866666666667,44.24609375L112.364,44.24609375L112.44800000000001,44.24609375L112.532,44.24609375L112.62533333333333,44.24609375L112.87733333333334,44.24609375L113.60533333333333,44.24609375L113.61466666666666,44.24609375L113.80133333333333,44.24609375L113.91333333333333,44.24609375L113.988,44.24609375L114.37066666666666,44.24609375L114.38,44.24609375L114.548,44.24609375L114.93066666666667,44.24609375L115.03333333333333,44.24609375L115.15466666666667,44.24609375L115.276,44.24609375L115.43466666666667,44.24609375L115.68666666666667,44.24609375L115.78,44.24609375L115.90133333333333,44.24609375L116.19066666666666,44.24609375L116.19999999999999,44.24609375L116.20933333333333,44.24609375L116.30266666666667,44.24609375L116.424,44.24609375L116.47999999999999,44.24609375L116.61066666666666,44.24609375L117.264,44.24609375L117.516,44.24609375L117.80533333333334,44.24609375L117.964,44.24609375L118.45866666666666,44.24609375L118.61733333333332,44.24609375L118.68266666666666,44.24609375L119.18666666666667,44.24609375L119.28933333333333,44.24609375L119.868,44.24609375L119.896,44.24609375L119.90533333333335,44.24609375L120.36266666666667,44.24609375L120.82933333333332,44.24609375L120.88533333333334,44.24609375L120.89466666666667,44.24609375L120.95066666666666,44.24609375L121.352,44.24609375L121.51066666666667,44.24609375L121.912,44.24609375L122.024,44.24609375L122.23866666666666,44.24609375L122.40666666666667,44.24609375L122.584,44.24609375L122.67733333333332,44.24609375L122.696,44.24609375L123.27466666666666,44.24609375L123.368,44.24609375L123.43333333333334,44.24609375L123.62933333333334,44.24609375L123.872,44.24609375L124.53466666666667,44.24609375L125.048,44.24609375L125.78533333333333,44.24609375L126.21466666666666,44.24609375L126.22399999999999,44.24609375L126.27066666666667,44.24609375L126.34533333333333,44.24609375L126.51333333333332,44.24609375L126.88666666666667,44.24609375L127.11066666666667,44.24609375L127.16666666666667,44.24609375L127.176,44.24609375L127.49333333333333,44.24609375L127.596,44.24609375L127.95066666666668,44.24609375L127.988,44.24609375L128.04399999999998,44.24609375L128.11866666666668,44.24609375L129.08933333333334,44.24609375L129.09866666666667,44.24609375L129.68666666666667,44.24609375L129.78,44.24609375L129.82666666666665,44.24609375L130.144,44.24609375L130.19066666666666,44.24609375L130.31199999999998,44.24609375L130.33066666666667,44.24609375L130.91866666666667,44.24609375L131.32933333333335,44.24609375L131.404,44.24609375L131.712,44.24609375L132.50533333333334,44.24609375L132.87866666666667,44.24609375L133.06533333333334,44.24609375L133.14933333333332,44.24609375L133.34533333333334,44.24609375L133.63466666666667,44.24609375L133.65333333333334,44.24609375L133.69066666666666,44.24609375L133.88666666666668,44.24609375L133.91466666666668,44.24609375L133.952,44.24609375L134.10133333333334,44.24609375L134.18533333333335,44.24609375L134.24133333333333,44.24609375L134.92266666666666,44.24609375L135.08133333333333,44.24609375L135.59466666666668,44.24609375L136.052,44.24609375L136.60266666666666,44.24609375L136.976,44.24609375L137.01333333333335,44.24609375L137.30266666666668,44.24609375L137.536,44.24609375L137.872,44.24609375L138.16133333333335,44.24609375L138.18,44.24609375L138.292,44.24609375L138.64666666666665,44.24609375L138.75866666666667,44.24609375L139.02,44.24609375L139.05733333333333,44.24609375L139.076,44.24609375L139.272,44.24609375L139.28133333333332,44.24609375L139.42133333333334,44.24609375L139.53333333333333,44.24609375L139.7853333333333,44.24609375L139.804,44.24609375L139.82266666666666,44.24609375L140.51333333333335,44.24609375L140.952,44.24609375L141.39066666666668,44.24609375L141.95066666666668,44.24609375L142.64133333333334,44.24609375L142.72533333333334,44.24609375L143.35066666666668,44.24609375L143.75199999999998,44.24609375L143.78933333333333,44.24609375L143.948,44.24609375L144.15333333333334,44.24609375L144.41466666666668,44.24609375L144.452,44.24609375L144.648,44.24609375L144.76933333333335,44.24609375L144.89999999999998,44.24609375L145.012,44.24609375L145.02133333333333,44.24609375L145.124,44.24609375L145.53466666666668,44.24609375L146.43066666666667,44.24609375L146.79466666666667,44.24609375L147.00933333333333,44.24609375L147.112,44.24609375L147.51333333333335,44.24609375L147.93333333333334,44.24609375L148.2973333333333,44.24609375L148.5773333333333,44.24609375L148.9226666666667,44.24609375L149.548,44.24609375L149.64133333333334,44.24609375L149.80933333333334,44.24609375L149.884,44.24609375L150.164,44.24609375L150.49066666666667,44.24609375L150.668,44.24609375L150.68666666666667,44.24609375L150.71466666666666,44.24609375L150.83599999999998,44.24609375L151.35866666666666,44.24609375L151.54533333333333,44.24609375L152.16133333333332,44.24609375L152.432,44.24609375L152.60000000000002,44.24609375L152.98266666666666,44.24609375L153.22533333333334,44.24609375L153.7386666666667,44.24609375L153.82266666666666,44.24609375L154.06533333333334,44.24609375L154.43866666666665,44.24609375L154.96133333333333,44.24609375L155.064,44.24609375L155.19466666666668,44.24609375L155.316,44.24609375L155.484,44.24609375L155.66133333333332,44.24609375L155.764,44.24609375L155.82,44.24609375L155.932,44.24609375L156.09066666666666,44.24609375L156.41733333333332,44.24609375L156.48266666666666,44.24609375L157.26666666666665,44.24609375L157.31333333333333,44.24609375L157.37866666666667,44.24609375L157.4346666666667,44.24609375L157.73333333333335,44.24609375L157.74266666666668,44.24609375L157.78933333333333,44.24609375L157.92,44.24609375L157.99466666666666,44.24609375L158.00400000000002,44.24609375L158.62,44.24609375L158.63866666666667,44.24609375L159.00266666666667,44.24609375L159.39466666666667,44.24609375L159.82399999999998,44.24609375L160.02933333333334,44.24609375L160.96266666666665,44.24609375L161.10266666666666,44.24609375L161.2613333333333,44.24609375L161.336,44.24609375L161.65333333333334,44.24609375L161.952,44.24609375L162.07333333333332,44.24609375L162.11066666666665,44.24609375L162.39999999999998,44.24609375L162.60533333333333,44.24609375L162.64266666666666,44.24609375L162.78266666666667,44.24609375L163.51999999999998,44.24609375L163.94933333333333,44.24609375L163.95866666666666,44.24609375L163.996,44.24609375L164.25733333333335,44.24609375L164.36933333333332,44.24609375L164.46266666666668,44.24609375L164.5,44.24609375L164.63066666666666,44.24609375L164.77066666666667,44.24609375L164.98533333333336,44.24609375L165.06933333333333,44.24609375L165.2,44.24609375L166.31066666666666,44.24609375L166.46,44.24609375L166.59066666666666,44.24609375L166.72133333333335,44.24609375L166.80533333333332,44.24609375L167.076,44.24609375L167.25333333333336,44.24609375L167.40266666666668,44.24609375L167.45866666666666,44.24609375L167.59866666666667,44.24609375L167.65466666666666,44.24609375L167.916,44.24609375L167.93466666666666,44.24609375L169.036,44.24609375L169.2506666666667,44.24609375L169.29733333333334,44.24609375L169.57733333333334,44.24609375L169.988,44.24609375L170.08133333333333,44.24609375L170.33333333333331,44.24609375L170.436,44.24609375L170.744,44.24609375L170.81866666666667,44.24609375L170.996,44.24609375L171.09866666666667,44.24609375L171.49066666666667,44.24609375L171.93866666666665,44.24609375L171.948,44.24609375L172.7973333333333,44.24609375L172.97466666666668,44.24609375L173.06799999999998,44.24609375L173.38533333333334,44.24609375L173.656,44.24609375L173.768,44.24609375L173.84266666666667,44.24609375L174.40266666666668,44.24609375L174.412,44.24609375L174.87866666666667,44.24609375L174.90666666666667,44.24609375L174.92533333333336,44.24609375L174.98133333333334,44.24609375L175.59733333333332,44.24609375L175.90533333333332,44.24609375L176.33466666666666,44.24609375L176.512,44.24609375L176.54,44.24609375L176.66133333333335,44.24609375L177.22133333333335,44.24609375L177.84666666666666,44.24609375L178.304,44.24609375L178.32266666666666,44.24609375L178.416,44.24609375L178.74266666666665,44.24609375L178.82666666666668,44.24609375L179.49866666666668,44.24609375L179.536,44.24609375L180.07733333333334,44.24609375L180.45999999999998,44.24609375L180.73999999999998,44.24609375L180.75866666666664,44.24609375L180.88933333333333,44.24609375L180.91733333333335,44.24609375L181.14133333333334,44.24609375L181.51466666666667,44.24609375L181.552,44.24609375L182.028,44.24609375L182.15866666666665,44.24609375L182.51333333333335,44.24609375L182.54133333333334,44.24609375L182.71866666666665,44.24609375L183.12933333333334,44.24609375L183.18533333333335,44.24609375L183.19466666666668,44.24609375L183.34400000000002,44.24609375L183.456,44.24609375L184.14666666666665,44.24609375L184.1653333333333,44.24609375L184.34266666666667,44.24609375L184.46400000000003,44.24609375L184.55733333333333,44.24609375L184.632,44.24609375L185.68666666666667,44.24609375L185.95733333333334,44.24609375L186.032,44.24609375L186.816,44.24609375L186.88133333333332,44.24609375L187.26399999999998,44.24609375L187.768,44.24609375L187.90800000000002,44.24609375L187.91733333333335,44.24609375L188.05733333333333,44.24609375L188.272,44.24609375L188.43066666666667,44.24609375L188.51466666666667,44.24609375L188.832,44.24609375L189.112,44.24609375L189.17733333333334,44.24609375L189.60666666666668,44.24609375L190.064,44.24609375L190.15733333333336,44.24609375L190.22266666666667,44.24609375L190.232,44.24609375L190.26933333333332,44.24609375L190.63333333333333,44.24609375L190.73600000000002,44.24609375L190.89466666666667,44.24609375L191.0066666666667,44.24609375L191.38933333333333,44.24609375L191.41733333333332,44.24609375L191.66933333333333,44.24609375L191.73466666666667,44.24609375L191.94,44.24609375L192.08933333333334,44.24609375L192.16400000000002,44.24609375L192.36,44.24609375L192.472,44.24609375L192.54666666666665,44.24609375L192.584,44.24609375L192.62133333333333,44.24609375L193.27466666666666,44.24609375L193.91866666666667,44.24609375L194.44133333333335,44.24609375L194.56266666666664,44.24609375L195.11333333333332,44.24609375L195.12266666666665,44.24609375L195.23466666666667,44.24609375L195.34666666666666,44.24609375L195.48666666666668,44.24609375L195.58,44.24609375L195.71066666666667,44.24609375L195.832,44.24609375L195.916,44.24609375L196.21466666666666,44.24609375L196.81199999999998,44.24609375L197.09199999999998,44.24609375L197.13866666666667,44.24609375L197.148,44.24609375L197.26,44.24609375L197.36266666666666,44.24609375L198.41733333333335,44.24609375L198.42666666666668,44.24609375L198.48266666666666,44.24609375L198.51066666666665,44.24609375L198.62266666666667,44.24609375L198.76266666666666,44.24609375L199.48133333333334,44.24609375L199.72400000000002,44.24609375L199.78,44.24609375L199.78933333333333,44.24609375L200.34933333333333,44.24609375L200.592,44.24609375L201.012,44.24609375L201.04,44.24609375L201.24533333333332,44.24609375L201.6,44.24609375L201.69333333333336,44.24609375L201.73066666666668,44.24609375L201.74,44.24609375L202.62666666666667,44.24609375L202.64533333333333,44.24609375L202.692,44.24609375L203.27066666666667,44.24609375L203.65333333333334,44.24609375L204.12,44.24609375L204.19466666666665,44.24609375L204.33466666666666,44.24609375L204.428,44.24609375L204.46533333333332,44.24609375L204.596,44.24609375L205.016,44.24609375L205.10000000000002,44.24609375L205.32399999999998,44.24609375L205.352,44.24609375L205.772,44.24609375L206.43466666666666,44.24609375L206.584,44.24609375L206.78,44.24609375L206.84533333333334,44.24609375L207.21866666666665,44.24609375L207.7973333333333,44.24609375L207.816,44.24609375L208.52533333333335,44.24609375L208.712,44.24609375L209.02933333333334,44.24609375L209.17866666666666,44.24609375L209.28133333333332,44.24609375L209.692,44.24609375L209.832,44.24609375L209.84133333333332,44.24609375L209.87866666666667,44.24609375L210,44.24609375L210.14,44.24609375L210.70933333333335,44.24609375L211.05466666666666,44.24609375L211.26,44.24609375L212.91199999999998,44.24609375L213.108,44.24609375L213.388,44.24609375L213.68666666666667,44.24609375L213.77066666666664,44.24609375L213.948,44.24609375L214.116,44.24609375L214.52666666666667,44.24609375L214.61066666666665,44.24609375L214.79733333333334,44.24609375L215.00266666666667,44.24609375L215.21733333333333,44.24609375L215.376,44.24609375L215.404,44.24609375L215.432,44.24609375L215.77733333333333,44.24609375L216.03866666666664,44.24609375L216.20666666666668,44.24609375L216.22533333333334,44.24609375L217,44.24609375L217.10266666666666,44.24609375L217.35466666666667,44.24609375L217.59733333333332,44.24609375L217.83066666666667,44.24609375L217.85866666666666,44.24609375L218.84799999999998,44.24609375L218.8853333333333,44.24609375L219.02533333333332,44.24609375L219.044,44.24609375L219.09066666666666,44.24609375L219.14666666666665,44.24609375L219.268,44.24609375L219.34266666666667,44.24609375L219.67866666666666,44.24609375L219.828,44.24609375L220.5,44.24609375L220.54666666666665,44.24609375L220.752,44.24609375L220.77066666666667,44.24609375L220.8826666666667,44.24609375L220.95733333333334,44.24609375L221.01333333333332,44.24609375L221.256,44.24609375L221.29333333333332,44.24609375L221.51733333333334,44.24609375L221.62,44.24609375L221.83466666666666,44.24609375L221.94666666666666,44.24609375L222.24533333333332,44.24609375L222.86133333333333,44.24609375L222.98266666666666,44.24609375L223.25333333333333,44.24609375L223.356,44.24609375L223.68266666666665,44.24609375L223.78533333333334,44.24609375L224.77466666666666,44.24609375L224.79333333333332,44.24609375L224.87733333333335,44.24609375L224.91466666666668,44.24609375L224.924,44.24609375L224.98933333333332,44.24609375L225.13866666666667,44.24609375L225.18533333333335,44.24609375L225.61466666666666,44.24609375L225.652,44.24609375L225.67066666666668,44.24609375L226.03466666666668,44.24609375L226.06266666666667,44.24609375L226.19333333333333,44.24609375L226.92133333333334,44.24609375L226.98666666666665,44.24609375L227.22933333333333,44.24609375L229.26399999999998,44.24609375L229.488,44.24609375L229.73066666666668,44.24609375L229.74,44.24609375L229.94533333333334,44.24609375L230.03866666666667,44.24609375L230.18800000000002,44.24609375L230.40266666666665,44.24609375L230.81333333333333,44.24609375L231.224,44.24609375L231.31733333333335,44.24609375L231.336,44.24609375L231.40133333333333,44.24609375L231.5413333333333,44.24609375L232.204,44.24609375L232.22266666666667,44.24609375L232.568,44.24609375L233.01600000000002,44.24609375L233.212,44.24609375L233.47333333333333,44.24609375L233.54799999999997,44.24609375L233.64133333333334,44.24609375L233.968,44.24609375L234.31333333333333,44.24609375L234.696,44.24609375L234.82666666666665,44.24609375L235.22799999999998,44.24609375L235.50799999999998,44.24609375L235.732,44.24609375L235.956,44.24609375L235.96533333333332,44.24609375L236.96400000000003,44.24609375L237.27200000000002,44.24609375L237.524,44.24609375L237.85066666666668,44.24609375L237.90666666666667,44.24609375L237.944,44.24609375L238.504,44.24609375L238.55066666666667,44.24609375L238.67200000000003,44.24609375L238.88666666666666,44.24609375L238.99866666666668,44.24609375L239.708,44.24609375L240.08133333333333,44.24609375L240.45466666666667,44.24609375L240.48266666666666,44.24609375L240.79066666666665,44.24609375L240.996,44.24609375L241.08933333333334,44.24609375L241.388,44.24609375L241.53733333333335,44.24609375L241.7986666666667,44.24609375L241.80800000000002,44.24609375L242.67600000000002,44.24609375L243.03066666666666,44.24609375L243.5066666666667,44.24609375L243.52533333333335,44.24609375L243.86133333333333,44.24609375L244.02933333333334,44.24609375L244.05733333333333,44.24609375L244.71066666666667,44.24609375L245.14933333333335,44.24609375L245.43866666666668,44.24609375L245.63466666666665,44.24609375L246.12,44.24609375L246.65200000000002,44.24609375L246.89466666666667,44.24609375L247.58533333333332,44.24609375L247.68800000000002,44.24609375L247.716,44.24609375L247.996,44.24609375L248.052,44.24609375L248.47199999999998,44.24609375L249.39600000000002,44.24609375L249.96533333333335,44.24609375L250.1893333333333,44.24609375L250.24533333333335,44.24609375L250.44133333333332,44.24609375L250.66533333333334,44.24609375L250.87066666666666,44.24609375L250.992,44.24609375L251.40266666666668,44.24609375L251.72,44.24609375L251.75733333333335,44.24609375L251.91600000000003,44.24609375L251.9346666666667,44.24609375L252.99866666666665,44.24609375L253.18533333333335,44.24609375L253.27866666666665,44.24609375L253.512,44.24609375L253.91333333333336,44.24609375L254.044,44.24609375L254.1746666666667,44.24609375L254.41733333333332,44.24609375L254.50133333333335,44.24609375L254.94,44.24609375L254.97733333333332,44.24609375L255.07066666666668,44.24609375L255.17333333333335,44.24609375L255.21066666666667,44.24609375L255.23866666666666,44.24609375L255.31333333333336,44.24609375L255.50933333333333,44.24609375L255.57466666666664,44.24609375L255.77066666666667,44.24609375L256.0973333333333,44.24609375L256.284,44.24609375L256.30266666666665,44.24609375L256.46133333333336,44.24609375L256.592,44.24609375L256.66666666666663,44.24609375" fill="none"></path></g></g></g></g></g></g><g transform="translate(50, 176)" clip-path="url(#clip_1)"><clipPath id="clip_1"><rect width="280" height="23"></rect></clipPath><g><g><line x1="0" y1="0" x2="0" y2="5" style="visibility: inherit;" fill="rgb(0, 0, 0)" stroke="rgb(204, 204, 204)" stroke-width="1.333333px"></line><line x1="23.333333333333332" y1="0" x2="23.333333333333332" y2="5" style="visibility: inherit;" fill="rgb(0, 0, 0)" stroke="rgb(204, 204, 204)" stroke-width="1.333333px"></line><line x1="46.666666666666664" y1="0" x2="46.666666666666664" y2="5" style="visibility: inherit;" fill="rgb(0, 0, 0)" stroke="rgb(204, 204, 204)" stroke-width="1.333333px"></line><line x1="70" y1="0" x2="70" y2="5" style="visibility: inherit;" fill="rgb(0, 0, 0)" stroke="rgb(204, 204, 204)" stroke-width="1.333333px"></line><line x1="93.33333333333333" y1="0" x2="93.33333333333333" y2="5" style="visibility: inherit;" fill="rgb(0, 0, 0)" stroke="rgb(204, 204, 204)" stroke-width="1.333333px"></line><line x1="116.66666666666667" y1="0" x2="116.66666666666667" y2="5" style="visibility: inherit;" fill="rgb(0, 0, 0)" stroke="rgb(204, 204, 204)" stroke-width="1.333333px"></line><line x1="140" y1="0" x2="140" y2="5" style="visibility: inherit;" fill="rgb(0, 0, 0)" stroke="rgb(204, 204, 204)" stroke-width="1.333333px"></line><line x1="163.33333333333334" y1="0" x2="163.33333333333334" y2="5" style="visibility: inherit;" fill="rgb(0, 0, 0)" stroke="rgb(204, 204, 204)" stroke-width="1.333333px"></line><line x1="186.66666666666666" y1="0" x2="186.66666666666666" y2="5" style="visibility: inherit;" fill="rgb(0, 0, 0)" stroke="rgb(204, 204, 204)" stroke-width="1.333333px"></line><line x1="210" y1="0" x2="210" y2="5" style="visibility: inherit;" fill="rgb(0, 0, 0)" stroke="rgb(204, 204, 204)" stroke-width="1.333333px"></line><line x1="233.33333333333334" y1="0" x2="233.33333333333334" y2="5" style="visibility: inherit;" fill="rgb(0, 0, 0)" stroke="rgb(204, 204, 204)" stroke-width="1.333333px"></line><line x1="256.66666666666663" y1="0" x2="256.66666666666663" y2="5" style="visibility: inherit;" fill="rgb(0, 0, 0)" stroke="rgb(204, 204, 204)" stroke-width="1.333333px"></line><line x1="280" y1="0" x2="280" y2="5" style="visibility: inherit;" fill="rgb(0, 0, 0)" stroke="rgb(204, 204, 204)" stroke-width="1.333333px"></line></g><g transform="translate(0, 8)"><text style="text-anchor: middle; visibility: hidden; font-family: Roboto, sans-serif; font-size: 16px; font-weight: 200;" x="0" y="0" dx="0em" dy="0.95em" fill="rgb(33, 33, 33)" stroke="none" stroke-width="1.333333px">-10k</text><text style="text-anchor: middle; visibility: inherit; font-family: Roboto, sans-serif; font-size: 16px; font-weight: 200;" x="23.333333333333332" y="0" dx="0em" dy="0.95em" fill="rgb(33, 33, 33)" stroke="none" stroke-width="1.333333px">0</text><text style="text-anchor: middle; visibility: hidden; font-family: Roboto, sans-serif; font-size: 16px; font-weight: 200;" x="46.666666666666664" y="0" dx="0em" dy="0.95em" fill="rgb(33, 33, 33)" stroke="none" stroke-width="1.333333px">10k</text><text style="text-anchor: middle; visibility: inherit; font-family: Roboto, sans-serif; font-size: 16px; font-weight: 200;" x="70" y="0" dx="0em" dy="0.95em" fill="rgb(33, 33, 33)" stroke="none" stroke-width="1.333333px">20k</text><text style="text-anchor: middle; visibility: hidden; font-family: Roboto, sans-serif; font-size: 16px; font-weight: 200;" x="93.33333333333333" y="0" dx="0em" dy="0.95em" fill="rgb(33, 33, 33)" stroke="none" stroke-width="1.333333px">30k</text><text style="text-anchor: middle; visibility: inherit; font-family: Roboto, sans-serif; font-size: 16px; font-weight: 200;" x="116.66666666666667" y="0" dx="0em" dy="0.95em" fill="rgb(33, 33, 33)" stroke="none" stroke-width="1.333333px">40k</text><text style="text-anchor: middle; visibility: hidden; font-family: Roboto, sans-serif; font-size: 16px; font-weight: 200;" x="140" y="0" dx="0em" dy="0.95em" fill="rgb(33, 33, 33)" stroke="none" stroke-width="1.333333px">50k</text><text style="text-anchor: middle; visibility: inherit; font-family: Roboto, sans-serif; font-size: 16px; font-weight: 200;" x="163.33333333333334" y="0" dx="0em" dy="0.95em" fill="rgb(33, 33, 33)" stroke="none" stroke-width="1.333333px">60k</text><text style="text-anchor: middle; visibility: hidden; font-family: Roboto, sans-serif; font-size: 16px; font-weight: 200;" x="186.66666666666666" y="0" dx="0em" dy="0.95em" fill="rgb(33, 33, 33)" stroke="none" stroke-width="1.333333px">70k</text><text style="text-anchor: middle; visibility: inherit; font-family: Roboto, sans-serif; font-size: 16px; font-weight: 200;" x="210" y="0" dx="0em" dy="0.95em" fill="rgb(33, 33, 33)" stroke="none" stroke-width="1.333333px">80k</text><text style="text-anchor: middle; visibility: hidden; font-family: Roboto, sans-serif; font-size: 16px; font-weight: 200;" x="233.33333333333334" y="0" dx="0em" dy="0.95em" fill="rgb(33, 33, 33)" stroke="none" stroke-width="1.333333px">90k</text><text style="text-anchor: middle; visibility: inherit; font-family: Roboto, sans-serif; font-size: 16px; font-weight: 200;" x="256.66666666666663" y="0" dx="0em" dy="0.95em" fill="rgb(33, 33, 33)" stroke="none" stroke-width="1.333333px">100k</text><text style="text-anchor: middle; visibility: hidden; font-family: Roboto, sans-serif; font-size: 16px; font-weight: 200;" x="280" y="0" dx="0em" dy="0.95em" fill="rgb(33, 33, 33)" stroke="none" stroke-width="1.333333px">110k</text></g><line x1="0" y1="0" x2="280" y2="0" fill="rgb(0, 0, 0)" stroke="rgb(204, 204, 204)" stroke-width="1.333333px"></line></g></g></g></g></svg>