<svg viewBox="0 0 330 200" xmlns="http://www.w3.org/2000/svg"><g><g><g><g><g><line x1="50" y1="176.984375" x2="45" y2="176.984375" style="visibility: inherit;" fill="rgb(0, 0, 0)" stroke="rgb(204, 204, 204)" stroke-width="1.333333px"></line><line x1="50" y1="165.18541666666667" x2="45" y2="165.18541666666667" style="visibility: inherit;" fill="rgb(0, 0, 0)" stroke="rgb(204, 204, 204)" stroke-width="1.333333px"></line><line x1="50" y1="153.38645833333334" x2="45" y2="153.38645833333334" style="visibility: inherit;" fill="rgb(0, 0, 0)" stroke="rgb(204, 204, 204)" stroke-width="1.333333px"></line><line x1="50" y1="141.5875" x2="45" y2="141.5875" style="visibility: inherit;" fill="rgb(0, 0, 0)" stroke="rgb(204, 204, 204)" stroke-width="1.333333px"></line><line x1="50" y1="129.78854166666667" x2="45" y2="129.78854166666667" style="visibility: inherit;" fill="rgb(0, 0, 0)" stroke="rgb(204, 204, 204)" stroke-width="1.333333px"></line><line x1="50" y1="117.98958333333333" x2="45" y2="117.98958333333333" style="visibility: inherit;" fill="rgb(0, 0, 0)" stroke="rgb(204, 204, 204)" stroke-width="1.333333px"></line><line x1="50" y1="106.190625" x2="45" y2="106.190625" style="visibility: inherit;" fill="rgb(0, 0, 0)" stroke="rgb(204, 204, 204)" stroke-width="1.333333px"></line><line x1="50" y1="94.39166666666665" x2="45" y2="94.39166666666665" style="visibility: inherit;" fill="rgb(0, 0, 0)" stroke="rgb(204, 204, 204)" stroke-width="1.333333px"></line><line x1="50" y1="82.59270833333333" x2="45" y2="82.59270833333333" style="visibility: inherit;" fill="rgb(0, 0, 0)" stroke="rgb(204, 204, 204)" stroke-width="1.333333px"></line><line x1="50" y1="70.79375" x2="45" y2="70.79375" style="visibility: inherit;" fill="rgb(0, 0, 0)" stroke="rgb(204, 204, 204)" stroke-width="1.333333px"></line><line x1="50" y1="58.99479166666665" x2="45" y2="58.99479166666665" style="visibility: inherit;" fill="rgb(0, 0, 0)" stroke="rgb(204, 204, 204)" stroke-width="1.333333px"></line><line x1="50" y1="47.195833333333326" x2="45" y2="47.195833333333326" style="visibility: inherit;" fill="rgb(0, 0, 0)" stroke="rgb(204, 204, 204)" stroke-width="1.333333px"></line><line x1="50" y1="35.396874999999994" x2="45" y2="35.396874999999994" style="visibility: inherit;" fill="rgb(0, 0, 0)" stroke="rgb(204, 204, 204)" stroke-width="1.333333px"></line><line x1="50" y1="23.597916666666663" x2="45" y2="23.597916666666663" style="visibility: inherit;" fill="rgb(0, 0, 0)" stroke="rgb(204, 204, 204)" stroke-width="1.333333px"></line><line x1="50" y1="11.798958333333312" x2="45" y2="11.798958333333312" style="visibility: inherit;" fill="rgb(0, 0, 0)" stroke="rgb(204, 204, 204)" stroke-width="1.333333px"></line><line x1="50" y1="0" x2="45" y2="0" style="visibility: inherit;" fill="rgb(0, 0, 0)" stroke="rgb(204, 204, 204)" stroke-width="1.333333px"></line></g><g transform="translate(40, 0)"><text style="text-anchor: end; visibility: hidden; font-family: Roboto, sans-serif; font-size: 16px; font-weight: 200;" x="0" y="176.984375" dx="0em" dy="0.3em" fill="rgb(33, 33, 33)" stroke="none" stroke-width="1.333333px">0</text><text style="text-anchor: end; visibility: inherit; font-family: Roboto, sans-serif; font-size: 16px; font-weight: 200;" x="0" y="165.18541666666667" dx="0em" dy="0.3em" fill="rgb(33, 33, 33)" stroke="none" stroke-width="1.333333px">0.02</text><text style="text-anchor: end; visibility: hidden; font-family: Roboto, sans-serif; font-size: 16px; font-weight: 200;" x="0" y="153.38645833333334" dx="0em" dy="0.3em" fill="rgb(33, 33, 33)" stroke="none" stroke-width="1.333333px">0.04</text><text style="text-anchor: end; visibility: inherit; font-family: Roboto, sans-serif; font-size: 16px; font-weight: 200;" x="0" y="141.5875" dx="0em" dy="0.3em" fill="rgb(33, 33, 33)" stroke="none" stroke-width="1.333333px">0.06</text><text style="text-anchor: end; visibility: hidden; font-family: Roboto, sans-serif; font-size: 16px; font-weight: 200;" x="0" y="129.78854166666667" dx="0em" dy="0.3em" fill="rgb(33, 33, 33)" stroke="none" stroke-width="1.333333px">0.08</text><text style="text-anchor: end; visibility: inherit; font-family: Roboto, sans-serif; font-size: 16px; font-weight: 200;" x="0" y="117.98958333333333" dx="0em" dy="0.3em" fill="rgb(33, 33, 33)" stroke="none" stroke-width="1.333333px">0.1</text><text style="text-anchor: end; visibility: hidden; font-family: Roboto, sans-serif; font-size: 16px; font-weight: 200;" x="0" y="106.190625" dx="0em" dy="0.3em" fill="rgb(33, 33, 33)" stroke="none" stroke-width="1.333333px">0.12</text><text style="text-anchor: end; visibility: inherit; font-family: Roboto, sans-serif; font-size: 16px; font-weight: 200;" x="0" y="94.39166666666665" dx="0em" dy="0.3em" fill="rgb(33, 33, 33)" stroke="none" stroke-width="1.333333px">0.14</text><text style="text-anchor: end; visibility: hidden; font-family: Roboto, sans-serif; font-size: 16px; font-weight: 200;" x="0" y="82.59270833333333" dx="0em" dy="0.3em" fill="rgb(33, 33, 33)" stroke="none" stroke-width="1.333333px">0.16</text><text style="text-anchor: end; visibility: inherit; font-family: Roboto, sans-serif; font-size: 16px; font-weight: 200;" x="0" y="70.79375" dx="0em" dy="0.3em" fill="rgb(33, 33, 33)" stroke="none" stroke-width="1.333333px">0.18</text><text style="text-anchor: end; visibility: hidden; font-family: Roboto, sans-serif; font-size: 16px; font-weight: 200;" x="0" y="58.99479166666665" dx="0em" dy="0.3em" fill="rgb(33, 33, 33)" stroke="none" stroke-width="1.333333px">0.2</text><text style="text-anchor: end; visibility: inherit; font-family: Roboto, sans-serif; font-size: 16px; font-weight: 200;" x="0" y="47.195833333333326" dx="0em" dy="0.3em" fill="rgb(33, 33, 33)" stroke="none" stroke-width="1.333333px">0.22</text><text style="text-anchor: end; visibility: hidden; font-family: Roboto, sans-serif; font-size: 16px; font-weight: 200;" x="0" y="35.396874999999994" dx="0em" dy="0.3em" fill="rgb(33, 33, 33)" stroke="none" stroke-width="1.333333px">0.24</text><text style="text-anchor: end; visibility: inherit; font-family: Roboto, sans-serif; font-size: 16px; font-weight: 200;" x="0" y="23.597916666666663" dx="0em" dy="0.3em" fill="rgb(33, 33, 33)" stroke="none" stroke-width="1.333333px">0.26</text><text style="text-anchor: end; visibility: hidden; font-family: Roboto, sans-serif; font-size: 16px; font-weight: 200;" x="0" y="11.798958333333312" dx="0em" dy="0.3em" fill="rgb(33, 33, 33)" stroke="none" stroke-width="1.333333px">0.28</text><text style="text-anchor: end; visibility: hidden; font-family: Roboto, sans-serif; font-size: 16px; font-weight: 200;" x="0" y="0" dx="0em" dy="0.3em" fill="rgb(33, 33, 33)" stroke="none" stroke-width="1.333333px">0.3</text></g><line x1="50" y1="0" x2="50" y2="176.984375" fill="rgb(0, 0, 0)" stroke="rgb(204, 204, 204)" stroke-width="1.333333px"></line></g></g><g transform="translate(50, 0)" clip-path="url(#clip_0)"><clipPath id="clip_0"><rect width="280" height="176"></rect></clipPath><g><g><g><line x1="0" y1="0" x2="0" y2="176.984375" fill="rgb(0, 0, 0)" stroke="rgb(66, 66, 66)" stroke-width="1.333333px" opacity="0.25"></line><line x1="23.333333333333332" y1="0" x2="23.333333333333332" y2="176.984375" fill="rgb(0, 0, 0)" stroke="rgb(66, 66, 66)" stroke-width="1.333333px" opacity="0.25"></line><line x1="46.666666666666664" y1="0" x2="46.666666666666664" y2="176.984375" fill="rgb(0, 0, 0)" stroke="rgb(66, 66, 66)" stroke-width="1.333333px" opacity="0.25"></line><line x1="70" y1="0" x2="70" y2="176.984375" fill="rgb(0, 0, 0)" stroke="rgb(66, 66, 66)" stroke-width="1.333333px" opacity="0.25"></line><line x1="93.33333333333333" y1="0" x2="93.33333333333333" y2="176.984375" fill="rgb(0, 0, 0)" stroke="rgb(66, 66, 66)" stroke-width="1.333333px" opacity="0.25"></line><line x1="116.66666666666667" y1="0" x2="116.66666666666667" y2="176.984375" fill="rgb(0, 0, 0)" stroke="rgb(66, 66, 66)" stroke-width="1.333333px" opacity="0.25"></line><line x1="140" y1="0" x2="140" y2="176.984375" fill="rgb(0, 0, 0)" stroke="rgb(66, 66, 66)" stroke-width="1.333333px" opacity="0.25"></line><line x1="163.33333333333334" y1="0" x2="163.33333333333334" y2="176.984375" fill="rgb(0, 0, 0)" stroke="rgb(66, 66, 66)" stroke-width="1.333333px" opacity="0.25"></line><line x1="186.66666666666666" y1="0" x2="186.66666666666666" y2="176.984375" fill="rgb(0, 0, 0)" stroke="rgb(66, 66, 66)" stroke-width="1.333333px" opacity="0.25"></line><line x1="210" y1="0" x2="210" y2="176.984375" fill="rgb(0, 0, 0)" stroke="rgb(66, 66, 66)" stroke-width="1.333333px" opacity="0.25"></line><line x1="233.33333333333334" y1="0" x2="233.33333333333334" y2="176.984375" fill="rgb(0, 0, 0)" stroke="rgb(66, 66, 66)" stroke-width="1.333333px" opacity="0.25"></line><line x1="256.66666666666663" y1="0" x2="256.66666666666663" y2="176.984375" fill="rgb(0, 0, 0)" stroke="rgb(66, 66, 66)" stroke-width="1.333333px" opacity="0.25"></line><line x1="280" y1="0" x2="280" y2="176.984375" fill="rgb(0, 0, 0)" stroke="rgb(66, 66, 66)" stroke-width="1.333333px" opacity="0.25"></line></g><g><line x1="0" y1="176.984375" x2="280" y2="176.984375" fill="rgb(0, 0, 0)" stroke="rgb(66, 66, 66)" stroke-width="1.333333px" opacity="0.25"></line><line x1="0" y1="165.18541666666667" x2="280" y2="165.18541666666667" fill="rgb(0, 0, 0)" stroke="rgb(66, 66, 66)" stroke-width="1.333333px" opacity="0.25"></line><line x1="0" y1="153.38645833333334" x2="280" y2="153.38645833333334" fill="rgb(0, 0, 0)" stroke="rgb(66, 66, 66)" stroke-width="1.333333px" opacity="0.25"></line><line x1="0" y1="141.5875" x2="280" y2="141.5875" fill="rgb(0, 0, 0)" stroke="rgb(66, 66, 66)" stroke-width="1.333333px" opacity="0.25"></line><line x1="0" y1="129.78854166666667" x2="280" y2="129.78854166666667" fill="rgb(0, 0, 0)" stroke="rgb(66, 66, 66)" stroke-width="1.333333px" opacity="0.25"></line><line x1="0" y1="117.98958333333333" x2="280" y2="117.98958333333333" fill="rgb(0, 0, 0)" stroke="rgb(66, 66, 66)" stroke-width="1.333333px" opacity="0.25"></line><line x1="0" y1="106.190625" x2="280" y2="106.190625" fill="rgb(0, 0, 0)" stroke="rgb(66, 66, 66)" stroke-width="1.333333px" opacity="0.25"></line><line x1="0" y1="94.39166666666665" x2="280" y2="94.39166666666665" fill="rgb(0, 0, 0)" stroke="rgb(66, 66, 66)" stroke-width="1.333333px" opacity="0.25"></line><line x1="0" y1="82.59270833333333" x2="280" y2="82.59270833333333" fill="rgb(0, 0, 0)" stroke="rgb(66, 66, 66)" stroke-width="1.333333px" opacity="0.25"></line><line x1="0" y1="70.79375" x2="280" y2="70.79375" fill="rgb(0, 0, 0)" stroke="rgb(66, 66, 66)" stroke-width="1.333333px" opacity="0.25"></line><line x1="0" y1="58.99479166666665" x2="280" y2="58.99479166666665" fill="rgb(0, 0, 0)" stroke="rgb(66, 66, 66)" stroke-width="1.333333px" opacity="0.25"></line><line x1="0" y1="47.195833333333326" x2="280" y2="47.195833333333326" fill="rgb(0, 0, 0)" stroke="rgb(66, 66, 66)" stroke-width="1.333333px" opacity="0.25"></line><line x1="0" y1="35.396874999999994" x2="280" y2="35.396874999999994" fill="rgb(0, 0, 0)" stroke="rgb(66, 66, 66)" stroke-width="1.333333px" opacity="0.25"></line><line x1="0" y1="23.597916666666663" x2="280" y2="23.597916666666663" fill="rgb(0, 0, 0)" stroke="rgb(66, 66, 66)" stroke-width="1.333333px" opacity="0.25"></line><line x1="0" y1="11.798958333333312" x2="280" y2="11.798958333333312" fill="rgb(0, 0, 0)" stroke="rgb(66, 66, 66)" stroke-width="1.333333px" opacity="0.25"></line><line x1="0" y1="0" x2="280" y2="0" fill="rgb(0, 0, 0)" stroke="rgb(66, 66, 66)" stroke-width="1.333333px" opacity="0.25"></line></g></g></g><g><g><line x1="0" y1="176.984375" x2="280" y2="176.984375" fill="rgb(0, 0, 0)" stroke="rgb(153, 153, 153)" stroke-width="2px"></line></g></g><g><g><line x1="23.333333333333332" y1="0" x2="23.333333333333332" y2="176.984375" fill="rgb(0, 0, 0)" stroke="rgb(153, 153, 153)" stroke-width="2px"></line></g></g><g><g><g><g><g><path style="fill: none;" stroke="rgb(255, 112, 67)" stroke-width="2.666667px" d="M23.520000000000003,176.984375L23.790666666666667,176.984375L23.930666666666667,176.984375L23.94,176.984375L24.182666666666666,176.984375L24.313333333333333,176.984375L24.350666666666665,104.15177553039683L24.546666666666667,121.78197648515487L24.882666666666665,144.08772645837504L24.95733333333333,62.36054478671868L25.134666666666664,108.37702330135718L25.62933333333333,135.87983160812686L25.769333333333332,152.34315120284757L25.983999999999998,162.20737073488942L26.32933333333333,168.12095291848144L26.768,171.6673222208463L26.954666666666668,156.09306892841917L27.104,164.45044013130874L27.225333333333335,128.16544955414886L27.430666666666664,118.1952593732062L27.692,141.71142149681148L27.785333333333334,155.82078860798083L27.84133333333333,111.19055961292695L28.112000000000002,137.50821047082184L28.326666666666668,153.29872117536988L28.37333333333333,103.77810656543504L28.392,38.668879227381794L28.541333333333334,93.99511151194864L28.91466666666667,103.59290342523528L29.29733333333333,132.94949854511873L29.35333333333333,126.96553131502874L29.362666666666666,105.67671363131845L29.493333333333332,134.19977954082356L29.651999999999997,92.31882485788871L30.482666666666667,37.69285647567414L30.585333333333335,93.40946446008924L30.856,126.83942888294006L31.35066666666667,135.09844885127984L31.43466666666667,-1.5336337007884406L31.621333333333332,-36.31705245387893L32.144,49.00351859610401L32.676,100.19586118229766L32.82533333333333,30.620118042865215L32.928,83.26634158026397L33.03066666666667,120.753554952055L33.208,72.45213015512968L33.348,72.96867462970319L33.721333333333334,31.982247850113787L33.852,89.98309871084962L33.91733333333333,118.88412997216761L34.104,24.134644649507706L34.216,85.27453678988253L34.309333333333335,110.15951356482145L34.328,71.99518589897414L34.40266666666667,113.99086153941087L34.72,97.89191346024651L35.037333333333336,88.23254461275178L35.056000000000004,76.53744273104343L35.083999999999996,34.12350871183469L35.17733333333334,55.87097882055646L35.214666666666666,104.31633729233529L35.718666666666664,62.58979956230956L35.90533333333333,108.34762973738624L36.19466666666667,59.10910148885563L36.57733333333333,106.25921089331356L36.95066666666667,40.15760846277587L36.96,53.59196161427159L37.29600000000001,61.65257350516903L37.44533333333334,107.78529410310145L37.473333333333336,23.374823701739576L37.800000000000004,84.81864422104377L37.828,121.68493653262627L37.958666666666666,137.905232665L38.248,112.24053613560605L38.53733333333333,90.94223764475758L38.612,101.76117556855152L38.93866666666667,131.85045534113092L39.07866666666667,149.90402320467857L39.23733333333333,160.73616392280715L39.256,78.74326085368426L39.32133333333333,118.03970651221056L39.937333333333335,29.527471147205112L40.590666666666664,59.01283685498972L40.712,-23.587092366763756L41.076,56.641494579941764L41.16933333333333,51.68333565451047L41.45866666666667,101.80375139270632L41.64533333333333,43.38381333562377L41.654666666666664,37.82924633470759L41.82266666666667,87.59181854624879L42.672000000000004,123.34884112774927L42.756,144.80305467664957L42.849333333333334,80.98235645241395L42.952000000000005,107.58420536229686L43.96933333333333,117.64583501410539L44.996,141.38125100846324L45.36933333333334,-15.462400854437165L46.088,-49.22261379794887L46.13466666666667,41.26018172123069L46.256,95.54985903273841L46.33066666666667,128.12366541964303L46.358666666666664,147.6679492517858L46.54533333333334,159.3945195510715L46.71333333333333,48.440878397309554L46.844,70.36088120505241L46.965333333333334,95.31184051975873L47.404,86.68450084846128L47.413333333333334,99.20653349077375L47.60933333333334,130.31767009446426L47.870666666666665,148.98435205667855L47.94533333333333,-28.59897491241709L48.02,53.634365052549754L48.40266666666667,8.582700958317758L48.486666666666665,75.94337057499065L48.626666666666665,104.56081383584286L48.71066666666666,133.53023830150573L48.86933333333334,97.81658188744888L48.92533333333333,94.08682272592388L49.04666666666667,50.55261728197855L49.056,0.8341717227628989L49.06533333333333,0.5005002205668494L49.18666666666667,23.89821609573405L49.34533333333333,85.13267965744043L49.59733333333333,121.87335779446427L49.80266666666667,120.31984765837554L49.896,142.9856585950253L50.05466666666666,156.58514515701518L50.99733333333334,105.75004542754245L51.1,134.24377725652548L52.12666666666667,115.94313994736984L52.136,140.3596339684219L52.32266666666666,155.00953038105314L52.332,157.89998897405613L52.472,141.93582636613064L52.705333333333336,32.06618894586014L53.20933333333333,90.03346336751609L53.37733333333333,124.81382802050966L53.601333333333336,51.290378739093676L53.82533333333333,101.56797724345621L53.85333333333333,131.73453634607372L54.67466666666667,126.23655478934121L55.12266666666667,146.53568287360474L55.65466666666667,158.71515972416285L55.86,124.72649237110375L55.93466666666667,74.83589260957137L56.01866666666667,115.69528556574282L56.26133333333333,140.2109213394457L56.63466666666667,107.72446876706137L56.66266666666667,117.7299930569641L56.952,29.34164307405723L57.10133333333333,88.39873584443434L57.455999999999996,123.8329915066606L57.484,97.89771086739029L57.52133333333333,-41.55252493908092L57.586666666666666,-66.22786772356976L57.614666666666665,31.057029365858146L57.792,89.42796761951489L57.99733333333334,65.45573890504228L58.45466666666666,-7.922389990307994L58.650666666666666,42.442398987512185L59.266666666666666,-15.830913367613928L59.285333333333334,61.29520197943166L59.77066666666666,107.570871187659L59.892,88.14043867598936L59.948,82.38165974219966L60.06,78.92639238192585L60.088,112.25010617457976L60.452000000000005,138.14381370474786L60.797333333333334,147.78055896827294L60.9,159.46208538096377L61.00266666666666,142.87308421027524L61.05866666666667,156.51760052616515L61.123999999999995,117.50847627909303L61.46933333333333,94.10300173084977L61.702666666666666,85.95919757511591L61.81466666666667,122.36926854506956L61.842666666666666,102.91895766364777L62.047999999999995,61.75137178509779L62.37466666666667,31.151346717482895L62.47733333333333,89.48455803048972L62.804,89.08760841174842L63.084,-5.542229432708537L63.653333333333336,67.4684123403749L63.74666666666666,69.978443940831L64.92266666666667,30.1881094377107L65.67866666666667,88.90661566262645L65.716,76.9418853609698L65.94933333333334,75.66252775318793L66.39733333333334,74.89491318851881L66.74266666666666,115.73069791311129L67.12533333333333,104.83529234132132L67.144,86.49909136818674L67.2,34.20101732091203L67.284,14.62113403897146L67.49866666666667,20.571638756716204L67.93733333333334,83.13673325402972L68.45066666666666,49.88203713932694L68.47866666666667,59.42661882020221L68.488,106.44972129212134L68.56266666666667,99.26670636872736L68.91733333333333,130.35377382123642L69.17866666666666,101.81018025613581L69.356,96.48298174713602L69.54266666666668,105.08562202997858L69.83200000000001,51.252416291199246L70.756,95.64572052014378L70.84,57.38742949899538L70.85866666666666,105.22620769939724L71.25066666666667,69.03520237975955L71.288,47.32059918797697L71.428,40.19131784611951L71.45599999999999,89.00906145309597L71.46533333333333,23.908038225433344L71.764,67.4401347319873L71.88533333333332,99.45887233004086L72.11866666666667,77.37376230456995L72.24000000000001,34.62530045595406L72.38,-20.52117248654882L72.464,5.38573541461615L72.492,50.42727423046667L72.772,101.05011453827998L72.996,42.931631222967994L73.02399999999999,-15.537374026340451L73.39733333333334,61.47132558419573L73.47200000000001,72.279668943972L73.78,114.16155136638321L74.17200000000001,21.301097486496587L74.256,83.57440849189796L74.30266666666665,120.93839509513877L74.76933333333334,90.26147596362871L76.244,113.15167706902571L76.832,132.78527698683968L77.09333333333333,61.97272869210379L77.308,54.88207612180771L77.78399999999999,86.02455746981191L78.10133333333333,92.91108864855383L78.22266666666667,102.94248617082924L78.86666666666667,85.36340766589149L78.94133333333333,98.41387758123186L79.17466666666667,64.94780430886034L79.324,33.06920623174043L79.436,55.238397332498806L79.84666666666666,103.93678839949928L80.388,80.06051194624501L80.59333333333333,-16.857960852495435L80.64,25.28209708195729L80.67733333333334,85.96300824917438L81.452,122.37155494950461L81.61999999999999,108.81980656315734L81.956,136.0856339378944L82.152,117.04825395619119L82.45066666666666,93.82686833710868L82.46933333333332,127.08987100226518L82.69333333333333,76.25391978826823L82.70266666666667,-60.438273127039096L82.74933333333333,34.53078612377656L82.796,26.617949434387153L83.76666666666668,86.76451966063229L84.28,122.85246179637939L84.448,126.80678887455491L84.49466666666667,28.8882399913996L84.61600000000001,-12.16445465158448L84.66266666666667,45.796639005776576L84.812,98.27173340346596L84.85866666666666,129.7567900420796L84.94266666666667,101.45198998864169L85.092,84.46910995657896L85.63333333333334,68.3799048804928L86.072,46.927420688416916L86.16533333333334,63.553326006504705L86.352,108.92574560390284L86.83733333333333,136.1491973623417L87.21066666666667,152.48326841740501L87.28533333333333,138.68579403213997L87.36933333333333,89.11095417940521L87.51866666666666,124.26032250764312L87.90133333333334,121.75202648628284L87.92933333333333,120.24704887346667L88.03200000000001,48.55031125086791L88.60133333333334,88.1249782413692L88.648,88.27186053827609L88.66666666666666,70.66155522951108L89.18933333333334,113.19068313770664L89.77733333333333,138.708159882624L89.80533333333332,124.52125009624105L89.86133333333333,145.50650005774463L90.216,158.0976500346468L90.34666666666666,165.65234002078807L90.61733333333333,99.39140119938196L91.04666666666667,30.137442073204944L91.24266666666668,35.78090415046842L91.56,92.26229249028107L91.84,126.15112549416862L91.98,146.48442529650117L92.11066666666667,158.68440517790071L92.64266666666666,124.70803964334647L92.74533333333333,110.22169737946246L92.75466666666667,42.53510035446535L93.016,37.32001854601254L93.05333333333333,45.98992709100147L93.07199999999999,51.19187221799483L93.184,54.31303929419084L93.408,56.18573953990844L93.52000000000001,80.90727670564205L93.59466666666667,101.63967782011251L93.65066666666667,131.7775566920675L93.75333333333333,114.46340760869504L93.828,139.471794565217L93.84666666666666,71.88411981234232L94.22,43.130469074314504L94.304,31.777759204709913L94.32266666666666,48.564052059432015L94.64,82.23374303238647L94.696,114.23451656485614L94.84533333333333,127.53550142976216L95.47066666666666,117.81765502452397L95.49866666666667,82.48955134804771L95.74133333333333,78.99112734543466L96.096,47.39467359416992L96.10533333333333,34.33628191662318L96.348,91.39551914997391L96.50666666666667,60.73678925010556L96.61866666666667,12.844155476851217L96.66533333333334,37.203889822716775L97.03866666666667,51.81973043023611L97.09466666666667,101.88558825814168L97.35600000000001,78.82979186143042L97.888,76.7952716534643L98.44800000000001,16.579764345654368L98.74666666666667,80.74160860739262L99.15733333333334,101.54027696116286L99.36266666666667,131.7179161766977L99.53999999999999,114.4276232994732L99.54933333333332,92.25448994307784L99.81066666666666,126.14644396584671L100.03466666666667,69.78839002593224L100.156,112.66678401555934L100.604,138.39382040933563L100.73466666666667,153.83004224560136L100.78133333333334,163.09177534736082L101.304,133.25193880187106L101.40666666666668,127.1469962628196L101.53733333333332,147.08194775769175L101.724,159.04291865461505L101.85466666666667,77.727313692769L102.60133333333333,58.43534654899474L102.88133333333333,17.362770429396843L103.13333333333334,81.2114122576381L103.18933333333334,119.52059735458286L103.27333333333334,142.5061084127497L103.78666666666666,103.20210395419527L103.87066666666666,26.524390185608013L104.16933333333333,63.11046709306179L104.20666666666666,49.665238589170414L104.496,12.100705653502253L104.552,7.260420579010482L104.72,22.05469125395174L104.776,-10.365103320841056L105.03733333333332,-6.2190648055955275L105.056,13.967000023188126L105.26133333333334,79.17395001391289L105.28,118.29812000834771L105.7,106.3757455984632L105.79333333333334,134.61919735907793L106.092,116.1683920089013L106.13866666666667,87.39947411188622L106.20400000000001,117.33395521255596L106.57733333333333,105.79724672098816L106.61466666666666,110.67418101428987L107.212,137.19825860857392L107.408,153.11270516514435L107.66,127.26449669254117L107.89333333333335,105.85609455213074L108.44399999999999,134.30740673127846L108.48133333333334,151.37819403876708L108.77066666666667,161.62066642326025L109.33066666666667,120.57031581735009L109.704,119.53802247210703L110.068,71.72281067017335L110.18,113.827436402104L110.19866666666667,127.29125333211088L110.264,111.7716255927211L110.404,96.56037189223872L110.57199999999999,128.72997313534324L110.70266666666666,148.03173388120595L110.824,130.1153944953902L110.87066666666668,148.86298669723413L110.964,160.1115420183405L111.608,166.8606752110043L112.37333333333333,129.61380166320862L112.45733333333334,54.17036292471306L112.54133333333333,103.29596775482784L112.63466666666666,132.77133065289672L112.88666666666667,150.456548391738L113.61466666666666,161.06767903504283L113.624,167.4343574210257L113.81066666666666,171.2543644526154L113.92266666666666,79.15470059835714L113.99733333333333,76.99021689562034L114.38,105.18892162822068L114.38933333333334,104.40970714359909L114.55733333333333,103.94217845282611L114.94,85.9632230350896L115.04266666666666,75.1758497844477L115.164,115.89925987066863L115.28533333333334,99.03695245900722L115.444,100.71852564207101L115.696,131.22486538524262L115.78933333333333,96.43335813769099L115.91066666666666,128.65376488261458L116.19999999999999,147.98600892956875L116.20933333333333,159.58535535774126L116.21866666666666,166.54496321464475L116.312,170.72072792878686L116.43333333333334,173.2261867572721L116.48933333333332,174.72946205436327L116.61999999999999,175.63142723261794L117.27333333333334,176.17260633957076L117.52533333333334,176.49731380374246L117.81466666666667,176.69213828224548L117.97333333333333,176.8090329693473L118.46799999999999,123.78385868815381L118.62666666666668,145.06406521289227L118.692,128.33479329440203L119.19600000000001,147.7946259766412L119.29866666666666,118.17417212259078L119.87733333333333,141.69825327355449L119.90533333333335,108.61686792752661L119.91466666666668,135.96387075651597L120.372,152.37207245390957L120.83866666666667,44.22741013901241L120.89466666666667,2.938528010195314L120.90400000000001,48.95894978781415L120.96,29.375367059597643L121.36133333333333,5.826263308970666L121.52,-55.49903649437519L121.92133333333334,37.494328103374905L122.03333333333333,93.29034686202495L122.24799999999999,32.37629004400285L122.416,90.21952402640171L122.59333333333333,124.92546441584102L122.68666666666667,104.45267518611065L122.70533333333333,127.56587585709063L123.284,147.33327551425438L123.37733333333333,159.19371530855264L123.44266666666667,113.214668091677L123.63866666666667,138.7225508550062L123.88133333333333,154.02728051300372L124.544,163.21011830780222L125.05733333333333,156.92086247552982L125.79466666666666,111.85095639186332L126.22399999999999,90.70848979851195L126.23333333333332,125.21884387910718L126.28,140.02557707288855L126.35466666666666,154.8090962437331L126.52266666666668,134.18181191290654L126.896,98.20752605428935L127.12,129.7182656325736L127.176,95.52939828608962L127.18533333333333,128.11138897165378L127.50266666666666,147.66058338299226L127.60533333333333,106.2947889363408L127.96000000000001,134.57062336180448L127.99733333333333,151.5361240170827L128.05333333333334,120.41907094685565L128.12800000000001,143.0451925681134L129.09866666666667,127.12346970753471L129.108,58.5756443245208L129.696,76.44174076137915L129.78933333333333,51.76452221694872L129.836,101.85246333016923L130.15333333333334,120.10626948895002L130.20000000000002,142.85751169337001L130.3213333333333,121.11138060947658L130.34,137.56109911111017L130.928,153.3304094666661L131.33866666666668,145.09355747672694L131.41333333333333,157.84988448603616L131.72133333333332,165.5036806916217L132.51466666666667,93.40273206139722L132.888,126.83538923683832L133.07466666666667,105.59863007870905L133.15866666666668,63.35917523413453L133.35466666666667,85.2113381221777L133.644,121.92055287330662L133.66266666666667,102.64972826059002L133.7,132.383586956354L133.89600000000002,150.2239021738124L133.924,160.92809130428745L133.96133333333333,167.35060478257247L134.11066666666667,129.90775940614952L134.19466666666668,148.7384056436897L134.25066666666666,160.03679338621384L134.932,125.51947256833434L135.09066666666666,16.316889061243074L135.604,80.58388343674585L136.06133333333332,42.45085370847171L136.612,7.77207472508301L136.98533333333333,57.7585566317771L137.02266666666668,70.05200757252081L137.312,112.82495454351249L137.54533333333333,132.58924347153172L137.88133333333334,85.45302384304026L138.17066666666668,122.06556430582415L138.18933333333334,138.13360932891874L138.30133333333333,112.37756213395728L138.656,138.22028728037435L138.768,153.72592236822462L139.02933333333334,163.02930342093478L139.06666666666666,139.11393621922753L139.08533333333335,65.7699242315365L139.28133333333332,110.25570453892189L139.29066666666668,125.14821421420164L139.43066666666667,110.48580212197552L139.54266666666666,119.3867930699126L139.79466666666667,130.62686733279605L139.81333333333333,84.27559815979885L139.832,97.76119187757627L140.52266666666668,111.75202692327304L140.96133333333333,67.05121334087293L141.4,22.53229050452375L141.96,84.31312430271426L142.65066666666667,121.38162458162856L142.73466666666667,102.32637128558318L143.36,108.59165575304688L143.7613333333333,65.15499063873726L143.79866666666666,80.38934854990902L143.95733333333334,42.33413277636961L144.16266666666667,48.998395629215736L144.424,100.19278737752944L144.46133333333333,77.81411133306311L144.65733333333336,117.48221679983787L144.77866666666668,141.28308007990273L144.9093333333333,137.8651598446689L145.02133333333333,153.51284590680135L145.03066666666666,162.9014575440808L145.13333333333333,168.53462452644848L145.544,142.41712888253576L146.44,156.24402732952146L146.804,135.04277056437954L147.01866666666666,151.81941233862773L147.12133333333333,161.88539740317663L147.52266666666668,167.92498844190598L147.94266666666667,171.54874306514358L148.30666666666664,173.72299583908614L148.58666666666664,139.63067109690624L148.93200000000002,107.37631862153768L149.55733333333333,135.21954117292262L149.65066666666667,110.62912124035962L149.81866666666667,119.47278454094305L149.89333333333335,124.7789825212931L150.17333333333335,145.6611395127759L150.5,128.6930378743322L150.67733333333334,148.0095727245993L150.696,159.59949363475957L150.724,166.55344618085576L150.84533333333331,141.22842187518012L151.368,155.53080312510806L151.55466666666666,164.11223187506485L152.17066666666668,133.86421271849346L152.44133333333332,133.41383942782335L152.60933333333335,115.44517725014856L152.992,122.36241814681642L153.23466666666667,144.21120088808985L153.74800000000002,157.3204705328539L153.832,112.09072122625777L154.07466666666667,55.455475808966774L154.448,80.46911846707704L154.97066666666666,60.080429413579566L155.07333333333332,77.34461181481439L155.204,117.20051708888865L155.32533333333333,141.11406025333318L155.49333333333334,149.56270689742414L155.67066666666668,160.5313741384545L155.77333333333334,167.11257448307268L155.82933333333332,123.86546065323756L155.94133333333332,103.81667292854857L156.1,133.08375375712916L156.42666666666665,97.54869116082291L156.492,29.031816050069523L157.27599999999998,46.91648616664778L157.32266666666666,98.94364169998866L157.388,130.1599350199932L157.44400000000002,148.88971101199593L157.74266666666668,160.12757660719757L157.752,113.77498487086395L157.79866666666666,109.56134508918505L157.92933333333335,107.03316122017769L158.00400000000002,135.01364673210662L158.01333333333335,104.6061040026579L158.62933333333334,133.55741240159475L158.648,127.33028042265383L159.012,99.99608421698625L159.404,130.79140053019174L159.83333333333331,149.26859031811506L160.03866666666667,160.35490419086904L160.97199999999998,167.00669251452143L161.112,170.99776550871286L161.27066666666664,84.9002218052277L161.34533333333334,68.63857198968205L161.66266666666667,111.97689319380923L161.96133333333333,137.97988591628555L162.08266666666665,153.58168154977133L162.11999999999998,121.64640546646885L162.4093333333333,126.08315507660859L162.61466666666666,146.44364304596516L162.652,158.6599358275791L162.792,165.98971149654747L163.5293333333333,170.38757689792848L163.95866666666666,119.93098504530252L163.968,89.65702993372696L164.00533333333334,124.58796796023617L164.26666666666668,98.35069673953564L164.37866666666665,129.80416804372138L164.472,148.67625082623283L164.50933333333333,159.9995004957397L164.64,166.79345029744383L164.78,129.57346671507236L164.9946666666667,48.24668138261918L165.07866666666666,99.74175882957152L165.20933333333332,124.73932604316717L166.32,92.54203453244573L166.46933333333334,85.02261725607349L166.6,121.80732035364409L166.73066666666668,143.87814221218645L166.81466666666665,127.62323949397855L167.08533333333332,141.46821444181137L167.2626666666667,61.28301059187471L167.412,89.86511815185212L167.468,59.818548651232476L167.608,106.6848791907395L167.664,105.30728168111037L167.92533333333333,92.68176554527226L167.944,91.00593292061791L169.04533333333333,78.20147571576469L169.26000000000002,117.71463542945882L169.30666666666667,70.62877844458441L169.58666666666667,113.17101706675064L169.99733333333333,138.69636024005038L170.0906666666667,53.72041749760601L170.34266666666664,-56.25993981452731L170.44533333333334,-16.05752498217096L170.75333333333333,43.460796807424714L170.828,67.3728322511215L171.00533333333334,111.2174493506729L171.108,90.32838557379769L171.5,124.99078134427862L171.948,57.296031306567144L171.95733333333334,105.1713687839403L172.80666666666667,74.90177960369749L172.984,74.43846429882456L173.0773333333333,115.45682857929474L173.39466666666667,98.77149368418287L173.66533333333334,94.65976980396431L173.77733333333333,33.19794380916646L173.852,90.71251628549989L174.412,42.628552844512015L174.42133333333334,84.57192319755569L174.888,74.34106988192737L174.916,74.10203846576248L174.9346666666667,115.25497307945749L174.99066666666667,92.75089981106844L175.60666666666665,79.248455850035L175.91466666666665,82.94594710347556L176.344,55.667046022206556L176.52133333333333,80.59606059502092L176.54933333333332,77.8550328936186L176.67066666666668,117.50676973617117L177.23066666666668,46.906143768490594L177.856,98.93743626109436L178.31333333333333,94.75933535011119L178.332,115.8503927009152L178.42533333333333,134.40450636597336L178.75199999999998,151.43645381958402L178.836,161.6556222917504L179.508,150.0886851717775L179.54533333333333,160.84696110306652L180.08666666666667,120.10609262523386L180.4693333333333,142.85740557514032L180.7493333333333,144.70923483593268L180.76799999999997,157.6192909015596L180.89866666666666,165.36532454093577L180.92666666666668,105.11867248468268L181.15066666666667,133.86495349080963L181.524,127.51480507618274L181.56133333333332,147.30263304570965L182.03733333333332,129.67793399409243L182.16799999999998,148.60051039645546L182.52266666666668,112.75822220126723L182.55066666666667,138.44868332076035L182.72799999999998,106.66712595585014L183.13866666666667,134.79402557351008L183.19466666666668,133.97172714083334L183.204,62.6845987845L183.35333333333335,108.4045092707L183.46533333333332,112.23853854411698L184.15599999999998,132.23739387189443L184.1746666666667,102.94035228653061L184.352,79.46265027846378L184.47333333333336,18.18019152065406L184.56666666666666,28.60655381893789L184.64133333333334,87.95768229136273L185.696,123.56835937481765L185.96666666666667,115.43736979155724L186.04133333333334,92.86033783832829L186.82533333333333,108.81151449972424L186.89066666666668,136.08065869983454L187.2733333333333,99.34683412644617L187.77733333333333,83.20601643926165L187.91733333333335,114.81788060898123L187.92666666666668,139.68447836538874L188.06666666666666,154.60443701923325L188.28133333333332,86.86318585796415L188.44,87.51478510823306L188.524,123.30262106493984L188.84133333333332,103.47896917556997L189.12133333333333,91.58477804194803L189.18666666666667,125.74461682516883L189.616,146.2405200951013L190.07333333333332,134.94014503875775L190.16666666666669,69.16513009646675L190.232,94.59438985460733L190.24133333333333,80.35454987615833L190.27866666666665,71.81064588908895L190.64266666666666,113.88013753345336L190.74533333333335,91.92599848346596L190.904,125.94934909007958L191.01600000000002,146.36335945404775L191.39866666666666,87.81801285933776L191.42666666666665,76.2887236789966L191.67866666666666,69.37115017079189L191.744,88.81852308417213L191.94933333333333,82.78851038710931L192.09866666666667,43.77362987868981L192.17333333333335,32.163655687335115L192.36933333333334,60.59454757906774L192.48133333333334,107.15047854744066L192.55599999999998,87.88820309185834L192.59333333333333,123.52667185511501L192.63066666666666,91.81444201961443L193.28400000000002,43.289708284980755L193.928,96.76757497098845L194.45066666666668,111.15585677932035L194.572,31.296641880683076L195.12266666666665,36.4764240349553L195.13199999999998,92.67960442097318L195.244,126.40151265258392L195.356,64.04195066476244L195.496,67.92256693546351L195.58933333333334,111.54729016127811L195.72,108.22472826343353L195.84133333333335,135.72858695806013L195.92533333333333,152.23090217483607L196.224,162.13229130490166L196.8213333333333,168.073124782941L197.10133333333332,124.44179083315852L197.148,145.45882449989512L197.15733333333336,158.06904469993708L197.26933333333335,165.63517681996225L197.37199999999999,81.68266859197732L198.42666666666668,119.8033511551864L198.436,119.07784367480882L198.492,112.74306037155195L198.51999999999998,103.04270981638574L198.632,79.52406479637688L198.772,30.01600137782613L199.49066666666667,88.80335082669568L199.73333333333335,70.98044940256284L199.78933333333333,95.68358143826497L199.79866666666666,128.203898862959L200.35866666666666,112.31921291122995L200.60133333333334,108.68788191340464L201.02133333333333,136.00647914804279L201.04933333333332,105.20180345221961L201.25466666666668,57.22160571775597L201.60933333333332,105.12671343065358L201.7026666666667,80.7744669649376L201.74,119.25843017896256L201.74933333333334,142.34880810737755L202.636,85.40928205133564L202.65466666666666,110.24036072164986L202.70133333333334,72.04369419311115L203.28,114.01996651586668L203.66266666666667,92.00989587291396L204.12933333333334,67.0048958570817L204.20399999999998,110.99668751424902L204.344,90.19592847194338L204.43733333333333,89.51443067662058L204.47466666666665,112.70344989682084L204.60533333333333,108.91842410475917L205.02533333333332,124.345845953704L205.10933333333335,145.4012575722224L205.33333333333331,69.54231704333343L205.36133333333333,100.72018171684854L205.78133333333332,131.22585903010915L206.444,149.52926541806548L206.59333333333333,125.11443284429386L206.78933333333333,145.8624097065763L206.85466666666667,158.31119582394578L207.228,165.78046749436746L207.80666666666667,170.2620304966205L207.82533333333333,172.95096829797228L208.53466666666668,174.56433097878337L208.72133333333332,104.73859577417915L209.03866666666667,98.24003105796204L209.188,129.7377686347772L209.29066666666665,95.54110008741179L209.70133333333334,80.922576015841L209.84133333333332,78.05094214611064L209.85066666666665,58.62952362099972L209.888,70.57458776605439L210.00933333333333,71.8421491962387L210.14933333333335,78.50216311119777L210.71866666666668,76.59869440332471L211.06400000000002,116.75296664199483L211.26933333333332,99.54917652180295L212.92133333333334,130.52325591308175L213.11733333333333,149.10770354784907L213.39733333333334,160.25837212870942L213.696,84.35606635043777L213.78,68.31207871680809L213.95733333333334,111.78099723008485L214.12533333333334,137.86234833805094L214.536,153.51115900283057L214.61999999999998,162.90044540169833L214.80666666666667,168.534017241019L215.012,171.9141603446114L215.2266666666667,173.94224620676684L215.38533333333334,175.1590977240601L215.41333333333333,175.88920863443607L215.44133333333332,152.7293581623586L215.7866666666667,68.03969682420305L216.04799999999997,111.61756809452184L216.216,90.56845682010706L216.23466666666667,42.54211716527632L217.00933333333333,96.31902029916577L217.112,128.58516217949946L217.364,147.9448473076997L217.60666666666665,159.5606583846198L217.84,166.5301450307719L217.868,170.71183701846314L218.85733333333332,120.12554111762331L218.8946666666667,142.86907467057398L219.03466666666668,115.21884133895043L219.05333333333334,139.92505480337024L219.1,154.74878288202214L219.15599999999998,140.04510271091027L219.27733333333333,154.82081162654615L219.352,69.29456890271558L219.688,71.0741378782354L219.83733333333333,54.44344106027457L220.50933333333333,56.263980599558714L220.55599999999998,104.55213835973522L220.76133333333334,133.52503301584113L220.78,150.9087698095047L220.89200000000002,143.64057368243007L220.96666666666667,156.97809420945805L221.02266666666665,164.98060652567483L221.26533333333333,169.78211391540492L221.30266666666665,172.66301834924295L221.52666666666667,91.79885408275786L221.62933333333334,125.87306244965471L221.844,110.92071106324738L221.956,84.25086554449386L222.25466666666665,121.3442693266963L222.8706666666667,102.30395813262383L222.992,102.67872904624096L223.26266666666666,120.60202891859308L223.36533333333333,95.9591333145498L223.692,87.07287652533591L223.79466666666667,105.33903771192882L224.784,104.49977679382395L224.80266666666665,98.09673966974893L224.88666666666668,129.65179380184935L224.924,119.08743044777628L224.93333333333334,106.84933186212031L224.99866666666665,134.9033491172722L225.14800000000002,151.73575947036332L225.19466666666668,161.83520568221797L225.624,167.89487340933078L225.66133333333332,171.53067404559846L225.68,108.8178821874803L226.044,112.48656229418516L226.072,108.78829154317776L226.20266666666666,94.7703714625127L226.93066666666667,92.25909647096218L226.99599999999998,73.05389678912275L227.23866666666666,67.4302540368676L229.2733333333333,28.659195495332664L229.49733333333333,40.793433260593545L229.74,95.26980995635613L229.74933333333334,68.96084430714701L229.95466666666667,82.67286075095487L230.048,73.20163241396688L230.19733333333335,114.71472944838011L230.41199999999998,86.52727657557352L230.82266666666666,81.41376248195014L231.23333333333332,84.24513108262464L231.32666666666668,115.44134939499904L231.34533333333334,104.66168323045399L231.41066666666666,45.09857243827236L231.55066666666664,97.85289346296342L232.21333333333334,46.91277915099016L232.232,34.04714525071533L232.57733333333334,91.22203715042923L233.02533333333335,125.52697229025752L233.22133333333332,146.10993337415454L233.48266666666666,105.36439893103814L233.55733333333333,39.62072128541077L233.65066666666667,94.56618277124649L233.97733333333335,127.53345966274787L234.32266666666666,147.31382579764872L234.70533333333336,76.58933855180133L234.836,87.24995729774747L235.2373333333333,75.94789034204243L235.5173333333333,116.36248420522546L235.74133333333333,140.61124052313528L235.96533333333332,102.0651832204266L235.97466666666668,132.03285993225597L236.97333333333336,132.31502775608084L237.28133333333335,150.1827666536485L237.53333333333336,113.70757595558305L237.86,109.52089974001649L237.916,136.5062898440099L237.95333333333332,152.69752390640593L238.51333333333332,162.41226434384356L238.56,168.24110860630614L238.68133333333336,71.44726651735945L238.896,101.86315140126416L239.008,131.9116408407585L239.71733333333333,149.9407345044551L240.0906666666667,160.75819070267306L240.464,167.24866442160385L240.492,171.1429486529623L240.79999999999998,120.38420809832282L241.00533333333334,137.12479560441793L241.09866666666667,153.06862736265077L241.39733333333334,115.4390923809844L241.54666666666668,98.76085196519668L241.80800000000002,88.75390771572407L241.81733333333335,76.85026059282839L242.68533333333335,116.90390635569703L243.04,123.23765561014551L243.51600000000002,144.7363433660873L243.53466666666668,157.63555601965237L243.87066666666666,124.07873014839747L244.03866666666667,145.2409880890385L244.06666666666666,87.14459004033222L244.72,123.08050402419933L245.15866666666668,144.6420524145196L245.448,157.57898144871177L245.644,124.04478540583311L246.12933333333334,98.02478720689379L246.66133333333335,94.21174591759085L246.904,127.32079755055452L247.59466666666665,99.99039449372665L247.69733333333335,83.59215265962995L247.72533333333334,97.35112457747492L248.00533333333334,64.31015250660619L248.06133333333335,103.48036224938795L248.4813333333333,132.88196734963276L249.40533333333335,150.52293040977966L249.97466666666668,125.71063183932236L250.19866666666667,128.5216909003207L250.25466666666668,124.30884752188939L250.45066666666665,115.8816626798003L250.67466666666667,99.02639414448625L250.88,130.20958648669173L251.00133333333332,84.02522965213626L251.412,121.20888779128177L251.72933333333333,143.51908267476907L251.76666666666668,156.90519960486145L251.92533333333336,164.93686976291687L251.94400000000002,169.75587185775012L253.00799999999998,84.15508561465005L253.19466666666668,-2.6022555050282183L253.28799999999998,45.63447967868006L253.52133333333333,27.380684994117154L253.9226666666667,81.32268174189454L254.05333333333334,19.296210398712514L254.18400000000003,82.37147623922752L254.42666666666665,120.21663574353653L254.51066666666668,142.9237314461219L254.94933333333333,115.2516354042792L254.98666666666665,92.74889720596147L255.08,126.44308832357687L255.18266666666668,146.65960299414613L255.22,158.78951179648766L255.248,142.46954005958958L255.3226666666667,120.8785976292083L255.51866666666666,78.4266363376462L255.58399999999997,117.84973180258773L255.78,141.50358908155263L256.1066666666667,108.50006941232553L256.29333333333335,135.89379164739532L256.312,152.3300249884372L256.47066666666666,132.69436915972898L256.60133333333334,120.91297566250407L256.66666666666663,125.64309719422972" fill="none"></path></g></g></g></g><g opacity="0.2"><g><g><g><path style="fill: none;" stroke="rgb(255, 112, 67)" stroke-width="2.666667px" d="M23.520000000000003,176.984375L23.790666666666667,176.984375L23.930666666666667,176.984375L23.94,176.984375L24.182666666666666,176.984375L24.313333333333333,176.984375L24.350666666666665,-0.000007032727214879159L24.546666666666667,147.4869787271212L24.882666666666665,176.984375L24.95733333333333,-58.994795183030284L25.134666666666664,176.984375L25.62933333333333,176.984375L25.769333333333332,176.984375L25.983999999999998,176.984375L26.32933333333333,176.984375L26.768,176.984375L26.954666666666668,132.7382794918182L27.104,176.984375L27.225333333333335,73.74349134151512L27.430666666666664,103.24088541666666L27.692,176.984375L27.785333333333334,176.984375L27.84133333333333,44.246097266363584L28.112000000000002,176.984375L28.326666666666668,176.984375L28.37333333333333,29.497395833333325L28.392,-58.994795183030284L28.541333333333334,176.984375L28.91466666666667,117.98958245424242L29.29733333333333,176.984375L29.35333333333333,117.98958245424242L29.362666666666666,73.74349134151512L29.493333333333332,176.984375L29.651999999999997,29.497395833333325L30.482666666666667,-44.24609375L30.585333333333335,176.984375L30.856,176.984375L31.35066666666667,147.4869787271212L31.43466666666667,-206.48175676787895L31.621333333333332,-88.49218046727283L32.144,176.984375L32.676,176.984375L32.82533333333333,-73.74349661606057L32.928,162.23567686356063L33.03066666666667,176.984375L33.208,-0.000007032727214879159L33.348,73.74349134151512L33.721333333333334,-29.49739231696976L33.852,176.984375L33.91733333333333,162.23567686356063L34.104,-117.98958333333334L34.216,176.984375L34.309333333333335,147.4869787271212L34.328,14.748694400303066L34.40266666666667,176.984375L34.72,73.74349134151512L35.037333333333336,73.74349134151512L35.056000000000004,58.99478990848486L35.083999999999996,-29.49739231696976L35.17733333333334,88.4921839836364L35.214666666666666,176.984375L35.718666666666664,-0.000007032727214879159L35.90533333333333,176.984375L36.19466666666667,-14.748690883939478L36.57733333333333,176.984375L36.95066666666667,-58.994795183030284L36.96,73.74349134151512L37.29600000000001,73.74349134151512L37.44533333333334,176.984375L37.473333333333336,-103.24088190030307L37.800000000000004,176.984375L37.828,176.984375L37.958666666666666,162.23567686356063L38.248,73.74349134151512L38.53733333333333,58.99478990848486L38.612,117.98958245424242L38.93866666666667,176.984375L39.07866666666667,176.984375L39.23733333333333,176.984375L39.256,-44.24609375L39.32133333333333,176.984375L39.937333333333335,-103.24088190030307L40.590666666666664,103.24088541666666L40.712,-147.48698619939387L41.076,176.984375L41.16933333333333,44.246097266363584L41.45866666666667,176.984375L41.64533333333333,-44.24609375L41.654666666666664,29.497395833333325L41.82266666666667,162.23567686356063L42.672000000000004,176.984375L42.756,176.984375L42.849333333333334,-14.748690883939478L42.952000000000005,147.4869787271212L43.96933333333333,132.7382794918182L44.996,176.984375L45.36933333333334,-250.72787864878774L46.088,-73.74349661606057L46.13466666666667,176.984375L46.256,176.984375L46.33066666666667,176.984375L46.358666666666664,176.984375L46.54533333333334,176.984375L46.71333333333333,-117.98958333333334L46.844,103.24088541666666L46.965333333333334,132.7382794918182L47.404,73.74349134151512L47.413333333333334,117.98958245424242L47.60933333333334,176.984375L47.870666666666665,176.984375L47.94533333333333,-294.97396536606055L48.02,176.984375L48.40266666666667,-58.994795183030284L48.486666666666665,176.984375L48.626666666666665,147.4869787271212L48.71066666666666,176.984375L48.86933333333334,44.246097266363584L48.92533333333333,88.4921839836364L49.04666666666667,-14.748690883939478L49.06533333333333,-0.000007032727214879159L49.18666666666667,58.99478990848486L49.34533333333333,176.984375L49.59733333333333,176.984375L49.80266666666667,117.98958245424242L49.896,176.984375L50.05466666666666,176.984375L50.99733333333334,29.497395833333325L51.1,176.984375L52.12666666666667,88.4921839836364L52.136,176.984375L52.32266666666666,176.984375L52.332,162.23567686356063L52.472,117.98958245424242L52.705333333333336,-132.7382671845456L53.20933333333333,176.984375L53.37733333333333,176.984375L53.601333333333336,-58.994795183030284L53.82533333333333,176.984375L53.85333333333333,176.984375L54.67466666666667,117.98958245424242L55.12266666666667,176.984375L55.65466666666667,176.984375L55.86,73.74349134151512L55.93466666666667,-0.000007032727214879159L56.01866666666667,176.984375L56.26133333333333,176.984375L56.63466666666667,58.99478990848486L56.66266666666667,132.7382794918182L56.952,-103.24088190030307L57.10133333333333,176.984375L57.455999999999996,176.984375L57.484,58.99478990848486L57.52133333333333,-250.72787864878774L57.586666666666666,-103.24088190030307L57.614666666666665,176.984375L57.792,176.984375L57.99733333333334,29.497395833333325L58.45466666666666,-117.98958333333334L58.650666666666666,117.98958245424242L59.266666666666666,-103.24088190030307L59.285333333333334,176.984375L59.77066666666666,176.984375L59.892,58.99478990848486L59.948,73.74349134151512L60.06,73.74349134151512L60.088,162.23567686356063L60.452000000000005,176.984375L60.797333333333334,162.23567686356063L60.9,176.984375L61.00266666666666,117.98958245424242L61.05866666666667,176.984375L61.123999999999995,58.99478990848486L61.46933333333333,58.99478990848486L61.702666666666666,73.74349134151512L61.81466666666667,176.984375L61.842666666666666,73.74349134151512L62.047999999999995,-0.000007032727214879159L62.37466666666667,-14.748690883939478L62.47733333333333,176.984375L62.804,88.4921839836364L63.084,-147.48698619939387L63.653333333333336,176.984375L63.74666666666666,73.74349134151512L64.92266666666667,-29.49739231696976L65.67866666666667,176.984375L65.716,58.99478990848486L65.94933333333334,73.74349134151512L66.39733333333334,73.74349134151512L66.74266666666666,176.984375L67.12533333333333,88.4921839836364L67.144,58.99478990848486L67.2,-44.24609375L67.284,-14.748690883939478L67.49866666666667,29.497395833333325L67.93733333333334,176.984375L68.45066666666666,-0.000007032727214879159L68.47866666666667,73.74349134151512L68.488,176.984375L68.56266666666667,88.4921839836364L68.91733333333333,176.984375L69.17866666666666,58.99478990848486L69.356,88.4921839836364L69.54266666666668,117.98958245424242L69.83200000000001,-29.49739231696976L70.756,162.23567686356063L70.84,-0.000007032727214879159L70.85866666666666,176.984375L71.25066666666667,14.748694400303066L71.288,14.748694400303066L71.428,29.497395833333325L71.45599999999999,162.23567686356063L71.46533333333333,-73.74349661606057L71.764,132.7382794918182L71.88533333333332,147.4869787271212L72.11866666666667,44.246097266363584L72.24000000000001,-29.49739231696976L72.38,-103.24088190030307L72.464,44.246097266363584L72.492,117.98958245424242L72.772,176.984375L72.996,-44.24609375L73.02399999999999,-103.24088190030307L73.39733333333334,176.984375L73.47200000000001,88.4921839836364L73.78,176.984375L74.17200000000001,-117.98958333333334L74.256,176.984375L74.30266666666665,176.984375L74.76933333333334,44.246097266363584L76.244,147.4869787271212L76.832,162.23567686356063L77.09333333333333,-44.24609375L77.308,44.246097266363584L77.78399999999999,132.7382794918182L78.10133333333333,103.24088541666666L78.22266666666667,117.98958245424242L78.86666666666667,58.99478990848486L78.94133333333333,117.98958245424242L79.17466666666667,14.748694400303066L79.324,-14.748690883939478L79.436,88.4921839836364L79.84666666666666,176.984375L80.388,44.246097266363584L80.59333333333333,-162.23567005060613L80.64,88.4921839836364L80.67733333333334,176.984375L81.452,176.984375L81.61999999999999,88.4921839836364L81.956,176.984375L82.152,88.4921839836364L82.45066666666666,58.99478990848486L82.46933333333332,176.984375L82.69333333333333,-0.000007032727214879159L82.70266666666667,-265.4765625L82.74933333333333,176.984375L82.796,14.748694400303066L83.76666666666668,176.984375L84.28,176.984375L84.448,132.7382794918182L84.49466666666667,-117.98958333333334L84.61600000000001,-73.74349661606057L84.66266666666667,132.7382794918182L84.812,176.984375L84.85866666666666,176.984375L84.94266666666667,58.99478990848486L85.092,58.99478990848486L85.63333333333334,44.246097266363584L86.072,14.748694400303066L86.16533333333334,88.4921839836364L86.352,176.984375L86.83733333333333,176.984375L87.21066666666667,176.984375L87.28533333333333,117.98958245424242L87.36933333333333,14.748694400303066L87.51866666666666,176.984375L87.90133333333334,117.98958245424242L87.92933333333333,117.98958245424242L88.03200000000001,-58.994795183030284L88.60133333333334,147.4869787271212L88.648,88.4921839836364L88.66666666666666,44.246097266363584L89.18933333333334,176.984375L89.77733333333333,176.984375L89.80533333333332,103.24088541666666L89.86133333333333,176.984375L90.216,176.984375L90.34666666666666,176.984375L90.61733333333333,-0.000007032727214879159L91.04666666666667,-73.74349661606057L91.24266666666668,44.246097266363584L91.56,176.984375L91.84,176.984375L91.98,176.984375L92.11066666666667,176.984375L92.64266666666666,73.74349134151512L92.74533333333333,88.4921839836364L92.75466666666667,-58.994795183030284L93.016,29.497395833333325L93.05333333333333,58.99478990848486L93.07199999999999,58.99478990848486L93.184,58.99478990848486L93.408,58.99478990848486L93.52000000000001,117.98958245424242L93.59466666666667,132.7382794918182L93.65066666666667,176.984375L93.75333333333333,88.4921839836364L93.828,176.984375L93.84666666666666,-29.49739231696976L94.22,-0.000007032727214879159L94.304,14.748694400303066L94.32266666666666,73.74349134151512L94.64,132.7382794918182L94.696,162.23567686356063L94.84533333333333,147.4869787271212L95.47066666666666,103.24088541666666L95.49866666666667,29.497395833333325L95.74133333333333,73.74349134151512L96.096,-0.000007032727214879159L96.10533333333333,14.748694400303066L96.348,176.984375L96.50666666666667,14.748694400303066L96.61866666666667,-58.994795183030284L96.66533333333334,73.74349134151512L97.03866666666667,73.74349134151512L97.09466666666667,176.984375L97.35600000000001,44.246097266363584L97.888,73.74349134151512L98.44800000000001,-73.74349661606057L98.74666666666667,176.984375L99.15733333333334,132.7382794918182L99.36266666666667,176.984375L99.53999999999999,88.4921839836364L99.54933333333332,58.99478990848486L99.81066666666666,176.984375L100.03466666666667,-14.748690883939478L100.156,176.984375L100.604,176.984375L100.73466666666667,176.984375L100.78133333333334,176.984375L101.304,88.4921839836364L101.40666666666668,117.98958245424242L101.53733333333332,176.984375L101.724,176.984375L101.85466666666667,-44.24609375L102.60133333333333,29.497395833333325L102.88133333333333,-44.24609375L103.13333333333334,176.984375L103.18933333333334,176.984375L103.27333333333334,176.984375L103.78666666666666,44.246097266363584L103.87066666666666,-88.49218046727283L104.16933333333333,117.98958245424242L104.20666666666666,29.497395833333325L104.496,-44.24609375L104.552,-0.000007032727214879159L104.72,44.246097266363584L104.776,-58.994795183030284L105.03733333333332,-0.000007032727214879159L105.056,44.246097266363584L105.26133333333334,176.984375L105.28,176.984375L105.7,88.4921839836364L105.79333333333334,176.984375L106.092,88.4921839836364L106.13866666666667,44.246097266363584L106.20400000000001,162.23567686356063L106.57733333333333,88.4921839836364L106.61466666666666,117.98958245424242L107.212,176.984375L107.408,176.984375L107.66,88.4921839836364L107.89333333333335,73.74349134151512L108.44399999999999,176.984375L108.48133333333334,176.984375L108.77066666666667,176.984375L109.33066666666667,58.99478990848486L109.704,117.98958245424242L110.068,-0.000007032727214879159L110.18,176.984375L110.19866666666667,147.4869787271212L110.264,88.4921839836364L110.404,73.74349134151512L110.57199999999999,176.984375L110.70266666666666,176.984375L110.824,103.24088541666666L110.87066666666668,176.984375L110.964,176.984375L111.608,176.984375L112.37333333333333,73.74349134151512L112.45733333333334,-58.994795183030284L112.54133333333333,176.984375L112.63466666666666,176.984375L112.88666666666667,176.984375L113.61466666666666,176.984375L113.624,176.984375L113.81066666666666,176.984375L113.92266666666666,-58.994795183030284L113.99733333333333,73.74349134151512L114.38,147.4869787271212L114.38933333333334,103.24088541666666L114.55733333333333,103.24088541666666L114.94,58.99478990848486L115.04266666666666,58.99478990848486L115.164,176.984375L115.28533333333334,73.74349134151512L115.444,103.24088541666666L115.696,176.984375L115.78933333333333,44.246097266363584L115.91066666666666,176.984375L116.19999999999999,176.984375L116.20933333333333,176.984375L116.21866666666666,176.984375L116.312,176.984375L116.43333333333334,176.984375L116.48933333333332,176.984375L116.61999999999999,176.984375L117.27333333333334,176.984375L117.52533333333334,176.984375L117.81466666666667,176.984375L117.97333333333333,176.984375L118.46799999999999,44.246097266363584L118.62666666666668,176.984375L118.692,103.24088541666666L119.19600000000001,176.984375L119.29866666666666,73.74349134151512L119.87733333333333,176.984375L119.90533333333335,58.99478990848486L119.91466666666668,176.984375L120.372,176.984375L120.83866666666667,-117.98958333333334L120.89466666666667,-58.994795183030284L120.90400000000001,117.98958245424242L120.96,-0.000007032727214879159L121.52,-147.48698619939387L121.92133333333334,176.984375L122.03333333333333,176.984375L122.24799999999999,-58.994795183030284L122.416,176.984375L122.59333333333333,176.984375L122.68666666666667,73.74349134151512L122.70533333333333,162.23567686356063L123.284,176.984375L123.37733333333333,176.984375L123.44266666666667,44.246097266363584L123.63866666666667,176.984375L123.88133333333333,176.984375L124.544,176.984375L125.05733333333333,147.4869787271212L125.79466666666666,44.246097266363584L126.22399999999999,58.99478990848486L126.23333333333332,176.984375L126.28,162.23567686356063L126.35466666666666,176.984375L126.52266666666668,103.24088541666666L126.896,44.246097266363584L127.12,176.984375L127.176,44.246097266363584L127.18533333333333,176.984375L127.50266666666666,176.984375L127.60533333333333,44.246097266363584L127.96000000000001,176.984375L127.99733333333333,176.984375L128.05333333333334,73.74349134151512L128.12800000000001,176.984375L129.09866666666667,103.24088541666666L129.108,-44.24609375L129.696,103.24088541666666L129.78933333333333,14.748694400303066L129.836,176.984375L130.15333333333334,147.4869787271212L130.20000000000002,176.984375L130.3213333333333,88.4921839836364L130.34,162.23567686356063L130.928,176.984375L131.33866666666668,132.7382794918182L131.41333333333333,176.984375L131.72133333333332,176.984375L132.51466666666667,-14.748690883939478L132.888,176.984375L133.07466666666667,73.74349134151512L133.15866666666668,-0.000007032727214879159L133.35466666666667,117.98958245424242L133.644,176.984375L133.66266666666667,73.74349134151512L133.7,176.984375L133.89600000000002,176.984375L133.924,176.984375L133.96133333333333,176.984375L134.11066666666667,73.74349134151512L134.19466666666668,176.984375L134.25066666666666,176.984375L134.932,73.74349134151512L135.09066666666666,-147.48698619939387L135.604,176.984375L136.06133333333332,-14.748690883939478L136.612,-44.24609375L136.98533333333333,132.7382794918182L137.02266666666668,88.4921839836364L137.312,176.984375L137.54533333333333,162.23567686356063L137.88133333333334,14.748694400303066L138.17066666666668,176.984375L138.18933333333334,162.23567686356063L138.30133333333333,73.74349134151512L138.656,176.984375L138.768,176.984375L139.02933333333334,176.984375L139.06666666666666,103.24088541666666L139.08533333333335,-44.24609375L139.28133333333332,176.984375L139.29066666666668,147.4869787271212L139.43066666666667,88.4921839836364L139.54266666666666,132.7382794918182L139.79466666666667,147.4869787271212L139.81333333333333,14.748694400303066L139.832,117.98958245424242L140.52266666666668,132.7382794918182L140.96133333333333,-0.000007032727214879159L141.4,-44.24609375L141.96,176.984375L142.65066666666667,176.984375L142.73466666666667,73.74349134151512L143.36,117.98958245424242L143.7613333333333,-0.000007032727214879159L143.79866666666666,103.24088541666666L143.95733333333334,-14.748690883939478L144.16266666666667,58.99478990848486L144.424,176.984375L144.46133333333333,44.246097266363584L144.65733333333336,176.984375L144.77866666666668,176.984375L144.9093333333333,132.7382794918182L145.02133333333333,176.984375L145.03066666666666,176.984375L145.13333333333333,176.984375L145.544,103.24088541666666L146.44,176.984375L146.804,103.24088541666666L147.01866666666666,176.984375L147.12133333333333,176.984375L147.52266666666668,176.984375L147.94266666666667,176.984375L148.30666666666664,176.984375L148.58666666666664,88.4921839836364L148.93200000000002,58.99478990848486L149.55733333333333,176.984375L149.65066666666667,73.74349134151512L149.81866666666667,132.7382794918182L149.89333333333335,132.7382794918182L150.17333333333335,176.984375L150.5,103.24088541666666L150.67733333333334,176.984375L150.696,176.984375L150.724,176.984375L150.84533333333331,103.24088541666666L151.368,176.984375L151.55466666666666,176.984375L152.17066666666668,88.4921839836364L152.44133333333332,132.7382794918182L152.60933333333335,88.4921839836364L152.992,132.7382794918182L153.23466666666667,176.984375L153.74800000000002,176.984375L153.832,44.246097266363584L154.07466666666667,-29.49739231696976L154.448,117.98958245424242L154.97066666666666,29.497395833333325L155.07333333333332,103.24088541666666L155.204,176.984375L155.32533333333333,176.984375L155.49333333333334,162.23567686356063L155.67066666666668,176.984375L155.77333333333334,176.984375L155.82933333333332,58.99478990848486L155.94133333333332,73.74349134151512L156.1,176.984375L156.42666666666665,44.246097266363584L156.492,-73.74349661606057L157.27599999999998,73.74349134151512L157.32266666666666,176.984375L157.388,176.984375L157.44400000000002,176.984375L157.74266666666668,176.984375L157.752,44.246097266363584L157.79866666666666,103.24088541666666L157.92933333333335,103.24088541666666L158.00400000000002,176.984375L158.01333333333335,58.99478990848486L158.62933333333334,176.984375L158.648,117.98958245424242L159.012,58.99478990848486L159.404,176.984375L159.83333333333331,176.984375L160.03866666666667,176.984375L160.97199999999998,176.984375L161.112,176.984375L161.27066666666664,-44.24609375L161.34533333333334,44.246097266363584L161.66266666666667,176.984375L161.96133333333333,176.984375L162.08266666666665,176.984375L162.11999999999998,73.74349134151512L162.4093333333333,132.7382794918182L162.61466666666666,176.984375L162.652,176.984375L162.792,176.984375L163.5293333333333,176.984375L163.95866666666666,44.246097266363584L163.968,44.246097266363584L164.00533333333334,176.984375L164.26666666666668,58.99478990848486L164.37866666666665,176.984375L164.472,176.984375L164.50933333333333,176.984375L164.64,176.984375L164.78,73.74349134151512L164.9946666666667,-73.74349661606057L165.07866666666666,176.984375L165.20933333333332,162.23567686356063L166.32,44.246097266363584L166.46933333333334,73.74349134151512L166.6,176.984375L166.73066666666668,176.984375L166.81466666666665,103.24088541666666L167.08533333333332,162.23567686356063L167.2626666666667,-58.994795183030284L167.412,132.7382794918182L167.468,14.748694400303066L167.608,176.984375L167.664,103.24088541666666L167.92533333333333,73.74349134151512L167.944,88.4921839836364L169.04533333333333,58.99478990848486L169.26000000000002,176.984375L169.30666666666667,-0.000007032727214879159L169.58666666666667,176.984375L169.99733333333333,176.984375L170.0906666666667,-73.74349661606057L170.34266666666664,-221.23047578272727L170.44533333333334,44.246097266363584L170.75333333333333,132.7382794918182L170.828,103.24088541666666L171.00533333333334,176.984375L171.108,58.99478990848486L171.5,176.984375L171.948,-44.24609375L171.95733333333334,176.984375L172.80666666666667,29.497395833333325L172.984,73.74349134151512L173.0773333333333,176.984375L173.39466666666667,73.74349134151512L173.66533333333334,88.4921839836364L173.77733333333333,-58.994795183030284L173.852,176.984375L174.412,-29.49739231696976L174.42133333333334,147.4869787271212L174.888,58.99478990848486L174.916,73.74349134151512L174.9346666666667,176.984375L174.99066666666667,58.99478990848486L175.60666666666665,58.99478990848486L175.91466666666665,88.4921839836364L176.344,14.748694400303066L176.52133333333333,117.98958245424242L176.54933333333332,73.74349134151512L176.67066666666668,176.984375L177.23066666666668,-58.994795183030284L177.856,176.984375L178.31333333333333,88.4921839836364L178.332,147.4869787271212L178.42533333333333,162.23567686356063L178.75199999999998,176.984375L178.836,176.984375L179.508,132.7382794918182L179.54533333333333,176.984375L180.08666666666667,58.99478990848486L180.4693333333333,176.984375L180.7493333333333,147.4869787271212L180.76799999999997,176.984375L180.89866666666666,176.984375L180.92666666666668,14.748694400303066L181.15066666666667,176.984375L181.524,117.98958245424242L181.56133333333332,176.984375L182.03733333333332,103.24088541666666L182.16799999999998,176.984375L182.52266666666668,58.99478990848486L182.55066666666667,176.984375L182.72799999999998,58.99478990848486L183.13866666666667,176.984375L183.19466666666668,132.7382794918182L183.204,-44.24609375L183.35333333333335,176.984375L183.46533333333332,117.98958245424242L184.15599999999998,162.23567686356063L184.1746666666667,58.99478990848486L184.352,44.246097266363584L184.47333333333336,-73.74349661606057L184.56666666666666,44.246097266363584L184.64133333333334,176.984375L185.696,176.984375L185.96666666666667,103.24088541666666L186.04133333333334,58.99478990848486L186.82533333333333,132.7382794918182L186.89066666666668,176.984375L187.2733333333333,44.246097266363584L187.77733333333333,58.99478990848486L187.91733333333335,162.23567686356063L187.92666666666668,176.984375L188.06666666666666,176.984375L188.28133333333332,-14.748690883939478L188.44,88.4921839836364L188.524,176.984375L188.84133333333332,73.74349134151512L189.12133333333333,73.74349134151512L189.18666666666667,176.984375L189.616,176.984375L190.07333333333332,117.98958245424242L190.16666666666669,-29.49739231696976L190.232,132.7382794918182L190.24133333333333,58.99478990848486L190.27866666666665,58.99478990848486L190.64266666666666,176.984375L190.74533333333335,58.99478990848486L190.904,176.984375L191.01600000000002,176.984375L191.39866666666666,-0.000007032727214879159L191.42666666666665,58.99478990848486L191.67866666666666,58.99478990848486L191.744,117.98958245424242L191.94933333333333,73.74349134151512L192.09866666666667,-14.748690883939478L192.17333333333335,14.748694400303066L192.36933333333334,103.24088541666666L192.48133333333334,176.984375L192.55599999999998,58.99478990848486L192.59333333333333,176.984375L192.63066666666666,44.246097266363584L193.28400000000002,-29.49739231696976L193.928,176.984375L194.45066666666668,132.7382794918182L194.572,-88.49218046727283L195.12266666666665,44.246097266363584L195.13199999999998,176.984375L195.244,176.984375L195.356,-29.49739231696976L195.496,73.74349134151512L195.58933333333334,176.984375L195.72,103.24088541666666L195.84133333333335,176.984375L195.92533333333333,176.984375L196.224,176.984375L196.8213333333333,176.984375L197.10133333333332,58.99478990848486L197.148,176.984375L197.15733333333336,176.984375L197.26933333333335,176.984375L197.37199999999999,-44.24609375L198.42666666666668,176.984375L198.436,117.98958245424242L198.492,103.24088541666666L198.51999999999998,88.4921839836364L198.632,44.246097266363584L198.772,-44.24609375L199.49066666666667,176.984375L199.73333333333335,44.246097266363584L199.78933333333333,132.7382794918182L199.79866666666666,176.984375L200.35866666666666,88.4921839836364L200.60133333333334,103.24088541666666L201.02133333333333,176.984375L201.04933333333332,58.99478990848486L201.25466666666668,-14.748690883939478L201.60933333333332,176.984375L201.7026666666667,44.246097266363584L201.74,176.984375L201.74933333333334,176.984375L202.636,-0.000007032727214879159L202.65466666666666,147.4869787271212L202.70133333333334,14.748694400303066L203.28,176.984375L203.66266666666667,58.99478990848486L204.12933333333334,29.497395833333325L204.20399999999998,176.984375L204.344,58.99478990848486L204.43733333333333,88.4921839836364L204.47466666666665,147.4869787271212L204.60533333333333,103.24088541666666L205.02533333333332,147.4869787271212L205.10933333333335,176.984375L205.33333333333331,-44.24609375L205.36133333333333,147.4869787271212L205.78133333333332,176.984375L206.444,176.984375L206.59333333333333,88.4921839836364L206.78933333333333,176.984375L206.85466666666667,176.984375L207.228,176.984375L207.80666666666667,176.984375L207.82533333333333,176.984375L208.53466666666668,176.984375L208.72133333333332,-0.000007032727214879159L209.03866666666667,88.4921839836364L209.188,176.984375L209.29066666666665,44.246097266363584L209.70133333333334,58.99478990848486L209.84133333333332,73.74349134151512L209.85066666666665,29.497395833333325L209.888,88.4921839836364L210.00933333333333,73.74349134151512L210.14933333333335,88.4921839836364L210.71866666666668,73.74349134151512L211.06400000000002,176.984375L211.26933333333332,73.74349134151512L212.92133333333334,176.984375L213.11733333333333,176.984375L213.39733333333334,176.984375L213.696,-29.49739231696976L213.78,44.246097266363584L213.95733333333334,176.984375L214.12533333333334,176.984375L214.536,176.984375L214.61999999999998,176.984375L214.80666666666667,176.984375L215.012,176.984375L215.2266666666667,176.984375L215.38533333333334,176.984375L215.41333333333333,176.984375L215.44133333333332,117.98958245424242L215.7866666666667,-58.994795183030284L216.04799999999997,176.984375L216.216,58.99478990848486L216.23466666666667,-29.49739231696976L217.00933333333333,176.984375L217.112,176.984375L217.364,176.984375L217.60666666666665,176.984375L217.84,176.984375L217.868,176.984375L218.85733333333332,44.246097266363584L218.8946666666667,176.984375L219.03466666666668,73.74349134151512L219.05333333333334,176.984375L219.1,176.984375L219.15599999999998,117.98958245424242L219.27733333333333,176.984375L219.352,-58.994795183030284L219.688,73.74349134151512L219.83733333333333,29.497395833333325L220.50933333333333,58.99478990848486L220.55599999999998,176.984375L220.76133333333334,176.984375L220.78,176.984375L220.89200000000002,132.7382794918182L220.96666666666667,176.984375L221.02266666666665,176.984375L221.26533333333333,176.984375L221.30266666666665,176.984375L221.52666666666667,-29.49739231696976L221.62933333333334,176.984375L221.844,88.4921839836364L221.956,44.246097266363584L222.25466666666665,176.984375L222.8706666666667,73.74349134151512L222.992,103.24088541666666L223.26266666666666,147.4869787271212L223.36533333333333,58.99478990848486L223.692,73.74349134151512L223.79466666666667,132.7382794918182L224.784,103.24088541666666L224.80266666666665,88.4921839836364L224.88666666666668,176.984375L224.924,103.24088541666666L224.93333333333334,88.4921839836364L224.99866666666665,176.984375L225.14800000000002,176.984375L225.19466666666668,176.984375L225.624,176.984375L225.66133333333332,176.984375L225.68,14.748694400303066L226.044,117.98958245424242L226.072,103.24088541666666L226.20266666666666,73.74349134151512L226.93066666666667,88.4921839836364L226.99599999999998,44.246097266363584L227.23866666666666,58.99478990848486L229.2733333333333,-29.49739231696976L229.49733333333333,58.99478990848486L229.74,176.984375L229.74933333333334,29.497395833333325L229.95466666666667,103.24088541666666L230.048,58.99478990848486L230.19733333333335,176.984375L230.41199999999998,44.246097266363584L230.82266666666666,73.74349134151512L231.23333333333332,88.4921839836364L231.32666666666668,162.23567686356063L231.34533333333334,88.4921839836364L231.41066666666666,-44.24609375L231.55066666666664,176.984375L232.21333333333334,-29.49739231696976L232.232,14.748694400303066L232.57733333333334,176.984375L233.02533333333335,176.984375L233.22133333333332,176.984375L233.48266666666666,44.246097266363584L233.55733333333333,-58.994795183030284L233.65066666666667,176.984375L233.97733333333335,176.984375L234.32266666666666,176.984375L234.70533333333336,-29.49739231696976L234.836,103.24088541666666L235.2373333333333,58.99478990848486L235.5173333333333,176.984375L235.74133333333333,176.984375L235.96533333333332,44.246097266363584L235.97466666666668,176.984375L236.97333333333336,132.7382794918182L237.28133333333335,176.984375L237.53333333333336,58.99478990848486L237.86,103.24088541666666L237.916,176.984375L237.95333333333332,176.984375L238.51333333333332,176.984375L238.56,176.984375L238.68133333333336,-73.74349661606057L238.896,147.4869787271212L239.008,176.984375L239.71733333333333,176.984375L240.0906666666667,176.984375L240.464,176.984375L240.492,176.984375L240.79999999999998,44.246097266363584L241.00533333333334,162.23567686356063L241.09866666666667,176.984375L241.39733333333334,58.99478990848486L241.54666666666668,73.74349134151512L241.80800000000002,73.74349134151512L241.81733333333335,58.99478990848486L242.68533333333335,176.984375L243.04,132.7382794918182L243.51600000000002,176.984375L243.53466666666668,176.984375L243.87066666666666,73.74349134151512L244.03866666666667,176.984375L244.06666666666666,-0.000007032727214879159L244.72,176.984375L245.15866666666668,176.984375L245.448,176.984375L245.644,73.74349134151512L246.12933333333334,58.99478990848486L246.66133333333335,88.4921839836364L246.904,176.984375L247.59466666666665,58.99478990848486L247.69733333333335,58.99478990848486L247.72533333333334,117.98958245424242L248.00533333333334,14.748694400303066L248.06133333333335,162.23567686356063L248.4813333333333,176.984375L249.40533333333335,176.984375L249.97466666666668,88.4921839836364L250.19866666666667,132.7382794918182L250.25466666666668,117.98958245424242L250.45066666666665,103.24088541666666L250.67466666666667,73.74349134151512L250.88,176.984375L251.00133333333332,14.748694400303066L251.412,176.984375L251.72933333333333,176.984375L251.76666666666668,176.984375L251.92533333333336,176.984375L251.94400000000002,176.984375L253.00799999999998,-44.24609375L253.19466666666668,-132.7382671845456L253.28799999999998,117.98958245424242L253.52133333333333,-0.000007032727214879159L253.9226666666667,162.23567686356063L254.05333333333334,-73.74349661606057L254.18400000000003,176.984375L254.42666666666665,176.984375L254.51066666666668,176.984375L254.94933333333333,73.74349134151512L254.98666666666665,58.99478990848486L255.08,176.984375L255.18266666666668,176.984375L255.22,176.984375L255.248,117.98958245424242L255.3226666666667,88.4921839836364L255.51866666666666,14.748694400303066L255.58399999999997,176.984375L255.78,176.984375L256.1066666666667,58.99478990848486L256.29333333333335,176.984375L256.312,176.984375L256.47066666666666,103.24088541666666L256.60133333333334,103.24088541666666L256.66666666666663,132.7382794918182" fill="none"></path></g></g></g></g></g></g><g transform="translate(50, 176)" clip-path="url(#clip_1)"><clipPath id="clip_1"><rect width="280" height="23"></rect></clipPath><g><g><line x1="0" y1="0" x2="0" y2="5" style="visibility: inherit;" fill="rgb(0, 0, 0)" stroke="rgb(204, 204, 204)" stroke-width="1.333333px"></line><line x1="23.333333333333332" y1="0" x2="23.333333333333332" y2="5" style="visibility: inherit;" fill="rgb(0, 0, 0)" stroke="rgb(204, 204, 204)" stroke-width="1.333333px"></line><line x1="46.666666666666664" y1="0" x2="46.666666666666664" y2="5" style="visibility: inherit;" fill="rgb(0, 0, 0)" stroke="rgb(204, 204, 204)" stroke-width="1.333333px"></line><line x1="70" y1="0" x2="70" y2="5" style="visibility: inherit;" fill="rgb(0, 0, 0)" stroke="rgb(204, 204, 204)" stroke-width="1.333333px"></line><line x1="93.33333333333333" y1="0" x2="93.33333333333333" y2="5" style="visibility: inherit;" fill="rgb(0, 0, 0)" stroke="rgb(204, 204, 204)" stroke-width="1.333333px"></line><line x1="116.66666666666667" y1="0" x2="116.66666666666667" y2="5" style="visibility: inherit;" fill="rgb(0, 0, 0)" stroke="rgb(204, 204, 204)" stroke-width="1.333333px"></line><line x1="140" y1="0" x2="140" y2="5" style="visibility: inherit;" fill="rgb(0, 0, 0)" stroke="rgb(204, 204, 204)" stroke-width="1.333333px"></line><line x1="163.33333333333334" y1="0" x2="163.33333333333334" y2="5" style="visibility: inherit;" fill="rgb(0, 0, 0)" stroke="rgb(204, 204, 204)" stroke-width="1.333333px"></line><line x1="186.66666666666666" y1="0" x2="186.66666666666666" y2="5" style="visibility: inherit;" fill="rgb(0, 0, 0)" stroke="rgb(204, 204, 204)" stroke-width="1.333333px"></line><line x1="210" y1="0" x2="210" y2="5" style="visibility: inherit;" fill="rgb(0, 0, 0)" stroke="rgb(204, 204, 204)" stroke-width="1.333333px"></line><line x1="233.33333333333334" y1="0" x2="233.33333333333334" y2="5" style="visibility: inherit;" fill="rgb(0, 0, 0)" stroke="rgb(204, 204, 204)" stroke-width="1.333333px"></line><line x1="256.66666666666663" y1="0" x2="256.66666666666663" y2="5" style="visibility: inherit;" fill="rgb(0, 0, 0)" stroke="rgb(204, 204, 204)" stroke-width="1.333333px"></line><line x1="280" y1="0" x2="280" y2="5" style="visibility: inherit;" fill="rgb(0, 0, 0)" stroke="rgb(204, 204, 204)" stroke-width="1.333333px"></line></g><g transform="translate(0, 8)"><text style="text-anchor: middle; visibility: hidden; font-family: Roboto, sans-serif; font-size: 16px; font-weight: 200;" x="0" y="0" dx="0em" dy="0.95em" fill="rgb(33, 33, 33)" stroke="none" stroke-width="1.333333px">-10k</text><text style="text-anchor: middle; visibility: inherit; font-family: Roboto, sans-serif; font-size: 16px; font-weight: 200;" x="23.333333333333332" y="0" dx="0em" dy="0.95em" fill="rgb(33, 33, 33)" stroke="none" stroke-width="1.333333px">0</text><text style="text-anchor: middle; visibility: hidden; font-family: Roboto, sans-serif; font-size: 16px; font-weight: 200;" x="46.666666666666664" y="0" dx="0em" dy="0.95em" fill="rgb(33, 33, 33)" stroke="none" stroke-width="1.333333px">10k</text><text style="text-anchor: middle; visibility: inherit; font-family: Roboto, sans-serif; font-size: 16px; font-weight: 200;" x="70" y="0" dx="0em" dy="0.95em" fill="rgb(33, 33, 33)" stroke="none" stroke-width="1.333333px">20k</text><text style="text-anchor: middle; visibility: hidden; font-family: Roboto, sans-serif; font-size: 16px; font-weight: 200;" x="93.33333333333333" y="0" dx="0em" dy="0.95em" fill="rgb(33, 33, 33)" stroke="none" stroke-width="1.333333px">30k</text><text style="text-anchor: middle; visibility: inherit; font-family: Roboto, sans-serif; font-size: 16px; font-weight: 200;" x="116.66666666666667" y="0" dx="0em" dy="0.95em" fill="rgb(33, 33, 33)" stroke="none" stroke-width="1.333333px">40k</text><text style="text-anchor: middle; visibility: hidden; font-family: Roboto, sans-serif; font-size: 16px; font-weight: 200;" x="140" y="0" dx="0em" dy="0.95em" fill="rgb(33, 33, 33)" stroke="none" stroke-width="1.333333px">50k</text><text style="text-anchor: middle; visibility: inherit; font-family: Roboto, sans-serif; font-size: 16px; font-weight: 200;" x="163.33333333333334" y="0" dx="0em" dy="0.95em" fill="rgb(33, 33, 33)" stroke="none" stroke-width="1.333333px">60k</text><text style="text-anchor: middle; visibility: hidden; font-family: Roboto, sans-serif; font-size: 16px; font-weight: 200;" x="186.66666666666666" y="0" dx="0em" dy="0.95em" fill="rgb(33, 33, 33)" stroke="none" stroke-width="1.333333px">70k</text><text style="text-anchor: middle; visibility: inherit; font-family: Roboto, sans-serif; font-size: 16px; font-weight: 200;" x="210" y="0" dx="0em" dy="0.95em" fill="rgb(33, 33, 33)" stroke="none" stroke-width="1.333333px">80k</text><text style="text-anchor: middle; visibility: hidden; font-family: Roboto, sans-serif; font-size: 16px; font-weight: 200;" x="233.33333333333334" y="0" dx="0em" dy="0.95em" fill="rgb(33, 33, 33)" stroke="none" stroke-width="1.333333px">90k</text><text style="text-anchor: middle; visibility: inherit; font-family: Roboto, sans-serif; font-size: 16px; font-weight: 200;" x="256.66666666666663" y="0" dx="0em" dy="0.95em" fill="rgb(33, 33, 33)" stroke="none" stroke-width="1.333333px">100k</text><text style="text-anchor: middle; visibility: hidden; font-family: Roboto, sans-serif; font-size: 16px; font-weight: 200;" x="280" y="0" dx="0em" dy="0.95em" fill="rgb(33, 33, 33)" stroke="none" stroke-width="1.333333px">110k</text></g><line x1="0" y1="0" x2="280" y2="0" fill="rgb(0, 0, 0)" stroke="rgb(204, 204, 204)" stroke-width="1.333333px"></line></g></g></g></g></svg>