<svg viewBox="0 0 330 200" xmlns="http://www.w3.org/2000/svg"><g><g><g><g><g><line x1="60" y1="176.984375" x2="55" y2="176.984375" style="visibility: inherit;" fill="rgb(0, 0, 0)" stroke="rgb(204, 204, 204)" stroke-width="1.333333px"></line><line x1="60" y1="162.23567708333334" x2="55" y2="162.23567708333334" style="visibility: inherit;" fill="rgb(0, 0, 0)" stroke="rgb(204, 204, 204)" stroke-width="1.333333px"></line><line x1="60" y1="147.48697916666669" x2="55" y2="147.48697916666669" style="visibility: inherit;" fill="rgb(0, 0, 0)" stroke="rgb(204, 204, 204)" stroke-width="1.333333px"></line><line x1="60" y1="132.73828125" x2="55" y2="132.73828125" style="visibility: inherit;" fill="rgb(0, 0, 0)" stroke="rgb(204, 204, 204)" stroke-width="1.333333px"></line><line x1="60" y1="117.98958333333334" x2="55" y2="117.98958333333334" style="visibility: inherit;" fill="rgb(0, 0, 0)" stroke="rgb(204, 204, 204)" stroke-width="1.333333px"></line><line x1="60" y1="103.24088541666666" x2="55" y2="103.24088541666666" style="visibility: inherit;" fill="rgb(0, 0, 0)" stroke="rgb(204, 204, 204)" stroke-width="1.333333px"></line><line x1="60" y1="88.4921875" x2="55" y2="88.4921875" style="visibility: inherit;" fill="rgb(0, 0, 0)" stroke="rgb(204, 204, 204)" stroke-width="1.333333px"></line><line x1="60" y1="73.74348958333333" x2="55" y2="73.74348958333333" style="visibility: inherit;" fill="rgb(0, 0, 0)" stroke="rgb(204, 204, 204)" stroke-width="1.333333px"></line><line x1="60" y1="58.99479166666667" x2="55" y2="58.99479166666667" style="visibility: inherit;" fill="rgb(0, 0, 0)" stroke="rgb(204, 204, 204)" stroke-width="1.333333px"></line><line x1="60" y1="44.24609375" x2="55" y2="44.24609375" style="visibility: inherit;" fill="rgb(0, 0, 0)" stroke="rgb(204, 204, 204)" stroke-width="1.333333px"></line><line x1="60" y1="29.497395833333325" x2="55" y2="29.497395833333325" style="visibility: inherit;" fill="rgb(0, 0, 0)" stroke="rgb(204, 204, 204)" stroke-width="1.333333px"></line><line x1="60" y1="14.748697916666673" x2="55" y2="14.748697916666673" style="visibility: inherit;" fill="rgb(0, 0, 0)" stroke="rgb(204, 204, 204)" stroke-width="1.333333px"></line><line x1="60" y1="0" x2="55" y2="0" style="visibility: inherit;" fill="rgb(0, 0, 0)" stroke="rgb(204, 204, 204)" stroke-width="1.333333px"></line></g><g transform="translate(50, 0)"><text style="text-anchor: end; visibility: hidden; font-family: Roboto, sans-serif; font-size: 16px; font-weight: 200;" x="0" y="176.984375" dx="0em" dy="0.3em" fill="rgb(33, 33, 33)" stroke="none" stroke-width="1.333333px">-0.6</text><text style="text-anchor: end; visibility: inherit; font-family: Roboto, sans-serif; font-size: 16px; font-weight: 200;" x="0" y="162.23567708333334" dx="0em" dy="0.3em" fill="rgb(33, 33, 33)" stroke="none" stroke-width="1.333333px">-0.55</text><text style="text-anchor: end; visibility: hidden; font-family: Roboto, sans-serif; font-size: 16px; font-weight: 200;" x="0" y="147.48697916666669" dx="0em" dy="0.3em" fill="rgb(33, 33, 33)" stroke="none" stroke-width="1.333333px">-0.5</text><text style="text-anchor: end; visibility: inherit; font-family: Roboto, sans-serif; font-size: 16px; font-weight: 200;" x="0" y="132.73828125" dx="0em" dy="0.3em" fill="rgb(33, 33, 33)" stroke="none" stroke-width="1.333333px">-0.45</text><text style="text-anchor: end; visibility: hidden; font-family: Roboto, sans-serif; font-size: 16px; font-weight: 200;" x="0" y="117.98958333333334" dx="0em" dy="0.3em" fill="rgb(33, 33, 33)" stroke="none" stroke-width="1.333333px">-0.4</text><text style="text-anchor: end; visibility: inherit; font-family: Roboto, sans-serif; font-size: 16px; font-weight: 200;" x="0" y="103.24088541666666" dx="0em" dy="0.3em" fill="rgb(33, 33, 33)" stroke="none" stroke-width="1.333333px">-0.35</text><text style="text-anchor: end; visibility: hidden; font-family: Roboto, sans-serif; font-size: 16px; font-weight: 200;" x="0" y="88.4921875" dx="0em" dy="0.3em" fill="rgb(33, 33, 33)" stroke="none" stroke-width="1.333333px">-0.3</text><text style="text-anchor: end; visibility: inherit; font-family: Roboto, sans-serif; font-size: 16px; font-weight: 200;" x="0" y="73.74348958333333" dx="0em" dy="0.3em" fill="rgb(33, 33, 33)" stroke="none" stroke-width="1.333333px">-0.25</text><text style="text-anchor: end; visibility: hidden; font-family: Roboto, sans-serif; font-size: 16px; font-weight: 200;" x="0" y="58.99479166666667" dx="0em" dy="0.3em" fill="rgb(33, 33, 33)" stroke="none" stroke-width="1.333333px">-0.2</text><text style="text-anchor: end; visibility: inherit; font-family: Roboto, sans-serif; font-size: 16px; font-weight: 200;" x="0" y="44.24609375" dx="0em" dy="0.3em" fill="rgb(33, 33, 33)" stroke="none" stroke-width="1.333333px">-0.15</text><text style="text-anchor: end; visibility: hidden; font-family: Roboto, sans-serif; font-size: 16px; font-weight: 200;" x="0" y="29.497395833333325" dx="0em" dy="0.3em" fill="rgb(33, 33, 33)" stroke="none" stroke-width="1.333333px">-0.1</text><text style="text-anchor: end; visibility: inherit; font-family: Roboto, sans-serif; font-size: 16px; font-weight: 200;" x="0" y="14.748697916666673" dx="0em" dy="0.3em" fill="rgb(33, 33, 33)" stroke="none" stroke-width="1.333333px">-0.05</text><text style="text-anchor: end; visibility: hidden; font-family: Roboto, sans-serif; font-size: 16px; font-weight: 200;" x="0" y="0" dx="0em" dy="0.3em" fill="rgb(33, 33, 33)" stroke="none" stroke-width="1.333333px">0</text></g><line x1="60" y1="0" x2="60" y2="176.984375" fill="rgb(0, 0, 0)" stroke="rgb(204, 204, 204)" stroke-width="1.333333px"></line></g></g><g transform="translate(60, 0)" clip-path="url(#clip_0)"><clipPath id="clip_0"><rect width="270" height="176"></rect></clipPath><g><g><g><line x1="0" y1="0" x2="0" y2="176.984375" fill="rgb(0, 0, 0)" stroke="rgb(66, 66, 66)" stroke-width="1.333333px" opacity="0.25"></line><line x1="22.5" y1="0" x2="22.5" y2="176.984375" fill="rgb(0, 0, 0)" stroke="rgb(66, 66, 66)" stroke-width="1.333333px" opacity="0.25"></line><line x1="45" y1="0" x2="45" y2="176.984375" fill="rgb(0, 0, 0)" stroke="rgb(66, 66, 66)" stroke-width="1.333333px" opacity="0.25"></line><line x1="67.5" y1="0" x2="67.5" y2="176.984375" fill="rgb(0, 0, 0)" stroke="rgb(66, 66, 66)" stroke-width="1.333333px" opacity="0.25"></line><line x1="90" y1="0" x2="90" y2="176.984375" fill="rgb(0, 0, 0)" stroke="rgb(66, 66, 66)" stroke-width="1.333333px" opacity="0.25"></line><line x1="112.5" y1="0" x2="112.5" y2="176.984375" fill="rgb(0, 0, 0)" stroke="rgb(66, 66, 66)" stroke-width="1.333333px" opacity="0.25"></line><line x1="135" y1="0" x2="135" y2="176.984375" fill="rgb(0, 0, 0)" stroke="rgb(66, 66, 66)" stroke-width="1.333333px" opacity="0.25"></line><line x1="157.5" y1="0" x2="157.5" y2="176.984375" fill="rgb(0, 0, 0)" stroke="rgb(66, 66, 66)" stroke-width="1.333333px" opacity="0.25"></line><line x1="180" y1="0" x2="180" y2="176.984375" fill="rgb(0, 0, 0)" stroke="rgb(66, 66, 66)" stroke-width="1.333333px" opacity="0.25"></line><line x1="202.5" y1="0" x2="202.5" y2="176.984375" fill="rgb(0, 0, 0)" stroke="rgb(66, 66, 66)" stroke-width="1.333333px" opacity="0.25"></line><line x1="225" y1="0" x2="225" y2="176.984375" fill="rgb(0, 0, 0)" stroke="rgb(66, 66, 66)" stroke-width="1.333333px" opacity="0.25"></line><line x1="247.5" y1="0" x2="247.5" y2="176.984375" fill="rgb(0, 0, 0)" stroke="rgb(66, 66, 66)" stroke-width="1.333333px" opacity="0.25"></line><line x1="270" y1="0" x2="270" y2="176.984375" fill="rgb(0, 0, 0)" stroke="rgb(66, 66, 66)" stroke-width="1.333333px" opacity="0.25"></line></g><g><line x1="0" y1="176.984375" x2="270" y2="176.984375" fill="rgb(0, 0, 0)" stroke="rgb(66, 66, 66)" stroke-width="1.333333px" opacity="0.25"></line><line x1="0" y1="162.23567708333334" x2="270" y2="162.23567708333334" fill="rgb(0, 0, 0)" stroke="rgb(66, 66, 66)" stroke-width="1.333333px" opacity="0.25"></line><line x1="0" y1="147.48697916666669" x2="270" y2="147.48697916666669" fill="rgb(0, 0, 0)" stroke="rgb(66, 66, 66)" stroke-width="1.333333px" opacity="0.25"></line><line x1="0" y1="132.73828125" x2="270" y2="132.73828125" fill="rgb(0, 0, 0)" stroke="rgb(66, 66, 66)" stroke-width="1.333333px" opacity="0.25"></line><line x1="0" y1="117.98958333333334" x2="270" y2="117.98958333333334" fill="rgb(0, 0, 0)" stroke="rgb(66, 66, 66)" stroke-width="1.333333px" opacity="0.25"></line><line x1="0" y1="103.24088541666666" x2="270" y2="103.24088541666666" fill="rgb(0, 0, 0)" stroke="rgb(66, 66, 66)" stroke-width="1.333333px" opacity="0.25"></line><line x1="0" y1="88.4921875" x2="270" y2="88.4921875" fill="rgb(0, 0, 0)" stroke="rgb(66, 66, 66)" stroke-width="1.333333px" opacity="0.25"></line><line x1="0" y1="73.74348958333333" x2="270" y2="73.74348958333333" fill="rgb(0, 0, 0)" stroke="rgb(66, 66, 66)" stroke-width="1.333333px" opacity="0.25"></line><line x1="0" y1="58.99479166666667" x2="270" y2="58.99479166666667" fill="rgb(0, 0, 0)" stroke="rgb(66, 66, 66)" stroke-width="1.333333px" opacity="0.25"></line><line x1="0" y1="44.24609375" x2="270" y2="44.24609375" fill="rgb(0, 0, 0)" stroke="rgb(66, 66, 66)" stroke-width="1.333333px" opacity="0.25"></line><line x1="0" y1="29.497395833333325" x2="270" y2="29.497395833333325" fill="rgb(0, 0, 0)" stroke="rgb(66, 66, 66)" stroke-width="1.333333px" opacity="0.25"></line><line x1="0" y1="14.748697916666673" x2="270" y2="14.748697916666673" fill="rgb(0, 0, 0)" stroke="rgb(66, 66, 66)" stroke-width="1.333333px" opacity="0.25"></line><line x1="0" y1="0" x2="270" y2="0" fill="rgb(0, 0, 0)" stroke="rgb(66, 66, 66)" stroke-width="1.333333px" opacity="0.25"></line></g></g></g><g><g><line x1="0" y1="0" x2="270" y2="0" fill="rgb(0, 0, 0)" stroke="rgb(153, 153, 153)" stroke-width="2px"></line></g></g><g><g><line x1="22.5" y1="0" x2="22.5" y2="176.984375" fill="rgb(0, 0, 0)" stroke="rgb(153, 153, 153)" stroke-width="2px"></line></g></g><g><g><g><g><g><path style="fill: none;" stroke="rgb(255, 112, 67)" stroke-width="2.666667px" d="M27.108,201.18165060184623L27.315,140.86487876635874L27.36,174.10541458560218L27.378,207.37698465355112L27.882,177.424491021243L28.250999999999998,141.1858731818663L28.305,130.73742370978238L28.314,113.15683822193894L28.44,75.78007485697592L28.593,122.19512111362931L29.394,147.12083315212084L29.493000000000002,153.57209639723968L29.754,92.74399461282798L30.231,121.6788527180795L30.312,132.61030060300584L30.491999999999997,218.60119996141086L31.509,182.33559479221367L31.653,147.12350254643061L31.752,166.00246796880757L31.851,175.6624016658796L32.022,176.86009759503617L32.157,172.14501913436797L32.517,164.9171699787209L32.643,99.22381493918486L32.705999999999996,91.53415066608218L32.886,131.23256403726276L32.994,82.35014342465452L33.083999999999996,113.3734572932077L33.102,109.8874942154124L33.174,136.94059280201117L33.48,158.22123977939185L33.786,158.20015642210777L33.804,151.27593199746175L33.830999999999996,157.588507644354L33.92100000000001,156.25619246595716L33.957,171.4877784262867L34.443,156.20117527434826L34.623000000000005,108.47063029217182L34.902,117.09004284336648L35.271,79.5648325829995L35.631,70.93779545030995L35.64,54.74382846002726L35.964000000000006,60.805545803048666L36.108000000000004,37.41903546227593L36.135,96.68704001209785L36.45,97.12650507084764L36.477,58.32750894403699L36.603,104.62013896222658L36.882,101.40930290755578L37.161,121.19458832844764L37.233,159.19675065554978L37.548,125.3437901942599L37.683,75.75095378356107L37.836,45.461956201974935L37.854,66.90087389599843L37.917,84.39804275293837L38.511,84.65774465402774L39.141,90.28739055400577L39.258,91.98229218733351L39.609,94.55683807161675L39.699,125.95623804282481L39.978,134.88848841640652L40.158,101.35113609113523L40.166999999999994,102.12391366335937L40.329,92.24369735104504L41.148,58.65078615728988L41.229,35.22551667371499L41.318999999999996,82.92184119182292L41.418,73.26276628155986L42.399,101.94223533670294L43.389,65.78916989310291L43.749,156.3992446253819L44.064,156.46655919070776L44.442,132.80861587443144L44.487,105.27097303745315L44.604000000000006,63.17491826619511L44.676,37.91031542306849L44.703,22.90535907305923L44.883,13.885079932873118L45.045,119.71002244338275L45.171,119.619734805695L45.288000000000004,125.7453567534666L45.711,105.43122889504964L45.72,120.74748805525336L45.909,72.53899442405009L46.160999999999994,48.5736530012093L46.233,98.22358373656581L46.30500000000001,75.04916991573151L46.674,67.5520499258632L46.755,76.99434164948879L46.89,116.54332953093024L46.971,72.14386274391113L47.124,94.68317237511744L47.178,100.00600748748114L47.295,116.62956265577992L47.304,123.90909929667009L47.312999999999995,109.56595518632687L47.43,106.07658522486811L47.583,73.18755102048144L47.826,52.063586270059346L48.024,84.20770362766795L48.114,83.54508379984725L48.266999999999996,50.18253123129467L49.176,94.66366719299589L49.275,106.11038943287157L50.265,86.02719593777734L50.274,105.99934913767564L50.45399999999999,66.86084332243264L50.463,78.68272310985026L50.598000000000006,101.52255618344485L50.823,112.04706555058502L51.309,67.53150404331434L51.471,49.26169790415313L51.687000000000005,88.04087222885845L51.903,52.83442350879812L51.93,32.88764120887248L52.722,60.45576740540879L53.153999999999996,99.8931141723463L53.667,91.82219034173205L53.865,83.99183639532322L53.937000000000005,89.34571375697948L54.018,53.62070354237142L54.251999999999995,61.65510373526825L54.612,71.748219872362L54.639,81.01836235855565L54.918,84.18976717984404L55.062,52.33476238703679L55.403999999999996,37.93393046449692L55.431000000000004,59.38464249831579L55.467,62.88401346768971L55.53,75.9709712475625L55.556999999999995,45.582683776365016L55.728,52.943962058527056L55.926,70.02295743826694L56.367,115.58347129168313L56.556,78.66932189190456L57.15,123.02025766481403L57.168,103.0698434419127L57.636,78.85022098992789L57.753,68.0037653579224L57.807,80.54812489378904L57.915,64.14312948219053L57.942,71.74557511014733L58.293,78.7759516983782L58.626000000000005,53.46595297920346L58.725,32.09048370592408L58.824,66.34249540306446L58.878,51.798681215394446L58.940999999999995,58.93161802280132L59.274,116.67601838606507L59.498999999999995,133.6087730154519L59.607,140.86833304415887L59.634,140.8179318476513L59.832,126.25109674912215L60.147,124.43065070383412L60.245999999999995,99.83187568834518L60.561,102.53099728838262L60.831,135.2312424148559L61.38,100.76792220543585L61.47,81.75701169023868L62.604,120.03785049440933L63.333,118.69440220763022L63.369,92.49968695532498L63.594,102.66951611188281L64.026,103.53888874951339L64.359,94.72115258267274L64.728,93.6162846221596L64.74600000000001,139.66387641099016L64.8,140.00798523953958L64.881,142.59380499993853L65.08800000000001,173.03431607383047L65.511,177.86681703548666L66.006,145.97945293069003L66.033,136.79602969108095L66.042,140.00783743387305L66.114,107.30821896886958L66.456,118.41852432349253L66.708,138.84342602655647L66.879,159.7997634987952L67.059,124.44164276204907L67.33800000000001,167.58461953438265L68.229,148.15013309498298L68.31,128.54319089696108L68.328,109.30917218441446L68.706,168.33519492863428L68.742,139.8943664375448L68.877,134.14375164693615L68.904,114.72242148278019L68.913,152.93931436846373L69.201,145.87282206066777L69.318,133.1952082665662L69.543,149.3120964635054L69.66,196.96387918032048L69.903,195.06818310781978L70.173,138.96479693806464L70.389,136.93384127347446L70.416,151.72464543685086L70.776,92.62795710740193L70.848,80.45579220982017L71.14500000000001,71.74274090731117L71.52300000000001,102.91726257311686L71.604,67.64190388216225L71.64899999999999,42.137409943069585L72.099,40.34569667206242L73.521,44.03065583416568L74.088,75.51732571427026L74.33999999999999,120.63212745415571L74.547,93.06804083105365L75.006,92.3096819307269L75.312,78.99735384387441L75.429,92.54547577087183L76.05,74.56801283589091L76.122,112.09086608391158L76.347,130.1510964994698L76.491,118.22521537843262L76.599,117.60109298173832L76.995,93.7929501110345L77.51700000000001,128.41843512064892L77.715,145.18974135226514L77.75999999999999,107.39856844308629L77.796,64.48627504570652L78.54299999999999,65.59419177239036L78.705,63.34765999049755L79.02900000000001,38.929121855125715L79.218,44.54127465573254L79.506,58.58449940657745L79.524,48.65802538859091L79.74,111.43244679625178L79.749,118.14270206584987L79.794,133.43108215035673L79.839,127.49272750987117L80.775,86.15065318306637L81.27,89.03812222761374L81.43199999999999,81.64209913188694L81.477,148.34888283309527L81.59400000000001,124.60567183166307L81.639,98.85943236136673L81.783,59.315892058241495L81.82799999999999,72.31392329355268L81.909,73.60668170764657L82.053,67.2941389185192L82.575,100.88107495891065L82.998,135.04867423084585L83.08800000000001,103.16075222251264L83.268,89.9885131137455L83.73599999999999,53.99419411082291L84.096,44.383732291927906L84.16799999999999,54.67161980681502L84.249,79.9211224160242L84.393,58.12404086973096L84.762,57.16136207154884L84.789,51.888744792731075L84.888,77.20614074539134L85.437,105.58303324577801L85.482,100.35572807596185L85.5,70.81147103411651L86.004,42.79162742032172L86.571,51.77991478884106L86.598,58.20326789592164L86.652,35.61316079251185L86.994,21.36789905751931L87.12,15.410081462026131L87.381,65.14241082241267L87.795,78.69831275200673L87.98400000000001,80.99862162679185L88.29,52.44241685821276L88.56,54.86385042069799L88.69500000000001,34.754685320370356L88.821,24.43113092203247L89.33399999999999,41.861960093332684L89.43299999999999,85.26631253283918L89.442,100.10546605865679L89.694,105.85917547865024L89.72999999999999,87.63593108022201L89.74799999999999,78.66838771223665L89.856,94.66532344305797L90.072,103.59532305192769L90.18,90.10077012561975L90.252,84.16001056081235L90.30600000000001,100.70398204816091L90.405,129.18817076062786L90.477,94.0127670281045L90.495,102.42348350537296L90.855,88.39831058776859L90.93599999999999,110.75344190133502L90.954,92.79986288772632L91.26,87.71197174403534L91.31400000000001,66.85821334194658L91.458,60.95838950580393L92.06099999999999,70.37192950798692L92.08800000000001,98.0411926507793L92.32199999999999,101.39128507741098L92.664,108.17490609614237L92.673,112.9773121981761L92.90700000000001,82.25589739384336L93.06,83.60789556346833L93.168,88.09572688633449L93.213,82.54331257050532L93.57300000000001,100.46733956294189L93.627,78.25126693647137L93.879,85.45613363888731L94.39200000000001,79.58949697040391L94.932,85.30314469798132L95.22,97.31459051702902L95.616,92.90847381652088L95.814,55.74549789225483L95.985,55.56842567582681L95.994,55.284453022308405L96.246,45.49358783906896L96.462,61.31826104749213L96.57900000000001,37.06631877651284L97.011,22.26229757085288L97.137,13.418648534116612L97.182,8.078870966637812L97.686,31.304057271263563L97.78500000000001,65.73468989273056L97.91099999999999,39.55206084929587L98.09100000000001,23.776178548385516L98.217,53.57653885245559L98.937,59.09558009414517L99.207,75.84360684178954L99.45,57.469377232568206L99.50399999999999,53.73289598351201L99.58500000000001,34.40797331891542L100.08,39.59477160199608L100.161,92.96620563027237L100.449,117.47096111217326L100.485,161.72079799414686L100.764,131.02440970811602L100.818,139.30643456532573L100.98,107.04704828613035L101.03399999999999,93.47864949113945L101.286,97.71879678015007L101.30399999999999,104.80593198408889L101.502,62.88358167629567L101.52,37.73015400424537L101.925,48.31459523988106L102.015,51.296963418878896L102.303,58.5970394779577L102.348,72.75959282744434L102.411,87.54288850099698L102.771,80.38787393042828L102.80699999999999,81.54116209496192L103.38300000000001,49.53063269217117L103.572,29.719056986390722L103.815,79.74789501448126L104.04,66.78545386310583L104.571,40.071272463917815L104.607,24.042831330013893L104.88600000000001,20.685949925308183L105.426,32.11634325458095L105.786,45.249574052477556L106.137,98.16781311140538L106.245,62.13385013649916L106.263,90.46856569805276L106.326,71.44843265837177L106.461,63.182851246457005L106.62299999999999,63.40661707247439L106.749,52.289261151593415L106.866,50.00567558117325L106.911,52.25877474418722L107.00099999999999,51.27408623102175L107.622,31.517992524761176L108.36,84.73685487988088L108.441,113.44284404185412L108.52199999999999,83.59853935932314L108.612,59.36394553546105L108.855,35.962473498600666L109.557,21.577484674329632L109.566,17.718873990089367L109.746,10.631444777568479L109.854,29.334470844051165L109.926,29.046329108237398L110.29499999999999,60.35961163911025L110.304,59.99661930174186L110.46600000000001,53.25789462874167L110.835,56.32415100231048L110.934,53.524929838705205L111.051,32.115098289677704L111.168,56.000173835982906L111.321,55.799735817635316L111.56400000000001,33.73139313190711L111.654,26.40515966011897L111.771,17.403761694872497L112.05,12.675721730073692L112.059,9.848092382692506L112.068,8.160107668040792L112.158,7.220666425782491L112.275,6.303150890360893L112.329,5.777754339081865L112.455,5.552052036274813L113.085,7.933770968515334L113.328,12.742367516947741L113.607,7.840653412744556L113.76,29.725864915225L114.237,39.11399682356427L114.39,61.7523567042858L114.453,65.23716579459149L114.93900000000001,39.61031532959027L115.038,37.68551320006044L115.59599999999999,32.20592753597106L115.623,27.18906411496105L115.632,38.065920398624066L116.07300000000001,31.912260862192554L116.523,72.2510154579586L116.57700000000001,66.70058397921585L116.586,55.766528134133395L116.64,60.189414138100126L117.027,100.50335770964716L117.17999999999999,94.2547169850847L117.56700000000001,76.17190970949315L117.67500000000001,51.36075244952989L117.88199999999999,78.56330671531063L118.044,62.985951711127015L118.215,47.33991002307789L118.30499999999999,60.06117676357304L118.323,59.95907618771914L118.881,35.975445715737784L118.971,30.52975712829973L119.034,42.19344797975434L119.223,25.316127070079627L119.45700000000001,15.19275996801587L120.09599999999999,17.3018840654979L120.591,29.75011211299142L121.30199999999999,76.42103162964628L121.716,66.84656150054202L121.725,49.22697625105776L121.77000000000001,49.6313984824555L121.842,58.56215993364673L122.004,55.95363223200677L122.364,59.24287138568742L122.58,35.54592827472511L122.634,40.15226708947302L122.643,30.678936042681528L122.949,19.90020555157154L123.048,60.034588700301576L123.39,36.26088184446303L123.426,21.963592416250865L123.47999999999999,27.850466520824135L123.552,16.710279927399416L124.488,54.16814569658091L124.497,69.60083014185857L125.06400000000001,65.95695820828904L125.15400000000001,94.01656975029287L125.199,67.10646059226706L125.505,106.05977235341597L125.55000000000001,83.21317028909517L125.66699999999999,102.01029660076652L125.685,101.29685122147157L126.25200000000001,64.91451252979043L126.64800000000001,72.28803299244942L126.72,52.41714784786499L127.017,31.76455524429861L127.782,44.64189587030918L128.142,51.99141112062674L128.322,44.925235579315626L128.40300000000002,82.08337124598998L128.592,81.05526779037251L128.871,49.3494295446113L128.889,46.049088315467884L128.92499999999998,35.57772347455151L129.114,29.55190679468171L129.141,17.731209675426182L129.177,10.638725872975956L129.321,18.24912625589822L129.40200000000002,14.7688562736446L129.456,12.888608952194964L130.113,22.564583983512765L130.266,77.4386231345636L130.761,82.94499614542937L131.202,112.64604194746641L131.733,115.64188443642594L132.09300000000002,108.34495193791184L132.129,88.20045537967557L132.408,52.92826933819078L132.633,66.53941324838563L132.957,67.54097602860394L133.236,46.672912649227705L133.254,44.2928606670269L133.362,60.24634662053994L133.70399999999998,42.190929361359714L133.81199999999998,42.31460557077041L134.064,40.15731113165595L134.1,68.74873024305688L134.118,93.81630351734502L134.307,77.38640420848907L134.316,69.87230733043943L134.451,63.809273646565245L134.559,80.81543338798005L134.80200000000002,86.97272304819535L134.82,92.02251787428715L134.838,73.97372722440629L135.504,63.49839768727075L135.927,69.37831302044711L136.35,77.45768854534627L136.89000000000001,53.76386872367227L137.55599999999998,32.25843421175028L137.637,38.90778978070733L138.24,81.1666457505591L138.62699999999998,87.48694780813558L138.66299999999998,95.79951290980618L138.816,105.93926308246836L139.014,79.97449006937873L139.26600000000002,50.115315668542166L139.302,48.91138991831405L139.491,29.351735208553055L139.608,29.599506138735215L139.73399999999998,41.45264515331281L139.842,25.015206754686552L139.851,15.009124365881876L139.95,9.0057976419204L140.346,18.48259827320739L141.21,17.05150949468815L141.561,51.923359938029094L141.768,31.999147526621133L141.867,27.09720687902616L142.25400000000002,16.2602443978249L142.659,9.756350939548915L143.01,5.853863431846442L143.28,32.601893074737184L143.613,35.786780317518335L144.216,30.27693100259484L144.30599999999998,59.659066241149795L144.46800000000002,93.02214401464794L144.54,102.40916903690179L144.81,61.44563407343813L145.125,58.19011702895476L145.296,61.49190847106837L145.314,49.20268492938914L145.341,32.246394520145316L145.458,61.234788056795786L145.962,51.23553721603416L146.142,38.24949441660379L146.736,55.330876337839776L146.99699999999999,84.46630888914035L147.15900000000002,68.75803827656166L147.528,53.78949528675738L147.762,39.83408110487464L148.257,23.90066963499669L148.338,29.333617073379745L148.572,70.31555934858788L148.932,66.5832500976074L149.436,74.25606805793186L149.535,75.46325751930023L149.661,45.27842523739291L149.778,27.171258060576932L149.94,27.608608403199483L150.11100000000002,16.66120275583722L150.21,10.87117199769205L150.264,34.07530733156803L150.37199999999999,40.80543776263334L150.525,26.427976778188583L150.84,23.048872229812453L150.903,66.79107942541664L151.659,97.36251203731833L151.70399999999998,74.77728865916836L151.76700000000002,44.86637426744345L151.821,26.92000711047355L152.109,33.221894234079585L152.118,37.940422233332036L152.163,39.86251508750845L152.28900000000002,79.3584175186604L152.36100000000002,80.60586215656002L152.37,68.91786337930684L152.964,41.35071802977069L152.982,46.322695884478655L153.333,45.061877876481454L153.711,27.037126935215145L154.125,25.84986520218585L154.323,15.510077668553212L155.22299999999998,11.819729890091548L155.358,9.73629346669529L155.511,32.63921124058828L155.583,31.919165852635775L155.889,19.19923526006295L156.177,42.80874225856775L156.29399999999998,25.924890314598077L156.32999999999998,30.063404693303518L156.60899999999998,46.835073961835405L156.807,28.10104439597676L156.843,16.860779731609732L156.978,34.021370432353756L157.689,21.765627664287614L158.103,28.329211908163728L158.112,48.629531502151735L158.148,35.216625928551146L158.4,36.16517095636164L158.50799999999998,52.2028711206342L158.598,31.321966065790864L158.63400000000001,18.793335107886026L158.76,11.276029505470456L158.895,23.907621255804788L159.102,56.40416348554077L159.183,38.86467803293241L159.309,42.1206517900826L160.38,52.62841817443999L160.524,46.89894949372992L160.65,28.14292573740059L160.776,18.11687499706602L160.857,37.88658214023753L161.118,58.16255465034769L161.28900000000002,73.87646550243572L161.433,67.80864420274432L161.487,64.54827779363814L161.622,38.73140138904161L161.676,54.58694102626982L161.928,70.06707671204872L161.946,70.28366792048564L163.008,77.44877262184849L163.215,61.65118275995079L163.26,61.63204603647455L163.53,38.31617334782916L163.926,23.044190931482355L164.01600000000002,48.332794523510266L164.259,121.21719827106969L164.358,85.96669394729238L164.655,76.58431179976334L164.727,103.66243348674003L164.898,65.36525536008664L164.99699999999999,65.65787709296912L165.375,47.75054240330445L165.807,68.7844152443745L165.816,41.6246642717465L166.635,78.33024320296911L166.806,86.2933474089998L166.896,68.68706426934315L167.202,52.57728747240751L167.463,45.6435989903197L167.571,39.68807745463302L167.643,26.265259983039336L168.183,49.60753839017241L168.192,60.60253952300323L168.64200000000002,56.72380074474677L168.669,68.23191159640082L168.687,106.65389934944211L168.741,83.40536725382267L169.335,71.09294119266698L169.632,62.950474819953904L170.04600000000002,83.44157135850381L170.21699999999998,100.77416912535543L170.24399999999997,81.5603271169397L170.361,48.938287234657544L170.901,75.47900495920294L171.504,53.36472576312699L171.94500000000002,62.75668129687744L171.963,51.03798488310618L172.053,65.35854175035145L172.368,43.23085008333577L172.449,33.23930283544049L173.097,33.16159775155461L173.133,21.27736476291602L173.655,41.02697950719678L174.024,24.61780551627028L174.29399999999998,29.335158937378235L174.31199999999998,29.18349861921765L174.43800000000002,17.880391159158638L174.465,47.143590655402356L174.681,28.753839707898315L175.041,50.07107034820201L175.077,34.74789405736276L175.536,55.20468482237328L175.66199999999998,38.47861374348445L176.00400000000002,55.44339581785626L176.031,42.060012761998344L176.202,66.37584074399012L176.598,45.014097614050485L176.652,45.314353858302134L176.661,60.76475784534917L176.805,41.10373982307823L176.913,38.77488613874843L177.57899999999998,58.01486751450278L177.597,54.63194208326844L177.768,41.24388405729452L177.88500000000002,89.16790494811508L177.975,74.3855639381787L178.047,47.07530095257019L179.064,34.36018786076176L179.32500000000002,40.36031148454627L179.397,45.29746181987375L180.153,42.59828882545695L180.216,25.558973572932906L180.58499999999998,43.53328671020262L181.071,38.54163105808206L181.20600000000002,40.16131897752862L181.215,27.363360209245158L181.35,19.85243658680905L181.557,57.31633113039547L181.71,54.512706289778734L181.791,38.49367568776909L182.097,69.50790794808707L182.367,77.18487108364876L182.42999999999998,51.17749471154881L182.844,32.494392888779004L183.285,36.23961113526993L183.375,66.69722619857139L183.438,55.68841232469625L183.447,41.60720927488065L183.483,43.70973114127544L183.83399999999997,38.08708605874294L183.933,37.77374190107836L184.08599999999998,23.42315167787736L184.19400000000002,14.218445793404413L184.563,69.90203481328344L184.59,51.21944601891489L184.833,50.4192036963734L184.896,46.80564427991357L185.094,47.156010875539614L185.238,57.8739955723653L185.31,59.67574161352311L185.49900000000002,47.3954268675554L185.607,28.478998244426766L185.679,34.560575381292175L185.715,21.17167236120182L185.75099999999998,46.49859465032971L186.381,65.68684397262427L187.002,39.412106385828075L187.506,71.52668246847949L187.623,69.91122778693624L188.154,68.6318240156844L188.16299999999998,54.70596761931242L188.27100000000002,37.36145483126298L188.379,58.18885739242815L188.514,48.824967490567836L188.604,39.824655695387904L188.73,46.653001049461494L188.847,28.075796494632083L188.928,16.868756046968773L189.216,28.592231640024085L189.792,40.478983157811676L190.06199999999998,37.62175977925806L190.107,29.076540897855452L190.116,19.824672868806868L190.224,49.74713221578575L190.32299999999998,81.44520811440565L191.34,59.24596125757592L191.349,47.91130281709048L191.403,73.69749141132782L191.42999999999998,77.78384865727344L191.538,88.39869012249055L191.673,107.05097039770361L192.366,64.23058223898639L192.60000000000002,58.65838056950776L192.654,54.594776438723315L192.663,32.97955977987946L193.203,44.997731537240455L193.437,48.00048623047335L193.84199999999998,58.376985087181L193.869,36.32978769574855L194.067,53.78550089111504L194.409,46.11265796503458L194.49900000000002,37.82418556019534L194.535,28.69145144289158L194.544,23.86562647818623L195.399,52.15819451245873L195.417,70.34062516448324L195.462,94.67451894026951L196.01999999999998,65.5311575097639L196.389,60.39075656236999L196.839,92.6461284192386L196.91099999999997,60.45746394832483L197.046,58.284011752412795L197.136,73.74895626751447L197.172,107.68176706240793L197.298,101.20045590830327L197.70299999999997,105.66575794974456L197.78400000000002,84.25401743037072L198,101.9310258089954L198.02700000000002,100.90933726256564L198.432,60.65728647469396L199.071,40.57443592901067L199.215,44.48625160875937L199.40400000000002,33.3694120337991L199.467,20.021651290337562L199.827,12.232290713183353L200.385,8.60614056910789L200.403,5.235742722030429L201.08700000000002,12.61765697943846L201.267,23.59763092779724L201.573,60.82433836226828L201.71699999999998,56.58334388197436L201.81599999999997,61.10693868067448L202.212,62.61363607753018L202.34699999999998,55.63253616246303L202.356,83.7719799091084L202.39200000000002,68.00342867922514L202.509,52.689199083069724L202.644,57.08583408559919L203.193,52.16811495061305L203.526,34.51752015473576L203.724,47.514899104251505L205.31699999999998,28.64024079533143L205.506,23.243282023345756L205.776,13.945969250421669L206.064,45.038236056675565L206.14499999999998,35.25843133546949L206.316,38.70507481332446L206.478,25.248234505973226L206.874,15.325879642111436L206.95499999999998,12.52465073850017L207.135,14.884159351483678L207.333,14.758843225274463L207.54000000000002,8.86777927954255L207.69299999999998,5.609025948367658L207.72,4.8672996262556545L207.74699999999999,30.849238330364997L208.08,46.27809932717504L208.332,32.1245285727985L208.494,66.64469557125564L208.512,66.81865484661377L209.25900000000001,40.36394434831327L209.358,34.6895963306248L209.601,20.833403814529674L209.835,21.144556283328363L210.06,14.211530782114565L210.08700000000002,11.30601116873268L211.041,28.724759119892788L211.07700000000003,42.757832116272844L211.212,50.96873534711782L211.23,45.28607424719805L211.275,43.40309805366353L211.32899999999998,49.920059918582666L211.446,48.497654054966716L211.518,67.53347336887747L211.84199999999998,74.83676517695095L211.98600000000002,70.08096133034248L212.634,54.774553364368685L212.679,42.11330717168333L212.877,25.267984788618538L212.89499999999998,19.208946448696157L213.00300000000001,26.108525057554345L213.07500000000002,21.118590597698667L213.129,13.109522760958203L213.363,8.83110545990405L213.399,5.298663280821015L213.615,40.02554758223365L213.714,32.60609316812935L213.921,40.43983540663808L214.029,27.351036625339205L214.31699999999998,18.53996716213134L214.911,31.72777700396894L215.028,32.59269797835263L215.289,53.41750402358778L215.38799999999998,49.21144861739317L215.703,37.99060779141563L215.802,42.31616223609132L216.756,40.72146108880301L216.774,32.29991913937202L216.85500000000002,19.80257770302446L216.891,25.803386582277373L216.9,35.44603157342007L216.963,22.245750203048107L217.107,13.424179922759341L217.15200000000002,8.055378526538433L217.566,5.285377877924174L217.60199999999998,6.142338372463138L217.62,41.52133119814495L217.971,41.68926220964257L217.998,48.28449472556904L218.124,55.44820796095815L218.826,49.195440988632214L218.88899999999998,44.5433842579564L219.123,43.688152769111035L221.08499999999998,74.81134336028643L221.301,63.047556365689765L221.535,72.39786921612587L221.544,77.77223903422107L221.74200000000002,72.94636095902057L221.832,86.93897555443831L221.976,53.798417376736644L222.183,55.055075472636425L222.579,46.29358120253413L222.975,49.41547758685488L223.06500000000003,59.36487977960867L223.083,53.92529786672317L223.14600000000002,89.56580265924508L223.28099999999998,70.86522020823364L223.92000000000002,80.04175933549517L223.93800000000002,112.47305207113256L224.271,85.9175955785341L224.703,51.618683087072405L224.892,33.760447480468684L225.144,44.88407390164906L225.21599999999998,74.36646359335427L225.306,50.21941335361421L225.621,42.877070948135554L225.954,25.727767195803104L226.323,44.09274330293889L226.449,62.54728550857259L226.83599999999998,43.57093183418495L227.106,33.28364963983383L227.322,30.721160295442317L227.538,48.71096384272112L227.547,45.73408745182883L228.51000000000002,75.64406576662758L228.80700000000002,48.827799904350314L229.05,62.702077889246056L229.365,69.69827151903897L229.419,52.01022327952094L229.455,40.86790030478814L229.995,30.513159564692856L230.04,35.2359830698599L230.157,56.01829761370896L230.36399999999998,56.20575616937555L230.472,43.50632535929735L231.15599999999998,29.20920425947767L231.51600000000002,18.33980522644924L231.876,15.359895026016105L231.903,15.517924302033911L232.2,25.74531148997065L232.398,37.39385824530715L232.488,27.307577398042003L232.77599999999998,35.581679906978785L232.92000000000002,37.4166446184573L233.172,46.72390183528508L233.181,47.4210786528664L234.018,47.17412215558105L234.35999999999999,42.366056180583435L234.81900000000002,25.419634026191794L234.83700000000002,15.251781216542064L235.161,26.201268819737518L235.323,23.315384936135477L235.35000000000002,38.00645675757242L235.98,36.855519698242134L236.40300000000002,22.223636319004157L236.68200000000002,23.214432106273993L236.87099999999998,26.581857652479954L237.339,40.75334651580328L237.852,35.171586964067934L238.086,28.87050618917101L238.75199999999998,44.49684777208751L238.851,86.27710194584381L238.87800000000001,97.20531643274418L239.14800000000002,91.3485216464802L239.202,84.21757295302776L239.607,53.01199013814696L240.49800000000002,31.945950697141768L241.04700000000003,33.720227547838526L241.26299999999998,49.8325266519065L241.317,43.23478782297861L241.506,38.56538283006488L241.722,37.43551227381511L241.92000000000002,27.024305602347518L242.037,50.38957264573514L242.43300000000002,34.05224237937384L242.739,21.136710274258423L242.775,12.683469358170413L242.92800000000003,15.119308610965806L242.946,17.91361594192474L243.97199999999998,61.765552399571966L244.152,76.13788624914709L244.242,82.31825426717434L244.46699999999998,120.27418276158375L244.854,84.46966540917695L244.98,68.26752217173417L245.10600000000002,45.822948362623606L245.33999999999997,27.49516903175118L245.42100000000002,17.48388249295947L245.844,25.75676096540117L245.88,26.934669021603742L245.97,18.4398639117888L246.069,16.610795999751595L246.105,14.17168452288251L246.132,19.797911687056963L246.204,38.63091954053461L246.393,75.48586331663392L246.456,45.301546959440614L246.64499999999998,28.077232005372277L246.95999999999998,42.39039644734787L247.14,44.927310255395L247.158,50.226762693026124L247.311,39.97953731651264L247.43699999999998,44.47865437409996L247.5,37.797854606009714" fill="none"></path></g></g></g></g><g opacity="0.2"><g><g><g><path style="fill: none;" stroke="rgb(255, 112, 67)" stroke-width="2.666667px" d="M26.136,242.15685841161758L26.253,125.61539976003891L26.450999999999997,289.3204016812767L26.703,294.69707986339927L26.793000000000003,176.0802194600304L26.847,158.20861793123186L27.108,203.59743490970385L27.315,50.390149718926594L27.36,223.96607655876628L27.378,257.2842546226457L27.522,145.6478770488563L27.882,169.53324272607765L28.250999999999998,86.82796645133446L28.305,115.064752966476L28.314,86.78596348812182L28.44,19.714934271566268L28.593,191.8176871739949L29.394,184.50940013863146L29.493000000000002,163.24899109856537L29.754,1.5018428773206995L30.231,165.081139607355L30.312,149.00747236950946L30.491999999999997,347.5875487116476L30.996,150.53948166314512L31.509,168.77421806100756L31.653,94.30536420317367L31.752,194.32091609419635L32.022,178.6566414885844L32.157,165.0724014438068L32.517,154.07539624565592L32.643,0.6837823820933409L32.705999999999996,79.9996542565835L32.886,190.78018409355235L32.994,9.026512506097788L33.083999999999996,159.90842809590202L33.102,104.65854959872863L33.174,177.52024068186682L33.48,190.1422102454429L33.786,158.1685313861817L33.804,140.88959536049515L33.830999999999996,167.0573711146911L33.92100000000001,154.25771969836205L33.957,194.33515736677995L34.443,133.2712705464413L34.623000000000005,36.87481281890844L34.902,130.01916167015833L35.271,23.27701719244942L35.631,57.99723975127563L35.64,30.452877974603325L35.964000000000006,69.89812181758073L36.108000000000004,2.3392699511168757L36.135,185.58904683683068L36.45,97.7857026589724L36.477,0.12901475382098046L36.603,174.05908398951095L36.882,96.59304882554959L37.161,150.8725164597854L37.233,216.199994146203L37.548,74.56434950232506L37.683,1.361699167512894L37.836,0.028459829595703923L37.854,99.05925043703368L37.917,110.64379603834823L38.511,85.04729750566185L39.141,98.73185940397283L39.258,94.52464463732517L39.609,98.41865689804158L39.699,173.05533799963695L39.978,148.2868639767791L40.158,51.045107603228345L40.166999999999994,103.28308002169555L40.329,77.42337288257356L41.148,8.261419366657107L41.229,0.08761244835265995L41.318999999999996,154.46632796898484L41.418,58.77415391616523L42.399,144.96143891941756L43.389,11.55957172770286L43.749,292.3143567238003L44.064,156.5675310386966L44.442,97.32170090001698L44.487,63.964508781985685L44.604000000000006,0.030836109308053104L44.676,0.013411158378561475L44.703,0.39792454804530836L44.883,0.35466122259397354L45.045,278.4474362091472L45.171,119.48430334916338L45.288000000000004,134.933789675124L45.711,74.96003710742418L45.72,143.7218767955589L45.909,0.22625397724520904L46.160999999999994,12.62564086694813L46.233,172.69847983960062L46.30500000000001,40.287549184480056L46.674,56.30636994106074L46.755,91.15777923492715L46.89,175.8668113530924L46.971,5.544662563382486L47.124,128.4921368219269L47.178,107.99026015602674L47.295,141.56489540822804L47.304,134.82840425800532L47.312999999999995,88.05123902081202L47.43,100.84253028267995L47.583,23.85399971390143L47.826,20.37763914442621L48.024,132.42387966408086L48.114,82.55115405811618L48.266999999999996,0.13870237846579234L49.176,161.38537113554776L49.275,123.28047279268503L50.265,55.90240569513601L50.274,135.95757893752307L50.45399999999999,8.153084599568205L50.463,96.41554279097667L50.598000000000006,135.7823057938367L50.823,127.83382960129529L51.309,0.7581617824083207L51.471,21.856988695411314L51.687000000000005,146.20963371591642L51.903,0.024750428707603654L51.93,2.967467758984027L52.722,101.80795670021325L53.153999999999996,159.04913432275256L53.667,79.71580459581067L53.865,72.24630547570996L53.937000000000005,97.37652979946385L54.018,0.03318822045930677L54.251999999999995,73.70670402461353L54.612,86.88789407800262L54.639,94.92357608784612L54.918,88.94687441177666L55.062,4.552255197825913L55.403999999999996,16.332682580687106L55.431000000000004,91.56071054904412L55.467,68.13306992175058L55.53,95.60140791737165L55.556999999999995,0.00025256956884959526L55.728,63.9858794817701L55.926,95.64145050787678L56.367,183.92424207180738L56.556,23.298097792236764L57.15,189.5466613241782L57.168,73.14422210756068L57.636,42.5207873119507L57.753,51.734081909914195L57.807,99.36466419758897L57.915,39.53563636479278L57.942,83.14924355208252L58.293,89.32151658072448L58.626000000000005,15.500954900441387L58.725,0.027279796004973954L58.824,117.72051294877505L58.878,29.9829599338894L58.940999999999995,69.63102323391165L59.274,203.2926189309607L59.498999999999995,159.00790495953214L59.607,151.75767308721942L59.634,140.74233005288988L59.832,104.4008441013284L60.147,121.69998163590208L60.245999999999995,62.93371316511184L60.561,106.57967968843877L60.831,184.28161010456583L61.38,49.072941891305774L61.47,53.24064591744293L62.604,177.45910870066535L63.333,116.67922977746154L63.369,53.207614076867074L63.594,117.92425984671961L64.026,104.84294770595929L64.359,81.4945483324118L64.728,91.9589826813899L64.74600000000001,208.73526409423602L64.8,140.52414848236367L64.881,146.47253464053696L65.08800000000001,218.69508268466842L65.511,185.11556847797087L66.006,98.14840677349518L66.033,123.02089483166735L66.042,144.8255490480612L66.114,58.258791271364316L66.456,135.083982355427L66.708,169.48077858115238L66.879,191.23426970715326L67.059,71.40446165692993L67.33800000000001,232.299084692883L68.229,118.99840343588343L68.31,99.13277759992829L68.328,80.45814411559452L68.706,256.87422904496395L68.742,97.23312370091057L68.877,125.51782946102321L68.904,85.59042623654629L68.913,210.26465369698903L69.201,135.27308359897387L69.318,114.17878757541379L69.543,173.4874287589143L69.66,268.4415532555431L69.795,258.77705646213144L69.87599999999999,150.5697751355668L69.903,197.80835760446888L70.173,54.809717683432L70.389,133.8874077765892L70.416,173.91085168191543L70.776,3.9829246132285334L70.848,62.19754486344755L71.14500000000001,58.67316395354767L71.52300000000001,149.67904507182539L71.604,14.728865845730367L71.64899999999999,3.8806690344305697L72.099,37.65812676555167L73.521,49.558094577320546L74.088,122.74733053442712L74.33999999999999,188.3043300639838L74.547,51.721910896400615L75.006,91.17214358023679L75.312,59.02886171359569L75.429,112.867658661368L76.05,47.601818433419496L76.122,168.37514595594257L76.347,157.24144212280711L76.491,100.33639369687687L76.599,116.66490938669692L76.995,58.08073580497876L77.51700000000001,180.3566626350706L77.715,170.3467006996895L77.75999999999999,50.711809079318L77.796,0.1178349496369027L78.54299999999999,67.25606686241615L78.705,59.977862317658335L79.02900000000001,2.3013146520679584L79.218,52.9595038566428L79.506,79.64933653284486L79.524,33.768314361611075L79.74,205.5940789077431L79.749,128.208084970247L79.794,156.36365227711698L79.839,118.58519554914287L80.775,24.13754169285919L81.27,93.3693257944348L81.43199999999999,70.5480644882967L81.477,248.40905838490775L81.59400000000001,88.9908553295148L81.639,60.24007315592219L81.783,0.0005816035536679118L81.82799999999999,91.81097014651945L81.909,75.54581932878743L82.053,57.82532473482813L82.575,151.26147901949784L82.998,186.30007313874862L83.08800000000001,55.32886921001288L83.268,70.23015445059475L83.73599999999999,0.0027156064389952297L84.096,29.968039563585375L84.16799999999999,70.1034510791457L84.249,117.79537632983799L84.393,25.4284185502911L84.762,55.717343874275684L84.789,43.97981887450442L84.888,115.18223467438172L85.437,148.14837199635804L85.482,92.51477032123755L85.5,26.495085471348535L86.004,0.7618619996295148L86.571,65.26234584162012L86.598,67.83829755654249L86.652,1.7280001373971334L86.994,0.000006455030494290082L87.12,6.473355068786374L87.381,139.74090486299247L87.795,99.03216564639783L87.98400000000001,84.44908493896946L88.29,9.608109705344146L88.56,58.496000764425844L88.69500000000001,4.590937669878871L88.821,8.945799324525682L89.33399999999999,68.00820385028298L89.43299999999999,150.37284119209897L89.442,122.36419634738317L89.694,114.48973960864048L89.72999999999999,60.30106448257963L89.74799999999999,65.21707266025867L89.856,118.66072703928998L90.072,116.99032246523227L90.18,69.85894073615782L90.252,75.24887121360128L90.30600000000001,125.51993927918375L90.405,171.91445382932824L90.477,41.24966142931953L90.495,115.03955822127561L90.855,67.36055121136208L90.93599999999999,144.28613887168467L90.954,65.86949436731327L91.26,80.08013502849887L91.31400000000001,35.57757573881342L91.458,52.10865375158998L92.06099999999999,84.49223951126139L92.08800000000001,139.5450873649679L92.32199999999999,106.41642371735847L92.664,118.35033762423943L92.673,120.18092135122667L92.90700000000001,36.17377518734429L93.06,85.6358928179058L93.168,94.8274738706338L93.213,74.21469109676157L93.57300000000001,127.35338005159672L93.627,44.927157996765644L93.879,96.26343369251117L94.39200000000001,70.78954196767882L94.932,93.87361628934741L95.22,115.33175924560055L95.616,86.29929876575868L95.814,0.0010340058557342848L95.985,55.302817351184785L95.994,54.85849404203084L96.246,30.80729006420977L96.462,85.05527086012687L96.57900000000001,0.6884053700438688L97.011,0.056265762362954774L97.137,0.15317497901226138L97.182,0.06920461541956331L97.686,66.14183672820218L97.78500000000001,117.38063882493104L97.91099999999999,0.27811728414387643L98.09100000000001,0.11235509701994136L98.217,98.27707930856074L98.937,67.37414195667952L99.207,100.9656469632561L99.45,29.908032818736206L99.50399999999999,48.128174109927684L99.58500000000001,5.420589322020533L100.08,47.37496902661708L100.161,173.02335667268684L100.449,154.22809433502456L100.485,228.09555331710726L100.764,84.97982727906977L100.818,151.72947185114026L100.98,58.65796886733733L101.03399999999999,73.12605129865308L101.286,104.07901771366596L101.30399999999999,115.4366347899971L101.502,0.00005621460584803728L101.52,0.000012496169969899995L101.925,64.19125709333457L102.015,55.770515687375635L102.303,69.54715356657591L102.348,94.00342285167426L102.411,109.71783201132591L102.771,69.6553520745753L102.80699999999999,83.27109434176236L103.38300000000001,1.5148385879850377L103.572,0.00169342772007223L103.815,154.79115205661705L104.04,47.341792136042685L104.571,3.651358199130428e-7L104.607,0.0001696291579733611L104.88600000000001,15.650627818249632L105.426,49.261933248490095L105.786,64.94942024932243L106.137,177.54517169979712L106.245,8.082905674139807L106.263,132.97063904038322L106.326,42.91823309885028L106.461,50.78447912858489L106.62299999999999,63.742265811500445L106.749,35.613227270271935L106.866,46.58029722554299L106.911,55.63842348870821L107.00099999999999,49.79705346127351L107.622,1.8838519653703099L108.36,164.56514841256043L108.441,156.50182778481394L108.52199999999999,38.83208233552675L108.612,23.01205479966786L108.855,0.8602654433100962L109.557,0.0000014379231058625486L109.566,11.930957963728973L109.746,0.00030095878713609636L109.854,57.38900994377521L109.926,28.614116504516755L110.29499999999999,107.32953543541953L110.304,59.4521307956893L110.46600000000001,43.14980761924137L110.835,60.923535562663645L110.934,49.32609809329733L111.051,0.0003509661364500625L111.168,91.8277871554407L111.321,55.499078790113956L111.56400000000001,0.62887910331483L111.654,15.415809452436703L111.771,3.9016647470028385L112.05,5.583661782875424L112.059,5.606648361620797L112.068,5.628130596063171L112.158,5.811504562395088L112.275,4.926877587228477L112.329,4.989659512163302L112.455,5.213498582064245L113.085,11.506349366876135L113.328,19.955262339596334L113.607,0.4880822564397694L113.76,62.55368216894567L114.237,53.196194686073184L114.39,95.7098965253681L114.453,70.46437943005003L114.93900000000001,1.1700396320884465L115.038,34.798310005765714L115.59599999999999,23.986549039836973L115.623,19.66376898344606L115.632,54.38120482411857L116.07300000000001,22.68177155754529L116.523,132.75914735160768L116.57700000000001,58.37493676110171L116.586,39.36544436650972L116.64,66.82374314405024L117.027,160.97427306696773L117.17999999999999,84.88175589824095L117.56700000000001,49.04769879610588L117.67500000000001,14.144016559584998L117.88199999999999,119.36713811398174L118.044,39.61991920485161L118.215,23.870847491004202L118.30499999999999,79.14307687431574L118.323,59.805925323938325L118.881,7.765761887712497e-9L118.971,22.361224247142673L119.034,59.68898425693624L119.223,0.00014570556754382215L119.45700000000001,0.007709314920235891L120.09599999999999,20.465570211720955L120.591,48.422454184231654L121.30199999999999,146.42741090462854L121.716,52.484856306885675L121.725,22.797598376831342L121.77000000000001,50.2380318295521L121.842,71.95830211043358L122.004,52.04084067954682L122.364,64.17673011620839L122.58,0.0005136082816523304L122.634,47.06177531159483L122.643,16.468939472494345L122.949,3.732109814906538L123.048,120.23616342339665L123.39,0.600321560705197L123.426,0.5176582739325806L123.47999999999999,36.68077767768409L123.552,3.7262334894733184e-8L124.488,110.35494435035314L124.497,92.74985680977504L125.06400000000001,60.49115030793473L125.15400000000001,136.10598706329864L125.199,26.741296855228324L125.505,164.48973999513936L125.55000000000001,48.94326719261396L125.66699999999999,130.2059860682736L125.685,100.2266831525291L126.25200000000001,10.341004492268736L126.64800000000001,83.3483136864379L126.72,22.610820130988326L127.017,0.7856663389490439L127.782,63.957906809325024L128.142,63.01568399610308L128.322,34.325972267348945L128.40300000000002,137.8205747460015L128.592,79.51311260694638L128.871,1.7906721759694175L128.889,41.09857647175279L128.92499999999998,19.87067621317692L129.114,20.51318177487701L129.141,0.00016399654292342802L129.177,1.6930060427189364e-7L129.321,29.66472683028162L129.40200000000002,9.548451300264174L129.456,10.06823797002046L130.113,37.078546530489504L130.266,159.74968186113983L130.761,91.204555661728L131.202,157.19761065052202L131.733,120.13564816986522L132.09300000000002,97.39955319014068L132.129,57.983710542321205L132.408,0.01999027596355063L132.633,86.95612911367789L132.957,69.04332019893143L133.236,15.370817580163317L133.254,40.722782693725705L133.362,84.1765755508095L133.70399999999998,15.107803472589397L133.81199999999998,42.50011988488647L134.064,36.921369472984225L134.1,111.63585891015828L134.118,131.41766342877722L134.307,52.741555245205134L134.316,58.601162013364956L134.451,54.71472312075396L134.559,106.32467300010225L134.80200000000002,96.20865753851831L134.82,99.59721011342481L134.838,46.90054124958503L135.504,47.78540338156745L135.927,78.19818602021162L136.35,89.57675183269507L136.89000000000001,18.22313899116125L137.55599999999998,0.00028244386732016215L137.637,48.881823134142905L138.24,144.5549297053367L138.62699999999998,96.96740089450032L138.66299999999998,108.26836056231211L138.816,121.14888834146163L139.014,41.02733054974426L139.26600000000002,5.326554067287361L139.302,47.105501292971894L139.491,0.012253143911594969L139.608,29.971162534008432L139.73399999999998,59.23235367517918L139.842,0.3590491567471635L139.851,7.826748524963206e-7L139.95,0.0008075559781470423L140.346,32.697799220137924L141.21,14.904876326909289L141.561,104.23113560304046L141.768,2.1128289095092203L141.867,19.74429590763368L142.25400000000002,0.004800676023007674L142.659,0.0005107521349554025L143.01,0.00013217029269348667L143.28,72.72393753907333L143.613,40.56411118169005L144.216,22.012157030209597L144.30599999999998,103.73226909898221L144.46800000000002,143.0667606748951L144.54,116.48970657028258L144.81,0.00033162824262159864L145.125,53.306841462229684L145.296,66.4445956342388L145.314,30.768849616870284L145.341,6.811958906279573L145.458,104.71737836177151L145.962,36.236660954891704L146.142,18.770430217458237L146.736,80.95294921969374L146.99699999999999,128.16945771609124L147.15900000000002,45.19563235769358L147.528,31.336680802050978L147.762,18.900959832050535L148.257,0.0005524301798143227L148.338,37.483038230954364L148.572,131.78847276140004L148.932,60.984786221136645L149.436,85.76529499841854L149.535,77.27404171135277L149.661,0.0011768145319734913L149.778,0.010507295352978082L149.94,28.264633917133324L150.11100000000002,0.24009428479378234L150.21,2.186125860474318L150.264,68.88151033238198L150.37199999999999,50.900633409231276L150.525,4.861785301521492L150.84,17.980215407248284L150.903,132.40439021882293L151.659,143.2196609551708L151.70399999999998,40.89945359194341L151.76700000000002,0.0000026798560620409223L151.821,0.00045637501870032793L152.109,42.67472491948865L152.118,45.018214232210696L152.163,42.7456543687731L152.28900000000002,138.60227116538834L152.36100000000002,82.47702911340942L152.37,51.38586521342707L152.964,5.4665092504707635e-9L152.982,53.78066266654059L153.333,43.17065086448565L153.711,5.23315716403211e-7L154.125,24.06897260264184L154.323,0.0003963681043064691L155.22299999999998,6.284208222399071L155.358,6.611138831600941L155.511,66.99358790142772L155.583,30.839097770707053L155.889,0.11933937120375049L156.177,78.2230027563249L156.29399999999998,0.5991123986435252L156.32999999999998,36.27117626136169L156.60899999999998,71.99257786463325L156.807,4.718880282014726e-8L156.843,0.0003827350591781107L156.978,59.762256483469784L157.689,3.382013512188381L158.103,38.17458827397786L158.112,79.08001089313377L158.148,15.097267568150231L158.4,37.58798849807742L158.50799999999998,76.259421367043L158.598,0.000608483525889306L158.63400000000001,0.0003886710287179431L158.76,0.00007110184712418553L158.895,42.855008881306276L159.102,105.14897683014473L159.183,12.555449854019868L159.309,47.00461242580786L160.38,68.39006775097612L160.524,38.3047464726648L160.65,0.008890102906592682L160.776,3.0777988865641657L160.857,67.54114285499479L161.118,88.57651341551295L161.28900000000002,97.44733178056777L161.433,58.70691225320722L161.487,59.65772817997883L161.622,0.006086782146853801L161.676,78.37025048211217L161.928,93.28728024071704L161.946,70.60855473314102L163.008,88.19642967389275L163.215,37.95479796710424L163.26,61.60334095126018L163.53,3.3423643148610847L163.926,0.13621730696211112L164.01600000000002,86.26569991155218L164.259,230.54380389240882L164.358,33.09093746162641L164.655,62.5107385784698L164.727,144.27961601720503L164.898,7.919488170106591L164.99699999999999,66.09680969229278L165.375,20.889540368807502L165.807,100.33522450597957L165.816,0.8850378128045122L166.635,133.38861159980297L166.806,98.23800371804586L166.896,42.27763955985817L167.202,28.412622277004015L167.463,35.24306626718801L167.571,30.754795151102986L167.643,6.131033775648872L168.183,84.62095600087196L168.192,77.09504122224946L168.64200000000002,50.90569257736206L168.669,85.4940778738819L168.687,164.28688097900402L168.741,48.532569110393524L169.335,52.62430210093346L169.632,50.736775260884315L170.04600000000002,114.17821616632864L170.21699999999998,126.77306577563286L170.24399999999997,52.73956410431613L170.361,0.005227411234329793L170.901,115.29008154602101L171.504,20.193306969013065L171.94500000000002,76.8446145975031L171.963,33.45994026244928L172.053,86.83937705121934L172.368,10.039312582812272L172.449,18.25198196359754L173.097,33.04504012572579L173.133,3.4510152799581864L173.655,70.65140162361786L174.024,0.004044529880573577L174.29399999999998,36.41118906904012L174.31199999999998,28.95600814197678L174.43800000000002,0.9257299690701313L174.465,91.03838989976794L174.681,1.169213286642231L175.041,82.04691630865757L175.077,11.763129621103872L175.536,85.88987096988906L175.66199999999998,13.389507125151182L176.00400000000002,80.89056892941396L176.031,21.98493817821145L176.202,102.84958271697785L176.598,12.971482919141023L176.652,45.764738224679604L176.661,83.94036382591973L176.805,11.6122127896718L176.913,35.28160561225377L177.57899999999998,86.87483957813431L177.597,49.55755393641691L177.768,21.16179701833364L177.88500000000002,161.0539362843459L177.975,52.212052423274145L178.047,6.109906474157469L179.064,15.28751822304912L179.32500000000002,49.36049692022304L179.397,52.703187322864935L180.153,38.54952933383174L180.216,6.941468175102744e-7L180.58499999999998,70.49475641610722L181.071,31.054147579901223L181.20600000000002,42.590850856698424L181.215,8.16642205682001L181.35,8.586051153154882L181.557,113.51217294577509L181.71,50.307269028853625L181.791,14.46512978475464L182.097,116.02925633856407L182.367,88.70031578699127L182.42999999999998,12.166430153398936L182.844,4.469740154624263L183.285,41.85743850500633L183.375,112.38364879352352L183.438,39.175191513883576L183.447,20.485404700157233L183.483,46.86351394086766L183.83399999999997,29.65311843494419L183.933,37.30372566458148L184.08599999999998,1.8972663430758985L184.19400000000002,0.41138696669502123L184.563,153.42741834310195L184.59,23.19556282736205L184.833,49.21884021256119L184.896,41.38530515522386L185.094,47.68156076897867L185.238,73.95097261760384L185.31,62.3783606752598L185.49900000000002,28.974954748603817L185.607,0.10435530973381901L185.679,43.68294108659029L185.715,1.0883178310662753L185.75099999999998,84.48897808402155L186.381,94.46921795606613L187.002,5.6337829991426336e-9L187.506,119.69854659245661L187.623,67.48804576462135L188.154,66.71271835880664L188.16299999999998,33.81718302475444L188.27100000000002,11.344685649188863L188.379,89.42996123417592L188.514,34.779132637777366L188.604,26.32418800261803L188.73,56.89551908057183L188.847,0.20998966238796687L188.928,0.05819537547381515L189.216,46.17744502960704L189.792,58.30911043449305L190.06199999999998,33.33592471142765L190.107,16.25871257575152L190.116,5.946870825234031L190.224,94.63082123625404L190.32299999999998,128.99232196233547L191.34,25.947090972331353L191.349,30.90931515636232L191.403,112.37677430268377L191.42999999999998,83.9133845261919L191.538,104.3209523203162L191.673,135.02939081052318L192.366,9.105838201517447e-10L192.60000000000002,50.30007806528981L192.654,48.49937024254662L192.663,0.5567347916136658L193.203,63.02498917328194L193.437,52.50461827032268L193.84199999999998,73.9417333722425L193.869,3.2589916085998993L194.067,79.96907068416476L194.409,34.6033935759139L194.49900000000002,25.3914769529365L194.535,14.992350266935931L194.544,16.62688903112819L195.399,94.59704656386748L195.417,97.61427114252001L195.462,131.1753596039489L196.01999999999998,21.816115364005487L196.389,52.6801551412791L196.839,141.02918620454147L196.91099999999997,12.17446724195422L197.046,55.023833458544686L197.136,96.946373040167L197.172,158.5809832547481L197.298,91.47848917714632L197.70299999999997,112.36371101190647L197.78400000000002,52.13640665131L198,128.44653837693235L198.02700000000002,99.37680444292104L198.432,0.27921029288638793L199.071,10.45016011048574L199.215,50.353975128382444L199.40400000000002,16.69415267135871L199.467,0.000010175145218893622L199.827,0.548249847452098L200.385,3.1669153529946925L200.403,0.18014595141419146L201.08700000000002,23.690528365550563L201.267,40.067591850335404L201.573,116.66439951397479L201.71699999999998,50.221852161533505L201.81599999999997,67.89233087872465L202.212,64.87368217281376L202.34699999999998,45.16088628986229L202.356,125.98114552907646L202.39200000000002,44.35060183440025L202.509,29.717854688836564L202.644,63.68078658939339L203.193,44.79153624813382L203.526,8.041627960919868L203.724,67.01096752852511L205.31699999999998,0.32825333195130396L205.506,15.14784386536728L205.776,9.103552998067366e-8L206.064,91.67663626605645L206.14499999999998,20.58872425366037L206.316,43.8750400301069L206.478,5.062974044946417L206.874,0.442347346318753L206.95499999999998,8.322807383083273L207.135,18.42342227095894L207.333,14.57086903596064L207.54000000000002,0.031183360944737615L207.69299999999998,0.7208959516053017L207.72,3.7547101430876193L207.74699999999999,69.82214638652901L208.08,69.4213908223901L208.332,10.894172441233719L208.494,118.42494606894131L208.512,67.07959375965099L209.25900000000001,0.6818786008625466L209.358,26.178074304092046L209.601,0.04911504038698137L209.835,21.611284986526403L210.06,3.811992530293834L210.08700000000002,6.947731748659862L211.041,54.85288104663293L211.07700000000003,63.80744161084294L211.212,63.28509019338526L211.23,36.76208259731841L211.275,40.57863376336172L211.32899999999998,59.69550271596138L211.446,46.36404525954276L211.518,96.08720233974358L211.84199999999998,85.79170288906123L211.98600000000002,62.94725556042977L212.634,31.814941415407997L212.679,23.1214378826553L212.877,0.0000012140213672736516L212.89499999999998,10.120388938812539L213.00300000000001,36.457892970841684L213.07500000000002,13.633688907915099L213.129,1.0959210058475275L213.363,2.41347950832278L213.399,1.2196462884778159e-8L213.615,92.1158740343526L213.714,21.476911546972882L213.921,52.19044876440118L214.029,7.717838453390868L214.31699999999998,5.323362967319554L214.911,51.50949176672536L215.028,33.89007943992813L215.289,84.6547130914405L215.38799999999998,42.902365508101255L215.703,21.15934655244928L215.802,48.80449390310484L216.756,38.32940936787054L216.774,19.667606215225533L216.85500000000002,1.0565655485030891L216.891,34.804599901156806L216.9,49.9099990601341L216.963,2.4453281474901143L217.107,0.19182450232619885L217.15200000000002,0.0021764322071096496L217.566,1.1303769050027768L217.60199999999998,7.427779114271585L217.62,94.58982043666765L217.971,41.941158726889014L217.998,58.1773434994587L218.124,66.19377781404182L218.826,39.816290530143306L218.88899999999998,37.565299161942676L219.123,42.40530553584297L221.08499999999998,121.4961292470495L221.301,45.40187587379478L221.535,86.42333849178006L221.544,85.83379376136388L221.74200000000002,65.70754384621978L221.832,107.92789744756496L221.976,4.0875801101841045L222.183,56.9400626164861L222.579,33.151339797380686L222.975,54.09832216333598L223.06500000000003,74.28898306873937L223.083,45.765924997394904L223.14600000000002,143.02655984802794L223.28099999999998,42.81434653171648L223.92000000000002,93.80656802638745L223.93800000000002,161.11999117458862L224.271,46.084410839636504L224.703,0.1703143498798454L224.892,6.973094070563093L225.144,61.569513533419624L225.21599999999998,118.5900481309121L225.306,13.998837994004134L225.621,31.863557339917566L225.954,0.003811567304410346L226.323,71.64020746364258L226.449,90.22909881702314L226.83599999999998,15.10640132260353L227.106,17.852726348307147L227.322,26.877426278855022L227.538,75.69566916363935L227.547,41.26877286549036L228.51000000000002,120.50903323882571L228.80700000000002,8.603401110934398L229.05,83.51349486658971L229.365,80.19256196372832L229.419,25.478150920243934L229.455,24.154415842688945L229.995,14.981048454549933L230.04,42.32021832761045L230.157,87.19176942948252L230.36399999999998,56.48694400287543L230.472,24.457179144180078L231.15599999999998,7.763522609748179L231.51600000000002,2.035706676906557L231.876,10.890029725366434L231.903,15.75496821606066L232.2,41.08639227187571L232.398,54.86667837831192L232.488,12.178156127144279L232.77599999999998,47.992833670383945L232.92000000000002,40.169091685675085L233.172,60.68478766052674L233.181,48.4668438792384L234.018,46.80368740965302L234.35999999999999,35.15395721808697L234.81900000000002,7.946043415266169e-7L234.83700000000002,0.0000020020674696367285L235.161,42.6255002245307L235.323,18.986559110732447L235.35000000000002,60.04306448972784L235.98,35.129114109246686L236.40300000000002,0.27581125014724067L236.68200000000002,24.700625787178684L236.87099999999998,31.632995971788954L237.339,62.01057981078823L237.852,26.798947636464913L238.086,19.418885026825592L238.75199999999998,67.93636014646229L238.851,148.94748320647827L238.87800000000001,113.59763816309473L239.14800000000002,82.56332946708426L239.202,73.52114991284907L239.607,6.203615915825752L240.49800000000002,0.3468915356340166L241.04700000000003,36.38164282388364L241.26299999999998,74.00097530800849L241.317,33.33817957958672L241.506,31.561275340694305L241.722,35.740706439440444L241.92000000000002,11.407495595146132L242.037,85.43747321081658L242.43300000000002,9.54624697983188L242.739,1.7634121165853447L242.775,0.0036079840384264737L242.92800000000003,18.773067490158905L242.946,22.105076938363094L243.97199999999998,127.54345708604282L244.152,97.6963870235098L244.242,91.58880629421523L244.46699999999998,177.20807550319782L244.854,30.762889380566776L244.98,43.96430731557L245.10600000000002,12.156087648957806L245.33999999999997,0.0035000354424852276L245.42100000000002,2.466952684771968L245.844,38.16607867406371L245.88,28.701531105907634L245.97,5.697656247066334L246.069,13.867194131695827L246.105,10.51301730757889L246.132,28.237252433318645L246.204,66.88043132075109L246.393,130.7682789807829L246.456,0.025072423650657462L246.64499999999998,2.2407595742697595L246.95999999999998,63.860143110311284L247.14,48.73268096746567L247.158,58.17594134947285L247.311,24.608699251742404L247.43699999999998,51.22732996048096L247.5,27.776654953874345" fill="none"></path></g></g></g></g></g></g><g transform="translate(60, 176)" clip-path="url(#clip_1)"><clipPath id="clip_1"><rect width="270" height="23"></rect></clipPath><g><g><line x1="0" y1="0" x2="0" y2="5" style="visibility: inherit;" fill="rgb(0, 0, 0)" stroke="rgb(204, 204, 204)" stroke-width="1.333333px"></line><line x1="22.5" y1="0" x2="22.5" y2="5" style="visibility: inherit;" fill="rgb(0, 0, 0)" stroke="rgb(204, 204, 204)" stroke-width="1.333333px"></line><line x1="45" y1="0" x2="45" y2="5" style="visibility: inherit;" fill="rgb(0, 0, 0)" stroke="rgb(204, 204, 204)" stroke-width="1.333333px"></line><line x1="67.5" y1="0" x2="67.5" y2="5" style="visibility: inherit;" fill="rgb(0, 0, 0)" stroke="rgb(204, 204, 204)" stroke-width="1.333333px"></line><line x1="90" y1="0" x2="90" y2="5" style="visibility: inherit;" fill="rgb(0, 0, 0)" stroke="rgb(204, 204, 204)" stroke-width="1.333333px"></line><line x1="112.5" y1="0" x2="112.5" y2="5" style="visibility: inherit;" fill="rgb(0, 0, 0)" stroke="rgb(204, 204, 204)" stroke-width="1.333333px"></line><line x1="135" y1="0" x2="135" y2="5" style="visibility: inherit;" fill="rgb(0, 0, 0)" stroke="rgb(204, 204, 204)" stroke-width="1.333333px"></line><line x1="157.5" y1="0" x2="157.5" y2="5" style="visibility: inherit;" fill="rgb(0, 0, 0)" stroke="rgb(204, 204, 204)" stroke-width="1.333333px"></line><line x1="180" y1="0" x2="180" y2="5" style="visibility: inherit;" fill="rgb(0, 0, 0)" stroke="rgb(204, 204, 204)" stroke-width="1.333333px"></line><line x1="202.5" y1="0" x2="202.5" y2="5" style="visibility: inherit;" fill="rgb(0, 0, 0)" stroke="rgb(204, 204, 204)" stroke-width="1.333333px"></line><line x1="225" y1="0" x2="225" y2="5" style="visibility: inherit;" fill="rgb(0, 0, 0)" stroke="rgb(204, 204, 204)" stroke-width="1.333333px"></line><line x1="247.5" y1="0" x2="247.5" y2="5" style="visibility: inherit;" fill="rgb(0, 0, 0)" stroke="rgb(204, 204, 204)" stroke-width="1.333333px"></line><line x1="270" y1="0" x2="270" y2="5" style="visibility: inherit;" fill="rgb(0, 0, 0)" stroke="rgb(204, 204, 204)" stroke-width="1.333333px"></line></g><g transform="translate(0, 8)"><text style="text-anchor: middle; visibility: hidden; font-family: Roboto, sans-serif; font-size: 16px; font-weight: 200;" x="0" y="0" dx="0em" dy="0.95em" fill="rgb(33, 33, 33)" stroke="none" stroke-width="1.333333px">-10k</text><text style="text-anchor: middle; visibility: inherit; font-family: Roboto, sans-serif; font-size: 16px; font-weight: 200;" x="22.5" y="0" dx="0em" dy="0.95em" fill="rgb(33, 33, 33)" stroke="none" stroke-width="1.333333px">0</text><text style="text-anchor: middle; visibility: hidden; font-family: Roboto, sans-serif; font-size: 16px; font-weight: 200;" x="45" y="0" dx="0em" dy="0.95em" fill="rgb(33, 33, 33)" stroke="none" stroke-width="1.333333px">10k</text><text style="text-anchor: middle; visibility: inherit; font-family: Roboto, sans-serif; font-size: 16px; font-weight: 200;" x="67.5" y="0" dx="0em" dy="0.95em" fill="rgb(33, 33, 33)" stroke="none" stroke-width="1.333333px">20k</text><text style="text-anchor: middle; visibility: hidden; font-family: Roboto, sans-serif; font-size: 16px; font-weight: 200;" x="90" y="0" dx="0em" dy="0.95em" fill="rgb(33, 33, 33)" stroke="none" stroke-width="1.333333px">30k</text><text style="text-anchor: middle; visibility: inherit; font-family: Roboto, sans-serif; font-size: 16px; font-weight: 200;" x="112.5" y="0" dx="0em" dy="0.95em" fill="rgb(33, 33, 33)" stroke="none" stroke-width="1.333333px">40k</text><text style="text-anchor: middle; visibility: hidden; font-family: Roboto, sans-serif; font-size: 16px; font-weight: 200;" x="135" y="0" dx="0em" dy="0.95em" fill="rgb(33, 33, 33)" stroke="none" stroke-width="1.333333px">50k</text><text style="text-anchor: middle; visibility: inherit; font-family: Roboto, sans-serif; font-size: 16px; font-weight: 200;" x="157.5" y="0" dx="0em" dy="0.95em" fill="rgb(33, 33, 33)" stroke="none" stroke-width="1.333333px">60k</text><text style="text-anchor: middle; visibility: hidden; font-family: Roboto, sans-serif; font-size: 16px; font-weight: 200;" x="180" y="0" dx="0em" dy="0.95em" fill="rgb(33, 33, 33)" stroke="none" stroke-width="1.333333px">70k</text><text style="text-anchor: middle; visibility: inherit; font-family: Roboto, sans-serif; font-size: 16px; font-weight: 200;" x="202.5" y="0" dx="0em" dy="0.95em" fill="rgb(33, 33, 33)" stroke="none" stroke-width="1.333333px">80k</text><text style="text-anchor: middle; visibility: hidden; font-family: Roboto, sans-serif; font-size: 16px; font-weight: 200;" x="225" y="0" dx="0em" dy="0.95em" fill="rgb(33, 33, 33)" stroke="none" stroke-width="1.333333px">90k</text><text style="text-anchor: middle; visibility: inherit; font-family: Roboto, sans-serif; font-size: 16px; font-weight: 200;" x="247.5" y="0" dx="0em" dy="0.95em" fill="rgb(33, 33, 33)" stroke="none" stroke-width="1.333333px">100k</text><text style="text-anchor: middle; visibility: hidden; font-family: Roboto, sans-serif; font-size: 16px; font-weight: 200;" x="270" y="0" dx="0em" dy="0.95em" fill="rgb(33, 33, 33)" stroke="none" stroke-width="1.333333px">110k</text></g><line x1="0" y1="0" x2="270" y2="0" fill="rgb(0, 0, 0)" stroke="rgb(204, 204, 204)" stroke-width="1.333333px"></line></g></g></g></g></svg>