<svg viewBox="0 0 330 200" xmlns="http://www.w3.org/2000/svg"><g><g><g><g><g><line x1="40" y1="176.984375" x2="35" y2="176.984375" style="visibility: inherit;" fill="rgb(0, 0, 0)" stroke="rgb(204, 204, 204)" stroke-width="1.333333px"></line><line x1="40" y1="164.34263392857144" x2="35" y2="164.34263392857144" style="visibility: inherit;" fill="rgb(0, 0, 0)" stroke="rgb(204, 204, 204)" stroke-width="1.333333px"></line><line x1="40" y1="151.70089285714286" x2="35" y2="151.70089285714286" style="visibility: inherit;" fill="rgb(0, 0, 0)" stroke="rgb(204, 204, 204)" stroke-width="1.333333px"></line><line x1="40" y1="139.05915178571428" x2="35" y2="139.05915178571428" style="visibility: inherit;" fill="rgb(0, 0, 0)" stroke="rgb(204, 204, 204)" stroke-width="1.333333px"></line><line x1="40" y1="126.41741071428572" x2="35" y2="126.41741071428572" style="visibility: inherit;" fill="rgb(0, 0, 0)" stroke="rgb(204, 204, 204)" stroke-width="1.333333px"></line><line x1="40" y1="113.77566964285712" x2="35" y2="113.77566964285712" style="visibility: inherit;" fill="rgb(0, 0, 0)" stroke="rgb(204, 204, 204)" stroke-width="1.333333px"></line><line x1="40" y1="101.13392857142857" x2="35" y2="101.13392857142857" style="visibility: inherit;" fill="rgb(0, 0, 0)" stroke="rgb(204, 204, 204)" stroke-width="1.333333px"></line><line x1="40" y1="88.4921875" x2="35" y2="88.4921875" style="visibility: inherit;" fill="rgb(0, 0, 0)" stroke="rgb(204, 204, 204)" stroke-width="1.333333px"></line><line x1="40" y1="75.85044642857143" x2="35" y2="75.85044642857143" style="visibility: inherit;" fill="rgb(0, 0, 0)" stroke="rgb(204, 204, 204)" stroke-width="1.333333px"></line><line x1="40" y1="63.20870535714285" x2="35" y2="63.20870535714285" style="visibility: inherit;" fill="rgb(0, 0, 0)" stroke="rgb(204, 204, 204)" stroke-width="1.333333px"></line><line x1="40" y1="50.566964285714285" x2="35" y2="50.566964285714285" style="visibility: inherit;" fill="rgb(0, 0, 0)" stroke="rgb(204, 204, 204)" stroke-width="1.333333px"></line><line x1="40" y1="37.925223214285715" x2="35" y2="37.925223214285715" style="visibility: inherit;" fill="rgb(0, 0, 0)" stroke="rgb(204, 204, 204)" stroke-width="1.333333px"></line><line x1="40" y1="25.283482142857153" x2="35" y2="25.283482142857153" style="visibility: inherit;" fill="rgb(0, 0, 0)" stroke="rgb(204, 204, 204)" stroke-width="1.333333px"></line><line x1="40" y1="12.641741071428566" x2="35" y2="12.641741071428566" style="visibility: inherit;" fill="rgb(0, 0, 0)" stroke="rgb(204, 204, 204)" stroke-width="1.333333px"></line><line x1="40" y1="0" x2="35" y2="0" style="visibility: inherit;" fill="rgb(0, 0, 0)" stroke="rgb(204, 204, 204)" stroke-width="1.333333px"></line></g><g transform="translate(30, 0)"><text style="text-anchor: end; visibility: hidden; font-family: Roboto, sans-serif; font-size: 16px; font-weight: 200;" x="0" y="176.984375" dx="0em" dy="0.3em" fill="rgb(33, 33, 33)" stroke="none" stroke-width="1.333333px">-10</text><text style="text-anchor: end; visibility: inherit; font-family: Roboto, sans-serif; font-size: 16px; font-weight: 200;" x="0" y="164.34263392857144" dx="0em" dy="0.3em" fill="rgb(33, 33, 33)" stroke="none" stroke-width="1.333333px">0</text><text style="text-anchor: end; visibility: hidden; font-family: Roboto, sans-serif; font-size: 16px; font-weight: 200;" x="0" y="151.70089285714286" dx="0em" dy="0.3em" fill="rgb(33, 33, 33)" stroke="none" stroke-width="1.333333px">10</text><text style="text-anchor: end; visibility: inherit; font-family: Roboto, sans-serif; font-size: 16px; font-weight: 200;" x="0" y="139.05915178571428" dx="0em" dy="0.3em" fill="rgb(33, 33, 33)" stroke="none" stroke-width="1.333333px">20</text><text style="text-anchor: end; visibility: hidden; font-family: Roboto, sans-serif; font-size: 16px; font-weight: 200;" x="0" y="126.41741071428572" dx="0em" dy="0.3em" fill="rgb(33, 33, 33)" stroke="none" stroke-width="1.333333px">30</text><text style="text-anchor: end; visibility: inherit; font-family: Roboto, sans-serif; font-size: 16px; font-weight: 200;" x="0" y="113.77566964285712" dx="0em" dy="0.3em" fill="rgb(33, 33, 33)" stroke="none" stroke-width="1.333333px">40</text><text style="text-anchor: end; visibility: hidden; font-family: Roboto, sans-serif; font-size: 16px; font-weight: 200;" x="0" y="101.13392857142857" dx="0em" dy="0.3em" fill="rgb(33, 33, 33)" stroke="none" stroke-width="1.333333px">50</text><text style="text-anchor: end; visibility: inherit; font-family: Roboto, sans-serif; font-size: 16px; font-weight: 200;" x="0" y="88.4921875" dx="0em" dy="0.3em" fill="rgb(33, 33, 33)" stroke="none" stroke-width="1.333333px">60</text><text style="text-anchor: end; visibility: hidden; font-family: Roboto, sans-serif; font-size: 16px; font-weight: 200;" x="0" y="75.85044642857143" dx="0em" dy="0.3em" fill="rgb(33, 33, 33)" stroke="none" stroke-width="1.333333px">70</text><text style="text-anchor: end; visibility: inherit; font-family: Roboto, sans-serif; font-size: 16px; font-weight: 200;" x="0" y="63.20870535714285" dx="0em" dy="0.3em" fill="rgb(33, 33, 33)" stroke="none" stroke-width="1.333333px">80</text><text style="text-anchor: end; visibility: hidden; font-family: Roboto, sans-serif; font-size: 16px; font-weight: 200;" x="0" y="50.566964285714285" dx="0em" dy="0.3em" fill="rgb(33, 33, 33)" stroke="none" stroke-width="1.333333px">90</text><text style="text-anchor: end; visibility: inherit; font-family: Roboto, sans-serif; font-size: 16px; font-weight: 200;" x="0" y="37.925223214285715" dx="0em" dy="0.3em" fill="rgb(33, 33, 33)" stroke="none" stroke-width="1.333333px">100</text><text style="text-anchor: end; visibility: hidden; font-family: Roboto, sans-serif; font-size: 16px; font-weight: 200;" x="0" y="25.283482142857153" dx="0em" dy="0.3em" fill="rgb(33, 33, 33)" stroke="none" stroke-width="1.333333px">110</text><text style="text-anchor: end; visibility: inherit; font-family: Roboto, sans-serif; font-size: 16px; font-weight: 200;" x="0" y="12.641741071428566" dx="0em" dy="0.3em" fill="rgb(33, 33, 33)" stroke="none" stroke-width="1.333333px">120</text><text style="text-anchor: end; visibility: hidden; font-family: Roboto, sans-serif; font-size: 16px; font-weight: 200;" x="0" y="0" dx="0em" dy="0.3em" fill="rgb(33, 33, 33)" stroke="none" stroke-width="1.333333px">130</text></g><line x1="40" y1="0" x2="40" y2="176.984375" fill="rgb(0, 0, 0)" stroke="rgb(204, 204, 204)" stroke-width="1.333333px"></line></g></g><g transform="translate(40, 0)" clip-path="url(#clip_0)"><clipPath id="clip_0"><rect width="290" height="176"></rect></clipPath><g><g><g><line x1="0" y1="0" x2="0" y2="176.984375" fill="rgb(0, 0, 0)" stroke="rgb(66, 66, 66)" stroke-width="1.333333px" opacity="0.25"></line><line x1="24.166666666666664" y1="0" x2="24.166666666666664" y2="176.984375" fill="rgb(0, 0, 0)" stroke="rgb(66, 66, 66)" stroke-width="1.333333px" opacity="0.25"></line><line x1="48.33333333333333" y1="0" x2="48.33333333333333" y2="176.984375" fill="rgb(0, 0, 0)" stroke="rgb(66, 66, 66)" stroke-width="1.333333px" opacity="0.25"></line><line x1="72.5" y1="0" x2="72.5" y2="176.984375" fill="rgb(0, 0, 0)" stroke="rgb(66, 66, 66)" stroke-width="1.333333px" opacity="0.25"></line><line x1="96.66666666666666" y1="0" x2="96.66666666666666" y2="176.984375" fill="rgb(0, 0, 0)" stroke="rgb(66, 66, 66)" stroke-width="1.333333px" opacity="0.25"></line><line x1="120.83333333333334" y1="0" x2="120.83333333333334" y2="176.984375" fill="rgb(0, 0, 0)" stroke="rgb(66, 66, 66)" stroke-width="1.333333px" opacity="0.25"></line><line x1="145" y1="0" x2="145" y2="176.984375" fill="rgb(0, 0, 0)" stroke="rgb(66, 66, 66)" stroke-width="1.333333px" opacity="0.25"></line><line x1="169.16666666666669" y1="0" x2="169.16666666666669" y2="176.984375" fill="rgb(0, 0, 0)" stroke="rgb(66, 66, 66)" stroke-width="1.333333px" opacity="0.25"></line><line x1="193.33333333333331" y1="0" x2="193.33333333333331" y2="176.984375" fill="rgb(0, 0, 0)" stroke="rgb(66, 66, 66)" stroke-width="1.333333px" opacity="0.25"></line><line x1="217.5" y1="0" x2="217.5" y2="176.984375" fill="rgb(0, 0, 0)" stroke="rgb(66, 66, 66)" stroke-width="1.333333px" opacity="0.25"></line><line x1="241.66666666666669" y1="0" x2="241.66666666666669" y2="176.984375" fill="rgb(0, 0, 0)" stroke="rgb(66, 66, 66)" stroke-width="1.333333px" opacity="0.25"></line><line x1="265.8333333333333" y1="0" x2="265.8333333333333" y2="176.984375" fill="rgb(0, 0, 0)" stroke="rgb(66, 66, 66)" stroke-width="1.333333px" opacity="0.25"></line><line x1="290" y1="0" x2="290" y2="176.984375" fill="rgb(0, 0, 0)" stroke="rgb(66, 66, 66)" stroke-width="1.333333px" opacity="0.25"></line></g><g><line x1="0" y1="176.984375" x2="290" y2="176.984375" fill="rgb(0, 0, 0)" stroke="rgb(66, 66, 66)" stroke-width="1.333333px" opacity="0.25"></line><line x1="0" y1="164.34263392857144" x2="290" y2="164.34263392857144" fill="rgb(0, 0, 0)" stroke="rgb(66, 66, 66)" stroke-width="1.333333px" opacity="0.25"></line><line x1="0" y1="151.70089285714286" x2="290" y2="151.70089285714286" fill="rgb(0, 0, 0)" stroke="rgb(66, 66, 66)" stroke-width="1.333333px" opacity="0.25"></line><line x1="0" y1="139.05915178571428" x2="290" y2="139.05915178571428" fill="rgb(0, 0, 0)" stroke="rgb(66, 66, 66)" stroke-width="1.333333px" opacity="0.25"></line><line x1="0" y1="126.41741071428572" x2="290" y2="126.41741071428572" fill="rgb(0, 0, 0)" stroke="rgb(66, 66, 66)" stroke-width="1.333333px" opacity="0.25"></line><line x1="0" y1="113.77566964285712" x2="290" y2="113.77566964285712" fill="rgb(0, 0, 0)" stroke="rgb(66, 66, 66)" stroke-width="1.333333px" opacity="0.25"></line><line x1="0" y1="101.13392857142857" x2="290" y2="101.13392857142857" fill="rgb(0, 0, 0)" stroke="rgb(66, 66, 66)" stroke-width="1.333333px" opacity="0.25"></line><line x1="0" y1="88.4921875" x2="290" y2="88.4921875" fill="rgb(0, 0, 0)" stroke="rgb(66, 66, 66)" stroke-width="1.333333px" opacity="0.25"></line><line x1="0" y1="75.85044642857143" x2="290" y2="75.85044642857143" fill="rgb(0, 0, 0)" stroke="rgb(66, 66, 66)" stroke-width="1.333333px" opacity="0.25"></line><line x1="0" y1="63.20870535714285" x2="290" y2="63.20870535714285" fill="rgb(0, 0, 0)" stroke="rgb(66, 66, 66)" stroke-width="1.333333px" opacity="0.25"></line><line x1="0" y1="50.566964285714285" x2="290" y2="50.566964285714285" fill="rgb(0, 0, 0)" stroke="rgb(66, 66, 66)" stroke-width="1.333333px" opacity="0.25"></line><line x1="0" y1="37.925223214285715" x2="290" y2="37.925223214285715" fill="rgb(0, 0, 0)" stroke="rgb(66, 66, 66)" stroke-width="1.333333px" opacity="0.25"></line><line x1="0" y1="25.283482142857153" x2="290" y2="25.283482142857153" fill="rgb(0, 0, 0)" stroke="rgb(66, 66, 66)" stroke-width="1.333333px" opacity="0.25"></line><line x1="0" y1="12.641741071428566" x2="290" y2="12.641741071428566" fill="rgb(0, 0, 0)" stroke="rgb(66, 66, 66)" stroke-width="1.333333px" opacity="0.25"></line><line x1="0" y1="0" x2="290" y2="0" fill="rgb(0, 0, 0)" stroke="rgb(66, 66, 66)" stroke-width="1.333333px" opacity="0.25"></line></g></g></g><g><g><line x1="0" y1="164.34263392857144" x2="290" y2="164.34263392857144" fill="rgb(0, 0, 0)" stroke="rgb(153, 153, 153)" stroke-width="2px"></line></g></g><g><g><line x1="24.166666666666664" y1="0" x2="24.166666666666664" y2="176.984375" fill="rgb(0, 0, 0)" stroke="rgb(153, 153, 153)" stroke-width="2px"></line></g></g><g><g><g><g><g><path style="fill: none;" stroke="rgb(255, 112, 67)" stroke-width="2.666667px" d="M24.360000000000003,55.93601025087496L24.64033333333333,106.77041207259253L24.785333333333334,130.98586600291117L24.795,139.9643674081033L25.046333333333333,149.22531431867898L25.181666666666665,34.34134796720245L25.220333333333333,77.42876676316668L25.423333333333336,106.80529302119253L25.77133333333333,122.64915277578719L25.848666666666666,139.05989248038895L26.03233333333333,145.32430158038866L26.544666666666664,122.2694294819837L26.689666666666664,134.40044164499045L26.912,142.4360068972888L27.269666666666666,139.51886052413397L27.724,128.369992096909L27.917333333333332,141.80113136901016L28.072,140.59002112043558L28.197666666666667,148.85552739520887L28.41033333333333,154.4932905133176L28.681,148.97488280193107L28.77766666666667,152.80367672010672L28.835666666666665,151.59110955956703L29.116,145.94421421954937L29.338333333333335,153.21825635895908L29.386666666666667,154.65570888254356L29.406000000000002,154.36840005422505L29.560666666666666,144.0287067354533L29.947333333333336,134.15360827780756L30.343666666666664,140.74922026130128L30.401666666666667,146.07746745271578L30.41133333333333,152.50839831790518L30.546666666666667,139.20690140739367L30.711,145.90870295455187L31.571333333333335,142.00721702300172L31.677666666666667,148.41889948483052L31.958000000000002,154.07664740677552L32.470333333333336,138.53016343370177L32.55733333333333,141.7834607171994L32.75066666666667,150.35939941303278L33.292,155.8040895227195L33.842999999999996,157.39268819780213L33.99766666666667,159.82216604677322L34.104,158.03334977622836L34.21033333333333,152.5220878943369L34.394,156.44727352890655L34.539,157.0997520692746L34.925666666666665,158.2689718171318L35.061,-675.3770594672509L36.28866666666667,-23.80694705272599L36.308,51.14026562592834L36.336999999999996,94.7084037304813L36.43366666666667,117.61948484443248L36.47233333333333,133.04636689578965L36.99433333333333,111.20535217309668L37.187666666666665,132.24664376713537L37.48733333333333,139.97427611790724L37.88366666666666,147.34628010445272L38.27033333333333,153.21211430674074L38.28,154.92508375152258L38.62800000000001,136.41200353020443L38.78266666666667,147.12433579579098L38.81166666666667,153.80637558909353L39.150000000000006,-84.25660725501217L39.179,13.910134289216389L39.31433333333334,50.35753980286289L39.614,92.93696606512715L39.913666666666664,120.24888853944067L39.991,130.90477464060024L40.32933333333334,109.21417919552347L40.474333333333334,120.42057395542702L40.638666666666666,137.0174934510506L40.657999999999994,142.93319617892007L40.72566666666666,150.90189067686703L41.36366666666667,153.92120908026672L42.04033333333333,157.42680320337814L42.166000000000004,160.18754918097804L42.543,160.8469974901297L42.63966666666666,158.35631177750764L42.93933333333334,152.51276122007434L43.132666666666665,157.278410206667L43.14233333333333,159.4747927191072L43.31633333333333,160.31515982775173L44.196000000000005,161.92216276510229L44.283,162.50628550849436L44.379666666666665,162.4909711489418L44.486000000000004,156.90715950331835L45.53966666666667,159.73931370772L46.603,161.55324666059215L46.989666666666665,162.5632932429957L47.328,163.082255431898L47.734,162.53056569291763L47.782333333333334,146.26724518124996L47.908,149.78430903397984L47.98533333333334,155.25444440040815L48.01433333333333,149.89855964725086L48.20766666666667,142.53700765968568L48.38166666666667,147.96113086154074L48.517,153.1943782792837L48.64266666666667,154.32299066149298L49.097,158.00868705392244L49.10666666666667,159.3145042646251L49.30966666666667,159.86883277330656L49.58033333333333,161.62669964862013L49.657666666666664,162.6525845650005L49.73500000000001,163.29243793184958L50.13133333333333,163.64931891270834L50.218333333333334,142.04398710843367L50.36333333333333,148.59332650945876L50.45033333333333,154.64735617916685L50.61466666666667,158.21647747705882L50.672666666666665,159.48681652471726L50.79833333333333,161.3448976785322L50.808,162.4045855819075L50.81766666666666,161.15978725180855L50.943333333333335,162.06959431792973L51.10766666666667,162.81630575856863L51.36866666666667,161.71376004399707L51.58133333333333,162.45055480825408L51.678,155.86154359280428L51.84233333333333,158.19104755090433L52.81866666666667,157.03062771647512L52.925,151.08433975009015L53.98833333333334,153.12401346604335L53.998000000000005,156.77455489719097L54.19133333333333,150.5736068030675L54.201,136.03351619791437L54.346000000000004,146.2348787945276L54.58766666666667,153.25893506596012L55.10966666666667,150.50358176259198L55.28366666666666,151.96905572554556L55.51566666666667,155.9310159733307L55.74766666666667,158.34253447612807L55.776666666666664,157.61434011906368L56.62733333333333,159.39925522693022L57.09133333333333,161.30445715046002L57.64233333333333,154.35156130738983L57.855000000000004,154.8812774875211L57.93233333333334,158.6753563158145L58.019333333333336,160.50729908093132L58.27066666666666,150.28439681369085L58.657333333333334,154.85281054953688L58.68633333333333,158.5453791710298L58.986,160.85605156253985L59.14066666666667,147.9993146973154L59.507999999999996,153.43060216783292L59.537000000000006,155.63302245425467L59.57566666666666,158.99953787844032L59.64333333333333,144.5693209290884L59.67233333333333,152.25644200919078L59.856,147.33163201293436L60.068666666666665,154.0217562567992L60.54233333333333,157.87129678457012L60.745333333333335,159.86663522843546L61.38333333333333,159.42308232217445L61.40266666666667,158.37076795220878L61.90533333333333,155.54066331841568L62.031,158.77423478262224L62.089000000000006,160.675337043379L62.205,161.67433405663877L62.234,98.72041354930758L62.611000000000004,115.50131451640343L62.96866666666667,134.39344088218186L63.075,145.7931108234097L63.18133333333333,153.05087537616367L63.239333333333335,135.15072949558422L63.306999999999995,146.6824197199569L63.66466666666667,152.76675401378535L63.90633333333333,156.85316140222616L64.02233333333334,158.41233700940776L64.05133333333333,157.79625256100584L64.264,160.33322733114076L64.60233333333333,161.7701687127674L64.70866666666666,161.82423302436317L65.047,162.83221549230382L65.337,163.09400678998432L65.92666666666666,158.21112054921338L66.02333333333333,160.1436122621309L67.24133333333333,161.5524293846337L68.02433333333333,160.0190989695288L68.063,159.50086410957644L68.30466666666668,160.01568540570054L68.76866666666666,161.76511451103607L69.12633333333333,161.8148941362815L69.52266666666667,160.66861128663948L69.542,162.08147162246527L69.6,163.00789955416343L69.687,163.1001183038317L69.90933333333334,162.96902662377306L70.36366666666667,161.34834193163704L70.89533333333333,162.56104425265312L70.92433333333334,162.86988470775896L70.934,162.46626063880524L71.01133333333334,163.03002287023762L71.37866666666667,155.80023413003724L71.64933333333333,158.93524048225896L71.833,160.01172722700682L72.02633333333334,161.51301113925214L72.32600000000001,162.41814113949562L73.283,162.70414923500908L73.37,163.3404606887746L73.38933333333333,163.7133141897L73.79533333333333,163.37827929073157L73.834,163.76626744100653L73.979,163.99662933840642L74.008,164.09336482395642L74.01766666666666,164.05128968645872L74.327,162.73464442371528L74.45266666666666,162.75969310235607L74.69433333333333,163.40293635578644L74.82000000000001,163.75310355843254L74.965,163.93763494098727L75.05199999999999,164.07917711184223L75.081,163.86546298290628L75.37100000000001,164.02104572995168L75.603,164.14775980756977L75.63199999999999,164.20257950440637L76.01866666666666,-1284.0833280145193L78.967,-75.14082740661529L79.576,19.253575164180422L79.84666666666666,77.21076249517226L80.069,112.01317789018256L80.562,132.81072461701697L80.89066666666666,145.36999383059532L81.01633333333334,150.8501974031642L81.68333333333334,156.17437254178617L81.76066666666667,159.11224098655617L82.00233333333334,161.17248818845303L82.157,162.4091655012845L82.273,163.1320742068176L82.69833333333334,163.37155902312577L83.259,163.77282768939173L83.47166666666666,163.75773567803466L83.52,163.38461921616587L83.55866666666667,-1108.7083504359812L85.086,-3.5945485154984156L85.39533333333333,63.50902198192417L85.41466666666666,103.77755947076514L85.64666666666666,128.05109885505772L85.65633333333334,142.62417324978063L85.70466666666667,151.04224086067882L85.753,156.41315731759002L86.75833333333334,149.5943296432375L87.28999999999999,155.14623374948889L87.464,158.7604668669293L87.51233333333334,160.8905343087271L87.638,162.3099618567535L87.68633333333334,163.08947301793867L87.841,163.33706942371185L87.88933333333333,159.56505206427542L87.97633333333333,161.39173012811492L88.131,162.5618060511779L88.69166666666668,162.89386288365472L89.146,162.99342215055674L89.24266666666668,161.3357789897375L89.436,161.51657869797026L89.93866666666666,162.61323501924747L90.32533333333333,-1726.8043048097231L91.04066666666667,-83.50469348631782L91.06966666666666,15.621188680046144L91.176,74.31091843258534L91.76566666666668,109.86078394823063L91.814,131.50965869514815L91.83333333333333,144.3283366883137L92.37466666666667,151.47875603863486L92.98366666666666,154.83160579521928L93.01266666666666,157.8897782231325L93.07066666666667,157.67347643794483L93.438,159.56513143620583L93.57333333333332,160.58640011246553L93.85366666666667,162.01782216872098L94.29833333333333,162.6806082677509L94.50133333333333,163.28979564024286L94.83,163.42003160868035L95.12,158.16742226275176L95.265,136.66169345783047L95.40033333333334,141.04111591981814L95.95133333333332,149.9694761293025L96.05766666666666,155.04967214664808L96.06733333333332,158.68359427969895L96.338,160.98322637035733L96.37666666666667,159.66208747883354L96.39599999999999,160.67352984696564L96.512,162.1463556701628L96.744,162.80775119271397L96.86,163.24390471147402L96.93733333333333,163.37463213600446L96.99533333333333,163.61450737039803L97.10166666666666,163.77921975065303L97.179,163.62172624455027L97.19833333333334,163.49362845349773L97.58500000000001,163.75786856424332L97.672,164.00342755591544L97.69133333333333,163.858004986089L98.02000000000001,163.9677315273748L98.078,163.1883860668077L98.23266666666666,163.04036427998108L98.88033333333333,159.97186719642787L98.90933333333334,161.70437442180182L99.16066666666666,161.52471882971625L99.528,162.6844865367489L99.53766666666667,163.26912562136715L99.789,163.18679634708406L99.95333333333333,163.5469292185256L100.06933333333333,163.68947729513238L100.11766666666666,163.756868350843L100.50433333333334,163.37220951227215L100.56233333333333,163.58402553145405L100.833,163.8095035365291L101.384,164.0165369741776L101.96400000000001,164.1717177668102L102.27333333333334,164.12274087744655L102.69866666666667,164.19022024238944L102.91133333333333,164.15882704043293L103.095,164.21482406368332L103.10466666666666,163.67407487385364L103.37533333333333,163.84195290458914L103.60733333333333,164.06068258176663L103.733,163.60986715414305L104.197,163.9024575117037L104.33233333333334,164.07277105060203L104.38066666666667,164.1765938257312L104.922,163.3466981083874L105.02833333333334,160.74695765635855L105.16366666666666,162.0739420237638L105.357,162.89516690257256L105.49233333333333,163.3601344376964L106.26566666666666,163.36141330811765L106.55566666666667,163.56883659582846L106.81666666666668,133.19268567387596L106.87466666666667,145.4170810373048L106.96166666666667,152.90925591344296L107.49333333333333,157.50345303466327L107.58033333333333,160.22452084286348L107.88966666666667,161.82137959198093L107.92833333333333,162.84660396764193L108.228,163.4370259990567L108.286,163.84232891687495L108.46,164.06958923752262L108.51799999999999,164.22418271692854L108.78866666666666,164.3129831630159L108.80799999999999,164.35372096859743L109.02066666666667,164.31211426104514L109.04,164.3059212528965L109.475,164.31052406730714L109.57166666666667,164.2567379349058L109.881,164.27824362154067L109.92933333333333,164.2536928897527L109.99700000000001,164.12310240803703L110.38366666666667,164.18643085152766L110.42233333333333,164.21206803394026L111.04100000000001,164.2182048866213L111.244,164.26557496803045L111.505,164.01233938653067L111.74666666666667,163.7020233016597L112.317,161.0508137082177L112.35566666666668,157.9331274332815L112.65533333333333,160.4687286383378L113.23533333333334,161.98551728369435L113.622,162.91367440616935L113.999,163.4379410444465L114.11500000000001,163.62858393959536L114.13433333333333,161.06564198781876L114.202,162.2831340753676L114.347,163.1241871168212L114.52099999999999,163.16325570443354L114.65633333333332,163.266314251138L114.782,163.26115966867806L114.83033333333334,160.57762366185852L114.92699999999999,161.8453633664019L115.59400000000001,162.8438696685554L116.38666666666666,163.3646755383428L116.47366666666667,163.7978949189998L116.56066666666666,164.01844174481792L116.65733333333333,164.1384173730146L116.91833333333334,157.94979145406757L117.67233333333333,160.49616331145432L117.682,161.20242865565368L117.87533333333333,160.45491676454512L117.99133333333333,158.9931601750837L118.06866666666667,151.48216013053403L118.46499999999999,126.24555840490156L118.47466666666668,140.81135276320597L118.64866666666667,148.65171397277598L119.04499999999999,154.8278154616823L119.15133333333333,157.7146164205778L119.277,159.3907827155857L119.40266666666668,161.27139127609144L119.567,162.36169368027498L119.828,158.89610806911497L119.92466666666665,161.0731638400092L120.05033333333333,162.38018882555306L120.35,163.16412321589118L120.35966666666666,163.63448931160326L120.36933333333333,163.91671621835158L120.466,164.0859754674169L120.59166666666667,164.18783433759538L120.64966666666666,164.24889278314916L120.785,164.2856822772795L121.46166666666667,164.29448923913336L121.72266666666667,160.5509744351539L122.02233333333334,161.79799605710085L122.18666666666667,162.37951549227276L122.699,162.8393461412855L122.86333333333334,162.49104807648104L122.931,162.62190210947398L123.453,162.84912964363443L123.55933333333333,163.46544250359312L124.15866666666666,162.90387697162052L124.18766666666667,162.37868086863222L124.19733333333333,160.09931430123163L124.671,161.75216360618768L125.15433333333333,162.73510893670687L125.21233333333333,163.17258267863266L125.22200000000001,163.58057920608906L125.28,163.8923759316363L125.69566666666667,164.06553241848562L125.86,164.20913928596732L126.27566666666667,163.88558138765333L126.39166666666667,163.89630262275935L126.61399999999999,163.88213416495546L126.788,163.90777966834423L126.97166666666668,164.03123457295092L127.06833333333333,164.15103333532963L127.08766666666666,164.24151135378935L127.68700000000001,162.97767803052238L127.78366666666666,163.36961750227783L127.85133333333334,163.50824072874659L128.05433333333332,163.63694279239712L128.30566666666667,69.18318138899375L128.992,107.18713784026211L129.52366666666666,129.8795748811426L130.28733333333332,143.55973199708052L130.732,151.76265647371366L130.74166666666665,156.6687741821162L130.79,159.56892921986167L130.86733333333333,160.84222611982068L131.04133333333334,161.50833714955223L131.428,162.3517611881508L131.66,162.99394786058596L131.718,163.4901911604851L131.72766666666666,163.42785705572598L132.05633333333333,147.44344768687967L132.16266666666667,154.06217683625098L132.53,156.8080075547658L132.56866666666667,154.99318407108902L132.62666666666667,158.67682355371068L132.704,160.93152855358224L133.70933333333335,162.13563914140317L133.719,163.06204668871106L134.328,163.50350675490165L134.42466666666667,163.59159249576055L134.473,163.87178140767145L134.80166666666668,163.83857912152874L134.85,163.40999516492684L134.97566666666665,163.7070857557718L134.995,163.88627895675504L135.604,163.2033247690908L136.02933333333334,-945.6557058570165L137.63400000000001,-96.33564048627224L137.82733333333334,7.946874312934017L137.91433333333333,70.51485792579133L138.11733333333333,107.99527742134983L138.417,130.4806036071482L138.43633333333332,143.9866264764114L138.475,150.42312790598618L138.678,154.85117266704827L138.707,140.0379881779733L138.74566666666666,117.33253065315891L138.90033333333332,136.11641517127921L138.98733333333334,147.2515762336436L139.04533333333333,153.93198413599382L139.751,158.0075690663584L139.91533333333334,160.53991241242292L140.447,161.81073572992133L140.92066666666668,161.83920304996047L141.491,162.4530870118282L141.87766666666667,163.15879949604917L141.91633333333334,163.65339985990397L142.216,163.78956467197855L142.45766666666668,162.91347257361295L142.80566666666667,163.34736699941217L143.10533333333333,162.22955206194283L143.12466666666666,161.68881053736067L143.24066666666667,162.69190180382154L143.608,163.0706484321358L143.724,162.0879990318755L143.99466666666666,162.9686453508289L144.03333333333333,163.11105250779994L144.05266666666668,163.11473613399698L144.25566666666666,163.36136666393517L144.26533333333333,163.08834867127766L144.41033333333334,163.57445086954618L144.52633333333333,163.4893775458624L144.78733333333335,163.78888362916246L144.80666666666667,163.93903860518344L144.826,164.1184315206718L145.54133333333334,164.14415336890028L145.99566666666666,164.17836705056604L146.45,164.2152665103757L147.03,164.22118497743034L147.74533333333332,154.0749997516843L147.83233333333334,157.5740141968225L148.48,160.09844808328526L148.89566666666664,161.8115552627674L148.9343333333333,162.83911830537727L149.09866666666667,163.1934570718695L149.31133333333335,163.589272924636L149.58200000000002,163.76258949129394L149.62066666666666,163.9901594869576L149.8236666666667,163.77941120023206L149.94933333333333,163.51229390001583L150.08466666666666,163.01397691048598L150.20066666666668,162.97239297162585L150.21033333333335,162.83300329837854L150.31666666666666,162.16856380162972L150.74200000000002,162.94306951009847L151.67000000000002,162.0624051134014L152.047,162.81321119836403L152.26933333333335,162.6484716627481L152.37566666666666,163.09336075338936L152.79133333333334,163.03475601702183L153.22633333333332,163.41183357468412L153.60333333333332,161.51872959438663L153.89333333333332,162.08444296718253L154.251,162.9981209059708L154.89866666666668,163.5377194717501L154.99533333333332,163.8741882462375L155.16933333333333,163.81989604166105L155.24666666666667,164.00124240457137L155.53666666666666,163.9876243426734L155.875,163.9415881318335L156.05866666666668,163.9144842903373L156.078,163.91467146906066L156.107,164.05299345802246L156.23266666666666,164.1939847350781L156.774,164.23343430930586L156.96733333333333,164.26427825125913L157.60533333333333,162.66385713712873L157.88566666666665,163.2894195029044L158.0596666666667,163.61568828614017L158.456,163.88625690954186L158.70733333333334,164.0205079890825L159.239,164.01960135313774L159.326,163.33594249709085L159.57733333333334,163.7368226084973L159.964,163.99534914601284L160.50533333333334,164.1392463025977L160.61166666666665,164.2085265095064L160.747,126.29933121907034L160.87266666666665,138.4941938380269L161.04666666666668,148.77156709950526L161.23033333333336,154.75549161596714L161.33666666666667,158.51498894829638L161.39466666666667,160.8415803800099L161.51066666666665,162.21643748693137L161.675,162.87395034648992L162.01333333333332,163.46029475628617L162.081,163.86927577798295L162.893,162.94391421501174L162.94133333333332,162.98226061848263L163.00900000000001,161.02699878851195L163.067,161.53895182777393L163.37633333333335,162.2392758779L163.386,162.9645796192587L163.43433333333334,163.54347916394548L163.56966666666668,163.70349962914142L163.64700000000002,163.95505455054374L163.65666666666667,164.11296767335253L164.29466666666667,163.53454187153199L164.314,163.66724045867514L164.691,163.87972460336874L165.097,163.91560664248826L165.54166666666666,163.68841175395485L165.75433333333334,163.47537719091787L166.721,163.77567316265336L166.866,163.52694683284102L167.03033333333332,163.8627460609306L167.1076666666667,164.07165616636394L167.43633333333335,164.04012271424813L167.74566666666666,158.89386609654323L167.87133333333333,160.86205794147074L167.91,162.25313334273176L168.20966666666666,162.05706829243312L168.42233333333334,156.62156845015616L168.46099999999998,156.65211823725386L168.606,-355.6548112027936L169.81433333333334,-23.34773085892198L169.824,51.773431805365405L169.86266666666666,96.35054832755684L170.13333333333333,123.54105274803042L170.2493333333333,139.8532634101175L170.346,149.0734298344641L170.38466666666667,154.95561410710917L170.51999999999998,157.3523656017269L170.66500000000002,158.57511281036307L170.88733333333334,160.9015654473048L170.97433333333333,161.95453806435245L171.10966666666667,162.8993876089046L172.26,163.4760975050396L172.41466666666668,163.2644992790032L172.54999999999998,163.67802724913008L172.68533333333335,161.80631331793046L172.77233333333334,162.393680091639L173.05266666666668,163.14939523528392L173.23633333333333,163.63801547804832L173.391,163.89607156158587L173.44899999999998,164.09225962749318L173.594,164.1838985533886L173.652,162.8981870169585L173.92266666666666,163.44434547342524L173.942,163.82807778105558L175.08266666666668,163.70814335158718L175.305,163.89575895702257L175.35333333333335,163.93723618894902L175.64333333333335,163.96119999504407L176.06866666666664,159.96269259364624L176.16533333333334,161.73976258898657L176.4263333333333,162.7750244759604L176.53266666666667,163.3720907474345L176.85166666666666,163.70495410726326L176.929,163.9829228166523L177.11266666666668,164.11430693731555L177.219,164.21446500578728L177.625,164.2307210391996L178.089,164.16588584338908L178.09866666666667,163.9644448773399L178.97833333333332,164.13173994023194L179.162,164.06349679923707L179.25866666666667,164.11513636638145L179.58733333333333,164.16664674230128L179.86766666666665,164.21008996323448L179.98366666666666,164.13018704613876L180.061,164.2051665711903L180.641,164.28069488082772L180.65066666666667,164.1293662385849L181.13400000000001,164.16309805613878L181.163,164.20401268272096L181.18233333333333,164.19697508842398L181.24033333333333,164.13140519849068L181.87833333333333,163.95710775126355L182.19733333333332,163.9338363098681L182.642,163.53548829656572L182.82566666666665,163.6227227353554L182.85466666666665,163.1261900900209L182.98033333333333,162.75208949008226L183.56033333333335,163.4208478801055L184.208,163.76747853517048L184.68166666666667,163.9636401192573L184.701,164.05792299345464L184.79766666666666,164.13644278763866L185.136,164.19086410656104L185.223,163.93260387864535L185.919,164.03673931196528L185.95766666666665,160.202834622644L186.51833333333335,160.38179036793568L186.91466666666665,161.95442529770673L187.20466666666667,162.84796363308848L187.224,163.3940475605625L187.35933333333332,163.76238705724586L187.38833333333332,163.86761038367942L187.62033333333335,163.8439830959005L188.007,163.87707203006545L188.04566666666665,164.0284331934624L188.53866666666667,164.1018961850263L188.67399999999998,163.70441573946724L189.04133333333334,163.7676801456071L189.07033333333334,163.9292091887743L189.254,163.355549266798L189.67933333333335,163.5397761698606L189.73733333333334,162.31650609752788L189.74699999999999,163.07053144680805L189.90166666666667,162.5898377025246L190.01766666666666,161.7983444782141L190.73299999999998,160.8333979448936L190.75233333333335,160.23907139261988L190.936,161.86633706694462L191.06166666666667,162.77019423193454L191.15833333333333,163.35141609828793L191.23566666666667,163.58371336840577L192.328,163.30806905350485L192.60833333333335,163.72214489642246L192.68566666666666,163.94930085252548L193.49766666666667,164.0075523654551L193.56533333333334,163.7630534724424L193.96166666666664,163.9081481067093L194.48366666666666,164.02216238051957L194.62866666666667,162.9571572035697L194.63833333333335,163.3192372556331L194.78333333333333,163.65006538842664L195.00566666666666,163.9521664429829L195.17000000000002,164.10460338237172L195.257,164.15480975480045L195.58566666666667,164.26443919347508L195.87566666666666,164.33034805346165L195.94333333333333,164.3330798950453L196.388,164.28999784329386L196.86166666666665,164.30509303384616L196.95833333333334,164.31301733217796L197.026,164.33184414399935L197.03566666666666,164.30645281219668L197.07433333333333,164.1851871988536L197.4513333333333,164.18498379923267L197.55766666666668,164.19883721002563L197.72199999999998,162.6580395199681L197.83800000000002,-991.9516548864776L198.52433333333332,-85.39712357212888L198.59199999999998,14.421385172015128L198.80466666666666,74.41223584710829L198.95933333333335,110.41237304677752L199.03666666666666,132.00796010323677L199.2396666666667,143.18972595783063L199.35566666666668,151.63375696490823L199.433,156.58847462800566L199.47166666666666,159.39529252618826L199.5103333333333,161.23513486414993L200.187,162.5171419044224L200.85399999999998,161.87564188374336L201.39533333333333,162.52969204591452L201.521,163.3015132315353L202.09133333333332,163.72336007161607L202.101,163.7491964799664L202.217,163.86500045171016L202.333,163.9765493461944L202.478,164.14394617038437L202.57466666666667,164.22182819187998L202.70999999999998,164.2740142695499L202.83566666666667,164.3003357262025L202.92266666666666,164.30154443930368L203.232,164.0404138538421L203.85066666666665,164.07385529348096L204.14066666666665,162.81970336842272L204.189,163.41298824353728L204.1986666666667,77.8557905379585L204.31466666666668,112.38378587637307L204.421,133.16056987016344L205.51333333333332,145.65788810128993L205.523,153.13771792741395L205.581,157.62669031533125L205.60999999999999,160.29705536728108L205.726,161.94457124870698L205.87099999999998,162.95059186893653L206.61533333333335,163.19133999888814L206.86666666666667,163.5913439056797L206.92466666666667,163.76790743481934L206.93433333333334,163.02113270386647L207.51433333333333,163.56578463568457L207.76566666666668,163.64331653681276L208.20066666666665,163.9224640225396L208.22966666666665,164.09505795274205L208.44233333333332,163.86947723656155L208.80966666666666,164.02478541916778L208.90633333333335,164.0905820332182L208.94500000000002,163.9183917185812L208.95466666666667,163.84793743526492L209.873,163.82569674478216L209.89233333333334,163.93294958929408L209.94066666666666,163.9847895920651L210.54,163.65438774289416L210.93633333333335,163.87404225351992L211.41966666666667,163.92902077188978L211.49699999999999,163.95479607233509L211.642,164.0821849547576L211.73866666666666,164.1591564121706L211.77733333333333,163.64082667209772L211.91266666666667,163.66304033703537L212.34766666666667,163.8964719172814L212.4346666666667,164.02221213237866L212.66666666666666,164.18317627500414L212.69566666666668,164.09261616156212L213.13066666666666,164.07125750076423L213.81699999999998,163.897053919124L213.97166666666666,163.79279510558658L214.17466666666667,163.81503327370478L214.24233333333333,163.91811587344185L214.629,164.06860409340285L215.22833333333332,164.0980754436398L215.24766666666665,162.40927443789082L215.98233333333334,162.84573283853825L216.17566666666664,163.10645037240334L216.50433333333334,163.57153986380206L216.659,163.82391165662088L216.76533333333333,163.87237825088587L217.19066666666666,164.04889681777436L217.33566666666664,164.1945021558979L217.34533333333331,164.1311955732323L217.38400000000001,164.2371116544786L217.50966666666667,164.22070659437588L217.65466666666669,164.1747496162513L218.24433333333334,164.23668237008917L218.602,164.2509658725337L218.81466666666665,164.31137306275866L220.52566666666667,164.3088700210251L220.72866666666667,159.63919219997425L221.01866666666666,159.28558353812636L221.328,152.76068784544978L221.415,157.39386645657427L221.59866666666667,159.7495627578876L221.77266666666668,161.31126696813027L222.198,162.34798892131167L222.285,163.00939756927002L222.47833333333332,163.4977631132984L222.691,163.83660415621677L222.91333333333336,163.99803284739028L223.07766666666666,164.04774062195443L223.10666666666665,163.37745221763373L223.13566666666665,163.27838644219648L223.49333333333334,163.71915153143732L223.76399999999998,163.94068705410447L223.938,164.11350488595423L223.95733333333334,164.2356098048231L224.75966666666667,164.26483814981336L224.86599999999999,164.30901499809588L225.127,164.31157669975957L225.37833333333333,163.62216080399577L225.62,163.84596661678722L225.649,162.85606953030177L226.67366666666666,163.40833928851487L226.71233333333336,163.67872484421628L226.85733333333334,163.92714122095862L226.87666666666667,164.0399483043099L226.92499999999998,164.1668845010482L226.98299999999998,164.12258477418246L227.10866666666666,164.20963155357381L227.186,164.26316567400067L227.534,164.32205666063996L227.68866666666668,164.36746485069335L228.38466666666665,164.20935775219135L228.433,163.95752079156722L228.64566666666667,153.2754628148026L228.665,157.63556207857073L228.781,160.24559282390283L228.85833333333335,161.73710685550563L228.91633333333334,160.5446773771352L229.16766666666666,161.97780376255446L229.20633333333333,162.86664761943456L229.43833333333333,163.47301956619955L229.54466666666667,163.79294758690787L229.767,163.94239446439806L229.88299999999998,164.1138999724312L230.19233333333332,164.1778587174326L230.83033333333336,164.24005007124805L230.956,164.27939097982767L231.23633333333333,164.2654610336326L231.34266666666664,164.31485913838094L231.681,163.7324987863247L231.78733333333335,163.33508107735184L232.81199999999998,163.57520258499994L232.8313333333333,163.64704208226033L232.91833333333335,163.91438047030707L232.957,163.9918673273021L232.96666666666667,164.1130550989254L233.03433333333334,164.16427720874546L233.18900000000002,164.2241184113503L233.23733333333334,164.03507684488383L233.682,163.9878156066066L233.72066666666666,164.01546668426485L233.74,164.162555295668L234.11700000000002,164.1015047540888L234.14600000000002,164.0932385682993L234.28133333333332,163.89050168434292L235.03533333333334,161.1913143888342L235.10299999999998,161.86097979240412L235.35433333333333,162.83918224890914L237.46166666666664,163.32622222977167L237.69366666666667,163.42635511124007L237.945,163.3693627785281L237.95466666666667,163.660734474162L238.16733333333335,163.78500902131984L238.264,163.92917202420074L238.4186666666667,163.8684655824896L238.641,164.05888215125893L239.06633333333335,164.20595847071533L239.49166666666665,164.21467938377847L239.58833333333334,163.70073386904872L239.6076666666667,163.92987292207673L239.67533333333333,163.95659804370698L239.8203333333333,163.7951491397587L240.5066666666667,163.82671200909672L240.526,163.87896482943356L240.88366666666667,163.89020775432684L241.34766666666667,163.9861010123115L241.55066666666667,164.06472648338308L241.8213333333333,164.2082584499137L241.89866666666666,164.27514108018846L241.99533333333335,164.28858254743943L242.33366666666666,164.23709772732326L242.69133333333332,164.2499642642238L243.08766666666668,164.18039785119444L243.223,163.75964146806277L243.63866666666667,163.9221649992753L243.92866666666666,164.07670200134282L244.16066666666666,164.14447586750418L244.39266666666666,164.2274678168928L244.40233333333333,164.23490255669685L245.43666666666667,164.12270320563147L245.75566666666668,164.20445157597334L246.01666666666668,163.2818959553862L246.35500000000002,163.7372393568068L246.413,163.7043570101886L246.45166666666665,163.9032221884865L247.03166666666667,164.0672016550251L247.07999999999998,164.17194788325713L247.20566666666667,164.21240001627393L247.428,164.26231098560845L247.544,164.2713122683023L248.27866666666665,163.97877908256837L248.66533333333334,162.98584578075605L249.052,163.3311031431677L249.081,163.605030909245L249.4,163.90026164081064L249.61266666666668,164.093300151652L249.70933333333332,164.16400125342955L250.01866666666666,164.2400092862056L250.17333333333335,164.0699862281644L250.44400000000002,164.2126246542508L250.45366666666666,164.22783038119314L251.35266666666666,164.14176341457727L251.72,164.21382011392222L252.21300000000002,163.20364837028472L252.23233333333334,161.71239414200846L252.58033333333333,158.5164717383041L252.75433333333334,160.8384704161565L252.78333333333333,162.23297209179475L253.46,163.04202083327223L253.91433333333336,162.75450398391482L254.21400000000003,163.2905268734902L254.417,163.764217498322L254.91966666666667,162.505500400093L255.47066666666666,163.2574832103804L255.722,163.5996976577418L256.4373333333333,163.87707117602406L256.5436666666667,164.03946802841327L256.5726666666667,164.056570111504L256.86266666666666,163.1350716663608L256.92066666666665,162.88026796324945L257.35566666666665,163.34383260743914L258.3126666666667,163.66638802430487L258.90233333333333,161.6525826467703L259.1343333333333,161.35781463601043L259.19233333333335,162.48425304514686L259.3953333333333,163.1943750240519L259.62733333333335,163.61645880898064L259.84000000000003,163.86977614578268L259.96566666666666,164.09305748434988L260.391,162.0580797684788L260.7196666666667,-1626.0024817527346L262.044,-104.71508153205384L262.2373333333333,2.774291912246474L262.334,67.37747669971235L262.5756666666667,106.08583157501914L262.99133333333333,129.38845096637095L263.12666666666667,143.38474482942053L263.262,151.74593931345115L263.5133333333333,156.77846801629408L263.60033333333337,159.56413246845736L264.05466666666666,161.34601660524336L264.0933333333333,162.5669763347274L264.19,163.27272634783296L264.29633333333334,163.69529390729673L264.335,163.8109337789665L264.364,163.98766805302043L264.4413333333334,164.10975181791176L264.64433333333335,164.15916905852075L264.712,164.22621339988356L264.915,163.9025877327868L265.25333333333333,163.97849168487684L265.44666666666666,164.10355906283772L265.466,163.99601391209515L265.63033333333334,164.14729496730627L265.7656666666667,162.287240070586L265.8333333333333,163.09455980518177" fill="none"></path></g></g></g></g><g opacity="0.2"><g><g><g><path style="fill: none;" stroke="rgb(255, 112, 67)" stroke-width="2.666667px" d="M24.360000000000003,55.936010250874936L24.64033333333333,137.27105316562313L24.785333333333334,154.23270177601705L24.795,150.52308506060925L25.046333333333333,161.3164066051266L25.181666666666665,-124.58453572477612L25.220333333333333,139.0444650400962L25.423333333333336,149.6365503200463L25.77133333333333,146.01576840249555L25.848666666666666,163.42792836847448L26.03233333333333,154.66409750091177L26.544666666666664,87.8125849302326L26.689666666666664,152.55735003000925L26.912,154.47361226688537L27.269666666666666,135.14656996045795L27.724,111.6545525018658L27.917333333333332,161.9421566691516L28.072,138.77366324833463L28.197666666666667,161.2525276406801L28.41033333333333,162.94941987660047L28.681,140.69757387744528L28.77766666666667,158.54674160927536L28.835666666666665,149.7722827587809L29.116,137.47393810238157L29.338333333333335,164.12926786729534L29.386666666666667,156.81188153784188L29.406000000000002,153.93743754689183L29.560666666666666,128.51918263116053L29.947333333333336,119.34096968770027L30.343666666666664,150.64263459124734L30.401666666666667,154.0698364729328L30.41133333333333,162.1547933361493L30.546666666666667,119.25465762955801L30.711,155.96140479525286L31.571333333333335,136.15498829334976L31.677666666666667,158.03642301224173L31.958000000000002,162.56326920215838L32.470333333333336,115.21043761840887L32.55733333333333,146.6634066243257L32.75066666666667,163.22330742812318L33.292,163.97112467633227L33.842999999999996,159.77558620851485L33.99766666666667,163.46638281847615L34.104,155.3501253711858L34.21033333333333,144.2551950729319L34.394,162.33505198014902L34.539,158.0784698797656L34.925666666666665,160.02280143885207L35.061,-1925.8461063657487L35.12866666666667,161.07156100198628L35.322,164.27510107931116L35.438,-4684.56073123387L35.534666666666666,121.53894207903316L35.554,161.87117379625727L35.63133333333333,100.4419805513961L35.96,118.91658036751406L36.28866666666667,162.71535408794878L36.308,163.5610846438844L36.336999999999996,160.06061088730183L36.43366666666667,151.98610651535648L36.47233333333333,156.18668997282427L36.99433333333333,78.4438300890582L37.187666666666665,163.80858115819282L37.48733333333333,151.5657246440649L37.88366666666666,158.4042860842709L38.27033333333333,162.01086561017271L38.28,157.49453791869539L38.62800000000001,108.6423831982272L38.78266666666667,163.19283419417084L38.81166666666667,163.82943527904737L39.150000000000006,-441.3510815211705L39.179,161.1602466055591L39.31433333333334,105.02864807333266L39.614,156.80610545852355L39.913666666666664,161.21677225091096L39.991,146.88860379233958L40.32933333333334,76.67828602790833L40.474333333333334,137.23016609528236L40.638666666666666,161.91287269448597L40.657999999999994,151.80675027072428L40.72566666666666,162.85493242378746L41.36366666666667,158.4501866853663L42.04033333333333,162.68519438804526L42.166000000000004,164.3286681473779L42.543,161.83616995385717L42.63966666666666,154.6202832085746L42.93933333333334,143.74743538392443L43.132666666666665,164.42688368655593L43.14233333333333,162.76936648776754L43.31633333333333,161.57571049071848L44.196000000000005,164.33266717112815L44.283,163.38246962358244L44.379666666666665,162.467999609613L44.486000000000004,148.53144203488316L45.53966666666667,163.98754501432248L46.603,164.27414608990034L46.989666666666665,164.07836311660108L47.328,163.8606987152515L47.734,161.70303108444702L47.782333333333334,121.87226441374847L47.908,155.05990481307464L47.98533333333334,163.4596474500506L48.01433333333333,141.8647325175149L48.20766666666667,131.49467967833792L48.38166666666667,156.0973156643233L48.517,161.04424940589817L48.64266666666667,156.0159092348069L49.097,163.53723164256664L49.10666666666667,161.27323008067904L49.30966666666667,160.7003255363288L49.58033333333333,164.26349996159053L49.657666666666664,164.191411939571L49.73500000000001,164.25221798212317L50.13133333333333,164.18464038399645L50.218333333333334,109.63598940202168L50.36333333333333,158.4173356109964L50.45033333333333,163.72840068372898L50.61466666666667,163.57015942389677L50.672666666666665,161.39232509620487L50.79833333333333,164.13201940925458L50.808,163.99411743697044L50.81766666666666,159.29258975666016L50.943333333333335,163.43430491711146L51.10766666666667,163.93637291952703L51.36866666666667,160.05994147213974L51.58133333333333,163.55574695463957L51.678,145.97802676962954L51.84233333333333,161.68530348805444L52.81866666666667,155.28999796483134L52.925,142.16490780051265L53.98833333333334,156.18352403997312L53.998000000000005,162.2503670439124L54.19133333333333,141.27218466188225L54.201,114.22338029018469L54.346000000000004,161.53692268944744L54.58766666666667,163.79501947310885L55.10966666666667,146.3705518075398L55.28366666666666,154.16726666997585L55.51566666666667,161.87395634500842L55.74766666666667,161.9598122303241L55.776666666666664,156.52204858346707L56.62733333333333,162.07662788873006L57.09133333333333,164.1622600357547L57.64233333333333,143.92221754278455L57.855000000000004,155.675851757718L57.93233333333334,164.36647455825462L58.019333333333336,163.2552132286065L58.27066666666666,134.95004341283015L58.657333333333334,161.70543115330594L58.68633333333333,164.08423210326916L58.986,164.32206014980494L59.14066666666667,128.71420939947876L59.507999999999996,161.57753337360919L59.537000000000006,158.9366528838873L59.57566666666666,164.04931101471882L59.64333333333333,122.92399550506046L59.67233333333333,163.78712362934436L59.856,139.94441701854979L60.068666666666665,164.05694262259638L60.54233333333333,163.64560757622655L60.745333333333335,162.85964289423345L61.38333333333333,158.75775296278297L61.40266666666667,156.79229639726026L61.90533333333333,151.29550636772598L62.031,163.62459197893207L62.089000000000006,163.5269904345141L62.205,163.1728295765285L62.234,4.2895327883107415L62.611000000000004,140.6726659670472L62.96866666666667,162.73163043084952L63.075,162.89261573525144L63.18133333333333,163.93752220529464L63.239333333333335,108.30051067471504L63.306999999999995,163.9799550565159L63.66466666666667,161.893255454528L63.90633333333333,162.9827724848874L64.02233333333334,160.75110042018017L64.05133333333333,156.87212588840296L64.264,164.13868948634314L64.60233333333333,163.9255807852073L64.70866666666666,161.90532949175687L65.047,164.3441891942148L65.337,163.48669373650503L65.92666666666666,150.886791188057L66.02333333333333,163.04234983150715L67.24133333333333,163.66565506838793L68.02433333333333,157.71910334687146L68.063,158.72351181964788L68.30466666666668,160.7879173498867L68.76866666666666,164.38925816903938L69.12633333333333,161.88956357414966L69.52266666666667,158.94918701217645L69.542,164.20076212620395L69.6,164.3975414517107L69.687,163.23844642833407L69.90933333333334,162.7723891036851L70.36366666666667,158.91731489343303L70.89533333333333,164.38009773417727L70.92433333333334,163.33314539041768L70.934,161.86082453537466L71.01133333333334,163.8756662173862L71.37866666666667,144.9555510197367L71.64933333333333,163.63775001059153L71.833,161.62645734412862L72.02633333333334,163.76493700762015L72.32600000000001,163.77583613986081L73.283,163.1331613782793L73.37,164.29492786942282L73.38933333333333,164.27259444108807L73.79533333333333,162.875726942279L73.834,164.34824966641898L73.979,164.3421721845063L74.008,164.23846805228138L74.01766666666666,163.9881769802122L74.327,160.75967652960014L74.45266666666666,162.79726612031726L74.69433333333333,164.36780123593198L74.82000000000001,164.27835436240173L74.965,164.2144320148193L75.05199999999999,164.2914903681247L75.081,163.54489178950232L75.37100000000001,164.25441985051978L75.603,164.3378309239969L75.63199999999999,164.28480904966128L76.01866666666666,-3456.512189292908L76.096,164.16681633877369L76.415,164.19157705167973L76.82100000000001,164.2367633286265L76.908,164.33867970166477L76.95633333333332,-1199.4248439107623L77.43966666666667,153.92579737869758L78.967,164.24154113429583L79.576,160.84517902037393L79.84666666666666,164.14654349166003L80.069,164.216800982698L80.562,164.00704470726862L80.89066666666666,164.2088976509628L81.01633333333334,159.0705027620175L81.68333333333334,164.16063524971915L81.76066666666667,163.51904365371115L82.00233333333334,164.26285899129832L82.157,164.2641814705317L82.273,164.21643726511726L82.69833333333334,163.73078624758801L83.259,164.37473068879063L83.47166666666666,163.7350976609991L83.52,162.82494452336272L83.55866666666667,-3016.8478049142022L84.361,160.69371276340846L84.535,162.72737764024308L84.88300000000001,161.59370301999152L85.086,159.98721453313317L85.39533333333333,164.16437772805804L85.41466666666666,164.1803657040266L85.64666666666666,164.46140793149658L85.65633333333334,164.483784841865L85.70466666666667,163.66934227702606L85.753,164.46953200295684L86.75833333333334,139.36608813170875L87.28999999999999,163.47408990886595L87.464,164.1818165430899L87.51233333333334,164.0856354714238L87.638,164.43910317879303L87.68633333333334,164.25873975971646L87.841,163.70846403237167L87.88933333333333,153.9070260251207L87.97633333333333,164.1317472238742L88.131,164.3169199357724L88.69166666666668,163.39194813236992L89.146,163.14276105090974L89.24266666666668,158.84931424850865L89.436,161.78777826031936L89.93866666666666,164.25821950116327L90.32533333333333,-4560.930614553179L90.40266666666666,153.49560907259584L90.48966666666666,162.42941465228796L90.64433333333334,157.98486448164496L91.04066666666667,164.30230151906434L91.06966666666666,164.3100119295921L91.176,162.34551306139412L91.76566666666668,163.18558222169852L91.814,163.98297081552445L91.83333333333333,163.556353678062L92.37466666666667,162.20438506411654L92.98366666666666,159.86088043009596L93.01266666666666,162.47703686500233L93.07066666666667,157.34902376016336L93.438,162.4026139335973L93.57333333333332,162.1183031268551L93.85366666666667,164.16495525310415L94.29833333333333,163.67478741629583L94.50133333333333,164.20357669898075L94.83,163.61538556133664L95.12,150.28850824385881L95.265,104.4031002504485L95.40033333333334,147.61024961279972L95.95133333333332,163.36201644352903L96.05766666666666,162.66996617266642L96.06733333333332,164.13447747927523L96.338,164.4326745063449L96.37666666666667,157.68037914154786L96.39599999999999,162.19069339916376L96.512,164.35559440495854L96.744,163.7998444765407L96.86,163.89813498961405L96.93733333333333,163.5707232728002L96.99533333333333,163.97432022198834L97.10166666666666,164.0262883210355L97.179,163.38548598539617L97.19833333333334,163.30148176691893L97.58500000000001,164.1542287303617L97.672,164.37176604342363L97.69133333333333,163.63987113134934L98.02000000000001,164.1323213393035L98.078,162.01936787595707L98.23266666666666,162.8183315997411L98.88033333333333,155.36912157109805L98.90933333333334,164.30313525986276L99.16066666666666,161.25523544158787L99.528,164.42413809729788L99.53766666666667,164.14608424829453L99.789,163.06330243565938L99.95333333333333,164.08712852568797L100.06933333333333,163.90329941004248L100.11766666666666,163.85795493440904L100.50433333333334,162.7952212544158L100.56233333333333,163.90174956022696L100.833,164.14772054414163L101.384,164.32708713065037L101.96400000000001,164.40448895575912L102.27333333333334,164.04927554340102L102.69866666666667,164.29143928980378L102.91133333333333,164.11173723749815L103.095,164.2988195985589L103.10466666666666,162.86295108910915L103.37533333333333,164.0937699506924L103.60733333333333,164.38877709753288L103.733,162.93364401270767L104.197,164.3413430480446L104.33233333333334,164.32824135894955L104.38066666666667,164.332327988425L104.922,162.10185453237168L105.02833333333334,156.8473469783153L105.16366666666666,164.06441857487164L105.357,164.12700422078572L105.49233333333333,164.0575857403821L106.26566666666666,163.36333161374952L106.55566666666667,163.8799715273947L106.81666666666668,87.62845929094723L106.87466666666667,163.75367408244804L106.96166666666667,164.14751822765018L107.49333333333333,164.39474871649375L107.58033333333333,164.3061225551638L107.88966666666667,164.21666771565714L107.92833333333333,164.38444053113344L108.228,164.32265904617879L108.286,164.45028329360233L108.46,164.41047971849414L108.51799999999999,164.45607293603743L108.78866666666666,164.44618383214694L108.80799999999999,164.41482767696974L109.02066666666667,164.24970419971672L109.04,164.29663174067352L109.475,164.3174282889231L109.57166666666667,164.17605873630382L109.881,164.31050215149298L109.92933333333333,164.2168667920707L109.99700000000001,163.92721668546355L110.38366666666667,164.28142351676362L110.42233333333333,164.25052380755912L111.04100000000001,164.22741016564294L111.244,164.33663009014415L111.505,163.632486014281L111.74666666666667,163.23654917435323L112.317,157.07399931805475L112.35566666666668,153.25659802087716L112.65533333333333,164.2721304459223L113.23533333333334,164.26070025172916L113.622,164.30591008988185L113.999,164.2243410018622L114.11500000000001,163.9145482823186L114.13433333333333,157.22122906015386L114.202,164.10937220669086L114.347,164.38576667900156L114.52099999999999,163.22185858585206L114.65633333333332,163.42090207119472L114.782,163.25342779498814L114.83033333333334,156.55231965162923L114.92699999999999,163.74697292321696L115.59400000000001,164.3416291217857L116.38666666666666,164.1458843430238L116.47366666666667,164.4477239899853L116.56066666666666,164.34926198354515L116.65733333333333,164.3183808153096L116.91833333333334,148.66685257564697L117.67233333333333,164.3157210975345L117.682,162.26182667195263L117.87533333333333,159.3336489278823L117.99133333333333,156.80052529089153L118.06866666666667,140.21566006370952L118.46499999999999,88.39065581645285L118.47466666666668,162.6600443006626L118.64866666666667,160.412255787131L119.04499999999999,164.09196769504177L119.15133333333333,162.0448178589211L119.277,161.90503215809753L119.40266666666668,164.09230411685004L119.567,163.99714728655027L119.828,153.697729652375L119.92466666666665,164.3387474963505L120.05033333333333,164.34072630386888L120.35,164.34002480139839L120.35966666666666,164.34003845517137L120.36933333333333,164.34005657847408L120.466,164.33986434101485L120.59166666666667,164.3406226428631L120.64966666666666,164.3404804514798L120.785,164.340866518475L121.46166666666667,164.3076996819141L121.72266666666667,154.93570222918476L122.02233333333334,163.66852849002132L122.18666666666667,163.2517946450306L122.699,163.52909211480457L122.86333333333334,161.9686009792744L122.931,162.8181831589634L123.453,163.18997094487506L123.55933333333333,164.38991179353118L124.15866666666666,162.0615286736616L124.18766666666667,161.59088671414978L124.19733333333333,156.68026445013072L124.671,164.23143756362177L125.15433333333333,164.20952693248566L125.21233333333333,163.8287932915214L125.22200000000001,164.19257399727357L125.28,164.36007101995722L125.69566666666667,164.32526714875962L125.86,164.42454958718986L126.27566666666667,163.40024454018234L126.39166666666667,163.91238447541835L126.61399999999999,163.86088147824964L126.788,163.9462479234274L126.97166666666668,164.21641692986097L127.06833333333333,164.33073147889766L127.08766666666666,164.37722838147894L127.68700000000001,161.08192804562194L127.78366666666666,163.957526709911L127.85133333333334,163.7161755684497L128.05433333333332,163.8299958878729L128.30566666666667,-72.49746071611133L128.992,164.19307251716467L129.52366666666666,163.91823044246328L130.28733333333332,164.0799676709875L130.732,164.06704318866335L130.74166666666665,164.02795074472004L130.79,163.91916177647988L130.86733333333333,162.7521714697592L131.04133333333334,162.50750369414953L131.428,163.61689724604864L131.66,163.95722786923872L131.718,164.23455611033384L131.72766666666666,163.3343558985873L132.05633333333333,123.46683363361018L132.16266666666667,163.99027056030798L132.53,160.92675363253804L132.56866666666667,152.27094884557383L132.62666666666667,164.20228277764315L132.704,164.31358605338963L133.70933333333335,163.94180502313455L133.719,164.45165800967285L134.328,164.16569685418756L134.42466666666667,163.72372110704893L134.473,164.29206477553774L134.80166666666668,163.78877569231472L134.85,162.767119230024L134.97566666666665,164.15272164203927L134.995,164.15506875822987L135.604,162.17889348759448L136.02933333333334,-2608.9442517961775L136.10666666666665,163.9110115489257L136.42566666666667,-646.6232811450958L137.24733333333333,164.39075526398207L137.63400000000001,164.29849704126994L137.82733333333334,164.3706465117434L137.91433333333333,164.3668333450773L138.11733333333333,164.21590666468754L138.417,164.20859288584575L138.43633333333332,164.24566078030622L138.475,160.07788005034837L138.678,161.4932398086414L138.707,117.81821144436088L138.74566666666666,83.27434436593738L138.90033333333332,164.29224194845966L138.98733333333334,163.95431782719012L139.04533333333333,163.95259598951918L139.751,164.12094646190528L139.91533333333334,164.3384274315197L140.447,163.71697070616895L140.92066666666668,161.88190403001914L141.491,163.3739129546298L141.87766666666667,164.2173682223806L141.91633333333334,164.3953004056862L142.216,163.99381189009043L142.45766666666668,161.5993344260646L142.80566666666667,163.99820863811098L143.10533333333333,160.5528296557388L143.12466666666666,160.87769825048744L143.24066666666667,164.1965387035128L143.608,163.63876837460722L143.724,160.6140249314851L143.99466666666666,164.2896148292589L144.03333333333333,163.3246632432565L144.05266666666668,163.12026157329257L144.25566666666666,163.73131245884247L144.26533333333333,162.67882168229136L144.41033333333334,164.30360416694893L144.52633333333333,163.36176756033674L144.78733333333335,164.23814275411257L144.80666666666667,164.16427106921495L144.826,164.38752089390434L145.54133333333334,164.18273614124294L145.99566666666666,164.22968757306475L146.45,164.27061570009016L147.03,164.23006267801227L147.74533333333332,138.85572191306525L147.83233333333334,162.82253586452987L148.48,163.88509891297934L148.89566666666664,164.38121603199065L148.9343333333333,164.38046286929207L149.09866666666667,163.7249652216078L149.31133333333335,164.18299670378576L149.58200000000002,164.02256434128088L149.62066666666666,164.33151448045308L149.8236666666667,163.46328877014375L149.94933333333333,163.11161794969146L150.08466666666666,162.2665014261912L150.20066666666668,162.91001706333566L150.21033333333335,162.62391878850758L150.31666666666666,161.17190455650646L150.74200000000002,164.10482807280164L151.67000000000002,160.74140851835588L152.047,163.93942032580796L152.26933333333335,162.4013623593242L152.37566666666666,163.76069438935124L152.79133333333334,162.94684891247059L153.22633333333332,163.97744991117756L153.60333333333332,158.67907362394035L153.89333333333332,162.9330130263764L154.251,164.36863781415326L154.89866666666668,164.34711732041907L154.99533333333332,164.37889140796867L155.16933333333333,163.73845773479636L155.24666666666667,164.27326194893683L155.53666666666666,163.96719724982643L155.875,163.87253381557363L156.05866666666668,163.87382852809304L156.078,163.9149522371457L156.107,164.2604764414652L156.23266666666666,164.40547165066153L156.774,164.29260867064752L156.96733333333333,164.310544164189L157.60533333333333,160.26322546593312L157.88566666666665,164.22776305156793L158.0596666666667,164.10509146099378L158.456,164.29210984464444L158.70733333333334,164.22188460839345L159.239,164.0182413992206L159.326,162.31045421302053L159.57733333333334,164.338142775607L159.964,164.38313895228617L160.50533333333334,164.35509203747498L160.61166666666665,164.31244681986948L160.747,69.4355382834162L160.87266666666665,156.7864877664617L161.04666666666668,164.18762699172282L161.23033333333336,163.73137839065998L161.33666666666667,164.1542349467902L161.39466666666667,164.33146752758017L161.51066666666665,164.27872314731357L161.675,163.86021963582772L162.01333333333332,164.33981137098058L162.081,164.48274731052808L162.893,161.55587187055497L162.94133333333332,163.0397802236889L163.00900000000001,158.0941060435559L163.067,162.30688138666696L163.37633333333335,163.2897619530891L163.386,164.0525352312967L163.43433333333334,164.41182848097563L163.56966666666668,163.94353032693533L163.64700000000002,164.3323869326472L163.65666666666667,164.34983735756575L164.29466666666667,162.6669031688012L164.314,163.8662883393899L164.691,164.19845082040908L165.097,163.96942970116754L165.54166666666666,163.3476194211548L165.75433333333334,163.15582534636238L166.721,164.22611712025662L166.866,163.1538573381225L167.03033333333332,164.366444903065L167.1076666666667,164.38502132451393L167.43633333333335,163.9928225360744L167.74566666666666,151.17448116998588L167.87133333333333,163.81434570886196L167.91,164.3397464446233L168.20966666666666,161.7629707169852L168.42233333333334,148.46831868674073L168.46099999999998,156.69794291790043L168.606,-1124.115205362865L169.36966666666666,162.2044789510247L169.81433333333334,164.39731556459446L169.824,164.45517580179646L169.86266666666666,163.216223110844L170.13333333333333,164.32680937874082L170.2493333333333,164.3215794032481L170.346,162.903679470984L170.38466666666667,163.77889051607679L170.51999999999998,160.94749284365346L170.66500000000002,160.4092336233173L170.88733333333334,164.39124440271738L170.97433333333333,163.53399698992393L171.10966666666667,164.31666192573277L172.26,164.34116234924213L172.41466666666668,162.94710193994854L172.54999999999998,164.29831920432045L172.68533333333335,158.99874242113106L172.77233333333334,163.2747302522018L173.05266666666668,164.28296795075127L173.23633333333333,164.3709458421949L173.391,164.28315568689223L173.44899999999998,164.38654172635412L173.594,164.3213569422317L173.652,160.96961971231337L173.92266666666666,164.26358315812539L173.942,164.4036762425011L175.08266666666668,163.52824170738458L175.305,164.1771823651756L175.35333333333335,163.9994520368387L175.64333333333335,163.99714570418666L176.06866666666664,153.96493149154955L176.16533333333334,164.40536758199698L176.4263333333333,164.3279173064212L176.53266666666667,164.26769015464563L176.85166666666666,164.20424914700644L176.929,164.39987588073583L177.11266666666668,164.3113831183104L177.219,164.3647021084949L177.625,164.25510508931805L178.089,164.06863304967325L178.09866666666667,163.66228342826614L178.97833333333332,164.38268253457002L179.162,163.96113208774477L179.25866666666667,164.19259571709802L179.58733333333333,164.243912306181L179.86766666666665,164.27525479463426L179.98366666666666,164.0103326704952L180.061,164.3176358587676L180.641,164.39398734528388L180.65066666666667,163.90237327522067L181.13400000000001,164.21369578246959L181.163,164.26538462259424L181.18233333333333,164.18641869697854L181.24033333333333,164.0330503635907L181.87833333333333,163.6956615804229L182.19733333333332,163.89892914777488L182.642,162.93796627661212L182.82566666666665,163.75357439353996L182.85466666666665,162.38139112201918L182.98033333333333,162.19093859017428L183.56033333333335,164.42398546514033L184.208,164.287424517768L184.68166666666667,164.25788249538746L184.701,164.19934730475072L184.79766666666666,164.25422247891464L185.136,164.27249608494458L185.223,163.5452135367718L185.919,164.1929424619452L185.95766666666665,154.4519775886621L186.51833333333335,160.65022398587317L186.91466666666665,164.31337769236333L187.20466666666667,164.18827113616115L187.224,164.21317345177357L187.35933333333332,164.3148963022709L187.38833333333332,164.02544537332972L187.62033333333335,163.8085421642322L188.007,163.92670543131285L188.04566666666665,164.25547493855785L188.53866666666667,164.21209067237214L188.67399999999998,163.10819507112862L189.04133333333334,163.86257675481696L189.07033333333334,164.17150275352512L189.254,162.4950593838335L189.67933333333335,163.81611652445446L189.73733333333334,160.4816009890288L189.74699999999999,164.2015694707283L189.90166666666667,161.86879708609942L190.01766666666666,160.61110464174834L190.73299999999998,159.38597814491285L190.75233333333335,159.3475815642093L190.936,164.30723557843177L191.06166666666667,164.1259799794194L191.15833333333333,164.22324889781802L191.23566666666667,163.93215927358253L192.328,162.8946025811535L192.60833333333335,164.3432586607989L192.68566666666666,164.29003478668L193.49766666666667,164.09492963484954L193.56533333333334,163.39630513292337L193.96166666666664,164.12579005810966L194.48366666666666,164.19318379123496L194.62866666666667,161.3596494381449L194.63833333333335,163.86235733372826L194.78333333333333,164.14630758761695L195.00566666666666,164.4053180248173L195.17000000000002,164.33325879145497L195.257,164.2301193134435L195.58566666666667,164.42888335148703L195.87566666666666,164.42921134344152L195.94333333333333,164.3371776574207L196.388,164.2253747656667L196.86166666666665,164.32773581967464L196.95833333333334,164.32490377967562L197.026,164.36008436173142L197.03566666666666,164.26836581449274L197.07433333333333,164.00328877883896L197.4513333333333,164.18467869980125L197.55766666666668,164.21961732621506L197.72199999999998,160.34684298488176L197.83800000000002,-2723.866196496146L198.23433333333332,164.45975719658142L198.26333333333332,164.3594205872718L198.52433333333332,164.33991976524328L198.59199999999998,164.14914828823115L198.80466666666666,164.39851185974797L198.95933333333335,164.41257884628138L199.03666666666666,164.4013406879256L199.2396666666667,159.9623747397214L199.35566666666668,164.2998034755246L199.433,164.02055112265182L199.47166666666666,163.60551937346213L199.5103333333333,163.99489837109243L200.187,164.44015246483116L200.85399999999998,160.91339185272477L201.39533333333333,163.51076728917127L201.521,164.45924500996645L202.09133333333332,164.3561303317372L202.101,163.78795109249185L202.217,164.03870640932584L202.333,164.14387268792072L202.478,164.39504140666938L202.57466666666667,164.33865122412337L202.70999999999998,164.35229338605475L202.83566666666667,164.33981791118143L202.92266666666666,164.3033575089555L203.232,163.64871797564973L203.85066666666665,164.1240174529392L204.14066666666665,160.93847548083534L204.189,164.30291555620914L204.1986666666667,-50.480006020409704L204.31466666666668,164.17577888399498L204.421,164.32574586084894L205.51333333333332,164.40386544797968L205.523,164.35746266660001L205.581,164.3601488972072L205.60999999999999,164.3026029452058L205.726,164.41584507084585L205.87099999999998,164.45962279928082L206.61533333333335,163.5524621938156L206.86666666666667,164.1913497658671L206.92466666666667,164.03275272852875L206.93433333333334,161.9009706074372L207.51433333333333,164.38276253341175L207.76566666666668,163.759614388505L208.20066666666665,164.34118525112987L208.22966666666665,164.35394884804575L208.44233333333332,163.53110616229077L208.80966666666666,164.25774769307714L208.90633333333335,164.18927695429386L208.94500000000002,163.66010624662573L208.95466666666667,163.7422560102905L209.873,163.79233570905802L209.89233333333334,164.09382885606195L209.94066666666666,164.06254959622166L210.54,163.1587849691377L210.93633333333335,164.20352401945857L211.41966666666667,164.01148854944455L211.49699999999999,163.99345902300308L211.642,164.27326827839133L211.73866666666666,164.2746135982901L211.77733333333333,162.86333206198844L211.91266666666667,163.6963608344418L212.34766666666667,164.24661928765042L212.4346666666667,164.21082245502456L212.66666666666666,164.42462248894236L212.69566666666668,163.9567759913991L213.13066666666666,164.0392195095674L213.81699999999998,163.63574854666368L213.97166666666666,163.63640688528042L214.17466666666667,163.84839052588214L214.24233333333333,164.07273977304743L214.629,164.29433642334436L215.22833333333332,164.1422824689952L215.24766666666665,159.87607292926737L215.98233333333334,163.5004204395094L216.17566666666664,163.49752667320092L216.50433333333334,164.26917410090016L216.659,164.20246934584907L216.76533333333333,163.94507814228334L217.19066666666666,164.3136746681071L217.33566666666664,164.41291016308324L217.34533333333331,164.03623569923386L217.38400000000001,164.39598577634814L217.50966666666667,164.19609900422176L217.65466666666669,164.1058141490644L218.24433333333334,164.32958150084596L218.602,164.27239112620052L218.81466666666665,164.40198384809608L220.52566666666667,164.30511545842475L220.72866666666667,152.634675468398L221.01866666666666,158.7551705453545L221.328,142.9733443064349L221.415,164.343634373261L221.59866666666667,163.28310720985755L221.77266666666668,163.65382328349432L222.198,163.90307185108375L222.285,164.00151054120758L222.47833333333332,164.2303114293409L222.691,164.34486572059438L222.91333333333336,164.24017588415052L223.07766666666666,164.12230228380068L223.10666666666665,162.3720196111527L223.13566666666665,163.12978777904064L223.49333333333334,164.3802991652986L223.76399999999998,164.27299033810516L223.938,164.37273163372882L223.95733333333334,164.41876718312645L224.75966666666667,164.3086806672987L224.86599999999999,164.37528027051968L225.127,164.31541925225508L225.37833333333333,162.58803696035008L225.62,164.18167533597443L225.649,161.3712239005736L226.67366666666666,164.23674392583447L226.71233333333336,164.08430317776845L226.85733333333334,164.29976578607207L226.87666666666667,164.20915892933678L226.92499999999998,164.35728879615573L226.98299999999998,164.05613518388375L227.10866666666666,164.3402017226609L227.186,164.34346685464095L227.534,164.4103931405989L227.68866666666668,164.4355771357734L228.38466666666665,163.97219710443835L228.433,163.57976535063105L228.64566666666667,137.2523758496557L228.665,164.17571097422294L228.781,164.16063894190094L228.85833333333335,163.97437790290985L228.91633333333334,158.75603315957957L229.16766666666666,164.12749334068337L229.20633333333333,164.19991340475474L229.43833333333333,164.38257748634703L229.54466666666667,164.27283961797033L229.767,164.16656478063337L229.88299999999998,164.3711582344809L230.19233333333332,164.2737968349347L230.83033333333336,164.33333710197124L230.956,164.33840234269712L231.23633333333333,164.24456611433996L231.34266666666664,164.38895629550348L231.681,162.85895825824034L231.78733333333335,162.73895451389254L232.81199999999998,163.93538484647203L232.8313333333333,163.75480132815096L232.91833333333335,164.31538805237713L232.957,164.10809761279464L232.96666666666667,164.2948367563604L233.03433333333334,164.2411103734755L233.18900000000002,164.3138802152576L233.23733333333334,163.7515144951841L233.682,163.91692374919077L233.72066666666666,164.05694330075224L233.74,164.3831882127727L234.11700000000002,164.00992894172003L234.14600000000002,164.08083928961506L234.28133333333332,163.5863963584083L235.03533333333334,157.14253344557116L235.10299999999998,162.86547789775898L235.35433333333333,164.3064859336666L237.46166666666664,164.05678220106554L237.69366666666667,163.57655443344265L237.945,163.2838742794602L237.95466666666667,164.09779201761287L238.16733333333335,163.97142084205655L238.264,164.14541652852202L238.4186666666667,163.7774059199229L238.641,164.34450700441292L239.06633333333335,164.42657294989996L239.49166666666665,164.22776075337313L239.58833333333334,162.9298155969541L239.6076666666667,164.2735815016187L239.67533333333333,163.99668572615235L239.8203333333333,163.55297578383636L240.5066666666667,163.87405631310372L240.526,163.95734405993883L240.88366666666667,163.90707214166676L241.34766666666667,164.12994089928856L241.55066666666667,164.18266468999042L241.8213333333333,164.4235563997096L241.89866666666666,164.37546502560062L241.99533333333335,164.30874474831592L242.33366666666666,164.15987049714894L242.69133333333332,164.26926406957458L243.08766666666668,164.07604823165042L243.223,163.12850689336526L243.63866666666667,164.1659502960941L243.92866666666666,164.30850750444412L244.16066666666666,164.2461366667462L244.39266666666666,164.35195574097577L244.40233333333333,164.2460546664029L245.43666666666667,163.95440417903342L245.75566666666668,164.3270741314861L246.01666666666668,161.8980625245055L246.35500000000002,164.42025445893773L246.413,163.65503349026133L246.45166666666665,164.20151995593332L247.03166666666667,164.31317085483295L247.07999999999998,164.3290672256052L247.20566666666667,164.2730782157991L247.428,164.33717743961026L247.544,164.28481419234302L248.27866666666665,163.53997930396747L248.66533333333334,161.4964458280376L249.052,163.8489891867852L249.081,164.01592255836087L249.4,164.3431077381592L249.61266666666668,164.382857917914L249.70933333333332,164.27005290609586L250.01866666666666,164.3540213353697L250.17333333333335,163.8149516411026L250.44400000000002,164.4265822933804L250.45366666666666,164.25063897160663L251.35266666666666,164.0126629646535L251.72,164.32190516293963L252.21300000000002,161.6883907548285L252.23233333333334,159.47551279959404L252.58033333333333,153.72258813274757L252.75433333333334,164.32146843293512L252.78333333333333,164.3247246052521L253.46,164.25559394548847L253.91433333333336,162.32322870987866L254.21400000000003,164.09456120785327L254.417,164.47475343556974L254.91966666666667,160.61742475274949L255.47066666666666,164.3854574258115L255.722,164.11301932878393L256.4373333333333,164.29313145344744L256.5436666666667,164.28306330699706L256.5726666666667,164.08222323614007L256.86266666666666,161.75282399864602L256.92066666666665,162.49806240858246L257.35566666666665,164.03917957372366L258.3126666666667,164.15022114960345L258.90233333333333,158.63187458046843L259.1343333333333,160.9156626198707L259.19233333333335,164.17391065885147L259.3953333333333,164.25955799240953L259.62733333333335,164.24958448637378L259.84000000000003,164.24975215098573L259.96566666666666,164.4279794922007L260.391,159.00561319467212L260.7196666666667,-4308.093324034555L260.7583333333333,163.51748118266198L260.92266666666666,85.80656017831393L260.942,57.29640171102115L262.044,164.44912163149067L262.2373333333333,164.008352078697L262.334,164.28225388091107L262.5756666666667,164.14836388797931L262.99133333333333,164.34238005339867L263.12666666666667,164.37918562399489L263.262,164.28773103949706L263.5133333333333,164.32726107055848L263.60033333333337,163.7426291467023L264.05466666666666,164.0188428104223L264.0933333333333,164.39841592895348L264.19,164.33135136749127L264.29633333333334,164.3291452464924L264.335,163.98439358647113L264.364,164.2527694641014L264.4413333333334,164.29287746524872L264.64433333333335,164.2332949194342L264.712,164.3267799119278L264.915,163.41714923214167L265.25333333333333,164.09234761301195L265.44666666666666,164.291160129779L265.466,163.83469618598133L265.63033333333334,164.37421655012295L265.7656666666667,159.49715772550553L265.8333333333333,164.3055394070755" fill="none"></path></g></g></g></g></g></g><g transform="translate(40, 176)" clip-path="url(#clip_1)"><clipPath id="clip_1"><rect width="290" height="23"></rect></clipPath><g><g><line x1="0" y1="0" x2="0" y2="5" style="visibility: inherit;" fill="rgb(0, 0, 0)" stroke="rgb(204, 204, 204)" stroke-width="1.333333px"></line><line x1="24.166666666666664" y1="0" x2="24.166666666666664" y2="5" style="visibility: inherit;" fill="rgb(0, 0, 0)" stroke="rgb(204, 204, 204)" stroke-width="1.333333px"></line><line x1="48.33333333333333" y1="0" x2="48.33333333333333" y2="5" style="visibility: inherit;" fill="rgb(0, 0, 0)" stroke="rgb(204, 204, 204)" stroke-width="1.333333px"></line><line x1="72.5" y1="0" x2="72.5" y2="5" style="visibility: inherit;" fill="rgb(0, 0, 0)" stroke="rgb(204, 204, 204)" stroke-width="1.333333px"></line><line x1="96.66666666666666" y1="0" x2="96.66666666666666" y2="5" style="visibility: inherit;" fill="rgb(0, 0, 0)" stroke="rgb(204, 204, 204)" stroke-width="1.333333px"></line><line x1="120.83333333333334" y1="0" x2="120.83333333333334" y2="5" style="visibility: inherit;" fill="rgb(0, 0, 0)" stroke="rgb(204, 204, 204)" stroke-width="1.333333px"></line><line x1="145" y1="0" x2="145" y2="5" style="visibility: inherit;" fill="rgb(0, 0, 0)" stroke="rgb(204, 204, 204)" stroke-width="1.333333px"></line><line x1="169.16666666666669" y1="0" x2="169.16666666666669" y2="5" style="visibility: inherit;" fill="rgb(0, 0, 0)" stroke="rgb(204, 204, 204)" stroke-width="1.333333px"></line><line x1="193.33333333333331" y1="0" x2="193.33333333333331" y2="5" style="visibility: inherit;" fill="rgb(0, 0, 0)" stroke="rgb(204, 204, 204)" stroke-width="1.333333px"></line><line x1="217.5" y1="0" x2="217.5" y2="5" style="visibility: inherit;" fill="rgb(0, 0, 0)" stroke="rgb(204, 204, 204)" stroke-width="1.333333px"></line><line x1="241.66666666666669" y1="0" x2="241.66666666666669" y2="5" style="visibility: inherit;" fill="rgb(0, 0, 0)" stroke="rgb(204, 204, 204)" stroke-width="1.333333px"></line><line x1="265.8333333333333" y1="0" x2="265.8333333333333" y2="5" style="visibility: inherit;" fill="rgb(0, 0, 0)" stroke="rgb(204, 204, 204)" stroke-width="1.333333px"></line><line x1="290" y1="0" x2="290" y2="5" style="visibility: inherit;" fill="rgb(0, 0, 0)" stroke="rgb(204, 204, 204)" stroke-width="1.333333px"></line></g><g transform="translate(0, 8)"><text style="text-anchor: middle; visibility: hidden; font-family: Roboto, sans-serif; font-size: 16px; font-weight: 200;" x="0" y="0" dx="0em" dy="0.95em" fill="rgb(33, 33, 33)" stroke="none" stroke-width="1.333333px">-10k</text><text style="text-anchor: middle; visibility: inherit; font-family: Roboto, sans-serif; font-size: 16px; font-weight: 200;" x="24.166666666666664" y="0" dx="0em" dy="0.95em" fill="rgb(33, 33, 33)" stroke="none" stroke-width="1.333333px">0</text><text style="text-anchor: middle; visibility: hidden; font-family: Roboto, sans-serif; font-size: 16px; font-weight: 200;" x="48.33333333333333" y="0" dx="0em" dy="0.95em" fill="rgb(33, 33, 33)" stroke="none" stroke-width="1.333333px">10k</text><text style="text-anchor: middle; visibility: inherit; font-family: Roboto, sans-serif; font-size: 16px; font-weight: 200;" x="72.5" y="0" dx="0em" dy="0.95em" fill="rgb(33, 33, 33)" stroke="none" stroke-width="1.333333px">20k</text><text style="text-anchor: middle; visibility: hidden; font-family: Roboto, sans-serif; font-size: 16px; font-weight: 200;" x="96.66666666666666" y="0" dx="0em" dy="0.95em" fill="rgb(33, 33, 33)" stroke="none" stroke-width="1.333333px">30k</text><text style="text-anchor: middle; visibility: inherit; font-family: Roboto, sans-serif; font-size: 16px; font-weight: 200;" x="120.83333333333334" y="0" dx="0em" dy="0.95em" fill="rgb(33, 33, 33)" stroke="none" stroke-width="1.333333px">40k</text><text style="text-anchor: middle; visibility: hidden; font-family: Roboto, sans-serif; font-size: 16px; font-weight: 200;" x="145" y="0" dx="0em" dy="0.95em" fill="rgb(33, 33, 33)" stroke="none" stroke-width="1.333333px">50k</text><text style="text-anchor: middle; visibility: inherit; font-family: Roboto, sans-serif; font-size: 16px; font-weight: 200;" x="169.16666666666669" y="0" dx="0em" dy="0.95em" fill="rgb(33, 33, 33)" stroke="none" stroke-width="1.333333px">60k</text><text style="text-anchor: middle; visibility: hidden; font-family: Roboto, sans-serif; font-size: 16px; font-weight: 200;" x="193.33333333333331" y="0" dx="0em" dy="0.95em" fill="rgb(33, 33, 33)" stroke="none" stroke-width="1.333333px">70k</text><text style="text-anchor: middle; visibility: inherit; font-family: Roboto, sans-serif; font-size: 16px; font-weight: 200;" x="217.5" y="0" dx="0em" dy="0.95em" fill="rgb(33, 33, 33)" stroke="none" stroke-width="1.333333px">80k</text><text style="text-anchor: middle; visibility: hidden; font-family: Roboto, sans-serif; font-size: 16px; font-weight: 200;" x="241.66666666666669" y="0" dx="0em" dy="0.95em" fill="rgb(33, 33, 33)" stroke="none" stroke-width="1.333333px">90k</text><text style="text-anchor: middle; visibility: inherit; font-family: Roboto, sans-serif; font-size: 16px; font-weight: 200;" x="265.8333333333333" y="0" dx="0em" dy="0.95em" fill="rgb(33, 33, 33)" stroke="none" stroke-width="1.333333px">100k</text><text style="text-anchor: middle; visibility: hidden; font-family: Roboto, sans-serif; font-size: 16px; font-weight: 200;" x="290" y="0" dx="0em" dy="0.95em" fill="rgb(33, 33, 33)" stroke="none" stroke-width="1.333333px">110k</text></g><line x1="0" y1="0" x2="290" y2="0" fill="rgb(0, 0, 0)" stroke="rgb(204, 204, 204)" stroke-width="1.333333px"></line></g></g></g></g></svg>