<svg viewBox="0 0 330 200" xmlns="http://www.w3.org/2000/svg"><g><g><g><g><g><line x1="50" y1="176.984375" x2="45" y2="176.984375" style="visibility: inherit;" fill="rgb(0, 0, 0)" stroke="rgb(204, 204, 204)" stroke-width="1.333333px"></line><line x1="50" y1="160.89488636363635" x2="45" y2="160.89488636363635" style="visibility: inherit;" fill="rgb(0, 0, 0)" stroke="rgb(204, 204, 204)" stroke-width="1.333333px"></line><line x1="50" y1="144.80539772727272" x2="45" y2="144.80539772727272" style="visibility: inherit;" fill="rgb(0, 0, 0)" stroke="rgb(204, 204, 204)" stroke-width="1.333333px"></line><line x1="50" y1="128.7159090909091" x2="45" y2="128.7159090909091" style="visibility: inherit;" fill="rgb(0, 0, 0)" stroke="rgb(204, 204, 204)" stroke-width="1.333333px"></line><line x1="50" y1="112.62642045454545" x2="45" y2="112.62642045454545" style="visibility: inherit;" fill="rgb(0, 0, 0)" stroke="rgb(204, 204, 204)" stroke-width="1.333333px"></line><line x1="50" y1="96.53693181818181" x2="45" y2="96.53693181818181" style="visibility: inherit;" fill="rgb(0, 0, 0)" stroke="rgb(204, 204, 204)" stroke-width="1.333333px"></line><line x1="50" y1="80.44744318181819" x2="45" y2="80.44744318181819" style="visibility: inherit;" fill="rgb(0, 0, 0)" stroke="rgb(204, 204, 204)" stroke-width="1.333333px"></line><line x1="50" y1="64.35795454545455" x2="45" y2="64.35795454545455" style="visibility: inherit;" fill="rgb(0, 0, 0)" stroke="rgb(204, 204, 204)" stroke-width="1.333333px"></line><line x1="50" y1="48.26846590909091" x2="45" y2="48.26846590909091" style="visibility: inherit;" fill="rgb(0, 0, 0)" stroke="rgb(204, 204, 204)" stroke-width="1.333333px"></line><line x1="50" y1="32.178977272727266" x2="45" y2="32.178977272727266" style="visibility: inherit;" fill="rgb(0, 0, 0)" stroke="rgb(204, 204, 204)" stroke-width="1.333333px"></line><line x1="50" y1="16.08948863636364" x2="45" y2="16.08948863636364" style="visibility: inherit;" fill="rgb(0, 0, 0)" stroke="rgb(204, 204, 204)" stroke-width="1.333333px"></line><line x1="50" y1="0" x2="45" y2="0" style="visibility: inherit;" fill="rgb(0, 0, 0)" stroke="rgb(204, 204, 204)" stroke-width="1.333333px"></line></g><g transform="translate(40, 0)"><text style="text-anchor: end; visibility: hidden; font-family: Roboto, sans-serif; font-size: 16px; font-weight: 200;" x="0" y="176.984375" dx="0em" dy="0.3em" fill="rgb(33, 33, 33)" stroke="none" stroke-width="1.333333px">-4</text><text style="text-anchor: end; visibility: inherit; font-family: Roboto, sans-serif; font-size: 16px; font-weight: 200;" x="0" y="160.89488636363635" dx="0em" dy="0.3em" fill="rgb(33, 33, 33)" stroke="none" stroke-width="1.333333px">-3.5</text><text style="text-anchor: end; visibility: hidden; font-family: Roboto, sans-serif; font-size: 16px; font-weight: 200;" x="0" y="144.80539772727272" dx="0em" dy="0.3em" fill="rgb(33, 33, 33)" stroke="none" stroke-width="1.333333px">-3</text><text style="text-anchor: end; visibility: inherit; font-family: Roboto, sans-serif; font-size: 16px; font-weight: 200;" x="0" y="128.7159090909091" dx="0em" dy="0.3em" fill="rgb(33, 33, 33)" stroke="none" stroke-width="1.333333px">-2.5</text><text style="text-anchor: end; visibility: hidden; font-family: Roboto, sans-serif; font-size: 16px; font-weight: 200;" x="0" y="112.62642045454545" dx="0em" dy="0.3em" fill="rgb(33, 33, 33)" stroke="none" stroke-width="1.333333px">-2</text><text style="text-anchor: end; visibility: inherit; font-family: Roboto, sans-serif; font-size: 16px; font-weight: 200;" x="0" y="96.53693181818181" dx="0em" dy="0.3em" fill="rgb(33, 33, 33)" stroke="none" stroke-width="1.333333px">-1.5</text><text style="text-anchor: end; visibility: hidden; font-family: Roboto, sans-serif; font-size: 16px; font-weight: 200;" x="0" y="80.44744318181819" dx="0em" dy="0.3em" fill="rgb(33, 33, 33)" stroke="none" stroke-width="1.333333px">-1</text><text style="text-anchor: end; visibility: inherit; font-family: Roboto, sans-serif; font-size: 16px; font-weight: 200;" x="0" y="64.35795454545455" dx="0em" dy="0.3em" fill="rgb(33, 33, 33)" stroke="none" stroke-width="1.333333px">-0.5</text><text style="text-anchor: end; visibility: hidden; font-family: Roboto, sans-serif; font-size: 16px; font-weight: 200;" x="0" y="48.26846590909091" dx="0em" dy="0.3em" fill="rgb(33, 33, 33)" stroke="none" stroke-width="1.333333px">0</text><text style="text-anchor: end; visibility: inherit; font-family: Roboto, sans-serif; font-size: 16px; font-weight: 200;" x="0" y="32.178977272727266" dx="0em" dy="0.3em" fill="rgb(33, 33, 33)" stroke="none" stroke-width="1.333333px">0.5</text><text style="text-anchor: end; visibility: hidden; font-family: Roboto, sans-serif; font-size: 16px; font-weight: 200;" x="0" y="16.08948863636364" dx="0em" dy="0.3em" fill="rgb(33, 33, 33)" stroke="none" stroke-width="1.333333px">1</text><text style="text-anchor: end; visibility: hidden; font-family: Roboto, sans-serif; font-size: 16px; font-weight: 200;" x="0" y="0" dx="0em" dy="0.3em" fill="rgb(33, 33, 33)" stroke="none" stroke-width="1.333333px">1.5</text></g><line x1="50" y1="0" x2="50" y2="176.984375" fill="rgb(0, 0, 0)" stroke="rgb(204, 204, 204)" stroke-width="1.333333px"></line></g></g><g transform="translate(50, 0)" clip-path="url(#clip_0)"><clipPath id="clip_0"><rect width="280" height="176"></rect></clipPath><g><g><g><line x1="0" y1="0" x2="0" y2="176.984375" fill="rgb(0, 0, 0)" stroke="rgb(66, 66, 66)" stroke-width="1.333333px" opacity="0.25"></line><line x1="23.333333333333332" y1="0" x2="23.333333333333332" y2="176.984375" fill="rgb(0, 0, 0)" stroke="rgb(66, 66, 66)" stroke-width="1.333333px" opacity="0.25"></line><line x1="46.666666666666664" y1="0" x2="46.666666666666664" y2="176.984375" fill="rgb(0, 0, 0)" stroke="rgb(66, 66, 66)" stroke-width="1.333333px" opacity="0.25"></line><line x1="70" y1="0" x2="70" y2="176.984375" fill="rgb(0, 0, 0)" stroke="rgb(66, 66, 66)" stroke-width="1.333333px" opacity="0.25"></line><line x1="93.33333333333333" y1="0" x2="93.33333333333333" y2="176.984375" fill="rgb(0, 0, 0)" stroke="rgb(66, 66, 66)" stroke-width="1.333333px" opacity="0.25"></line><line x1="116.66666666666667" y1="0" x2="116.66666666666667" y2="176.984375" fill="rgb(0, 0, 0)" stroke="rgb(66, 66, 66)" stroke-width="1.333333px" opacity="0.25"></line><line x1="140" y1="0" x2="140" y2="176.984375" fill="rgb(0, 0, 0)" stroke="rgb(66, 66, 66)" stroke-width="1.333333px" opacity="0.25"></line><line x1="163.33333333333334" y1="0" x2="163.33333333333334" y2="176.984375" fill="rgb(0, 0, 0)" stroke="rgb(66, 66, 66)" stroke-width="1.333333px" opacity="0.25"></line><line x1="186.66666666666666" y1="0" x2="186.66666666666666" y2="176.984375" fill="rgb(0, 0, 0)" stroke="rgb(66, 66, 66)" stroke-width="1.333333px" opacity="0.25"></line><line x1="210" y1="0" x2="210" y2="176.984375" fill="rgb(0, 0, 0)" stroke="rgb(66, 66, 66)" stroke-width="1.333333px" opacity="0.25"></line><line x1="233.33333333333334" y1="0" x2="233.33333333333334" y2="176.984375" fill="rgb(0, 0, 0)" stroke="rgb(66, 66, 66)" stroke-width="1.333333px" opacity="0.25"></line><line x1="256.66666666666663" y1="0" x2="256.66666666666663" y2="176.984375" fill="rgb(0, 0, 0)" stroke="rgb(66, 66, 66)" stroke-width="1.333333px" opacity="0.25"></line><line x1="280" y1="0" x2="280" y2="176.984375" fill="rgb(0, 0, 0)" stroke="rgb(66, 66, 66)" stroke-width="1.333333px" opacity="0.25"></line></g><g><line x1="0" y1="176.984375" x2="280" y2="176.984375" fill="rgb(0, 0, 0)" stroke="rgb(66, 66, 66)" stroke-width="1.333333px" opacity="0.25"></line><line x1="0" y1="160.89488636363635" x2="280" y2="160.89488636363635" fill="rgb(0, 0, 0)" stroke="rgb(66, 66, 66)" stroke-width="1.333333px" opacity="0.25"></line><line x1="0" y1="144.80539772727272" x2="280" y2="144.80539772727272" fill="rgb(0, 0, 0)" stroke="rgb(66, 66, 66)" stroke-width="1.333333px" opacity="0.25"></line><line x1="0" y1="128.7159090909091" x2="280" y2="128.7159090909091" fill="rgb(0, 0, 0)" stroke="rgb(66, 66, 66)" stroke-width="1.333333px" opacity="0.25"></line><line x1="0" y1="112.62642045454545" x2="280" y2="112.62642045454545" fill="rgb(0, 0, 0)" stroke="rgb(66, 66, 66)" stroke-width="1.333333px" opacity="0.25"></line><line x1="0" y1="96.53693181818181" x2="280" y2="96.53693181818181" fill="rgb(0, 0, 0)" stroke="rgb(66, 66, 66)" stroke-width="1.333333px" opacity="0.25"></line><line x1="0" y1="80.44744318181819" x2="280" y2="80.44744318181819" fill="rgb(0, 0, 0)" stroke="rgb(66, 66, 66)" stroke-width="1.333333px" opacity="0.25"></line><line x1="0" y1="64.35795454545455" x2="280" y2="64.35795454545455" fill="rgb(0, 0, 0)" stroke="rgb(66, 66, 66)" stroke-width="1.333333px" opacity="0.25"></line><line x1="0" y1="48.26846590909091" x2="280" y2="48.26846590909091" fill="rgb(0, 0, 0)" stroke="rgb(66, 66, 66)" stroke-width="1.333333px" opacity="0.25"></line><line x1="0" y1="32.178977272727266" x2="280" y2="32.178977272727266" fill="rgb(0, 0, 0)" stroke="rgb(66, 66, 66)" stroke-width="1.333333px" opacity="0.25"></line><line x1="0" y1="16.08948863636364" x2="280" y2="16.08948863636364" fill="rgb(0, 0, 0)" stroke="rgb(66, 66, 66)" stroke-width="1.333333px" opacity="0.25"></line><line x1="0" y1="0" x2="280" y2="0" fill="rgb(0, 0, 0)" stroke="rgb(66, 66, 66)" stroke-width="1.333333px" opacity="0.25"></line></g></g></g><g><g><line x1="0" y1="48.26846590909091" x2="280" y2="48.26846590909091" fill="rgb(0, 0, 0)" stroke="rgb(153, 153, 153)" stroke-width="2px"></line></g></g><g><g><line x1="23.333333333333332" y1="0" x2="23.333333333333332" y2="176.984375" fill="rgb(0, 0, 0)" stroke="rgb(153, 153, 153)" stroke-width="2px"></line></g></g><g><g><g><g><g><path style="fill: none;" stroke="rgb(255, 112, 67)" stroke-width="2.666667px" d="M23.520000000000003,48.30169362710281L23.790666666666667,48.94852311727168L23.930666666666667,49.586204157979786L23.94,49.840156458665625L24.182666666666666,51.903312511683595L24.313333333333333,50.29228113177569L24.350666666666665,49.469733343036886L24.546666666666667,49.032122075489035L24.882666666666665,48.744799328293496L24.95733333333333,48.51538462368607L25.134666666666664,48.417212307764785L25.62933333333333,48.34503121074412L25.769333333333332,48.270166079073725L25.983999999999998,48.27359785893631L26.32933333333333,48.2653521463148L26.768,48.2659832969901L26.954666666666668,48.27114007773353L27.104,48.270638092181684L27.225333333333335,48.2687717366322L27.430666666666664,48.278318092267035L27.692,48.2734810155726L27.785333333333334,48.27239560661818L27.84133333333333,48.27152187871668L28.112000000000002,48.27148098884252L28.326666666666668,48.27086570427755L28.37333333333333,48.269189212375124L28.392,48.268136519413204L28.541333333333334,48.26734839408231L28.91466666666667,48.26779540025045L29.29733333333333,48.26719282415808L29.35333333333333,48.267557823338116L29.362666666666666,48.2670257274902L29.493333333333332,48.2677291564603L29.651999999999997,48.26858084953134L30.482666666666667,48.26853103732129L30.585333333333335,48.26833926940074L30.856,48.2666537367219L31.35066666666667,48.26745379191966L31.43466666666667,48.2678210456654L31.621333333333332,47.065046097365894L32.144,47.563788183206256L32.676,48.574818567979996L32.82533333333333,48.10347239230295L32.928,48.55556498806095L33.03066666666667,48.385260155031304L33.208,47.95855576664373L33.348,47.885650005837334L33.721333333333334,48.80371664268218L33.852,246.10419456429483L33.91733333333333,195.69656420387318L34.104,134.09417449369266L34.216,99.7633302317247L34.309333333333335,79.45737719840076L34.328,67.01875214622504L34.40266666666667,59.96455040481891L34.72,54.688471868620994L35.037333333333336,50.08780085314859L35.056000000000004,48.82798531236418L35.083999999999996,47.112835322132774L35.17733333333334,47.58965374149637L35.214666666666666,47.12535765965977L35.718666666666664,47.70831543353589L35.90533333333333,46.9485213831047L36.19466666666667,47.395983162047L36.57733333333333,61.39539848824727L36.95066666666667,53.72425050209286L36.96,46.55373731871816L37.29600000000001,48.793014981841026L37.44533333333334,48.75440364403859L37.473333333333336,65.88553305759034L37.800000000000004,93.69511176522971L37.828,203.3444738806055L37.958666666666666,141.4803918772309L38.248,106.54902160957216L38.53733333333333,73.46563454120935L38.612,63.76001463553873L38.93866666666667,57.51153044412746L39.07866666666667,676.7952488691225L40.712,188.7902860256319L41.076,145.49504143750198L41.16933333333333,106.71866977123281L41.45866666666667,82.59926421214854L41.64533333333333,56.35561579003491L41.654666666666664,75.25209775045792L41.82266666666667,58.60947490881958L42.672000000000004,54.47279588175733L42.756,45.9053517163326L42.849333333333334,48.97779124913338L42.952000000000005,47.66393203894656L43.96933333333333,35.3942323565288L44.996,40.56660747358928L45.36933333333334,89.89926023110857L45.696000000000005,60.88958025870063L46.088,58.37119776870486L46.13466666666667,53.27899131566147L46.256,41.04297401182408L46.33066666666667,31.781047801753658L46.358666666666664,30.906259853400364L46.54533333333334,32.68909774910769L46.71333333333333,48.71905229964309L46.844,59.26963063668825L46.965333333333334,183.8038443340539L47.404,133.8412558207483L47.413333333333334,101.7799097346462L47.60933333333334,90.83850967718345L47.870666666666665,64.13778760848533L47.94533333333333,50.955065163630806L48.02,48.902420404309254L48.40266666666667,39.165213646688045L48.486666666666665,51.79842145465601L48.626666666666665,40.01648580530863L48.71066666666666,87.77120479697282L48.86933333333334,67.87165166941406L48.92533333333333,54.7180485731246L49.04666666666667,70.08609949385418L49.056,58.664817475426304L49.06533333333333,51.597185150107435L49.18666666666667,50.677010723733225L49.34533333333333,46.04071853833395L49.59733333333333,40.49224660839383L49.80266666666667,31.998639312117326L49.896,36.85033123941688L50.05466666666666,103.38003216589914L50.99733333333334,76.46151242890666L51.1,119.67591620229906L52.12666666666667,92.97617097425216L52.136,101.86096725057757L52.32266666666666,80.44789435354319L52.332,67.5392778786133L52.472,59.88329192531766L52.705333333333336,47.802413723947936L53.20933333333333,53.01242518481373L53.37733333333333,97.10182521106132L53.601333333333336,67.94941234248584L53.82533333333333,59.758536386820275L53.85333333333333,48.162489057354406L54.67466666666667,39.709509009041305L55.12266666666667,35.56914815743385L55.65466666666667,58.82711456165305L55.86,55.57716509464194L55.93466666666667,40.618309814762455L56.01866666666667,41.93981687565258L56.26133333333333,32.11023318814188L56.63466666666667,34.4084544563247L56.66266666666667,37.09119346391604L56.952,29.079911847908903L57.10133333333333,41.5532809249377L57.455999999999996,32.57550448129109L57.484,37.82525670945365L57.52133333333333,40.05056271220712L57.586666666666666,42.741156411127676L57.614666666666665,32.85915260126757L57.792,63.64889951847699L57.99733333333334,47.02190087130382L58.45466666666666,38.565633098807055L58.650666666666666,111.05886297365682L59.266666666666666,77.5070887795753L59.285333333333334,86.13954887530116L59.77066666666666,92.158051281165L59.892,62.417619842231275L59.948,43.92120007411132L60.06,34.299554223074374L60.088,48.48189664614701L60.452000000000005,35.66855988891695L60.797333333333334,28.303204270200034L60.9,49.67853719927816L61.00266666666666,41.23188662850988L61.05866666666667,43.3539264151673L61.123999999999995,37.981144059199785L61.46933333333333,47.78696281143131L61.702666666666666,40.173529929442374L61.81466666666667,42.91252235264967L61.842666666666666,51.26195718407918L62.047999999999995,40.54507340906055L62.37466666666667,32.94606322116359L62.47733333333333,32.638748570455064L62.804,26.039090938169984L63.084,35.20752324731738L63.653333333333336,218.67924468559974L63.74666666666666,143.3574494844255L64.92266666666667,99.86234788166583L65.67866666666667,69.52125956659322L65.716,156.71078979887358L65.94933333333334,230.52479173112766L66.39733333333334,144.86869448832894L66.74266666666666,109.55016420580282L67.12533333333333,79.75287220072784L67.144,56.16115161532022L67.2,40.43347615134577L67.284,35.45088190663969L67.49866666666667,56.16829021579583L67.93733333333334,43.81490381204114L68.45066666666666,32.7469560450171L68.47866666666667,37.14383305117161L68.488,32.642983656404446L68.56266666666667,27.10471028592414L68.91733333333333,56.963885298408435L69.17866666666666,46.03204683784251L69.356,55.388212820648974L69.54266666666668,62.14017848810596L69.83200000000001,52.17540007480246L70.756,38.30110706111566L70.84,30.26420764431549L70.85866666666666,27.70638698785527L71.25066666666667,31.555333705552208L71.288,25.57290921948907L71.428,22.87202861316806L71.45599999999999,21.164907941620932L71.46533333333333,23.318056979960485L71.764,26.055690474594137L71.88533333333332,52.193442010344675L72.11866666666667,37.84978307563217L72.24000000000001,31.457565679907603L72.38,30.63839445885516L72.464,26.361200502794702L72.492,46.97843532218712L72.772,46.08621758662623L72.996,46.99096059291068L73.02399999999999,47.52914331494329L73.39733333333334,57.24507387661073L73.47200000000001,41.44108540084659L73.78,31.64921421391513L74.17200000000001,38.20322745755867L74.256,42.219761142268034L74.30266666666665,42.688739942988306L74.76933333333334,33.665363441057416L76.244,27.062382121810682L76.832,31.53183485366935L77.09333333333333,58.5215079070646L77.308,63.48722467908373L77.78399999999999,45.11413647572031L78.10133333333333,36.273842544169916L78.22266666666667,43.628949545265804L78.86666666666667,36.34716739461407L78.94133333333333,36.663991196256575L79.17466666666667,30.880844254592276L79.324,26.02111069111883L79.436,23.76271597688169L79.84666666666666,21.52413486951723L80.388,19.51731029642198L80.59333333333333,22.019040568535047L80.64,198.1921544043861L80.67733333333334,141.83632645040782L81.452,97.82886346813243L81.61999999999999,69.72217364595596L81.956,49.621890496042056L82.152,41.63361671866847L82.45066666666666,31.90945809114823L82.46933333333332,29.755136377807297L82.69333333333333,25.219056980672445L82.70266666666667,22.835926981026063L82.74933333333333,25.795133621654497L82.796,21.994200294750776L83.76666666666668,30.620409724843306L84.28,26.10558559583263L84.448,22.39904633906916L84.49466666666667,21.702743912608394L84.61600000000001,20.57033482308174L84.66266666666667,19.848171305664497L84.812,22.022537858626457L84.85866666666666,61.8904586266254L84.94266666666667,46.056243524976864L85.092,35.77536100779401L85.63333333333334,49.855862696050885L86.072,39.56842528750259L86.16533333333334,49.23455573911955L86.352,301.2969249593943L86.83733333333333,197.52283037960544L87.21066666666667,147.12560670368245L87.28533333333333,100.03532243077922L87.36933333333333,69.58722407931883L87.51866666666666,58.501455813829345L87.90133333333334,41.59751379697306L87.92933333333333,31.477287100619417L88.03200000000001,85.41979330103666L88.60133333333334,68.15161151129104L88.648,54.62677922916362L88.66666666666666,46.04664117208471L89.18933333333334,44.33068930275054L89.77733333333333,37.386334265679075L89.80533333333332,32.37694402192178L89.86133333333333,47.988574718993135L90.216,54.30407172881329L90.34666666666666,56.20469294007279L90.61733333333333,41.20179584753635L91.04666666666667,43.20882713622849L91.24266666666668,34.50651288647383L91.56,27.557377366414492L91.84,32.73545999154987L91.98,35.57261189477333L92.11066666666667,39.94699387467643L92.64266666666666,39.929122616152405L92.74533333333333,37.38430263886694L92.75466666666667,30.105799306353827L93.016,26.341278252039707L93.05333333333333,29.216066991531182L93.07199999999999,37.95946823291761L93.184,29.860792496968717L93.408,26.62009991655912L93.52000000000001,41.13999025656516L93.59466666666667,33.750183534742L93.65066666666667,32.11634198817755L93.75333333333333,29.78377327725269L93.828,29.34071235972629L93.84666666666666,27.311808181376826L94.22,25.94747502672604L94.304,26.958284651215635L94.32266666666666,36.2970830008243L94.64,34.62567983921766L94.696,47.33776996971282L94.84533333333333,39.35607219912911L95.47066666666666,35.63441591463922L95.49866666666667,28.9750152038725L95.74133333333333,59.73347257662421L96.096,44.2540736616875L96.10533333333333,34.37162900646154L96.348,90.99782646053264L96.50666666666667,64.33718073199312L96.61866666666667,52.64385029159153L96.66533333333334,59.39454671716353L97.03866666666667,52.012739946548116L97.09466666666667,40.28550409558922L97.35600000000001,30.887987593693417L97.888,25.18418610895012L98.44800000000001,31.197219945001454L98.74666666666667,26.14323088978291L99.15733333333334,22.37190855382529L99.36266666666667,28.614550924694054L99.53999999999999,24.30091714203901L99.54933333333332,49.770927024562816L99.81066666666666,37.362550854315856L100.03466666666667,28.93927305413569L100.156,49.26720139598636L100.604,48.3631637519049L100.73466666666667,45.783005901384996L100.78133333333334,45.94515434261317L101.304,35.155355899330004L101.40666666666668,32.667531733445486L101.53733333333332,26.19813294428609L101.724,22.796837889415706L101.85466666666667,25.609724387032834L102.60133333333333,27.033485043836386L102.88133333333333,33.014005750104516L103.13333333333334,45.87622567382899L103.18933333333334,35.00206555618043L103.27333333333334,34.3500028293242L103.78666666666666,27.07686978680171L103.87066666666666,23.913469589772596L104.16933333333333,20.93772668308834L104.20666666666666,19.05768896806511L104.496,19.111317950270916L104.552,18.002293929355044L104.72,18.305728730700963L104.776,17.639700251469197L105.03733333333332,17.369016069736848L105.056,18.04173987002451L105.26133333333334,29.09847361773473L105.28,36.98642866759541L105.7,28.75356046527055L105.79333333333334,24.868974182884095L106.092,21.69278835546873L106.13866666666667,23.938373484644522L106.20400000000001,28.496224116142L106.57733333333333,27.230973975260667L106.61466666666666,24.164181507400237L107.212,28.389787973029378L107.408,34.03736993882829L107.66,43.52495690616779L107.89333333333335,50.808175416838544L108.44399999999999,99.97489503581771L108.48133333333334,77.88271014129786L108.77066666666667,53.76132778706462L109.33066666666667,39.458134659491016L109.704,30.523371259365973L110.068,40.63098416856416L110.18,31.14905528599368L110.19866666666667,52.301392801305276L110.264,38.982246594115125L110.404,31.383232614469733L110.57199999999999,29.874325145065498L110.70266666666666,25.04281160921273L110.824,22.413359489478623L110.87066666666668,40.031696896976634L110.964,33.292433858716535L111.608,39.28662286977032L112.37333333333333,31.098035740218744L112.45733333333334,25.29524142557837L112.54133333333333,21.793081954885086L112.63466666666666,19.911961525256213L112.88666666666667,31.207284939035638L113.61466666666666,25.384650303041024L113.624,22.63881132652902L113.81066666666666,65.11941759025832L113.92266666666666,59.25596173803567L113.99733333333333,47.116687882600125L114.38,59.81787510908392L114.38933333333334,44.51455385937703L114.55733333333333,41.142354335702834L114.94,33.06749306006817L115.04266666666666,31.59390613624696L115.164,318.46358876286945L115.28533333333334,198.65075556307974L115.444,126.57941707051309L115.696,83.43146602902446L115.78933333333333,67.42589997589859L115.91066666666666,59.29730252365794L116.19999999999999,52.94956780453745L116.20933333333333,49.09174596093323L116.21866666666666,46.72583414189897L116.312,44.706656014676355L116.43333333333334,45.368159006918575L116.48933333333332,45.191806329501546L116.61999999999999,44.090430608003885L117.27333333333334,40.47351286535671L117.52533333333334,55.35929564453107L117.81466666666667,114.49500396034196L117.97333333333333,76.08268323181262L118.46799999999999,64.75765761409026L118.62666666666668,56.777898022417084L118.692,44.307213087662916L119.19600000000001,85.02163242088845L119.29866666666666,57.48192206839703L119.87733333333333,59.662785427147575L119.90533333333335,45.46167416044902L119.91466666666668,39.578412827839706L120.372,30.221313191985157L120.83866666666667,24.841791779013406L120.89466666666667,23.542561673296095L120.90400000000001,23.300886074786767L120.96,20.864622796580964L121.36133333333333,25.87977181727582L121.52,22.9817148559629L121.92133333333334,28.50501672095457L122.03333333333333,27.28218910237895L122.24799999999999,31.35768032774231L122.416,29.63781961724377L122.59333333333333,26.523275599657055L122.68666666666667,24.01438125797641L122.70533333333333,21.260134340410247L123.284,34.29467716051413L123.37733333333333,33.989193468373465L123.44266666666667,27.04478764790817L123.63866666666667,35.95094573746691L123.88133333333333,33.34088007137516L124.544,32.80215870089356L125.05733333333333,40.913144163634165L125.79466666666666,35.12261197510382L126.22399999999999,29.14565704822442L126.23333333333332,24.566371969355206L126.28,30.058385796530857L126.35466666666666,30.2810367517998L126.52266666666668,41.62769017805639L126.896,31.436052567289536L127.12,33.3021944785952L127.176,26.935039510229668L127.18533333333333,26.255237713396212L127.50266666666666,35.259787890820974L127.60533333333333,44.67431804936593L127.96000000000001,40.16622268160156L127.99733333333333,60.95034850781596L128.05333333333334,44.07594321687103L128.12800000000001,34.061525382282994L129.09866666666667,28.652003964213307L129.108,23.94512005135177L129.696,22.73364724399412L129.78933333333333,69.31638693050873L129.836,50.5852935295076L130.15333333333334,44.305653063077706L130.20000000000002,42.634804010462155L130.3213333333333,33.97689380243611L130.34,29.74570700198257L130.928,25.035970552736124L131.33866666666668,36.79899035631038L131.41333333333333,29.16848066841884L131.72133333333332,25.894146818991977L132.51466666666667,22.351619644725385L132.888,20.667023113039647L133.07466666666667,19.022188883334003L133.15866666666668,18.18338607228105L133.35466666666667,18.21752877559949L133.644,17.43219735421572L133.66266666666667,18.058634084626316L133.7,27.112649282003353L133.89600000000002,27.756058111287476L133.924,24.629842317414305L133.96133333333333,23.527543792097802L134.11066666666667,21.589265900235795L134.19466666666668,20.155652458691904L134.25066666666666,19.313959495992403L134.932,18.907859665804565L135.09066666666666,18.057525775266694L135.604,18.933513565538316L136.06133333333332,33.336908557087604L136.612,32.242914223062726L136.98533333333333,38.3786851479121L137.02266666666668,29.926025702390294L137.312,27.30042585410397L137.54533333333333,33.174810853779285L137.88133333333334,28.068953706336522L138.17066666666668,27.109723717171384L138.18933333333334,25.520008409209293L138.30133333333333,25.135797137892215L138.656,22.23551798286144L138.768,37.991069756119444L139.02933333333334,33.69231988165103L139.06666666666666,32.34584744906237L139.08533333333335,35.24484698338613L139.28133333333332,44.343062285941485L139.29066666666668,51.72091021201709L139.43066666666667,39.016403394898866L139.54266666666666,53.64785871939616L139.79466666666667,40.1844672705121L139.81333333333333,32.646875749118L139.832,26.474094722945882L140.52266666666668,24.09908601185536L140.96133333333333,21.375021245777265L141.4,20.351573450115396L141.96,19.054807510712884L142.65066666666667,37.82335393302172L142.73466666666667,96.14643398707447L143.36,66.4161911648857L143.7613333333333,46.29284388140291L143.79866666666666,34.44019839992301L143.95733333333334,38.60453427000856L144.16266666666667,29.99595205353291L144.424,26.20533007507026L144.46133333333333,22.40867321673823L144.65733333333336,326.84441242804405L144.77866666666668,221.58729577841703L144.9093333333333,142.04178328689164L145.02133333333333,753.3226235374202L145.544,200.55614944084658L146.44,143.38116372383502L146.804,93.7234927682446L147.01866666666666,66.22676833977498L147.12133333333333,49.341220695924854L147.52266666666668,38.0336830620426L147.94266666666667,30.134617966543743L148.30666666666664,55.756574688902894L148.58666666666664,40.75286687736162L148.93200000000002,31.032319689782593L149.55733333333333,26.821436502034743L149.65066666666667,23.046454299170744L149.81866666666667,21.91845212181692L149.89333333333335,22.597604862155244L150.17333333333335,35.0036661424051L150.5,40.20259448493563L150.67733333333334,32.497261662730004L150.696,703.9432297193968L150.84533333333331,264.1573263306383L151.368,165.34602720589038L151.55466666666666,105.98400547778421L152.17066666666668,71.6432938045718L152.44133333333332,54.26624720154044L152.60933333333335,39.16719934821737L152.992,30.090849127369445L153.23466666666667,24.94437615944419L153.74800000000002,130.0716758693393L153.832,87.93282264708927L154.07466666666667,59.67209312923062L154.448,43.98679937845219L154.97066666666666,32.96987811912634L155.07333333333332,26.342527660299414L155.204,2492.1050881016395L155.82933333333332,210.28492168522138L155.94133333333332,133.0182075049654L156.1,102.69470122366023L156.42666666666665,68.37465959997208L156.492,47.77375574373307L157.27599999999998,42.16729451782007L157.32266666666666,135.92443703046249L157.388,93.95333930470123L157.44400000000002,85.3520945079182L157.74266666666668,65.22361478514345L157.752,47.04496505389193L157.79866666666666,34.70024025417205L157.92933333333335,35.459907682169685L158.00400000000002,27.990333496276413L158.01333333333335,23.601862894807777L158.62933333333334,25.525850430697716L158.648,22.62881361022733L159.012,20.130944967988697L159.404,18.905529627161098L159.83333333333331,19.331002637731775L160.03866666666667,28.589890946169625L160.97199999999998,26.752378900358327L161.112,29.756813015902654L161.27066666666664,25.41499788625734L161.34533333333334,22.068944506523636L161.66266666666667,20.00678557093599L161.96133333333333,55.70783288196665L162.08266666666665,42.142556597265525L162.11999999999998,33.96759373351672L162.4093333333333,27.366503274956685L162.61466666666666,30.60431916878779L162.652,29.77038289851914L162.792,812.0664043227201L163.968,198.4746287621232L164.00533333333334,129.25298450543875L164.26666666666668,84.17356394343665L164.37866666666665,58.355608763813436L164.472,87.30535720520203L164.50933333333333,72.57633457322707L164.64,61.01896873929973L164.78,158.39660365690298L164.9946666666667,101.67785148385144L165.07866666666666,68.02836218608657L165.20933333333332,47.512731622682736L166.32,35.03815298825739L166.46933333333334,37.72688069630894L166.6,41.422181782780214L166.73066666666668,36.80128373181222L166.81466666666665,31.952954655197182L167.08533333333332,25.791702435822703L167.2626666666667,22.601801543779036L167.412,20.67052597533928L167.468,19.074606311412794L167.608,30.752150150484045L167.664,451.7840647944434L167.92533333333333,278.2094436289768L167.944,173.71859630601463L169.04533333333333,116.7292525705833L169.26000000000002,91.64252527956813L169.30666666666667,76.43204693154917L169.58666666666667,172.93622436508304L169.99733333333333,129.1618799517005L170.0906666666667,84.35527679862729L170.34266666666664,58.007481077903336L170.44533333333334,41.98100673315372L170.75333333333333,35.560111064386334L170.828,28.519380641140273L171.00533333333334,23.835611190239685L171.108,21.232043418043922L171.5,20.07511366343197L171.948,30.71217078236975L171.95733333333334,60.283645850935095L172.80666666666667,42.850279960724635L172.984,42.366237922520654L173.0773333333333,32.27242063082746L173.39466666666667,27.049898937383787L173.66533333333334,23.653435064333895L173.77733333333333,30.82522986756189L173.852,37.64189193590966L174.412,29.80741251863641L174.42133333333334,32.53992803533437L174.888,31.45473147849342L174.916,43.24192145514008L174.9346666666667,38.18984545646615L174.99066666666667,33.2981330494521L175.60666666666665,38.05177859769525L175.91466666666665,42.371285382384016L176.344,40.86733141768864L176.52133333333333,37.26337217581153L176.54933333333332,40.42025329847806L176.67066666666668,36.279801814245296L177.23066666666668,28.57085241720669L177.856,24.695387339484437L178.31333333333333,21.720780682079315L178.332,21.323656367125032L178.42533333333333,23.292050565940734L178.75199999999998,20.755715609872272L178.836,31.951277837787078L179.508,26.414758308271058L179.54533333333333,29.937812507094826L180.08666666666667,31.95456884039317L180.4693333333333,38.47923847541845L180.7493333333333,29.619644450362138L180.76799999999997,24.581404309685762L180.89866666666666,21.189417737498783L180.92666666666668,23.17796818427194L181.15066666666667,35.66023060740743L181.524,31.53874162661967L181.56133333333332,29.517077733363518L182.03733333333332,26.326507708004584L182.16799999999998,38.19568752504403L182.52266666666668,38.58057748415372L182.55066666666667,32.25467535360093L182.72799999999998,37.189611491987804L183.13866666666667,31.05212352373257L183.19466666666668,30.481144533538597L183.204,25.673944077685313L183.35333333333335,31.50512764960489L183.46533333333332,34.49069932785065L184.15599999999998,42.50753034789494L184.1746666666667,44.93660479934674L184.352,66.94880175951843L184.47333333333336,63.19516745561956L184.56666666666666,46.59851732939512L184.64133333333334,41.76137585443005L185.696,44.63702747579011L185.96666666666667,33.86875734859517L186.04133333333334,28.579559124787767L186.82533333333333,31.252347080549423L186.89066666666668,36.74757408066494L187.2733333333333,33.10531657540146L187.77733333333333,35.86307882396295L187.91733333333335,36.05869334219913L187.92666666666668,31.490313195948858L188.06666666666666,27.6987429679207L188.28133333333332,23.227052024703102L188.44,21.429520468682572L188.524,19.42383925920051L188.84133333333332,18.687161438158192L189.12133333333333,20.769555243438013L189.18666666666667,18.960370493528025L189.616,20.383839288750252L190.07333333333332,19.530779230642786L190.16666666666669,19.25157097895217L190.232,18.299559629769227L190.24133333333333,18.590044753384696L190.27866666666665,24.54519922708669L190.64266666666666,21.801487132190143L190.74533333333335,20.127706417282234L190.904,28.403979523804395L191.01600000000002,34.230054348956074L191.39866666666666,27.068794431754444L191.42666666666665,22.792234428072717L191.67866666666666,20.415032017612564L191.744,29.26941025499457L191.94933333333333,24.370075389435897L192.09866666666667,21.410807896018074L192.17333333333335,19.36289365884719L192.36933333333334,57.05945699202344L192.48133333333334,53.54294701227306L192.55599999999998,39.389923536924535L192.59333333333333,34.52353275001744L192.63066666666666,29.410154860663244L193.28400000000002,24.12734612942695L193.928,23.306476950824557L194.45066666666668,25.766609900619954L194.572,22.0783557994225L195.12266666666665,19.81128151604339L195.13199999999998,23.2624396679899L195.244,22.23815790674423L195.356,21.485642033801646L195.496,19.38477334016279L195.58933333333334,18.13058541449409L195.72,17.427682539716372L195.84133333333335,27.503434671791858L195.92533333333333,35.6088809475117L196.224,29.22773549639607L196.8213333333333,24.826048465556784L197.10133333333332,22.21575213064421L197.148,19.801699020299765L197.15733333333336,24.527671482680493L197.26933333333335,21.97096329245787L197.37199999999999,21.237314392464814L198.42666666666668,19.48969222017106L198.436,18.257207985757553L198.492,18.02014724023918L198.51999999999998,17.590574274041778L198.632,17.398658355345162L198.772,16.974831666348628L199.49066666666667,43.39907121191136L199.73333333333335,33.309559252019284L199.78933333333333,26.89417477169963L199.79866666666666,24.980584095980717L200.35866666666666,21.493588083466385L200.60133333333334,21.7591437258252L201.02133333333333,32.34743103181619L201.04933333333332,38.719797631149L201.25466666666668,41.90462166595134L201.60933333333332,33.57429992383414L201.7026666666667,35.83699007195917L201.74,32.91681281198945L201.74933333333334,32.646655007272294L202.636,31.968166601915925L202.65466666666666,28.24350648711257L202.70133333333334,25.48689331222199L203.28,38.94239506881068L203.66266666666667,30.156202880085562L204.12933333333334,29.92351358332152L204.20399999999998,28.055974275917933L204.344,24.218360117365688L204.43733333333333,22.974326520911L204.47466666666665,25.073410444084224L204.60533333333333,24.608001593438477L205.02533333333332,24.846228698062067L205.10933333333335,25.967974050862615L205.33333333333331,22.093269089975326L205.36133333333333,21.150794368985125L205.78133333333332,20.23426571553573L206.444,37.355088330654596L206.59333333333333,32.0465118732415L206.78933333333333,44.87225892183449L206.85466666666667,48.788574776817406L207.228,89.0802507931243L207.80666666666667,59.90121805269209L207.82533333333333,44.72055420988556L208.53466666666668,56.07914282685049L208.72133333333332,46.9681801709185L209.03866666666667,45.98014274057555L209.188,42.56031969019493L209.29066666666665,41.57910870800826L209.70133333333334,33.75053726479117L209.84133333333332,26.805535055719567L209.85066666666665,22.935729621228884L209.888,20.246711915577006L210.00933333333333,20.59472328258049L210.14933333333335,19.17920948763187L210.71866666666668,18.433293041421305L211.06400000000002,18.144605576323745L211.26933333333332,17.573469116882848L212.92133333333334,29.851467833766076L213.11733333333333,45.17739112509033L213.39733333333334,73.53545523728033L213.696,52.72524202614812L213.78,38.53509069186592L213.95733333333334,37.574985928412794L214.12533333333334,33.3869036386144L214.536,26.827484409359638L214.61999999999998,30.063978647783266L214.80666666666667,25.21753525931965L215.012,22.50759932355047L215.2266666666667,32.811808627784586L215.38533333333334,28.389903260907978L215.41333333333333,40.32345435524832L215.44133333333332,33.30424057810327L215.7866666666667,27.489567366137834L216.04799999999997,24.84573870739299L216.216,21.389776664363016L216.23466666666667,19.449581375447366L217.00933333333333,18.7762777220391L217.112,18.49697811121568L217.364,31.20540452781757L217.60666666666665,29.11458203189364L217.84,24.2759294432243L217.868,29.34096102153845L218.85733333333332,24.433007692730687L218.8946666666667,24.690767041650595L219.03466666666668,23.036159211932485L219.05333333333334,21.15391359057902L219.1,19.426925315895215L219.15599999999998,20.531533383107924L219.27733333333333,18.925613057033274L219.352,18.001842058210304L219.688,17.343728071402182L219.83733333333333,16.883484470191732L220.50933333333333,19.633209594245617L220.55599999999998,18.904229295915616L220.76133333333334,30.37380628446715L220.78,194.15813811218723L220.89200000000002,125.07573658332544L220.96666666666667,81.84836724625852L221.02266666666665,410.611223634533L221.26533333333333,257.34212256560113L221.30266666666665,162.7931763289236L221.52666666666667,106.64580384451689L221.62933333333334,71.04195163217132L221.844,50.05127595086607L221.956,36.48970457947624L222.25466666666665,28.368403564881255L222.8706666666667,23.511385983006555L222.992,20.620529970108965L223.26266666666666,19.273882264176507L223.36533333333333,18.095652008914115L223.692,19.80901822724095L223.79466666666667,42.816170684077335L224.784,32.756875142853794L224.80266666666665,26.961121232030884L224.88666666666668,22.82240814324935L224.924,20.28492497337077L224.93333333333334,19.082334907423007L224.99866666666665,26.24185776844764L225.14800000000002,35.05250102470494L225.19466666666668,64.7401262440963L225.624,48.59675238988895L225.66133333333332,36.35095782060952L225.68,28.492696403996433L226.044,26.883979566593013L226.072,23.568695132553014L226.20266666666666,22.275479064248557L226.93066666666667,23.030287711294584L226.99599999999998,21.256695604429638L227.23866666666666,21.495382208291282L229.2733333333333,20.28736074609104L229.49733333333333,23.20890900249804L229.74,28.905213153056547L229.74933333333334,26.2981943009314L229.95466666666667,26.57832541627334L230.048,27.71765158721759L230.19733333333335,33.29657627656431L230.41199999999998,29.404945507663516L230.82266666666666,25.48607284874798L231.23333333333332,22.753940117934583L231.32666666666668,24.76324190908517L231.34533333333334,26.117908105445064L231.41066666666666,24.23769295958571L231.55066666666664,27.48632333839578L232.21333333333334,35.763460761612706L232.232,29.48453363854054L232.57733333333334,33.58572117821033L233.02533333333335,32.02723087340169L233.22133333333332,26.782678121892072L233.48266666666666,22.675896349630122L233.55733333333333,21.091048355882545L233.65066666666667,19.207228604681763L233.97733333333335,19.76307887724866L234.32266666666666,18.41816117990295L234.70533333333336,18.78787072655075L234.836,29.86088099512004L235.2373333333333,27.58826034055948L235.5173333333333,23.70521828676071L235.74133333333333,21.001550154980155L235.96533333333332,19.431624432276973L235.97466666666668,18.43160603567059L236.97333333333336,18.642402720039556L237.28133333333335,18.93908474851415L237.53333333333336,26.036100689848134L237.86,23.09237154462546L237.916,23.772705281471502L237.95333333333332,22.50041310972237L238.51333333333332,20.52319190473658L238.56,18.872490506231433L238.68133333333336,19.302634785227113L238.896,18.159148434003576L239.008,17.796178726984913L239.71733333333333,57.49957747432169L240.0906666666667,47.09726664418434L240.464,37.394623716887565L240.492,31.813782022345265L240.79999999999998,25.889090061956125L241.00533333333334,22.43746877717745L241.09866666666667,20.501287301743837L241.39733333333334,19.1031069282246L241.54666666666668,34.568726145051166L241.80800000000002,27.39466694050458L241.81733333333335,24.812213597561925L242.68533333333335,24.595871242083014L243.04,21.32349167868037L243.51600000000002,29.473433562381654L243.53466666666668,32.15202769553932L243.87066666666666,35.824990761932426L244.03866666666667,28.323541385164244L244.06666666666666,23.89955967052602L244.72,20.82381924050618L245.15866666666668,46.193458014256976L245.448,35.945164296711006L245.644,28.104184484442786L246.12933333333334,24.15258609533678L246.66133333333335,21.093305408255127L246.904,19.352366560142386L247.59466666666665,19.07807407828097L247.69733333333335,367.017693690046L247.72533333333334,237.56649136217763L248.00533333333334,157.49964257567882L248.06133333333335,104.2814449527114L248.4813333333333,83.59010389225452L249.40533333333335,56.691089934067L249.97466666666668,78.4109882452551L250.19866666666667,56.0441902215405L250.25466666666668,47.833249376843526L250.45066666666665,37.20275925034457L250.67466666666667,28.90635660007644L250.88,24.368257120652917L251.00133333333332,21.215673506094287L251.412,50.24584385688554L251.72933333333333,40.19935593993284L251.76666666666668,89.68952131265887L251.92533333333336,75.68555934195594L251.94400000000002,68.40004624188684L253.00799999999998,47.848480764975946L253.19466666666668,35.52065096719478L253.28799999999998,29.065878721073283L253.52133333333333,39.47968357175292L253.9226666666667,30.379783554682245L254.05333333333334,26.370906659454146L254.18400000000003,23.23611204412257L254.42666666666665,33.45304001634954L254.51066666666668,28.242807571412246L254.94933333333333,25.655139731414348L254.98666666666665,22.561599193175766L255.08,20.05146729917752L255.18266666666668,18.589790244975262L255.22,18.1548829818782L255.248,18.030854314539564L255.3226666666667,17.424506690676157L255.51866666666666,29.66479630537071L255.58399999999997,36.92321785766406L255.78,29.331107064276278L256.1066666666667,33.41199225464098L256.29333333333335,27.34333168962594L256.312,26.33543238666328L256.47066666666666,23.374891328618407L256.60133333333334,39.86239710048439L256.66666666666663,32.426721573852184" fill="none"></path></g></g></g></g><g opacity="0.2"><g><g><g><path style="fill: none;" stroke="rgb(255, 112, 67)" stroke-width="2.666667px" d="M23.520000000000003,48.30169362710281L23.790666666666667,49.336620811372995L23.930666666666667,50.19837795705958L23.94,50.13880436427213L24.182666666666666,54.59696905450387L24.313333333333333,48.063644762066275L24.350666666666665,48.29347684437579L24.546666666666667,48.39408064633608L24.882666666666665,48.321054085750475L24.95733333333333,48.1747305242514L25.134666666666664,48.270844249562785L25.62933333333333,48.23715237155557L25.769333333333332,48.15811282921244L25.983999999999998,48.2787388055162L26.32933333333333,48.25299326990816L26.768,48.26692957786673L26.954666666666668,48.27887306667186L27.104,48.26988524130799L27.225333333333335,48.26597248762846L27.430666666666664,48.29263675314459L27.692,48.266225665807724L27.785333333333334,48.2707675289024L27.84133333333333,48.270211304114625L28.112000000000002,48.271419654515654L28.326666666666668,48.26994278180328L28.37333333333333,48.26667448167096L28.392,48.266557482663885L28.541333333333334,48.266166207295925L28.91466666666667,48.26846590909091L29.29733333333333,48.26628896035254L29.35333333333333,48.26810532198711L29.362666666666666,48.26622758382423L29.493333333333332,48.268784299831495L29.651999999999997,48.26985838907686L30.482666666666667,48.268456319008365L30.585333333333335,48.26805161752485L30.856,48.26412543772973L31.35066666666667,48.268653874708846L31.43466666666667,48.268371926281944L31.621333333333332,45.26088367893614L32.144,48.311901310966775L32.676,50.09136414392428L32.82533333333333,47.39645312912762L32.928,49.23370388150215L33.03066666666667,48.12980290553109L33.208,47.31849918412891L33.348,47.776291364634574L33.721333333333334,50.1808165978979L33.852,542.054911440069L33.91733333333333,120.08511866425926L34.104,41.69058992916888L34.216,48.26706383902241L34.309333333333335,48.99844764850356L34.328,48.360814567993984L34.40266666666667,49.383247792720795L34.72,46.7743540643291L35.037333333333336,43.18679432994263L35.056000000000004,46.938262001187965L35.083999999999996,44.54011033678597L35.17733333333334,48.30488137054172L35.214666666666666,46.428913536904886L35.718666666666664,48.582752094350084L35.90533333333333,45.80883030745794L36.19466666666667,48.067175830460414L36.57733333333333,82.39452147754756L36.95066666666667,42.21752852286127L36.96,35.79796754365617L37.29600000000001,52.15193147652529L37.44533333333334,48.69648663733493L37.473333333333336,91.58222717791796L37.800000000000004,135.40947982668877L37.828,367.81851705366915L37.958666666666666,48.68426887216893L38.248,54.15196620808406L38.53733333333333,23.840553938665163L38.612,49.20158477703279L38.93866666666667,48.13880415701054L39.07866666666667,1605.7208265066147L39.23733333333333,383.16611690412867L39.256,49.541169600053266L39.32133333333333,939.8997161009095L39.937333333333335,48.32704980535941L40.590666666666664,157.97718430513686L40.712,41.616397214545444L41.076,80.55217455530709L41.16933333333333,48.554112271829084L41.45866666666667,46.42015587352216L41.64533333333333,16.990143156864416L41.654666666666664,103.59682069109245L41.82266666666667,33.645540646362036L42.672000000000004,48.26777734116398L42.756,33.05418546819551L42.849333333333334,53.586450548334554L42.952000000000005,45.693143223666326L43.96933333333333,16.989682832902137L44.996,48.325170149180025L45.36933333333334,163.8982393673875L45.696000000000005,17.37506030008875L46.088,54.59362403371118L46.13466666666667,45.6406816360964L46.256,22.68894805606793L46.33066666666667,17.888158486648038L46.358666666666664,29.594077930870384L46.54533333333334,35.36335459266874L46.71333333333333,72.76398412544619L46.844,75.09549814225598L46.965333333333334,370.60516488010234L47.404,58.89737305078994L47.413333333333334,53.687890605493024L47.60933333333334,74.42640959098935L47.870666666666665,24.086704505438146L47.94533333333333,31.180981496348977L48.02,45.82345326532695L48.40266666666667,24.559403510256246L48.486666666666665,70.74823316660795L48.626666666666665,22.343582331287593L48.71066666666666,159.40328328446907L48.86933333333334,38.02232197807594L48.92533333333333,34.98764392869039L49.04666666666667,93.1381758749485L49.056,41.53289444778453L49.06533333333333,40.995736662129104L49.18666666666667,49.29674908417192L49.34533333333333,39.08628026023507L49.59733333333333,32.16953871348365L49.80266666666667,19.25822836770253L49.896,44.12786913036622L50.05466666666666,203.17458355562252L50.99733333333334,36.08373282341795L51.1,184.49752186238766L52.12666666666667,52.92655313218182L52.136,115.18816166506572L52.32266666666666,48.32828500799157L52.332,48.176353166218504L52.472,48.3993129953742L52.705333333333336,29.681096421893344L53.20933333333333,60.8274423761124L53.37733333333333,163.2359252504327L53.601333333333336,24.220793039622635L53.82533333333333,47.47222245332192L53.85333333333333,30.76841806315564L54.67466666666667,27.030038936571643L55.12266666666667,29.35860688002272L55.65466666666667,93.7140641679818L55.86,50.70224089412527L55.93466666666667,18.180026894943282L56.01866666666667,43.922077466987744L56.26133333333333,17.365857656875786L56.63466666666667,37.85578635859896L56.66266666666667,41.11530197530307L56.952,17.06298942389813L57.10133333333333,60.26333454048091L57.455999999999996,19.108839815821156L57.484,45.69988505169749L57.52133333333333,43.38852171633731L57.586666666666666,46.77704695950855L57.614666666666665,18.036146886477407L57.792,109.83351989429104L57.99733333333334,22.081402900544077L58.45466666666666,25.881231440061864L58.650666666666666,219.7987077859315L59.266666666666666,27.17942748845302L59.285333333333334,99.08823901889L59.77066666666666,101.18580488996072L59.892,17.806972683830693L59.948,16.176570421931416L60.06,19.867085446518928L60.088,69.75541028075598L60.452000000000005,16.448554753071893L60.797333333333334,17.255170842124656L60.9,81.74153659289533L61.00266666666666,28.56191077235748L61.05866666666667,46.536986095153466L61.123999999999995,29.921970525248483L61.46933333333333,62.495690939778626L61.702666666666666,28.753380606458947L61.81466666666667,47.02101098746061L61.842666666666666,63.78610943122344L62.047999999999995,24.469747746532622L62.37466666666667,21.54754793931815L62.47733333333333,32.177776594392284L62.804,16.139604489742354L63.084,48.960171711038456L63.653333333333336,493.8868268430233L63.74666666666666,30.374756682664156L64.92266666666667,34.61969547752629L65.67866666666667,24.00962709398432L65.716,287.49508514729416L65.94933333333334,341.2457946295088L66.39733333333334,16.384548624130815L66.74266666666666,56.572368782013655L67.12533333333333,35.05693419311534L67.144,20.77357073720883L67.2,16.84196295538409L67.284,27.976990539580584L67.49866666666667,87.24440267953005L67.93733333333334,25.284824206409127L68.45066666666666,16.145034394480955L68.47866666666667,43.73914856040342L68.488,25.891709564253688L68.56266666666667,18.797300230203703L68.91733333333333,101.75264781713486L69.17866666666666,29.634289146993652L69.356,69.42246179485863L69.54266666666668,72.26812698929147L69.83200000000001,37.2282324548472L70.756,17.48966754058546L70.84,18.20885851911522L70.85866666666666,23.869656003164977L71.25066666666667,37.32875378209759L71.288,16.599272490394384L71.428,18.820707703686583L71.45599999999999,18.60422693430023L71.46533333333333,26.54778053746982L71.764,30.162140716544616L71.88533333333332,91.40006931397048L72.11866666666667,16.334294673563406L72.24000000000001,21.869239586320788L72.38,29.40963762727651L72.464,19.945409568703997L72.492,77.90428755127571L72.772,44.747890983284876L72.996,48.348075102337376L73.02399999999999,48.33641739799218L73.39733333333334,71.81896971911192L73.47200000000001,17.73510268720037L73.78,16.961407433517945L74.17200000000001,48.034247323024005L74.256,48.24456166933206L74.30266666666665,43.39220814406872L74.76933333333334,20.130298688161105L76.244,17.15791014294055L76.832,38.236013951457366L77.09333333333333,99.00601748715746L77.308,70.93579983711243L77.78399999999999,17.554504170675173L78.10133333333333,23.013401646844375L78.22266666666667,54.661610046909615L78.86666666666667,25.42449416863647L78.94133333333333,37.139226898720324L79.17466666666667,22.206123842095796L79.324,18.73151034590873L79.436,20.375123905525967L79.84666666666666,18.16626320847057L80.388,16.507073436779052L80.59333333333333,25.771635976704687L80.64,462.4518251581626L80.67733333333334,57.30258451944047L81.452,31.817668994719323L81.61999999999999,27.56213891269131L81.956,19.471465771171182L82.152,29.65120605260812L82.45066666666666,17.323220149867904L82.46933333333332,26.52365380779587L82.69333333333333,18.414937884970144L82.70266666666667,19.26123198155652L82.74933333333333,30.233943582597107L82.796,16.29280030439523L83.76666666666668,43.55972386998209L84.28,19.333349402316582L84.448,16.839237453923985L84.49466666666667,20.658290272917256L84.61600000000001,18.871721188791764L84.66266666666667,18.764926029538575L84.812,25.284087688069448L84.85866666666666,121.69233977862379L84.94266666666667,22.304920872504052L85.092,20.354037232019675L85.63333333333334,70.97661522843622L86.072,24.137269174680114L86.16533333333334,63.73375141654502L86.352,679.3904787898064L86.83733333333333,41.86168850992213L87.21066666666667,71.52977118979801L87.28533333333333,29.399896021424368L87.36933333333333,23.91507655212826L87.51866666666666,41.87280341559513L87.90133333333334,16.241600771688592L87.92933333333333,16.29694705608894L88.03200000000001,166.33355260166255L88.60133333333334,42.2493388266726L88.648,34.33953080597249L88.66666666666666,33.17643408646637L89.18933333333334,41.756761498749256L89.77733333333333,26.96980171007189L89.80533333333332,24.862858656285837L89.86133333333333,71.40602076460014L90.216,63.777317243543536L90.34666666666666,59.05562475696206L90.61733333333333,18.697450208731663L91.04666666666667,46.21937406926669L91.24266666666668,21.453041511841786L91.56,17.133674086325538L91.84,40.50258392925289L91.98,39.82833974960853L92.11066666666667,46.508566844531074L92.64266666666666,39.902315728366375L92.74533333333333,33.567072672938764L92.75466666666667,19.188044307584104L93.016,20.694496670568522L93.05333333333333,33.52825010076843L93.07199999999999,51.07457009499723L93.184,17.712778893045414L93.408,21.75906104594469L93.52000000000001,62.91982576657425L93.59466666666667,22.665473452007237L93.65066666666667,29.665579668330878L93.75333333333333,26.28492021086541L93.828,28.676120983436704L93.84666666666666,24.268451913852587L94.22,23.90097529474984L94.304,28.474499087950054L94.32266666666666,50.30528052523732L94.64,32.1185750968077L94.696,66.40590516545556L94.84533333333333,27.383525543253526L95.47066666666666,30.051931487904355L95.49866666666667,18.985914137722418L95.74133333333333,105.87115863575177L96.096,21.03497528928247L96.10533333333333,19.54796202362262L96.348,175.9371226416393L96.50666666666667,24.346212139183816L96.61866666666667,35.103854630989105L96.66533333333334,69.52059135552157L97.03866666666667,40.940029790624976L97.09466666666667,22.694650319150913L97.35600000000001,16.791712840849694L97.888,16.628483881835237L98.44800000000001,40.21677069907838L98.74666666666667,18.56224730695513L99.15733333333334,16.71492504988882L99.36266666666667,37.97851448099722L99.53999999999999,17.830466468056503L99.54933333333332,87.97594184834848L99.81066666666666,18.749986598945487L100.03466666666667,16.30435635386543L100.156,79.7590939087624L100.604,47.007107285782695L100.73466666666667,41.912769125605166L100.78133333333334,46.18837700445543L101.304,18.97065823440525L101.40666666666668,28.93579548461871L101.53733333333332,16.494034760546953L101.724,17.694895307110116L101.85466666666667,29.82905413345857L102.60133333333333,29.169126029041678L102.88133333333333,41.984786809506744L103.13333333333334,65.16955555941571L103.18933333333334,18.690825379707587L103.27333333333334,33.37190873903984L103.78666666666666,16.167170223017994L103.87066666666666,19.16836929422888L104.16933333333333,16.474112323061988L104.20666666666666,16.23763239553028L104.496,19.19176142357968L104.552,16.33875789798118L104.72,18.76088093271987L104.776,16.640657532621518L105.03733333333332,16.962989797138345L105.056,19.050825570456016L105.26133333333334,45.68357423930006L105.28,48.81836124238643L105.7,16.40425816178322L105.79333333333334,19.04209475930442L106.092,16.9285096143457L106.13866666666667,27.306751178408202L106.20400000000001,35.333000063388184L106.57733333333333,25.33309876393865L106.61466666666666,19.56399280560964L107.212,34.728197671473026L107.408,42.50874288752675L107.66,57.756337357176974L107.89333333333335,61.73300318284468L108.44399999999999,173.72497446428648L108.48133333333334,44.74443279951811L108.77066666666667,17.579254255714744L109.33066666666667,18.00334496813065L109.704,17.121226159178388L110.068,55.79240353236145L110.18,16.926161962137982L110.19866666666667,84.02989907427268L110.264,19.00352728332986L110.404,19.984711645001706L110.57199999999999,27.61096394095908L110.70266666666666,17.795541305433616L110.824,18.46918130987747L110.87066666666668,66.45920300822367L110.964,23.183539301326338L111.608,48.27790638635105L112.37333333333333,18.81515504589134L112.45733333333334,16.591049953617823L112.54133333333333,16.539842748845157L112.63466666666666,17.090280880812898L112.88666666666667,48.15027005970478L113.61466666666666,16.650698349049154L113.624,18.52005286176096L113.81066666666666,128.8403269858523L113.92266666666666,50.46077795970169L113.99733333333333,28.907777099446818L114.38,78.86965594880961L114.38933333333334,21.559571984816685L114.55733333333333,36.08405505019155L114.94,20.955201146616176L115.04266666666666,29.383525750515133L115.164,748.7681127028031L115.28533333333334,18.931505763395265L115.444,18.472409331663087L115.696,18.709539466791522L115.78933333333333,43.41755089620975L115.91066666666666,47.104406345296994L116.19999999999999,43.42796572585675L116.20933333333333,43.30501319552687L116.21866666666666,43.17696641334756L116.312,41.677888823842466L116.43333333333334,46.360413495281875L116.48933333333332,44.92727731337601L116.61999999999999,42.43836702575737L117.27333333333334,35.04813625138591L117.52533333333334,77.68796981329268L117.81466666666667,203.19856643405828L117.97333333333333,18.46420213901861L118.46799999999999,47.770119187506765L118.62666666666668,44.808258634907276L118.692,25.60118568553166L119.19600000000001,146.09326142072678L119.29866666666666,16.17235653965987L119.87733333333333,62.934080465273425L119.90533333333335,24.160007260401144L119.91466666666668,30.75352082892574L120.372,16.185663738203317L120.83866666666667,16.772509659555823L120.89466666666667,21.593716514720157L120.90400000000001,22.938372677022752L120.96,17.210227879272267L121.36133333333333,33.402495348318055L121.52,18.634629413993522L121.92133333333334,36.78996951844205L122.03333333333333,25.447947674515575L122.24799999999999,37.470917165787384L122.416,27.058028551495898L122.59333333333333,21.85145957327701L122.68666666666667,20.251039745455447L122.70533333333333,17.128763964061037L123.284,53.84649139066988L123.37733333333333,33.53096793016249L123.44266666666667,16.628178917210207L123.63866666666667,49.310182871805L123.88133333333333,29.42578157223761L124.544,31.99407664517111L125.05733333333333,53.079622357745066L125.79466666666666,26.436813692308295L126.22399999999999,20.18022465790537L126.23333333333332,17.697444351051345L126.28,38.29640653729439L126.35466666666666,30.61501318470322L126.52266666666668,58.647670317441225L126.896,16.148596151139245L127.12,36.101407345553696L127.176,17.38430705768141L127.18533333333333,25.235535018146038L127.50266666666666,48.76661315695806L127.60533333333333,58.796113287183374L127.96000000000001,33.404079629954964L127.99733333333333,92.12653724713759L128.05333333333334,18.764335280453626L128.12800000000001,19.03989863040096L129.09866666666667,20.537721837108794L129.108,16.884794182059437L129.696,20.916438032957643L129.78933333333333,139.19049646028063L129.836,22.488653428005904L130.15333333333334,34.88619236343287L130.20000000000002,40.12853043153882L130.3213333333333,20.990028490397066L130.34,23.398926801302206L130.928,17.97136587886648L131.33866666666668,54.443520061671734L131.41333333333333,17.72271613658153L131.72133333333332,20.982646044851705L132.51466666666667,17.03782888332552L132.888,18.140128315511078L133.07466666666667,16.554937538775533L133.15866666666668,16.925181855701577L133.35466666666667,18.268742830577224L133.644,16.254200222140017L133.66266666666667,18.998289180242192L133.7,40.69367207806896L133.89600000000002,28.721171355213627L133.924,19.94051862660457L133.96133333333333,21.87409600412303L134.11066666666667,18.68184906244278L134.19466666666668,18.005232296376064L134.25066666666666,18.05142005194317L134.932,18.29870992052284L135.09066666666666,16.78202493945983L135.604,20.24749525094575L136.06133333333332,54.942001044411555L136.612,30.60192272202535L136.98533333333333,47.58234153518623L137.02266666666668,17.247036534107554L137.312,23.36202608167447L137.54533333333333,41.98638835329224L137.88133333333334,20.410167985172436L138.17066666666668,25.67087873342362L138.18933333333334,23.135435447266165L138.30133333333333,24.559480230916634L138.656,17.885099250315264L138.768,61.62439741600643L139.02933333333334,27.244195069948372L139.06666666666666,30.326138800179425L139.08533333333335,39.59334628487176L139.28133333333332,57.990385239774525L139.29066666666668,62.787682101130486L139.43066666666667,19.95964316922155L139.54266666666666,75.5950417061421L139.79466666666667,19.989380097186032L139.81333333333333,21.340488467026844L139.832,17.2149231836877L140.52266666666668,20.536572945219547L140.96133333333333,17.288924096660182L141.4,18.816401756622565L141.96,17.10965860160914L142.65066666666667,65.97617356648499L142.73466666666667,183.63105406815356L143.36,21.820826931602586L143.7613333333333,16.10782295617868L143.79866666666666,16.66123017770323L143.95733333333334,44.85103807513687L144.16266666666667,17.083078728819427L144.424,20.519397107376292L144.46133333333333,16.713687929240137L144.65733333333336,783.4980212450027L144.77866666666668,63.701620803976596L144.9093333333333,22.723514549603525L145.02133333333333,1670.2438839132135L145.03066666666666,118.87513411316004L145.13333333333333,50.31119952418588L145.544,21.614388896660373L146.44,57.61868514831771L146.804,19.23698633485897L147.01866666666666,24.9816816970706L147.12133333333333,24.012899230149657L147.52266666666668,21.072376611219212L147.94266666666667,18.28602032329549L148.30666666666664,94.1895097724416L148.58666666666664,18.24730516004969L148.93200000000002,16.45149890841408L149.55733333333333,20.50511172041297L149.65066666666667,17.383980994874772L149.81866666666667,20.22644885578616L149.89333333333335,23.616333972662687L150.17333333333335,53.6127580627799L150.5,48.000986998731435L150.67733333333334,20.939262429421607L150.696,1711.1121818043969L150.724,17.723111247982487L150.84533333333331,16.210542330349025L151.368,17.129078518768612L151.55466666666666,16.94097288562493L152.17066666666668,20.132226294753224L152.44133333333332,28.200677296993405L152.60933333333335,16.518627568232745L152.992,16.47632379609753L153.23466666666667,17.224666707556352L153.74800000000002,287.7626254341819L153.832,24.72454281371425L154.07466666666667,17.280998852442607L154.448,20.45885875228454L154.97066666666666,16.444496230137617L155.07333333333332,16.40150197205895L155.204,6190.74892876365L155.32533333333333,23.81165134788238L155.49333333333334,17.418877387250003L155.67066666666668,19.617417237467397L155.77333333333334,18.331162759864863L155.82933333333332,16.337639694356096L155.94133333333332,17.11813623458147L156.1,57.20944180170244L156.42666666666665,16.894597164439887L156.492,16.87239995937456L157.27599999999998,33.75760267895053L157.32266666666666,276.5601507994262L157.388,30.996692716059357L157.44400000000002,72.45022731274366L157.74266666666668,35.030895200981334L157.752,19.776990457014605L157.79866666666666,16.18315305459228L157.92933333333335,36.59940882416612L158.00400000000002,16.785972217436537L158.01333333333335,17.019156992604795L158.62933333333334,28.41183173453265L158.648,18.283258379521698L159.012,16.384142004630792L159.404,17.067406615919698L159.83333333333331,19.969212153587833L160.03866666666667,42.478223408826366L160.97199999999998,23.996110831641328L161.112,34.263464189219206L161.27066666666664,18.902275191789332L161.34533333333334,17.0498644369231L161.66266666666667,16.913547167554498L161.96133333333333,109.2594038485126L162.08266666666665,21.79464217021383L162.11999999999998,21.705149437893525L162.4093333333333,17.46486758711663L162.61466666666666,35.46104300953448L162.652,28.51947849311613L162.792,1985.510436459021L163.5293333333333,85.69593424688686L163.95866666666666,16.83111273598942L163.968,16.721509600566193L164.00533333333334,25.420518120412126L164.26666666666668,16.554433100433513L164.37866666666665,19.628675994378597L164.472,130.72997986728495L164.50933333333333,50.482800625264645L164.64,43.682919988408685L164.78,304.46305603330785L164.9946666666667,16.599723224274147L165.07866666666666,17.554128239439294L165.20933333333332,16.739285777576935L166.32,16.32628503661941L166.46933333333334,41.759972258386284L166.6,46.965133412487134L166.73066666666668,29.869936655360192L166.81466666666665,24.680461040274665L167.08533333333332,16.54982410676099L167.2626666666667,17.81695020571351L167.412,17.773612622679636L167.468,16.680726815523073L167.608,48.26846590909091L167.664,1083.3319367603822L167.92533333333333,17.84751188077711L167.944,16.982325321571395L169.04533333333333,31.245236967436302L169.26000000000002,54.01243434304541L169.30666666666667,53.61632940952073L169.58666666666667,317.69249051538384L169.99733333333333,63.50036333162676L170.0906666666667,17.145372069017455L170.34266666666664,18.48578749681738L170.44533333333334,17.94129521602935L170.75333333333333,25.9287675612352L170.828,17.95828500627117L171.00533333333334,16.80995701388879L171.108,17.326691759750247L171.5,18.339719031514093L171.948,46.66775646077639L171.95733333333334,104.64085845378312L172.80666666666667,16.700231125408944L172.984,41.64017486521466L173.0773333333333,17.131694693287674L173.39466666666667,19.216116397218272L173.66533333333334,18.558739254759118L173.77733333333333,41.582922072403804L173.852,47.86688503843139L174.412,18.05569339272651L174.42133333333334,36.63870131038129L174.888,29.826936643232003L174.916,60.92270642011003L174.9346666666667,30.611731458455324L174.99066666666667,25.960564438930977L175.60666666666665,45.182246920060024L175.91466666666665,48.850545559417114L176.344,38.61140047064559L176.52133333333333,31.857433312995866L176.54933333333332,45.15557498247786L176.67066666666668,30.069124587896198L177.23066666666668,17.00742832164873L177.856,18.88218972290105L178.31333333333333,17.25887069597162L178.332,20.727969894693658L178.42533333333333,26.244641864164308L178.75199999999998,16.951213175769553L178.836,48.74462117965926L179.508,18.109979013997048L179.54533333333333,35.222393805330455L180.08666666666667,34.97970334034075L180.4693333333333,48.26624292795631L180.7493333333333,16.33025341277772L180.76799999999997,17.024044098671183L180.89866666666666,16.101437879218295L180.92666666666668,26.160793854431674L181.15066666666667,54.383624242110685L181.524,25.356508155438036L181.56133333333332,26.48458189347929L182.03733333333332,21.54065266996622L182.16799999999998,55.999457250603214L182.52266666666668,39.157912422818214L182.55066666666667,22.76582215777175L182.72799999999998,44.59201569956812L183.13866666666667,21.84589157134973L183.19466666666668,29.62467604824765L183.204,18.463143393905327L183.35333333333335,40.2519030074843L183.46533333333332,38.9690568452193L184.15599999999998,54.53277687796138L184.1746666666667,48.58021647652441L184.352,99.96709719977596L184.47333333333336,57.56471599977125L184.56666666666666,21.703542140058506L184.64133333333334,34.50566364198245L185.696,48.950504907830194L185.96666666666667,17.716352157802746L186.04133333333334,20.645761789076698L186.82533333333333,35.26152901419185L186.89066666666668,44.99041458083825L187.2733333333333,27.641930317506194L187.77733333333333,39.99972219680521L187.91733333333335,36.35211511955343L187.92666666666668,24.637742976573378L188.06666666666666,22.011387625878516L188.28133333333332,16.519515609876677L188.44,18.73322313465178L188.524,16.415317444977433L188.84133333333332,17.582144706594676L189.12133333333333,23.893145951357752L189.18666666666667,16.246593368663028L189.616,22.519042481583625L190.07333333333332,18.251189143481582L190.16666666666669,18.832758601416245L190.232,16.871542605994776L190.24133333333333,19.02577243880792L190.27866666666665,33.4779309376397L190.64266666666666,17.685918989845288L190.74533333333335,17.617035344920385L190.904,40.818389183587655L191.01600000000002,42.969166586683556L191.39866666666666,16.326904555952016L191.42666666666665,16.377394422550097L191.67866666666666,16.849228401922357L191.744,42.55097761106762L191.94933333333333,17.021073091097843L192.09866666666667,16.971906655891374L192.17333333333335,16.291022303090855L192.36933333333334,113.60430199178782L192.48133333333334,48.268182042647496L192.55599999999998,18.160388323901728L192.59333333333333,27.223946569656793L192.63066666666666,21.740088026631966L193.28400000000002,16.203133032572538L193.928,22.075173182920977L194.45066666666668,29.456809325313035L194.572,16.54597464762628L195.12266666666665,16.410670090974733L195.13199999999998,28.43917689590968L195.244,20.701735264875662L195.356,20.356868224387828L195.496,16.233470299704507L195.58933333333334,16.24930352599107L195.72,16.37332822754979L195.84133333333335,42.61706286990507L195.92533333333333,47.767050361091435L196.224,19.656017319722608L196.8213333333333,18.22351791929792L197.10133333333332,18.30030762827532L197.148,16.180619354783133L197.15733333333336,31.616630176251594L197.26933333333335,18.13590100712396L197.37199999999999,20.136841042475268L198.42666666666668,16.868258961730373L198.436,16.408481634137303L198.492,17.66455612196164L198.51999999999998,16.946214824745592L198.632,17.110784477300275L198.772,16.33909163285385L199.49066666666667,83.0354305302555L199.73333333333335,18.175291312181127L199.78933333333333,17.27109805122018L199.79866666666666,22.11019808240235L200.35866666666666,16.26309406469491L200.60133333333334,22.157477189363405L201.02133333333333,48.22986199080266L201.04933333333332,48.27834753014825L201.25466666666668,46.68185771815479L201.60933333333332,21.078817310658366L201.7026666666667,39.23102529414676L201.74,28.536546922034848L201.74933333333334,32.24141830019653L202.636,30.950433993881408L202.65466666666666,22.656516314907506L202.70133333333334,21.351973549886182L203.28,59.12564770369367L203.66266666666667,16.97691459699787L204.12933333333334,29.574479638175532L204.20399999999998,25.254665314812556L204.344,18.461938879537314L204.43733333333333,21.10827612622894L204.47466666666665,28.22203632884406L204.60533333333333,23.90988831746985L205.02533333333332,25.20356935499744L205.10933333333335,27.65059208006345L205.33333333333331,16.281211648644373L205.36133333333333,19.73708228749984L205.78133333333332,18.85947273536162L206.444,63.0363222533329L206.59333333333333,24.08364718712188L206.78933333333333,64.11087949472395L206.85466666666667,54.663048559291795L207.228,149.51776481758466L207.80666666666667,16.13266894204372L207.82533333333333,21.949558445675805L208.53466666666668,73.11702575229786L208.72133333333332,33.30173618702048L209.03866666666667,44.49808659506115L209.188,37.43058511462401L209.29066666666665,40.10729223472828L209.70133333333334,22.007680099965498L209.84133333333332,16.388031742112204L209.85066666666665,17.131021469492808L209.888,16.21318535709924L210.00933333333333,21.11674033308572L210.14933333333335,17.05593879520893L210.71866666666668,17.314418372105465L211.06400000000002,17.71157437867738L211.26933333333332,16.7167644277215L212.92133333333334,48.26846590909091L213.11733333333333,68.16627606207675L213.39733333333334,116.0725514055653L213.696,21.50992220944978L213.78,17.24986369044267L213.95733333333334,36.13482878323306L214.12533333333334,27.1047802039168L214.536,16.988355565477505L214.61999999999998,34.91872000541876L214.80666666666667,17.947870176624164L215.012,18.442695419896737L215.2266666666667,48.268122584135696L215.38533333333334,21.757045210593116L215.41333333333333,58.22378099675883L215.44133333333332,22.775419912385672L215.7866666666667,18.767557548189696L216.04799999999997,20.8799957192757L216.216,16.20583359981802L216.23466666666667,16.539288442073897L217.00933333333333,17.766322241926726L217.112,18.078028694980514L217.364,50.26804415272041L217.60666666666665,25.978348288007748L217.84,17.017950560220253L217.868,36.93850838900967L218.85733333333332,17.071077699519027L218.8946666666667,25.07740606503053L219.03466666666668,20.554247467355296L219.05333333333334,18.330545158548787L219.1,16.83644290386952L219.15599999999998,22.188445483927026L219.27733333333333,16.51673256792128L219.352,16.616185559975833L219.688,16.356557091190055L219.83733333333333,16.193119068376053L220.50933333333333,23.757797280326486L220.55599999999998,17.81075884842061L220.76133333333334,47.57817176729441L220.78,439.8346358537674L220.89200000000002,21.452134290032756L220.96666666666667,17.00731324065815L221.02266666666665,903.7555082169446L221.26533333333333,27.438470962203372L221.30266666666665,20.96975697390735L221.52666666666667,22.424745117906824L221.62933333333334,17.636173313652936L221.844,18.565262428908184L221.956,16.147347522391513L222.25466666666665,16.186452042988765L222.8706666666667,16.2258596101945L222.992,16.284245950762525L223.26266666666666,17.253910705277857L223.36533333333333,16.328306626020506L223.692,22.379067554731265L223.79466666666667,77.32689936933193L224.784,17.667931831018493L224.80266666666665,18.26749036579646L224.88666666666668,16.614338510077104L224.924,16.478700218552884L224.93333333333334,17.278449808501374L224.99866666666665,36.981142059984535L225.14800000000002,48.26846590909091L225.19466666666668,109.27156407318333L225.624,24.381691608577967L225.66133333333332,17.98226596669041L225.68,16.705304279076785L226.044,24.470904310487878L226.072,18.595768481492996L226.20266666666666,20.335654961791903L226.93066666666667,24.16250068186359L226.99599999999998,18.596307444132197L227.23866666666666,21.853412114083767L229.2733333333333,18.475328552790653L229.49733333333333,27.591231387108564L229.74,37.4496693788943L229.74933333333334,22.387666022743687L229.95466666666667,26.998522089286283L230.048,29.426640843633905L230.19733333333335,41.664963310584426L230.41199999999998,23.567499354312357L230.82266666666666,19.60776386037469L231.23333333333332,18.655741021714437L231.32666666666668,27.77719459581104L231.34533333333334,28.149907399984926L231.41066666666666,21.4173702407967L231.55066666666664,32.359268906610936L232.21333333333334,48.17916689643806L232.232,20.066142953932285L232.57733333333334,39.73750248771499L233.02533333333335,29.689495416188773L233.22133333333332,18.915848994627595L233.48266666666666,16.51572369123724L233.55733333333333,18.713776365261182L233.65066666666667,16.381498977880582L233.97733333333335,20.596854286099013L234.32266666666666,16.400784633884367L234.70533333333336,19.342435046522453L234.836,46.470396397974L235.2373333333333,24.179329358718622L235.5173333333333,17.880655206062567L235.74133333333333,16.946047957309258L235.96533333333332,17.07673584822227L235.97466666666668,16.931578440761033L236.97333333333336,18.95859774659303L237.28133333333335,19.384107791226015L237.53333333333336,36.681624601849094L237.86,18.67677782679147L237.916,24.79320588674058L237.95333333333332,20.59197485209866L238.51333333333332,17.557360097257927L238.56,16.396438408473667L238.68133333333336,19.947851203720674L238.896,16.44391890716824L239.008,17.251724166456953L239.71733333333333,117.05467559532686L240.0906666666667,31.493800398978323L240.464,22.840659325942397L240.492,23.442519480531875L240.79999999999998,17.002052121372387L241.00533333333334,17.260036850009456L241.09866666666667,17.597015088593427L241.39733333333334,17.005836367945776L241.54666666666668,57.76715497029099L241.80800000000002,16.633578133684665L241.81733333333335,20.938533583147958L242.68533333333335,24.27135770886458L243.04,16.414922333576452L243.51600000000002,41.6983463879336L243.53466666666668,36.16991889527576L243.87066666666666,41.33443536152217L244.03866666666667,17.07136732001196L244.06666666666666,17.263587098568678L244.72,16.210208595476377L245.15866666666668,84.24791617488319L245.448,20.57272372039205L245.644,16.342714766040444L246.12933333333334,18.225188511677754L246.66133333333335,16.504384377632633L246.904,16.7409582879733L247.59466666666665,18.666635355488822L247.69733333333335,888.9271231076934L247.72533333333334,43.38968787037514L248.00533333333334,37.39936939593066L248.06133333333335,24.454148518260226L248.4813333333333,52.55309230156921L249.40533333333335,16.342568996785715L249.97466666666668,110.9908357120373L250.19866666666667,22.493993185968563L250.25466666666668,35.51683810979806L250.45066666666665,21.257024060596123L250.67466666666667,16.461752624674276L250.88,17.561107901517644L251.00133333333332,16.48679808425632L251.412,93.79109938307242L251.72933333333333,25.129624064503744L251.76666666666668,163.92476937174797L251.92533333333336,54.67961638590151L251.94400000000002,57.471776591783225L253.00799999999998,17.021132549609646L253.19466666666668,17.028906270522967L253.28799999999998,19.383720351891085L253.52133333333333,55.10039084777236L253.9226666666667,16.72993352907625L254.05333333333334,20.35759131661193L254.18400000000003,18.53392012112521L254.42666666666665,48.778431974690065L254.51066666666668,20.427458904006254L254.94933333333333,21.77363797141747L254.98666666666665,17.92128838581794L255.08,16.286269458180133L255.18266666666668,16.39727466367185L255.22,17.502522087232634L255.248,17.844811313531626L255.3226666666667,16.514985254881054L255.51866666666666,48.02523072741248L255.58399999999997,47.81085018610412L255.78,17.942940874194566L256.1066666666667,39.53332004018806L256.29333333333335,18.240340842103425L256.312,24.823583432219255L256.47066666666666,18.934079741551116L256.60133333333334,64.59365575828336L256.66666666666663,21.273208283903926" fill="none"></path></g></g></g></g></g></g><g transform="translate(50, 176)" clip-path="url(#clip_1)"><clipPath id="clip_1"><rect width="280" height="23"></rect></clipPath><g><g><line x1="0" y1="0" x2="0" y2="5" style="visibility: inherit;" fill="rgb(0, 0, 0)" stroke="rgb(204, 204, 204)" stroke-width="1.333333px"></line><line x1="23.333333333333332" y1="0" x2="23.333333333333332" y2="5" style="visibility: inherit;" fill="rgb(0, 0, 0)" stroke="rgb(204, 204, 204)" stroke-width="1.333333px"></line><line x1="46.666666666666664" y1="0" x2="46.666666666666664" y2="5" style="visibility: inherit;" fill="rgb(0, 0, 0)" stroke="rgb(204, 204, 204)" stroke-width="1.333333px"></line><line x1="70" y1="0" x2="70" y2="5" style="visibility: inherit;" fill="rgb(0, 0, 0)" stroke="rgb(204, 204, 204)" stroke-width="1.333333px"></line><line x1="93.33333333333333" y1="0" x2="93.33333333333333" y2="5" style="visibility: inherit;" fill="rgb(0, 0, 0)" stroke="rgb(204, 204, 204)" stroke-width="1.333333px"></line><line x1="116.66666666666667" y1="0" x2="116.66666666666667" y2="5" style="visibility: inherit;" fill="rgb(0, 0, 0)" stroke="rgb(204, 204, 204)" stroke-width="1.333333px"></line><line x1="140" y1="0" x2="140" y2="5" style="visibility: inherit;" fill="rgb(0, 0, 0)" stroke="rgb(204, 204, 204)" stroke-width="1.333333px"></line><line x1="163.33333333333334" y1="0" x2="163.33333333333334" y2="5" style="visibility: inherit;" fill="rgb(0, 0, 0)" stroke="rgb(204, 204, 204)" stroke-width="1.333333px"></line><line x1="186.66666666666666" y1="0" x2="186.66666666666666" y2="5" style="visibility: inherit;" fill="rgb(0, 0, 0)" stroke="rgb(204, 204, 204)" stroke-width="1.333333px"></line><line x1="210" y1="0" x2="210" y2="5" style="visibility: inherit;" fill="rgb(0, 0, 0)" stroke="rgb(204, 204, 204)" stroke-width="1.333333px"></line><line x1="233.33333333333334" y1="0" x2="233.33333333333334" y2="5" style="visibility: inherit;" fill="rgb(0, 0, 0)" stroke="rgb(204, 204, 204)" stroke-width="1.333333px"></line><line x1="256.66666666666663" y1="0" x2="256.66666666666663" y2="5" style="visibility: inherit;" fill="rgb(0, 0, 0)" stroke="rgb(204, 204, 204)" stroke-width="1.333333px"></line><line x1="280" y1="0" x2="280" y2="5" style="visibility: inherit;" fill="rgb(0, 0, 0)" stroke="rgb(204, 204, 204)" stroke-width="1.333333px"></line></g><g transform="translate(0, 8)"><text style="text-anchor: middle; visibility: hidden; font-family: Roboto, sans-serif; font-size: 16px; font-weight: 200;" x="0" y="0" dx="0em" dy="0.95em" fill="rgb(33, 33, 33)" stroke="none" stroke-width="1.333333px">-10k</text><text style="text-anchor: middle; visibility: inherit; font-family: Roboto, sans-serif; font-size: 16px; font-weight: 200;" x="23.333333333333332" y="0" dx="0em" dy="0.95em" fill="rgb(33, 33, 33)" stroke="none" stroke-width="1.333333px">0</text><text style="text-anchor: middle; visibility: hidden; font-family: Roboto, sans-serif; font-size: 16px; font-weight: 200;" x="46.666666666666664" y="0" dx="0em" dy="0.95em" fill="rgb(33, 33, 33)" stroke="none" stroke-width="1.333333px">10k</text><text style="text-anchor: middle; visibility: inherit; font-family: Roboto, sans-serif; font-size: 16px; font-weight: 200;" x="70" y="0" dx="0em" dy="0.95em" fill="rgb(33, 33, 33)" stroke="none" stroke-width="1.333333px">20k</text><text style="text-anchor: middle; visibility: hidden; font-family: Roboto, sans-serif; font-size: 16px; font-weight: 200;" x="93.33333333333333" y="0" dx="0em" dy="0.95em" fill="rgb(33, 33, 33)" stroke="none" stroke-width="1.333333px">30k</text><text style="text-anchor: middle; visibility: inherit; font-family: Roboto, sans-serif; font-size: 16px; font-weight: 200;" x="116.66666666666667" y="0" dx="0em" dy="0.95em" fill="rgb(33, 33, 33)" stroke="none" stroke-width="1.333333px">40k</text><text style="text-anchor: middle; visibility: hidden; font-family: Roboto, sans-serif; font-size: 16px; font-weight: 200;" x="140" y="0" dx="0em" dy="0.95em" fill="rgb(33, 33, 33)" stroke="none" stroke-width="1.333333px">50k</text><text style="text-anchor: middle; visibility: inherit; font-family: Roboto, sans-serif; font-size: 16px; font-weight: 200;" x="163.33333333333334" y="0" dx="0em" dy="0.95em" fill="rgb(33, 33, 33)" stroke="none" stroke-width="1.333333px">60k</text><text style="text-anchor: middle; visibility: hidden; font-family: Roboto, sans-serif; font-size: 16px; font-weight: 200;" x="186.66666666666666" y="0" dx="0em" dy="0.95em" fill="rgb(33, 33, 33)" stroke="none" stroke-width="1.333333px">70k</text><text style="text-anchor: middle; visibility: inherit; font-family: Roboto, sans-serif; font-size: 16px; font-weight: 200;" x="210" y="0" dx="0em" dy="0.95em" fill="rgb(33, 33, 33)" stroke="none" stroke-width="1.333333px">80k</text><text style="text-anchor: middle; visibility: hidden; font-family: Roboto, sans-serif; font-size: 16px; font-weight: 200;" x="233.33333333333334" y="0" dx="0em" dy="0.95em" fill="rgb(33, 33, 33)" stroke="none" stroke-width="1.333333px">90k</text><text style="text-anchor: middle; visibility: inherit; font-family: Roboto, sans-serif; font-size: 16px; font-weight: 200;" x="256.66666666666663" y="0" dx="0em" dy="0.95em" fill="rgb(33, 33, 33)" stroke="none" stroke-width="1.333333px">100k</text><text style="text-anchor: middle; visibility: hidden; font-family: Roboto, sans-serif; font-size: 16px; font-weight: 200;" x="280" y="0" dx="0em" dy="0.95em" fill="rgb(33, 33, 33)" stroke="none" stroke-width="1.333333px">110k</text></g><line x1="0" y1="0" x2="280" y2="0" fill="rgb(0, 0, 0)" stroke="rgb(204, 204, 204)" stroke-width="1.333333px"></line></g></g></g></g></svg>