<svg viewBox="0 0 330 200" xmlns="http://www.w3.org/2000/svg"><g><g><g><g><g><line x1="40" y1="176.984375" x2="35" y2="176.984375" style="visibility: inherit;" fill="rgb(0, 0, 0)" stroke="rgb(204, 204, 204)" stroke-width="1.333333px"></line><line x1="40" y1="164.34263392857144" x2="35" y2="164.34263392857144" style="visibility: inherit;" fill="rgb(0, 0, 0)" stroke="rgb(204, 204, 204)" stroke-width="1.333333px"></line><line x1="40" y1="151.70089285714286" x2="35" y2="151.70089285714286" style="visibility: inherit;" fill="rgb(0, 0, 0)" stroke="rgb(204, 204, 204)" stroke-width="1.333333px"></line><line x1="40" y1="139.05915178571428" x2="35" y2="139.05915178571428" style="visibility: inherit;" fill="rgb(0, 0, 0)" stroke="rgb(204, 204, 204)" stroke-width="1.333333px"></line><line x1="40" y1="126.41741071428572" x2="35" y2="126.41741071428572" style="visibility: inherit;" fill="rgb(0, 0, 0)" stroke="rgb(204, 204, 204)" stroke-width="1.333333px"></line><line x1="40" y1="113.77566964285712" x2="35" y2="113.77566964285712" style="visibility: inherit;" fill="rgb(0, 0, 0)" stroke="rgb(204, 204, 204)" stroke-width="1.333333px"></line><line x1="40" y1="101.13392857142857" x2="35" y2="101.13392857142857" style="visibility: inherit;" fill="rgb(0, 0, 0)" stroke="rgb(204, 204, 204)" stroke-width="1.333333px"></line><line x1="40" y1="88.4921875" x2="35" y2="88.4921875" style="visibility: inherit;" fill="rgb(0, 0, 0)" stroke="rgb(204, 204, 204)" stroke-width="1.333333px"></line><line x1="40" y1="75.85044642857143" x2="35" y2="75.85044642857143" style="visibility: inherit;" fill="rgb(0, 0, 0)" stroke="rgb(204, 204, 204)" stroke-width="1.333333px"></line><line x1="40" y1="63.20870535714285" x2="35" y2="63.20870535714285" style="visibility: inherit;" fill="rgb(0, 0, 0)" stroke="rgb(204, 204, 204)" stroke-width="1.333333px"></line><line x1="40" y1="50.566964285714285" x2="35" y2="50.566964285714285" style="visibility: inherit;" fill="rgb(0, 0, 0)" stroke="rgb(204, 204, 204)" stroke-width="1.333333px"></line><line x1="40" y1="37.925223214285715" x2="35" y2="37.925223214285715" style="visibility: inherit;" fill="rgb(0, 0, 0)" stroke="rgb(204, 204, 204)" stroke-width="1.333333px"></line><line x1="40" y1="25.283482142857153" x2="35" y2="25.283482142857153" style="visibility: inherit;" fill="rgb(0, 0, 0)" stroke="rgb(204, 204, 204)" stroke-width="1.333333px"></line><line x1="40" y1="12.641741071428566" x2="35" y2="12.641741071428566" style="visibility: inherit;" fill="rgb(0, 0, 0)" stroke="rgb(204, 204, 204)" stroke-width="1.333333px"></line><line x1="40" y1="0" x2="35" y2="0" style="visibility: inherit;" fill="rgb(0, 0, 0)" stroke="rgb(204, 204, 204)" stroke-width="1.333333px"></line></g><g transform="translate(30, 0)"><text style="text-anchor: end; visibility: hidden; font-family: Roboto, sans-serif; font-size: 16px; font-weight: 200;" x="0" y="176.984375" dx="0em" dy="0.3em" fill="rgb(33, 33, 33)" stroke="none" stroke-width="1.333333px">-20</text><text style="text-anchor: end; visibility: inherit; font-family: Roboto, sans-serif; font-size: 16px; font-weight: 200;" x="0" y="164.34263392857144" dx="0em" dy="0.3em" fill="rgb(33, 33, 33)" stroke="none" stroke-width="1.333333px">0</text><text style="text-anchor: end; visibility: hidden; font-family: Roboto, sans-serif; font-size: 16px; font-weight: 200;" x="0" y="151.70089285714286" dx="0em" dy="0.3em" fill="rgb(33, 33, 33)" stroke="none" stroke-width="1.333333px">20</text><text style="text-anchor: end; visibility: inherit; font-family: Roboto, sans-serif; font-size: 16px; font-weight: 200;" x="0" y="139.05915178571428" dx="0em" dy="0.3em" fill="rgb(33, 33, 33)" stroke="none" stroke-width="1.333333px">40</text><text style="text-anchor: end; visibility: hidden; font-family: Roboto, sans-serif; font-size: 16px; font-weight: 200;" x="0" y="126.41741071428572" dx="0em" dy="0.3em" fill="rgb(33, 33, 33)" stroke="none" stroke-width="1.333333px">60</text><text style="text-anchor: end; visibility: inherit; font-family: Roboto, sans-serif; font-size: 16px; font-weight: 200;" x="0" y="113.77566964285712" dx="0em" dy="0.3em" fill="rgb(33, 33, 33)" stroke="none" stroke-width="1.333333px">80</text><text style="text-anchor: end; visibility: hidden; font-family: Roboto, sans-serif; font-size: 16px; font-weight: 200;" x="0" y="101.13392857142857" dx="0em" dy="0.3em" fill="rgb(33, 33, 33)" stroke="none" stroke-width="1.333333px">100</text><text style="text-anchor: end; visibility: inherit; font-family: Roboto, sans-serif; font-size: 16px; font-weight: 200;" x="0" y="88.4921875" dx="0em" dy="0.3em" fill="rgb(33, 33, 33)" stroke="none" stroke-width="1.333333px">120</text><text style="text-anchor: end; visibility: hidden; font-family: Roboto, sans-serif; font-size: 16px; font-weight: 200;" x="0" y="75.85044642857143" dx="0em" dy="0.3em" fill="rgb(33, 33, 33)" stroke="none" stroke-width="1.333333px">140</text><text style="text-anchor: end; visibility: inherit; font-family: Roboto, sans-serif; font-size: 16px; font-weight: 200;" x="0" y="63.20870535714285" dx="0em" dy="0.3em" fill="rgb(33, 33, 33)" stroke="none" stroke-width="1.333333px">160</text><text style="text-anchor: end; visibility: hidden; font-family: Roboto, sans-serif; font-size: 16px; font-weight: 200;" x="0" y="50.566964285714285" dx="0em" dy="0.3em" fill="rgb(33, 33, 33)" stroke="none" stroke-width="1.333333px">180</text><text style="text-anchor: end; visibility: inherit; font-family: Roboto, sans-serif; font-size: 16px; font-weight: 200;" x="0" y="37.925223214285715" dx="0em" dy="0.3em" fill="rgb(33, 33, 33)" stroke="none" stroke-width="1.333333px">200</text><text style="text-anchor: end; visibility: hidden; font-family: Roboto, sans-serif; font-size: 16px; font-weight: 200;" x="0" y="25.283482142857153" dx="0em" dy="0.3em" fill="rgb(33, 33, 33)" stroke="none" stroke-width="1.333333px">220</text><text style="text-anchor: end; visibility: inherit; font-family: Roboto, sans-serif; font-size: 16px; font-weight: 200;" x="0" y="12.641741071428566" dx="0em" dy="0.3em" fill="rgb(33, 33, 33)" stroke="none" stroke-width="1.333333px">240</text><text style="text-anchor: end; visibility: hidden; font-family: Roboto, sans-serif; font-size: 16px; font-weight: 200;" x="0" y="0" dx="0em" dy="0.3em" fill="rgb(33, 33, 33)" stroke="none" stroke-width="1.333333px">260</text></g><line x1="40" y1="0" x2="40" y2="176.984375" fill="rgb(0, 0, 0)" stroke="rgb(204, 204, 204)" stroke-width="1.333333px"></line></g></g><g transform="translate(40, 0)" clip-path="url(#clip_0)"><clipPath id="clip_0"><rect width="290" height="176"></rect></clipPath><g><g><g><line x1="0" y1="0" x2="0" y2="176.984375" fill="rgb(0, 0, 0)" stroke="rgb(66, 66, 66)" stroke-width="1.333333px" opacity="0.25"></line><line x1="24.166666666666664" y1="0" x2="24.166666666666664" y2="176.984375" fill="rgb(0, 0, 0)" stroke="rgb(66, 66, 66)" stroke-width="1.333333px" opacity="0.25"></line><line x1="48.33333333333333" y1="0" x2="48.33333333333333" y2="176.984375" fill="rgb(0, 0, 0)" stroke="rgb(66, 66, 66)" stroke-width="1.333333px" opacity="0.25"></line><line x1="72.5" y1="0" x2="72.5" y2="176.984375" fill="rgb(0, 0, 0)" stroke="rgb(66, 66, 66)" stroke-width="1.333333px" opacity="0.25"></line><line x1="96.66666666666666" y1="0" x2="96.66666666666666" y2="176.984375" fill="rgb(0, 0, 0)" stroke="rgb(66, 66, 66)" stroke-width="1.333333px" opacity="0.25"></line><line x1="120.83333333333334" y1="0" x2="120.83333333333334" y2="176.984375" fill="rgb(0, 0, 0)" stroke="rgb(66, 66, 66)" stroke-width="1.333333px" opacity="0.25"></line><line x1="145" y1="0" x2="145" y2="176.984375" fill="rgb(0, 0, 0)" stroke="rgb(66, 66, 66)" stroke-width="1.333333px" opacity="0.25"></line><line x1="169.16666666666669" y1="0" x2="169.16666666666669" y2="176.984375" fill="rgb(0, 0, 0)" stroke="rgb(66, 66, 66)" stroke-width="1.333333px" opacity="0.25"></line><line x1="193.33333333333331" y1="0" x2="193.33333333333331" y2="176.984375" fill="rgb(0, 0, 0)" stroke="rgb(66, 66, 66)" stroke-width="1.333333px" opacity="0.25"></line><line x1="217.5" y1="0" x2="217.5" y2="176.984375" fill="rgb(0, 0, 0)" stroke="rgb(66, 66, 66)" stroke-width="1.333333px" opacity="0.25"></line><line x1="241.66666666666669" y1="0" x2="241.66666666666669" y2="176.984375" fill="rgb(0, 0, 0)" stroke="rgb(66, 66, 66)" stroke-width="1.333333px" opacity="0.25"></line><line x1="265.8333333333333" y1="0" x2="265.8333333333333" y2="176.984375" fill="rgb(0, 0, 0)" stroke="rgb(66, 66, 66)" stroke-width="1.333333px" opacity="0.25"></line><line x1="290" y1="0" x2="290" y2="176.984375" fill="rgb(0, 0, 0)" stroke="rgb(66, 66, 66)" stroke-width="1.333333px" opacity="0.25"></line></g><g><line x1="0" y1="176.984375" x2="290" y2="176.984375" fill="rgb(0, 0, 0)" stroke="rgb(66, 66, 66)" stroke-width="1.333333px" opacity="0.25"></line><line x1="0" y1="164.34263392857144" x2="290" y2="164.34263392857144" fill="rgb(0, 0, 0)" stroke="rgb(66, 66, 66)" stroke-width="1.333333px" opacity="0.25"></line><line x1="0" y1="151.70089285714286" x2="290" y2="151.70089285714286" fill="rgb(0, 0, 0)" stroke="rgb(66, 66, 66)" stroke-width="1.333333px" opacity="0.25"></line><line x1="0" y1="139.05915178571428" x2="290" y2="139.05915178571428" fill="rgb(0, 0, 0)" stroke="rgb(66, 66, 66)" stroke-width="1.333333px" opacity="0.25"></line><line x1="0" y1="126.41741071428572" x2="290" y2="126.41741071428572" fill="rgb(0, 0, 0)" stroke="rgb(66, 66, 66)" stroke-width="1.333333px" opacity="0.25"></line><line x1="0" y1="113.77566964285712" x2="290" y2="113.77566964285712" fill="rgb(0, 0, 0)" stroke="rgb(66, 66, 66)" stroke-width="1.333333px" opacity="0.25"></line><line x1="0" y1="101.13392857142857" x2="290" y2="101.13392857142857" fill="rgb(0, 0, 0)" stroke="rgb(66, 66, 66)" stroke-width="1.333333px" opacity="0.25"></line><line x1="0" y1="88.4921875" x2="290" y2="88.4921875" fill="rgb(0, 0, 0)" stroke="rgb(66, 66, 66)" stroke-width="1.333333px" opacity="0.25"></line><line x1="0" y1="75.85044642857143" x2="290" y2="75.85044642857143" fill="rgb(0, 0, 0)" stroke="rgb(66, 66, 66)" stroke-width="1.333333px" opacity="0.25"></line><line x1="0" y1="63.20870535714285" x2="290" y2="63.20870535714285" fill="rgb(0, 0, 0)" stroke="rgb(66, 66, 66)" stroke-width="1.333333px" opacity="0.25"></line><line x1="0" y1="50.566964285714285" x2="290" y2="50.566964285714285" fill="rgb(0, 0, 0)" stroke="rgb(66, 66, 66)" stroke-width="1.333333px" opacity="0.25"></line><line x1="0" y1="37.925223214285715" x2="290" y2="37.925223214285715" fill="rgb(0, 0, 0)" stroke="rgb(66, 66, 66)" stroke-width="1.333333px" opacity="0.25"></line><line x1="0" y1="25.283482142857153" x2="290" y2="25.283482142857153" fill="rgb(0, 0, 0)" stroke="rgb(66, 66, 66)" stroke-width="1.333333px" opacity="0.25"></line><line x1="0" y1="12.641741071428566" x2="290" y2="12.641741071428566" fill="rgb(0, 0, 0)" stroke="rgb(66, 66, 66)" stroke-width="1.333333px" opacity="0.25"></line><line x1="0" y1="0" x2="290" y2="0" fill="rgb(0, 0, 0)" stroke="rgb(66, 66, 66)" stroke-width="1.333333px" opacity="0.25"></line></g></g></g><g><g><line x1="0" y1="164.34263392857144" x2="290" y2="164.34263392857144" fill="rgb(0, 0, 0)" stroke="rgb(153, 153, 153)" stroke-width="2px"></line></g></g><g><g><line x1="24.166666666666664" y1="0" x2="24.166666666666664" y2="176.984375" fill="rgb(0, 0, 0)" stroke="rgb(153, 153, 153)" stroke-width="2px"></line></g></g><g><g><g><g><g><path style="fill: none;" stroke="rgb(255, 112, 67)" stroke-width="2.666667px" d="M24.360000000000003,51.66207323840688L24.64033333333333,104.21570861265063L24.785333333333334,128.91349465429738L24.795,138.22894673006053L25.046333333333333,147.8630398821141L25.181666666666665,31.312356156581206L25.220333333333333,75.52074683865202L25.423333333333336,105.38327509294308L25.77133333333333,121.8040018018912L25.848666666666666,138.48735514536804L26.03233333333333,144.68333784524287L26.544666666666664,121.031317942634L26.689666666666664,133.6026811636896L26.912,141.91507291005829L27.269666666666666,138.67137158421494L27.724,127.23416049216752L27.917333333333332,140.99051220931563L28.072,139.66618095370885L28.197666666666667,148.32678376585298L28.41033333333333,154.01185115473413L28.681,148.39474251888058L28.77766666666667,152.23141953147578L28.835666666666665,151.04447314278457L29.116,145.18161073405219L29.338333333333335,152.76138956092132L29.386666666666667,154.27218219829308L29.406000000000002,154.1075594298956L29.560666666666666,143.84123365102263L29.947333333333336,133.439582524089L30.343666666666664,139.98457260195664L30.401666666666667,145.34477334623014L30.41133333333333,151.87467636074234L30.546666666666667,138.4036764483652L30.711,145.38970318407806L31.571333333333335,141.14954737696738L31.677666666666667,147.86454993180442L31.958000000000002,153.64562345948994L32.470333333333336,137.61658627642132L32.55733333333333,141.00834332001637L32.75066666666667,148.49655810589462L33.292,154.72616426036353L33.842999999999996,156.49335537573944L33.99766666666667,159.19242780869422L34.104,156.36549721903577L34.21033333333333,151.56685005455617L34.394,155.77555789021642L34.539,156.6524989684475L34.925666666666665,156.57786793800483L35.061,-708.913526610176L36.28866666666667,-38.948301294683624L36.308,41.94903689690344L36.336999999999996,89.1270008205132L36.43366666666667,113.90770856164555L36.47233333333333,130.45428257121293L36.99433333333333,107.0016938602371L37.187666666666665,129.6027754455406L37.48733333333333,137.66109021716625L37.88366666666666,140.75409312801122L38.27033333333333,148.80930763948896L38.28,151.13717774091666L38.62800000000001,130.6579490428052L38.78266666666667,143.60122687745667L38.81166666666667,151.423458480215L39.150000000000006,-109.02493742843775L39.179,-2.811326907176739L39.31433333333334,39.257157787536485L39.614,85.72456899091469L39.913666666666664,114.83059533843745L39.991,126.73537486158563L40.32933333333334,105.51827519105099L40.474333333333334,102.57571019118478L40.638666666666666,125.52372622544053L40.657999999999994,135.52170281693884L40.72566666666666,143.9988268209345L41.36366666666667,149.6592302458621L42.04033333333333,154.1419583664086L42.166000000000004,158.17713864259613L42.543,159.56470042056387L42.63966666666666,156.61193520478335L42.93933333333334,150.65414704234556L43.132666666666665,156.11712909517507L43.14233333333333,158.53454356170212L43.31633333333333,153.0258834473453L44.196000000000005,157.5478456386175L44.283,159.4532342949103L44.379666666666665,159.9624842511129L44.486000000000004,154.4782623071805L45.53966666666667,158.07048506259682L46.603,160.55248647310177L46.989666666666665,161.882000999904L47.328,162.46066836441844L47.734,161.89233902256575L47.782333333333334,144.52068089615125L47.908,145.91869287771473L47.98533333333334,152.61094069030344L48.01433333333333,141.4199693904819L48.20766666666667,133.3994347281585L48.38166666666667,141.7830162234077L48.517,148.94214440850303L48.64266666666667,149.55769758213862L49.097,154.275935451133L49.10666666666667,155.78247128868534L49.30966666666667,156.96639122005962L49.58033333333333,159.86236973566366L49.657666666666664,161.5011156995531L49.73500000000001,162.59224012275826L50.13133333333333,163.1917953967166L50.218333333333334,133.04905008770555L50.36333333333333,141.52804355017432L50.45033333333333,150.38974249379785L50.61466666666667,155.34901413027188L50.672666666666665,155.77792556224225L50.79833333333333,158.77933145846913L50.808,160.7999198364975L50.81766666666666,159.45127788040753L50.943333333333335,160.5144398019844L51.10766666666667,161.8300027719071L51.36866666666667,160.5523325327806L51.58133333333333,160.87306954479774L51.678,153.8947472657612L51.84233333333333,155.1762974412182L52.81866666666667,154.04742658020407L52.925,137.27648684737466L53.98833333333334,140.00719290724965L53.998000000000005,146.62207598429578L54.19133333333333,143.49618093353646L54.201,130.30509739456429L54.346000000000004,142.71651319163396L54.58766666666667,151.03044753934145L55.10966666666667,147.18988042342355L55.28366666666666,144.86989326015018L55.51566666666667,151.4022027979636L55.74766666666667,153.344016776446L55.776666666666664,152.8951010221451L56.62733333333333,156.45748456010406L57.09133333333333,159.23722932110613L57.64233333333333,152.50654831374774L57.855000000000004,152.2496355182491L57.93233333333334,157.06731844275026L58.019333333333336,158.1827147982285L58.27066666666666,137.54409546896693L58.657333333333334,145.6380970180581L58.68633333333333,152.06666572095114L58.986,156.90198149188646L59.14066666666667,144.6178028101836L59.507999999999996,151.1915282121156L59.537000000000006,153.17651517839076L59.57566666666666,157.44998252418125L59.64333333333333,142.43517330457942L59.67233333333333,150.95534809133224L59.856,142.40578529971472L60.068666666666665,150.81691413829182L60.54233333333333,155.84005006026257L60.745333333333335,158.25772473031682L61.38333333333333,153.86827269090145L61.40266666666667,154.83179899347724L61.90533333333333,152.23903409885534L62.031,156.67253704243114L62.089000000000006,159.44779482373698L62.205,160.6985683057606L62.234,79.38351527637496L62.611000000000004,95.9561176745413L62.96866666666667,121.85517907303976L63.075,137.468390707405L63.18133333333333,147.95091135395393L63.239333333333335,129.08251206845026L63.306999999999995,143.01252845287257L63.66466666666667,150.1864693604789L63.90633333333333,154.7412423150256L64.02233333333334,156.82712673199478L64.05133333333333,156.7881940968259L64.264,159.69982390568205L64.60233333333333,160.30965150905195L64.70866666666666,160.16223980142627L65.047,161.8287068479161L65.337,162.1872364163265L65.92666666666666,157.43948682792745L66.02333333333333,159.71702446365194L67.24133333333333,161.31170811579267L68.02433333333333,155.55676974792948L68.063,155.42126454858072L68.30466666666668,155.70460769139154L68.76866666666666,159.13103865970123L69.12633333333333,159.95626084258313L69.52266666666667,158.77331435114237L69.542,160.90025671110996L69.6,161.95784767828255L69.687,161.94816434026453L69.90933333333334,162.13218426195945L70.36366666666667,160.38652570376834L70.89533333333333,161.95809391243404L70.92433333333334,161.54144787469892L70.934,161.39357123139135L71.01133333333334,162.31662385554264L71.37866666666667,144.33927221982654L71.64933333333333,151.82479855287104L71.833,154.8361468384851L72.02633333333334,158.111523072337L72.32600000000001,160.3511012173921L73.283,160.85403182736988L73.37,162.1983668703232L73.38933333333333,162.96476137397485L73.79533333333333,162.66356007441735L73.834,163.2094717457161L73.979,163.63723959071672L74.008,163.8233276601265L74.01766666666666,163.64367426137605L74.327,162.4057184899946L74.45266666666666,162.1813397067153L74.69433333333333,163.03174566288357L74.82000000000001,163.46319925567514L74.965,163.7005557570113L75.05199999999999,163.8616027655549L75.081,163.49776450592114L75.37100000000001,163.7130923033689L75.603,163.94685286778858L75.63199999999999,164.03862770811583L76.01866666666666,-1387.097569954982L78.967,-79.80709819928146L79.576,14.352876621380597L79.84666666666666,74.16101252459792L80.069,110.12365316296984L80.562,131.6335547451745L80.89066666666666,144.59276668914427L81.01633333333334,148.21689678474655L81.68333333333334,154.54322165076871L81.76066666666667,158.0974358204243L82.00233333333334,160.5274040526638L82.157,161.9201893277223L82.273,162.60525996953388L82.69833333333334,163.02059981309174L83.259,163.50374124977162L83.47166666666666,162.7612786545772L83.52,162.77342764902056L83.55866666666667,-1147.1057187358178L85.086,-11.247553539467685L85.39533333333333,58.915952549191765L85.41466666666666,101.00361890934207L85.64666666666666,126.32081370376564L85.65633333333334,141.50234240225066L85.70466666666667,150.01100174417903L85.753,155.7374202776362L86.75833333333334,147.77592748870907L87.28999999999999,153.95146936538183L87.464,157.98367396889307L87.51233333333334,160.25622212188827L87.638,161.86666148644065L87.68633333333334,162.75699042312317L87.841,162.59017928664096L87.88933333333333,155.19846097628513L87.97633333333333,158.34622357751252L88.131,160.6957502015243L88.69166666666668,161.40770624734714L89.146,161.78623488256272L89.24266666666668,160.08210915338785L89.436,160.82733720606038L89.93866666666666,162.18970904909312L90.32533333333333,-1838.160682779773L91.04066666666667,-99.88130710989046L91.06966666666666,5.786225859421216L91.176,66.44860199721235L91.76566666666668,105.01554338639532L91.814,128.56961377830098L91.83333333333333,142.4181513316279L92.37466666666667,149.9436135250259L92.98366666666666,153.60031529020412L93.01266666666666,156.59793425854446L93.07066666666667,151.7396739291249L93.438,154.30693868296223L93.57333333333332,157.312694343858L93.85366666666667,159.87467737179782L94.29833333333333,161.30942475679515L94.50133333333333,162.41140480267526L94.83,162.73661201911486L95.12,156.05646211366246L95.265,133.87609073027775L95.40033333333334,138.30132789946765L95.95133333333332,148.24475216157538L96.05766666666666,154.00490685193017L96.06733333333332,158.0052039622322L96.338,160.5143162730249L96.37666666666667,159.05803038601692L96.39599999999999,159.7276176027931L96.512,161.50051395316402L96.744,162.3648296184296L96.86,162.94856007525905L96.93733333333333,162.8406619451681L96.99533333333333,163.10198419136702L97.10166666666666,163.1205649186833L97.179,163.00713413850127L97.19833333333334,162.99980262678721L97.58500000000001,163.41615081564407L97.672,163.2351715864833L97.69133333333333,163.3439465278226L98.02000000000001,163.6621932252143L98.078,162.94496214230475L98.23266666666666,162.28671520820882L98.88033333333333,158.32016053076418L98.90933333333334,160.69218143002627L99.16066666666666,160.67808672238465L99.528,162.09931386336766L99.53766666666667,162.54400409335054L99.789,162.72198439797148L99.95333333333333,163.23079900389874L100.06933333333333,163.13823830201414L100.11766666666666,163.27535673134503L100.50433333333334,162.53624827197265L100.56233333333333,163.049347066507L100.833,163.35074265910063L101.384,163.61537983696465L101.96400000000001,163.8484036533315L102.27333333333334,163.81408073309797L102.69866666666667,163.99078126880906L102.91133333333333,164.00779049446612L103.095,164.10272041969657L103.10466666666666,163.5225012794602L103.37533333333333,163.72384762711022L103.60733333333333,163.94838543109339L103.733,163.4490838380632L104.197,163.8020032323007L104.33233333333334,164.01157484883808L104.38066666666667,164.1395330082099L104.922,162.98412443917812L105.02833333333334,157.9848054145087L105.16366666666666,160.4191723709947L105.357,161.70946617881492L105.49233333333333,162.57969396973292L106.26566666666666,162.5225913859765L106.55566666666667,162.9765215038159L106.81666666666668,125.13020562608148L106.87466666666667,139.43696982070057L106.96166666666667,149.24550262923358L107.49333333333333,155.28278403449372L107.58033333333333,158.86213585992917L107.88966666666667,160.83661797825778L107.92833333333333,162.23679009462356L108.228,163.03817209426262L108.286,163.53913593488386L108.46,163.83549503808553L108.51799999999999,164.02657181762567L108.78866666666666,164.1416324806303L108.80799999999999,164.1985809390096L109.02066666666667,164.17378452975407L109.04,164.22107413024764L109.475,164.18824613840926L109.57166666666667,164.15249617395648L109.881,164.18669692165068L109.92933333333333,164.13757324481134L109.99700000000001,163.8670953089468L110.38366666666667,163.82298157241777L110.42233333333333,163.94538819577505L111.04100000000001,164.04705386231385L111.244,164.16064996606414L111.505,163.96859213974412L111.74666666666667,163.47431296861754L112.317,157.94193307088622L112.35566666666668,147.9122142464669L112.65533333333333,154.41985072373635L113.23533333333334,158.31817735340007L113.622,160.69269066943093L113.999,162.12300448922858L114.11500000000001,162.24540242134233L114.13433333333333,159.73612861869665L114.202,161.37453105763126L114.347,162.5388016116462L114.52099999999999,161.1006684878502L114.65633333333332,160.9648338806692L114.782,161.8914530305437L114.83033333333334,158.2188677977971L114.92699999999999,160.38242592306946L115.59400000000001,161.96521053219243L116.38666666666666,162.4270195448528L116.47366666666667,163.05688503993946L116.56066666666666,163.55020544332274L116.65733333333333,163.83674253526624L116.91833333333334,154.95521358730372L117.67233333333333,158.6677062090523L117.682,156.74669061855766L117.87533333333333,154.40462799484735L117.99133333333333,153.16160433241848L118.06866666666667,146.286183416455L118.46499999999999,113.22175546452513L118.47466666666668,132.36328728992453L118.64866666666667,141.56425528695837L119.04499999999999,150.28661890626023L119.15133333333333,151.9998132531775L119.277,154.25748692678155L119.40266666666668,156.93136729870497L119.567,159.61318267046963L119.828,155.5895789519522L119.92466666666665,159.08386018149264L120.05033333333333,161.18562724814362L120.35,162.44737856260474L120.35966666666666,163.20442213304244L120.36933333333333,163.6586411882234L120.466,163.93106277044706L120.59166666666667,164.09489650669744L120.64966666666666,164.1930232780094L120.785,164.25073816022265L121.46166666666667,164.27042655988697L121.72266666666667,159.4681813336774L122.02233333333334,160.10831372610414L122.18666666666667,161.2701401319583L122.699,162.01316499883083L122.86333333333334,162.15498456905488L122.931,162.0243991249599L123.453,162.34775886384259L123.55933333333333,163.10058383895688L124.15866666666666,162.32441060718776L124.18766666666667,161.72579728665156L124.19733333333333,152.24493958500062L124.671,157.0300113575556L125.15433333333333,159.39867686313846L125.21233333333333,161.12401531556543L125.22200000000001,162.31266791073332L125.28,163.08182251133573L125.69566666666667,163.51304373259347L125.86,163.8065863476437L126.27566666666667,163.3984372231785L126.39166666666667,163.52323964105037L126.61399999999999,163.63695478158954L126.788,163.73934225896582L126.97166666666668,163.86365404031832L127.06833333333333,164.0247821202178L127.08766666666666,164.11915202516516L127.68700000000001,162.62185374823844L127.78366666666666,163.11448152722366L127.85133333333334,163.27040280520288L128.05433333333332,162.86184633769994L128.30566666666667,19.047099419822732L128.992,77.08813491460988L129.52366666666666,111.77243436065362L130.28733333333332,132.65158711208161L130.732,145.1845767832933L130.74166666666665,152.6784480942091L130.79,157.1495544998753L130.86733333333333,159.216600907018L131.04133333333334,160.37954641348583L131.428,161.49933328979483L131.66,162.00723390469415L131.718,162.87330175595795L131.72766666666666,162.95642489450955L132.05633333333333,139.62519367610085L132.16266666666667,149.02910544937015L132.53,151.65877962623844L132.56866666666667,149.91912920445515L132.62666666666667,155.52149767946983L132.704,159.00300782836587L133.70933333333335,160.88188534010024L133.719,162.249321164703L134.328,162.97480199898126L134.42466666666667,163.2249833502494L134.473,163.63967657107747L134.80166666666668,163.4274062307518L134.85,162.8582894863168L134.97566666666665,163.3080522923854L134.995,163.51510465283158L135.604,162.4932544220326L136.02933333333334,-1000.0265509979907L137.82733333333334,-4.258628107353475L137.91433333333333,63.13801758104335L138.11733333333333,103.42944727427687L138.417,127.07501045710464L138.43633333333332,141.90893895088877L138.475,147.222989183762L138.678,153.07321902195264L138.707,128.43534639388963L138.74566666666666,49.42443596394958L138.90033333333332,95.31905680248714L138.98733333333334,122.78774973088093L139.04533333333333,139.23460529075732L139.751,149.17096958646218L139.91533333333334,155.21238881134047L140.447,158.1257279409895L140.92066666666668,159.53399589994132L141.491,160.92426425559825L141.87766666666667,162.14143011413634L141.91633333333334,163.0098992385702L142.216,163.21802095789064L142.45766666666668,161.88996578425463L142.80566666666667,162.71816866880138L143.10533333333333,161.36713198844737L143.12466666666666,161.08865169239385L143.24066666666667,161.8724416208886L143.608,162.54807147349297L143.724,161.46561755378983L143.99466666666666,162.56178691514327L144.03333333333333,162.72646635606543L144.05266666666668,162.68700051689154L144.25566666666666,162.98456286085815L144.26533333333333,162.58340949277448L144.41033333333334,163.19503347109998L144.52633333333333,163.14525061672816L144.78733333333335,163.37337444191797L144.80666666666667,163.6502773834166L144.826,163.91031819544904L145.54133333333334,163.7275205869983L145.99566666666666,163.90554258308782L146.45,163.982038198624L147.03,164.07128695110836L147.74533333333332,145.96388625674803L147.83233333333334,152.57759017316977L148.48,156.8150241448368L148.89566666666664,159.8211743982135L148.9343333333333,161.59566327008503L149.09866666666667,162.37479889146795L149.31133333333335,162.97866688229323L149.58200000000002,163.2397263664385L149.62066666666666,163.63411816996484L149.8236666666667,160.5153918127886L149.94933333333333,160.97699881713052L150.08466666666666,160.7272770562178L150.20066666666668,161.00713342419772L150.21033333333335,161.55361770446007L150.31666666666666,161.30231954445526L150.74200000000002,162.27061730122006L151.67000000000002,160.5981315637214L152.047,160.76906461335363L152.26933333333335,161.34264237224096L152.37566666666666,162.31691355843213L152.79133333333334,162.4679122851285L153.22633333333332,162.93042411787232L153.60333333333332,160.4523556476239L153.89333333333332,161.28424378567786L154.251,162.4783834840742L154.89866666666668,163.19468986175337L154.99533333333332,163.62268905345942L155.16933333333333,163.5222429698539L155.24666666666667,163.5465198023182L155.53666666666666,163.65490954553596L155.875,163.09019504118592L156.05866666666668,163.20875592741618L156.078,163.4778026707422L156.107,163.78255898686203L156.23266666666666,163.9979974873029L156.774,164.09258111746502L156.96733333333333,164.17287667597344L157.60533333333333,162.56616265052992L157.88566666666665,163.16637712479766L158.0596666666667,163.46494187302872L158.456,163.78326679363204L158.70733333333334,163.94817099618453L159.239,163.70921143462746L159.326,162.85770386535646L159.57733333333334,163.38124207531922L159.964,163.7369255368971L160.50533333333334,163.914331472746L160.61166666666665,164.0709392368915L160.747,115.79300208892869L160.87266666666665,131.42438865891108L161.04666666666668,144.2747537707933L161.23033333333336,151.58404098842962L161.33666666666667,156.43846987504514L161.39466666666667,159.47893273491215L161.51066666666665,161.25952674870422L161.675,162.29528360307452L162.01333333333332,163.08996815039396L162.081,163.5588748349868L162.893,158.19067963909984L162.94133333333332,159.53411491878387L163.00900000000001,147.81159384631505L163.067,153.68702833307321L163.37633333333335,157.46930719400535L163.386,160.054453345592L163.43433333333334,161.75632354006086L163.56966666666668,162.2501618225612L163.64700000000002,163.05502502519718L163.65666666666667,163.56054176951668L164.29466666666667,162.49353030935487L164.314,162.73128414407867L164.691,163.3299817103668L165.097,162.59767965356934L165.54166666666666,162.50992035244235L165.75433333333334,162.5182180815097L166.721,163.13015966604252L166.866,162.1327404958271L167.03033333333332,162.93822948929306L167.1076666666667,163.48976879477442L167.43633333333335,163.6181892976704L167.74566666666666,157.45474904727766L167.87133333333333,159.81138234091682L167.91,161.57660705600753L168.20966666666666,161.30020319747672L168.42233333333334,149.8326680426889L168.46099999999998,149.07399194871232L168.606,-439.29858559706895L169.81433333333334,-54.50976108235851L169.824,33.01670479016683L169.86266666666666,84.93022306272304L170.13333333333333,116.66831801955814L170.2493333333333,135.67568423913542L170.346,146.37507966710848L170.38466666666667,153.18128793439254L170.51999999999998,155.3740705856314L170.66500000000002,154.27374858009316L170.88733333333334,158.2640449282032L170.97433333333333,160.36988648769747L171.10966666666667,161.93365908440322L172.26,162.86996830656193L172.41466666666668,162.6135134742332L172.54999999999998,163.28506335109722L172.68533333333335,158.3977694516793L172.77233333333334,160.25217097900088L173.05266666666668,161.85572246731286L173.23633333333333,162.82035147919044L173.391,163.3831137954175L173.44899999999998,163.74688568360392L173.594,163.9610180468659L173.652,160.48103012637668L173.92266666666666,161.9109538337911L173.942,162.87337962645984L175.08266666666668,163.07124457941387L175.305,163.45812146199532L175.35333333333335,163.61036020849815L175.64333333333335,163.70129864257538L176.06866666666664,154.61132673194896L176.16533333333334,158.48197310388684L176.4263333333333,160.75969395735405L176.53266666666667,162.1044140863957L176.85166666666666,162.9057824656862L176.929,163.46305163346653L177.11266666666668,163.78912012275282L177.219,163.98018203496494L177.625,164.07520633716086L178.089,163.94489445899157L178.09866666666667,163.7424081335985L178.97833333333332,163.9342907492636L179.162,163.8776751827641L179.25866666666667,163.95696103242315L179.58733333333333,164.0549613706813L179.86766666666665,164.07348140002435L179.98366666666666,163.91765550994543L180.061,164.07767041478903L180.641,164.08003879248494L180.65066666666667,163.57416814804355L181.13400000000001,163.74347508993858L181.163,163.89288517826847L181.18233333333333,163.73971944008733L181.24033333333333,163.7241977052497L181.87833333333333,163.67571305701242L182.19733333333332,163.73891386735198L182.642,163.16949677810865L182.82566666666665,163.1873723487279L182.85466666666665,162.68091064132472L182.98033333333333,161.02601089469923L183.56033333333335,162.32265480559107L184.208,163.09821974773112L184.68166666666667,163.55190896775346L184.701,163.7788455232444L184.79766666666666,163.92346858086918L185.136,164.04062031952333L185.223,163.81978522920727L185.919,163.90752336077506L185.95766666666665,155.22320355981444L186.51833333333335,156.85050087109758L186.91466666666665,159.80819997187044L187.20466666666667,161.32670516606981L187.224,162.46490138594785L187.35933333333332,163.20882717127722L187.38833333333332,163.45496251013122L187.62033333333335,163.57565377420423L188.007,163.64857564251304L188.04566666666665,163.8664901309699L188.53866666666667,163.9774537781917L188.67399999999998,163.64204414550736L189.04133333333334,163.43995042997804L189.07033333333334,162.88727719674256L189.254,162.5182439373035L189.67933333333335,162.77305988288248L189.73733333333334,160.09858813121002L189.74699999999999,161.60929444937526L189.90166666666667,161.23895184921182L190.01766666666666,153.53739015382416L190.73299999999998,155.39696481155772L190.75233333333335,156.8083455250024L190.936,159.77578862579554L191.06166666666667,161.29251000611652L191.15833333333333,162.1920595396928L191.23566666666667,162.69492259870398L192.328,162.69659574885708L192.60833333333335,163.32860924040983L192.68566666666666,163.6964082920754L193.49766666666667,163.7869106201659L193.56533333333334,163.60465497015468L193.96166666666664,163.46104792880521L194.48366666666666,163.709023005513L194.62866666666667,162.56058157830225L194.63833333333335,163.0229596731806L194.78333333333333,163.44939000386935L195.00566666666666,163.78667215459237L195.17000000000002,163.97427766090496L195.257,164.07208849070372L195.58566666666667,164.15763943696845L195.87566666666666,164.22114380904048L195.94333333333333,164.25758289058393L196.388,163.80598624878704L196.86166666666665,164.0078825973815L196.95833333333334,164.08955623900772L197.026,164.1787185719293L197.03566666666666,164.17768026443468L197.07433333333333,163.75568541414984L197.4513333333333,163.92131705179008L197.55766666666668,163.98085789780728L197.72199999999998,161.70933462726762L197.83800000000002,-1008.3728063259518L198.52433333333332,-89.05587861868008L198.59199999999998,12.184713512593182L198.80466666666666,73.01977830769982L198.95933333333335,109.54047628012326L199.03666666666666,131.45712912107064L199.2396666666667,140.7878609453754L199.35566666666668,150.18330831704023L199.433,155.69102379292534L199.47166666666666,158.83509541912545L199.5103333333333,160.73123906748535L200.187,162.1717904568722L200.85399999999998,159.05020659682643L201.39533333333333,159.404742737538L201.521,161.36224356800935L202.09133333333332,162.51107527069593L202.101,162.92802496776318L202.217,163.37489644853864L202.333,163.4529164020282L202.478,163.8043458053189L202.57466666666667,164.01349079627923L202.70999999999998,164.13305764392263L202.83566666666667,164.2145364878222L202.92266666666666,164.24186331442868L203.232,163.9189246496308L203.85066666666665,163.9542004921454L204.14066666666665,161.94382406506304L204.189,159.95789622062748L204.1986666666667,55.41071310346478L204.31466666666668,98.67441185037086L204.421,124.80250138971509L205.51333333333332,140.61068407569368L205.523,150.08615574492782L205.581,155.76521124706557L205.60999999999999,159.15678550487442L205.726,161.22046352709617L205.87099999999998,162.46084047490018L206.61533333333335,162.71636739185715L206.86666666666667,163.30600930162703L206.92466666666667,162.2149873015787L206.93433333333334,161.3827606872792L207.51433333333333,162.56099043159244L207.76566666666668,162.32520596142743L208.20066666666665,163.127184466113L208.22966666666665,163.58555604337235L208.44233333333332,163.33850125147725L208.80966666666666,163.664612396103L208.90633333333335,163.7386097350487L208.94500000000002,163.57141556014554L208.95466666666667,163.6137695103981L209.873,163.37966481290277L209.89233333333334,163.63710583287457L209.94066666666666,163.76401448661613L210.54,163.23853467720573L210.93633333333335,163.54926219535838L211.41966666666667,163.66216703738658L211.49699999999999,163.6554328792925L211.642,163.90351741782507L211.73866666666666,164.0360084112486L211.77733333333333,163.2756921226489L211.91266666666667,163.3100591840208L212.34766666666667,163.63329351800405L212.4346666666667,163.7635306908185L212.66666666666666,163.98557796082034L212.69566666666668,163.6125678918259L213.13066666666666,163.75083763096356L213.81699999999998,163.4819292761777L213.97166666666666,163.38911781815767L214.17466666666667,163.4257015499369L214.24233333333333,163.55839290417293L214.629,163.84248272923233L215.22833333333332,164.0075321969536L215.24766666666665,158.8220017986215L215.98233333333334,160.66078142563268L216.17566666666664,161.72958273012478L216.50433333333334,162.69905181602346L216.659,163.23517558726905L216.76533333333333,163.47899581175764L217.19066666666666,163.7832200501069L217.33566666666664,164.0036962614685L217.34533333333331,163.94993365452103L217.38400000000001,164.09288201184157L217.50966666666667,163.69412843176144L217.65466666666669,163.8219136633353L218.24433333333334,163.9959607468557L218.602,164.09456094453972L218.81466666666665,164.14555997756753L220.52566666666667,164.18496799369535L220.72866666666667,153.32985800402435L221.01866666666666,155.07928720832254L221.328,135.9421401913189L221.415,147.26806482046177L221.59866666666667,151.323147628529L221.77266666666668,154.24893389146342L222.198,158.05337433320824L222.285,160.4049370762977L222.47833333333332,161.9399800810994L222.691,162.87534591112407L222.91333333333336,163.3846471394756L223.07766666666666,163.65857614332012L223.10666666666665,160.95883204153606L223.13566666666665,160.7495340491448L223.49333333333334,162.0921820668931L223.76399999999998,162.94717170840863L223.938,163.48724595505905L223.95733333333334,163.8055094807284L224.75966666666667,163.997084951529L224.86599999999999,164.115141999163L225.127,164.19706113983386L225.37833333333333,162.2067137262603L225.62,162.626586970394L225.649,159.8208096576534L226.67366666666666,161.58197139447063L226.71233333333336,162.3104015388635L226.85733333333334,163.02504910164168L226.87666666666667,163.4914426275409L226.92499999999998,163.79009791794644L226.98299999999998,163.78502324362532L227.10866666666666,163.92269417030658L227.186,164.06334356563107L227.534,164.1657083844957L227.68866666666668,164.22961472411114L228.38466666666665,163.74700226441482L228.433,162.0838775206044L228.64566666666667,141.441137721871L228.665,150.4631944374449L228.781,155.86992248080816L228.85833333333335,158.14657951414884L228.91633333333334,157.97499227010104L229.16766666666666,160.4260011119101L229.20633333333333,161.73707743718413L229.43833333333333,162.70932865288128L229.54466666666667,163.32640332611783L229.767,163.47538924658016L229.88299999999998,163.81394555109492L230.19233333333332,163.99945558661693L230.83033333333336,164.122909445468L230.956,164.20573037656067L231.23633333333333,164.20521035699278L231.34266666666664,164.25281510082615L231.681,163.7372655816539L231.78733333333335,163.0230281888951L232.81199999999998,162.86623979635803L232.8313333333333,163.1860713698135L232.91833333333335,163.61704380868792L232.957,163.808556130084L232.96666666666667,163.98504286469137L233.03433333333334,164.03413516835218L233.18900000000002,164.12461147619666L233.23733333333334,163.87295228455474L233.682,163.86114817982775L233.72066666666666,163.81084166135486L233.74,163.15882650770794L234.11700000000002,163.44525184141614L234.14600000000002,163.62194651239744L234.28133333333332,163.1489796762193L235.03533333333334,158.6798793855452L235.10299999999998,158.35117847210174L235.35433333333333,160.6837538352626L237.46166666666664,161.89195765492317L237.69366666666667,162.44278293623688L237.945,162.2203484750915L237.95466666666667,162.93931220455806L238.16733333333335,163.27699694413906L238.264,163.19223515275036L238.4186666666667,163.4229814906451L238.641,163.76188778101942L239.06633333333335,163.98193605654205L239.49166666666665,164.0748520552213L239.58833333333334,163.33985397322297L239.6076666666667,163.67487811679268L239.67533333333333,163.76781055187425L239.8203333333333,163.3149619961736L240.5066666666667,163.49830950509235L240.526,163.33473442343734L240.88366666666667,163.4681128924931L241.34766666666667,163.55442448928136L241.55066666666667,163.76814421834666L241.8213333333333,163.98715752540477L241.89866666666666,164.08363227927418L241.99533333333335,164.08241188316222L242.33366666666666,164.0549390264817L242.69133333333332,164.11582898657983L243.08766666666668,163.92538176629608L243.223,163.4322627907997L243.63866666666667,163.7044518224257L243.92866666666666,163.93577645990547L244.16066666666666,163.99326612747524L244.39266666666666,164.09409720737384L244.40233333333333,164.1094302169089L245.43666666666667,163.78435389940478L245.75566666666668,163.99530993526264L246.01666666666668,162.50114430974688L246.35500000000002,163.19744938559614L246.413,163.38698494450833L246.45166666666665,163.69384310320592L247.03166666666667,163.93513347153728L247.07999999999998,164.09356909713938L247.20566666666667,164.06215865437957L247.428,163.66159097610705L247.544,163.7546708706838L248.27866666666665,163.51684236717176L248.66533333333334,162.51986141588532L249.052,163.03691913808078L249.081,163.39335437356576L249.4,163.737937007364L249.61266666666668,163.8385025365349L249.70933333333332,163.97979460860128L250.01866666666666,164.112348379476L250.17333333333335,163.96519734444743L250.44400000000002,164.08325691972388L250.45366666666666,164.1165779768747L251.35266666666666,163.94024176103412L251.72,164.0495832190152L252.21300000000002,162.64229857118346L252.23233333333334,158.77791815343917L252.58033333333333,153.4580386067322L252.75433333333334,157.79541764463912L252.78333333333333,160.36539155433795L253.46,161.91439495247215L253.91433333333336,160.26669272546792L254.21400000000003,161.7112134562518L254.417,162.75397975683924L254.91966666666667,159.10963309052588L255.47066666666666,161.19584379550275L255.722,162.2987763914239L256.4373333333333,163.07147576003788L256.5436666666667,163.39655762652208L256.5726666666667,163.64214869126894L256.86266666666666,162.0909714339431L256.92066666666665,160.6060218768272L257.35566666666665,161.77940525888533L258.3126666666667,162.51371473527448L258.90233333333333,160.1139910877564L259.1343333333333,160.18596410128242L259.19233333333335,161.71464718598605L259.3953333333333,162.68545307908315L259.62733333333335,163.22759773563922L259.84000000000003,163.64879690082608L259.96566666666666,163.92016364770026L260.391,160.08248168971556L260.7196666666667,-1700.273276532697L262.2373333333333,-5.641685881316007L262.334,62.302473579184486L262.5756666666667,103.02020697615461L262.99133333333333,127.49957637673602L263.12666666666667,142.1679069022691L263.262,151.00857695731858L263.5133333333333,156.33591327794124L263.60033333333337,158.65496954573615L264.05466666666666,160.68611378101411L264.0933333333333,162.1361926123657L264.19,163.00935674837086L264.29633333333334,163.53604005101812L264.335,163.59098116120757L264.364,163.79625411889722L264.4413333333334,163.96134638139844L264.64433333333335,163.98865021027103L264.712,164.1152194159171L264.915,163.6812343116357L265.25333333333333,163.6842670368613L265.44666666666666,163.89262516956111L265.466,163.749412608561L265.63033333333334,163.93097629530135L265.7656666666667,161.7774598867385L265.8333333333333,162.74344598133496" fill="none"></path></g></g></g></g><g opacity="0.2"><g><g><g><path style="fill: none;" stroke="rgb(255, 112, 67)" stroke-width="2.666667px" d="M24.360000000000003,51.66207323840686L24.64033333333333,135.74788983719688L24.785333333333334,152.6233692542783L24.795,149.18391837115797L25.046333333333333,160.44131190143526L25.181666666666665,-129.91919768197195L25.220333333333333,138.73945284826416L25.423333333333336,148.92312796797071L25.77133333333333,146.02138413563372L25.848666666666666,163.26019051569912L26.03233333333333,153.92111478799154L26.544666666666664,85.68200133655752L26.689666666666664,152.4186783131744L26.912,154.3673756888402L27.269666666666666,133.8096324445946L27.724,110.08641026147775L27.917333333333332,161.6192185580198L28.072,137.68002031786102L28.197666666666667,161.31636862839972L28.41033333333333,162.53893260037793L28.681,139.96938762068748L28.77766666666667,157.98630880287715L28.835666666666665,149.26407699393374L29.116,136.3873865721481L29.338333333333335,164.13100392740122L29.386666666666667,156.53836471151027L29.406000000000002,153.86062569852385L29.560666666666666,128.44176074394156L29.947333333333336,117.83711541507927L30.343666666666664,149.8020541014416L30.401666666666667,153.3850726851395L30.41133333333333,161.66952958327852L30.546666666666667,118.19717818796634L30.711,155.8687427872526L31.571333333333335,134.78931384852956L31.677666666666667,157.93705359090652L31.958000000000002,162.3172336615755L32.470333333333336,113.57303065061569L32.55733333333333,146.09597886651753L32.75066666666667,159.72888025968734L33.292,164.07057347957578L33.842999999999996,159.14414204667722L33.99766666666667,163.24103645617808L34.104,152.12510133577246L34.21033333333333,144.36887930908372L34.394,162.08861964305063L34.539,157.96791058571213L34.925666666666665,156.465921392345L35.061,-2007.1506184032985L35.12866666666667,151.5029099321791L35.322,164.19724882686276L35.438,-4931.225913892474L35.534666666666666,117.28788272908756L35.554,161.10291591387775L35.63133333333333,92.7817540454013L35.96,96.81855231906688L36.28866666666667,162.4557353873471L36.308,163.2950441842566L36.336999999999996,159.8939467059182L36.43366666666667,151.07877017334104L36.47233333333333,155.2741435855627L36.99433333333333,71.82281079377448L37.187666666666665,163.50439782349528L37.48733333333333,149.7485623746046L37.88366666666666,145.39359749427865L38.27033333333333,160.8921294067055L38.28,154.62898289305824L38.62800000000001,99.93910599563804L38.78266666666667,163.01614362943386L38.81166666666667,163.15680588435248L39.150000000000006,-499.6975312914167L39.179,156.5090888747147L39.31433333333334,102.35988482960633L39.614,155.42568579598196L39.913666666666664,158.48963485972158L39.991,144.5925441463079L40.32933333333334,73.69262568524906L40.474333333333334,98.1618626913854L40.638666666666666,159.94575027682419L40.657999999999994,150.51866770418627L40.72566666666666,156.7145128269281L41.36366666666667,158.14983538325345L42.04033333333333,160.86605054722833L42.166000000000004,164.22990905687746L42.543,161.64604308751544L42.63966666666666,152.18278738111258L42.93933333333334,141.7174647986889L43.132666666666665,164.3116021744194L43.14233333333333,162.16066526149268L43.31633333333333,144.76289327581014L44.196000000000005,164.33078892552575L44.283,162.31131727934948L44.379666666666665,160.72635918541678L44.486000000000004,146.25192939128195L45.53966666666667,163.4588191957213L46.603,164.2754885888592L46.989666666666665,163.87627279010735L47.328,163.3286694111901L47.734,161.03984500978675L47.782333333333334,118.46319370652947L47.908,148.01571085006L47.98533333333334,162.64931240918648L48.01433333333333,124.63351244074957L48.20766666666667,121.36863273467337L48.38166666666667,154.35838846628155L48.517,159.68083668614602L48.64266666666667,150.48102734259194L49.097,161.35329225462462L49.10666666666667,158.04227504501384L49.30966666666667,158.74227111712096L49.58033333333333,164.20633750906978L49.657666666666664,163.95923464538728L49.73500000000001,164.22892675756592L50.13133333333333,164.09112830765412L50.218333333333334,87.83493212418897L50.36333333333333,154.2465337438775L50.45033333333333,163.6822909092331L50.61466666666667,162.78792158498297L50.672666666666665,156.42129271019783L50.79833333333333,163.28144030280944L50.808,163.83080240354008L50.81766666666666,157.42831494627254L50.943333333333335,162.1091826843497L51.10766666666667,163.8033472267911L51.36866666666667,158.6358271740909L51.58133333333333,161.35417506282351L51.678,143.42726384720632L51.84233333333333,157.09862270440374L52.81866666666667,152.35412028868285L52.925,112.12007724813053L53.98833333333334,144.10325199706213L53.998000000000005,156.54440059986499L54.19133333333333,138.8073383573975L54.201,110.51847208610603L54.346000000000004,161.3336368872385L54.58766666666667,163.50134906090264L55.10966666666667,141.42902974954674L55.28366666666666,141.38991251524004L55.51566666666667,161.20066710468382L55.74766666666667,156.25673774416958L55.776666666666664,152.22172739069376L56.62733333333333,161.80105986704254L57.09133333333333,163.40684646260925L57.64233333333333,142.4105268027101L57.855000000000004,151.86426632500118L57.93233333333334,164.29384282950195L58.019333333333336,159.8558093314458L58.27066666666666,106.58616647507465L58.657333333333334,157.77909934169477L58.68633333333333,161.70951877529066L58.986,164.15495514828945L59.14066666666667,126.19153478762932L59.507999999999996,161.0521163150136L59.537000000000006,156.15399562780345L59.57566666666666,163.86018354286705L59.64333333333333,119.91295947517669L59.67233333333333,163.73561027146144L59.856,129.58144111228842L60.068666666666665,163.43360739615744L60.54233333333333,163.3747539432187L60.745333333333335,161.88423673539822L61.38333333333333,147.28409463177834L61.40266666666667,156.2770884473409L61.90533333333333,148.3498867569225L62.031,163.32279145779486L62.089000000000006,163.61068149569576L62.205,162.57472852879602L62.234,-42.58906426770347L62.611000000000004,120.81502127179077L62.96866666666667,160.70377117078752L63.075,160.88820815895286L63.18133333333333,163.6746923237773L63.239333333333335,100.77991314019476L63.306999999999995,163.90755302950606L63.66466666666667,160.94738072188838L63.90633333333333,161.57340174684566L64.02233333333334,159.95595335744855L64.05133333333333,156.7297951440726L64.264,164.06726861896624L64.60233333333333,161.2243929141068L64.70866666666666,159.94112223998775L65.047,164.32840741765082L65.337,162.7250307689421L65.92666666666666,150.31786244532893L66.02333333333333,163.13333091723868L67.24133333333333,163.7037335940038L68.02433333333333,146.92436219613467L68.063,155.2180067495576L68.30466666666668,156.12962240560776L68.76866666666666,164.27068511216578L69.12633333333333,161.19409411690597L69.52266666666667,156.99889461398126L69.542,164.09067025106134L69.6,163.54423412904143L69.687,161.9336393332375L69.90933333333334,162.40821414450184L70.36366666666667,157.7680378664817L70.89533333333333,164.31544622543254L70.92433333333334,160.91647881809624L70.934,161.17175626643004L71.01133333333334,163.7012027917696L71.37866666666667,117.3732447662524L71.64933333333333,163.05308805243777L71.833,159.35316926690618L72.02633333333334,163.0245874231149L72.32600000000001,163.7104684349748L73.283,161.6084277423365L73.37,164.21486943475318L73.38933333333333,164.1143531294523L73.79533333333333,162.21175812508113L73.834,164.02833925266418L73.979,164.27889135821772L74.008,164.1024597642411L74.01766666666666,163.37419416325034L74.327,160.54878483292248L74.45266666666666,161.84477153179634L74.69433333333333,164.30735459713594L74.82000000000001,164.11037964486252L74.965,164.05659050901554L75.05199999999999,164.10317327837026L75.081,162.95200711647047L75.37100000000001,164.03608399954058L75.603,164.29749371441804L75.63199999999999,164.17628996860668L76.01866666666666,-3713.8018664496285L76.096,164.06988125200485L76.415,164.1345781289041L76.82100000000001,164.25102568997286L76.908,164.32236138050564L76.95633333333332,-1206.0642270633152L77.43966666666667,150.6771885902754L78.967,164.1351872635473L79.576,155.59283885237363L79.84666666666666,163.8732163794239L80.069,164.06761412052768L80.562,163.89840711848146L80.89066666666666,164.03158460509897L81.01633333333334,153.65309192814996L81.68333333333334,164.0327089498019L81.76066666666667,163.42875707490768L82.00233333333334,164.172356401023L82.157,164.0093672403101L82.273,163.63286593225118L82.69833333333334,163.64360957842854L83.259,164.22845340479148L83.47166666666666,161.6475847617856L83.52,162.79165114068562L83.55866666666667,-3111.924438313076L84.361,158.35502785827433L84.535,161.45861558280885L84.88300000000001,160.53745782202375L85.086,154.89110670132297L85.39533333333333,164.1612116821809L85.41466666666666,164.1351184495675L85.64666666666666,164.29660589540103L85.65633333333334,164.2746354499782L85.70466666666667,162.77399075707154L85.753,164.327048077822L86.75833333333334,135.83368830531836L87.28999999999999,163.21478218039098L87.464,164.0319808741599L87.51233333333334,163.6650443513811L87.638,164.28232053326917L87.68633333333334,164.09248382814692L87.841,162.33996258191766L87.88933333333333,144.1108835107514L87.97633333333333,163.0678674793536L88.131,164.22004013754193L88.69166666666668,162.47564031608138L89.146,162.35402783538615L89.24266666666668,157.52592055962555L89.436,161.94517928506914L89.93866666666666,164.2332668136423L90.32533333333333,-4838.6862705230715L90.40266666666666,149.83591849133373L90.48966666666666,153.87155335098507L90.64433333333334,156.45399248046536L91.04066666666667,164.2300803571582L91.06966666666666,164.28752531338876L91.176,157.44216620389903L91.76566666666668,162.86595547016975L91.814,163.90071936615942L91.83333333333333,163.19095766161834L92.37466666666667,161.23180681512292L92.98366666666666,159.08536793797145L93.01266666666666,161.09436271105494L93.07066666666667,144.4522834349956L93.438,158.15783581371818L93.57333333333332,161.82132783520169L93.85366666666667,163.71765191370753L94.29833333333333,163.4615458342912L94.50133333333333,164.06437487149543L94.83,163.22442284377425L95.12,146.03623725548388L95.265,100.60553365520069L95.40033333333334,144.93918365325246L95.95133333333332,163.15988855473697L96.05766666666666,162.64513888746234L96.06733333333332,164.00564962768527L96.338,164.2779847392139L96.37666666666667,156.87360155550496L96.39599999999999,160.73199842795728L96.512,164.1598584787205L96.744,163.66130311632796L96.86,163.82415576050323L96.93733333333333,162.6788147500317L96.99533333333333,163.49396756066542L97.10166666666666,163.1484360096577L97.179,162.83698796822821L97.19833333333334,162.98880535921614L97.58500000000001,164.04067309892937L97.672,162.9637027427421L97.69133333333333,163.50710893983157L98.02000000000001,164.13956327130188L98.078,161.86911551794037L98.23266666666666,161.29934480706495L98.88033333333333,152.37032851459725L98.90933333333334,164.25021277891938L99.16066666666666,160.65694466092225L99.528,164.23115457484215L99.53766666666667,163.21103943832483L99.789,162.98895485490294L99.95333333333333,163.9940209127896L100.06933333333333,162.9993972491872L100.11766666666666,163.48103437534135L100.50433333333334,161.4275855829141L100.56233333333333,163.81899525830855L100.833,163.80283604799104L101.384,164.0123356037607L101.96400000000001,164.1979393778818L102.27333333333334,163.76259635274764L102.69866666666667,164.25583207237568L102.91133333333333,164.03330433295176L103.095,164.24511530754222L103.10466666666666,162.65217256910566L103.37533333333333,164.02586714858523L103.60733333333333,164.28519213706812L103.733,162.70013144851794L104.197,164.33138232365692L104.33233333333334,164.32593227364416L104.38066666666667,164.33147024726765L104.922,161.2510115856305L105.02833333333334,150.4858268775046L105.16366666666666,164.0707228057236L105.357,163.64490689054531L105.49233333333333,163.88503565610984L106.26566666666666,162.43693751034195L106.55566666666667,163.65741668057493L106.81666666666668,68.36073180947984L106.87466666666667,160.89711611262922L106.96166666666667,163.95830184203308L107.49333333333333,164.33870614238398L107.58033333333333,164.2311635980823L107.88966666666667,163.79834115575068L107.92833333333333,164.33704826917221L108.228,164.24024509372123L108.286,164.2905816958157L108.46,164.28003369288803L108.51799999999999,164.31318698693588L108.78866666666666,164.31422347513725L108.80799999999999,164.28400362657848L109.02066666666667,164.13658991587081L109.04,164.292008530988L109.475,164.13900415065166L109.57166666666667,164.0988712272773L109.881,164.23799804319194L109.92933333333333,164.0638877295523L109.99700000000001,163.46137840515004L110.38366666666667,163.7568109676242L110.42233333333333,164.12899813081106L111.04100000000001,164.199552362122L111.244,164.33104412168956L111.505,163.6805054002641L111.74666666666667,162.7328942119277L112.317,149.64336322428923L112.35566666666668,132.86763600983792L112.65533333333333,164.1813054396405L113.23533333333334,164.16566729789568L113.622,164.2544606434772L113.999,164.26847521892506L114.11500000000001,162.42899931951294L114.13433333333333,155.9722179147282L114.202,163.83213471603315L114.347,164.28520744266862L114.52099999999999,158.9434688021562L114.65633333333332,160.76108196989765L114.782,163.28138175535548L114.83033333333334,152.70998994867716L114.92699999999999,163.62776311097798L115.59400000000001,164.33938744587692L116.38666666666666,163.11973306384337L116.47366666666667,164.00168328256947L116.56066666666666,164.2901860483976L116.65733333333333,164.26654817318152L116.91833333333334,141.63292016536L117.67233333333333,164.23644514167515L117.682,153.8651672328157L117.87533333333333,150.89153405928187L117.99133333333333,151.29706883877517L118.06866666666667,135.97305204250983L118.46499999999999,63.62511353663035L118.47466666666668,161.0755850280236L118.64866666666667,155.3657072825091L119.04499999999999,163.37016433521308L119.15133333333333,154.56960477355335L119.277,157.6439974371876L119.40266666666668,160.94218785659012L119.567,163.63590572811663L119.828,149.55417337417603L119.92466666666665,164.3252820258033L120.05033333333333,164.33827784812004L120.35,164.3400055342964L120.35966666666666,164.33998748869908L120.36933333333333,164.3399697709948L120.466,164.33969514378248L120.59166666666667,164.34064711107305L120.64966666666666,164.34021343497736L120.785,164.33731048354255L121.46166666666667,164.29995915938343L121.72266666666667,152.264813494363L122.02233333333334,161.0685123147443L122.18666666666667,163.0128797407395L122.699,163.1277022991396L122.86333333333334,162.36771392439093L122.931,161.82852095881742L123.453,162.8327984721666L123.55933333333333,164.22982130162833L124.15866666666666,161.1601507595341L124.18766666666667,160.8278773058472L124.19733333333333,138.02365303252424L124.671,164.207619016388L125.15433333333333,162.9516751215128L125.21233333333333,163.71202299420588L125.22200000000001,164.09564680348515L125.28,164.23555441223934L125.69566666666667,164.15987556448007L125.86,164.24690027021904L126.27566666666667,162.78621353648072L126.39166666666667,163.71044326785818L126.61399999999999,163.80752749239826L126.788,163.8929234750303L126.97166666666668,164.05012171234702L127.06833333333333,164.26647424006703L127.08766666666666,164.26070688258622L127.68700000000001,160.37590633284833L127.78366666666666,163.85342319570148L127.85133333333334,163.50428472217172L128.05433333333332,162.24901163644557L128.30566666666667,-196.67502095699308L128.992,164.14968815679063L129.52366666666666,163.79888352971923L130.28733333333332,163.97031623922356L130.732,163.98406129011084L130.74166666666665,163.91925506058283L130.79,163.85621410837464L130.86733333333333,162.31717051773197L131.04133333333334,162.1239646731876L131.428,163.17901360425833L131.66,162.76908482704312L131.718,164.17240353285368L131.72766666666666,163.0811096023369L132.05633333333333,104.62834684848785L132.16266666666667,163.13497310927403L132.53,155.6032908915409L132.56866666666667,147.30965357178025L132.62666666666667,163.92505039199187L132.704,164.22527305170993L133.70933333333335,163.70020160770176L133.719,164.30047490160712L134.328,164.0630232503987L134.42466666666667,163.6002553771516L134.473,164.26171640231954L134.80166666666668,163.1090007202633L134.85,162.00461436966432L134.97566666666665,163.98269650148825L134.995,163.82568319350082L135.604,160.96047907583417L136.02933333333334,-2743.8062591280254L136.10666666666665,163.68799246676L136.42566666666667,-737.6981368405478L137.24733333333333,164.14971769424486L137.63400000000001,164.22548651067856L137.82733333333334,164.25823470315663L137.91433333333333,164.23298611363862L138.11733333333333,163.86659181412708L138.417,162.5433552313463L138.43633333333332,164.15983169156493L138.475,155.19406453307187L138.678,161.84856377923862L138.707,91.47853745179518L138.74566666666666,-69.0919296809605L138.90033333333332,164.1609880602935L138.98733333333334,163.99078912347156L139.04533333333333,163.90488863057192L139.751,164.0755160300194L139.91533333333334,164.27451764865793L140.447,162.49573663546306L140.92066666666668,161.646397838369L141.491,163.0096667890836L141.87766666666667,163.96717890194353L141.91633333333334,164.31260292522097L142.216,163.5302035368713L142.45766666666668,159.8978830238006L142.80566666666667,163.96047299562156L143.10533333333333,159.34057696791632L143.12466666666666,160.67093124831362L143.24066666666667,163.04812651363068L143.608,163.56151625239957L143.724,159.84193667423511L143.99466666666666,164.20604095717343L144.03333333333333,162.9734855174486L144.05266666666668,162.62780175813074L144.25566666666666,163.43090637680808L144.26533333333333,161.98167944064897L144.41033333333334,164.11246943858816L144.52633333333333,163.07057633517044L144.78733333333335,163.71556017970266L144.80666666666667,164.0656317956646L144.826,164.3003794134977L145.54133333333334,163.4533241743222L145.99566666666666,164.17257557722206L146.45,164.09678162192824L147.03,164.20516007983494L147.74533333333332,118.8027852152075L147.83233333333334,162.49814604780238L148.48,163.1711751023374L148.89566666666664,164.33039977827846L148.9343333333333,164.25739657789237L149.09866666666667,163.5435023235423L149.31133333333335,163.88446886853114L149.58200000000002,163.63131559265642L149.62066666666666,164.22570587525428L149.8236666666667,155.8373022770243L149.94933333333333,161.66940932364335L150.08466666666666,160.3526944148487L150.20066666666668,161.4269179761676L150.21033333333335,162.37334412485362L150.31666666666666,160.92537230444808L150.74200000000002,163.72306393636723L151.67000000000002,158.08940295747348L152.047,161.02546418780196L152.26933333333335,162.203009010572L152.37566666666666,163.7783203377189L152.79133333333334,162.69441037517308L153.22633333333332,163.62419186698804L153.60333333333332,156.7352529422513L153.89333333333332,162.5320759927588L154.251,164.26959303166868L154.89866666666668,164.2691494282722L154.99533333333332,164.26468784101849L155.16933333333333,163.3715738444456L155.24666666666667,163.58293505101463L155.53666666666666,163.81749416036266L155.875,162.2431232846608L156.05866666666668,163.38659725676158L156.078,163.8813727857312L156.107,164.23969346104172L156.23266666666666,164.32115523796426L156.774,164.23445656270817L156.96733333333333,164.29332001373612L157.60533333333333,160.15609161236455L157.88566666666665,164.06669883619927L158.0596666666667,163.9127889953753L158.456,164.26075417453706L158.70733333333334,164.19552730001325L159.239,163.35077209229183L159.326,161.58044251144997L159.57733333333334,164.16654939026338L159.964,164.27045072926393L160.50533333333334,164.18044037651936L160.61166666666665,164.3058508831097L160.747,43.376096366984505L160.87266666666665,154.8714685138847L161.04666666666668,163.55030143861657L161.23033333333336,162.54797181488414L161.33666666666667,163.7201132049684L161.39466666666667,164.03962702471264L161.51066666666665,163.93041776939228L161.675,163.84891888463005L162.01333333333332,164.2819949713731L162.081,164.262234861876L162.893,150.13838684526937L162.94133333333332,161.5492678383099L163.00900000000001,130.22781223761183L163.067,162.50018006321042L163.37633333333335,163.14272548540362L163.386,163.93217257297198L163.43433333333334,164.30912883176413L163.56966666666668,162.9909192463117L163.64700000000002,164.26231982915112L163.65666666666667,164.31881688599594L164.29466666666667,160.89301311911217L164.314,163.08791489616436L164.691,164.22802805979902L165.097,161.4992265683732L165.54166666666666,162.37828140075183L165.75433333333334,162.5306646751107L166.721,164.04807204284174L166.866,160.636611740504L167.03033333333332,164.14646297949201L167.1076666666667,164.31707775299645L167.43633333333335,163.8108200520144L167.74566666666666,148.20958867168852L167.87133333333333,163.34633228137557L167.91,164.22444412864363L168.20966666666666,160.88559740968049L168.42233333333334,132.63136531050716L168.46099999999998,147.93597780774746L168.606,-1321.857451915741L169.36966666666666,158.01140237727336L169.81433333333334,164.28748290510183L169.824,164.3064035989548L169.86266666666666,162.80050047155734L170.13333333333333,164.27546045481077L170.2493333333333,164.18673356850132L170.346,162.4241728090681L170.38466666666667,163.3906003353186L170.51999999999998,158.66324456248964L170.66500000000002,152.62326557178582L170.88733333333334,164.24948945036823L170.97433333333333,163.5286488269389L171.10966666666667,164.27931797946178L172.26,164.27443213980004L172.41466666666668,162.22883122574007L172.54999999999998,164.29238816639324L172.68533333333335,151.06682860255242L172.77233333333334,163.03377326998327L173.05266666666668,164.26104969978084L173.23633333333333,164.2672949970068L173.391,164.2272572697581L173.44899999999998,164.29254351588358L173.594,164.28221659175887L173.652,155.26104824564288L173.92266666666666,164.05583939491274L173.942,164.31701831546295L175.08266666666668,163.36804200884487L175.305,164.0384367858675L175.35333333333335,163.83871832825244L175.64333333333335,163.8377062936912L176.06866666666664,140.97636886600938L176.16533333333334,164.28794266179364L176.4263333333333,164.17627523755488L176.53266666666667,164.12149427995817L176.85166666666666,164.10783503462196L176.929,164.29895538513708L177.11266666666668,164.27822285668228L177.219,164.26677490328314L177.625,164.21774279045474L178.089,163.74942664173764L178.09866666666667,163.43867864550887L178.97833333333332,164.22211467276128L179.162,163.79275183301485L179.25866666666667,164.07588980691173L179.58733333333333,164.2019618780685L179.86766666666665,164.10126144403893L179.98366666666666,163.6839166748271L180.061,164.3176927720544L180.641,164.08359135902884L180.65066666666667,162.81536218138146L181.13400000000001,163.99743550278114L181.163,164.11700031076325L181.18233333333333,163.50997083281567L181.24033333333333,163.70091510299326L181.87833333333333,163.60298608465652L182.19733333333332,163.83371508286135L182.642,162.31537114424364L182.82566666666665,163.21418570465673L182.85466666666665,161.92121808021994L182.98033333333333,158.54366127476098L183.56033333333335,164.26762067192882L184.208,164.2615671609412L184.68166666666667,164.23244279778694L184.701,164.11925035648082L184.79766666666666,164.1404031673064L185.136,164.21634792750453L185.223,163.48853259373323L185.919,164.03913055812674L185.95766666666665,142.1967238583735L186.51833333333335,159.29144683802235L186.91466666666665,164.2447486230297L187.20466666666667,163.6044629573689L187.224,164.17219571576487L187.35933333333332,164.32471584927126L187.38833333333332,163.82416551841223L187.62033333333335,163.7566906703137L188.007,163.75795844497625L188.04566666666665,164.19336186365524L188.53866666666667,164.14389924902437L188.67399999999998,163.1389296964809L189.04133333333334,163.1368098566841L189.07033333333334,162.05826734688932L189.254,161.964694048145L189.67933333333335,163.15528380125096L189.73733333333334,156.0868805037013L189.74699999999999,163.8753539266231L189.90166666666667,160.68343794896666L190.01766666666666,141.9850476107427L190.73299999999998,158.18632679815803L190.75233333333335,158.92541659516948L190.936,164.2269532769852L191.06166666666667,163.567592076598L191.15833333333333,163.5413838400572L191.23566666666667,163.44921718722074L192.328,162.69910547408674L192.60833333333335,164.2766294777389L192.68566666666666,164.24810686957375L193.49766666666667,163.92266411230167L193.56533333333334,163.3312714951379L193.96166666666664,163.245637366781L194.48366666666666,164.08098562057464L194.62866666666667,160.83791943748614L194.63833333333335,163.7165268154981L194.78333333333333,164.0890354999025L195.00566666666666,164.2925953806769L195.17000000000002,164.2556859203739L195.257,164.21880473540182L195.58566666666667,164.2859658563655L195.87566666666666,164.3164003671486L195.94333333333333,164.31224151289913L196.388,163.12859128609168L196.86166666666665,164.31072712027319L196.95833333333334,164.21206670144704L197.026,164.3124620713117L197.03566666666666,164.17612280319278L197.07433333333333,163.12269313872258L197.4513333333333,164.16976450825044L197.55766666666668,164.0701691668331L197.72199999999998,158.30204972145813L197.83800000000002,-2763.496017755781L198.23433333333332,164.3334463957323L198.26333333333332,164.32812312318575L198.52433333333332,164.1247042929388L198.59199999999998,164.04560170950302L198.80466666666666,164.27237550035977L198.95933333333335,164.32152323875843L199.03666666666666,164.33210838249173L199.2396666666667,154.78395868183247L199.35566666666668,164.2764793745375L199.433,163.95259700675294L199.47166666666666,163.55120285842568L199.5103333333333,163.5754545400252L200.187,164.3326175409525L200.85399999999998,154.36783080675772L201.39533333333333,159.93654694860535L201.521,164.2984948137164L202.09133333333332,164.23432282472578L202.101,163.55344951336406L202.217,164.04520366970183L202.333,163.56994633226256L202.478,164.33148991025487L202.57466666666667,164.32720828271974L202.70999999999998,164.3124079153877L202.83566666666667,164.33675475367153L202.92266666666666,164.28285355433846L203.232,163.43451665243398L203.85066666666665,164.00711425591726L204.14066666666665,158.9282594244395L204.189,156.9790044539741L204.1986666666667,-101.41006157227925L204.31466666666668,163.56995997072997L204.421,163.99463569873146L205.51333333333332,164.32295810466155L205.523,164.29936324877906L205.581,164.28379450027217L205.60999999999999,164.2441468915877L205.726,164.31598056042878L205.87099999999998,164.3214058966062L206.61533333333335,163.09965776729265L206.86666666666667,164.1904721662818L206.92466666666667,160.5784543015063L206.93433333333334,160.13442076582993L207.51433333333333,164.32833504806229L207.76566666666668,161.97152925617993L208.20066666666665,164.33015222314134L208.22966666666665,164.2731134092614L208.44233333333332,162.96791906363464L208.80966666666666,164.15377911304157L208.90633333333335,163.84960574346727L208.94500000000002,163.32062429779077L208.95466666666667,163.67730043577697L209.873,163.02850776665977L209.89233333333334,164.02326736283223L209.94066666666666,163.95437746722848L210.54,162.4503149630901L210.93633333333335,164.01535347258738L211.41966666666667,163.8315243004289L211.49699999999999,163.6453316421514L211.642,164.27564422562386L211.73866666666666,164.23474490138386L211.77733333333333,162.1352176897494L211.91266666666667,163.36160977607858L212.34766666666667,164.118145018979L212.4346666666667,163.95888645004015L212.66666666666666,164.31864886582315L212.69566666666668,163.05305278833424L213.13066666666666,163.95824223967003L213.81699999999998,163.07856674399892L213.97166666666666,163.24990063112762L214.17466666666667,163.4805771476057L214.24233333333333,163.75742993552703L214.629,164.26861746682135L215.22833333333332,164.25510639853562L215.24766666666665,151.04370620112334L215.98233333333334,163.4189508661495L216.17566666666664,163.33278468686288L216.50433333333334,164.15325544487152L216.659,164.03936124413738L216.76533333333333,163.84472614849054L217.19066666666666,164.23955640763077L217.33566666666664,164.3344105785109L217.34533333333331,163.86928974409986L217.38400000000001,164.30730454782233L217.50966666666667,163.09599806164127L217.65466666666669,164.01359151069607L218.24433333333334,164.2570313721363L218.602,164.24246124106574L218.81466666666665,164.22205852710925L220.52566666666667,164.2440800178871L220.72866666666667,137.04719301951783L221.01866666666666,157.70343101476985L221.328,107.23641966581344L221.415,164.25695176417605L221.59866666666667,157.40577184062982L221.77266666666668,158.6376132858651L222.198,163.76003499582544L222.285,163.93228119093195L222.47833333333332,164.24254458830194L222.691,164.27839465616105L222.91333333333336,164.1485989820029L223.07766666666666,164.0694696490869L223.10666666666665,156.90921588885996L223.13566666666665,160.43558706055794L223.49333333333334,164.10615409351553L223.76399999999998,164.22965617068195L223.938,164.29735732503468L223.95733333333334,164.28290476923243L224.75966666666667,164.28444815772986L224.86599999999999,164.29222757061405L225.127,164.31993985084014L225.37833333333333,159.22119260589992L225.62,163.25639683659455L225.649,155.61214368854252L226.67366666666666,164.22371399969646L226.71233333333336,163.40304675545278L226.85733333333334,164.09702044580897L226.87666666666667,164.1910329163898L226.92499999999998,164.23808085355475L226.98299999999998,163.77741123214363L227.10866666666666,164.12920056032848L227.186,164.27431765861778L227.534,164.31925561279266L227.68866666666668,164.32547423353432L228.38466666666665,163.02308357487033L228.433,159.58919040488877L228.64566666666667,110.47702802377088L228.665,163.9962795108058L228.781,163.98001454585298L228.85833333333335,161.56156506415988L228.91633333333334,157.71761140402938L229.16766666666666,164.10251437462367L229.20633333333333,163.70369192509514L229.43833333333333,164.16770547642705L229.54466666666667,164.25201533597263L229.767,163.69886812727367L229.88299999999998,164.32178000786703L230.19233333333332,164.2777206399L230.83033333333336,164.3080902337446L230.956,164.32996177319967L231.23633333333333,164.20443032764098L231.34266666666664,164.32422221657615L231.681,162.96394130289556L231.78733333333335,161.95167209975688L232.81199999999998,162.63105720755246L232.8313333333333,163.6658187299967L232.91833333333335,164.2635024669996L232.957,164.09582461217818L232.96666666666667,164.2497729666024L233.03433333333334,164.10777362384334L233.18900000000002,164.26032593796347L233.23733333333334,163.4954634970919L233.682,163.84344202273726L233.72066666666666,163.73538188364557L233.74,162.18080377723757L234.11700000000002,163.87488984197844L234.14600000000002,163.88698851886937L234.28133333333332,162.43952942195213L235.03533333333334,151.97622894953403L235.10299999999998,157.8581271019365L235.35433333333333,164.1826168800039L237.46166666666664,163.70426338441405L237.69366666666667,163.26902085820745L237.945,161.8866967833734L237.95466666666667,164.0177577987579L238.16733333333335,163.78352405351055L238.264,163.0650924656673L238.4186666666667,163.76910099748721L238.641,164.27024721658088L239.06633333333335,164.312008469826L239.49166666666665,164.21422605324022L239.58833333333334,162.2373568502255L239.6076666666667,164.17741433214726L239.67533333333333,163.90720920449655L239.8203333333333,162.6356891626226L240.5066666666667,163.77333076847052L240.526,163.08937180095484L240.88366666666667,163.66818059607675L241.34766666666667,163.6838918844637L241.55066666666667,164.08872381194462L241.8213333333333,164.31567748599193L241.89866666666666,164.2283444100783L241.99533333333335,164.0805812889943L242.33366666666666,164.0137297414609L242.69133333333332,164.20716392672705L243.08766666666668,163.63971093587045L243.223,162.69258432755512L243.63866666666667,164.1127353698647L243.92866666666666,164.2827634161251L244.16066666666666,164.0795006288299L244.39266666666666,164.24534382722175L244.40233333333333,164.1324297312115L245.43666666666667,163.2967394231486L245.75566666666668,164.31174398904943L246.01666666666668,160.25989587147322L246.35500000000002,164.24190699937006L246.413,163.67128828287656L246.45166666666665,164.1541303412523L247.03166666666667,164.29706902403433L247.07999999999998,164.33122253554248L247.20566666666667,164.01504299023986L247.428,163.06073945869824L247.544,163.89429071254895L248.27866666666665,163.1600996119037L248.66533333333334,161.02438998895562L249.052,163.812505721374L249.081,163.92800722679323L249.4,164.25481095806128L249.61266666666668,163.98935083029127L249.70933333333332,164.1917327167009L250.01866666666666,164.3111790357881L250.17333333333335,163.74447079190452L250.44400000000002,164.26034628263858L250.45366666666666,164.16655956260095L251.35266666666666,163.67573743727323L251.72,164.2135954059868L252.21300000000002,160.5313715994358L252.23233333333334,152.9813475268228L252.58033333333333,145.4782192866717L252.75433333333334,164.30148620149953L252.78333333333333,164.22035241888622L253.46,164.23790004967347L253.91433333333336,157.79513938496154L254.21400000000003,163.87799455242765L254.417,164.31812920772043L254.91966666666667,153.64311309105585L255.47066666666666,164.32515985296808L255.722,163.95317528530558L256.4373333333333,164.23052481295892L256.5436666666667,163.88418042624835L256.5726666666667,164.01053528838926L256.86266666666666,159.76420554795436L256.92066666666665,158.37859754115343L257.35566666666665,163.5394803319725L258.3126666666667,163.6151789498582L258.90233333333333,156.51440561647925L259.1343333333333,160.29392362157148L259.19233333333335,164.0076718130415L259.3953333333333,164.14166191872874L259.62733333333335,164.04081472047338L259.84000000000003,164.28059564860635L259.96566666666666,164.3272137680115L260.391,154.3259587527386L260.7196666666667,-4490.806913866316L260.7583333333333,162.69666275676073L260.92266666666666,77.64568708453861L260.942,45.16582014986447L262.044,164.31883334304854L262.2373333333333,163.7209590913495L262.334,164.21871276993522L262.5756666666667,164.09680707160985L262.99133333333333,164.21863047760812L263.12666666666667,164.17040269056866L263.262,164.2695820398928L263.5133333333333,164.32691775887525L263.60033333333337,162.1335539474285L264.05466666666666,163.73283013393103L264.0933333333333,164.3113108593931L264.19,164.31910295237864L264.29633333333334,164.32606500498898L264.335,163.6733928264917L264.364,164.1041635554317L264.4413333333334,164.2089847751502L264.64433333333335,164.02960595357996L264.712,164.30507322438623L264.915,163.03025665521355L265.25333333333333,163.68881612469974L265.44666666666666,164.20516236861087L265.466,163.53459376706076L265.63033333333334,164.2033218254119L265.7656666666667,158.54718527389426L265.8333333333333,164.19242512322964" fill="none"></path></g></g></g></g></g></g><g transform="translate(40, 176)" clip-path="url(#clip_1)"><clipPath id="clip_1"><rect width="290" height="23"></rect></clipPath><g><g><line x1="0" y1="0" x2="0" y2="5" style="visibility: inherit;" fill="rgb(0, 0, 0)" stroke="rgb(204, 204, 204)" stroke-width="1.333333px"></line><line x1="24.166666666666664" y1="0" x2="24.166666666666664" y2="5" style="visibility: inherit;" fill="rgb(0, 0, 0)" stroke="rgb(204, 204, 204)" stroke-width="1.333333px"></line><line x1="48.33333333333333" y1="0" x2="48.33333333333333" y2="5" style="visibility: inherit;" fill="rgb(0, 0, 0)" stroke="rgb(204, 204, 204)" stroke-width="1.333333px"></line><line x1="72.5" y1="0" x2="72.5" y2="5" style="visibility: inherit;" fill="rgb(0, 0, 0)" stroke="rgb(204, 204, 204)" stroke-width="1.333333px"></line><line x1="96.66666666666666" y1="0" x2="96.66666666666666" y2="5" style="visibility: inherit;" fill="rgb(0, 0, 0)" stroke="rgb(204, 204, 204)" stroke-width="1.333333px"></line><line x1="120.83333333333334" y1="0" x2="120.83333333333334" y2="5" style="visibility: inherit;" fill="rgb(0, 0, 0)" stroke="rgb(204, 204, 204)" stroke-width="1.333333px"></line><line x1="145" y1="0" x2="145" y2="5" style="visibility: inherit;" fill="rgb(0, 0, 0)" stroke="rgb(204, 204, 204)" stroke-width="1.333333px"></line><line x1="169.16666666666669" y1="0" x2="169.16666666666669" y2="5" style="visibility: inherit;" fill="rgb(0, 0, 0)" stroke="rgb(204, 204, 204)" stroke-width="1.333333px"></line><line x1="193.33333333333331" y1="0" x2="193.33333333333331" y2="5" style="visibility: inherit;" fill="rgb(0, 0, 0)" stroke="rgb(204, 204, 204)" stroke-width="1.333333px"></line><line x1="217.5" y1="0" x2="217.5" y2="5" style="visibility: inherit;" fill="rgb(0, 0, 0)" stroke="rgb(204, 204, 204)" stroke-width="1.333333px"></line><line x1="241.66666666666669" y1="0" x2="241.66666666666669" y2="5" style="visibility: inherit;" fill="rgb(0, 0, 0)" stroke="rgb(204, 204, 204)" stroke-width="1.333333px"></line><line x1="265.8333333333333" y1="0" x2="265.8333333333333" y2="5" style="visibility: inherit;" fill="rgb(0, 0, 0)" stroke="rgb(204, 204, 204)" stroke-width="1.333333px"></line><line x1="290" y1="0" x2="290" y2="5" style="visibility: inherit;" fill="rgb(0, 0, 0)" stroke="rgb(204, 204, 204)" stroke-width="1.333333px"></line></g><g transform="translate(0, 8)"><text style="text-anchor: middle; visibility: hidden; font-family: Roboto, sans-serif; font-size: 16px; font-weight: 200;" x="0" y="0" dx="0em" dy="0.95em" fill="rgb(33, 33, 33)" stroke="none" stroke-width="1.333333px">-10k</text><text style="text-anchor: middle; visibility: inherit; font-family: Roboto, sans-serif; font-size: 16px; font-weight: 200;" x="24.166666666666664" y="0" dx="0em" dy="0.95em" fill="rgb(33, 33, 33)" stroke="none" stroke-width="1.333333px">0</text><text style="text-anchor: middle; visibility: hidden; font-family: Roboto, sans-serif; font-size: 16px; font-weight: 200;" x="48.33333333333333" y="0" dx="0em" dy="0.95em" fill="rgb(33, 33, 33)" stroke="none" stroke-width="1.333333px">10k</text><text style="text-anchor: middle; visibility: inherit; font-family: Roboto, sans-serif; font-size: 16px; font-weight: 200;" x="72.5" y="0" dx="0em" dy="0.95em" fill="rgb(33, 33, 33)" stroke="none" stroke-width="1.333333px">20k</text><text style="text-anchor: middle; visibility: hidden; font-family: Roboto, sans-serif; font-size: 16px; font-weight: 200;" x="96.66666666666666" y="0" dx="0em" dy="0.95em" fill="rgb(33, 33, 33)" stroke="none" stroke-width="1.333333px">30k</text><text style="text-anchor: middle; visibility: inherit; font-family: Roboto, sans-serif; font-size: 16px; font-weight: 200;" x="120.83333333333334" y="0" dx="0em" dy="0.95em" fill="rgb(33, 33, 33)" stroke="none" stroke-width="1.333333px">40k</text><text style="text-anchor: middle; visibility: hidden; font-family: Roboto, sans-serif; font-size: 16px; font-weight: 200;" x="145" y="0" dx="0em" dy="0.95em" fill="rgb(33, 33, 33)" stroke="none" stroke-width="1.333333px">50k</text><text style="text-anchor: middle; visibility: inherit; font-family: Roboto, sans-serif; font-size: 16px; font-weight: 200;" x="169.16666666666669" y="0" dx="0em" dy="0.95em" fill="rgb(33, 33, 33)" stroke="none" stroke-width="1.333333px">60k</text><text style="text-anchor: middle; visibility: hidden; font-family: Roboto, sans-serif; font-size: 16px; font-weight: 200;" x="193.33333333333331" y="0" dx="0em" dy="0.95em" fill="rgb(33, 33, 33)" stroke="none" stroke-width="1.333333px">70k</text><text style="text-anchor: middle; visibility: inherit; font-family: Roboto, sans-serif; font-size: 16px; font-weight: 200;" x="217.5" y="0" dx="0em" dy="0.95em" fill="rgb(33, 33, 33)" stroke="none" stroke-width="1.333333px">80k</text><text style="text-anchor: middle; visibility: hidden; font-family: Roboto, sans-serif; font-size: 16px; font-weight: 200;" x="241.66666666666669" y="0" dx="0em" dy="0.95em" fill="rgb(33, 33, 33)" stroke="none" stroke-width="1.333333px">90k</text><text style="text-anchor: middle; visibility: inherit; font-family: Roboto, sans-serif; font-size: 16px; font-weight: 200;" x="265.8333333333333" y="0" dx="0em" dy="0.95em" fill="rgb(33, 33, 33)" stroke="none" stroke-width="1.333333px">100k</text><text style="text-anchor: middle; visibility: hidden; font-family: Roboto, sans-serif; font-size: 16px; font-weight: 200;" x="290" y="0" dx="0em" dy="0.95em" fill="rgb(33, 33, 33)" stroke="none" stroke-width="1.333333px">110k</text></g><line x1="0" y1="0" x2="290" y2="0" fill="rgb(0, 0, 0)" stroke="rgb(204, 204, 204)" stroke-width="1.333333px"></line></g></g></g></g></svg>