<svg viewBox="0 0 330 200" xmlns="http://www.w3.org/2000/svg"><g><g><g><g><g><line x1="70" y1="176.984375" x2="65" y2="176.984375" style="visibility: inherit;" fill="rgb(0, 0, 0)" stroke="rgb(204, 204, 204)" stroke-width="1.333333px"></line><line x1="70" y1="160.89488636363635" x2="65" y2="160.89488636363635" style="visibility: inherit;" fill="rgb(0, 0, 0)" stroke="rgb(204, 204, 204)" stroke-width="1.333333px"></line><line x1="70" y1="144.80539772727272" x2="65" y2="144.80539772727272" style="visibility: inherit;" fill="rgb(0, 0, 0)" stroke="rgb(204, 204, 204)" stroke-width="1.333333px"></line><line x1="70" y1="128.7159090909091" x2="65" y2="128.7159090909091" style="visibility: inherit;" fill="rgb(0, 0, 0)" stroke="rgb(204, 204, 204)" stroke-width="1.333333px"></line><line x1="70" y1="112.62642045454544" x2="65" y2="112.62642045454544" style="visibility: inherit;" fill="rgb(0, 0, 0)" stroke="rgb(204, 204, 204)" stroke-width="1.333333px"></line><line x1="70" y1="96.53693181818181" x2="65" y2="96.53693181818181" style="visibility: inherit;" fill="rgb(0, 0, 0)" stroke="rgb(204, 204, 204)" stroke-width="1.333333px"></line><line x1="70" y1="80.44744318181817" x2="65" y2="80.44744318181817" style="visibility: inherit;" fill="rgb(0, 0, 0)" stroke="rgb(204, 204, 204)" stroke-width="1.333333px"></line><line x1="70" y1="64.35795454545453" x2="65" y2="64.35795454545453" style="visibility: inherit;" fill="rgb(0, 0, 0)" stroke="rgb(204, 204, 204)" stroke-width="1.333333px"></line><line x1="70" y1="48.26846590909091" x2="65" y2="48.26846590909091" style="visibility: inherit;" fill="rgb(0, 0, 0)" stroke="rgb(204, 204, 204)" stroke-width="1.333333px"></line><line x1="70" y1="32.178977272727266" x2="65" y2="32.178977272727266" style="visibility: inherit;" fill="rgb(0, 0, 0)" stroke="rgb(204, 204, 204)" stroke-width="1.333333px"></line><line x1="70" y1="16.089488636363622" x2="65" y2="16.089488636363622" style="visibility: inherit;" fill="rgb(0, 0, 0)" stroke="rgb(204, 204, 204)" stroke-width="1.333333px"></line><line x1="70" y1="0" x2="65" y2="0" style="visibility: inherit;" fill="rgb(0, 0, 0)" stroke="rgb(204, 204, 204)" stroke-width="1.333333px"></line></g><g transform="translate(60, 0)"><text style="text-anchor: end; visibility: hidden; font-family: Roboto, sans-serif; font-size: 16px; font-weight: 200;" x="0" y="176.984375" dx="0em" dy="0.3em" fill="rgb(33, 33, 33)" stroke="none" stroke-width="1.333333px">-0.05</text><text style="text-anchor: end; visibility: inherit; font-family: Roboto, sans-serif; font-size: 16px; font-weight: 200;" x="0" y="160.89488636363635" dx="0em" dy="0.3em" fill="rgb(33, 33, 33)" stroke="none" stroke-width="1.333333px">-0.045</text><text style="text-anchor: end; visibility: hidden; font-family: Roboto, sans-serif; font-size: 16px; font-weight: 200;" x="0" y="144.80539772727272" dx="0em" dy="0.3em" fill="rgb(33, 33, 33)" stroke="none" stroke-width="1.333333px">-0.04</text><text style="text-anchor: end; visibility: inherit; font-family: Roboto, sans-serif; font-size: 16px; font-weight: 200;" x="0" y="128.7159090909091" dx="0em" dy="0.3em" fill="rgb(33, 33, 33)" stroke="none" stroke-width="1.333333px">-0.035</text><text style="text-anchor: end; visibility: hidden; font-family: Roboto, sans-serif; font-size: 16px; font-weight: 200;" x="0" y="112.62642045454544" dx="0em" dy="0.3em" fill="rgb(33, 33, 33)" stroke="none" stroke-width="1.333333px">-0.03</text><text style="text-anchor: end; visibility: inherit; font-family: Roboto, sans-serif; font-size: 16px; font-weight: 200;" x="0" y="96.53693181818181" dx="0em" dy="0.3em" fill="rgb(33, 33, 33)" stroke="none" stroke-width="1.333333px">-0.025</text><text style="text-anchor: end; visibility: hidden; font-family: Roboto, sans-serif; font-size: 16px; font-weight: 200;" x="0" y="80.44744318181817" dx="0em" dy="0.3em" fill="rgb(33, 33, 33)" stroke="none" stroke-width="1.333333px">-0.02</text><text style="text-anchor: end; visibility: inherit; font-family: Roboto, sans-serif; font-size: 16px; font-weight: 200;" x="0" y="64.35795454545453" dx="0em" dy="0.3em" fill="rgb(33, 33, 33)" stroke="none" stroke-width="1.333333px">-0.015</text><text style="text-anchor: end; visibility: hidden; font-family: Roboto, sans-serif; font-size: 16px; font-weight: 200;" x="0" y="48.26846590909091" dx="0em" dy="0.3em" fill="rgb(33, 33, 33)" stroke="none" stroke-width="1.333333px">-0.01</text><text style="text-anchor: end; visibility: inherit; font-family: Roboto, sans-serif; font-size: 16px; font-weight: 200;" x="0" y="32.178977272727266" dx="0em" dy="0.3em" fill="rgb(33, 33, 33)" stroke="none" stroke-width="1.333333px">-5e-3</text><text style="text-anchor: end; visibility: hidden; font-family: Roboto, sans-serif; font-size: 16px; font-weight: 200;" x="0" y="16.089488636363622" dx="0em" dy="0.3em" fill="rgb(33, 33, 33)" stroke="none" stroke-width="1.333333px">0</text><text style="text-anchor: end; visibility: hidden; font-family: Roboto, sans-serif; font-size: 16px; font-weight: 200;" x="0" y="0" dx="0em" dy="0.3em" fill="rgb(33, 33, 33)" stroke="none" stroke-width="1.333333px">5e-3</text></g><line x1="70" y1="0" x2="70" y2="176.984375" fill="rgb(0, 0, 0)" stroke="rgb(204, 204, 204)" stroke-width="1.333333px"></line></g></g><g transform="translate(70, 0)" clip-path="url(#clip_0)"><clipPath id="clip_0"><rect width="260" height="176"></rect></clipPath><g><g><g><line x1="0" y1="0" x2="0" y2="176.984375" fill="rgb(0, 0, 0)" stroke="rgb(66, 66, 66)" stroke-width="1.333333px" opacity="0.25"></line><line x1="21.666666666666664" y1="0" x2="21.666666666666664" y2="176.984375" fill="rgb(0, 0, 0)" stroke="rgb(66, 66, 66)" stroke-width="1.333333px" opacity="0.25"></line><line x1="43.33333333333333" y1="0" x2="43.33333333333333" y2="176.984375" fill="rgb(0, 0, 0)" stroke="rgb(66, 66, 66)" stroke-width="1.333333px" opacity="0.25"></line><line x1="65" y1="0" x2="65" y2="176.984375" fill="rgb(0, 0, 0)" stroke="rgb(66, 66, 66)" stroke-width="1.333333px" opacity="0.25"></line><line x1="86.66666666666666" y1="0" x2="86.66666666666666" y2="176.984375" fill="rgb(0, 0, 0)" stroke="rgb(66, 66, 66)" stroke-width="1.333333px" opacity="0.25"></line><line x1="108.33333333333334" y1="0" x2="108.33333333333334" y2="176.984375" fill="rgb(0, 0, 0)" stroke="rgb(66, 66, 66)" stroke-width="1.333333px" opacity="0.25"></line><line x1="130" y1="0" x2="130" y2="176.984375" fill="rgb(0, 0, 0)" stroke="rgb(66, 66, 66)" stroke-width="1.333333px" opacity="0.25"></line><line x1="151.66666666666669" y1="0" x2="151.66666666666669" y2="176.984375" fill="rgb(0, 0, 0)" stroke="rgb(66, 66, 66)" stroke-width="1.333333px" opacity="0.25"></line><line x1="173.33333333333331" y1="0" x2="173.33333333333331" y2="176.984375" fill="rgb(0, 0, 0)" stroke="rgb(66, 66, 66)" stroke-width="1.333333px" opacity="0.25"></line><line x1="195" y1="0" x2="195" y2="176.984375" fill="rgb(0, 0, 0)" stroke="rgb(66, 66, 66)" stroke-width="1.333333px" opacity="0.25"></line><line x1="216.66666666666669" y1="0" x2="216.66666666666669" y2="176.984375" fill="rgb(0, 0, 0)" stroke="rgb(66, 66, 66)" stroke-width="1.333333px" opacity="0.25"></line><line x1="238.33333333333331" y1="0" x2="238.33333333333331" y2="176.984375" fill="rgb(0, 0, 0)" stroke="rgb(66, 66, 66)" stroke-width="1.333333px" opacity="0.25"></line><line x1="260" y1="0" x2="260" y2="176.984375" fill="rgb(0, 0, 0)" stroke="rgb(66, 66, 66)" stroke-width="1.333333px" opacity="0.25"></line></g><g><line x1="0" y1="176.984375" x2="260" y2="176.984375" fill="rgb(0, 0, 0)" stroke="rgb(66, 66, 66)" stroke-width="1.333333px" opacity="0.25"></line><line x1="0" y1="160.89488636363635" x2="260" y2="160.89488636363635" fill="rgb(0, 0, 0)" stroke="rgb(66, 66, 66)" stroke-width="1.333333px" opacity="0.25"></line><line x1="0" y1="144.80539772727272" x2="260" y2="144.80539772727272" fill="rgb(0, 0, 0)" stroke="rgb(66, 66, 66)" stroke-width="1.333333px" opacity="0.25"></line><line x1="0" y1="128.7159090909091" x2="260" y2="128.7159090909091" fill="rgb(0, 0, 0)" stroke="rgb(66, 66, 66)" stroke-width="1.333333px" opacity="0.25"></line><line x1="0" y1="112.62642045454544" x2="260" y2="112.62642045454544" fill="rgb(0, 0, 0)" stroke="rgb(66, 66, 66)" stroke-width="1.333333px" opacity="0.25"></line><line x1="0" y1="96.53693181818181" x2="260" y2="96.53693181818181" fill="rgb(0, 0, 0)" stroke="rgb(66, 66, 66)" stroke-width="1.333333px" opacity="0.25"></line><line x1="0" y1="80.44744318181817" x2="260" y2="80.44744318181817" fill="rgb(0, 0, 0)" stroke="rgb(66, 66, 66)" stroke-width="1.333333px" opacity="0.25"></line><line x1="0" y1="64.35795454545453" x2="260" y2="64.35795454545453" fill="rgb(0, 0, 0)" stroke="rgb(66, 66, 66)" stroke-width="1.333333px" opacity="0.25"></line><line x1="0" y1="48.26846590909091" x2="260" y2="48.26846590909091" fill="rgb(0, 0, 0)" stroke="rgb(66, 66, 66)" stroke-width="1.333333px" opacity="0.25"></line><line x1="0" y1="32.178977272727266" x2="260" y2="32.178977272727266" fill="rgb(0, 0, 0)" stroke="rgb(66, 66, 66)" stroke-width="1.333333px" opacity="0.25"></line><line x1="0" y1="16.089488636363622" x2="260" y2="16.089488636363622" fill="rgb(0, 0, 0)" stroke="rgb(66, 66, 66)" stroke-width="1.333333px" opacity="0.25"></line><line x1="0" y1="0" x2="260" y2="0" fill="rgb(0, 0, 0)" stroke="rgb(66, 66, 66)" stroke-width="1.333333px" opacity="0.25"></line></g></g></g><g><g><line x1="0" y1="16.089488636363622" x2="260" y2="16.089488636363622" fill="rgb(0, 0, 0)" stroke="rgb(153, 153, 153)" stroke-width="2px"></line></g></g><g><g><line x1="21.666666666666664" y1="0" x2="21.666666666666664" y2="176.984375" fill="rgb(0, 0, 0)" stroke="rgb(153, 153, 153)" stroke-width="2px"></line></g></g><g><g><g><g><g><path style="fill: none;" stroke="rgb(255, 112, 67)" stroke-width="2.666667px" d="M21.84,15.237179602541953L22.09133333333333,54.85131720979081L22.221333333333334,47.03053884502086L22.23,58.83331869975935L22.455333333333332,65.15700078160258L22.576666666666668,51.37299608212924L22.611333333333334,-42.783402647345625L22.793333333333333,30.98369250662274L23.105333333333334,41.36416490854986L23.174666666666667,148.1371285578433L23.339333333333332,86.78671470504304L23.798666666666666,79.14831887380927L23.928666666666665,58.93500763926583L24.128,28.887326828169908L24.448666666666664,60.087298374746176L24.856,67.66631238823418L25.029333333333334,71.55293915672934L25.168,34.448993406155324L25.28066666666667,-3.6221945016758346L25.47133333333333,52.68771257172986L25.714000000000002,34.007982963066674L25.800666666666668,25.577735665816306L25.852666666666668,108.25352675526443L26.104,87.95730342797958L26.303333333333335,59.14939134702609L26.346666666666668,139.99657179218283L26.364,132.4978468273252L26.502666666666666,87.94594415990892L26.849333333333334,101.16265360028568L27.204666666666665,70.09661645732507L27.256666666666668,62.73069502562294L27.26533333333333,140.12230941567464L27.386666666666667,90.63304759971189L27.534,143.80053743109366L28.305333333333333,210.69257613080381L28.400666666666666,95.52154803657143L28.652,63.74632224369756L29.111333333333334,97.13410953940937L29.189333333333334,174.28117070425918L29.362666666666666,175.51143531558964L29.848,111.75364970485522L30.342,48.84489675859946L30.480666666666664,94.36589638433888L30.576,82.20916041584805L30.671333333333333,49.00715180159145L30.836,66.01985094780422L30.966,125.48249882575158L31.31266666666667,121.6626780536257L31.433999999999997,79.435086784093L31.494666666666667,90.20117073524067L31.668000000000003,129.42832783910353L31.772000000000002,84.09247089011029L31.858666666666664,70.89763430762017L31.876,122.72059080429585L31.945333333333334,82.66548383992429L32.24,79.84813581992094L32.53466666666667,109.44834184845891L32.552,91.15387162847219L32.577999999999996,166.6380627721877L32.66466666666667,135.3343335435044L32.699333333333335,89.68213370866597L33.16733333333333,115.75646294122286L33.34066666666667,77.72459690815406L33.60933333333333,147.96040216613707L33.964666666666666,98.02755822138182L34.31133333333334,168.19519184142806L34.32,88.91624418465123L34.632000000000005,82.22593474143225L34.77066666666667,55.78610968263059L34.79666666666667,-99.32231617427301L35.24733333333334,-16.079137534911226L35.516,64.83390931490943L35.784666666666666,99.82740724914399L35.854,122.40644023999674L36.157333333333334,90.52640141675683L36.287333333333336,60.709822584746L36.434666666666665,42.86168516935997L36.452,121.03157220168302L36.51266666666667,79.50962707157319L37.084666666666664,157.19605212231752L37.69133333333333,156.55369604600318L37.804,173.42292195176609L38.141999999999996,117.87073846953056L38.22866666666666,136.859470527374L38.49733333333334,83.35199274697703L38.67066666666666,147.66950579237766L38.67933333333333,115.66198080537913L38.83533333333334,95.09628545914327L39.624,63.493453567055525L39.702,44.532197493633035L39.788666666666664,120.15061754582412L39.884,90.06352078507022L40.82866666666666,25.48684131986656L41.782000000000004,21.728196580012476L42.12866666666667,165.40609280307447L42.432,152.61214513565076L42.796,165.3503147209861L42.839333333333336,103.89215148923095L42.952000000000005,68.77112279039726L43.02133333333334,47.6985734209315L43.047333333333334,35.05489539272554L43.220666666666666,27.468618568202114L43.376666666666665,160.93875805596724L43.498000000000005,159.53495565827592L43.61066666666667,27.768920021438426L44.018,44.68021083893034L44.02666666666667,47.256456687616726L44.208666666666666,34.78966275405782L44.45133333333333,27.32956445388611L44.52066666666666,184.18534956358985L44.59,117.93829201704821L44.94533333333333,167.99780648927103L45.02333333333333,70.79450564630045L45.153333333333336,54.4840473020279L45.23133333333333,39.61499389342177L45.37866666666667,44.85299075687407L45.43066666666667,81.35070015167743L45.54333333333333,46.678480151406454L45.552,108.42265038584317L45.56066666666666,102.45560879183958L45.67333333333333,98.30163796684533L45.82066666666667,65.54086239285013L46.05466666666667,45.43571066069185L46.245333333333335,64.49650079975528L46.332,34.467547385389324L46.47933333333333,27.116292718010776L47.35466666666667,92.29986989732L47.449999999999996,50.70581534551228L48.403333333333336,4.509104755976619L48.412,36.094360327958576L48.58533333333333,26.54330928425196L48.594,24.928740139593188L48.724000000000004,17.9516255293207L48.940666666666665,88.67507240982874L49.40866666666667,59.64272239259657L49.56466666666666,43.366197193689025L49.772666666666666,138.50342338191763L49.98066666666667,89.53794730253618L50.00666666666667,60.162359590622536L50.769333333333336,66.78153593702419L51.18533333333333,45.55373371307889L51.67933333333333,17.31522053514901L51.870000000000005,55.34259525896156L51.93933333333334,77.38809972995195L52.01733333333333,52.869107944420186L52.242666666666665,-0.4068064790164588L52.61533333333333,-99.51458527041638L52.884,49.19767090152618L53.022666666666666,36.01362059029083L53.352,27.68434641873991L53.378,77.14868617321764L53.41266666666667,210.63467344644283L53.47333333333333,227.539129918897L53.49933333333333,142.95925038968463L53.664,92.19685267610575L53.85466666666667,-2.4104582429010977L54.279333333333334,31.557034079629258L54.46133333333333,34.493980879286866L55.03333333333333,-146.42285805545345L55.501333333333335,-43.52511740283075L55.614000000000004,83.8725471186083L55.666000000000004,91.41171563067547L55.769999999999996,136.44115048300264L55.79600000000001,108.64939420022013L56.134,69.21008142626515L56.45466666666667,33.68903114396101L56.55,26.64860277315962L56.645333333333326,31.422102244411718L56.69733333333333,25.08707336708603L56.757999999999996,39.13682182898396L57.07866666666666,120.41872075960606L57.29533333333333,159.97206890185925L57.39933333333333,122.87703483803686L57.42533333333333,96.54328349500254L57.616,82.89240874146557L57.919333333333334,66.18212048562307L58.01466666666666,46.47373425995902L58.318,42.46709284362094L58.578,70.95245340162157L59.10666666666667,47.495929075382854L59.19333333333333,63.74335623062156L60.285333333333334,44.89394217475949L60.98733333333333,40.09475468125166L61.022,92.72010938925212L61.23866666666667,129.50357616977493L61.654666666666664,120.50987322254078L61.97533333333333,88.49209417193755L62.330666666666666,106.89355907164087L62.348000000000006,122.5685577002501L62.4,166.30230747159607L62.478,154.91516358672376L62.67733333333334,151.34273332043492L63.08466666666667,124.9706652447542L63.56133333333333,135.31157190564446L63.58733333333333,103.90130674032218L63.596000000000004,58.695813184733105L63.665333333333336,5.887648305535193L63.99466666666667,21.454294441829063L64.23733333333332,42.25796471374255L64.402,98.01730122294668L64.57533333333333,91.94730358423628L64.84400000000001,104.76296313994052L65.702,79.453546541799L65.78,102.54141734721621L65.79733333333333,75.08254205177185L66.16133333333333,148.09425867959288L66.196,143.28036611537837L66.326,115.75911956336802L66.35199999999999,102.55782953346588L66.36066666666666,141.75572519059506L66.63799999999999,112.80871531663706L66.75066666666666,78.76865196458364L66.96733333333333,82.33142192541733L67.08,111.88323393527534L67.21000000000001,180.92139703351125L67.288,160.8536158334445L67.31400000000001,155.724807308139L67.57400000000001,105.31393996674753L67.782,73.89626699325227L67.80799999999999,115.93307422951791L68.15466666666667,76.05011262107296L68.224,70.82960396227695L68.51,48.96262920721072L68.87400000000001,49.29771712961593L68.952,36.01547872340804L68.99533333333332,28.04920258811136L69.42866666666667,47.433168955337585L70.798,50.45791217653831L71.344,48.7846700675878L71.58666666666666,147.7318329368655L71.786,181.29884790053887L72.228,133.3603603275182L72.52266666666667,110.51716580249706L72.63533333333334,77.81104848391433L73.23333333333333,124.93086723039318L73.30266666666667,118.6944359859116L73.51933333333334,149.00080593127439L73.658,208.93618869547558L73.762,190.62739055768176L74.14333333333333,125.53069245580988L74.646,122.39643892628874L74.83666666666666,183.20661605217225L74.88,159.873843998936L74.91466666666668,102.36250800555976L75.634,63.87535859160663L75.78999999999999,36.97668486303931L76.102,28.291049220333868L76.28399999999999,83.0091965359144L76.56133333333332,41.43153230772961L76.57866666666666,41.10724594494446L76.78666666666666,113.68601158010453L76.79533333333333,214.67036597845765L76.83866666666667,108.235982023113L76.882,162.87801175194778L77.78333333333335,106.34849399605909L78.25999999999999,65.52057264198957L78.416,74.43525505281706L78.45933333333333,15.28268691282652L78.572,103.98125013878699L78.61533333333334,116.387883365427L78.754,76.26852355578511L78.79733333333333,54.596059639949765L78.87533333333333,76.16499040851389L79.014,85.17733760267743L79.51666666666667,117.37898582407642L79.924,125.90298032038355L80.01066666666668,152.30247412740636L80.184,102.79628596030547L80.63466666666666,68.11359388295939L80.98133333333334,47.14269550154061L81.05066666666666,76.08815231005453L81.12866666666666,-96.57965943152603L81.62266666666667,-13.878595941947031L81.64866666666667,14.597101770972111L81.744,-63.05528699926106L82.27266666666667,-23.98603388341469L82.316,26.85442458324109L82.33333333333333,53.46642800250057L82.81866666666667,38.42005639331896L83.36466666666666,34.97295372445795L83.39066666666666,75.27661138494099L83.44266666666667,51.60915432102089L83.77199999999999,37.40142518534024L83.89333333333333,28.90352988839861L84.14466666666667,71.45072200747803L84.54333333333334,149.96180747500318L84.72533333333334,160.66551236242805L85.02000000000001,88.72136280240112L85.28,61.22305088554222L85.41,43.15367480110063L85.53133333333334,32.52634157958277L86.02533333333332,78.09513288452496L86.12066666666666,112.43246878699523L86.12933333333334,143.70922678938734L86.372,166.51697393021448L86.40666666666667,123.88498688945607L86.42399999999999,165.1879390142472L86.52799999999999,148.24159724396793L86.736,129.89444434200124L86.84,89.12190339024195L86.90933333333334,67.28704651859759L86.96133333333334,24.001107224710456L87.05666666666666,104.37128619624211L87.126,70.49166805070519L87.14333333333333,132.44674099083824L87.49000000000001,148.80577168059656L87.568,200.92461219165295L87.58533333333332,197.80659014769267L87.88000000000001,114.09799593823503L87.932,101.77790800661268L88.07066666666667,77.89148747147584L88.65133333333333,29.940391229634162L88.67733333333334,42.058611213356116L88.90266666666666,-2.1109786873855336L89.232,96.4527254468472L89.24066666666667,-2.3450671123802302L89.46600000000001,-0.007227320756363911L89.61333333333333,73.710429039566L89.71733333333334,139.4312038802844L89.76066666666667,165.3159941263458L90.10733333333334,160.98176509752636L90.15933333333334,97.63486609553574L90.402,174.37575416400244L90.896,167.96224776569485L91.41600000000001,231.35572696737177L91.69333333333334,137.393257782403L92.07466666666667,88.68280536236676L92.26533333333333,59.645434557586704L92.42999999999999,80.33105932118508L92.43866666666666,74.64810737882551L92.68133333333333,50.80136225426706L92.88933333333334,84.07769462224415L93.00200000000001,56.95762724531499L93.418,40.61038235082546L93.53933333333333,30.802124601895574L93.58266666666667,24.917048158493387L94.068,58.499802046304495L94.16333333333334,91.82158140478573L94.28466666666667,61.54071847425206L94.458,43.36170197335522L94.57933333333334,53.13817156293833L95.27266666666667,145.7128254312086L95.53266666666667,184.00674710306055L95.76666666666667,120.59291862552415L95.81866666666666,79.43366079631603L95.89666666666668,54.99071022170773L96.37333333333332,84.59170885593872L96.45133333333334,98.72419759704539L96.72866666666667,85.9237603894435L96.76333333333332,90.60361601870339L97.032,122.54330876683478L97.084,177.11610670312868L97.55199999999999,226.8986789332118L97.74266666666666,142.57502295364498L97.76,91.9808317634255L98.15,87.94583924871651L98.23666666666668,59.35646076988907L98.51400000000001,57.35831229633972L98.55733333333333,87.71266366207638L98.61800000000001,86.9304497185966L98.96466666666666,125.3424687412575L98.99933333333333,98.43851126992865L99.554,65.66162649367693L99.736,45.83267814713683L99.97,40.82664865512543L100.18666666666667,73.9415834550514L100.698,50.800700454190135L100.73266666666667,36.91616202259818L101.00133333333333,72.61891770653081L101.52133333333333,118.19731774922523L101.868,90.79098742059352L102.206,53.91906009251415L102.31,38.84490818638647L102.32733333333334,27.792053292616178L102.38799999999999,63.51540220101997L102.518,112.28385121080271L102.67399999999999,64.91191958191047L102.79533333333333,48.23604381302895L102.908,47.50044768163348L102.95133333333334,36.78137905637658L103.038,37.28782765782249L103.636,28.808422041634522L104.34666666666666,49.990525454181714L104.42466666666667,147.21487858133594L104.50266666666666,115.38953293908135L104.58933333333333,76.22996541112649L104.82333333333334,52.171518154768556L105.49933333333334,37.73867278211768L105.508,29.586060840407843L105.68133333333333,24.187395516476947L105.78533333333333,-37.15923779316999L105.85466666666667,40.10921164872789L106.21,39.47786507553905L106.21866666666668,106.16186664847083L106.37466666666667,-14.007639757131724L106.72999999999999,82.68121116613464L106.82533333333333,120.11102066493511L106.938,78.50228701846275L107.05066666666667,76.87380400375206L107.198,112.45296285258503L107.432,73.77657838879578L107.51866666666666,58.206068991663194L107.63133333333333,41.359765789367444L107.89999999999999,31.254465781419245L107.90866666666666,25.191355784135844L107.91733333333333,21.553373745708456L108.00399999999999,19.373358933416036L108.11666666666666,18.06382714104905L108.16866666666667,17.27909009031592L108.28999999999999,16.815551667095683L108.89666666666666,17.258759153626006L109.13066666666667,33.01745863013317L109.39933333333333,24.778999091332455L109.54666666666667,21.617222162375285L110.006,53.98031593127833L110.15333333333334,40.7501491970834L110.214,74.5003336898288L110.682,50.90656444409148L110.77733333333333,101.81869939581723L111.31466666666667,65.10526421243799L111.34066666666668,118.40696676219981L111.34933333333333,105.31800479631886L111.774,55.05718908675395L112.20733333333332,64.97341341460455L112.25933333333334,108.78937317476722L112.268,97.57421004145168L112.32,115.43208667953965L112.69266666666667,196.82119452131568L113.21266666666666,204.07233483292657L113.31666666666668,131.4479940674364L113.51599999999999,163.89778302611006L113.672,109.54547379728719L113.83666666666667,76.5781577406503L113.92333333333333,69.77991739532966L113.94066666666666,83.44020440587451L114.47800000000001,56.4998648731102L114.56466666666667,40.272134051008685L114.62533333333334,18.98788344030327L114.80733333333333,17.828590731290568L115.03266666666667,17.133128268858854L115.648,30.018273713479577L116.12466666666667,51.008512011367024L116.80933333333333,97.67689917858296L117.208,84.0420043010104L117.21666666666665,66.28986050656032L117.26,57.70998171229929L117.32933333333332,43.06301069133333L117.48533333333334,40.28033062080334L117.832,20.880677461068668L118.04,18.96417316093901L118.092,35.44992650956068L118.10066666666667,30.40114895189179L118.39533333333333,25.887505090710405L118.49066666666667,47.33534952165874L118.82000000000001,34.83697352026874L118.85466666666667,27.369402909750672L118.90666666666667,54.34804601990224L118.976,39.04460005028777L119.87733333333334,94.69470700588474L119.886,178.84971970513226L120.432,140.122789697477L120.51866666666668,103.01460605762108L120.562,73.576764861772L120.85666666666667,53.5201999219247L120.9,55.59233795228156L121.01266666666666,34.173930246425535L121.03,25.257360689573392L121.57600000000001,20.36588581325954L121.95733333333334,50.888543804102774L122.02666666666667,45.617787431367155L122.31266666666666,33.807351264874555L123.04933333333334,109.6019192285822L123.396,86.71514399771158L123.56933333333333,113.79210116940028L123.64733333333334,128.7204878443853L123.82933333333334,147.09933960391382L124.098,94.6987941061157L124.11533333333333,107.10362414032451L124.14999999999999,75.03652897751321L124.33200000000001,38.58254272135396L124.358,29.58530550347369L124.39266666666667,24.18657789118648L124.53133333333334,42.852735041829014L124.60933333333334,33.40270733353417L124.66133333333333,25.67603996566884L125.294,39.86094359059187L125.44133333333333,-67.49999771799445L125.918,-27.77021461805201L126.34266666666666,43.068790663417516L126.854,132.3865318277952L127.20066666666668,122.21610536221856L127.23533333333333,132.19605589005343L127.504,85.75357475783042L127.72066666666667,48.48603256297638L128.03266666666667,29.022775475926615L128.30133333333333,21.810518983707865L128.31866666666667,36.502909980489164L128.42266666666666,68.01829653509334L128.75199999999998,38.58964942140739L128.856,37.98821138340662L129.09866666666667,30.85045034679315L129.13333333333333,44.45297326211268L129.15066666666667,85.21294336550234L129.33266666666665,53.69586589809222L129.34133333333332,18.439084861788896L129.47133333333335,66.65074502452876L129.57533333333333,56.39207643897327L129.80933333333334,65.54882544474015L129.82666666666668,87.06501617086316L129.844,111.88043928147106L130.48533333333333,92.62763149185469L130.89266666666666,90.49604635156535L131.3,162.71781350937258L131.82,101.9536723948099L132.46133333333333,67.60804492382942L132.53933333333333,65.7861639990828L133.12,71.39487163241044L133.49266666666665,97.0553478841822L133.52733333333333,108.98892334951661L133.67466666666667,146.75858381909578L133.86533333333335,142.4203897699189L134.108,95.82426131625009L134.14266666666668,119.08458085648341L134.32466666666667,77.88654684546037L134.43733333333333,72.95236115065995L134.55866666666665,84.89653545779836L134.66266666666667,57.37673628647362L134.67133333333334,40.86182380031431L134.76666666666665,30.952879425394837L135.14800000000002,59.18242240716775L135.98000000000002,42.04180952013116L136.31799999999998,59.98058193712757L136.51733333333334,42.68988100918252L136.61266666666666,31.627147636657874L136.98533333333333,25.41204184017606L137.37533333333332,21.682995624437368L137.7133333333333,19.445632148545407L137.97333333333333,66.3755073740469L138.294,100.0493506983302L138.87466666666668,97.4613438501064L138.96133333333333,127.43906727928407L139.11733333333333,104.7172729987053L139.18666666666667,102.0451573032527L139.44666666666666,67.66287065633198L139.75,54.39191865923555L139.91466666666668,28.26283730788151L139.93200000000002,27.99880592318698L139.958,23.049866699472524L140.07066666666665,49.41895505202595L140.55599999999998,51.48980126467363L140.72933333333333,40.71287662312419L141.30133333333333,72.50029373234663L141.55266666666665,73.78473762030436L141.7086666666667,89.05056198453482L142.064,69.02437917043807L142.28933333333333,57.573129753145125L142.76600000000002,40.97973660097642L142.844,-0.6447020067143323L143.06933333333333,94.72329851628272L143.416,111.32686738198466L143.90133333333333,131.79036966323451L143.99666666666664,87.69205742561792L144.118,59.0510519671056L144.23066666666665,41.86649280637933L144.38666666666666,63.05956783708442L144.55133333333336,44.27240405926668L144.64666666666668,32.98902804847291L144.69866666666667,140.07205607069653L144.80266666666665,163.24255769348852L144.95,104.67863126444331L145.25333333333333,89.09122162082949L145.314,183.46896508449083L146.042,169.73521340142335L146.08533333333332,112.68949969034729L146.14600000000002,74.04946841652314L146.198,50.865342722809636L146.47533333333334,54.159419775000124L146.484,115.58648756276274L146.52733333333333,123.59771151319157L146.64866666666668,139.4549973075059L146.71800000000002,89.46604732652487L146.72666666666666,77.57485721730124L147.29866666666666,52.9805740852618L147.316,54.49780152210904L147.654,4.243195506578086L148.018,8.981722348574863L148.41666666666666,22.5085872017782L148.60733333333334,19.940946816604097L149.474,24.48632223393795L149.604,22.735979899343615L149.75133333333332,139.4334121966752L149.82066666666668,142.22183499380031L150.11533333333335,91.76889645082565L150.39266666666668,54.984294288057754L150.50533333333334,39.52394344711181L150.54,74.51182631660532L150.80866666666665,73.18852505516564L150.99933333333334,50.348994400867106L151.034,36.64520168514828L151.16400000000002,49.18782831731076L151.84866666666665,36.02947397711791L152.24733333333333,116.0960574187404L152.256,184.2444925701116L152.29066666666665,116.97962452099736L152.53333333333333,114.55146195889971L152.63733333333332,121.89668982457901L152.72400000000002,79.57379784119334L152.75866666666667,54.18000319264968L152.88,38.94388308149803L153.01000000000002,49.68842975489329L153.20933333333335,147.0458772872591L153.28733333333335,93.15478895544571L153.40866666666665,61.1288670113785L154.44,70.19825873276018L154.57866666666666,85.47118127467363L154.7,57.718516686456496L154.82133333333334,39.54858726432942L154.89933333333335,88.47121119187975L155.15066666666667,60.24880118666044L155.31533333333334,110.80191785686867L155.454,86.0016667845992L155.506,118.20394249683889L155.636,77.35815423959113L155.688,71.11805105575075L155.93066666666667,54.96308870763372L155.948,72.26190150972926L156.97066666666666,103.28912121574389L157.17000000000002,84.44560642510648L157.21333333333334,131.20897819507255L157.47333333333333,86.77485566352273L157.85466666666665,58.501389748519976L157.94133333333335,139.75903155574497L158.17533333333333,190.54849789558475L158.27066666666667,217.88202984025799L158.55666666666667,166.2510144702334L158.626,149.0161443492384L158.79066666666668,98.23295229454865L158.886,131.30409494964525L159.25,101.46021761915802L159.666,133.33352589553806L159.67466666666667,86.45865171392548L160.46333333333334,123.81931554435339L160.62800000000001,165.19831832569164L160.71466666666666,112.86098484526227L161.00933333333333,88.62671473386466L161.26066666666665,106.8224053210736L161.36466666666666,158.03396603549842L161.434,101.25710531385164L161.954,145.75752437752453L161.96266666666668,84.90713830474209L162.39600000000002,138.10867406926513L162.422,105.86752105583757L162.43933333333334,66.02666237717456L162.49133333333333,121.81464856447289L163.06333333333333,132.7030979641915L163.34933333333333,110.63296481323877L163.74800000000002,139.52662922156009L163.91266666666667,85.95477975037947L163.93866666666665,103.20580650005479L164.05133333333333,68.35928007383454L164.57133333333334,127.68084807955738L165.152,83.70967816504059L165.57666666666668,-33.36166292338107L165.594,22.502401537324495L165.68066666666667,38.97260321383311L165.98399999999998,37.91136594336022L166.062,41.6735297127325L166.686,67.98079862760262L166.72066666666666,45.47355321560751L167.22333333333333,65.05033627197461L167.57866666666666,45.46607106136399L167.83866666666665,29.612106994845853L167.856,34.38415501155392L167.97733333333335,27.010805038897036L168.00333333333333,80.77056430965547L168.21133333333333,54.65136874178218L168.558,70.28552076066636L168.59266666666667,59.360135415276446L169.03466666666668,46.39783628931053L169.15599999999998,33.93588868300693L169.48533333333333,89.69493516866869L169.51133333333334,66.406388262056L169.676,98.5419340663644L170.05733333333333,81.40451189858065L170.10933333333332,42.67741823197319L170.118,31.968622852378207L170.2566666666667,25.635613245219577L170.36066666666667,5.800780923584321L171.00199999999998,41.914849910681156L171.01933333333335,96.95221848531497L171.184,132.06487963710765L171.29666666666668,215.43097599061235L171.38333333333333,224.65994653157537L171.45266666666666,142.53167793470539L172.43200000000002,94.99290290527755L172.68333333333334,101.56022374033473L172.75266666666667,90.44638516761935L173.48066666666668,77.21388030302106L173.54133333333334,52.76410451613124L173.89666666666665,115.26228630805142L174.36466666666666,157.9908975585444L174.49466666666666,119.66830581440985L174.50333333333333,75.64768981414532L174.63333333333333,55.57944332622547L174.83266666666665,137.36908222118896L174.98000000000002,138.28400278449934L175.058,86.6564021879029L175.35266666666666,93.33985084899012L175.61266666666666,108.89421447215645L175.67333333333332,75.90494004986766L176.072,52.040322059437386L176.49666666666664,41.87051533192543L176.58333333333334,104.40450594856338L176.644,92.15335248098229L176.65266666666668,112.6564246128276L176.68733333333333,91.70134568115643L177.02533333333332,61.662370558903675L177.12066666666666,83.65023591309577L177.268,56.6303086415909L177.372,40.41401516379626L177.72733333333332,93.70407022450394L177.75333333333333,85.34283462486377L177.98733333333334,120.67067387129842L178.048,114.52800845198918L178.23866666666666,142.10229022389052L178.37733333333335,153.10635212639616L178.44666666666666,125.3867349488582L178.62866666666667,127.57627124667712L178.73266666666666,82.98159080883329L178.802,97.83559545560391L178.83666666666664,65.11826889659689L178.87133333333333,25.55581158840089L179.478,76.98349698611091L180.076,52.625987149516824L180.56133333333332,95.91949007576926L180.67399999999998,182.96918861043912L181.18533333333332,167.65557684238502L181.194,99.82747926010762L181.298,67.70663009844988L181.402,124.7899531162343L181.532,134.32520613656288L181.61866666666666,90.47526261599215L181.73999999999998,79.24436768933887L181.85266666666666,53.98242326071069L181.93066666666667,38.82525708303802L182.208,31.14011568472874L182.76266666666666,26.792364772580424L183.02266666666665,60.33644427617448L183.06599999999997,40.386510917237075L183.07466666666667,29.952655860035094L183.17866666666666,26.61935199938815L183.274,113.90936675918705L184.25333333333333,110.04266017830197L184.262,89.43649579069155L184.314,97.05601299000159L184.34,88.77412608057966L184.44400000000002,95.12643402319283L184.57399999999998,166.21620377119967L185.24133333333333,106.1655637496633L185.46666666666667,68.3813551503417L185.51866666666666,84.45970417484216L185.52733333333333,57.15791120779895L186.04733333333334,66.82172833749918L186.27266666666668,81.5135063371703L186.66266666666667,61.2641161458836L186.68866666666665,81.17725195806902L186.87933333333334,63.8693986615925L187.20866666666666,65.10395997186087L187.29533333333333,101.75308738915916L187.33,68.74299733565564L187.33866666666668,47.98920894002565L188.162,141.87908483025956L188.17933333333335,119.50929353193277L188.22266666666667,40.12142937461342L188.76,32.45793131001036L189.11533333333335,99.98266398585905L189.54866666666666,-61.35537862353826L189.748,-20.42645481982576L189.83466666666666,13.425577133371933L189.86933333333332,-69.75526879735455L189.99066666666667,26.045324579225014L190.38066666666666,50.48495002279195L190.4586666666667,35.71926233874091L190.66666666666666,116.53572168229366L190.69266666666667,85.32085205572618L191.08266666666665,57.62826317298251L191.69799999999998,41.024691093558815L191.83666666666667,49.92240130707512L192.0186666666667,47.07729453014076L192.07933333333332,34.68222779511052L192.426,27.245503267813678L192.96333333333334,23.352765588218656L192.98066666666665,20.4336374160734L193.63933333333333,33.322790986383254L193.81266666666664,92.8772100289296L194.10733333333334,47.14169663789514L194.246,28.487634993139316L194.34133333333332,70.15382818006198L194.72266666666667,112.41826761556614L194.85266666666666,135.64252893972326L194.8613333333333,80.40128733579611L194.89600000000002,105.3602931777732L195.00866666666667,129.6788058349852L195.1386666666667,141.90729589777513L195.66733333333335,111.59210153223519L195.988,73.39825011933915L196.17866666666666,127.98991068300309L197.71266666666665,83.22975529046265L197.89466666666667,51.69056107947608L198.15466666666666,37.4501719010746L198.432,-157.71271552877468L198.67466666666667,-9.07756719627031L198.83066666666667,1.496853635768928L199.212,7.336064445513302L199.29,13.7472258007633L199.46333333333334,15.235414919744144L199.654,60.236999127754025L199.85333333333335,42.578054389707816L200.00066666666666,32.188646793206814L200.02666666666667,25.79534579650656L200.05266666666665,31.947515079566276L200.37333333333333,152.24973586928834L200.61599999999999,95.91766151727701L200.772,95.24073751324781L200.78933333333333,141.42405524826418L201.50866666666667,91.28413842169898L201.60399999999998,77.12530007011101L201.838,52.71095727545545L202.06333333333333,37.74624904427587L202.28,30.84406855973475L202.306,26.033186174860948L203.22466666666665,32.81222665260096L203.25933333333336,18.82373181995046L203.38933333333333,101.59980417645342L203.40666666666667,64.61458818620098L203.45,87.17927517918005L203.50199999999998,69.40059632809484L203.61466666666666,68.72636771580603L203.684,82.69200103404206L203.99599999999998,124.57098986471871L204.13466666666667,132.68305453147303L204.75866666666667,67.54457518321217L204.802,40.15267749081665L204.99266666666665,30.527417293167744L205.01,24.7764574314141L205.114,52.20294418512662L205.18333333333334,22.80544848836222L205.23533333333333,20.124738999523423L205.46066666666667,18.489880160639835L205.49533333333332,17.529724989441796L205.70333333333335,137.16586182060894L205.79866666666666,89.12486937956405L205.998,114.7487654679094L206.10199999999998,122.02096024066924L206.37933333333334,79.50396378005901L206.95133333333334,76.44922026031237L207.064,53.45725618462335L207.31533333333334,40.09436007537067L207.41066666666666,76.67174697439715L207.71400000000003,45.030931030238584L207.80933333333334,44.91608268350661L208.72799999999998,41.01234900671592L208.74533333333332,36.22083528320152L208.82333333333335,27.0985986629178L208.858,55.68091147820474L208.86666666666667,67.73239829153285L208.92733333333334,47.142802732757566L209.066,34.721633412538196L209.10933333333332,27.268825370495808L209.50799999999998,22.639114202293808L209.54266666666666,30.09669653748167L209.56,94.55860643384288L209.898,89.74989227646952L209.924,84.5078890083005L210.04533333333333,43.12189723483284L210.72133333333335,88.35357759699748L210.78199999999998,-45.93528856710369L211.00733333333332,18.30484609005681L212.89666666666665,89.10399474904003L213.10466666666667,126.58530554196004L213.33,92.35508919527686L213.33866666666665,134.32490045874016L213.52933333333334,110.44366596962819L213.61599999999999,114.40248384869716L213.75466666666668,76.60525728300836L213.95399999999998,90.57505213261057L214.33533333333335,135.77651896927546L214.71666666666667,91.42054607685164L214.80333333333334,93.4213681467376L214.82066666666668,112.19248936513215L214.88133333333334,155.0135152587935L215.0113333333333,99.82887019045496L215.62666666666667,113.28939358106433L215.644,136.8317056660174L215.96466666666666,78.74527038122062L216.38066666666668,53.71639638357405L216.56266666666667,37.82088292167264L216.80533333333332,103.9102017572664L216.87466666666666,175.08967899678143L216.96133333333333,109.15811832530835L217.26466666666667,76.25009537165106L217.58533333333332,52.18588144778373L217.9406666666667,106.7519529345209L218.062,137.03275140674043L218.43466666666666,112.32997001512818L218.69466666666665,75.01677932849583L218.90266666666665,45.895436149372344L219.11066666666667,98.33133871143829L219.11933333333334,54.96969082210452L220.04666666666668,38.72540543159909L220.33266666666668,31.53071875094244L220.5666666666667,80.03719386585466L220.87,100.15690259733704L220.922,79.3034546551602L220.95666666666668,55.68999264316954L221.47666666666666,46.34461870364502L221.51999999999998,33.78966678693158L221.63266666666667,126.01933092815328L221.832,73.77685767297146L221.936,52.14579288673734L222.59466666666665,38.75694977207931L222.94133333333335,29.94796539805443L223.288,30.007670329001705L223.314,38.15930203544818L223.6,96.79002643990583L223.79066666666668,92.5380215299495L223.87733333333333,61.94486194795689L224.15466666666666,66.51464256573306L224.29333333333335,70.52832370869244L224.536,137.2011140602034L224.54466666666667,142.6122384812437L225.35066666666668,80.08690115648034L225.68,97.04931708104921L226.122,64.6654398871423L226.13933333333333,45.23503637063179L226.45133333333334,64.72429294286772L226.60733333333334,50.48275011024452L226.63333333333335,123.32108103387456L227.24,65.1724520494369L227.64733333333334,45.55195244587021L227.91600000000003,27.932219845599107L228.09799999999998,106.20033186998599L228.54866666666666,137.3094735288311L229.04266666666666,128.45386468524765L229.268,85.13480894174228L229.90933333333334,78.82751771038788L230.00466666666668,68.95515837720691L230.0306666666667,50.1913690733636L230.29066666666668,132.17450956364232L230.34266666666667,113.39964906493938L230.73266666666666,74.46808065391535L231.59066666666666,51.14958002546058L232.11933333333334,86.77709300198468L232.3273333333333,100.01744667989566L232.37933333333334,108.49883297543803L232.56133333333332,118.93951101447541L232.76933333333332,79.78794364368741L232.96,54.72645330883036L233.07266666666666,105.64446092728613L233.454,74.71812284086766L233.74866666666668,51.26642593433622L233.78333333333333,37.19561840886559L233.93066666666667,22.29487405427359L233.948,22.536263172237238L234.93599999999998,105.97665228845665L235.10933333333332,39.63104060032321L235.196,22.054831141269847L235.41266666666667,19.815493372646934L235.78533333333334,38.74994379770336L235.90666666666667,164.25888278878946L236.02800000000002,104.90138857139614L236.25333333333333,69.37657585192915L236.33133333333333,48.36393836491409L236.73866666666666,79.78373485108148L236.7733333333333,121.99463712861889L236.86,79.4302135600948L236.95533333333333,54.061424718395806L236.98999999999998,39.79366458130188L237.016,32.83195232325597L237.08533333333335,14.251945911352578L237.2673333333333,-13.938720700223206L237.32799999999997,-1.927705487899824L237.51,5.2368042353896165L237.81333333333333,91.68139417246086L237.98666666666668,66.35782065143191L238.004,46.97943196785456L238.15133333333335,84.3230025305732L238.27266666666665,74.19054381546871L238.33333333333331,94.08959764746982" fill="none"></path></g></g></g></g><g opacity="0.2"><g><g><g><path style="fill: none;" stroke="rgb(255, 112, 67)" stroke-width="2.666667px" d="M21.84,15.237179602541953L22.09133333333333,78.61979977414012L22.221333333333334,39.52259161484173L22.23,72.71338780893181L22.455333333333332,73.41320010765709L22.576666666666668,32.30475534106583L22.611333333333334,-177.42855933287433L22.793333333333333,138.5368254052221L23.105333333333334,56.67334539843298L23.174666666666667,306.6825358287685L23.339333333333332,-4.682462335902873L23.798666666666666,67.73229293976063L23.928666666666665,28.68104075572178L24.128,-16.12532785372938L24.448666666666664,106.85058129925957L24.856,79.02948810058561L25.029333333333334,77.38123461927964L25.168,-21.19750453189906L25.28066666666667,-60.7231766011312L25.47133333333333,137.14742623328823L25.714000000000002,5.989412990837905L25.800666666666668,12.932642120819008L25.852666666666668,232.26558110016313L26.104,57.51320886516689L26.303333333333335,15.937727979905373L26.346666666666668,261.26699768362397L26.364,121.24977856722067L26.502666666666666,21.1181585564495L26.849333333333334,120.98770558639345L27.204666666666665,23.497577912610723L27.256666666666668,51.681815320689395L27.26533333333333,256.20971560241145L27.386666666666667,16.399160783791626L27.534,223.55176836988804L28.400666666666666,-77.23499113496987L28.652,16.083484046001498L29.111333333333334,147.21579017303884L29.189333333333334,290.00176202184093L29.362666666666666,177.35683222847396L29.848,16.116971416595888L30.342,-45.51823258510029L30.480666666666664,162.64739579008892L30.576,63.97405646837697L30.671333333333333,-0.7958611111654089L30.836,91.53889966447075L30.966,214.6764706371098L31.31266666666667,115.93294689565134L31.433999999999997,16.09369988121614L31.494666666666667,106.35029666174457L31.668000000000003,188.2690634944222L31.772000000000002,16.088685466950235L31.858666666666664,51.105379433942616L31.876,200.45502554917368L31.945333333333334,22.582823393429862L32.24,75.62211378991857L32.53466666666667,153.84865089124915L32.552,63.712166298498296L32.577999999999996,279.8643494877456L32.66466666666667,88.37873970048332L32.699333333333335,21.203833956411625L33.16733333333333,154.8679567900571L33.34066666666667,20.67679785855182L33.60933333333333,253.31411005311054L33.964666666666666,23.12829230424937L34.31133333333334,273.446642271497L34.32,-30.002177300513722L34.632000000000005,72.1904705766038L34.77066666666667,16.12637209442812L34.79666666666667,-331.9849549596282L35.1,-6.463381123205181L35.126,16.0891838515618L35.24733333333334,6.109513790246139L35.516,186.2034795896404L35.784666666666666,152.3176541504958L35.854,156.27498972627586L36.157333333333334,42.706343181896955L36.287333333333336,15.984954336729755L36.434666666666665,16.089479046280946L36.452,238.28640275016767L36.51266666666667,17.226709376408422L37.084666666666664,273.725689698434L37.69133333333333,155.59016193153167L37.804,198.72676081041044L38.141999999999996,34.54246324617731L38.22866666666666,165.3425686141391L38.49733333333334,3.090776076381601L38.67066666666666,244.14577536047858L38.67933333333333,67.65069332488135L38.83533333333334,64.24774243978952L39.624,16.0892057289239L39.702,16.090313383499325L39.788666666666664,233.57824762411076L39.884,44.93287564393937L40.82866666666666,-71.3781778779389L41.782000000000004,16.090229470231304L42.12866666666667,380.9229371376674L42.432,133.4212236345153L42.796,184.45756909898904L42.839333333333336,11.704906641598255L42.952000000000005,16.08957974214669L43.02133333333334,16.089749366732903L43.047333333333334,16.089378350416617L43.220666666666666,16.089203331416964L43.376666666666665,361.14396728761494L43.498000000000005,157.42925206173888L43.61066666666667,-169.8801334338178L44.018,70.04714706516825L44.02666666666667,51.1208254606463L44.208666666666666,16.08947185371945L44.45133333333333,16.139417003628534L44.52066666666666,419.4690272281454L44.59,18.56770569723581L44.94533333333333,243.08707819760522L45.02333333333333,-75.01044561815533L45.153333333333336,30.01835978561905L45.23133333333333,17.311413780512577L45.37866666666667,52.70998605205252L45.43066666666667,136.09726424388248L45.54333333333333,-5.329849849000006L45.552,201.03890573749825L45.56066666666666,93.5050464008342L45.67333333333333,92.07068172935396L45.82066666666667,16.399699031857295L46.05466666666667,15.277983062454453L46.245333333333335,93.0876860083504L46.332,-10.575882736159569L46.47933333333333,16.08941071694292L47.35466666666667,190.07523566628382L48.403333333333336,-64.78596112832682L48.412,83.47224368593147L48.58533333333333,12.216732718692086L48.594,22.50688642260502L48.724000000000004,7.485953613911988L48.940666666666665,194.76024273059076L49.40866666666667,16.0941973667483L49.56466666666666,18.951409395327726L49.772666666666666,281.2092626642605L49.98066666666667,16.089733183464034L50.00666666666667,16.09897802275209L50.769333333333336,76.71030045662667L51.18533333333333,13.712030377160925L51.67933333333333,-25.042549231745827L51.870000000000005,112.38365734468044L51.93933333333334,110.45635643643749L52.01733333333333,16.090620266122574L52.242666666666665,-80.32067811417139L52.884,272.2660551594401L53.022666666666666,16.237545123437766L53.352,15.190435161413571L53.378,151.34519580493426L53.41266666666667,410.8636543562805L53.47333333333333,252.89581462757832L53.49933333333333,16.08943109586605L53.664,16.053256105737418L53.85466666666667,-144.32142462141135L54.279333333333334,82.5082725634248L54.46133333333333,38.89940107877324L55.03333333333333,-417.7981164575639L55.050666666666665,15.895170782814843L55.501333333333335,13.430676273142366L55.614000000000004,274.9690439007668L55.666000000000004,102.72046839877623L55.769999999999996,203.98530276149341L55.79600000000001,66.96175977604632L56.134,10.051112265332689L56.45466666666667,-19.592544279495172L56.55,16.08796021695755L56.645333333333326,38.58235145128988L56.69733333333333,15.58453005109747L56.757999999999996,60.21144452183082L57.07866666666666,242.3415691555393L57.29533333333333,219.302091115239L57.39933333333333,67.2344837423033L57.42533333333333,57.042656480451114L57.616,62.4160966111601L57.919333333333334,41.11668810185934L58.01466666666666,16.91115492146292L58.318,36.457130719113835L58.578,113.68049423862249L59.10666666666667,12.311142586024767L59.19333333333333,88.11449696347964L60.285333333333334,16.619821090966397L60.98733333333333,32.895973440989934L61.022,171.6581414512528L61.23866666666667,184.67877634055912L61.654666666666664,107.01931880168955L61.97533333333333,40.465425596032695L62.330666666666666,134.49575642119584L62.348000000000006,146.08105564316395L62.4,231.902932128615L62.478,137.83444775941527L62.67733333333334,145.98408792100167L63.08466666666667,85.41256313123316L63.56133333333333,150.8229318969798L63.58733333333333,56.78590899233875L63.596000000000004,-9.11242714865048L63.665333333333336,-73.32459901326166L63.99466666666667,44.80426364626989L64.23733333333332,73.46347012161277L64.402,181.6563059867529L64.57533333333333,82.8423071261707L64.84400000000001,123.98645247349684L65.702,41.48942164458673L65.78,137.17322355534202L65.79733333333333,33.89422910860527L66.16133333333333,257.6118336213244L66.196,136.05952726905656L66.326,74.47724973535249L66.35199999999999,82.7558944886127L66.36066666666666,200.55256867628881L66.63799999999999,69.38820050570013L66.75066666666666,27.70855693650347L66.96733333333333,87.67557686666788L67.08,156.2109519500624L67.21000000000001,284.4786416808651L67.288,130.75194403334436L67.31400000000001,148.03159452018073L67.57400000000001,29.69763895466033L67.782,26.769757533009397L67.80799999999999,178.98828508391637L68.15466666666667,16.225670208405518L68.224,62.99884097408291L68.51,16.162167074611414L68.87400000000001,49.800349013223716L68.952,16.092121114096184L68.99533333333332,16.09978838516639L69.42866666666667,76.5091185061769L70.798,54.99502700833942L71.344,46.27480690416202L71.58666666666666,296.152577240782L71.786,231.649370346049L72.228,61.452628967987195L72.52266666666667,76.25237401496534L72.63533333333334,28.75187250604027L73.23333333333333,195.6105953501114L73.30266666666667,109.33978911918926L73.51933333333334,194.4603608493185L73.658,298.8392628417773L73.762,163.16419335099104L74.14333333333333,27.885645303002093L74.646,117.69505863200703L74.83666666666666,274.42188174099743L74.88,124.87468591908161L74.91466666666668,16.095504015495447L75.634,6.144634470676943L75.78999999999999,-3.3713257298117054L76.102,15.262595756275742L76.28399999999999,165.0864175092852L76.56133333333332,-20.934964034547622L76.57866666666666,40.620816400766735L76.78666666666666,222.55416003284466L76.882,244.8410563452L77.78333333333335,21.55421736222607L78.25999999999999,4.278690610885276L78.416,87.80727866905825L78.45933333333333,-73.44616529715924L78.572,237.02909497772765L78.61533333333334,134.997833205387L78.754,16.089483841322284L78.79733333333333,22.08736376619674L78.87533333333333,108.51838656136003L79.014,98.69585839392278L79.51666666666667,165.68145815617487L79.924,138.68897206484422L80.01066666666668,191.90171483794057L80.184,28.537003709654183L80.63466666666666,16.089555766940315L80.98133333333334,15.68634792941239L81.05066666666666,119.50633752282539L81.12866666666666,-355.58137704389674L81.26733333333333,15.754701242772411L81.62266666666667,42.7723828878423L81.64866666666667,57.310648340350845L81.744,-179.53387015461078L82.27266666666667,34.617845790354856L82.316,103.11511228322473L82.33333333333333,93.38443313138981L82.81866666666667,15.8504989795465L83.36466666666666,29.80229972116649L83.39066666666666,135.73209787566552L83.44266666666667,16.107968725140736L83.77199999999999,16.08983148181929L83.89333333333333,16.156686942986124L84.14466666666667,135.27151018609715L84.54333333333334,267.72843567629087L84.72533333333334,176.72106969356537L85.02000000000001,-19.194861537639294L85.28,19.975583010253928L85.41,16.04961067443824L85.53133333333334,16.585341747305957L86.02533333333332,146.44831984193826L86.12066666666666,163.93847264070064L86.12933333333334,190.62436379297552L86.372,200.72859464145517L86.40666666666667,59.93700632831843L86.42399999999999,227.14236720143393L86.52799999999999,122.82208458854902L86.736,102.37371498905122L86.84,27.963091962603013L86.90933333333334,34.534761211131055L86.96133333333334,-40.92780171612023L87.05666666666666,224.92655465353957L87.126,19.67224083239985L87.14333333333333,225.37935040103778L87.49000000000001,173.344317715234L87.568,279.10287295823747L87.88000000000001,-11.464895375951356L87.932,83.29777610917914L88.07066666666667,42.06185666877056L88.65133333333333,-41.986253133128315L88.67733333333334,60.23594118893908L88.90266666666666,-68.36536353849806L89.24066666666667,-150.54175595122135L89.46600000000001,3.4995323666794556L89.61333333333333,184.2869135800495L89.76066666666667,204.14317949543792L90.10733333333334,154.4804215542972L90.15933333333334,2.6145175925498303L90.402,289.48708626670253L90.896,158.34198816823348L91.41600000000001,326.4459457698871L91.69333333333334,-3.550445995050158L92.07466666666667,15.617126732312412L92.26533333333333,16.089378350416617L92.42999999999999,111.35949646658264L92.43866666666666,66.12367946528617L92.68133333333333,15.031244567429397L92.88933333333334,133.99219317420977L93.00200000000001,16.277526179921207L93.418,16.089515009091198L93.53933333333333,16.089737978500732L93.58266666666667,16.089433493390118L94.068,108.87393287802115L94.16333333333334,141.80425044250757L94.28466666666667,16.119424078451516L94.458,16.09317722200994L94.57933333333334,67.80287594731304L95.27266666666667,284.57480623361397L95.53266666666667,241.44762961083853L95.76666666666667,25.472175909219484L95.81866666666666,17.694774052503885L95.89666666666668,18.32628435979528L96.37333333333332,128.9932068072852L96.45133333333334,119.92293070870537L96.72866666666667,66.7231045780407L96.76333333333332,97.6233994625932L97.032,170.45284788903186L97.084,258.97530360756946L97.55199999999999,192.30071022234517L97.74266666666666,16.089538984294727L97.76,16.0895449780963L98.15,81.89335047665305L98.23666666666668,16.4723930516479L98.51400000000001,54.36108958601569L98.55733333333333,133.24419071068138L98.61800000000001,85.75712880337694L98.96466666666666,182.96049727524883L98.99933333333333,58.082575062935405L99.554,16.49629932929929L99.736,16.089255627326718L99.97,33.31760441710832L100.18666666666667,123.61398565494031L100.698,16.089375952898266L100.73266666666667,16.089354375210238L101.00133333333333,126.17305123242971L101.52133333333333,186.56491781326687L101.868,49.68149192764592L102.206,-1.3888308996048997L102.31,16.23368032719496L102.32733333333334,11.212770951960747L102.38799999999999,117.10042556362565L102.518,185.43652472547677L102.67399999999999,-6.145977861427864L102.79533333333333,23.22223015970667L102.908,46.39705348454033L102.95133333333334,20.7027761184912L103.038,38.04750055999135L103.636,16.089313617352555L104.34666666666666,81.76368057300252L104.42466666666667,293.05140827206725L104.50266666666666,67.65151447569951L104.58933333333333,17.490614119194174L104.82333333333334,16.08384727023167L105.49933333333334,16.089404723141342L105.508,17.3571429278431L105.68133333333333,16.089397530580573L105.78533333333333,-129.1791877576404L105.85466666666667,156.01188581157476L106.21,38.53084521575576L106.21866666666668,206.18786900786853L106.72999999999999,227.71448755103415L106.82533333333333,176.25573491313577L106.938,16.089186548754224L107.05066666666667,74.43107948168604L107.198,165.82170112583447L107.432,15.76200169311198L107.51866666666666,34.85030489596431L107.63133333333333,16.090310985923814L107.89999999999999,16.096515769496914L107.90866666666666,16.096690788210747L107.91733333333333,16.096400688067344L108.00399999999999,16.103336714977445L108.11666666666666,16.0995294524986L108.16866666666667,16.10198451421618L108.28999999999999,16.120244032265344L108.89666666666666,17.923570383421477L109.13066666666667,56.65550784489393L109.39933333333333,12.42130978313136L109.54666666666667,16.874556768939566L110.006,102.52495658463289L110.15333333333334,20.904899095790977L110.214,125.12561042894694L110.682,15.51591057548549L110.77733333333333,178.18690182340583L111.31466666666667,10.035111437369109L111.34066666666668,198.3595205868425L111.34933333333333,85.68456184749745L111.774,-20.334034477593377L112.20733333333332,79.8477499063804L112.25933333333334,174.5133128150112L112.268,80.75146534147841L112.32,142.2189016366716L112.69266666666667,318.90485628397965L112.84,363.62849394850093L113.21266666666666,114.86466564403169L113.31666666666668,22.511482919201196L113.51599999999999,212.57246646412054L113.672,28.017009954052877L113.83666666666667,27.127183655694918L113.92333333333333,59.582556877348736L113.94066666666666,103.93063492169179L114.47800000000001,16.089355573963694L114.56466666666667,15.930537817856433L114.62533333333334,-12.938492475754824L114.80733333333333,16.08965166777152L115.03266666666667,16.08993457521124L115.648,49.34599188041067L116.12466666666667,82.4938694581982L116.80933333333333,167.67947992940685L117.208,63.589661984651514L117.21666666666665,39.66164481488522L117.26,44.84016352090772L117.32933333333332,21.092554159884457L117.48533333333334,36.10631051500834L117.832,-8.218802278533335L118.04,16.089416710744512L118.092,60.17855653249318L118.10066666666667,22.827982615388464L118.39533333333333,19.117039298938337L118.49066666666667,79.50711616808124L118.82000000000001,16.089409518183743L118.85466666666667,16.168046993973586L118.90666666666667,94.81601068512958L118.976,16.08943109586605L119.87733333333334,178.16986743928018L119.886,305.0822387540035L120.432,82.03239468599415L120.51866666666668,47.352330597837195L120.562,29.420003067998376L120.85666666666667,23.435352512153738L120.9,58.700544997816905L121.01266666666666,2.0463186876414268L121.03,11.882506354295229L121.57600000000001,13.028673498788761L121.95733333333334,96.67253079036757L122.02666666666667,37.71165287226374L122.31266666666666,16.091697015135686L123.04933333333334,223.29377117414367L123.396,52.38498115140562L123.56933333333333,154.4075369269333L123.64733333333334,151.11306785686278L123.82933333333334,174.66761724320662L124.098,16.09797585941851L124.11533333333333,125.71086919163776L124.14999999999999,26.935886233296255L124.33200000000001,-16.098436662884954L124.358,16.08944967665327L124.39266666666667,16.088486472755662L124.53133333333334,70.85197076779282L124.60933333333334,19.22766577109193L124.66133333333333,14.086038913870805L125.294,61.1382990279764L125.44133333333333,-228.5414096808738L125.918,31.824460031861562L126.34266666666666,149.3272985856218L126.854,266.36314357436174L127.20066666666668,106.96046566385351L127.23533333333333,147.16598168180576L127.504,16.089853059495876L127.72066666666667,-7.415280729304696L128.03266666666667,-0.17211015464800797L128.30133333333333,10.992134245379757L128.31866666666667,58.54149647566107L128.42266666666666,115.29137636699967L128.75199999999998,-5.553321249121578L128.856,37.08605432640549L129.09866666666667,20.14380879187294L129.13333333333333,64.85675763509194L129.15066666666667,146.35289852058682L129.33266666666665,6.420249696977063L129.34133333333332,-34.44608669266615L129.47133333333335,138.96823526863855L129.57533333333333,41.00407356064004L129.80933333333334,79.28394895339045L129.82666666666668,119.33930226004767L129.844,149.1035739473829L130.48533333333333,63.748419807430096L130.89266666666666,87.29866864113137L131.3,271.0504642460834L131.82,10.807460722965928L132.46133333333333,16.089603717358766L132.53933333333333,63.053342611962826L133.12,79.80793308240192L133.49266666666665,135.5460622618398L133.52733333333333,126.88928654751825L133.67466666666667,203.4130745234645L133.86533333333335,135.9130986961536L134.108,25.930068635746878L134.14266666666668,153.9750601668334L134.32466666666667,16.089495828925827L134.43733333333333,65.55108260845934L134.55866666666665,102.81279691850597L134.66266666666667,16.09703752948654L134.67133333333334,16.089455071075275L134.76666666666665,16.089462863015633L135.14800000000002,101.52673687982711L135.98000000000002,16.330890189576234L136.31799999999998,86.88874056262217L136.51733333333334,16.753829617264923L136.61266666666666,15.033047577870915L136.98533333333333,16.089383145453315L137.37533333333332,16.08942630082935L137.7133333333333,16.08958693470746L137.97333333333333,136.77032021229917L138.294,150.56011568475515L138.87466666666668,93.57933357777074L138.96133333333333,172.40565242305058L139.11733333333333,70.63458157783712L139.18666666666667,98.03698376007378L139.44666666666666,16.089440685950887L139.75,34.48549066359092L139.91466666666668,-10.930784719149502L139.93200000000002,27.602758846145164L139.958,15.626457863900864L140.07066666666665,88.9725875808561L140.55599999999998,54.59607058364515L140.72933333333333,24.54748966079998L141.30133333333333,120.18141939618032L141.55266666666665,75.71140345224094L141.7086666666667,111.94929853088053L142.064,38.98510494929293L142.28933333333333,40.39625562720572L142.76600000000002,16.08964687272338L142.844,-63.081359918250456L143.06933333333333,237.77529930077833L143.416,136.23222068053752L143.90133333333333,162.48562308510932L143.99666666666664,21.544589069193037L144.118,16.089543779337127L144.23066666666665,16.08965406528987L144.38666666666666,94.84918038314208L144.55133333333336,16.09165839254008L144.64666666666668,16.063964032282282L144.69866666666667,300.6965981040319L144.80266666666665,197.99831012767655L144.95,16.832741620875478L145.25333333333333,65.71010715540879L145.314,325.03558027998287L146.042,149.13458587682211L146.08533333333332,27.120929123733234L146.14600000000002,16.08942150578693L146.198,16.089154182239337L146.47533333333334,59.10053535328585L146.484,207.72708924440667L146.52733333333333,135.61454743883488L146.64866666666668,163.24092599897727L146.71800000000002,14.482622355053364L146.72666666666666,59.738072053465814L147.29866666666666,16.089149387202635L147.316,56.773642677379854L147.654,-71.1387135167183L148.018,16.089512611569997L148.41666666666666,42.798884481583194L148.60733333333334,16.08948623884295L149.474,31.304385359938763L149.604,20.11046639745207L149.75133333333332,314.47956064267254L149.82066666666668,146.40446918948805L150.11533333333335,16.089488636363622L150.39266666666668,-0.1926089560941223L150.50533333333334,16.33341718569292L150.54,126.99365062084556L150.80866666666665,71.20357316300611L150.99933333333334,16.08969841941936L151.034,16.089512611569997L151.16400000000002,68.0017682655545L151.84866666666665,16.291942466828655L152.24733333333333,236.1959325811741L152.256,286.4671452971683L152.29066666666665,16.082322447326064L152.53333333333333,110.90921811575323L152.63733333333332,132.91453162309796L152.72400000000002,16.089459866114847L152.75866666666667,16.089311219834205L152.88,16.08970291477055L153.01000000000002,65.80524976498616L153.20933333333335,293.08204858580774L153.28733333333335,12.31815645772572L153.40866666666665,13.089984095277682L154.44,83.80234631483273L154.57866666666666,108.3805650875438L154.7,16.08951980413077L154.82133333333334,12.293693131138818L154.89933333333335,161.85514708320525L155.15066666666667,17.91518617883146L155.31533333333334,186.631592862181L155.454,48.80129017619499L155.506,166.50735606519842L155.636,16.08947185371945L155.688,61.75789627999025L155.93066666666667,30.73064518545817L155.948,98.2101207128726L156.97066666666666,149.82995077476582L157.17000000000002,56.1803342391504L157.21333333333334,201.35403585002163L157.47333333333333,20.123671866197995L157.85466666666665,16.09119087601587L157.94133333333335,261.6454942665825L158.27066666666667,258.8823277572678L158.55666666666667,88.80449141519651L158.626,123.16383916774595L158.79066666666668,22.05816421251404L158.886,180.91080893229014L159.25,56.69440162342718L159.666,181.14348831010813L159.67466666666667,16.146340441506624L160.46333333333334,179.86031128999522L160.62800000000001,227.26682249769908L160.71466666666666,34.35498462461824L161.00933333333333,52.27530956676821L161.26066666666665,134.11594120188698L161.36466666666666,234.85130710713565L161.434,16.091814231381488L161.954,212.50815297303382L162.39600000000002,217.91097771604967L162.422,57.50579153569626L162.43933333333334,6.265374359179987L162.49133333333333,205.49662784542042L163.06333333333333,149.0357720637694L163.34933333333333,77.52776508680968L163.74800000000002,182.86712583404204L163.91266666666667,5.597005543608573L163.93866666666665,129.08234662456775L164.05133333333333,16.089490434504174L164.57133333333334,216.66320008814165L165.152,17.752923293265408L165.57666666666668,-208.96867455601353L165.594,106.29849822838281L165.68066666666667,63.677905728596L165.98399999999998,36.31951003765094L166.062,47.316775366790914L166.686,107.44170199990779L166.72066666666666,11.71268509761482L167.22333333333333,94.41551085652529L167.57866666666666,16.08967324544811L167.83866666666665,5.831160895068675L167.856,41.542227036616L167.97733333333335,15.950780079911706L168.00333333333333,161.4102032157931L168.21133333333333,15.472575389972247L168.558,93.73674878899261L168.59266666666667,42.97205739719158L169.03466666666668,26.954387600361684L169.15599999999998,15.242967273551498L169.48533333333333,173.33350489716128L169.51133333333334,31.47356790213696L169.676,146.74525277282703L170.05733333333333,55.698378646905006L170.10933333333332,-15.413222267938009L170.118,15.905429782985744L170.2566666666667,16.136098834481643L170.36066666666667,-23.951467558868593L171.00199999999998,96.08595339132641L171.01933333333335,179.5082713472657L171.38333333333333,238.50340234301984L171.45266666666666,19.339275039400405L172.43200000000002,23.68474036113581L172.68333333333334,111.41120499292049L172.75266666666667,73.7756273085463L173.48066666666668,57.365123006123625L173.54133333333334,16.08944083579649L173.89666666666665,209.00955899593166L174.36466666666666,222.08381443428382L174.49466666666666,62.184418198208064L174.50333333333333,9.616765813748556L174.63333333333333,25.47707359434571L174.83266666666665,260.05354056363416L174.98000000000002,139.65638362946495L175.058,9.215001293008257L175.35266666666666,103.36502384062094L175.61266666666666,132.22575990690595L175.67333333333332,26.421028416434464L176.072,16.24339507379197L176.49666666666664,26.615805240657537L176.58333333333334,198.20549187352034L176.644,73.77662227961065L176.65266666666668,143.41103281059554L176.68733333333333,60.26872728364965L177.02533333333332,16.603907875524524L177.12066666666666,116.63203394438393L177.268,16.100417734333586L177.372,16.08957494710427L177.72733333333332,173.63915281556547L177.75333333333333,72.80098122540353L177.98733333333334,173.66243274095044L178.048,105.31401032302529L178.23866666666666,183.46371288174254L178.37733333333335,169.61244498015463L178.44666666666666,83.80730918255126L178.62866666666667,130.86057569340548L178.73266666666666,16.08957015206757L178.802,120.11660242575982L178.83666666666664,16.042279058086375L178.87133333333333,-33.78787437389309L179.478,154.1250250826759L180.076,16.08972239462574L180.56133333333332,160.85974446514788L180.67399999999998,313.5437364124439L181.18533333333332,144.6851591903039L181.194,-1.9146671133084103L181.298,19.52535635596325L181.402,210.41493764291093L181.532,148.62808566705576L181.61866666666666,24.70034733513603L181.73999999999998,62.398025299358935L181.85266666666666,16.089506617768404L181.93066666666667,16.089507816529014L182.208,19.612403587264865L182.76266666666666,20.27073840435794L183.02266666666665,110.65256353156556L183.06599999999997,10.461610878830948L183.07466666666667,14.30187327423216L183.17866666666666,21.619396208417694L183.274,244.84438889888537L184.25333333333333,104.24260030697438L184.262,58.52724920927587L184.314,108.48528878896666L184.34,76.35129571644673L184.44400000000002,104.65489593711257L184.57399999999998,272.8508583932099L185.24133333333333,16.089603717358766L185.46666666666667,11.705042251359286L185.51866666666666,108.57722771159288L185.52733333333333,16.20522175723411L186.04733333333334,81.3174540320496L186.27266666666668,103.55117333667691L186.66266666666667,30.890030858953565L186.68866666666665,111.04695567634718L186.87933333333334,37.90761871687771L187.20866666666666,66.95580193726346L187.29533333333333,156.72677851510656L187.33,19.227862255400396L187.33866666666668,16.858526346580632L188.162,282.7138986656104L188.17933333333335,85.9546065844426L188.22266666666667,-78.96036686136557L188.76,20.962684213105756L189.11533333333335,201.26976299963212L189.54866666666666,-303.3624425376342L189.618,17.340288357765186L189.748,-6.2504693030390435L189.83466666666666,64.20362506316847L189.86933333333332,-194.5265376934443L189.99066666666667,169.7462146440944L190.38066666666666,87.14438818814233L190.4586666666667,13.570730812664374L190.66666666666666,237.76041069762272L190.69266666666667,38.49854761587496L191.08266666666665,16.08937984886702L191.69799999999998,16.119332974423298L191.83666666666667,63.26896662734955L192.0186666666667,42.809634364739225L192.07933333333332,16.08962769256514L192.426,16.090416476868427L192.96333333333334,17.513659068826115L192.98066666666665,16.0549451578555L193.63933333333333,52.656521341848084L193.81266666666664,182.2088385927491L194.10733333333334,-21.461573448656573L194.246,0.5065425260055855L194.34133333333332,132.6531179604459L194.72266666666667,175.8149267688224L194.85266666666666,170.4789209259589L194.8613333333333,-2.4605750700945603L194.89600000000002,142.7988019407388L195.00866666666667,166.15657482080329L195.1386666666667,160.25003099195996L195.66733333333335,66.11930998392529L195.988,16.107472999995107L196.17866666666666,209.877401528499L197.71266666666665,16.089522201651967L197.89466666666667,4.3817697629962105L198.15466666666666,16.089588133472354L198.432,-450.45704667354846L198.51,97.03145761112683L198.67466666666667,61.028651418545365L198.83066666666667,17.35848488382774L199.212,16.094880660129846L199.29,23.363967833638352L199.46333333333334,17.467698598215392L199.654,127.73937543976882L199.85333333333335,16.089637282638545L200.00066666666666,16.604535398455308L200.02666666666667,16.20539430145614L200.05266666666665,41.17576900415588L200.37333333333333,332.7030670538714L200.61599999999999,11.419549989260044L200.772,94.22535150720398L200.78933333333333,210.69903185078874L201.50866666666667,16.074263181851222L201.60399999999998,55.887042542729L201.838,16.089443083472087L202.06333333333333,15.299186697506554L202.28,20.49079783292306L202.306,18.81686259755025L203.22466666666665,42.980787369210944L203.25933333333336,-2.159010429025243L203.38933333333333,225.76391271120784L203.40666666666667,9.13676420082231L203.45,121.02630566864866L203.50199999999998,42.732578051467L203.61466666666666,67.71502479737285L203.684,103.6404510113961L203.99599999999998,187.38947311073372L204.13466666666667,144.85115153160453L204.75866666666667,-30.16314383917913L204.802,-0.9351690477765887L204.99266666666665,16.08952699669439L205.01,16.150017638783563L205.114,93.34267431569539L205.18333333333334,-21.290795056784365L205.23533333333333,16.10367476626524L205.46066666666667,16.037591902314446L205.49533333333332,16.089492232644723L205.70333333333335,316.6200670673596L205.79866666666666,17.063380717996704L205.998,153.18460960042745L206.10199999999998,132.92925239980897L206.37933333333334,15.728469089143713L206.95133333333334,71.86710498069243L207.064,18.969310071089804L207.31533333333334,20.05001591149167L207.41066666666666,131.53782732293686L207.71400000000003,-2.4302928859992554L207.80933333333334,44.74381016340868L208.72799999999998,35.15674849152988L208.74533333333332,29.0335646979299L208.82333333333335,13.41524373249227L208.858,98.55438070113516L208.86666666666667,85.809628511525L208.92733333333334,16.258409394594636L209.066,16.08987943220917L209.10933333333332,16.089613307432167L209.50799999999998,15.694547449990816L209.54266666666666,41.28307004026348L209.56,191.25147127838466L209.898,82.53682104040952L209.924,76.64488410604693L210.04533333333333,-18.95709042536856L210.72133333333335,156.20109814024445L210.78199999999998,-247.36858781325543L211.00733333333332,114.66504807579753L212.89666666666665,195.30271773751485L213.10466666666667,182.80727173134005L213.33,41.009764675252036L213.33866666666665,197.27961735393512L213.52933333333334,74.62181423596022L213.61599999999999,120.34071066730063L213.75466666666668,19.909417434475127L213.95399999999998,111.52974440701391L214.33533333333335,203.5787192242728L214.71666666666667,24.886586738215883L214.80333333333334,96.4226012515666L214.82066666666668,140.3491711927239L214.88133333333334,219.24505409928545L215.0113333333333,17.051902587947207L215.62666666666667,133.4801786669784L215.644,172.14517379344693L215.96466666666666,-8.384382545974491L216.38066666666668,16.17308538710418L216.56266666666667,13.977612728820532L216.80533333333332,203.04418001065707L216.87466666666666,281.858894856054L216.96133333333333,10.260777318098745L217.26466666666667,26.88806094116509L217.58533333333332,16.089560561982733L217.9406666666667,188.6010601646267L218.062,182.45394911506975L218.43466666666666,75.2757979277098L218.69466666666665,19.04699329854735L218.90266666666665,2.21342138068708L219.11066666666667,176.9851925545372L219.11933333333334,-10.072781011896128L220.04666666666668,14.35897734584101L220.33266666666668,20.738688729957413L220.5666666666667,152.796906538223L220.87,130.3364656945606L220.922,48.023282741894946L220.95666666666668,20.269799625183538L221.47666666666666,32.32655779435828L221.51999999999998,14.957238911861408L221.63266666666667,264.3638271399858L221.832,-4.586852209801299L221.936,19.699195707386178L222.59466666666665,18.673685100092285L222.94133333333335,16.734488837017125L223.288,30.0972277254226L223.314,50.38674959511792L223.6,184.73611304659227L223.79066666666668,86.16001416501504L223.87733333333333,16.055122574967967L224.15466666666666,73.36931349239735L224.29333333333335,76.5488454231315L224.536,237.21029958746988L224.54466666666667,150.7289251128042L225.35066666666668,-13.701104830664745L225.68,122.49294096790254L226.122,16.0896240962819L226.13933333333333,16.08943109586605L226.45133333333334,93.95817780122161L226.60733333333334,29.120435861309726L226.63333333333335,232.5785774193196L227.24,-22.050491427219555L227.64733333333334,16.121203040520143L227.91600000000003,1.502620945192489L228.09799999999998,223.60249990656632L228.54866666666666,183.97318601709875L229.04266666666666,115.17045141987248L229.268,20.156225326484243L229.90933333333334,69.36658086335625L230.00466666666668,54.146619377435506L230.0306666666667,22.045685117598623L230.29066666666668,255.14922029906037L230.34266666666667,85.23735831688496L230.73266666666666,16.07072803737934L231.59066666666666,16.171829082778416L232.11933333333334,140.2183624667708L232.3273333333333,119.87797719676216L232.37933333333334,121.22091241875154L232.56133333333332,134.60052807303146L232.76933333333332,21.060592587505436L232.96,17.134217806544736L233.07266666666666,182.02147235496986L233.454,28.328615711239916L233.74866666666668,16.088880574539097L233.78333333333333,16.089407120659693L233.93066666666667,-0.05624247761443257L233.948,22.898346849182744L234.93599999999998,231.13723596278578L235.196,-4.309483047310182L235.41266666666667,16.45648671971254L235.78533333333334,67.15161943528801L235.90666666666667,352.5222912754186L236.02800000000002,15.865147245306185L236.25333333333333,16.08935677272859L236.33133333333333,16.844982134391582L236.73866666666666,126.91342958033253L236.7733333333333,185.310990544925L236.86,15.583578207308642L236.95533333333333,16.00824145584731L236.98999999999998,18.39202437566101L237.016,22.3893839361871L237.08533333333335,-13.61806370650248L237.2673333333333,-56.22472061758691L237.32799999999997,16.088817330585268L237.51,15.983568820323766L237.81333333333333,221.3482790780677L237.98666666666668,28.37246036988851L238.004,17.91184894248859L238.15133333333335,140.33835837465116L238.27266666666665,58.99185574281198L238.33333333333331,123.93817839547145" fill="none"></path></g></g></g></g></g></g><g transform="translate(70, 176)" clip-path="url(#clip_1)"><clipPath id="clip_1"><rect width="260" height="23"></rect></clipPath><g><g><line x1="0" y1="0" x2="0" y2="5" style="visibility: inherit;" fill="rgb(0, 0, 0)" stroke="rgb(204, 204, 204)" stroke-width="1.333333px"></line><line x1="21.666666666666664" y1="0" x2="21.666666666666664" y2="5" style="visibility: inherit;" fill="rgb(0, 0, 0)" stroke="rgb(204, 204, 204)" stroke-width="1.333333px"></line><line x1="43.33333333333333" y1="0" x2="43.33333333333333" y2="5" style="visibility: inherit;" fill="rgb(0, 0, 0)" stroke="rgb(204, 204, 204)" stroke-width="1.333333px"></line><line x1="65" y1="0" x2="65" y2="5" style="visibility: inherit;" fill="rgb(0, 0, 0)" stroke="rgb(204, 204, 204)" stroke-width="1.333333px"></line><line x1="86.66666666666666" y1="0" x2="86.66666666666666" y2="5" style="visibility: inherit;" fill="rgb(0, 0, 0)" stroke="rgb(204, 204, 204)" stroke-width="1.333333px"></line><line x1="108.33333333333334" y1="0" x2="108.33333333333334" y2="5" style="visibility: inherit;" fill="rgb(0, 0, 0)" stroke="rgb(204, 204, 204)" stroke-width="1.333333px"></line><line x1="130" y1="0" x2="130" y2="5" style="visibility: inherit;" fill="rgb(0, 0, 0)" stroke="rgb(204, 204, 204)" stroke-width="1.333333px"></line><line x1="151.66666666666669" y1="0" x2="151.66666666666669" y2="5" style="visibility: inherit;" fill="rgb(0, 0, 0)" stroke="rgb(204, 204, 204)" stroke-width="1.333333px"></line><line x1="173.33333333333331" y1="0" x2="173.33333333333331" y2="5" style="visibility: inherit;" fill="rgb(0, 0, 0)" stroke="rgb(204, 204, 204)" stroke-width="1.333333px"></line><line x1="195" y1="0" x2="195" y2="5" style="visibility: inherit;" fill="rgb(0, 0, 0)" stroke="rgb(204, 204, 204)" stroke-width="1.333333px"></line><line x1="216.66666666666669" y1="0" x2="216.66666666666669" y2="5" style="visibility: inherit;" fill="rgb(0, 0, 0)" stroke="rgb(204, 204, 204)" stroke-width="1.333333px"></line><line x1="238.33333333333331" y1="0" x2="238.33333333333331" y2="5" style="visibility: inherit;" fill="rgb(0, 0, 0)" stroke="rgb(204, 204, 204)" stroke-width="1.333333px"></line><line x1="260" y1="0" x2="260" y2="5" style="visibility: inherit;" fill="rgb(0, 0, 0)" stroke="rgb(204, 204, 204)" stroke-width="1.333333px"></line></g><g transform="translate(0, 8)"><text style="text-anchor: middle; visibility: hidden; font-family: Roboto, sans-serif; font-size: 16px; font-weight: 200;" x="0" y="0" dx="0em" dy="0.95em" fill="rgb(33, 33, 33)" stroke="none" stroke-width="1.333333px">-10k</text><text style="text-anchor: middle; visibility: inherit; font-family: Roboto, sans-serif; font-size: 16px; font-weight: 200;" x="21.666666666666664" y="0" dx="0em" dy="0.95em" fill="rgb(33, 33, 33)" stroke="none" stroke-width="1.333333px">0</text><text style="text-anchor: middle; visibility: hidden; font-family: Roboto, sans-serif; font-size: 16px; font-weight: 200;" x="43.33333333333333" y="0" dx="0em" dy="0.95em" fill="rgb(33, 33, 33)" stroke="none" stroke-width="1.333333px">10k</text><text style="text-anchor: middle; visibility: inherit; font-family: Roboto, sans-serif; font-size: 16px; font-weight: 200;" x="65" y="0" dx="0em" dy="0.95em" fill="rgb(33, 33, 33)" stroke="none" stroke-width="1.333333px">20k</text><text style="text-anchor: middle; visibility: hidden; font-family: Roboto, sans-serif; font-size: 16px; font-weight: 200;" x="86.66666666666666" y="0" dx="0em" dy="0.95em" fill="rgb(33, 33, 33)" stroke="none" stroke-width="1.333333px">30k</text><text style="text-anchor: middle; visibility: inherit; font-family: Roboto, sans-serif; font-size: 16px; font-weight: 200;" x="108.33333333333334" y="0" dx="0em" dy="0.95em" fill="rgb(33, 33, 33)" stroke="none" stroke-width="1.333333px">40k</text><text style="text-anchor: middle; visibility: hidden; font-family: Roboto, sans-serif; font-size: 16px; font-weight: 200;" x="130" y="0" dx="0em" dy="0.95em" fill="rgb(33, 33, 33)" stroke="none" stroke-width="1.333333px">50k</text><text style="text-anchor: middle; visibility: inherit; font-family: Roboto, sans-serif; font-size: 16px; font-weight: 200;" x="151.66666666666669" y="0" dx="0em" dy="0.95em" fill="rgb(33, 33, 33)" stroke="none" stroke-width="1.333333px">60k</text><text style="text-anchor: middle; visibility: hidden; font-family: Roboto, sans-serif; font-size: 16px; font-weight: 200;" x="173.33333333333331" y="0" dx="0em" dy="0.95em" fill="rgb(33, 33, 33)" stroke="none" stroke-width="1.333333px">70k</text><text style="text-anchor: middle; visibility: inherit; font-family: Roboto, sans-serif; font-size: 16px; font-weight: 200;" x="195" y="0" dx="0em" dy="0.95em" fill="rgb(33, 33, 33)" stroke="none" stroke-width="1.333333px">80k</text><text style="text-anchor: middle; visibility: hidden; font-family: Roboto, sans-serif; font-size: 16px; font-weight: 200;" x="216.66666666666669" y="0" dx="0em" dy="0.95em" fill="rgb(33, 33, 33)" stroke="none" stroke-width="1.333333px">90k</text><text style="text-anchor: middle; visibility: inherit; font-family: Roboto, sans-serif; font-size: 16px; font-weight: 200;" x="238.33333333333331" y="0" dx="0em" dy="0.95em" fill="rgb(33, 33, 33)" stroke="none" stroke-width="1.333333px">100k</text><text style="text-anchor: middle; visibility: hidden; font-family: Roboto, sans-serif; font-size: 16px; font-weight: 200;" x="260" y="0" dx="0em" dy="0.95em" fill="rgb(33, 33, 33)" stroke="none" stroke-width="1.333333px">110k</text></g><line x1="0" y1="0" x2="260" y2="0" fill="rgb(0, 0, 0)" stroke="rgb(204, 204, 204)" stroke-width="1.333333px"></line></g></g></g></g></svg>