<svg viewBox="0 0 330 200" xmlns="http://www.w3.org/2000/svg"><g><g><g><g><g><line x1="50" y1="176.984375" x2="45" y2="176.984375" style="visibility: inherit;" fill="rgb(0, 0, 0)" stroke="rgb(204, 204, 204)" stroke-width="1.333333px"></line><line x1="50" y1="154.8613284546591" x2="45" y2="154.8613284546591" style="visibility: inherit;" fill="rgb(0, 0, 0)" stroke="rgb(204, 204, 204)" stroke-width="1.333333px"></line><line x1="50" y1="132.73828190931818" x2="45" y2="132.73828190931818" style="visibility: inherit;" fill="rgb(0, 0, 0)" stroke="rgb(204, 204, 204)" stroke-width="1.333333px"></line><line x1="50" y1="110.61523536397726" x2="45" y2="110.61523536397726" style="visibility: inherit;" fill="rgb(0, 0, 0)" stroke="rgb(204, 204, 204)" stroke-width="1.333333px"></line><line x1="50" y1="88.49218881863634" x2="45" y2="88.49218881863634" style="visibility: inherit;" fill="rgb(0, 0, 0)" stroke="rgb(204, 204, 204)" stroke-width="1.333333px"></line><line x1="50" y1="66.36914227329542" x2="45" y2="66.36914227329542" style="visibility: inherit;" fill="rgb(0, 0, 0)" stroke="rgb(204, 204, 204)" stroke-width="1.333333px"></line><line x1="50" y1="44.246095727954504" x2="45" y2="44.246095727954504" style="visibility: inherit;" fill="rgb(0, 0, 0)" stroke="rgb(204, 204, 204)" stroke-width="1.333333px"></line><line x1="50" y1="22.12304918261359" x2="45" y2="22.12304918261359" style="visibility: inherit;" fill="rgb(0, 0, 0)" stroke="rgb(204, 204, 204)" stroke-width="1.333333px"></line><line x1="50" y1="0.0000026372726613689557" x2="45" y2="0.0000026372726613689557" style="visibility: inherit;" fill="rgb(0, 0, 0)" stroke="rgb(204, 204, 204)" stroke-width="1.333333px"></line></g><g transform="translate(40, 0)"><text style="text-anchor: end; visibility: hidden; font-family: Roboto, sans-serif; font-size: 16px; font-weight: 200;" x="0" y="176.984375" dx="0em" dy="0.3em" fill="rgb(33, 33, 33)" stroke="none" stroke-width="1.333333px">0</text><text style="text-anchor: end; visibility: inherit; font-family: Roboto, sans-serif; font-size: 16px; font-weight: 200;" x="0" y="154.8613284546591" dx="0em" dy="0.3em" fill="rgb(33, 33, 33)" stroke="none" stroke-width="1.333333px">0.05</text><text style="text-anchor: end; visibility: hidden; font-family: Roboto, sans-serif; font-size: 16px; font-weight: 200;" x="0" y="132.73828190931818" dx="0em" dy="0.3em" fill="rgb(33, 33, 33)" stroke="none" stroke-width="1.333333px">0.1</text><text style="text-anchor: end; visibility: inherit; font-family: Roboto, sans-serif; font-size: 16px; font-weight: 200;" x="0" y="110.61523536397726" dx="0em" dy="0.3em" fill="rgb(33, 33, 33)" stroke="none" stroke-width="1.333333px">0.15</text><text style="text-anchor: end; visibility: hidden; font-family: Roboto, sans-serif; font-size: 16px; font-weight: 200;" x="0" y="88.49218881863634" dx="0em" dy="0.3em" fill="rgb(33, 33, 33)" stroke="none" stroke-width="1.333333px">0.2</text><text style="text-anchor: end; visibility: inherit; font-family: Roboto, sans-serif; font-size: 16px; font-weight: 200;" x="0" y="66.36914227329542" dx="0em" dy="0.3em" fill="rgb(33, 33, 33)" stroke="none" stroke-width="1.333333px">0.25</text><text style="text-anchor: end; visibility: hidden; font-family: Roboto, sans-serif; font-size: 16px; font-weight: 200;" x="0" y="44.246095727954504" dx="0em" dy="0.3em" fill="rgb(33, 33, 33)" stroke="none" stroke-width="1.333333px">0.3</text><text style="text-anchor: end; visibility: inherit; font-family: Roboto, sans-serif; font-size: 16px; font-weight: 200;" x="0" y="22.12304918261359" dx="0em" dy="0.3em" fill="rgb(33, 33, 33)" stroke="none" stroke-width="1.333333px">0.35</text><text style="text-anchor: end; visibility: hidden; font-family: Roboto, sans-serif; font-size: 16px; font-weight: 200;" x="0" y="0.0000026372726613689557" dx="0em" dy="0.3em" fill="rgb(33, 33, 33)" stroke="none" stroke-width="1.333333px">0.4</text></g><line x1="50" y1="0" x2="50" y2="176.984375" fill="rgb(0, 0, 0)" stroke="rgb(204, 204, 204)" stroke-width="1.333333px"></line></g></g><g transform="translate(50, 0)" clip-path="url(#clip_0)"><clipPath id="clip_0"><rect width="280" height="176"></rect></clipPath><g><g><g><line x1="0" y1="0" x2="0" y2="176.984375" fill="rgb(0, 0, 0)" stroke="rgb(66, 66, 66)" stroke-width="1.333333px" opacity="0.25"></line><line x1="23.333333333333332" y1="0" x2="23.333333333333332" y2="176.984375" fill="rgb(0, 0, 0)" stroke="rgb(66, 66, 66)" stroke-width="1.333333px" opacity="0.25"></line><line x1="46.666666666666664" y1="0" x2="46.666666666666664" y2="176.984375" fill="rgb(0, 0, 0)" stroke="rgb(66, 66, 66)" stroke-width="1.333333px" opacity="0.25"></line><line x1="70" y1="0" x2="70" y2="176.984375" fill="rgb(0, 0, 0)" stroke="rgb(66, 66, 66)" stroke-width="1.333333px" opacity="0.25"></line><line x1="93.33333333333333" y1="0" x2="93.33333333333333" y2="176.984375" fill="rgb(0, 0, 0)" stroke="rgb(66, 66, 66)" stroke-width="1.333333px" opacity="0.25"></line><line x1="116.66666666666667" y1="0" x2="116.66666666666667" y2="176.984375" fill="rgb(0, 0, 0)" stroke="rgb(66, 66, 66)" stroke-width="1.333333px" opacity="0.25"></line><line x1="140" y1="0" x2="140" y2="176.984375" fill="rgb(0, 0, 0)" stroke="rgb(66, 66, 66)" stroke-width="1.333333px" opacity="0.25"></line><line x1="163.33333333333334" y1="0" x2="163.33333333333334" y2="176.984375" fill="rgb(0, 0, 0)" stroke="rgb(66, 66, 66)" stroke-width="1.333333px" opacity="0.25"></line><line x1="186.66666666666666" y1="0" x2="186.66666666666666" y2="176.984375" fill="rgb(0, 0, 0)" stroke="rgb(66, 66, 66)" stroke-width="1.333333px" opacity="0.25"></line><line x1="210" y1="0" x2="210" y2="176.984375" fill="rgb(0, 0, 0)" stroke="rgb(66, 66, 66)" stroke-width="1.333333px" opacity="0.25"></line><line x1="233.33333333333334" y1="0" x2="233.33333333333334" y2="176.984375" fill="rgb(0, 0, 0)" stroke="rgb(66, 66, 66)" stroke-width="1.333333px" opacity="0.25"></line><line x1="256.66666666666663" y1="0" x2="256.66666666666663" y2="176.984375" fill="rgb(0, 0, 0)" stroke="rgb(66, 66, 66)" stroke-width="1.333333px" opacity="0.25"></line><line x1="280" y1="0" x2="280" y2="176.984375" fill="rgb(0, 0, 0)" stroke="rgb(66, 66, 66)" stroke-width="1.333333px" opacity="0.25"></line></g><g><line x1="0" y1="176.984375" x2="280" y2="176.984375" fill="rgb(0, 0, 0)" stroke="rgb(66, 66, 66)" stroke-width="1.333333px" opacity="0.25"></line><line x1="0" y1="154.8613284546591" x2="280" y2="154.8613284546591" fill="rgb(0, 0, 0)" stroke="rgb(66, 66, 66)" stroke-width="1.333333px" opacity="0.25"></line><line x1="0" y1="132.73828190931818" x2="280" y2="132.73828190931818" fill="rgb(0, 0, 0)" stroke="rgb(66, 66, 66)" stroke-width="1.333333px" opacity="0.25"></line><line x1="0" y1="110.61523536397726" x2="280" y2="110.61523536397726" fill="rgb(0, 0, 0)" stroke="rgb(66, 66, 66)" stroke-width="1.333333px" opacity="0.25"></line><line x1="0" y1="88.49218881863634" x2="280" y2="88.49218881863634" fill="rgb(0, 0, 0)" stroke="rgb(66, 66, 66)" stroke-width="1.333333px" opacity="0.25"></line><line x1="0" y1="66.36914227329542" x2="280" y2="66.36914227329542" fill="rgb(0, 0, 0)" stroke="rgb(66, 66, 66)" stroke-width="1.333333px" opacity="0.25"></line><line x1="0" y1="44.246095727954504" x2="280" y2="44.246095727954504" fill="rgb(0, 0, 0)" stroke="rgb(66, 66, 66)" stroke-width="1.333333px" opacity="0.25"></line><line x1="0" y1="22.12304918261359" x2="280" y2="22.12304918261359" fill="rgb(0, 0, 0)" stroke="rgb(66, 66, 66)" stroke-width="1.333333px" opacity="0.25"></line><line x1="0" y1="0.0000026372726613689557" x2="280" y2="0.0000026372726613689557" fill="rgb(0, 0, 0)" stroke="rgb(66, 66, 66)" stroke-width="1.333333px" opacity="0.25"></line></g></g></g><g><g><line x1="0" y1="176.984375" x2="280" y2="176.984375" fill="rgb(0, 0, 0)" stroke="rgb(153, 153, 153)" stroke-width="2px"></line></g></g><g><g><line x1="23.333333333333332" y1="0" x2="23.333333333333332" y2="176.984375" fill="rgb(0, 0, 0)" stroke="rgb(153, 153, 153)" stroke-width="2px"></line></g></g><g><g><g><g><g><path style="fill: none;" stroke="rgb(255, 112, 67)" stroke-width="2.666667px" d="M23.520000000000003,88.4921875L23.790666666666667,88.4921875L23.930666666666667,88.4921875L23.94,88.4921875L24.182666666666666,88.4921875L24.313333333333333,88.4921875L24.350666666666665,88.4921875L24.546666666666667,88.4921875L24.882666666666665,88.4921875L24.95733333333333,88.4921875L25.134666666666664,88.4921875L25.62933333333333,88.4921875L25.769333333333332,88.4921875L25.983999999999998,88.4921875L26.32933333333333,88.4921875L26.768,88.4921875L26.954666666666668,88.4921875L27.104,88.4921875L27.225333333333335,88.4921875L27.430666666666664,88.4921875L27.692,88.4921875L27.785333333333334,88.4921875L27.84133333333333,88.4921875L28.112000000000002,88.4921875L28.326666666666668,88.4921875L28.37333333333333,88.4921875L28.392,88.4921875L28.541333333333334,88.4921875L28.91466666666667,88.4921875L29.29733333333333,88.4921875L29.35333333333333,88.4921875L29.362666666666666,88.4921875L29.493333333333332,88.4921875L29.651999999999997,88.4921875L30.482666666666667,88.4921875L30.585333333333335,88.4921875L30.856,88.4921875L31.35066666666667,88.4921875L31.43466666666667,88.4921875L31.621333333333332,88.4921875L32.144,88.4921875L32.676,88.4921875L32.82533333333333,88.4921875L32.928,88.4921875L33.03066666666667,88.4921875L33.208,88.4921875L33.348,88.4921875L33.721333333333334,88.4921875L33.852,88.4921875L33.91733333333333,88.4921875L34.104,88.4921875L34.216,88.4921875L34.309333333333335,88.4921875L34.328,88.4921875L34.40266666666667,88.4921875L34.72,88.4921875L35.037333333333336,88.4921875L35.056000000000004,88.4921875L35.083999999999996,88.4921875L35.17733333333334,88.4921875L35.214666666666666,88.4921875L35.718666666666664,88.4921875L35.90533333333333,88.4921875L36.19466666666667,88.4921875L36.57733333333333,88.4921875L36.95066666666667,88.4921875L36.96,88.4921875L37.29600000000001,88.4921875L37.44533333333334,88.4921875L37.473333333333336,88.4921875L37.800000000000004,88.4921875L37.828,88.4921875L37.958666666666666,88.4921875L38.248,88.4921875L38.53733333333333,88.4921875L38.612,88.4921875L38.93866666666667,88.4921875L39.07866666666667,88.4921875L39.23733333333333,88.4921875L39.256,88.4921875L39.32133333333333,88.4921875L39.937333333333335,88.4921875L40.590666666666664,88.4921875L40.712,88.4921875L41.076,88.4921875L41.16933333333333,88.4921875L41.45866666666667,88.4921875L41.64533333333333,88.4921875L41.654666666666664,88.4921875L41.82266666666667,88.4921875L42.672000000000004,88.4921875L42.756,88.4921875L42.849333333333334,88.4921875L42.952000000000005,88.4921875L43.96933333333333,88.4921875L44.996,88.4921875L45.36933333333334,88.4921875L45.696000000000005,88.4921875L46.088,88.4921875L46.13466666666667,88.4921875L46.256,88.4921875L46.33066666666667,88.4921875L46.358666666666664,88.4921875L46.54533333333334,88.4921875L46.71333333333333,88.4921875L46.844,88.4921875L46.965333333333334,88.4921875L47.404,88.4921875L47.413333333333334,88.4921875L47.60933333333334,88.4921875L47.870666666666665,88.4921875L47.94533333333333,88.4921875L48.02,88.4921875L48.40266666666667,88.4921875L48.486666666666665,88.4921875L48.626666666666665,88.4921875L48.71066666666666,88.4921875L48.86933333333334,88.4921875L48.92533333333333,88.4921875L49.04666666666667,88.4921875L49.056,88.4921875L49.06533333333333,88.4921875L49.18666666666667,88.4921875L49.34533333333333,88.4921875L49.59733333333333,88.4921875L49.80266666666667,88.4921875L49.896,88.4921875L50.05466666666666,88.4921875L50.99733333333334,88.4921875L51.1,88.4921875L52.12666666666667,88.4921875L52.136,88.4921875L52.32266666666666,88.4921875L52.332,88.4921875L52.472,88.4921875L52.705333333333336,88.4921875L53.20933333333333,88.4921875L53.37733333333333,88.4921875L53.601333333333336,88.4921875L53.82533333333333,88.4921875L53.85333333333333,88.4921875L54.67466666666667,88.4921875L55.12266666666667,88.4921875L55.65466666666667,88.4921875L55.86,88.4921875L55.93466666666667,88.4921875L56.01866666666667,88.4921875L56.26133333333333,88.4921875L56.63466666666667,88.4921875L56.66266666666667,88.4921875L56.952,88.4921875L57.10133333333333,88.4921875L57.455999999999996,88.4921875L57.484,88.4921875L57.52133333333333,88.4921875L57.586666666666666,88.4921875L57.614666666666665,88.4921875L57.792,88.4921875L57.99733333333334,88.4921875L58.45466666666666,88.4921875L58.650666666666666,88.4921875L59.266666666666666,88.4921875L59.285333333333334,88.4921875L59.77066666666666,88.4921875L59.892,88.4921875L59.948,88.4921875L60.06,88.4921875L60.088,88.4921875L60.452000000000005,88.4921875L60.797333333333334,88.4921875L60.9,88.4921875L61.00266666666666,88.4921875L61.05866666666667,88.4921875L61.123999999999995,88.4921875L61.46933333333333,88.4921875L61.702666666666666,88.4921875L61.81466666666667,88.4921875L61.842666666666666,88.4921875L62.047999999999995,88.4921875L62.37466666666667,88.4921875L62.47733333333333,88.4921875L62.804,88.4921875L63.084,88.4921875L63.653333333333336,88.4921875L63.74666666666666,88.4921875L64.92266666666667,88.4921875L65.67866666666667,88.4921875L65.716,88.4921875L65.94933333333334,88.4921875L66.39733333333334,88.4921875L66.74266666666666,88.4921875L67.12533333333333,88.4921875L67.144,88.4921875L67.2,88.4921875L67.284,88.4921875L67.49866666666667,88.4921875L67.93733333333334,88.4921875L68.45066666666666,88.4921875L68.47866666666667,88.4921875L68.488,88.4921875L68.56266666666667,88.4921875L68.91733333333333,88.4921875L69.17866666666666,88.4921875L69.356,88.4921875L69.54266666666668,88.4921875L69.83200000000001,88.4921875L70.756,88.4921875L70.84,88.4921875L70.85866666666666,88.4921875L71.25066666666667,88.4921875L71.288,88.4921875L71.428,88.4921875L71.45599999999999,88.4921875L71.46533333333333,88.4921875L71.764,88.4921875L71.88533333333332,88.4921875L72.11866666666667,88.4921875L72.24000000000001,88.4921875L72.38,88.4921875L72.464,88.4921875L72.492,88.4921875L72.772,88.4921875L72.996,88.4921875L73.02399999999999,88.4921875L73.39733333333334,88.4921875L73.47200000000001,88.4921875L73.78,88.4921875L74.17200000000001,88.4921875L74.256,88.4921875L74.30266666666665,88.4921875L74.76933333333334,88.4921875L76.244,88.4921875L76.832,88.4921875L77.09333333333333,88.4921875L77.308,88.4921875L77.78399999999999,88.4921875L78.10133333333333,88.4921875L78.22266666666667,88.4921875L78.86666666666667,88.4921875L78.94133333333333,88.4921875L79.17466666666667,88.4921875L79.324,88.4921875L79.436,88.4921875L79.84666666666666,88.4921875L80.388,88.4921875L80.59333333333333,88.4921875L80.64,88.4921875L80.67733333333334,88.4921875L81.452,88.4921875L81.61999999999999,88.4921875L81.956,88.4921875L82.152,88.4921875L82.45066666666666,88.4921875L82.46933333333332,88.4921875L82.69333333333333,88.4921875L82.70266666666667,88.4921875L82.74933333333333,88.4921875L82.796,88.4921875L83.76666666666668,88.4921875L84.28,88.4921875L84.448,88.4921875L84.49466666666667,88.4921875L84.61600000000001,88.4921875L84.66266666666667,88.4921875L84.812,88.4921875L84.85866666666666,88.4921875L84.94266666666667,88.4921875L85.092,88.4921875L85.63333333333334,88.4921875L86.072,88.4921875L86.16533333333334,88.4921875L86.352,88.4921875L86.83733333333333,88.4921875L87.21066666666667,88.4921875L87.28533333333333,88.4921875L87.36933333333333,88.4921875L87.51866666666666,88.4921875L87.90133333333334,88.4921875L87.92933333333333,88.4921875L88.03200000000001,88.4921875L88.60133333333334,88.4921875L88.648,88.4921875L88.66666666666666,88.4921875L89.18933333333334,88.4921875L89.77733333333333,88.4921875L89.80533333333332,88.4921875L89.86133333333333,88.4921875L90.216,88.4921875L90.34666666666666,88.4921875L90.61733333333333,88.4921875L91.04666666666667,88.4921875L91.24266666666668,88.4921875L91.56,88.4921875L91.84,88.4921875L91.98,88.4921875L92.11066666666667,88.4921875L92.64266666666666,88.4921875L92.74533333333333,88.4921875L92.75466666666667,88.4921875L93.016,88.4921875L93.05333333333333,88.4921875L93.07199999999999,88.4921875L93.184,88.4921875L93.408,88.4921875L93.52000000000001,88.4921875L93.59466666666667,88.4921875L93.65066666666667,88.4921875L93.75333333333333,88.4921875L93.828,88.4921875L93.84666666666666,88.4921875L94.22,88.4921875L94.304,88.4921875L94.32266666666666,88.4921875L94.64,88.4921875L94.696,88.4921875L94.84533333333333,88.4921875L95.47066666666666,88.4921875L95.49866666666667,88.4921875L95.74133333333333,88.4921875L96.096,88.4921875L96.10533333333333,88.4921875L96.348,88.4921875L96.50666666666667,88.4921875L96.61866666666667,88.4921875L96.66533333333334,88.4921875L97.03866666666667,88.4921875L97.09466666666667,88.4921875L97.35600000000001,88.4921875L97.888,88.4921875L98.44800000000001,88.4921875L98.74666666666667,88.4921875L99.15733333333334,88.4921875L99.36266666666667,88.4921875L99.53999999999999,88.4921875L99.54933333333332,88.4921875L99.81066666666666,88.4921875L100.03466666666667,88.4921875L100.156,88.4921875L100.604,88.4921875L100.73466666666667,88.4921875L100.78133333333334,88.4921875L101.304,88.4921875L101.40666666666668,88.4921875L101.53733333333332,88.4921875L101.724,88.4921875L101.85466666666667,88.4921875L102.60133333333333,88.4921875L102.88133333333333,88.4921875L103.13333333333334,88.4921875L103.18933333333334,88.4921875L103.27333333333334,88.4921875L103.78666666666666,88.4921875L103.87066666666666,88.4921875L104.16933333333333,88.4921875L104.20666666666666,88.4921875L104.496,88.4921875L104.552,88.4921875L104.72,88.4921875L104.776,88.4921875L105.03733333333332,88.4921875L105.056,88.4921875L105.26133333333334,88.4921875L105.28,88.4921875L105.7,88.4921875L105.79333333333334,88.4921875L106.092,88.4921875L106.13866666666667,88.4921875L106.20400000000001,88.4921875L106.57733333333333,88.4921875L106.61466666666666,88.4921875L107.212,88.4921875L107.408,88.4921875L107.66,88.4921875L107.89333333333335,88.4921875L108.44399999999999,88.4921875L108.48133333333334,88.4921875L108.77066666666667,88.4921875L109.33066666666667,88.4921875L109.704,88.4921875L110.068,88.4921875L110.18,88.4921875L110.19866666666667,88.4921875L110.264,88.4921875L110.404,88.4921875L110.57199999999999,88.4921875L110.70266666666666,88.4921875L110.824,88.4921875L110.87066666666668,88.4921875L110.964,88.4921875L111.608,88.4921875L112.37333333333333,88.4921875L112.45733333333334,88.4921875L112.54133333333333,88.4921875L112.63466666666666,88.4921875L112.88666666666667,88.4921875L113.61466666666666,88.4921875L113.624,88.4921875L113.81066666666666,88.4921875L113.92266666666666,88.4921875L113.99733333333333,88.4921875L114.38,88.4921875L114.38933333333334,88.4921875L114.55733333333333,88.4921875L114.94,88.4921875L115.04266666666666,88.4921875L115.164,88.4921875L115.28533333333334,88.4921875L115.444,88.4921875L115.696,88.4921875L115.78933333333333,88.4921875L115.91066666666666,88.4921875L116.19999999999999,88.4921875L116.20933333333333,88.4921875L116.21866666666666,88.4921875L116.312,88.4921875L116.43333333333334,88.4921875L116.48933333333332,88.4921875L116.61999999999999,88.4921875L117.27333333333334,88.4921875L117.52533333333334,88.4921875L117.81466666666667,88.4921875L117.97333333333333,88.4921875L118.46799999999999,88.4921875L118.62666666666668,88.4921875L118.692,88.4921875L119.19600000000001,88.4921875L119.29866666666666,88.4921875L119.87733333333333,88.4921875L119.90533333333335,88.4921875L119.91466666666668,88.4921875L120.372,88.4921875L120.83866666666667,88.4921875L120.89466666666667,88.4921875L120.90400000000001,88.4921875L120.96,88.4921875L121.36133333333333,88.4921875L121.52,88.4921875L121.92133333333334,88.4921875L122.03333333333333,88.4921875L122.24799999999999,88.4921875L122.416,88.4921875L122.59333333333333,88.4921875L122.68666666666667,88.4921875L122.70533333333333,88.4921875L123.284,88.4921875L123.37733333333333,88.4921875L123.44266666666667,88.4921875L123.63866666666667,88.4921875L123.88133333333333,88.4921875L124.544,88.4921875L125.05733333333333,88.4921875L125.79466666666666,88.4921875L126.22399999999999,88.4921875L126.23333333333332,88.4921875L126.28,88.4921875L126.35466666666666,88.4921875L126.52266666666668,88.4921875L126.896,88.4921875L127.12,88.4921875L127.176,88.4921875L127.18533333333333,88.4921875L127.50266666666666,88.4921875L127.60533333333333,88.4921875L127.96000000000001,88.4921875L127.99733333333333,88.4921875L128.05333333333334,88.4921875L128.12800000000001,88.4921875L129.09866666666667,88.4921875L129.108,88.4921875L129.696,88.4921875L129.78933333333333,88.4921875L129.836,88.4921875L130.15333333333334,88.4921875L130.20000000000002,88.4921875L130.3213333333333,88.4921875L130.34,88.4921875L130.928,88.4921875L131.33866666666668,88.4921875L131.41333333333333,88.4921875L131.72133333333332,88.4921875L132.51466666666667,88.4921875L132.888,88.4921875L133.07466666666667,88.4921875L133.15866666666668,88.4921875L133.35466666666667,88.4921875L133.644,88.4921875L133.66266666666667,88.4921875L133.7,88.4921875L133.89600000000002,88.4921875L133.924,88.4921875L133.96133333333333,88.4921875L134.11066666666667,88.4921875L134.19466666666668,88.4921875L134.25066666666666,88.4921875L134.932,88.4921875L135.09066666666666,88.4921875L135.604,88.4921875L136.06133333333332,88.4921875L136.612,88.4921875L136.98533333333333,88.4921875L137.02266666666668,88.4921875L137.312,88.4921875L137.54533333333333,88.4921875L137.88133333333334,88.4921875L138.17066666666668,88.4921875L138.18933333333334,88.4921875L138.30133333333333,88.4921875L138.656,88.4921875L138.768,88.4921875L139.02933333333334,88.4921875L139.06666666666666,88.4921875L139.08533333333335,88.4921875L139.28133333333332,88.4921875L139.29066666666668,88.4921875L139.43066666666667,88.4921875L139.54266666666666,88.4921875L139.79466666666667,88.4921875L139.81333333333333,88.4921875L139.832,88.4921875L140.52266666666668,88.4921875L140.96133333333333,88.4921875L141.4,88.4921875L141.96,88.4921875L142.65066666666667,88.4921875L142.73466666666667,88.4921875L143.36,88.4921875L143.7613333333333,88.4921875L143.79866666666666,88.4921875L143.95733333333334,88.4921875L144.16266666666667,88.4921875L144.424,88.4921875L144.46133333333333,88.4921875L144.65733333333336,88.4921875L144.77866666666668,88.4921875L144.9093333333333,88.4921875L145.02133333333333,88.4921875L145.03066666666666,88.4921875L145.13333333333333,88.4921875L145.544,88.4921875L146.44,88.4921875L146.804,88.4921875L147.01866666666666,88.4921875L147.12133333333333,88.4921875L147.52266666666668,88.4921875L147.94266666666667,88.4921875L148.30666666666664,88.4921875L148.58666666666664,88.4921875L148.93200000000002,88.4921875L149.55733333333333,88.4921875L149.65066666666667,88.4921875L149.81866666666667,88.4921875L149.89333333333335,88.4921875L150.17333333333335,88.4921875L150.5,88.4921875L150.67733333333334,88.4921875L150.696,88.4921875L150.724,88.4921875L150.84533333333331,88.4921875L151.368,88.4921875L151.55466666666666,88.4921875L152.17066666666668,88.4921875L152.44133333333332,88.4921875L152.60933333333335,88.4921875L152.992,88.4921875L153.23466666666667,88.4921875L153.74800000000002,88.4921875L153.832,88.4921875L154.07466666666667,88.4921875L154.448,88.4921875L154.97066666666666,88.4921875L155.07333333333332,88.4921875L155.204,88.4921875L155.32533333333333,88.4921875L155.49333333333334,88.4921875L155.67066666666668,88.4921875L155.77333333333334,88.4921875L155.82933333333332,88.4921875L155.94133333333332,88.4921875L156.1,88.4921875L156.42666666666665,88.4921875L156.492,88.4921875L157.27599999999998,88.4921875L157.32266666666666,88.4921875L157.388,88.4921875L157.44400000000002,88.4921875L157.74266666666668,88.4921875L157.752,88.4921875L157.79866666666666,88.4921875L157.92933333333335,88.4921875L158.00400000000002,88.4921875L158.01333333333335,88.4921875L158.62933333333334,88.4921875L158.648,88.4921875L159.012,88.4921875L159.404,88.4921875L159.83333333333331,88.4921875L160.03866666666667,88.4921875L160.97199999999998,88.4921875L161.112,88.4921875L161.27066666666664,88.4921875L161.34533333333334,88.4921875L161.66266666666667,88.4921875L161.96133333333333,88.4921875L162.08266666666665,88.4921875L162.11999999999998,88.4921875L162.4093333333333,88.4921875L162.61466666666666,88.4921875L162.652,88.4921875L162.792,88.4921875L163.5293333333333,88.4921875L163.95866666666666,88.4921875L163.968,88.4921875L164.00533333333334,88.4921875L164.26666666666668,88.4921875L164.37866666666665,88.4921875L164.472,88.4921875L164.50933333333333,88.4921875L164.64,88.4921875L164.78,88.4921875L164.9946666666667,88.4921875L165.07866666666666,88.4921875L165.20933333333332,88.4921875L166.32,88.4921875L166.46933333333334,88.4921875L166.6,88.4921875L166.73066666666668,88.4921875L166.81466666666665,88.4921875L167.08533333333332,88.4921875L167.2626666666667,88.4921875L167.412,88.4921875L167.468,88.4921875L167.608,88.4921875L167.664,88.4921875L167.92533333333333,88.4921875L167.944,88.4921875L169.04533333333333,88.4921875L169.26000000000002,88.4921875L169.30666666666667,88.4921875L169.58666666666667,88.4921875L169.99733333333333,88.4921875L170.0906666666667,88.4921875L170.34266666666664,88.4921875L170.44533333333334,88.4921875L170.75333333333333,88.4921875L170.828,88.4921875L171.00533333333334,88.4921875L171.108,88.4921875L171.5,88.4921875L171.948,88.4921875L171.95733333333334,88.4921875L172.80666666666667,88.4921875L172.984,88.4921875L173.0773333333333,88.4921875L173.39466666666667,88.4921875L173.66533333333334,88.4921875L173.77733333333333,88.4921875L173.852,88.4921875L174.412,88.4921875L174.42133333333334,88.4921875L174.888,88.4921875L174.916,88.4921875L174.9346666666667,88.4921875L174.99066666666667,88.4921875L175.60666666666665,88.4921875L175.91466666666665,88.4921875L176.344,88.4921875L176.52133333333333,88.4921875L176.54933333333332,88.4921875L176.67066666666668,88.4921875L177.23066666666668,88.4921875L177.856,88.4921875L178.31333333333333,88.4921875L178.332,88.4921875L178.42533333333333,88.4921875L178.75199999999998,88.4921875L178.836,88.4921875L179.508,88.4921875L179.54533333333333,88.4921875L180.08666666666667,88.4921875L180.4693333333333,88.4921875L180.7493333333333,88.4921875L180.76799999999997,88.4921875L180.89866666666666,88.4921875L180.92666666666668,88.4921875L181.15066666666667,88.4921875L181.524,88.4921875L181.56133333333332,88.4921875L182.03733333333332,88.4921875L182.16799999999998,88.4921875L182.52266666666668,88.4921875L182.55066666666667,88.4921875L182.72799999999998,88.4921875L183.13866666666667,88.4921875L183.19466666666668,88.4921875L183.204,88.4921875L183.35333333333335,88.4921875L183.46533333333332,88.4921875L184.15599999999998,88.4921875L184.1746666666667,88.4921875L184.352,88.4921875L184.47333333333336,88.4921875L184.56666666666666,88.4921875L184.64133333333334,88.4921875L185.696,88.4921875L185.96666666666667,88.4921875L186.04133333333334,88.4921875L186.82533333333333,88.4921875L186.89066666666668,88.4921875L187.2733333333333,88.4921875L187.77733333333333,88.4921875L187.91733333333335,88.4921875L187.92666666666668,88.4921875L188.06666666666666,88.4921875L188.28133333333332,88.4921875L188.44,88.4921875L188.524,88.4921875L188.84133333333332,88.4921875L189.12133333333333,88.4921875L189.18666666666667,88.4921875L189.616,88.4921875L190.07333333333332,88.4921875L190.16666666666669,88.4921875L190.232,88.4921875L190.24133333333333,88.4921875L190.27866666666665,88.4921875L190.64266666666666,88.4921875L190.74533333333335,88.4921875L190.904,88.4921875L191.01600000000002,88.4921875L191.39866666666666,88.4921875L191.42666666666665,88.4921875L191.67866666666666,88.4921875L191.744,88.4921875L191.94933333333333,88.4921875L192.09866666666667,88.4921875L192.17333333333335,88.4921875L192.36933333333334,88.4921875L192.48133333333334,88.4921875L192.55599999999998,88.4921875L192.59333333333333,88.4921875L192.63066666666666,88.4921875L193.28400000000002,88.4921875L193.928,88.4921875L194.45066666666668,88.4921875L194.572,88.4921875L195.12266666666665,88.4921875L195.13199999999998,88.4921875L195.244,88.4921875L195.356,88.4921875L195.496,88.4921875L195.58933333333334,88.4921875L195.72,88.4921875L195.84133333333335,88.4921875L195.92533333333333,88.4921875L196.224,88.4921875L196.8213333333333,88.4921875L197.10133333333332,88.4921875L197.148,88.4921875L197.15733333333336,88.4921875L197.26933333333335,88.4921875L197.37199999999999,88.4921875L198.42666666666668,88.4921875L198.436,88.4921875L198.492,88.4921875L198.51999999999998,88.4921875L198.632,88.4921875L198.772,88.4921875L199.49066666666667,88.4921875L199.73333333333335,88.4921875L199.78933333333333,88.4921875L199.79866666666666,88.4921875L200.35866666666666,88.4921875L200.60133333333334,88.4921875L201.02133333333333,88.4921875L201.04933333333332,88.4921875L201.25466666666668,88.4921875L201.60933333333332,88.4921875L201.7026666666667,88.4921875L201.74,88.4921875L201.74933333333334,88.4921875L202.636,88.4921875L202.65466666666666,88.4921875L202.70133333333334,88.4921875L203.28,88.4921875L203.66266666666667,88.4921875L204.12933333333334,88.4921875L204.20399999999998,88.4921875L204.344,88.4921875L204.43733333333333,88.4921875L204.47466666666665,88.4921875L204.60533333333333,88.4921875L205.02533333333332,88.4921875L205.10933333333335,88.4921875L205.33333333333331,88.4921875L205.36133333333333,88.4921875L205.78133333333332,88.4921875L206.444,88.4921875L206.59333333333333,88.4921875L206.78933333333333,88.4921875L206.85466666666667,88.4921875L207.228,88.4921875L207.80666666666667,88.4921875L207.82533333333333,88.4921875L208.53466666666668,88.4921875L208.72133333333332,88.4921875L209.03866666666667,88.4921875L209.188,88.4921875L209.29066666666665,88.4921875L209.70133333333334,88.4921875L209.84133333333332,88.4921875L209.85066666666665,88.4921875L209.888,88.4921875L210.00933333333333,88.4921875L210.14933333333335,88.4921875L210.71866666666668,88.4921875L211.06400000000002,88.4921875L211.26933333333332,88.4921875L212.92133333333334,88.4921875L213.11733333333333,88.4921875L213.39733333333334,88.4921875L213.696,88.4921875L213.78,88.4921875L213.95733333333334,88.4921875L214.12533333333334,88.4921875L214.536,88.4921875L214.61999999999998,88.4921875L214.80666666666667,88.4921875L215.012,88.4921875L215.2266666666667,88.4921875L215.38533333333334,88.4921875L215.41333333333333,88.4921875L215.44133333333332,88.4921875L215.7866666666667,88.4921875L216.04799999999997,88.4921875L216.216,88.4921875L216.23466666666667,88.4921875L217.00933333333333,88.4921875L217.112,88.4921875L217.364,88.4921875L217.60666666666665,88.4921875L217.84,88.4921875L217.868,88.4921875L218.85733333333332,88.4921875L218.8946666666667,88.4921875L219.03466666666668,88.4921875L219.05333333333334,88.4921875L219.1,88.4921875L219.15599999999998,88.4921875L219.27733333333333,88.4921875L219.352,88.4921875L219.688,88.4921875L219.83733333333333,88.4921875L220.50933333333333,88.4921875L220.55599999999998,88.4921875L220.76133333333334,88.4921875L220.78,88.4921875L220.89200000000002,88.4921875L220.96666666666667,88.4921875L221.02266666666665,88.4921875L221.26533333333333,88.4921875L221.30266666666665,88.4921875L221.52666666666667,88.4921875L221.62933333333334,88.4921875L221.844,88.4921875L221.956,88.4921875L222.25466666666665,88.4921875L222.8706666666667,88.4921875L222.992,88.4921875L223.26266666666666,88.4921875L223.36533333333333,88.4921875L223.692,88.4921875L223.79466666666667,88.4921875L224.784,88.4921875L224.80266666666665,88.4921875L224.88666666666668,88.4921875L224.924,88.4921875L224.93333333333334,88.4921875L224.99866666666665,88.4921875L225.14800000000002,88.4921875L225.19466666666668,88.4921875L225.624,88.4921875L225.66133333333332,88.4921875L225.68,88.4921875L226.044,88.4921875L226.072,88.4921875L226.20266666666666,88.4921875L226.93066666666667,88.4921875L226.99599999999998,88.4921875L227.23866666666666,88.4921875L229.2733333333333,88.4921875L229.49733333333333,88.4921875L229.74,88.4921875L229.74933333333334,88.4921875L229.95466666666667,88.4921875L230.048,88.4921875L230.19733333333335,88.4921875L230.41199999999998,88.4921875L230.82266666666666,88.4921875L231.23333333333332,88.4921875L231.32666666666668,88.4921875L231.34533333333334,88.4921875L231.41066666666666,88.4921875L231.55066666666664,88.4921875L232.21333333333334,88.4921875L232.232,88.4921875L232.57733333333334,88.4921875L233.02533333333335,88.4921875L233.22133333333332,88.4921875L233.48266666666666,88.4921875L233.55733333333333,88.4921875L233.65066666666667,88.4921875L233.97733333333335,88.4921875L234.32266666666666,88.4921875L234.70533333333336,88.4921875L234.836,88.4921875L235.2373333333333,88.4921875L235.5173333333333,88.4921875L235.74133333333333,88.4921875L235.96533333333332,88.4921875L235.97466666666668,88.4921875L236.97333333333336,88.4921875L237.28133333333335,88.4921875L237.53333333333336,88.4921875L237.86,88.4921875L237.916,88.4921875L237.95333333333332,88.4921875L238.51333333333332,88.4921875L238.56,88.4921875L238.68133333333336,88.4921875L238.896,88.4921875L239.008,88.4921875L239.71733333333333,88.4921875L240.0906666666667,88.4921875L240.464,88.4921875L240.492,88.4921875L240.79999999999998,88.4921875L241.00533333333334,88.4921875L241.09866666666667,88.4921875L241.39733333333334,88.4921875L241.54666666666668,88.4921875L241.80800000000002,88.4921875L241.81733333333335,88.4921875L242.68533333333335,88.4921875L243.04,88.4921875L243.51600000000002,88.4921875L243.53466666666668,88.4921875L243.87066666666666,88.4921875L244.03866666666667,88.4921875L244.06666666666666,88.4921875L244.72,88.4921875L245.15866666666668,88.4921875L245.448,88.4921875L245.644,88.4921875L246.12933333333334,88.4921875L246.66133333333335,88.4921875L246.904,88.4921875L247.59466666666665,88.4921875L247.69733333333335,88.4921875L247.72533333333334,88.4921875L248.00533333333334,88.4921875L248.06133333333335,88.4921875L248.4813333333333,88.4921875L249.40533333333335,88.4921875L249.97466666666668,88.4921875L250.19866666666667,88.4921875L250.25466666666668,88.4921875L250.45066666666665,88.4921875L250.67466666666667,88.4921875L250.88,88.4921875L251.00133333333332,88.4921875L251.412,88.4921875L251.72933333333333,88.4921875L251.76666666666668,88.4921875L251.92533333333336,88.4921875L251.94400000000002,88.4921875L253.00799999999998,88.4921875L253.19466666666668,88.4921875L253.28799999999998,88.4921875L253.52133333333333,88.4921875L253.9226666666667,88.4921875L254.05333333333334,88.4921875L254.18400000000003,88.4921875L254.42666666666665,88.4921875L254.51066666666668,88.4921875L254.94933333333333,88.4921875L254.98666666666665,88.4921875L255.08,88.4921875L255.18266666666668,88.4921875L255.22,88.4921875L255.248,88.4921875L255.3226666666667,88.4921875L255.51866666666666,88.4921875L255.58399999999997,88.4921875L255.78,88.4921875L256.1066666666667,88.4921875L256.29333333333335,88.4921875L256.312,88.4921875L256.47066666666666,88.4921875L256.60133333333334,88.4921875L256.66666666666663,88.4921875" fill="none"></path></g></g></g></g><g opacity="0.2"><g><g><g><path style="fill: none;" stroke="rgb(255, 112, 67)" stroke-width="2.666667px" d="M23.520000000000003,88.4921875L23.790666666666667,88.4921875L23.930666666666667,88.4921875L23.94,88.4921875L24.182666666666666,88.4921875L24.313333333333333,88.4921875L24.350666666666665,88.4921875L24.546666666666667,88.4921875L24.882666666666665,88.4921875L24.95733333333333,88.4921875L25.134666666666664,88.4921875L25.62933333333333,88.4921875L25.769333333333332,88.4921875L25.983999999999998,88.4921875L26.32933333333333,88.4921875L26.768,88.4921875L26.954666666666668,88.4921875L27.104,88.4921875L27.225333333333335,88.4921875L27.430666666666664,88.4921875L27.692,88.4921875L27.785333333333334,88.4921875L27.84133333333333,88.4921875L28.112000000000002,88.4921875L28.326666666666668,88.4921875L28.37333333333333,88.4921875L28.392,88.4921875L28.541333333333334,88.4921875L28.91466666666667,88.4921875L29.29733333333333,88.4921875L29.35333333333333,88.4921875L29.362666666666666,88.4921875L29.493333333333332,88.4921875L29.651999999999997,88.4921875L30.482666666666667,88.4921875L30.585333333333335,88.4921875L30.856,88.4921875L31.35066666666667,88.4921875L31.43466666666667,88.4921875L31.621333333333332,88.4921875L32.144,88.4921875L32.676,88.4921875L32.82533333333333,88.4921875L32.928,88.4921875L33.03066666666667,88.4921875L33.208,88.4921875L33.348,88.4921875L33.721333333333334,88.4921875L33.852,88.4921875L33.91733333333333,88.4921875L34.104,88.4921875L34.216,88.4921875L34.309333333333335,88.4921875L34.328,88.4921875L34.40266666666667,88.4921875L34.72,88.4921875L35.037333333333336,88.4921875L35.056000000000004,88.4921875L35.083999999999996,88.4921875L35.17733333333334,88.4921875L35.214666666666666,88.4921875L35.718666666666664,88.4921875L35.90533333333333,88.4921875L36.19466666666667,88.4921875L36.57733333333333,88.4921875L36.95066666666667,88.4921875L36.96,88.4921875L37.29600000000001,88.4921875L37.44533333333334,88.4921875L37.473333333333336,88.4921875L37.800000000000004,88.4921875L37.828,88.4921875L37.958666666666666,88.4921875L38.248,88.4921875L38.53733333333333,88.4921875L38.612,88.4921875L38.93866666666667,88.4921875L39.07866666666667,88.4921875L39.23733333333333,88.4921875L39.256,88.4921875L39.32133333333333,88.4921875L39.937333333333335,88.4921875L40.590666666666664,88.4921875L40.712,88.4921875L41.076,88.4921875L41.16933333333333,88.4921875L41.45866666666667,88.4921875L41.64533333333333,88.4921875L41.654666666666664,88.4921875L41.82266666666667,88.4921875L42.672000000000004,88.4921875L42.756,88.4921875L42.849333333333334,88.4921875L42.952000000000005,88.4921875L43.96933333333333,88.4921875L44.996,88.4921875L45.36933333333334,88.4921875L45.696000000000005,88.4921875L46.088,88.4921875L46.13466666666667,88.4921875L46.256,88.4921875L46.33066666666667,88.4921875L46.358666666666664,88.4921875L46.54533333333334,88.4921875L46.71333333333333,88.4921875L46.844,88.4921875L46.965333333333334,88.4921875L47.404,88.4921875L47.413333333333334,88.4921875L47.60933333333334,88.4921875L47.870666666666665,88.4921875L47.94533333333333,88.4921875L48.02,88.4921875L48.40266666666667,88.4921875L48.486666666666665,88.4921875L48.626666666666665,88.4921875L48.71066666666666,88.4921875L48.86933333333334,88.4921875L48.92533333333333,88.4921875L49.04666666666667,88.4921875L49.056,88.4921875L49.06533333333333,88.4921875L49.18666666666667,88.4921875L49.34533333333333,88.4921875L49.59733333333333,88.4921875L49.80266666666667,88.4921875L49.896,88.4921875L50.05466666666666,88.4921875L50.99733333333334,88.4921875L51.1,88.4921875L52.12666666666667,88.4921875L52.136,88.4921875L52.32266666666666,88.4921875L52.332,88.4921875L52.472,88.4921875L52.705333333333336,88.4921875L53.20933333333333,88.4921875L53.37733333333333,88.4921875L53.601333333333336,88.4921875L53.82533333333333,88.4921875L53.85333333333333,88.4921875L54.67466666666667,88.4921875L55.12266666666667,88.4921875L55.65466666666667,88.4921875L55.86,88.4921875L55.93466666666667,88.4921875L56.01866666666667,88.4921875L56.26133333333333,88.4921875L56.63466666666667,88.4921875L56.66266666666667,88.4921875L56.952,88.4921875L57.10133333333333,88.4921875L57.455999999999996,88.4921875L57.484,88.4921875L57.52133333333333,88.4921875L57.586666666666666,88.4921875L57.614666666666665,88.4921875L57.792,88.4921875L57.99733333333334,88.4921875L58.45466666666666,88.4921875L58.650666666666666,88.4921875L59.266666666666666,88.4921875L59.285333333333334,88.4921875L59.77066666666666,88.4921875L59.892,88.4921875L59.948,88.4921875L60.06,88.4921875L60.088,88.4921875L60.452000000000005,88.4921875L60.797333333333334,88.4921875L60.9,88.4921875L61.00266666666666,88.4921875L61.05866666666667,88.4921875L61.123999999999995,88.4921875L61.46933333333333,88.4921875L61.702666666666666,88.4921875L61.81466666666667,88.4921875L61.842666666666666,88.4921875L62.047999999999995,88.4921875L62.37466666666667,88.4921875L62.47733333333333,88.4921875L62.804,88.4921875L63.084,88.4921875L63.653333333333336,88.4921875L63.74666666666666,88.4921875L64.92266666666667,88.4921875L65.67866666666667,88.4921875L65.716,88.4921875L65.94933333333334,88.4921875L66.39733333333334,88.4921875L66.74266666666666,88.4921875L67.12533333333333,88.4921875L67.144,88.4921875L67.2,88.4921875L67.284,88.4921875L67.49866666666667,88.4921875L67.93733333333334,88.4921875L68.45066666666666,88.4921875L68.47866666666667,88.4921875L68.488,88.4921875L68.56266666666667,88.4921875L68.91733333333333,88.4921875L69.17866666666666,88.4921875L69.356,88.4921875L69.54266666666668,88.4921875L69.83200000000001,88.4921875L70.756,88.4921875L70.84,88.4921875L70.85866666666666,88.4921875L71.25066666666667,88.4921875L71.288,88.4921875L71.428,88.4921875L71.45599999999999,88.4921875L71.46533333333333,88.4921875L71.764,88.4921875L71.88533333333332,88.4921875L72.11866666666667,88.4921875L72.24000000000001,88.4921875L72.38,88.4921875L72.464,88.4921875L72.492,88.4921875L72.772,88.4921875L72.996,88.4921875L73.02399999999999,88.4921875L73.39733333333334,88.4921875L73.47200000000001,88.4921875L73.78,88.4921875L74.17200000000001,88.4921875L74.256,88.4921875L74.30266666666665,88.4921875L74.76933333333334,88.4921875L76.244,88.4921875L76.832,88.4921875L77.09333333333333,88.4921875L77.308,88.4921875L77.78399999999999,88.4921875L78.10133333333333,88.4921875L78.22266666666667,88.4921875L78.86666666666667,88.4921875L78.94133333333333,88.4921875L79.17466666666667,88.4921875L79.324,88.4921875L79.436,88.4921875L79.84666666666666,88.4921875L80.388,88.4921875L80.59333333333333,88.4921875L80.64,88.4921875L80.67733333333334,88.4921875L81.452,88.4921875L81.61999999999999,88.4921875L81.956,88.4921875L82.152,88.4921875L82.45066666666666,88.4921875L82.46933333333332,88.4921875L82.69333333333333,88.4921875L82.70266666666667,88.4921875L82.74933333333333,88.4921875L82.796,88.4921875L83.76666666666668,88.4921875L84.28,88.4921875L84.448,88.4921875L84.49466666666667,88.4921875L84.61600000000001,88.4921875L84.66266666666667,88.4921875L84.812,88.4921875L84.85866666666666,88.4921875L84.94266666666667,88.4921875L85.092,88.4921875L85.63333333333334,88.4921875L86.072,88.4921875L86.16533333333334,88.4921875L86.352,88.4921875L86.83733333333333,88.4921875L87.21066666666667,88.4921875L87.28533333333333,88.4921875L87.36933333333333,88.4921875L87.51866666666666,88.4921875L87.90133333333334,88.4921875L87.92933333333333,88.4921875L88.03200000000001,88.4921875L88.60133333333334,88.4921875L88.648,88.4921875L88.66666666666666,88.4921875L89.18933333333334,88.4921875L89.77733333333333,88.4921875L89.80533333333332,88.4921875L89.86133333333333,88.4921875L90.216,88.4921875L90.34666666666666,88.4921875L90.61733333333333,88.4921875L91.04666666666667,88.4921875L91.24266666666668,88.4921875L91.56,88.4921875L91.84,88.4921875L91.98,88.4921875L92.11066666666667,88.4921875L92.64266666666666,88.4921875L92.74533333333333,88.4921875L92.75466666666667,88.4921875L93.016,88.4921875L93.05333333333333,88.4921875L93.07199999999999,88.4921875L93.184,88.4921875L93.408,88.4921875L93.52000000000001,88.4921875L93.59466666666667,88.4921875L93.65066666666667,88.4921875L93.75333333333333,88.4921875L93.828,88.4921875L93.84666666666666,88.4921875L94.22,88.4921875L94.304,88.4921875L94.32266666666666,88.4921875L94.64,88.4921875L94.696,88.4921875L94.84533333333333,88.4921875L95.47066666666666,88.4921875L95.49866666666667,88.4921875L95.74133333333333,88.4921875L96.096,88.4921875L96.10533333333333,88.4921875L96.348,88.4921875L96.50666666666667,88.4921875L96.61866666666667,88.4921875L96.66533333333334,88.4921875L97.03866666666667,88.4921875L97.09466666666667,88.4921875L97.35600000000001,88.4921875L97.888,88.4921875L98.44800000000001,88.4921875L98.74666666666667,88.4921875L99.15733333333334,88.4921875L99.36266666666667,88.4921875L99.53999999999999,88.4921875L99.54933333333332,88.4921875L99.81066666666666,88.4921875L100.03466666666667,88.4921875L100.156,88.4921875L100.604,88.4921875L100.73466666666667,88.4921875L100.78133333333334,88.4921875L101.304,88.4921875L101.40666666666668,88.4921875L101.53733333333332,88.4921875L101.724,88.4921875L101.85466666666667,88.4921875L102.60133333333333,88.4921875L102.88133333333333,88.4921875L103.13333333333334,88.4921875L103.18933333333334,88.4921875L103.27333333333334,88.4921875L103.78666666666666,88.4921875L103.87066666666666,88.4921875L104.16933333333333,88.4921875L104.20666666666666,88.4921875L104.496,88.4921875L104.552,88.4921875L104.72,88.4921875L104.776,88.4921875L105.03733333333332,88.4921875L105.056,88.4921875L105.26133333333334,88.4921875L105.28,88.4921875L105.7,88.4921875L105.79333333333334,88.4921875L106.092,88.4921875L106.13866666666667,88.4921875L106.20400000000001,88.4921875L106.57733333333333,88.4921875L106.61466666666666,88.4921875L107.212,88.4921875L107.408,88.4921875L107.66,88.4921875L107.89333333333335,88.4921875L108.44399999999999,88.4921875L108.48133333333334,88.4921875L108.77066666666667,88.4921875L109.33066666666667,88.4921875L109.704,88.4921875L110.068,88.4921875L110.18,88.4921875L110.19866666666667,88.4921875L110.264,88.4921875L110.404,88.4921875L110.57199999999999,88.4921875L110.70266666666666,88.4921875L110.824,88.4921875L110.87066666666668,88.4921875L110.964,88.4921875L111.608,88.4921875L112.37333333333333,88.4921875L112.45733333333334,88.4921875L112.54133333333333,88.4921875L112.63466666666666,88.4921875L112.88666666666667,88.4921875L113.61466666666666,88.4921875L113.624,88.4921875L113.81066666666666,88.4921875L113.92266666666666,88.4921875L113.99733333333333,88.4921875L114.38,88.4921875L114.38933333333334,88.4921875L114.55733333333333,88.4921875L114.94,88.4921875L115.04266666666666,88.4921875L115.164,88.4921875L115.28533333333334,88.4921875L115.444,88.4921875L115.696,88.4921875L115.78933333333333,88.4921875L115.91066666666666,88.4921875L116.19999999999999,88.4921875L116.20933333333333,88.4921875L116.21866666666666,88.4921875L116.312,88.4921875L116.43333333333334,88.4921875L116.48933333333332,88.4921875L116.61999999999999,88.4921875L117.27333333333334,88.4921875L117.52533333333334,88.4921875L117.81466666666667,88.4921875L117.97333333333333,88.4921875L118.46799999999999,88.4921875L118.62666666666668,88.4921875L118.692,88.4921875L119.19600000000001,88.4921875L119.29866666666666,88.4921875L119.87733333333333,88.4921875L119.90533333333335,88.4921875L119.91466666666668,88.4921875L120.372,88.4921875L120.83866666666667,88.4921875L120.89466666666667,88.4921875L120.90400000000001,88.4921875L120.96,88.4921875L121.36133333333333,88.4921875L121.52,88.4921875L121.92133333333334,88.4921875L122.03333333333333,88.4921875L122.24799999999999,88.4921875L122.416,88.4921875L122.59333333333333,88.4921875L122.68666666666667,88.4921875L122.70533333333333,88.4921875L123.284,88.4921875L123.37733333333333,88.4921875L123.44266666666667,88.4921875L123.63866666666667,88.4921875L123.88133333333333,88.4921875L124.544,88.4921875L125.05733333333333,88.4921875L125.79466666666666,88.4921875L126.22399999999999,88.4921875L126.23333333333332,88.4921875L126.28,88.4921875L126.35466666666666,88.4921875L126.52266666666668,88.4921875L126.896,88.4921875L127.12,88.4921875L127.176,88.4921875L127.18533333333333,88.4921875L127.50266666666666,88.4921875L127.60533333333333,88.4921875L127.96000000000001,88.4921875L127.99733333333333,88.4921875L128.05333333333334,88.4921875L128.12800000000001,88.4921875L129.09866666666667,88.4921875L129.108,88.4921875L129.696,88.4921875L129.78933333333333,88.4921875L129.836,88.4921875L130.15333333333334,88.4921875L130.20000000000002,88.4921875L130.3213333333333,88.4921875L130.34,88.4921875L130.928,88.4921875L131.33866666666668,88.4921875L131.41333333333333,88.4921875L131.72133333333332,88.4921875L132.51466666666667,88.4921875L132.888,88.4921875L133.07466666666667,88.4921875L133.15866666666668,88.4921875L133.35466666666667,88.4921875L133.644,88.4921875L133.66266666666667,88.4921875L133.7,88.4921875L133.89600000000002,88.4921875L133.924,88.4921875L133.96133333333333,88.4921875L134.11066666666667,88.4921875L134.19466666666668,88.4921875L134.25066666666666,88.4921875L134.932,88.4921875L135.09066666666666,88.4921875L135.604,88.4921875L136.06133333333332,88.4921875L136.612,88.4921875L136.98533333333333,88.4921875L137.02266666666668,88.4921875L137.312,88.4921875L137.54533333333333,88.4921875L137.88133333333334,88.4921875L138.17066666666668,88.4921875L138.18933333333334,88.4921875L138.30133333333333,88.4921875L138.656,88.4921875L138.768,88.4921875L139.02933333333334,88.4921875L139.06666666666666,88.4921875L139.08533333333335,88.4921875L139.28133333333332,88.4921875L139.29066666666668,88.4921875L139.43066666666667,88.4921875L139.54266666666666,88.4921875L139.79466666666667,88.4921875L139.81333333333333,88.4921875L139.832,88.4921875L140.52266666666668,88.4921875L140.96133333333333,88.4921875L141.4,88.4921875L141.96,88.4921875L142.65066666666667,88.4921875L142.73466666666667,88.4921875L143.36,88.4921875L143.7613333333333,88.4921875L143.79866666666666,88.4921875L143.95733333333334,88.4921875L144.16266666666667,88.4921875L144.424,88.4921875L144.46133333333333,88.4921875L144.65733333333336,88.4921875L144.77866666666668,88.4921875L144.9093333333333,88.4921875L145.02133333333333,88.4921875L145.03066666666666,88.4921875L145.13333333333333,88.4921875L145.544,88.4921875L146.44,88.4921875L146.804,88.4921875L147.01866666666666,88.4921875L147.12133333333333,88.4921875L147.52266666666668,88.4921875L147.94266666666667,88.4921875L148.30666666666664,88.4921875L148.58666666666664,88.4921875L148.93200000000002,88.4921875L149.55733333333333,88.4921875L149.65066666666667,88.4921875L149.81866666666667,88.4921875L149.89333333333335,88.4921875L150.17333333333335,88.4921875L150.5,88.4921875L150.67733333333334,88.4921875L150.696,88.4921875L150.724,88.4921875L150.84533333333331,88.4921875L151.368,88.4921875L151.55466666666666,88.4921875L152.17066666666668,88.4921875L152.44133333333332,88.4921875L152.60933333333335,88.4921875L152.992,88.4921875L153.23466666666667,88.4921875L153.74800000000002,88.4921875L153.832,88.4921875L154.07466666666667,88.4921875L154.448,88.4921875L154.97066666666666,88.4921875L155.07333333333332,88.4921875L155.204,88.4921875L155.32533333333333,88.4921875L155.49333333333334,88.4921875L155.67066666666668,88.4921875L155.77333333333334,88.4921875L155.82933333333332,88.4921875L155.94133333333332,88.4921875L156.1,88.4921875L156.42666666666665,88.4921875L156.492,88.4921875L157.27599999999998,88.4921875L157.32266666666666,88.4921875L157.388,88.4921875L157.44400000000002,88.4921875L157.74266666666668,88.4921875L157.752,88.4921875L157.79866666666666,88.4921875L157.92933333333335,88.4921875L158.00400000000002,88.4921875L158.01333333333335,88.4921875L158.62933333333334,88.4921875L158.648,88.4921875L159.012,88.4921875L159.404,88.4921875L159.83333333333331,88.4921875L160.03866666666667,88.4921875L160.97199999999998,88.4921875L161.112,88.4921875L161.27066666666664,88.4921875L161.34533333333334,88.4921875L161.66266666666667,88.4921875L161.96133333333333,88.4921875L162.08266666666665,88.4921875L162.11999999999998,88.4921875L162.4093333333333,88.4921875L162.61466666666666,88.4921875L162.652,88.4921875L162.792,88.4921875L163.5293333333333,88.4921875L163.95866666666666,88.4921875L163.968,88.4921875L164.00533333333334,88.4921875L164.26666666666668,88.4921875L164.37866666666665,88.4921875L164.472,88.4921875L164.50933333333333,88.4921875L164.64,88.4921875L164.78,88.4921875L164.9946666666667,88.4921875L165.07866666666666,88.4921875L165.20933333333332,88.4921875L166.32,88.4921875L166.46933333333334,88.4921875L166.6,88.4921875L166.73066666666668,88.4921875L166.81466666666665,88.4921875L167.08533333333332,88.4921875L167.2626666666667,88.4921875L167.412,88.4921875L167.468,88.4921875L167.608,88.4921875L167.664,88.4921875L167.92533333333333,88.4921875L167.944,88.4921875L169.04533333333333,88.4921875L169.26000000000002,88.4921875L169.30666666666667,88.4921875L169.58666666666667,88.4921875L169.99733333333333,88.4921875L170.0906666666667,88.4921875L170.34266666666664,88.4921875L170.44533333333334,88.4921875L170.75333333333333,88.4921875L170.828,88.4921875L171.00533333333334,88.4921875L171.108,88.4921875L171.5,88.4921875L171.948,88.4921875L171.95733333333334,88.4921875L172.80666666666667,88.4921875L172.984,88.4921875L173.0773333333333,88.4921875L173.39466666666667,88.4921875L173.66533333333334,88.4921875L173.77733333333333,88.4921875L173.852,88.4921875L174.412,88.4921875L174.42133333333334,88.4921875L174.888,88.4921875L174.916,88.4921875L174.9346666666667,88.4921875L174.99066666666667,88.4921875L175.60666666666665,88.4921875L175.91466666666665,88.4921875L176.344,88.4921875L176.52133333333333,88.4921875L176.54933333333332,88.4921875L176.67066666666668,88.4921875L177.23066666666668,88.4921875L177.856,88.4921875L178.31333333333333,88.4921875L178.332,88.4921875L178.42533333333333,88.4921875L178.75199999999998,88.4921875L178.836,88.4921875L179.508,88.4921875L179.54533333333333,88.4921875L180.08666666666667,88.4921875L180.4693333333333,88.4921875L180.7493333333333,88.4921875L180.76799999999997,88.4921875L180.89866666666666,88.4921875L180.92666666666668,88.4921875L181.15066666666667,88.4921875L181.524,88.4921875L181.56133333333332,88.4921875L182.03733333333332,88.4921875L182.16799999999998,88.4921875L182.52266666666668,88.4921875L182.55066666666667,88.4921875L182.72799999999998,88.4921875L183.13866666666667,88.4921875L183.19466666666668,88.4921875L183.204,88.4921875L183.35333333333335,88.4921875L183.46533333333332,88.4921875L184.15599999999998,88.4921875L184.1746666666667,88.4921875L184.352,88.4921875L184.47333333333336,88.4921875L184.56666666666666,88.4921875L184.64133333333334,88.4921875L185.696,88.4921875L185.96666666666667,88.4921875L186.04133333333334,88.4921875L186.82533333333333,88.4921875L186.89066666666668,88.4921875L187.2733333333333,88.4921875L187.77733333333333,88.4921875L187.91733333333335,88.4921875L187.92666666666668,88.4921875L188.06666666666666,88.4921875L188.28133333333332,88.4921875L188.44,88.4921875L188.524,88.4921875L188.84133333333332,88.4921875L189.12133333333333,88.4921875L189.18666666666667,88.4921875L189.616,88.4921875L190.07333333333332,88.4921875L190.16666666666669,88.4921875L190.232,88.4921875L190.24133333333333,88.4921875L190.27866666666665,88.4921875L190.64266666666666,88.4921875L190.74533333333335,88.4921875L190.904,88.4921875L191.01600000000002,88.4921875L191.39866666666666,88.4921875L191.42666666666665,88.4921875L191.67866666666666,88.4921875L191.744,88.4921875L191.94933333333333,88.4921875L192.09866666666667,88.4921875L192.17333333333335,88.4921875L192.36933333333334,88.4921875L192.48133333333334,88.4921875L192.55599999999998,88.4921875L192.59333333333333,88.4921875L192.63066666666666,88.4921875L193.28400000000002,88.4921875L193.928,88.4921875L194.45066666666668,88.4921875L194.572,88.4921875L195.12266666666665,88.4921875L195.13199999999998,88.4921875L195.244,88.4921875L195.356,88.4921875L195.496,88.4921875L195.58933333333334,88.4921875L195.72,88.4921875L195.84133333333335,88.4921875L195.92533333333333,88.4921875L196.224,88.4921875L196.8213333333333,88.4921875L197.10133333333332,88.4921875L197.148,88.4921875L197.15733333333336,88.4921875L197.26933333333335,88.4921875L197.37199999999999,88.4921875L198.42666666666668,88.4921875L198.436,88.4921875L198.492,88.4921875L198.51999999999998,88.4921875L198.632,88.4921875L198.772,88.4921875L199.49066666666667,88.4921875L199.73333333333335,88.4921875L199.78933333333333,88.4921875L199.79866666666666,88.4921875L200.35866666666666,88.4921875L200.60133333333334,88.4921875L201.02133333333333,88.4921875L201.04933333333332,88.4921875L201.25466666666668,88.4921875L201.60933333333332,88.4921875L201.7026666666667,88.4921875L201.74,88.4921875L201.74933333333334,88.4921875L202.636,88.4921875L202.65466666666666,88.4921875L202.70133333333334,88.4921875L203.28,88.4921875L203.66266666666667,88.4921875L204.12933333333334,88.4921875L204.20399999999998,88.4921875L204.344,88.4921875L204.43733333333333,88.4921875L204.47466666666665,88.4921875L204.60533333333333,88.4921875L205.02533333333332,88.4921875L205.10933333333335,88.4921875L205.33333333333331,88.4921875L205.36133333333333,88.4921875L205.78133333333332,88.4921875L206.444,88.4921875L206.59333333333333,88.4921875L206.78933333333333,88.4921875L206.85466666666667,88.4921875L207.228,88.4921875L207.80666666666667,88.4921875L207.82533333333333,88.4921875L208.53466666666668,88.4921875L208.72133333333332,88.4921875L209.03866666666667,88.4921875L209.188,88.4921875L209.29066666666665,88.4921875L209.70133333333334,88.4921875L209.84133333333332,88.4921875L209.85066666666665,88.4921875L209.888,88.4921875L210.00933333333333,88.4921875L210.14933333333335,88.4921875L210.71866666666668,88.4921875L211.06400000000002,88.4921875L211.26933333333332,88.4921875L212.92133333333334,88.4921875L213.11733333333333,88.4921875L213.39733333333334,88.4921875L213.696,88.4921875L213.78,88.4921875L213.95733333333334,88.4921875L214.12533333333334,88.4921875L214.536,88.4921875L214.61999999999998,88.4921875L214.80666666666667,88.4921875L215.012,88.4921875L215.2266666666667,88.4921875L215.38533333333334,88.4921875L215.41333333333333,88.4921875L215.44133333333332,88.4921875L215.7866666666667,88.4921875L216.04799999999997,88.4921875L216.216,88.4921875L216.23466666666667,88.4921875L217.00933333333333,88.4921875L217.112,88.4921875L217.364,88.4921875L217.60666666666665,88.4921875L217.84,88.4921875L217.868,88.4921875L218.85733333333332,88.4921875L218.8946666666667,88.4921875L219.03466666666668,88.4921875L219.05333333333334,88.4921875L219.1,88.4921875L219.15599999999998,88.4921875L219.27733333333333,88.4921875L219.352,88.4921875L219.688,88.4921875L219.83733333333333,88.4921875L220.50933333333333,88.4921875L220.55599999999998,88.4921875L220.76133333333334,88.4921875L220.78,88.4921875L220.89200000000002,88.4921875L220.96666666666667,88.4921875L221.02266666666665,88.4921875L221.26533333333333,88.4921875L221.30266666666665,88.4921875L221.52666666666667,88.4921875L221.62933333333334,88.4921875L221.844,88.4921875L221.956,88.4921875L222.25466666666665,88.4921875L222.8706666666667,88.4921875L222.992,88.4921875L223.26266666666666,88.4921875L223.36533333333333,88.4921875L223.692,88.4921875L223.79466666666667,88.4921875L224.784,88.4921875L224.80266666666665,88.4921875L224.88666666666668,88.4921875L224.924,88.4921875L224.93333333333334,88.4921875L224.99866666666665,88.4921875L225.14800000000002,88.4921875L225.19466666666668,88.4921875L225.624,88.4921875L225.66133333333332,88.4921875L225.68,88.4921875L226.044,88.4921875L226.072,88.4921875L226.20266666666666,88.4921875L226.93066666666667,88.4921875L226.99599999999998,88.4921875L227.23866666666666,88.4921875L229.2733333333333,88.4921875L229.49733333333333,88.4921875L229.74,88.4921875L229.74933333333334,88.4921875L229.95466666666667,88.4921875L230.048,88.4921875L230.19733333333335,88.4921875L230.41199999999998,88.4921875L230.82266666666666,88.4921875L231.23333333333332,88.4921875L231.32666666666668,88.4921875L231.34533333333334,88.4921875L231.41066666666666,88.4921875L231.55066666666664,88.4921875L232.21333333333334,88.4921875L232.232,88.4921875L232.57733333333334,88.4921875L233.02533333333335,88.4921875L233.22133333333332,88.4921875L233.48266666666666,88.4921875L233.55733333333333,88.4921875L233.65066666666667,88.4921875L233.97733333333335,88.4921875L234.32266666666666,88.4921875L234.70533333333336,88.4921875L234.836,88.4921875L235.2373333333333,88.4921875L235.5173333333333,88.4921875L235.74133333333333,88.4921875L235.96533333333332,88.4921875L235.97466666666668,88.4921875L236.97333333333336,88.4921875L237.28133333333335,88.4921875L237.53333333333336,88.4921875L237.86,88.4921875L237.916,88.4921875L237.95333333333332,88.4921875L238.51333333333332,88.4921875L238.56,88.4921875L238.68133333333336,88.4921875L238.896,88.4921875L239.008,88.4921875L239.71733333333333,88.4921875L240.0906666666667,88.4921875L240.464,88.4921875L240.492,88.4921875L240.79999999999998,88.4921875L241.00533333333334,88.4921875L241.09866666666667,88.4921875L241.39733333333334,88.4921875L241.54666666666668,88.4921875L241.80800000000002,88.4921875L241.81733333333335,88.4921875L242.68533333333335,88.4921875L243.04,88.4921875L243.51600000000002,88.4921875L243.53466666666668,88.4921875L243.87066666666666,88.4921875L244.03866666666667,88.4921875L244.06666666666666,88.4921875L244.72,88.4921875L245.15866666666668,88.4921875L245.448,88.4921875L245.644,88.4921875L246.12933333333334,88.4921875L246.66133333333335,88.4921875L246.904,88.4921875L247.59466666666665,88.4921875L247.69733333333335,88.4921875L247.72533333333334,88.4921875L248.00533333333334,88.4921875L248.06133333333335,88.4921875L248.4813333333333,88.4921875L249.40533333333335,88.4921875L249.97466666666668,88.4921875L250.19866666666667,88.4921875L250.25466666666668,88.4921875L250.45066666666665,88.4921875L250.67466666666667,88.4921875L250.88,88.4921875L251.00133333333332,88.4921875L251.412,88.4921875L251.72933333333333,88.4921875L251.76666666666668,88.4921875L251.92533333333336,88.4921875L251.94400000000002,88.4921875L253.00799999999998,88.4921875L253.19466666666668,88.4921875L253.28799999999998,88.4921875L253.52133333333333,88.4921875L253.9226666666667,88.4921875L254.05333333333334,88.4921875L254.18400000000003,88.4921875L254.42666666666665,88.4921875L254.51066666666668,88.4921875L254.94933333333333,88.4921875L254.98666666666665,88.4921875L255.08,88.4921875L255.18266666666668,88.4921875L255.22,88.4921875L255.248,88.4921875L255.3226666666667,88.4921875L255.51866666666666,88.4921875L255.58399999999997,88.4921875L255.78,88.4921875L256.1066666666667,88.4921875L256.29333333333335,88.4921875L256.312,88.4921875L256.47066666666666,88.4921875L256.60133333333334,88.4921875L256.66666666666663,88.4921875" fill="none"></path></g></g></g></g></g></g><g transform="translate(50, 176)" clip-path="url(#clip_1)"><clipPath id="clip_1"><rect width="280" height="23"></rect></clipPath><g><g><line x1="0" y1="0" x2="0" y2="5" style="visibility: inherit;" fill="rgb(0, 0, 0)" stroke="rgb(204, 204, 204)" stroke-width="1.333333px"></line><line x1="23.333333333333332" y1="0" x2="23.333333333333332" y2="5" style="visibility: inherit;" fill="rgb(0, 0, 0)" stroke="rgb(204, 204, 204)" stroke-width="1.333333px"></line><line x1="46.666666666666664" y1="0" x2="46.666666666666664" y2="5" style="visibility: inherit;" fill="rgb(0, 0, 0)" stroke="rgb(204, 204, 204)" stroke-width="1.333333px"></line><line x1="70" y1="0" x2="70" y2="5" style="visibility: inherit;" fill="rgb(0, 0, 0)" stroke="rgb(204, 204, 204)" stroke-width="1.333333px"></line><line x1="93.33333333333333" y1="0" x2="93.33333333333333" y2="5" style="visibility: inherit;" fill="rgb(0, 0, 0)" stroke="rgb(204, 204, 204)" stroke-width="1.333333px"></line><line x1="116.66666666666667" y1="0" x2="116.66666666666667" y2="5" style="visibility: inherit;" fill="rgb(0, 0, 0)" stroke="rgb(204, 204, 204)" stroke-width="1.333333px"></line><line x1="140" y1="0" x2="140" y2="5" style="visibility: inherit;" fill="rgb(0, 0, 0)" stroke="rgb(204, 204, 204)" stroke-width="1.333333px"></line><line x1="163.33333333333334" y1="0" x2="163.33333333333334" y2="5" style="visibility: inherit;" fill="rgb(0, 0, 0)" stroke="rgb(204, 204, 204)" stroke-width="1.333333px"></line><line x1="186.66666666666666" y1="0" x2="186.66666666666666" y2="5" style="visibility: inherit;" fill="rgb(0, 0, 0)" stroke="rgb(204, 204, 204)" stroke-width="1.333333px"></line><line x1="210" y1="0" x2="210" y2="5" style="visibility: inherit;" fill="rgb(0, 0, 0)" stroke="rgb(204, 204, 204)" stroke-width="1.333333px"></line><line x1="233.33333333333334" y1="0" x2="233.33333333333334" y2="5" style="visibility: inherit;" fill="rgb(0, 0, 0)" stroke="rgb(204, 204, 204)" stroke-width="1.333333px"></line><line x1="256.66666666666663" y1="0" x2="256.66666666666663" y2="5" style="visibility: inherit;" fill="rgb(0, 0, 0)" stroke="rgb(204, 204, 204)" stroke-width="1.333333px"></line><line x1="280" y1="0" x2="280" y2="5" style="visibility: inherit;" fill="rgb(0, 0, 0)" stroke="rgb(204, 204, 204)" stroke-width="1.333333px"></line></g><g transform="translate(0, 8)"><text style="text-anchor: middle; visibility: hidden; font-family: Roboto, sans-serif; font-size: 16px; font-weight: 200;" x="0" y="0" dx="0em" dy="0.95em" fill="rgb(33, 33, 33)" stroke="none" stroke-width="1.333333px">-10k</text><text style="text-anchor: middle; visibility: inherit; font-family: Roboto, sans-serif; font-size: 16px; font-weight: 200;" x="23.333333333333332" y="0" dx="0em" dy="0.95em" fill="rgb(33, 33, 33)" stroke="none" stroke-width="1.333333px">0</text><text style="text-anchor: middle; visibility: hidden; font-family: Roboto, sans-serif; font-size: 16px; font-weight: 200;" x="46.666666666666664" y="0" dx="0em" dy="0.95em" fill="rgb(33, 33, 33)" stroke="none" stroke-width="1.333333px">10k</text><text style="text-anchor: middle; visibility: inherit; font-family: Roboto, sans-serif; font-size: 16px; font-weight: 200;" x="70" y="0" dx="0em" dy="0.95em" fill="rgb(33, 33, 33)" stroke="none" stroke-width="1.333333px">20k</text><text style="text-anchor: middle; visibility: hidden; font-family: Roboto, sans-serif; font-size: 16px; font-weight: 200;" x="93.33333333333333" y="0" dx="0em" dy="0.95em" fill="rgb(33, 33, 33)" stroke="none" stroke-width="1.333333px">30k</text><text style="text-anchor: middle; visibility: inherit; font-family: Roboto, sans-serif; font-size: 16px; font-weight: 200;" x="116.66666666666667" y="0" dx="0em" dy="0.95em" fill="rgb(33, 33, 33)" stroke="none" stroke-width="1.333333px">40k</text><text style="text-anchor: middle; visibility: hidden; font-family: Roboto, sans-serif; font-size: 16px; font-weight: 200;" x="140" y="0" dx="0em" dy="0.95em" fill="rgb(33, 33, 33)" stroke="none" stroke-width="1.333333px">50k</text><text style="text-anchor: middle; visibility: inherit; font-family: Roboto, sans-serif; font-size: 16px; font-weight: 200;" x="163.33333333333334" y="0" dx="0em" dy="0.95em" fill="rgb(33, 33, 33)" stroke="none" stroke-width="1.333333px">60k</text><text style="text-anchor: middle; visibility: hidden; font-family: Roboto, sans-serif; font-size: 16px; font-weight: 200;" x="186.66666666666666" y="0" dx="0em" dy="0.95em" fill="rgb(33, 33, 33)" stroke="none" stroke-width="1.333333px">70k</text><text style="text-anchor: middle; visibility: inherit; font-family: Roboto, sans-serif; font-size: 16px; font-weight: 200;" x="210" y="0" dx="0em" dy="0.95em" fill="rgb(33, 33, 33)" stroke="none" stroke-width="1.333333px">80k</text><text style="text-anchor: middle; visibility: hidden; font-family: Roboto, sans-serif; font-size: 16px; font-weight: 200;" x="233.33333333333334" y="0" dx="0em" dy="0.95em" fill="rgb(33, 33, 33)" stroke="none" stroke-width="1.333333px">90k</text><text style="text-anchor: middle; visibility: inherit; font-family: Roboto, sans-serif; font-size: 16px; font-weight: 200;" x="256.66666666666663" y="0" dx="0em" dy="0.95em" fill="rgb(33, 33, 33)" stroke="none" stroke-width="1.333333px">100k</text><text style="text-anchor: middle; visibility: hidden; font-family: Roboto, sans-serif; font-size: 16px; font-weight: 200;" x="280" y="0" dx="0em" dy="0.95em" fill="rgb(33, 33, 33)" stroke="none" stroke-width="1.333333px">110k</text></g><line x1="0" y1="0" x2="280" y2="0" fill="rgb(0, 0, 0)" stroke="rgb(204, 204, 204)" stroke-width="1.333333px"></line></g></g></g></g></svg>