<svg viewBox="0 0 330 200" xmlns="http://www.w3.org/2000/svg"><g><g><g><g><g><line x1="60" y1="176.984375" x2="55" y2="176.984375" style="visibility: inherit;" fill="rgb(0, 0, 0)" stroke="rgb(204, 204, 204)" stroke-width="1.333333px"></line><line x1="60" y1="154.861328125" x2="55" y2="154.861328125" style="visibility: inherit;" fill="rgb(0, 0, 0)" stroke="rgb(204, 204, 204)" stroke-width="1.333333px"></line><line x1="60" y1="132.73828125" x2="55" y2="132.73828125" style="visibility: inherit;" fill="rgb(0, 0, 0)" stroke="rgb(204, 204, 204)" stroke-width="1.333333px"></line><line x1="60" y1="110.61523437499999" x2="55" y2="110.61523437499999" style="visibility: inherit;" fill="rgb(0, 0, 0)" stroke="rgb(204, 204, 204)" stroke-width="1.333333px"></line><line x1="60" y1="88.49218749999999" x2="55" y2="88.49218749999999" style="visibility: inherit;" fill="rgb(0, 0, 0)" stroke="rgb(204, 204, 204)" stroke-width="1.333333px"></line><line x1="60" y1="66.369140625" x2="55" y2="66.369140625" style="visibility: inherit;" fill="rgb(0, 0, 0)" stroke="rgb(204, 204, 204)" stroke-width="1.333333px"></line><line x1="60" y1="44.24609375" x2="55" y2="44.24609375" style="visibility: inherit;" fill="rgb(0, 0, 0)" stroke="rgb(204, 204, 204)" stroke-width="1.333333px"></line><line x1="60" y1="22.123046875" x2="55" y2="22.123046875" style="visibility: inherit;" fill="rgb(0, 0, 0)" stroke="rgb(204, 204, 204)" stroke-width="1.333333px"></line><line x1="60" y1="0" x2="55" y2="0" style="visibility: inherit;" fill="rgb(0, 0, 0)" stroke="rgb(204, 204, 204)" stroke-width="1.333333px"></line></g><g transform="translate(50, 0)"><text style="text-anchor: end; visibility: hidden; font-family: Roboto, sans-serif; font-size: 16px; font-weight: 200;" x="0" y="176.984375" dx="0em" dy="0.3em" fill="rgb(33, 33, 33)" stroke="none" stroke-width="1.333333px">-0.05</text><text style="text-anchor: end; visibility: inherit; font-family: Roboto, sans-serif; font-size: 16px; font-weight: 200;" x="0" y="154.861328125" dx="0em" dy="0.3em" fill="rgb(33, 33, 33)" stroke="none" stroke-width="1.333333px">0</text><text style="text-anchor: end; visibility: hidden; font-family: Roboto, sans-serif; font-size: 16px; font-weight: 200;" x="0" y="132.73828125" dx="0em" dy="0.3em" fill="rgb(33, 33, 33)" stroke="none" stroke-width="1.333333px">0.05</text><text style="text-anchor: end; visibility: inherit; font-family: Roboto, sans-serif; font-size: 16px; font-weight: 200;" x="0" y="110.61523437499999" dx="0em" dy="0.3em" fill="rgb(33, 33, 33)" stroke="none" stroke-width="1.333333px">0.1</text><text style="text-anchor: end; visibility: hidden; font-family: Roboto, sans-serif; font-size: 16px; font-weight: 200;" x="0" y="88.49218749999999" dx="0em" dy="0.3em" fill="rgb(33, 33, 33)" stroke="none" stroke-width="1.333333px">0.15</text><text style="text-anchor: end; visibility: inherit; font-family: Roboto, sans-serif; font-size: 16px; font-weight: 200;" x="0" y="66.369140625" dx="0em" dy="0.3em" fill="rgb(33, 33, 33)" stroke="none" stroke-width="1.333333px">0.2</text><text style="text-anchor: end; visibility: hidden; font-family: Roboto, sans-serif; font-size: 16px; font-weight: 200;" x="0" y="44.24609375" dx="0em" dy="0.3em" fill="rgb(33, 33, 33)" stroke="none" stroke-width="1.333333px">0.25</text><text style="text-anchor: end; visibility: inherit; font-family: Roboto, sans-serif; font-size: 16px; font-weight: 200;" x="0" y="22.123046875" dx="0em" dy="0.3em" fill="rgb(33, 33, 33)" stroke="none" stroke-width="1.333333px">0.3</text><text style="text-anchor: end; visibility: hidden; font-family: Roboto, sans-serif; font-size: 16px; font-weight: 200;" x="0" y="0" dx="0em" dy="0.3em" fill="rgb(33, 33, 33)" stroke="none" stroke-width="1.333333px">0.35</text></g><line x1="60" y1="0" x2="60" y2="176.984375" fill="rgb(0, 0, 0)" stroke="rgb(204, 204, 204)" stroke-width="1.333333px"></line></g></g><g transform="translate(60, 0)" clip-path="url(#clip_0)"><clipPath id="clip_0"><rect width="270" height="176"></rect></clipPath><g><g><g><line x1="0" y1="0" x2="0" y2="176.984375" fill="rgb(0, 0, 0)" stroke="rgb(66, 66, 66)" stroke-width="1.333333px" opacity="0.25"></line><line x1="22.5" y1="0" x2="22.5" y2="176.984375" fill="rgb(0, 0, 0)" stroke="rgb(66, 66, 66)" stroke-width="1.333333px" opacity="0.25"></line><line x1="45" y1="0" x2="45" y2="176.984375" fill="rgb(0, 0, 0)" stroke="rgb(66, 66, 66)" stroke-width="1.333333px" opacity="0.25"></line><line x1="67.5" y1="0" x2="67.5" y2="176.984375" fill="rgb(0, 0, 0)" stroke="rgb(66, 66, 66)" stroke-width="1.333333px" opacity="0.25"></line><line x1="90" y1="0" x2="90" y2="176.984375" fill="rgb(0, 0, 0)" stroke="rgb(66, 66, 66)" stroke-width="1.333333px" opacity="0.25"></line><line x1="112.5" y1="0" x2="112.5" y2="176.984375" fill="rgb(0, 0, 0)" stroke="rgb(66, 66, 66)" stroke-width="1.333333px" opacity="0.25"></line><line x1="135" y1="0" x2="135" y2="176.984375" fill="rgb(0, 0, 0)" stroke="rgb(66, 66, 66)" stroke-width="1.333333px" opacity="0.25"></line><line x1="157.5" y1="0" x2="157.5" y2="176.984375" fill="rgb(0, 0, 0)" stroke="rgb(66, 66, 66)" stroke-width="1.333333px" opacity="0.25"></line><line x1="180" y1="0" x2="180" y2="176.984375" fill="rgb(0, 0, 0)" stroke="rgb(66, 66, 66)" stroke-width="1.333333px" opacity="0.25"></line><line x1="202.5" y1="0" x2="202.5" y2="176.984375" fill="rgb(0, 0, 0)" stroke="rgb(66, 66, 66)" stroke-width="1.333333px" opacity="0.25"></line><line x1="225" y1="0" x2="225" y2="176.984375" fill="rgb(0, 0, 0)" stroke="rgb(66, 66, 66)" stroke-width="1.333333px" opacity="0.25"></line><line x1="247.5" y1="0" x2="247.5" y2="176.984375" fill="rgb(0, 0, 0)" stroke="rgb(66, 66, 66)" stroke-width="1.333333px" opacity="0.25"></line><line x1="270" y1="0" x2="270" y2="176.984375" fill="rgb(0, 0, 0)" stroke="rgb(66, 66, 66)" stroke-width="1.333333px" opacity="0.25"></line></g><g><line x1="0" y1="176.984375" x2="270" y2="176.984375" fill="rgb(0, 0, 0)" stroke="rgb(66, 66, 66)" stroke-width="1.333333px" opacity="0.25"></line><line x1="0" y1="154.861328125" x2="270" y2="154.861328125" fill="rgb(0, 0, 0)" stroke="rgb(66, 66, 66)" stroke-width="1.333333px" opacity="0.25"></line><line x1="0" y1="132.73828125" x2="270" y2="132.73828125" fill="rgb(0, 0, 0)" stroke="rgb(66, 66, 66)" stroke-width="1.333333px" opacity="0.25"></line><line x1="0" y1="110.61523437499999" x2="270" y2="110.61523437499999" fill="rgb(0, 0, 0)" stroke="rgb(66, 66, 66)" stroke-width="1.333333px" opacity="0.25"></line><line x1="0" y1="88.49218749999999" x2="270" y2="88.49218749999999" fill="rgb(0, 0, 0)" stroke="rgb(66, 66, 66)" stroke-width="1.333333px" opacity="0.25"></line><line x1="0" y1="66.369140625" x2="270" y2="66.369140625" fill="rgb(0, 0, 0)" stroke="rgb(66, 66, 66)" stroke-width="1.333333px" opacity="0.25"></line><line x1="0" y1="44.24609375" x2="270" y2="44.24609375" fill="rgb(0, 0, 0)" stroke="rgb(66, 66, 66)" stroke-width="1.333333px" opacity="0.25"></line><line x1="0" y1="22.123046875" x2="270" y2="22.123046875" fill="rgb(0, 0, 0)" stroke="rgb(66, 66, 66)" stroke-width="1.333333px" opacity="0.25"></line><line x1="0" y1="0" x2="270" y2="0" fill="rgb(0, 0, 0)" stroke="rgb(66, 66, 66)" stroke-width="1.333333px" opacity="0.25"></line></g></g></g><g><g><line x1="0" y1="154.861328125" x2="270" y2="154.861328125" fill="rgb(0, 0, 0)" stroke="rgb(153, 153, 153)" stroke-width="2px"></line></g></g><g><g><line x1="22.5" y1="0" x2="22.5" y2="176.984375" fill="rgb(0, 0, 0)" stroke="rgb(153, 153, 153)" stroke-width="2px"></line></g></g><g><g><g><g><g><path style="fill: none;" stroke="rgb(255, 112, 67)" stroke-width="2.666667px" d="M22.68,154.42078490671702L22.941,154.2163220991206L23.076,153.7272535004482L23.085,153.35541799788743L23.319,152.98750026337868L23.445,153.67555217343218L23.480999999999998,149.03771568946993L23.67,149.74715860597243L23.994,150.88163318463276L24.066,142.30330679809356L24.237,147.2950047763024L24.714,149.89305750271666L24.849,151.71995296007458L25.055999999999997,152.82687184984366L25.389,152.0120744717482L25.812,152.3233434283464L25.992,148.98870667827774L26.136,151.22437651537174L26.253,147.62493698940094L26.450999999999997,144.4808547473847L26.703,148.41944020386862L26.793000000000003,150.72206535899522L26.847,144.9821584393163L27.108,147.71779547107622L27.315,150.57509534148733L27.36,142.58232519952477L27.378,132.36734517010836L27.522,141.26897873947487L27.882,143.65006402183946L28.250999999999998,148.08104455594517L28.305,148.29766245474804L28.314,127.46719992983292L28.44,138.4242715311273L28.593,133.16916689472689L29.394,126.13038346710438L29.493000000000002,137.024794142301L29.754,144.15940777953426L30.231,145.4497803190433L30.312,52.731043371836606L30.491999999999997,58.775100355059394L30.996,97.15330154529384L31.509,119.5943310108177L31.653,103.5032655983049L31.752,121.23162660499665L31.851,134.39808573906413L32.022,141.98916823263377L32.157,135.9202397952478L32.517,128.6798916200972L32.643,139.15246622219942L32.705999999999996,144.2717342041974L32.886,140.89649506292054L32.994,146.48242828776858L33.083999999999996,146.8838980578775L33.102,129.20939878520312L33.174,139.2552644432962L33.48,140.48989409922513L33.786,138.4003376440618L33.804,144.4615727762611L33.830999999999996,103.72520905231241L33.92100000000001,119.13831211860996L33.957,132.83783225711525L34.443,130.98523024546594L34.623000000000005,140.52549479920046L34.902,98.68735814580444L35.271,121.11510316881397L35.631,77.17221136713228L35.64,104.81002278041555L35.964000000000006,112.68801131256387L36.108000000000004,129.55733803753833L36.135,139.57052370361666L36.45,145.6014215721227L36.477,149.30538419327362L36.603,148.8447745803034L36.882,135.04566381348698L37.161,137.91993566814864L37.233,142.05581259389254L37.548,146.6728571323408L37.683,149.9482455294045L37.836,151.9134785676427L37.854,114.42355467159611L37.917,130.5450588480439L38.511,104.3878663144648L39.141,120.79707137954136L39.258,-41.57125227772059L39.609,36.84577992857776L39.699,74.83898240190764L39.978,106.80009375071796L40.158,0.36664501536651295L40.166999999999994,21.600075660260472L40.329,73.30781615408291L41.148,105.92922094244975L41.229,125.50206381546985L41.318999999999996,113.59660152149591L41.418,128.17097473511035L42.399,138.3751471312821L43.389,144.96961952876924L43.749,52.54915535044299L44.064,79.18955334982502L44.442,28.271073237109785L44.487,78.24031705444781L44.604000000000006,108.8887214826687L44.676,127.27776413960122L44.703,138.31118973376073L44.883,144.93124509025645L45.045,132.6459452417975L45.171,134.4487399529005L45.288000000000004,142.16827920532546L45.711,139.30196219242222L45.72,142.00735997731078L45.909,147.14894723638648L46.160999999999994,150.23387585637758L46.233,34.152414339007635L46.30500000000001,82.42664654531694L46.674,38.4026252663351L46.755,84.1476277509871L46.89,109.68219775652582L46.971,127.75365474573563L47.124,138.27245032071272L47.178,139.7066561821726L47.295,138.51167353251216L47.304,89.65225713202291L47.312999999999995,107.05814014039296L47.43,120.71396039937241L47.583,134.37245915326432L47.826,142.56775356377935L48.024,143.06721097374609L48.114,147.62640785311885L48.266999999999996,150.5203759618713L49.176,144.68099056173048L49.275,148.68771067497093L50.265,147.50970665632425L50.274,149.25174644861363L50.45399999999999,151.49460860281434L50.463,151.61256732499336L50.598000000000006,145.99634089294514L50.823,92.59658720933835L51.309,117.502483575603L51.471,132.44498758446315L51.687000000000005,113.91444568625585L51.903,130.2931986617535L51.93,140.1204504470521L52.722,139.26955820720792L53.153999999999996,145.1661239277562L53.667,148.9738220728183L53.865,131.46685919224439L53.937000000000005,116.87187327698707L54.018,132.06765521619224L54.251999999999995,141.09308883700746L54.612,140.7137017843178L54.639,146.00842100881158L54.918,56.816609107159756L55.062,96.03449671429586L55.403999999999996,119.56506576767008L55.431000000000004,111.62391068496258L55.467,-277.9801886195961L55.556999999999995,-28.394853447393455L55.728,44.906949314297954L55.926,85.7230927486959L56.367,96.28341910531142L56.556,87.11650229022479L57.15,105.35243945262738L57.168,125.15581558703278L57.636,137.0171914224298L57.753,108.78832031024261L57.807,102.7175870687605L57.915,103.80090244892408L57.942,122.99245892997114L58.293,135.64572938347922L58.626000000000005,142.3965493513424L58.725,147.38246086080545L58.824,145.1195715694911L58.878,149.01423294262435L58.940999999999995,137.36085191673095L59.274,138.8402311111882L59.498999999999995,140.55892127584224L59.607,144.7899779014449L59.634,141.4172363246235L59.832,144.38841708814184L60.147,139.69141245253059L60.245999999999995,145.75071264342395L60.561,143.90532011052588L60.831,129.02054740159582L61.38,139.34721254741845L61.47,82.72587603953524L62.604,102.1678046650375L63.333,123.17594080699408L63.369,107.43217429724587L63.594,122.34813501562591L64.026,102.27752395487005L64.359,122.32653590012667L64.728,131.9068107638062L64.74600000000001,138.9292953018856L64.8,84.57876736008446L64.881,95.98966146454516L65.08800000000001,105.12045321599577L65.511,124.68109155116599L66.006,125.95629723507537L66.033,133.97579039860108L66.042,142.12333825124554L66.114,145.96552110702433L66.456,148.81599200953738L66.708,136.83828859367785L66.879,135.17539465661946L67.059,137.2102027901551L67.33800000000001,123.90497117409168L68.229,134.56146644277683L68.31,124.76971425090841L68.328,136.11411263843766L68.706,126.75964214035542L68.742,125.97888912821514L68.877,124.98561741622547L68.904,135.5822212697551L68.913,110.73720195665497L69.201,125.85036837412699L69.318,135.7571609352382L69.543,140.04921456766178L69.66,119.99089244635692L69.795,71.67637066956931L69.87599999999999,98.95268389952003L69.903,107.39229378563319L70.173,126.18002862339634L70.389,133.64544990991678L70.416,75.5133802807376L70.776,107.25255941844253L70.848,124.82055502140535L71.14500000000001,136.8036056168151L71.52300000000001,138.2665139118353L71.604,144.90442904801037L71.64899999999999,148.8871886788062L72.099,84.81805765864263L73.521,111.27816180634952L74.088,126.11528390090922L74.33999999999999,116.3029399818965L74.547,92.92267259241495L75.006,113.66627493794138L75.312,103.8130244956728L75.429,121.92243263252473L76.05,101.38863489685444L76.122,116.14968415225029L76.347,115.03973578512358L76.491,118.16482781114802L76.599,127.49400772610939L76.995,137.77533836419852L77.51700000000001,136.48572911683934L77.715,111.49862226269303L77.75999999999999,95.16504652919117L77.796,119.04355916751472L78.54299999999999,133.37066675050883L78.705,140.325060258687L79.02900000000001,146.1395172970309L79.218,143.70793627067107L79.506,125.00816549423863L79.524,136.64178213691952L79.74,130.2378590984586L79.749,-1669.6918165753223L81.43199999999999,-14.123870925788758L81.477,51.276783714836284L81.59400000000001,-1.8209194074449437L81.639,52.82999734827861L81.783,93.64252965896716L81.82799999999999,118.117717158232L81.909,59.283626052194876L82.053,51.0263669593917L82.575,80.32228525364059L82.998,77.62064911295232L83.08800000000001,95.53990392141347L83.268,118.58738474153722L83.73599999999999,133.09696209492233L84.096,141.80132921333094L84.16799999999999,142.20452087026823L84.249,144.96496008720504L84.393,148.92227305869912L84.762,145.20802364210988L84.789,142.48990651164064L84.888,144.50863924654115L85.437,148.37360816980103L85.482,137.9795399892815L85.5,83.4208445566364L86.004,111.99703270943643L86.571,128.8061557608757L86.598,128.0264458322585L86.652,138.7603987493551L86.994,145.20077049961304L87.12,149.06499354976785L87.381,134.00662985970783L87.795,57.96114168259625L87.98400000000001,30.40047486316039L88.29,80.11352541225179L88.56,109.62311604491708L88.69500000000001,127.71840087695027L88.821,138.57554012889776L89.33399999999999,141.34333517967977L89.43299999999999,127.74353658137248L89.442,86.67290194803492L89.694,72.8786892440484L89.72999999999999,85.81330816585591L89.74799999999999,76.84554758042854L89.856,98.99567632598139L90.072,89.2466869475541L90.18,105.94661313119738L90.252,124.00462263847567L90.30600000000001,135.69095886425217L90.405,131.67997078637282L90.477,140.84927768195607L90.495,93.37417964738196L90.855,95.36774122007206L90.93599999999999,96.01949497008705L90.954,75.57190753304778L91.26,106.16303192481065L91.31400000000001,123.91448053777205L91.458,134.41062882801882L92.06099999999999,141.4662304172482L92.08800000000001,134.95519470099563L92.32199999999999,141.49558052221622L92.664,132.39748159904778L92.673,138.95547925755457L92.90700000000001,145.31756826362616L93.06,133.0151173180698L93.168,88.03356987368964L93.213,100.43260456607135L93.57300000000001,112.75528126950982L93.627,129.34025208793946L93.879,124.62872361327925L94.39200000000001,99.15636340238953L94.932,10.797290742148792L95.22,68.38265563933167L95.616,96.51536467148358L95.814,119.85375005289013L95.985,71.20052502836866L95.994,73.13377473147672L96.246,105.81381448536047L96.462,27.186805946887578L96.57900000000001,78.25660954358712L97.011,108.89849697615229L97.137,127.28362943569137L97.182,138.3147089114148L97.686,135.47902142768072L97.78500000000001,137.98173018321L97.91099999999999,144.733569359926L98.09100000000001,148.7846728659556L98.217,146.28302053478612L98.937,140.03479322488457L99.207,91.93055890095442L99.45,117.00474949701703L99.50399999999999,131.89223536351145L99.58500000000001,141.07933973902135L100.08,-136.14894282514655L100.161,-33.41057500722515L100.449,39.248468255123065L100.485,76.74111068227995L100.764,79.7889883584029L100.818,78.46525104133391L100.98,55.7960183717719L101.03399999999999,43.39958053060463L101.286,76.93095013714374L101.30399999999999,78.68960153901565L101.502,109.1582921734094L101.52,127.43950655404564L101.925,135.01292327758907L102.015,142.8485612812362L102.303,142.84773960358854L102.348,137.64229618496307L102.411,143.19663310988278L102.771,132.69634435892905L102.80699999999999,140.96726101590613L103.38300000000001,146.5248614868167L103.572,149.85944814209L103.815,151.6519241609915L104.04,89.6172261417281L104.571,115.71486693503684L104.607,131.3734514110221L104.88600000000001,140.42004695012955L105.426,124.75592531728432L105.786,129.4270147329133L106.137,119.03170879088893L106.245,133.36354597544255L106.263,140.51316628807012L106.326,130.87136346255485L106.461,49.068560289582564L106.62299999999999,90.93880002553036L106.749,116.36275335496342L106.866,127.05931682769426L106.911,138.17424022849406L107.00099999999999,144.2163039989345L107.622,148.4743136493607L108.36,143.60474581360592L108.441,129.65670245157045L108.52199999999999,139.36740933377735L108.612,145.56024822031412L108.855,149.28068018218846L109.557,151.5129393593131L109.566,152.8517463128661L109.746,153.65557903771966L109.854,26.818148462513776L109.926,14.372153140665402L110.29499999999999,68.74375610825537L110.304,92.20021993673735L110.46600000000001,113.30242998110516L110.835,12.655217436260042L110.934,42.19342146215577L111.051,87.26058412729347L111.168,111.28117019956682L111.321,98.90199329411834L111.56400000000001,121.2857114028348L111.654,99.22900387788232L111.771,121.48193357672939L112.05,134.83369139603764L112.059,142.84474608762258L112.068,147.65137890257355L112.158,150.5353585915441L112.275,152.26574640492646L112.329,153.3039790929559L112.455,153.9268976075919L113.085,154.29856527094L113.328,154.32623890364664L113.607,154.53986845219208L113.76,154.59273094753368L114.237,146.08449527998235L114.39,149.13583133716938L114.453,145.47139004146413L114.93900000000001,149.22733626487877L115.038,143.1810349544765L115.59599999999999,147.84337585278453L115.623,130.6052799093461L115.632,139.74953361487493L116.07300000000001,145.31682857919583L116.523,117.56064316058777L116.57700000000001,53.85090057777015L116.586,66.15173195926523L116.64,-46.92588286844983L117.027,0.08717764710279326L117.17999999999999,-100.92066214728422L117.56700000000001,0.6608709871884456L117.67500000000001,62.336712891447746L117.88199999999999,44.50535929811787L118.044,88.60051591207447L118.215,115.07404008937358L118.30499999999999,122.62611082435386L118.323,133.5870188350237L118.881,142.09674255101422L118.971,147.1499605529575L119.034,111.98615479035898L119.223,129.1362241242154L119.45700000000001,139.42626572452923L120.09599999999999,145.30831558675396L120.591,145.07735109747694L121.30199999999999,138.69239728692546L121.716,134.0804705339275L121.725,142.2999710222022L121.77000000000001,146.15546625784216L121.842,149.6052723341245L122.004,138.0467961210159L122.364,126.1853904792121L122.58,137.65576553752726L122.634,132.70875968912478L122.643,141.5409880455836L122.949,146.86802697190666L123.048,127.01581347203606L123.39,138.15401933322164L123.426,144.83694284993297L123.47999999999999,69.89022822739786L123.552,103.87866818643872L124.488,103.12769102153227L124.497,42.7464355208176L125.06400000000001,85.46187708580182L125.15400000000001,104.74525733426549L125.199,124.7561826854629L125.505,134.2524314151422L125.55000000000001,142.15413889980672L125.66699999999999,138.4301377805478L125.685,142.78959136519956L126.25200000000001,147.6142299437061L126.64800000000001,148.81905401876776L126.72,150.90244888098886L127.017,152.4859742058663L127.782,113.07091912709578L128.142,129.14111970004677L128.322,112.38969440644452L128.40300000000002,83.7404334760895L128.592,110.84203902105817L128.871,128.44975466263492L128.889,45.42922209714173L128.92499999999998,89.1703803140592L129.114,115.1999845572887L129.141,131.06452198437321L129.177,140.58324444062393L129.321,144.03481255626122L129.40200000000002,148.3590154856395L129.456,150.95704745323107L130.113,149.27251174468745L130.266,143.9153855743178L130.761,147.4177951043367L131.202,111.80716424824973L131.733,97.99213612932708L132.09300000000002,116.47229428337512L132.129,115.21506248580066L132.408,131.0735687414804L132.633,137.99456139923998L132.957,118.46624412461179L133.236,133.01758432665278L133.254,140.02897895158677L133.362,105.8087771605706L133.70399999999998,125.3046985157862L133.81199999999998,137.0767252727097L134.064,143.82948949635934L134.1,128.33070529232344L134.118,106.21916312460927L134.307,125.62946280068988L134.316,135.85949309789737L134.451,124.27377019956805L134.559,132.55517874598934L134.80200000000002,138.76866098946778L134.82,130.64820934144896L134.838,132.68675586564723L135.504,135.3887186234292L135.927,140.34751256806422L136.35,71.26389333179007L136.89000000000001,104.68705943650625L137.55599999999998,124.75676691190375L137.637,126.15538160633129L138.24,123.1197955275317L138.62699999999998,130.5021221028579L138.66299999999998,119.72351623420232L138.816,111.21633524904362L139.014,103.56196856549211L139.26600000000002,124.07602379207992L139.302,117.645946061616L139.491,132.5320988869696L139.608,140.12526655841233L139.73399999999998,144.27134816995778L139.842,148.50734015197466L139.851,151.0489353411848L139.95,152.5738924547109L140.346,151.96203351641137L141.21,153.12075447076595L141.561,142.9951806716321L141.768,147.74145768116293L141.867,150.58940058415234L142.25400000000002,152.2981716004914L142.659,153.32343421029483L143.01,153.9385917761769L143.28,146.58048257729612L143.613,116.58684363510244L144.216,131.2293520550659L144.30599999999998,100.83813949135764L144.46800000000002,117.65657172950921L144.54,129.63802550696585L144.81,139.7273465541795L145.125,142.77261803649262L145.296,147.57057368136506L145.314,150.46782907537485L145.341,152.22505727249936L145.458,137.42447729526717L145.962,143.59314841256483L146.142,148.06001200521925L146.736,137.07485903321543L146.99699999999999,132.33882486766257L147.15900000000002,69.86133742085875L147.528,100.32572680181953L147.762,121.9094776088715L148.257,135.09021781532292L148.338,97.45484541137633L148.572,75.11252195387105L148.932,92.6309172674024L149.436,84.0795469423721L149.535,111.35173138319306L149.661,128.75557007991583L149.778,139.19787329794949L149.94,144.6591402332454L150.11100000000002,148.74001538994725L150.21,151.18854048396835L150.264,109.6227213663444L150.37199999999999,110.42497094790026L150.525,128.1991973460161L150.84,64.78366606858407L150.903,40.366151439149874L151.659,83.81147948995213L151.70399999999998,111.67734377319726L151.76700000000002,128.95093751391838L151.821,139.31509375835103L152.109,145.43102133240896L152.118,83.61881358380077L152.163,82.5076994307914L152.28900000000002,106.23797389559172L152.36100000000002,125.08788987522034L152.37,100.89377198662432L152.964,122.48079444197462L152.982,130.37885411889937L153.333,138.02351610483058L153.711,144.75864091289836L154.125,148.34835712411058L154.323,150.95354552446634L155.22299999999998,152.50269156845707L155.358,153.44553961835308L155.511,93.26068544842752L155.583,80.80010663879189L155.889,110.42459523327511L156.177,127.68598809241608L156.29399999999998,138.55611355635884L156.32999999999998,141.2909544711127L156.60899999999998,143.24688388133245L156.807,147.89266157879948L156.843,150.68012819727969L156.978,152.0518588641291L157.689,153.17547514575193L158.103,-28.829295448735564L158.112,-43.09704980315283L158.148,36.086301368108295L158.4,76.95737627511265L158.50799999999998,107.21157960694866L158.598,126.2714790141692L158.63400000000001,137.70741865850152L158.76,144.56898244510091L158.895,145.3481250925511L159.102,68.06229740177615L159.183,102.78129520652641L159.309,121.92173001643539L160.38,93.97982421102908L160.524,-74.64926565836204L160.65,17.154971854982794L160.776,72.23674955390649L160.857,72.66025800603035L161.118,103.55287604003527L161.28900000000002,87.51572696376036L161.433,111.77277095075922L161.487,75.36988058520615L161.622,107.16645960112369L161.676,123.11677564768094L161.928,134.19443562586218L161.946,123.4010900887086L163.008,98.80146785379664L163.215,120.97401394208687L163.26,5.696744060392182L163.53,65.36186034806073L163.926,101.16164745883643L164.01600000000002,80.42150281577149L164.259,37.553819694124684L164.358,-10.897992138637273L164.655,53.4073056560691L164.727,89.59641300886301L164.898,115.69858401990156L164.99699999999999,124.18665784252603L165.375,136.19355821998667L165.807,128.5048085239783L165.816,139.04741108984157L166.635,106.81375131835284L166.806,89.06966981572133L166.896,114.80015972261894L167.202,95.71352906323384L167.463,100.75985924843721L167.571,110.94891820004221L167.643,128.51388217002534L168.183,86.84586905505364L168.192,113.41644886398973L168.64200000000002,96.09178529222852L168.669,98.73186043403696L168.687,120.5383701751137L168.741,115.28756588836039L169.335,126.09139953189803L169.632,108.69960662341282L170.04600000000002,112.94811365291798L170.21699999999998,127.84878171056144L170.24399999999997,121.59832827839594L170.361,134.90352821703758L170.901,124.46745038058462L171.504,136.61920475295472L171.94500000000002,143.85215298423563L171.963,147.31950683907806L172.053,148.43353012991443L172.368,150.98677389358355L172.449,152.46524153596087L173.097,136.76667761779754L173.133,144.0021616379752L173.655,148.2378820238741L174.024,150.88726046432447L174.29399999999998,151.62087364359397L174.31199999999998,152.60675920474125L174.43800000000002,153.50857622375395L174.465,106.86231738392446L174.681,126.06190321944577L175.041,131.55578197427607L175.077,140.6268793280081L175.536,140.6292397496756L175.66199999999998,146.31121744809673L176.00400000000002,117.46889028705469L176.031,132.32370275235434L176.202,113.83885817974625L176.598,130.10084985205796L176.652,131.38159721732075L176.661,137.0559926188044L176.805,144.17811099764643L176.913,145.7715859392587L177.57899999999998,147.76893473553977L177.597,120.73681135083109L177.768,44.61743147156308L177.88500000000002,16.072658602132147L177.975,-27.66817400922105L178.047,45.34156449721544L179.064,89.14340685839042L179.32500000000002,91.41472358822017L179.397,85.44287584102042L180.153,108.70508291824318L180.216,127.1675810009459L180.58499999999998,128.1384574752525L181.071,24.439847703664018L181.20600000000002,74.17194010496014L181.215,106.44518199209234L181.35,125.79282877908153L181.557,133.6925912423268L181.71,90.06061610644073L181.791,115.97403873029731L182.097,128.0674259403717L182.367,120.35005768292564L182.42999999999998,134.14536968984814L182.844,142.43174778936347L183.285,141.68208273133772L183.375,89.15594005187907L183.438,110.47385138575319L183.447,68.27687162807783L183.483,96.60628548317374L183.83399999999997,119.87576914386881L183.933,97.18148916826058L184.08599999999998,120.25342475095636L184.19400000000002,134.0965861005738L184.563,121.1919218406844L184.59,72.96071589502424L184.833,92.08009234371733L184.896,111.24260406898232L185.094,93.74962721478504L185.238,-18.96041383021141L185.31,15.557340636888902L185.49900000000002,28.898406394222214L185.607,79.28357508653332L185.679,40.538512494129264L185.715,86.26751479466063L185.75099999999998,96.24973385197995L186.381,91.62952291885736L187.002,116.9222450013144L187.506,126.13326407459728L187.623,-45.52190461762346L188.154,-22.17069202936122L188.16299999999998,47.94810189756643L188.27100000000002,90.69462028145652L188.379,108.08075767150065L188.514,25.080783249902954L188.604,76.84864744139804L188.73,92.81423677675966L188.847,117.6330733160558L188.928,132.52437523963349L189.216,141.3018852735485L189.792,146.72318601506316L190.06199999999998,135.8923342147778L190.107,143.47403483710798L190.116,148.02868315044933L190.224,150.45811984605984L190.32299999999998,85.64810503103894L191.34,112.77841187604032L191.349,104.31945539713993L191.403,109.94470736457687L191.42999999999998,65.11278690590729L191.538,87.78660518423962L191.673,-61.84555295745291L192.366,24.83719947552828L192.60000000000002,35.15664892498714L192.654,79.55525301831402L192.663,109.6776698746249L193.203,122.05956902764716L193.437,132.14531506629646L193.84199999999998,139.98551927144072L193.869,114.09656904042916L194.067,98.23172009607535L194.409,119.74073019281072L194.49900000000002,102.52812070287042L194.535,123.45971845446655L194.544,136.01935224723556L195.399,125.2218306951198L195.417,134.1792221354025L195.462,136.73562826527373L196.01999999999998,143.97957084286452L196.389,138.6367230762567L196.839,121.81163447095979L196.91099999999997,135.02552004899997L197.046,131.9706496829885L197.136,135.50152872199772L197.172,141.8614895253421L197.298,142.06051770474636L197.70299999999997,145.26176709766236L197.78400000000002,149.04672305006005L198,72.56135732782685L198.02700000000002,104.78395844009513L198.432,124.81490631405708L199.071,136.83346976388884L199.215,133.71654421888863L199.40400000000002,142.07866676229952L199.467,147.1917313073797L199.827,150.25957003442784L200.385,152.10001218065935L200.403,153.2045385583956L201.08700000000002,153.66221170710585L201.267,50.28020457658654L201.573,88.81024793381272L201.71699999999998,115.12955115130785L201.81599999999997,40.95867132572825L202.212,69.61383496871439L202.34699999999998,100.92154280484226L202.356,116.2578912540332L202.39200000000002,89.70142085701185L202.509,101.73754302299555L202.644,92.365396273624L203.193,93.56697174515045L203.526,118.08469847345407L203.724,91.88854490493047L205.31699999999998,117.07765819295828L205.506,132.08353335140583L205.776,141.1946512608435L206.064,76.41854468967503L206.14499999999998,94.3250282106086L206.316,118.20794278152863L206.478,132.86919142800915L206.874,141.66604610680548L206.95499999999998,146.9358726032578L207.135,150.10309842925724L207.333,151.5834166000032L207.54000000000002,152.89458121000192L207.69299999999998,153.68121668145633L207.72,154.1532454352376L207.74699999999999,133.18320944736806L208.08,52.92446105192843L208.332,93.69813187389519L208.494,110.105795925624L208.512,44.52477224757033L209.25900000000001,88.6593945985422L209.358,114.12918534296067L209.601,130.4220424557764L209.835,140.19662797074994L210.06,146.0601977815642L210.08700000000002,149.57414640445867L211.041,-86.85592556992557L211.07700000000003,9.31948214229563L211.212,7.903476118782888L211.23,66.6794039804334L211.275,101.19946436221717L211.32899999999998,112.2642251886111L211.446,128.29677540513651L211.518,-174.27210311098236L211.84199999999998,-55.72275319166608L211.98600000000002,18.398341557017712L212.634,49.049434586571834L212.679,91.26457112486715L212.877,116.7032739249203L212.89499999999998,131.96649296767947L213.00300000000001,122.40052665495276L213.07500000000002,135.23389502813086L213.129,143.08486826687852L213.363,147.7954205628547L213.399,150.62178358771283L213.615,95.44726827634722L213.714,119.20986462674796L213.921,124.61807235080792L214.029,90.52757306098218L214.31699999999998,116.26064784841179L214.911,81.93668647744248L215.028,109.47166614204937L215.289,125.12738059136073L215.38799999999998,126.93447808111638L215.703,120.45220603857518L215.802,129.74858919457546L216.756,133.74396580050336L216.774,131.2395936444175L216.85500000000002,140.68633585485202L216.891,144.6004735206247L216.9,107.90925273301967L216.963,126.690045967994L217.107,137.9585588307964L217.15200000000002,144.71966654847785L217.566,148.7763259045413L217.60199999999998,151.1721021622013L217.62,87.21694607830962L217.971,112.91951258429353L217.998,116.3513620215656L218.124,127.97796958740997L218.826,95.57636709689278L218.88899999999998,99.86340961320956L219.123,-136.22690025477857L221.301,-20.505296787019358L221.535,49.28663208773051L221.544,25.416994089463742L221.74200000000002,72.09331398059689L221.832,102.25310894263765L221.976,123.29530478468453L222.183,123.6414252128786L222.579,133.1345337833944L222.975,140.21055757359872L223.06500000000003,143.83116195311746L223.083,118.31001975838826L223.14600000000002,73.50870666085619L223.28099999999998,105.89657189896815L223.92000000000002,-57.30987133748168L223.93800000000002,11.224644152291374L224.271,68.64104300267003L224.703,103.12915705160201L224.892,123.82184087187217L225.144,107.34477580732764L225.21599999999998,49.09533067377154L225.306,91.38154133173931L225.621,116.66776734556436L225.954,131.9451916573386L226.323,93.46834966503845L226.449,116.2355291252629L226.83599999999998,72.41557106854296L227.106,105.37472729131892L227.322,125.1627770803124L227.538,105.64205600314028L227.547,125.17753619705627L228.51000000000002,131.3355450222566L228.80700000000002,140.7410188679482L229.05,142.20705046386783L229.365,120.7803057209962L229.419,134.19761344658588L229.455,142.30540095954242L229.995,147.17297183001438L230.04,150.05754986447855L230.157,84.43994725549004L230.36399999999998,108.90377759066801L230.472,127.27500392088344L231.15599999999998,138.3045359707623L231.51600000000002,144.92668318155404L231.876,148.87224586012695L231.903,151.14999003908363L232.2,134.42863008984224L232.398,141.34113251207683L232.488,146.74895757906685L232.77599999999998,144.35632925976768L232.92000000000002,91.49923024875717L233.172,77.7948691931906L233.181,30.638575447167042L234.018,80.21026777493921L234.35999999999999,97.98480692688842L234.81900000000002,120.73541540613304L234.83700000000002,134.38578049367982L235.161,130.6620884736706L235.323,140.038010078176L235.35000000000002,125.64007797288022L235.98,137.22591428203654L236.40300000000002,144.28007981922192L236.68200000000002,148.49224840628372L236.87099999999998,148.46745549153954L237.339,109.04797011839662L237.852,10.96605844446906L238.086,68.51880474128097L238.75199999999998,77.59900134794576L238.851,83.42290957360811L238.87800000000001,111.71020769707096L239.14800000000002,113.5778234344377L239.202,129.0854011499005L239.607,139.39575084175868L240.49800000000002,145.5819817550552L241.04700000000003,91.20581639085397L241.26299999999998,112.88994596898999L241.317,102.0851444397614L241.506,59.926343444857466L241.722,95.50673542742524L241.92000000000002,119.2455132701224L242.037,106.1884239438795L242.43300000000002,125.6429804001114L242.739,137.33031949006684L242.775,144.3427229440401L242.92800000000003,148.3254509214183L242.946,150.93375717382102L243.97199999999998,99.24588619339747L244.152,102.28652802615146L244.242,118.9170789727999L244.46699999999998,131.52849952695308L244.854,135.48314273588568L244.98,60.521960202315185L245.10600000000002,98.25709552412255L245.33999999999997,120.89878856447353L245.42100000000002,134.4833323168707L245.844,123.3277560758022L245.88,47.457257333579804L245.97,90.4185876383327L246.069,116.1956680093634L246.105,131.66123581562508L246.132,134.8381094418541L246.204,137.5918873481311L246.393,143.4889790045292L246.456,148.03791865271754L246.64499999999998,150.7672824416305L246.95999999999998,101.36518193896833L247.14,121.71555923213607L247.158,134.55261258353133L247.311,141.21337241851145L247.43699999999998,135.9854105843755L247.5,127.92358473539703" fill="none"></path></g></g></g></g><g opacity="0.2"><g><g><g><path style="fill: none;" stroke="rgb(255, 112, 67)" stroke-width="2.666667px" d="M22.68,154.42078490671702L22.941,154.09364441456273L23.076,153.2577476457227L23.085,152.918139446876L23.319,152.507146869204L23.445,154.6273756637238L23.480999999999998,142.40553531202022L23.67,150.78153318888508L23.994,152.55476282781456L24.066,129.5654918665532L24.237,154.73727741034236L24.714,153.77599810413085L24.849,154.4543310154695L25.055999999999997,154.4850816151593L25.389,150.79083616833668L25.812,152.79002733225934L25.992,143.98816265969072L26.136,154.57731363468338L26.253,142.22632603882812L26.450999999999997,139.76501876593102L26.703,154.32710238720756L26.793000000000003,154.17592732282355L26.847,136.37241138424724L27.108,151.82121861248743L27.315,154.86102483863942L27.36,130.59320407209452L27.378,117.04490126331802L27.522,154.6214154274203L27.882,147.22168975207023L28.250999999999998,154.72751290816814L28.305,148.6225892311195L28.314,96.22151028702501L28.44,154.85987762501463L28.593,125.28651031653862L29.394,115.57220862817485L29.493000000000002,153.36640987417195L29.754,154.861328125L30.231,147.3853391163284L30.312,-86.3470615325496L30.491999999999997,67.84118580969516L30.996,154.7206032536924L31.509,153.25587518210523L31.653,79.36666749115102L31.752,147.82416810735594L31.851,154.14777443674393L32.022,153.37579197180457L32.157,126.81684713973664L32.517,117.81936935777776L32.643,154.861328125L32.705999999999996,151.95063617709093L32.886,135.83363635104615L32.994,154.861328125L33.083999999999996,147.48610271303914L33.102,102.69764987623785L33.174,154.32406293042004L33.48,142.34183858311735L33.786,135.266002961318L33.804,153.55342547455803L33.830999999999996,42.62066346639767L33.92100000000001,142.25796671805438L33.957,153.3871124648722L34.443,128.206327227992L34.623000000000005,154.83589162980206L34.902,35.93015316571109L35.271,154.75672070332803L35.631,11.257873664610088L35.64,146.26673990034033L35.964000000000006,124.50499411078636L36.108000000000004,154.861328125L36.135,154.59030220273416L36.45,154.6477683748817L36.477,154.861328125L36.603,148.15386016084813L36.882,114.3469976632623L37.161,142.23134345014114L37.233,148.2596279825084L37.548,153.59842394001316L37.683,154.861328125L37.836,154.861328125L37.854,58.18866882752627L37.917,154.7273151127156L38.511,65.15207751409616L39.141,145.41087897715624L39.258,-285.1237377636135L39.609,154.4713282380253L39.699,131.82878611190245L39.978,154.7417607739335L40.158,-159.2835280876607L40.166999999999994,53.45022162760142L40.329,150.86942689481657L41.148,154.861328125L41.229,154.861328125L41.318999999999996,95.73840808053501L41.418,150.03253455553204L42.399,153.68140572553966L43.389,154.861328125L43.749,-86.08154091704641L44.064,119.15015034889802L44.442,-48.106646931963084L44.487,153.19418278045487L44.604000000000006,154.861328125L44.676,154.861328125L44.703,154.861328125L44.883,154.861328125L45.045,114.21799546910916L45.171,137.152932019555L45.288000000000004,153.7475880839629L45.711,135.00248667306732L45.72,146.06545665464364L45.909,154.861328125L46.160999999999994,154.86126878636423L46.233,-139.9697779370472L46.30500000000001,154.83799485478085L46.674,-27.633406652137637L46.755,152.76513147796504L46.89,147.9840527648339L46.971,154.86084022955038L47.124,154.05064368317835L47.178,141.8579649743624L47.295,136.7191995580215L47.304,16.36313253128901L47.312999999999995,133.16696465294808L47.43,141.19769078784157L47.583,154.86020728410222L47.826,154.86069517955184L48.024,143.81639708869625L48.114,154.465203172178L48.266999999999996,154.861328125L49.176,135.92191246151924L49.275,154.69779084483162L50.265,145.7427006283542L50.274,151.8648061370477L50.45399999999999,154.8589018341154L50.463,151.7895054082619L50.598000000000006,137.5720012448728L50.823,12.496956683928147L51.309,154.861328125L51.471,154.85874359775335L51.687000000000005,86.1186328389449L51.903,154.861328125L51.93,154.861328125L52.722,137.99321984744165L53.153999999999996,154.01097250857856L53.667,154.68536929041147L53.865,105.20641487138346L53.937000000000005,94.97939440410119L54.018,154.861328125L54.251999999999995,154.63123926823027L54.612,140.14462120528333L54.639,153.95049984555226L54.918,-76.97110874531795L55.062,154.861328125L55.403999999999996,154.8609193477314L55.431000000000004,99.71217806090135L55.467,-862.386337576434L55.53,40.55618002358824L55.556999999999995,154.861328125L55.728,154.85965345683508L55.926,146.9473079002928L56.367,112.12390864023473L56.556,73.36612706759479L57.15,132.70634519623127L57.168,154.8608797886409L57.636,154.80925517552532L57.753,66.44501364196185L57.807,93.61148720653728L57.915,105.4258755191695L57.942,151.7797936515417L58.293,154.62563506374136L58.626000000000005,152.5227793031372L58.725,154.861328125L58.824,141.72523763251957L58.878,154.8562250023242L58.940999999999995,119.88078037789091L59.274,141.05929990287405L59.498999999999995,143.1369565228233L59.607,151.13656283984892L59.634,136.35812395939138L59.832,148.84518823341932L60.147,132.64590549911372L60.245999999999995,154.83966292976402L60.561,141.13723131117877L60.831,106.69338833820075L61.38,154.8372102661524L61.47,-2.206128722289577L62.604,131.3306976032909L63.333,154.68814501992892L63.369,83.81652453262359L63.594,144.72207609319594L64.026,72.17160736373626L64.359,152.40005381801166L64.728,146.27722305932548L64.74600000000001,149.46302210900467L64.8,3.052975447382778L64.881,113.10600262123626L65.08800000000001,118.81664084317163L65.511,154.02204905392136L66.006,127.86910576093942L66.033,146.0050301438896L66.042,154.34466003021225L66.114,151.72879539069254L66.456,153.09169836330693L66.708,118.87173346988857L66.879,132.68105375103187L67.059,140.26241499045864L67.33800000000001,103.94712374999654L68.229,150.54620934580453L68.31,110.08208596310578L68.328,153.13071021973155L68.706,112.72793639323208L68.742,124.80775961000472L68.877,123.49570984824095L68.904,151.4771270500496L68.913,73.46967298700474L69.201,148.52011800033506L69.318,150.61734977690503L69.543,146.48729501629714L69.66,89.90340926439967L69.795,-0.7954119956120849L69.87599999999999,139.8671537444461L69.903,120.05170861480292L70.173,154.36163088004105L70.389,144.84358183969744L70.416,-11.684724163031206L70.776,154.861328125L70.848,151.17254842584953L71.14500000000001,154.7781815099297L71.52300000000001,140.4608763543656L71.604,154.861301752273L71.64899999999999,154.861328125L72.099,-11.285638871602714L73.521,150.96831802790985L74.088,148.37096704274882L74.33999999999999,101.58442410337739L74.547,57.85227150819264L75.006,144.78167845623102L75.312,89.03314883226994L75.429,149.08654483780265L76.05,70.587938293349L76.122,138.29125803534407L76.347,113.37481323443353L76.491,122.85246585018467L76.599,141.48777759855147L76.995,153.19733432133216L77.51700000000001,134.55131524580065L77.715,74.01796198147349L77.75999999999999,70.66468292893842L77.796,154.861328125L78.54299999999999,154.861328125L78.705,150.75665052095428L79.02900000000001,154.86120285454672L79.218,140.0605647311313L79.506,96.95850932959002L79.524,154.09220710094087L79.74,120.63197454076726L79.749,-4369.586330085994L79.794,154.67333014053293L79.839,-116.70987664442514L80.775,154.84543196379673L81.27,152.49310339207295L81.43199999999999,147.20186405454297L81.477,149.37776567577384L81.59400000000001,-81.46747409086679L81.639,134.80637248186395L81.783,154.861328125L81.82799999999999,154.8304984071292L81.909,-28.967510606860742L82.053,38.64047832018696L82.575,124.26616269501392L82.998,73.56819490191992L83.08800000000001,122.41878613410518L83.268,153.15860597172286L83.73599999999999,154.861328125L84.096,154.85787989094388L84.16799999999999,142.80930835567415L84.249,149.10561891261023L84.393,154.85824251594022L84.762,139.63664951722603L84.789,138.4127308159368L84.888,147.53673834889196L85.437,154.17106155469082L85.482,122.38843771850225L85.5,1.5828014076687396L86.004,154.8613149386365L86.571,154.01984033803456L86.598,126.85688093933277L86.652,154.861328125L86.994,154.861328125L87.12,154.861328125L87.381,111.41908432461787L87.795,-56.107090583071155L87.98400000000001,-10.94052536599338L88.29,154.6831012358889L88.56,153.88750199391507L88.69500000000001,154.861328125L88.821,154.86124900681898L89.33399999999999,145.4950277558528L89.43299999999999,107.3438386839116L89.442,25.066949998028576L89.694,52.1873701880686L89.72999999999999,105.21523654856719L89.74799999999999,63.393906702287495L89.856,132.22086944431067L90.072,74.62320287991315L90.18,130.99650240666233L90.252,151.09163689939305L90.30600000000001,153.22046320291702L90.405,125.66348866955377L90.477,154.60323802533094L90.495,22.16153259552084L90.855,98.35808357910719L90.93599999999999,96.99712559510954L90.954,44.90052637748886L91.26,152.049718512455L91.31400000000001,150.54165345721412L91.458,150.154851263389L92.06099999999999,152.04963280109223L92.08800000000001,125.18864112661686L92.32199999999999,151.3061592540471L92.664,118.7503332142951L92.673,148.79247574531473L92.90700000000001,154.8607017727336L93.06,114.56144089973532L93.168,20.561248707119375L93.213,119.03115660464391L93.57300000000001,131.23929632466752L93.627,154.21770831558388L93.879,117.56143090128899L94.39200000000001,60.947823086054996L94.932,-121.74131824821238L95.22,154.76070298510604L95.616,138.7144282197114L95.814,154.861328125L95.985,-1.7793125084135681L95.994,76.03364928613883L96.246,154.83387411618605L96.462,-90.75370686082174L96.57900000000001,154.8613149386365L97.011,154.861328125L97.137,154.861328125L97.182,154.861328125L97.686,131.22549020207953L97.78500000000001,141.735793316504L97.91099999999999,154.861328125L98.09100000000001,154.861328125L98.217,142.53054203803185L98.937,130.6624522600323L99.207,19.77420741505921L99.45,154.61603539111093L99.50399999999999,154.22346416325308L99.58500000000001,154.85999630228616L100.08,-551.9913666713984L100.161,120.69697671965696L100.449,148.23703314864542L100.485,132.9800743230153L100.764,84.36080487258732L100.818,76.47964506573044L100.98,21.79216936742887L101.03399999999999,24.80492376885377L101.286,127.22800454695243L101.30399999999999,81.3275786418235L101.502,154.861328125L101.52,154.861328125L101.925,146.37304836290423L102.015,154.60201828670688L102.303,142.84650708711706L102.348,129.83413105702493L102.411,151.52813849726226L102.771,116.94591123249847L102.80699999999999,153.37363600137178L103.38300000000001,154.86126219318248L103.572,154.861328125L103.815,154.34063818934374L104.04,-3.4348208871670067L104.571,154.861328125L104.607,154.861328125L104.88600000000001,153.98994025879074L105.426,101.25974286801647L105.786,136.43364885635674L106.137,103.43874987785239L106.245,154.861301752273L106.263,151.2375967570115L106.326,116.40865922428202L106.461,-73.63564446987588L106.62299999999999,153.74415962945204L106.749,154.49868334911298L106.866,143.1041620367905L106.911,154.84662532969378L107.00099999999999,153.27939965459518L107.622,154.861328125L108.36,136.30039405997377L108.441,108.7346374085173L108.52199999999999,153.9334696570877L108.612,154.84950655011926L108.855,154.861328125L109.557,154.861328125L109.566,154.85995674319565L109.746,154.861328125L109.854,-163.43799740029502L109.926,-4.296839842107147L110.29499999999999,150.30116055964027L110.304,127.38491567946039L110.46600000000001,144.95574504765682L110.835,-138.3156013810076L110.934,86.50072750099935L111.051,154.861328125L111.168,147.31204930797685L111.321,80.33322793594562L111.56400000000001,154.8612885659095L111.654,66.14394259045366L111.771,154.861328125L112.05,154.861328125L112.059,154.861328125L112.068,154.861328125L112.158,154.861328125L112.275,154.861328125L112.329,154.861328125L112.455,154.861275379546L113.085,154.85606676596217L113.328,154.3677493527066L113.607,154.86031277501024L113.76,154.6720246905461L114.237,133.32214177865535L114.39,153.71283542294987L114.453,139.97472809790634L114.93900000000001,154.86125560000073L115.038,134.11158298887312L115.59599999999999,154.83688720024657L115.623,104.74813599418849L115.632,153.46591417316813L116.07300000000001,153.6677710256772L116.523,75.92636503267568L116.57700000000001,-41.71371329645626L116.586,84.60297903150786L116.64,-216.5423051100225L117.027,70.60676842043176L117.17999999999999,-252.43242183886477L117.56700000000001,153.03317068889737L117.67500000000001,154.85047574783675L117.88199999999999,17.758328908123076L118.044,154.74325083300937L118.215,154.78432635532226L118.30499999999999,133.9542169268243L118.323,150.0283808510285L118.881,154.861328125L118.971,154.72978755587246L119.034,59.24044614646118L119.223,154.861328125L119.45700000000001,154.861328125L120.09599999999999,154.13139038009103L120.591,144.73090436356142L121.30199999999999,129.1149665710982L121.716,127.16258040443063L121.725,154.62922175461426L121.77000000000001,151.93870911130216L121.842,154.77998144854791L122.004,120.70908180135302L122.364,108.39328201650642L122.58,154.861328125L122.634,125.28825091652106L122.643,154.78933058027178L122.949,154.8585853613913L123.048,97.23749322223011L123.39,154.861328125L123.426,154.861328125L123.47999999999999,-42.52984370640479L123.552,154.861328125L124.488,102.00122527417261L124.497,-47.825447730254425L125.06400000000001,149.53503943327814L125.15400000000001,133.67032770696096L125.199,154.77257071225904L125.505,148.49680450966116L125.55000000000001,154.00670012680348L125.66699999999999,132.8441361016594L125.685,149.3287717421772L126.25200000000001,154.85118781146593L126.64800000000001,150.6262901313603L126.72,154.0275411743205L127.017,154.86126219318248L127.782,53.948336508939974L128.142,153.24642055947334L128.322,87.26255646604113L128.40300000000002,40.766542080556974L128.592,151.49444733851124L128.871,154.861328125L128.889,-79.10157675109808L128.92499999999998,154.78211763943546L129.114,154.24439092213288L129.141,154.861328125L129.177,154.861328125L129.321,149.2121647297172L129.40200000000002,154.84531987970695L129.456,154.85409540461842L130.113,146.74570818187203L130.266,135.8796963187633L130.761,152.67140939936507L131.202,58.39121796411928L131.733,77.26959395094309L132.09300000000002,144.19253151444718L132.129,113.32921478943899L132.408,154.861328125L132.633,148.37605038587935L132.957,89.17376821266953L133.236,154.84459462971427L133.254,150.54607088898774L133.362,54.47847447404638L133.70399999999998,154.5485805486096L133.81199999999998,154.73476540809497L134.064,153.95863583183382L134.1,105.08252898626961L134.118,73.05184987303801L134.307,154.7449123148108L134.316,151.20453854370862L134.451,106.89518585207406L134.559,144.97729156562127L134.80200000000002,148.08888435468543L134.82,118.46753186942078L134.838,135.74457565194461L135.504,139.4416627601022L135.927,147.7857034850167L136.35,-32.361535522621125L136.89000000000001,154.8218085935805L137.55599999999998,154.861328125L137.637,128.25330364797264L138.24,118.5664164093323L138.62699999999998,141.5756119658472L138.66299999999998,103.55560743121896L138.816,98.4555637713056L139.014,92.08041854016483L139.26600000000002,154.84710663196165L139.302,108.0008294659201L139.491,154.861328125L139.608,151.51501806557644L139.73399999999998,150.49047058727592L139.842,154.861328125L139.851,154.861328125L139.95,154.861328125L140.346,151.04424510896206L141.21,154.85883590229787L141.561,127.80681997293141L141.768,154.86087319545913L141.867,154.8613149386365L142.25400000000002,154.861328125L142.659,154.861328125L143.01,154.861328125L143.28,135.54331877897494L143.613,71.59638522181194L144.216,153.1931146850111L144.30599999999998,55.251320645795204L144.46800000000002,142.8842200867366L144.54,147.6102061731508L144.81,154.861328125L145.125,147.3405252599623L145.296,154.76750714867376L145.314,154.81371216638945L145.341,154.86089956818614L145.458,115.22360732941888L145.962,152.8461550885113L146.142,154.76030739420094L146.736,120.59712957520969L146.99699999999999,125.23477361933328L147.15900000000002,-23.854893749346957L147.528,146.02231087326072L147.762,154.28510381944943L148.257,154.861328125L148.338,41.001786805456504L148.572,41.59903676761314L148.932,118.90851023769937L149.436,71.25249145482667L149.535,152.26000804442447L149.661,154.861328125L149.778,154.861328125L149.94,152.85104063618928L150.11100000000002,154.861328125L150.21,154.861328125L150.264,47.27399268990848L150.37199999999999,111.62834532023408L150.525,154.8605369431898L150.84,-30.339630847563967L150.903,3.739879494998604L151.659,148.97947156615555L151.70399999999998,153.47614019806497L151.76700000000002,154.861328125L151.821,154.861328125L152.109,154.60491269349586L152.118,-9.099498039111495L152.163,80.84102820127737L152.28900000000002,141.83338559279218L152.36100000000002,153.36276384466328L152.37,64.60259515373036L152.964,154.861328125L152.982,142.22594363428652L153.333,149.49050908372737L153.711,154.861328125L154.125,153.73293144092895L154.323,154.861328125L155.22299999999998,154.82641063444316L155.358,154.85981169319712L155.511,2.9834041935391724L155.583,62.1092384243384L155.889,154.861328125L156.177,153.5780773811275L156.29399999999998,154.861301752273L156.32999999999998,145.39321584324352L156.60899999999998,146.18077799666207L156.807,154.861328125L156.843,154.861328125L156.978,154.10945486440323L157.689,154.86089956818614L158.103,-301.8364513404668L158.112,-64.49868133477871L158.148,154.861328125L158.4,138.26398863561917L158.50799999999998,152.5928846047027L158.598,154.861328125L158.63400000000001,154.861328125L158.76,154.861328125L158.895,146.51683906372637L159.102,-47.8664441343863L159.183,154.85979191365186L159.309,150.63238223129883L160.38,52.06696550291963L160.524,-327.59290046244865L160.65,154.861328125L160.776,154.85941610229202L160.857,73.29552068421617L161.118,149.89180309104268L161.28900000000002,63.46000334934797L161.433,148.1583369312575L161.487,20.765545036876574L161.622,154.861328125L161.676,147.04224971751682L161.928,150.81092559313402L161.946,107.21107178297825L163.008,61.902034501428716L163.215,154.2328330745222L163.26,-167.21916076214987L163.53,154.85953477956355L163.926,154.861328125L164.01600000000002,49.311285851174034L164.259,-26.747704988345504L164.358,-83.57570988778029L164.655,149.8652523481287L164.727,143.88007403805386L164.898,154.85184053645935L164.99699999999999,136.91876857646275L165.375,154.20390878617764L165.807,116.97168397996575L165.816,154.8613149386365L166.635,58.46326166111976L166.806,62.45354756177403L166.896,153.3958945829654L167.202,67.0835830741562L167.463,108.32935452624224L167.571,126.23250662744977L167.643,154.861328125L168.183,24.34384938259609L168.192,153.2723185773939L168.64200000000002,70.10478993458673L168.669,102.69197314674966L168.687,153.24813478672877L168.741,107.41135945823044L169.335,142.29714999720454L169.632,82.611917260685L170.04600000000002,119.32087419717573L170.21699999999998,150.1997837970266L170.24399999999997,112.22264813014772L170.361,154.861328125L170.901,108.81333362590522L171.504,154.84683631150983L171.94500000000002,154.70157533115707L171.963,152.52053762134165L172.053,150.10456506616902L172.368,154.8166395390872L172.449,154.68294299952686L173.097,113.21883174055256L173.133,154.85538766824175L173.655,154.59146260272246L174.024,154.861328125L174.29399999999998,152.7212934124982L174.31199999999998,154.0855875464622L174.43800000000002,154.861301752273L174.465,36.89292912418023L174.681,154.86128197272774L175.041,139.7966001065215L175.077,154.23352535860613L175.536,140.63278038217686L175.66199999999998,154.83418399572838L176.00400000000002,74.20539954549167L176.031,154.60592145030387L176.202,86.11159132083412L176.598,154.4938373605255L176.652,133.30271826521493L176.661,145.5675857210299L176.805,154.8612885659095L176.913,148.16179835167713L177.57899999999998,150.76495792996138L177.597,80.18862627376802L177.768,-69.56163834733893L177.975,-93.27942292625089L178.047,154.8561722568702L179.064,154.84617040015291L179.32500000000002,94.82169868296478L179.397,76.48510422022082L180.153,143.59839353407733L180.216,154.861328125L180.58499999999998,129.59477218671236L181.071,-131.1080669537187L181.20600000000002,148.77007870690431L181.215,154.85504482279066L181.35,154.81429895956535L181.557,145.54223493719473L181.71,24.612653402611613L181.791,154.84417266608216L182.097,146.20750675548334L182.367,108.77400529675651L182.42999999999998,154.83833770023193L182.844,154.8613149386365L183.285,140.55758514429908L183.375,10.366726032691076L183.438,142.4507183865644L183.447,4.9814019915647805L183.483,139.10040626581758L183.83399999999997,154.77999463491142L183.933,63.14006920484826L184.08599999999998,154.861328125L184.19400000000002,154.861328125L184.563,101.83492545085028L184.59,0.6139069765340537L184.833,120.75915701675694L184.896,139.98637165687978L185.094,67.51016193348914L185.238,-188.02547539770612L185.31,67.33397233753931L185.49900000000002,48.91000503022224L185.607,154.861328125L185.679,-17.579081394476816L185.715,154.86101824545767L185.75099999999998,111.22306243795902L186.381,84.69920651917346L187.002,154.861328125L187.506,139.94979268452153L187.623,-303.0046576559544L188.154,12.856126853032038L188.16299999999998,153.12629278795794L188.27100000000002,154.81439785729162L188.379,134.15996375656687L188.514,-99.4191783824936L188.604,154.50044372864068L188.73,116.76262077980209L188.847,154.861328125L188.928,154.861328125L189.216,154.468150324421L189.792,154.85513712733518L190.06199999999998,119.64605651434977L190.107,154.84658577060327L190.116,154.86065562046133L190.224,154.10227488947567L190.32299999999998,-11.566917191492394L191.34,153.4738721435424L191.349,91.63102067878935L191.403,118.38258531573229L191.42999999999998,-2.135093782097101L191.538,121.79733260173816L191.673,-286.2937901699916L192.366,154.861328125L192.60000000000002,50.63582309917547L192.654,146.15315915830433L192.663,154.86129515909124L193.203,140.63241775718052L193.437,147.27393412427045L193.84199999999998,151.7458255791571L193.869,75.26314369391184L194.067,74.43444667954464L194.409,152.00424533791374L194.49900000000002,76.70920646796003L194.535,154.85711508186068L194.544,154.8588029363891L195.399,109.02554836694617L195.417,147.6153092958266L195.462,140.57023746008053L196.01999999999998,154.84548470925074L196.389,130.62245142634492L196.839,96.57400156301446L196.91099999999997,154.8463484160602L197.046,127.38834413397126L197.136,140.79784728051163L197.172,151.4014307303587L197.298,142.3590599738527L197.70299999999997,150.0636411870364L197.78400000000002,154.72415697865654L198,-42.16669125552289L198.02700000000002,153.11786010849755L198.432,154.861328125L199.071,154.8613149386365L199.215,129.04115590138827L199.40400000000002,154.6218505774159L199.467,154.861328125L199.827,154.861328125L200.385,154.86067540000658L200.403,154.861328125L201.08700000000002,154.34872143017128L201.267,-104.79280611919243L201.573,146.605312969652L201.71699999999998,154.60850597755052L201.81599999999997,-70.29764841264118L202.212,112.5965804331936L202.34699999999998,147.8831045590341L202.356,139.26241392781958L202.39200000000002,49.86671526147984L202.509,119.79172627197113L202.644,78.30717614956666L203.193,95.36933495244011L203.526,154.8612885659095L203.724,52.59431455214508L205.31699999999998,154.861328125L205.506,154.59234608907718L205.776,154.861328125L206.064,-20.74561516707763L206.14499999999998,121.1847534920089L206.316,154.0323146379087L206.478,154.86106439772993L206.874,154.861328125L206.95499999999998,154.84061234793626L207.135,154.85393716825638L207.333,153.80389385612216L207.54000000000002,154.861328125L207.69299999999998,154.86116988863796L207.72,154.8612885659095L207.74699999999999,101.72815546556376L208.08,-67.46366154123102L208.332,154.85863810684532L208.494,134.71729200321715L208.512,-53.84676326951016L209.25900000000001,154.861328125L209.358,152.3338714595884L209.601,154.861328125L209.835,154.8585062432103L210.06,154.85555249778554L210.08700000000002,154.84506933880039L211.041,-441.50103353150195L211.07700000000003,153.5825937106274L211.212,5.779467083513737L211.23,154.8432957729092L211.275,152.9795549348928L211.32899999999998,128.86136642820202L211.446,152.34560072992463L211.518,-628.1254208851607L211.84199999999998,122.10127168730833L211.98600000000002,129.57998368004337L212.634,95.026074130903L212.679,154.58727593231015L212.877,154.861328125L212.89499999999998,154.86132153181825L213.00300000000001,108.0515771858627L213.07500000000002,154.483947587898L213.129,154.861328125L213.363,154.86124900681898L213.399,154.861328125L213.615,12.685495309298858L213.714,154.85375915234908L213.921,132.73038393689785L214.029,39.39182412624359L214.31699999999998,154.86026002955623L214.911,30.450744420988485L215.028,150.7741356389597L215.289,148.6109522653278L215.38799999999998,129.64512431574985L215.703,110.72879797476344L215.802,143.6931639285758L216.756,139.73703070939519L216.774,127.48303541028872L216.85500000000002,154.85644917050377L216.891,150.47168001928367L216.9,52.872421551612206L216.963,154.86123582045548L217.107,154.861328125L217.15200000000002,154.861328125L217.566,154.8613149386365L217.60199999999998,154.76576654869132L217.62,-8.715788047527894L217.971,151.4733623432694L217.998,121.4991361774737L218.124,145.41788093617652L218.826,46.97396336111706L218.88899999999998,106.29397338768467L219.123,-490.36236505676067L221.08499999999998,32.68070353940129L221.301,51.7325461381115L221.535,153.97452539985534L221.544,-10.387462907936424L221.74200000000002,142.10779381729662L221.832,147.49280138569884L221.976,154.8585985477548L222.183,124.1606058551697L222.579,147.37419663916808L222.975,150.82459325890522L223.06500000000003,149.26206852239557L223.083,80.02830646629445L223.14600000000002,6.306737014558166L223.28099999999998,154.4783697561361L223.92000000000002,-302.11953619215643L223.93800000000002,114.02641738695092L224.271,154.76564127823804L224.703,154.861328125L224.892,154.86086660227738L225.144,82.62917821051087L225.21599999999998,-38.27883702656254L225.306,154.81085731869098L225.621,154.5971063663019L225.954,154.861328125L226.323,35.75308667658828L226.449,150.38629831559956L226.83599999999998,6.685633983463049L227.106,154.8134616254829L227.322,154.84485176380258L227.538,76.36097438738216L227.547,154.4807564879302L228.51000000000002,140.57255826005712L228.80700000000002,154.8492296364857L229.05,144.40609785774723L229.365,88.64018860668875L229.419,154.32357503497042L229.455,154.46708222897723L229.995,154.47432813572232L230.04,154.3844169161748L230.157,-13.986456657992676L230.36399999999998,145.59952309343498L230.472,154.83184341620654L231.15599999999998,154.8488340455806L231.51600000000002,154.85990399774164L231.876,154.79058987798635L231.903,154.56660630751867L232.2,109.34659016598016L232.398,151.70988614542875L232.488,154.86069517955184L232.77599999999998,140.76738678081892L232.92000000000002,12.213581732241437L233.172,57.23832760984078L233.181,-40.095865171868354L234.018,154.56780626659747L234.35999999999999,124.6466156548122L234.81900000000002,154.861328125L234.83700000000002,154.861328125L235.161,125.07655044365674L235.323,154.10189248493407L235.35000000000002,104.0431798149366L235.98,154.60466874577105L236.40300000000002,154.861328125L236.68200000000002,154.8105012868764L236.87099999999998,148.43026611942332L237.339,49.918742058682255L237.852,-136.1568090664223L238.086,154.84792418649886L238.75199999999998,91.21929625794291L238.851,92.15877191210166L238.87800000000001,154.14115488226525L239.14800000000002,116.37924704048783L239.202,152.34676772309467L239.607,154.861275379546L240.49800000000002,154.861328125L241.04700000000003,9.64156834455207L241.26299999999998,145.41614033619408L241.317,85.8779421459185L241.506,-3.31185804749839L241.722,148.87732340127695L241.92000000000002,154.85368003416806L242.037,86.60278995451517L242.43300000000002,154.82481508445926L242.739,154.861328125L242.775,154.861328125L242.92800000000003,154.2995428874856L242.946,154.84621655242518L243.97199999999998,21.714079722762108L244.152,106.8474907752825L244.242,143.86290539277252L244.46699999999998,150.44563035818283L244.854,141.41510754928458L244.98,-51.919813598040534L245.10600000000002,154.8597985068336L245.33999999999997,154.861328125L245.42100000000002,154.86014794546645L245.844,106.59439171419945L245.88,-66.34849077975382L245.97,154.86058309546206L246.069,154.8612885659095L246.105,154.85958752501756L246.132,139.60341988119762L246.204,141.72255420754664L246.393,152.33461648912635L246.456,154.861328125L246.64499999999998,154.861328125L246.95999999999998,27.262031184975058L247.14,152.2411251718877L247.158,153.80819261062425L247.311,151.20451217098162L247.43699999999998,128.1434678331716L247.5,115.8308459619293" fill="none"></path></g></g></g></g></g></g><g transform="translate(60, 176)" clip-path="url(#clip_1)"><clipPath id="clip_1"><rect width="270" height="23"></rect></clipPath><g><g><line x1="0" y1="0" x2="0" y2="5" style="visibility: inherit;" fill="rgb(0, 0, 0)" stroke="rgb(204, 204, 204)" stroke-width="1.333333px"></line><line x1="22.5" y1="0" x2="22.5" y2="5" style="visibility: inherit;" fill="rgb(0, 0, 0)" stroke="rgb(204, 204, 204)" stroke-width="1.333333px"></line><line x1="45" y1="0" x2="45" y2="5" style="visibility: inherit;" fill="rgb(0, 0, 0)" stroke="rgb(204, 204, 204)" stroke-width="1.333333px"></line><line x1="67.5" y1="0" x2="67.5" y2="5" style="visibility: inherit;" fill="rgb(0, 0, 0)" stroke="rgb(204, 204, 204)" stroke-width="1.333333px"></line><line x1="90" y1="0" x2="90" y2="5" style="visibility: inherit;" fill="rgb(0, 0, 0)" stroke="rgb(204, 204, 204)" stroke-width="1.333333px"></line><line x1="112.5" y1="0" x2="112.5" y2="5" style="visibility: inherit;" fill="rgb(0, 0, 0)" stroke="rgb(204, 204, 204)" stroke-width="1.333333px"></line><line x1="135" y1="0" x2="135" y2="5" style="visibility: inherit;" fill="rgb(0, 0, 0)" stroke="rgb(204, 204, 204)" stroke-width="1.333333px"></line><line x1="157.5" y1="0" x2="157.5" y2="5" style="visibility: inherit;" fill="rgb(0, 0, 0)" stroke="rgb(204, 204, 204)" stroke-width="1.333333px"></line><line x1="180" y1="0" x2="180" y2="5" style="visibility: inherit;" fill="rgb(0, 0, 0)" stroke="rgb(204, 204, 204)" stroke-width="1.333333px"></line><line x1="202.5" y1="0" x2="202.5" y2="5" style="visibility: inherit;" fill="rgb(0, 0, 0)" stroke="rgb(204, 204, 204)" stroke-width="1.333333px"></line><line x1="225" y1="0" x2="225" y2="5" style="visibility: inherit;" fill="rgb(0, 0, 0)" stroke="rgb(204, 204, 204)" stroke-width="1.333333px"></line><line x1="247.5" y1="0" x2="247.5" y2="5" style="visibility: inherit;" fill="rgb(0, 0, 0)" stroke="rgb(204, 204, 204)" stroke-width="1.333333px"></line><line x1="270" y1="0" x2="270" y2="5" style="visibility: inherit;" fill="rgb(0, 0, 0)" stroke="rgb(204, 204, 204)" stroke-width="1.333333px"></line></g><g transform="translate(0, 8)"><text style="text-anchor: middle; visibility: hidden; font-family: Roboto, sans-serif; font-size: 16px; font-weight: 200;" x="0" y="0" dx="0em" dy="0.95em" fill="rgb(33, 33, 33)" stroke="none" stroke-width="1.333333px">-10k</text><text style="text-anchor: middle; visibility: inherit; font-family: Roboto, sans-serif; font-size: 16px; font-weight: 200;" x="22.5" y="0" dx="0em" dy="0.95em" fill="rgb(33, 33, 33)" stroke="none" stroke-width="1.333333px">0</text><text style="text-anchor: middle; visibility: hidden; font-family: Roboto, sans-serif; font-size: 16px; font-weight: 200;" x="45" y="0" dx="0em" dy="0.95em" fill="rgb(33, 33, 33)" stroke="none" stroke-width="1.333333px">10k</text><text style="text-anchor: middle; visibility: inherit; font-family: Roboto, sans-serif; font-size: 16px; font-weight: 200;" x="67.5" y="0" dx="0em" dy="0.95em" fill="rgb(33, 33, 33)" stroke="none" stroke-width="1.333333px">20k</text><text style="text-anchor: middle; visibility: hidden; font-family: Roboto, sans-serif; font-size: 16px; font-weight: 200;" x="90" y="0" dx="0em" dy="0.95em" fill="rgb(33, 33, 33)" stroke="none" stroke-width="1.333333px">30k</text><text style="text-anchor: middle; visibility: inherit; font-family: Roboto, sans-serif; font-size: 16px; font-weight: 200;" x="112.5" y="0" dx="0em" dy="0.95em" fill="rgb(33, 33, 33)" stroke="none" stroke-width="1.333333px">40k</text><text style="text-anchor: middle; visibility: hidden; font-family: Roboto, sans-serif; font-size: 16px; font-weight: 200;" x="135" y="0" dx="0em" dy="0.95em" fill="rgb(33, 33, 33)" stroke="none" stroke-width="1.333333px">50k</text><text style="text-anchor: middle; visibility: inherit; font-family: Roboto, sans-serif; font-size: 16px; font-weight: 200;" x="157.5" y="0" dx="0em" dy="0.95em" fill="rgb(33, 33, 33)" stroke="none" stroke-width="1.333333px">60k</text><text style="text-anchor: middle; visibility: hidden; font-family: Roboto, sans-serif; font-size: 16px; font-weight: 200;" x="180" y="0" dx="0em" dy="0.95em" fill="rgb(33, 33, 33)" stroke="none" stroke-width="1.333333px">70k</text><text style="text-anchor: middle; visibility: inherit; font-family: Roboto, sans-serif; font-size: 16px; font-weight: 200;" x="202.5" y="0" dx="0em" dy="0.95em" fill="rgb(33, 33, 33)" stroke="none" stroke-width="1.333333px">80k</text><text style="text-anchor: middle; visibility: hidden; font-family: Roboto, sans-serif; font-size: 16px; font-weight: 200;" x="225" y="0" dx="0em" dy="0.95em" fill="rgb(33, 33, 33)" stroke="none" stroke-width="1.333333px">90k</text><text style="text-anchor: middle; visibility: inherit; font-family: Roboto, sans-serif; font-size: 16px; font-weight: 200;" x="247.5" y="0" dx="0em" dy="0.95em" fill="rgb(33, 33, 33)" stroke="none" stroke-width="1.333333px">100k</text><text style="text-anchor: middle; visibility: hidden; font-family: Roboto, sans-serif; font-size: 16px; font-weight: 200;" x="270" y="0" dx="0em" dy="0.95em" fill="rgb(33, 33, 33)" stroke="none" stroke-width="1.333333px">110k</text></g><line x1="0" y1="0" x2="270" y2="0" fill="rgb(0, 0, 0)" stroke="rgb(204, 204, 204)" stroke-width="1.333333px"></line></g></g></g></g></svg>